G04 #@! TF.GenerationSoftware,KiCad,Pcbnew,(5.1.5)-3*
G04 #@! TF.CreationDate,2020-05-15T17:56:07+09:00*
G04 #@! TF.ProjectId,test2,74657374-322e-46b6-9963-61645f706362,rev?*
G04 #@! TF.SameCoordinates,Original*
G04 #@! TF.FileFunction,Soldermask,Bot*
G04 #@! TF.FilePolarity,Negative*
%FSLAX46Y46*%
G04 Gerber Fmt 4.6, Leading zero omitted, Abs format (unit mm)*
G04 Created by KiCad (PCBNEW (5.1.5)-3) date 2020-05-15 17:56:07*
%MOMM*%
%LPD*%
G04 APERTURE LIST*
%ADD10C,0.100000*%
G04 APERTURE END LIST*
D10*
G36*
X147001000Y-51116000D02*
G01*
X145099000Y-51116000D01*
X145099000Y-49214000D01*
X147001000Y-49214000D01*
X147001000Y-51116000D01*
G37*
G36*
X158281000Y-47566000D02*
G01*
X158116660Y-47566000D01*
X158092274Y-47568402D01*
X158068825Y-47575515D01*
X158047214Y-47587066D01*
X158028272Y-47602611D01*
X158012727Y-47621553D01*
X158001176Y-47643164D01*
X157994063Y-47666613D01*
X157991661Y-47690999D01*
X157994063Y-47715385D01*
X158001176Y-47738834D01*
X158012727Y-47760445D01*
X158028272Y-47779387D01*
X158037345Y-47787609D01*
X158114264Y-47850736D01*
X158186244Y-47938443D01*
X158220429Y-48002399D01*
X158239728Y-48038505D01*
X158239729Y-48038508D01*
X158272666Y-48147084D01*
X158283787Y-48260000D01*
X158272666Y-48372916D01*
X158243893Y-48467765D01*
X158239728Y-48481495D01*
X158220429Y-48517601D01*
X158186244Y-48581557D01*
X158114264Y-48669264D01*
X158026557Y-48741244D01*
X157945141Y-48784761D01*
X157924766Y-48798375D01*
X157907439Y-48815702D01*
X157893826Y-48836076D01*
X157884448Y-48858715D01*
X157879668Y-48882748D01*
X157879668Y-48907252D01*
X157884448Y-48931285D01*
X157893826Y-48953924D01*
X157907440Y-48974299D01*
X157924767Y-48991626D01*
X157945141Y-49005239D01*
X158026557Y-49048756D01*
X158114264Y-49120736D01*
X158186244Y-49208443D01*
X158220429Y-49272399D01*
X158239728Y-49308505D01*
X158239729Y-49308508D01*
X158272666Y-49417084D01*
X158283787Y-49530000D01*
X158272666Y-49642916D01*
X158239729Y-49751492D01*
X158239728Y-49751495D01*
X158220429Y-49787601D01*
X158186244Y-49851557D01*
X158114264Y-49939264D01*
X158026557Y-50011244D01*
X157962601Y-50045429D01*
X157926495Y-50064728D01*
X157926492Y-50064729D01*
X157817916Y-50097666D01*
X157733298Y-50106000D01*
X157226702Y-50106000D01*
X157142084Y-50097666D01*
X157033508Y-50064729D01*
X157033505Y-50064728D01*
X156997399Y-50045429D01*
X156933443Y-50011244D01*
X156845736Y-49939264D01*
X156773756Y-49851557D01*
X156739571Y-49787601D01*
X156720272Y-49751495D01*
X156720271Y-49751492D01*
X156687334Y-49642916D01*
X156676213Y-49530000D01*
X156687334Y-49417084D01*
X156720271Y-49308508D01*
X156720272Y-49308505D01*
X156739571Y-49272399D01*
X156773756Y-49208443D01*
X156845736Y-49120736D01*
X156933443Y-49048756D01*
X157014859Y-49005239D01*
X157035234Y-48991625D01*
X157052561Y-48974298D01*
X157066174Y-48953924D01*
X157075552Y-48931285D01*
X157080332Y-48907252D01*
X157080332Y-48882748D01*
X157075552Y-48858715D01*
X157066174Y-48836076D01*
X157052560Y-48815701D01*
X157035233Y-48798374D01*
X157014859Y-48784761D01*
X156933443Y-48741244D01*
X156845736Y-48669264D01*
X156773756Y-48581557D01*
X156739571Y-48517601D01*
X156720272Y-48481495D01*
X156716107Y-48467765D01*
X156687334Y-48372916D01*
X156676213Y-48260000D01*
X156687334Y-48147084D01*
X156720271Y-48038508D01*
X156720272Y-48038505D01*
X156739571Y-48002399D01*
X156773756Y-47938443D01*
X156845736Y-47850736D01*
X156922646Y-47787617D01*
X156939965Y-47770298D01*
X156953579Y-47749923D01*
X156962957Y-47727284D01*
X156967737Y-47703251D01*
X156967737Y-47678747D01*
X156962957Y-47654714D01*
X156953579Y-47632075D01*
X156939966Y-47611701D01*
X156922639Y-47594374D01*
X156902264Y-47580760D01*
X156879625Y-47571382D01*
X156855592Y-47566602D01*
X156843340Y-47566000D01*
X156679000Y-47566000D01*
X156679000Y-46414000D01*
X158281000Y-46414000D01*
X158281000Y-47566000D01*
G37*
G36*
X146327395Y-46710546D02*
G01*
X146500466Y-46782234D01*
X146500467Y-46782235D01*
X146656227Y-46886310D01*
X146788690Y-47018773D01*
X146788691Y-47018775D01*
X146892766Y-47174534D01*
X146964454Y-47347605D01*
X147001000Y-47531333D01*
X147001000Y-47718667D01*
X146964454Y-47902395D01*
X146892766Y-48075466D01*
X146892765Y-48075467D01*
X146788690Y-48231227D01*
X146656227Y-48363690D01*
X146642422Y-48372914D01*
X146500466Y-48467766D01*
X146327395Y-48539454D01*
X146143667Y-48576000D01*
X145956333Y-48576000D01*
X145772605Y-48539454D01*
X145599534Y-48467766D01*
X145457578Y-48372914D01*
X145443773Y-48363690D01*
X145311310Y-48231227D01*
X145207235Y-48075467D01*
X145207234Y-48075466D01*
X145135546Y-47902395D01*
X145099000Y-47718667D01*
X145099000Y-47531333D01*
X145135546Y-47347605D01*
X145207234Y-47174534D01*
X145311309Y-47018775D01*
X145311310Y-47018773D01*
X145443773Y-46886310D01*
X145599533Y-46782235D01*
X145599534Y-46782234D01*
X145772605Y-46710546D01*
X145956333Y-46674000D01*
X146143667Y-46674000D01*
X146327395Y-46710546D01*
G37*
G36*
X146298228Y-41051703D02*
G01*
X146453100Y-41115853D01*
X146592481Y-41208985D01*
X146711015Y-41327519D01*
X146804147Y-41466900D01*
X146868297Y-41621772D01*
X146901000Y-41786184D01*
X146901000Y-41953816D01*
X146868297Y-42118228D01*
X146804147Y-42273100D01*
X146711015Y-42412481D01*
X146592481Y-42531015D01*
X146453100Y-42624147D01*
X146298228Y-42688297D01*
X146133816Y-42721000D01*
X145966184Y-42721000D01*
X145801772Y-42688297D01*
X145646900Y-42624147D01*
X145507519Y-42531015D01*
X145388985Y-42412481D01*
X145295853Y-42273100D01*
X145231703Y-42118228D01*
X145199000Y-41953816D01*
X145199000Y-41786184D01*
X145231703Y-41621772D01*
X145295853Y-41466900D01*
X145388985Y-41327519D01*
X145507519Y-41208985D01*
X145646900Y-41115853D01*
X145801772Y-41051703D01*
X145966184Y-41019000D01*
X146133816Y-41019000D01*
X146298228Y-41051703D01*
G37*
G36*
X158281000Y-39946000D02*
G01*
X158116660Y-39946000D01*
X158092274Y-39948402D01*
X158068825Y-39955515D01*
X158047214Y-39967066D01*
X158028272Y-39982611D01*
X158012727Y-40001553D01*
X158001176Y-40023164D01*
X157994063Y-40046613D01*
X157991661Y-40070999D01*
X157994063Y-40095385D01*
X158001176Y-40118834D01*
X158012727Y-40140445D01*
X158028272Y-40159387D01*
X158037345Y-40167609D01*
X158114264Y-40230736D01*
X158186244Y-40318443D01*
X158220429Y-40382399D01*
X158239728Y-40418505D01*
X158239729Y-40418508D01*
X158272666Y-40527084D01*
X158283787Y-40640000D01*
X158272666Y-40752916D01*
X158239729Y-40861492D01*
X158239728Y-40861495D01*
X158220429Y-40897601D01*
X158186244Y-40961557D01*
X158114264Y-41049264D01*
X158026557Y-41121244D01*
X157945141Y-41164761D01*
X157924766Y-41178375D01*
X157907439Y-41195702D01*
X157893826Y-41216076D01*
X157884448Y-41238715D01*
X157879668Y-41262748D01*
X157879668Y-41287252D01*
X157884448Y-41311285D01*
X157893826Y-41333924D01*
X157907440Y-41354299D01*
X157924767Y-41371626D01*
X157945141Y-41385239D01*
X158026557Y-41428756D01*
X158114264Y-41500736D01*
X158186244Y-41588443D01*
X158204058Y-41621772D01*
X158239728Y-41688505D01*
X158239729Y-41688508D01*
X158272666Y-41797084D01*
X158283787Y-41910000D01*
X158272666Y-42022916D01*
X158243752Y-42118229D01*
X158239728Y-42131495D01*
X158220429Y-42167601D01*
X158186244Y-42231557D01*
X158114264Y-42319264D01*
X158026557Y-42391244D01*
X157962601Y-42425429D01*
X157926495Y-42444728D01*
X157926492Y-42444729D01*
X157817916Y-42477666D01*
X157733298Y-42486000D01*
X157226702Y-42486000D01*
X157142084Y-42477666D01*
X157033508Y-42444729D01*
X157033505Y-42444728D01*
X156997399Y-42425429D01*
X156933443Y-42391244D01*
X156845736Y-42319264D01*
X156773756Y-42231557D01*
X156739571Y-42167601D01*
X156720272Y-42131495D01*
X156716248Y-42118229D01*
X156687334Y-42022916D01*
X156676213Y-41910000D01*
X156687334Y-41797084D01*
X156720271Y-41688508D01*
X156720272Y-41688505D01*
X156755942Y-41621772D01*
X156773756Y-41588443D01*
X156845736Y-41500736D01*
X156933443Y-41428756D01*
X157014859Y-41385239D01*
X157035234Y-41371625D01*
X157052561Y-41354298D01*
X157066174Y-41333924D01*
X157075552Y-41311285D01*
X157080332Y-41287252D01*
X157080332Y-41262748D01*
X157075552Y-41238715D01*
X157066174Y-41216076D01*
X157052560Y-41195701D01*
X157035233Y-41178374D01*
X157014859Y-41164761D01*
X156933443Y-41121244D01*
X156845736Y-41049264D01*
X156773756Y-40961557D01*
X156739571Y-40897601D01*
X156720272Y-40861495D01*
X156720271Y-40861492D01*
X156687334Y-40752916D01*
X156676213Y-40640000D01*
X156687334Y-40527084D01*
X156720271Y-40418508D01*
X156720272Y-40418505D01*
X156739571Y-40382399D01*
X156773756Y-40318443D01*
X156845736Y-40230736D01*
X156922646Y-40167617D01*
X156939965Y-40150298D01*
X156953579Y-40129923D01*
X156962957Y-40107284D01*
X156967737Y-40083251D01*
X156967737Y-40058747D01*
X156962957Y-40034714D01*
X156953579Y-40012075D01*
X156939966Y-39991701D01*
X156922639Y-39974374D01*
X156902264Y-39960760D01*
X156879625Y-39951382D01*
X156855592Y-39946602D01*
X156843340Y-39946000D01*
X156679000Y-39946000D01*
X156679000Y-38794000D01*
X158281000Y-38794000D01*
X158281000Y-39946000D01*
G37*
G36*
X146901000Y-40221000D02*
G01*
X145199000Y-40221000D01*
X145199000Y-38519000D01*
X146901000Y-38519000D01*
X146901000Y-40221000D01*
G37*
G36*
X159651000Y-35826000D02*
G01*
X157849000Y-35826000D01*
X157849000Y-34024000D01*
X159651000Y-34024000D01*
X159651000Y-35826000D01*
G37*
G36*
X156323512Y-34028927D02*
G01*
X156472812Y-34058624D01*
X156636784Y-34126544D01*
X156784354Y-34225147D01*
X156909853Y-34350646D01*
X157008456Y-34498216D01*
X157076376Y-34662188D01*
X157111000Y-34836259D01*
X157111000Y-35013741D01*
X157076376Y-35187812D01*
X157008456Y-35351784D01*
X156909853Y-35499354D01*
X156784354Y-35624853D01*
X156636784Y-35723456D01*
X156472812Y-35791376D01*
X156323512Y-35821073D01*
X156298742Y-35826000D01*
X156121258Y-35826000D01*
X156096488Y-35821073D01*
X155947188Y-35791376D01*
X155783216Y-35723456D01*
X155635646Y-35624853D01*
X155510147Y-35499354D01*
X155411544Y-35351784D01*
X155343624Y-35187812D01*
X155309000Y-35013741D01*
X155309000Y-34836259D01*
X155343624Y-34662188D01*
X155411544Y-34498216D01*
X155510147Y-34350646D01*
X155635646Y-34225147D01*
X155783216Y-34126544D01*
X155947188Y-34058624D01*
X156096488Y-34028927D01*
X156121258Y-34024000D01*
X156298742Y-34024000D01*
X156323512Y-34028927D01*
G37*
G36*
X143123228Y-34106703D02*
G01*
X143278100Y-34170853D01*
X143417481Y-34263985D01*
X143536015Y-34382519D01*
X143629147Y-34521900D01*
X143693297Y-34676772D01*
X143726000Y-34841184D01*
X143726000Y-35008816D01*
X143693297Y-35173228D01*
X143629147Y-35328100D01*
X143536015Y-35467481D01*
X143417481Y-35586015D01*
X143278100Y-35679147D01*
X143123228Y-35743297D01*
X142958816Y-35776000D01*
X142791184Y-35776000D01*
X142626772Y-35743297D01*
X142471900Y-35679147D01*
X142332519Y-35586015D01*
X142213985Y-35467481D01*
X142120853Y-35328100D01*
X142056703Y-35173228D01*
X142024000Y-35008816D01*
X142024000Y-34841184D01*
X142056703Y-34676772D01*
X142120853Y-34521900D01*
X142213985Y-34382519D01*
X142332519Y-34263985D01*
X142471900Y-34170853D01*
X142626772Y-34106703D01*
X142791184Y-34074000D01*
X142958816Y-34074000D01*
X143123228Y-34106703D01*
G37*
G36*
X150743228Y-34106703D02*
G01*
X150898100Y-34170853D01*
X151037481Y-34263985D01*
X151156015Y-34382519D01*
X151249147Y-34521900D01*
X151313297Y-34676772D01*
X151346000Y-34841184D01*
X151346000Y-35008816D01*
X151313297Y-35173228D01*
X151249147Y-35328100D01*
X151156015Y-35467481D01*
X151037481Y-35586015D01*
X150898100Y-35679147D01*
X150743228Y-35743297D01*
X150578816Y-35776000D01*
X150411184Y-35776000D01*
X150246772Y-35743297D01*
X150091900Y-35679147D01*
X149952519Y-35586015D01*
X149833985Y-35467481D01*
X149740853Y-35328100D01*
X149676703Y-35173228D01*
X149644000Y-35008816D01*
X149644000Y-34841184D01*
X149676703Y-34676772D01*
X149740853Y-34521900D01*
X149833985Y-34382519D01*
X149952519Y-34263985D01*
X150091900Y-34170853D01*
X150246772Y-34106703D01*
X150411184Y-34074000D01*
X150578816Y-34074000D01*
X150743228Y-34106703D01*
G37*
M02*
