G04 #@! TF.GenerationSoftware,KiCad,Pcbnew,(5.1.5)-3*
G04 #@! TF.CreationDate,2020-05-15T17:56:07+09:00*
G04 #@! TF.ProjectId,test2,74657374-322e-46b6-9963-61645f706362,rev?*
G04 #@! TF.SameCoordinates,Original*
G04 #@! TF.FileFunction,Copper,L2,Bot*
G04 #@! TF.FilePolarity,Positive*
%FSLAX46Y46*%
G04 Gerber Fmt 4.6, Leading zero omitted, Abs format (unit mm)*
G04 Created by KiCad (PCBNEW (5.1.5)-3) date 2020-05-15 17:56:07*
%MOMM*%
%LPD*%
G04 APERTURE LIST*
%ADD10R,1.600000X1.600000*%
%ADD11C,1.600000*%
%ADD12R,1.800000X1.800000*%
%ADD13C,1.800000*%
%ADD14R,1.700000X1.700000*%
%ADD15O,1.700000X1.700000*%
%ADD16R,1.500000X1.050000*%
%ADD17O,1.500000X1.050000*%
%ADD18O,1.600000X1.600000*%
%ADD19C,0.250000*%
%ADD20C,0.254000*%
G04 APERTURE END LIST*
D10*
X146050000Y-39370000D03*
D11*
X146050000Y-41870000D03*
D12*
X146050000Y-50165000D03*
D13*
X146050000Y-47625000D03*
D14*
X158750000Y-34925000D03*
D15*
X156210000Y-34925000D03*
D16*
X157480000Y-39370000D03*
D17*
X157480000Y-41910000D03*
X157480000Y-40640000D03*
X157480000Y-48260000D03*
X157480000Y-49530000D03*
D16*
X157480000Y-46990000D03*
D11*
X150495000Y-34925000D03*
D18*
X142875000Y-34925000D03*
D19*
X146050000Y-50165000D02*
X147200000Y-50165000D01*
X147200000Y-50165000D02*
X153035000Y-44330000D01*
X156480000Y-39370000D02*
X157480000Y-39370000D01*
X153035000Y-42815000D02*
X156480000Y-39370000D01*
X153035000Y-44330000D02*
X153035000Y-42815000D01*
X158750000Y-36025000D02*
X158750000Y-34925000D01*
X158750000Y-39100000D02*
X158750000Y-36025000D01*
X158480000Y-39370000D02*
X158750000Y-39100000D01*
X157480000Y-39370000D02*
X158480000Y-39370000D01*
D20*
G36*
X161798000Y-51308000D02*
G01*
X147539860Y-51308000D01*
X147575812Y-51189482D01*
X147588072Y-51065000D01*
X147585000Y-50450750D01*
X147426250Y-50292000D01*
X146177000Y-50292000D01*
X146177000Y-50312000D01*
X145923000Y-50312000D01*
X145923000Y-50292000D01*
X144673750Y-50292000D01*
X144515000Y-50450750D01*
X144511928Y-51065000D01*
X144524188Y-51189482D01*
X144560140Y-51308000D01*
X141732000Y-51308000D01*
X141732000Y-49265000D01*
X144511928Y-49265000D01*
X144515000Y-49879250D01*
X144673750Y-50038000D01*
X145923000Y-50038000D01*
X145923000Y-50018000D01*
X146177000Y-50018000D01*
X146177000Y-50038000D01*
X147426250Y-50038000D01*
X147585000Y-49879250D01*
X147588072Y-49265000D01*
X147575812Y-49140518D01*
X147539502Y-49020820D01*
X147480537Y-48910506D01*
X147401185Y-48813815D01*
X147304494Y-48734463D01*
X147194180Y-48675498D01*
X147175873Y-48669944D01*
X147242312Y-48603505D01*
X147410299Y-48352095D01*
X147448446Y-48260000D01*
X156089388Y-48260000D01*
X156111785Y-48487400D01*
X156178115Y-48706060D01*
X156279105Y-48895000D01*
X156178115Y-49083940D01*
X156111785Y-49302600D01*
X156089388Y-49530000D01*
X156111785Y-49757400D01*
X156178115Y-49976060D01*
X156285829Y-50177579D01*
X156430788Y-50354212D01*
X156607421Y-50499171D01*
X156808940Y-50606885D01*
X157027600Y-50673215D01*
X157198021Y-50690000D01*
X157761979Y-50690000D01*
X157932400Y-50673215D01*
X158151060Y-50606885D01*
X158352579Y-50499171D01*
X158529212Y-50354212D01*
X158674171Y-50177579D01*
X158781885Y-49976060D01*
X158848215Y-49757400D01*
X158870612Y-49530000D01*
X158848215Y-49302600D01*
X158781885Y-49083940D01*
X158680895Y-48895000D01*
X158781885Y-48706060D01*
X158848215Y-48487400D01*
X158870612Y-48260000D01*
X158848215Y-48032600D01*
X158784907Y-47823902D01*
X158819502Y-47759180D01*
X158855812Y-47639482D01*
X158868072Y-47515000D01*
X158868072Y-46465000D01*
X158855812Y-46340518D01*
X158819502Y-46220820D01*
X158760537Y-46110506D01*
X158681185Y-46013815D01*
X158584494Y-45934463D01*
X158474180Y-45875498D01*
X158354482Y-45839188D01*
X158230000Y-45826928D01*
X156730000Y-45826928D01*
X156605518Y-45839188D01*
X156485820Y-45875498D01*
X156375506Y-45934463D01*
X156278815Y-46013815D01*
X156199463Y-46110506D01*
X156140498Y-46220820D01*
X156104188Y-46340518D01*
X156091928Y-46465000D01*
X156091928Y-47515000D01*
X156104188Y-47639482D01*
X156140498Y-47759180D01*
X156175093Y-47823902D01*
X156111785Y-48032600D01*
X156089388Y-48260000D01*
X147448446Y-48260000D01*
X147526011Y-48072743D01*
X147585000Y-47776184D01*
X147585000Y-47473816D01*
X147526011Y-47177257D01*
X147410299Y-46897905D01*
X147242312Y-46646495D01*
X147028505Y-46432688D01*
X146777095Y-46264701D01*
X146497743Y-46148989D01*
X146201184Y-46090000D01*
X145898816Y-46090000D01*
X145602257Y-46148989D01*
X145322905Y-46264701D01*
X145071495Y-46432688D01*
X144857688Y-46646495D01*
X144689701Y-46897905D01*
X144573989Y-47177257D01*
X144515000Y-47473816D01*
X144515000Y-47776184D01*
X144573989Y-48072743D01*
X144689701Y-48352095D01*
X144857688Y-48603505D01*
X144924127Y-48669944D01*
X144905820Y-48675498D01*
X144795506Y-48734463D01*
X144698815Y-48813815D01*
X144619463Y-48910506D01*
X144560498Y-49020820D01*
X144524188Y-49140518D01*
X144511928Y-49265000D01*
X141732000Y-49265000D01*
X141732000Y-38570000D01*
X144611928Y-38570000D01*
X144611928Y-40170000D01*
X144624188Y-40294482D01*
X144660498Y-40414180D01*
X144719463Y-40524494D01*
X144798815Y-40621185D01*
X144895506Y-40700537D01*
X145005820Y-40759502D01*
X145101943Y-40788661D01*
X144935363Y-40955241D01*
X144778320Y-41190273D01*
X144670147Y-41451426D01*
X144615000Y-41728665D01*
X144615000Y-42011335D01*
X144670147Y-42288574D01*
X144778320Y-42549727D01*
X144935363Y-42784759D01*
X145135241Y-42984637D01*
X145370273Y-43141680D01*
X145631426Y-43249853D01*
X145908665Y-43305000D01*
X146191335Y-43305000D01*
X146468574Y-43249853D01*
X146729727Y-43141680D01*
X146964759Y-42984637D01*
X147164637Y-42784759D01*
X147321680Y-42549727D01*
X147429853Y-42288574D01*
X147485000Y-42011335D01*
X147485000Y-41728665D01*
X147429853Y-41451426D01*
X147321680Y-41190273D01*
X147164637Y-40955241D01*
X146998057Y-40788661D01*
X147094180Y-40759502D01*
X147204494Y-40700537D01*
X147278258Y-40640000D01*
X156089388Y-40640000D01*
X156111785Y-40867400D01*
X156178115Y-41086060D01*
X156279105Y-41275000D01*
X156178115Y-41463940D01*
X156111785Y-41682600D01*
X156089388Y-41910000D01*
X156111785Y-42137400D01*
X156178115Y-42356060D01*
X156285829Y-42557579D01*
X156430788Y-42734212D01*
X156607421Y-42879171D01*
X156808940Y-42986885D01*
X157027600Y-43053215D01*
X157198021Y-43070000D01*
X157761979Y-43070000D01*
X157932400Y-43053215D01*
X158151060Y-42986885D01*
X158352579Y-42879171D01*
X158529212Y-42734212D01*
X158674171Y-42557579D01*
X158781885Y-42356060D01*
X158848215Y-42137400D01*
X158870612Y-41910000D01*
X158848215Y-41682600D01*
X158781885Y-41463940D01*
X158680895Y-41275000D01*
X158781885Y-41086060D01*
X158848215Y-40867400D01*
X158870612Y-40640000D01*
X158848215Y-40412600D01*
X158784907Y-40203902D01*
X158819502Y-40139180D01*
X158855812Y-40019482D01*
X158868072Y-39895000D01*
X158865000Y-39655750D01*
X158706250Y-39497000D01*
X157933109Y-39497000D01*
X157932400Y-39496785D01*
X157761979Y-39480000D01*
X157198021Y-39480000D01*
X157027600Y-39496785D01*
X157026891Y-39497000D01*
X156253750Y-39497000D01*
X156095000Y-39655750D01*
X156091928Y-39895000D01*
X156104188Y-40019482D01*
X156140498Y-40139180D01*
X156175093Y-40203902D01*
X156111785Y-40412600D01*
X156089388Y-40640000D01*
X147278258Y-40640000D01*
X147301185Y-40621185D01*
X147380537Y-40524494D01*
X147439502Y-40414180D01*
X147475812Y-40294482D01*
X147488072Y-40170000D01*
X147488072Y-38845000D01*
X156091928Y-38845000D01*
X156095000Y-39084250D01*
X156253750Y-39243000D01*
X157353000Y-39243000D01*
X157353000Y-38368750D01*
X157607000Y-38368750D01*
X157607000Y-39243000D01*
X158706250Y-39243000D01*
X158865000Y-39084250D01*
X158868072Y-38845000D01*
X158855812Y-38720518D01*
X158819502Y-38600820D01*
X158760537Y-38490506D01*
X158681185Y-38393815D01*
X158584494Y-38314463D01*
X158474180Y-38255498D01*
X158354482Y-38219188D01*
X158230000Y-38206928D01*
X157765750Y-38210000D01*
X157607000Y-38368750D01*
X157353000Y-38368750D01*
X157194250Y-38210000D01*
X156730000Y-38206928D01*
X156605518Y-38219188D01*
X156485820Y-38255498D01*
X156375506Y-38314463D01*
X156278815Y-38393815D01*
X156199463Y-38490506D01*
X156140498Y-38600820D01*
X156104188Y-38720518D01*
X156091928Y-38845000D01*
X147488072Y-38845000D01*
X147488072Y-38570000D01*
X147475812Y-38445518D01*
X147439502Y-38325820D01*
X147380537Y-38215506D01*
X147301185Y-38118815D01*
X147204494Y-38039463D01*
X147094180Y-37980498D01*
X146974482Y-37944188D01*
X146850000Y-37931928D01*
X145250000Y-37931928D01*
X145125518Y-37944188D01*
X145005820Y-37980498D01*
X144895506Y-38039463D01*
X144798815Y-38118815D01*
X144719463Y-38215506D01*
X144660498Y-38325820D01*
X144624188Y-38445518D01*
X144611928Y-38570000D01*
X141732000Y-38570000D01*
X141732000Y-35797311D01*
X141760363Y-35839759D01*
X141960241Y-36039637D01*
X142195273Y-36196680D01*
X142456426Y-36304853D01*
X142733665Y-36360000D01*
X143016335Y-36360000D01*
X143293574Y-36304853D01*
X143554727Y-36196680D01*
X143789759Y-36039637D01*
X143989637Y-35839759D01*
X144146680Y-35604727D01*
X144254853Y-35343574D01*
X144310000Y-35066335D01*
X144310000Y-34783665D01*
X149060000Y-34783665D01*
X149060000Y-35066335D01*
X149115147Y-35343574D01*
X149223320Y-35604727D01*
X149380363Y-35839759D01*
X149580241Y-36039637D01*
X149815273Y-36196680D01*
X150076426Y-36304853D01*
X150353665Y-36360000D01*
X150636335Y-36360000D01*
X150913574Y-36304853D01*
X151174727Y-36196680D01*
X151409759Y-36039637D01*
X151609637Y-35839759D01*
X151766680Y-35604727D01*
X151874853Y-35343574D01*
X151930000Y-35066335D01*
X151930000Y-34783665D01*
X151929021Y-34778740D01*
X154725000Y-34778740D01*
X154725000Y-35071260D01*
X154782068Y-35358158D01*
X154894010Y-35628411D01*
X155056525Y-35871632D01*
X155263368Y-36078475D01*
X155506589Y-36240990D01*
X155776842Y-36352932D01*
X156063740Y-36410000D01*
X156356260Y-36410000D01*
X156643158Y-36352932D01*
X156913411Y-36240990D01*
X157156632Y-36078475D01*
X157288487Y-35946620D01*
X157310498Y-36019180D01*
X157369463Y-36129494D01*
X157448815Y-36226185D01*
X157545506Y-36305537D01*
X157655820Y-36364502D01*
X157775518Y-36400812D01*
X157900000Y-36413072D01*
X158464250Y-36410000D01*
X158623000Y-36251250D01*
X158623000Y-35052000D01*
X158877000Y-35052000D01*
X158877000Y-36251250D01*
X159035750Y-36410000D01*
X159600000Y-36413072D01*
X159724482Y-36400812D01*
X159844180Y-36364502D01*
X159954494Y-36305537D01*
X160051185Y-36226185D01*
X160130537Y-36129494D01*
X160189502Y-36019180D01*
X160225812Y-35899482D01*
X160238072Y-35775000D01*
X160235000Y-35210750D01*
X160076250Y-35052000D01*
X158877000Y-35052000D01*
X158623000Y-35052000D01*
X158603000Y-35052000D01*
X158603000Y-34798000D01*
X158623000Y-34798000D01*
X158623000Y-33598750D01*
X158877000Y-33598750D01*
X158877000Y-34798000D01*
X160076250Y-34798000D01*
X160235000Y-34639250D01*
X160238072Y-34075000D01*
X160225812Y-33950518D01*
X160189502Y-33830820D01*
X160130537Y-33720506D01*
X160051185Y-33623815D01*
X159954494Y-33544463D01*
X159844180Y-33485498D01*
X159724482Y-33449188D01*
X159600000Y-33436928D01*
X159035750Y-33440000D01*
X158877000Y-33598750D01*
X158623000Y-33598750D01*
X158464250Y-33440000D01*
X157900000Y-33436928D01*
X157775518Y-33449188D01*
X157655820Y-33485498D01*
X157545506Y-33544463D01*
X157448815Y-33623815D01*
X157369463Y-33720506D01*
X157310498Y-33830820D01*
X157288487Y-33903380D01*
X157156632Y-33771525D01*
X156913411Y-33609010D01*
X156643158Y-33497068D01*
X156356260Y-33440000D01*
X156063740Y-33440000D01*
X155776842Y-33497068D01*
X155506589Y-33609010D01*
X155263368Y-33771525D01*
X155056525Y-33978368D01*
X154894010Y-34221589D01*
X154782068Y-34491842D01*
X154725000Y-34778740D01*
X151929021Y-34778740D01*
X151874853Y-34506426D01*
X151766680Y-34245273D01*
X151609637Y-34010241D01*
X151409759Y-33810363D01*
X151174727Y-33653320D01*
X150913574Y-33545147D01*
X150636335Y-33490000D01*
X150353665Y-33490000D01*
X150076426Y-33545147D01*
X149815273Y-33653320D01*
X149580241Y-33810363D01*
X149380363Y-34010241D01*
X149223320Y-34245273D01*
X149115147Y-34506426D01*
X149060000Y-34783665D01*
X144310000Y-34783665D01*
X144254853Y-34506426D01*
X144146680Y-34245273D01*
X143989637Y-34010241D01*
X143789759Y-33810363D01*
X143554727Y-33653320D01*
X143293574Y-33545147D01*
X143016335Y-33490000D01*
X142733665Y-33490000D01*
X142456426Y-33545147D01*
X142195273Y-33653320D01*
X141960241Y-33810363D01*
X141760363Y-34010241D01*
X141732000Y-34052689D01*
X141732000Y-33147000D01*
X161798000Y-33147000D01*
X161798000Y-51308000D01*
G37*
X161798000Y-51308000D02*
X147539860Y-51308000D01*
X147575812Y-51189482D01*
X147588072Y-51065000D01*
X147585000Y-50450750D01*
X147426250Y-50292000D01*
X146177000Y-50292000D01*
X146177000Y-50312000D01*
X145923000Y-50312000D01*
X145923000Y-50292000D01*
X144673750Y-50292000D01*
X144515000Y-50450750D01*
X144511928Y-51065000D01*
X144524188Y-51189482D01*
X144560140Y-51308000D01*
X141732000Y-51308000D01*
X141732000Y-49265000D01*
X144511928Y-49265000D01*
X144515000Y-49879250D01*
X144673750Y-50038000D01*
X145923000Y-50038000D01*
X145923000Y-50018000D01*
X146177000Y-50018000D01*
X146177000Y-50038000D01*
X147426250Y-50038000D01*
X147585000Y-49879250D01*
X147588072Y-49265000D01*
X147575812Y-49140518D01*
X147539502Y-49020820D01*
X147480537Y-48910506D01*
X147401185Y-48813815D01*
X147304494Y-48734463D01*
X147194180Y-48675498D01*
X147175873Y-48669944D01*
X147242312Y-48603505D01*
X147410299Y-48352095D01*
X147448446Y-48260000D01*
X156089388Y-48260000D01*
X156111785Y-48487400D01*
X156178115Y-48706060D01*
X156279105Y-48895000D01*
X156178115Y-49083940D01*
X156111785Y-49302600D01*
X156089388Y-49530000D01*
X156111785Y-49757400D01*
X156178115Y-49976060D01*
X156285829Y-50177579D01*
X156430788Y-50354212D01*
X156607421Y-50499171D01*
X156808940Y-50606885D01*
X157027600Y-50673215D01*
X157198021Y-50690000D01*
X157761979Y-50690000D01*
X157932400Y-50673215D01*
X158151060Y-50606885D01*
X158352579Y-50499171D01*
X158529212Y-50354212D01*
X158674171Y-50177579D01*
X158781885Y-49976060D01*
X158848215Y-49757400D01*
X158870612Y-49530000D01*
X158848215Y-49302600D01*
X158781885Y-49083940D01*
X158680895Y-48895000D01*
X158781885Y-48706060D01*
X158848215Y-48487400D01*
X158870612Y-48260000D01*
X158848215Y-48032600D01*
X158784907Y-47823902D01*
X158819502Y-47759180D01*
X158855812Y-47639482D01*
X158868072Y-47515000D01*
X158868072Y-46465000D01*
X158855812Y-46340518D01*
X158819502Y-46220820D01*
X158760537Y-46110506D01*
X158681185Y-46013815D01*
X158584494Y-45934463D01*
X158474180Y-45875498D01*
X158354482Y-45839188D01*
X158230000Y-45826928D01*
X156730000Y-45826928D01*
X156605518Y-45839188D01*
X156485820Y-45875498D01*
X156375506Y-45934463D01*
X156278815Y-46013815D01*
X156199463Y-46110506D01*
X156140498Y-46220820D01*
X156104188Y-46340518D01*
X156091928Y-46465000D01*
X156091928Y-47515000D01*
X156104188Y-47639482D01*
X156140498Y-47759180D01*
X156175093Y-47823902D01*
X156111785Y-48032600D01*
X156089388Y-48260000D01*
X147448446Y-48260000D01*
X147526011Y-48072743D01*
X147585000Y-47776184D01*
X147585000Y-47473816D01*
X147526011Y-47177257D01*
X147410299Y-46897905D01*
X147242312Y-46646495D01*
X147028505Y-46432688D01*
X146777095Y-46264701D01*
X146497743Y-46148989D01*
X146201184Y-46090000D01*
X145898816Y-46090000D01*
X145602257Y-46148989D01*
X145322905Y-46264701D01*
X145071495Y-46432688D01*
X144857688Y-46646495D01*
X144689701Y-46897905D01*
X144573989Y-47177257D01*
X144515000Y-47473816D01*
X144515000Y-47776184D01*
X144573989Y-48072743D01*
X144689701Y-48352095D01*
X144857688Y-48603505D01*
X144924127Y-48669944D01*
X144905820Y-48675498D01*
X144795506Y-48734463D01*
X144698815Y-48813815D01*
X144619463Y-48910506D01*
X144560498Y-49020820D01*
X144524188Y-49140518D01*
X144511928Y-49265000D01*
X141732000Y-49265000D01*
X141732000Y-38570000D01*
X144611928Y-38570000D01*
X144611928Y-40170000D01*
X144624188Y-40294482D01*
X144660498Y-40414180D01*
X144719463Y-40524494D01*
X144798815Y-40621185D01*
X144895506Y-40700537D01*
X145005820Y-40759502D01*
X145101943Y-40788661D01*
X144935363Y-40955241D01*
X144778320Y-41190273D01*
X144670147Y-41451426D01*
X144615000Y-41728665D01*
X144615000Y-42011335D01*
X144670147Y-42288574D01*
X144778320Y-42549727D01*
X144935363Y-42784759D01*
X145135241Y-42984637D01*
X145370273Y-43141680D01*
X145631426Y-43249853D01*
X145908665Y-43305000D01*
X146191335Y-43305000D01*
X146468574Y-43249853D01*
X146729727Y-43141680D01*
X146964759Y-42984637D01*
X147164637Y-42784759D01*
X147321680Y-42549727D01*
X147429853Y-42288574D01*
X147485000Y-42011335D01*
X147485000Y-41728665D01*
X147429853Y-41451426D01*
X147321680Y-41190273D01*
X147164637Y-40955241D01*
X146998057Y-40788661D01*
X147094180Y-40759502D01*
X147204494Y-40700537D01*
X147278258Y-40640000D01*
X156089388Y-40640000D01*
X156111785Y-40867400D01*
X156178115Y-41086060D01*
X156279105Y-41275000D01*
X156178115Y-41463940D01*
X156111785Y-41682600D01*
X156089388Y-41910000D01*
X156111785Y-42137400D01*
X156178115Y-42356060D01*
X156285829Y-42557579D01*
X156430788Y-42734212D01*
X156607421Y-42879171D01*
X156808940Y-42986885D01*
X157027600Y-43053215D01*
X157198021Y-43070000D01*
X157761979Y-43070000D01*
X157932400Y-43053215D01*
X158151060Y-42986885D01*
X158352579Y-42879171D01*
X158529212Y-42734212D01*
X158674171Y-42557579D01*
X158781885Y-42356060D01*
X158848215Y-42137400D01*
X158870612Y-41910000D01*
X158848215Y-41682600D01*
X158781885Y-41463940D01*
X158680895Y-41275000D01*
X158781885Y-41086060D01*
X158848215Y-40867400D01*
X158870612Y-40640000D01*
X158848215Y-40412600D01*
X158784907Y-40203902D01*
X158819502Y-40139180D01*
X158855812Y-40019482D01*
X158868072Y-39895000D01*
X158865000Y-39655750D01*
X158706250Y-39497000D01*
X157933109Y-39497000D01*
X157932400Y-39496785D01*
X157761979Y-39480000D01*
X157198021Y-39480000D01*
X157027600Y-39496785D01*
X157026891Y-39497000D01*
X156253750Y-39497000D01*
X156095000Y-39655750D01*
X156091928Y-39895000D01*
X156104188Y-40019482D01*
X156140498Y-40139180D01*
X156175093Y-40203902D01*
X156111785Y-40412600D01*
X156089388Y-40640000D01*
X147278258Y-40640000D01*
X147301185Y-40621185D01*
X147380537Y-40524494D01*
X147439502Y-40414180D01*
X147475812Y-40294482D01*
X147488072Y-40170000D01*
X147488072Y-38845000D01*
X156091928Y-38845000D01*
X156095000Y-39084250D01*
X156253750Y-39243000D01*
X157353000Y-39243000D01*
X157353000Y-38368750D01*
X157607000Y-38368750D01*
X157607000Y-39243000D01*
X158706250Y-39243000D01*
X158865000Y-39084250D01*
X158868072Y-38845000D01*
X158855812Y-38720518D01*
X158819502Y-38600820D01*
X158760537Y-38490506D01*
X158681185Y-38393815D01*
X158584494Y-38314463D01*
X158474180Y-38255498D01*
X158354482Y-38219188D01*
X158230000Y-38206928D01*
X157765750Y-38210000D01*
X157607000Y-38368750D01*
X157353000Y-38368750D01*
X157194250Y-38210000D01*
X156730000Y-38206928D01*
X156605518Y-38219188D01*
X156485820Y-38255498D01*
X156375506Y-38314463D01*
X156278815Y-38393815D01*
X156199463Y-38490506D01*
X156140498Y-38600820D01*
X156104188Y-38720518D01*
X156091928Y-38845000D01*
X147488072Y-38845000D01*
X147488072Y-38570000D01*
X147475812Y-38445518D01*
X147439502Y-38325820D01*
X147380537Y-38215506D01*
X147301185Y-38118815D01*
X147204494Y-38039463D01*
X147094180Y-37980498D01*
X146974482Y-37944188D01*
X146850000Y-37931928D01*
X145250000Y-37931928D01*
X145125518Y-37944188D01*
X145005820Y-37980498D01*
X144895506Y-38039463D01*
X144798815Y-38118815D01*
X144719463Y-38215506D01*
X144660498Y-38325820D01*
X144624188Y-38445518D01*
X144611928Y-38570000D01*
X141732000Y-38570000D01*
X141732000Y-35797311D01*
X141760363Y-35839759D01*
X141960241Y-36039637D01*
X142195273Y-36196680D01*
X142456426Y-36304853D01*
X142733665Y-36360000D01*
X143016335Y-36360000D01*
X143293574Y-36304853D01*
X143554727Y-36196680D01*
X143789759Y-36039637D01*
X143989637Y-35839759D01*
X144146680Y-35604727D01*
X144254853Y-35343574D01*
X144310000Y-35066335D01*
X144310000Y-34783665D01*
X149060000Y-34783665D01*
X149060000Y-35066335D01*
X149115147Y-35343574D01*
X149223320Y-35604727D01*
X149380363Y-35839759D01*
X149580241Y-36039637D01*
X149815273Y-36196680D01*
X150076426Y-36304853D01*
X150353665Y-36360000D01*
X150636335Y-36360000D01*
X150913574Y-36304853D01*
X151174727Y-36196680D01*
X151409759Y-36039637D01*
X151609637Y-35839759D01*
X151766680Y-35604727D01*
X151874853Y-35343574D01*
X151930000Y-35066335D01*
X151930000Y-34783665D01*
X151929021Y-34778740D01*
X154725000Y-34778740D01*
X154725000Y-35071260D01*
X154782068Y-35358158D01*
X154894010Y-35628411D01*
X155056525Y-35871632D01*
X155263368Y-36078475D01*
X155506589Y-36240990D01*
X155776842Y-36352932D01*
X156063740Y-36410000D01*
X156356260Y-36410000D01*
X156643158Y-36352932D01*
X156913411Y-36240990D01*
X157156632Y-36078475D01*
X157288487Y-35946620D01*
X157310498Y-36019180D01*
X157369463Y-36129494D01*
X157448815Y-36226185D01*
X157545506Y-36305537D01*
X157655820Y-36364502D01*
X157775518Y-36400812D01*
X157900000Y-36413072D01*
X158464250Y-36410000D01*
X158623000Y-36251250D01*
X158623000Y-35052000D01*
X158877000Y-35052000D01*
X158877000Y-36251250D01*
X159035750Y-36410000D01*
X159600000Y-36413072D01*
X159724482Y-36400812D01*
X159844180Y-36364502D01*
X159954494Y-36305537D01*
X160051185Y-36226185D01*
X160130537Y-36129494D01*
X160189502Y-36019180D01*
X160225812Y-35899482D01*
X160238072Y-35775000D01*
X160235000Y-35210750D01*
X160076250Y-35052000D01*
X158877000Y-35052000D01*
X158623000Y-35052000D01*
X158603000Y-35052000D01*
X158603000Y-34798000D01*
X158623000Y-34798000D01*
X158623000Y-33598750D01*
X158877000Y-33598750D01*
X158877000Y-34798000D01*
X160076250Y-34798000D01*
X160235000Y-34639250D01*
X160238072Y-34075000D01*
X160225812Y-33950518D01*
X160189502Y-33830820D01*
X160130537Y-33720506D01*
X160051185Y-33623815D01*
X159954494Y-33544463D01*
X159844180Y-33485498D01*
X159724482Y-33449188D01*
X159600000Y-33436928D01*
X159035750Y-33440000D01*
X158877000Y-33598750D01*
X158623000Y-33598750D01*
X158464250Y-33440000D01*
X157900000Y-33436928D01*
X157775518Y-33449188D01*
X157655820Y-33485498D01*
X157545506Y-33544463D01*
X157448815Y-33623815D01*
X157369463Y-33720506D01*
X157310498Y-33830820D01*
X157288487Y-33903380D01*
X157156632Y-33771525D01*
X156913411Y-33609010D01*
X156643158Y-33497068D01*
X156356260Y-33440000D01*
X156063740Y-33440000D01*
X155776842Y-33497068D01*
X155506589Y-33609010D01*
X155263368Y-33771525D01*
X155056525Y-33978368D01*
X154894010Y-34221589D01*
X154782068Y-34491842D01*
X154725000Y-34778740D01*
X151929021Y-34778740D01*
X151874853Y-34506426D01*
X151766680Y-34245273D01*
X151609637Y-34010241D01*
X151409759Y-33810363D01*
X151174727Y-33653320D01*
X150913574Y-33545147D01*
X150636335Y-33490000D01*
X150353665Y-33490000D01*
X150076426Y-33545147D01*
X149815273Y-33653320D01*
X149580241Y-33810363D01*
X149380363Y-34010241D01*
X149223320Y-34245273D01*
X149115147Y-34506426D01*
X149060000Y-34783665D01*
X144310000Y-34783665D01*
X144254853Y-34506426D01*
X144146680Y-34245273D01*
X143989637Y-34010241D01*
X143789759Y-33810363D01*
X143554727Y-33653320D01*
X143293574Y-33545147D01*
X143016335Y-33490000D01*
X142733665Y-33490000D01*
X142456426Y-33545147D01*
X142195273Y-33653320D01*
X141960241Y-33810363D01*
X141760363Y-34010241D01*
X141732000Y-34052689D01*
X141732000Y-33147000D01*
X161798000Y-33147000D01*
X161798000Y-51308000D01*
M02*
