G04 #@! TF.GenerationSoftware,KiCad,Pcbnew,(5.1.5)-3*
G04 #@! TF.CreationDate,2020-05-26T17:42:23+09:00*
G04 #@! TF.ProjectId,FMU3_Sensors_make,464d5533-5f53-4656-9e73-6f72735f6d61,rev?*
G04 #@! TF.SameCoordinates,Original*
G04 #@! TF.FileFunction,Copper,L2,Bot*
G04 #@! TF.FilePolarity,Positive*
%FSLAX46Y46*%
G04 Gerber Fmt 4.6, Leading zero omitted, Abs format (unit mm)*
G04 Created by KiCad (PCBNEW (5.1.5)-3) date 2020-05-26 17:42:23*
%MOMM*%
%LPD*%
G04 APERTURE LIST*
%ADD10C,0.800000*%
%ADD11C,0.200000*%
%ADD12C,0.250000*%
G04 APERTURE END LIST*
D10*
X141000000Y-37250000D03*
X135580000Y-37710000D03*
X143340000Y-45810000D03*
X130560000Y-37680000D03*
X135580000Y-40180000D03*
X141110000Y-39010000D03*
X131390000Y-45480000D03*
X141170000Y-41500000D03*
X138573396Y-40717214D03*
X135620000Y-38930000D03*
X130426583Y-44159650D03*
X130400049Y-43160001D03*
X135539413Y-36089234D03*
X137500000Y-35125000D03*
X134200000Y-35125000D03*
X130530000Y-39050000D03*
D11*
X140540000Y-37710000D02*
X141000000Y-37250000D01*
X135580000Y-37710000D02*
X140540000Y-37710000D01*
D12*
X135580000Y-40180000D02*
X136750000Y-39010000D01*
X136750000Y-39010000D02*
X141110000Y-39010000D01*
D11*
X137190000Y-45480000D02*
X131390000Y-45480000D01*
X141170000Y-41500000D02*
X137190000Y-45480000D01*
X135620000Y-38966233D02*
X135620000Y-38930000D01*
X130426583Y-44159650D02*
X135620000Y-38966233D01*
X134565275Y-44159650D02*
X130992268Y-44159650D01*
X130992268Y-44159650D02*
X130426583Y-44159650D01*
X138007711Y-40717214D02*
X134565275Y-44159650D01*
X138573396Y-40717214D02*
X138007711Y-40717214D01*
X130400049Y-41228598D02*
X135539413Y-36089234D01*
X130400049Y-43160001D02*
X130400049Y-41228598D01*
X136934315Y-35125000D02*
X134200000Y-35125000D01*
X137500000Y-35125000D02*
X136934315Y-35125000D01*
X134200000Y-35380000D02*
X134200000Y-35125000D01*
X130530000Y-39050000D02*
X134200000Y-35380000D01*
G36*
X133526901Y-34920818D02*
G01*
X133500000Y-35056056D01*
X133500000Y-35193944D01*
X133526901Y-35329182D01*
X133573246Y-35441069D01*
X130653469Y-38360846D01*
X130598944Y-38350000D01*
X130461056Y-38350000D01*
X130325818Y-38376901D01*
X130198426Y-38429668D01*
X130083776Y-38506274D01*
X129986274Y-38603776D01*
X129909668Y-38718426D01*
X129856901Y-38845818D01*
X129830000Y-38981056D01*
X129830000Y-39118944D01*
X129856901Y-39254182D01*
X129909668Y-39381574D01*
X129986274Y-39496224D01*
X130083776Y-39593726D01*
X130198426Y-39670332D01*
X130325818Y-39723099D01*
X130461056Y-39750000D01*
X130598944Y-39750000D01*
X130734182Y-39723099D01*
X130861574Y-39670332D01*
X130976224Y-39593726D01*
X131073726Y-39496224D01*
X131150332Y-39381574D01*
X131203099Y-39254182D01*
X131230000Y-39118944D01*
X131230000Y-38981056D01*
X131219154Y-38926531D01*
X134333534Y-35812152D01*
X134404182Y-35798099D01*
X134531574Y-35745332D01*
X134646224Y-35668726D01*
X134743726Y-35571224D01*
X134774612Y-35525000D01*
X135123882Y-35525000D01*
X135093189Y-35545508D01*
X134995687Y-35643010D01*
X134919081Y-35757660D01*
X134866314Y-35885052D01*
X134839413Y-36020290D01*
X134839413Y-36158178D01*
X134850259Y-36212702D01*
X130131097Y-40931865D01*
X130115839Y-40944387D01*
X130103317Y-40959645D01*
X130103314Y-40959648D01*
X130065852Y-41005296D01*
X130028710Y-41074784D01*
X130005837Y-41150185D01*
X129998114Y-41228598D01*
X130000050Y-41248254D01*
X130000049Y-42585389D01*
X129953825Y-42616275D01*
X129856323Y-42713777D01*
X129779717Y-42828427D01*
X129726950Y-42955819D01*
X129700049Y-43091057D01*
X129700049Y-43228945D01*
X129726950Y-43364183D01*
X129779717Y-43491575D01*
X129856323Y-43606225D01*
X129923191Y-43673093D01*
X129882857Y-43713426D01*
X129806251Y-43828076D01*
X129753484Y-43955468D01*
X129726583Y-44090706D01*
X129726583Y-44228594D01*
X129753484Y-44363832D01*
X129806251Y-44491224D01*
X129882857Y-44605874D01*
X129980359Y-44703376D01*
X130095009Y-44779982D01*
X130222401Y-44832749D01*
X130357639Y-44859650D01*
X130495527Y-44859650D01*
X130630765Y-44832749D01*
X130758157Y-44779982D01*
X130872807Y-44703376D01*
X130970309Y-44605874D01*
X131001195Y-44559650D01*
X134545629Y-44559650D01*
X134565275Y-44561585D01*
X134584921Y-44559650D01*
X134584922Y-44559650D01*
X134643689Y-44553862D01*
X134719089Y-44530990D01*
X134788578Y-44493847D01*
X134849486Y-44443861D01*
X134862012Y-44428598D01*
X138078421Y-41212189D01*
X138127172Y-41260940D01*
X138241822Y-41337546D01*
X138369214Y-41390313D01*
X138504452Y-41417214D01*
X138642340Y-41417214D01*
X138777578Y-41390313D01*
X138904970Y-41337546D01*
X139019620Y-41260940D01*
X139117122Y-41163438D01*
X139193728Y-41048788D01*
X139246495Y-40921396D01*
X139273396Y-40786158D01*
X139273396Y-40648270D01*
X139246495Y-40513032D01*
X139193728Y-40385640D01*
X139117122Y-40270990D01*
X139019620Y-40173488D01*
X138904970Y-40096882D01*
X138777578Y-40044115D01*
X138642340Y-40017214D01*
X138504452Y-40017214D01*
X138369214Y-40044115D01*
X138241822Y-40096882D01*
X138127172Y-40173488D01*
X138029670Y-40270990D01*
X137999540Y-40316084D01*
X137988064Y-40317214D01*
X137929297Y-40323002D01*
X137853897Y-40345874D01*
X137784408Y-40383017D01*
X137723500Y-40433003D01*
X137710974Y-40448266D01*
X134399590Y-43759650D01*
X131392268Y-43759650D01*
X134883812Y-40268107D01*
X134906901Y-40384182D01*
X134959668Y-40511574D01*
X135036274Y-40626224D01*
X135133776Y-40723726D01*
X135248426Y-40800332D01*
X135375818Y-40853099D01*
X135511056Y-40880000D01*
X135648944Y-40880000D01*
X135784182Y-40853099D01*
X135911574Y-40800332D01*
X136026224Y-40723726D01*
X136123726Y-40626224D01*
X136200332Y-40511574D01*
X136253099Y-40384182D01*
X136280000Y-40248944D01*
X136280000Y-40111056D01*
X136275020Y-40086020D01*
X136926041Y-39435000D01*
X140552093Y-39435000D01*
X140566274Y-39456224D01*
X140663776Y-39553726D01*
X140778426Y-39630332D01*
X140905818Y-39683099D01*
X141041056Y-39710000D01*
X141178944Y-39710000D01*
X141314182Y-39683099D01*
X141441574Y-39630332D01*
X141556224Y-39553726D01*
X141653726Y-39456224D01*
X141730332Y-39341574D01*
X141783099Y-39214182D01*
X141810000Y-39078944D01*
X141810000Y-38941056D01*
X141783099Y-38805818D01*
X141730332Y-38678426D01*
X141653726Y-38563776D01*
X141556224Y-38466274D01*
X141441574Y-38389668D01*
X141314182Y-38336901D01*
X141178944Y-38310000D01*
X141041056Y-38310000D01*
X140905818Y-38336901D01*
X140778426Y-38389668D01*
X140663776Y-38466274D01*
X140566274Y-38563776D01*
X140552093Y-38585000D01*
X136770867Y-38585000D01*
X136750000Y-38582945D01*
X136729133Y-38585000D01*
X136729126Y-38585000D01*
X136674327Y-38590397D01*
X136666685Y-38591150D01*
X136651347Y-38595803D01*
X136586573Y-38615452D01*
X136512740Y-38654916D01*
X136448026Y-38708026D01*
X136434721Y-38724238D01*
X136316334Y-38842625D01*
X136293099Y-38725818D01*
X136240332Y-38598426D01*
X136163726Y-38483776D01*
X136066224Y-38386274D01*
X135951574Y-38309668D01*
X135945973Y-38307348D01*
X136026224Y-38253726D01*
X136123726Y-38156224D01*
X136154612Y-38110000D01*
X140520354Y-38110000D01*
X140540000Y-38111935D01*
X140559646Y-38110000D01*
X140559647Y-38110000D01*
X140618414Y-38104212D01*
X140693814Y-38081340D01*
X140763303Y-38044197D01*
X140824211Y-37994211D01*
X140836737Y-37978948D01*
X140876531Y-37939154D01*
X140931056Y-37950000D01*
X141068944Y-37950000D01*
X141204182Y-37923099D01*
X141331574Y-37870332D01*
X141446224Y-37793726D01*
X141543726Y-37696224D01*
X141620332Y-37581574D01*
X141673099Y-37454182D01*
X141700000Y-37318944D01*
X141700000Y-37181056D01*
X141673099Y-37045818D01*
X141620332Y-36918426D01*
X141543726Y-36803776D01*
X141446224Y-36706274D01*
X141331574Y-36629668D01*
X141204182Y-36576901D01*
X141068944Y-36550000D01*
X140931056Y-36550000D01*
X140795818Y-36576901D01*
X140668426Y-36629668D01*
X140553776Y-36706274D01*
X140456274Y-36803776D01*
X140379668Y-36918426D01*
X140326901Y-37045818D01*
X140300000Y-37181056D01*
X140300000Y-37310000D01*
X136154612Y-37310000D01*
X136123726Y-37263776D01*
X136026224Y-37166274D01*
X135911574Y-37089668D01*
X135784182Y-37036901D01*
X135648944Y-37010000D01*
X135511056Y-37010000D01*
X135375818Y-37036901D01*
X135248426Y-37089668D01*
X135133776Y-37166274D01*
X135036274Y-37263776D01*
X134959668Y-37378426D01*
X134906901Y-37505818D01*
X134880000Y-37641056D01*
X134880000Y-37778944D01*
X134906901Y-37914182D01*
X134959668Y-38041574D01*
X135036274Y-38156224D01*
X135133776Y-38253726D01*
X135248426Y-38330332D01*
X135254027Y-38332652D01*
X135173776Y-38386274D01*
X135076274Y-38483776D01*
X134999668Y-38598426D01*
X134946901Y-38725818D01*
X134920000Y-38861056D01*
X134920000Y-38998944D01*
X134936857Y-39083690D01*
X131070682Y-42949866D01*
X131020381Y-42828427D01*
X130943775Y-42713777D01*
X130846273Y-42616275D01*
X130800049Y-42585389D01*
X130800049Y-41394283D01*
X135415945Y-36778388D01*
X135470469Y-36789234D01*
X135608357Y-36789234D01*
X135743595Y-36762333D01*
X135870987Y-36709566D01*
X135985637Y-36632960D01*
X136083139Y-36535458D01*
X136159745Y-36420808D01*
X136212512Y-36293416D01*
X136239413Y-36158178D01*
X136239413Y-36020290D01*
X136212512Y-35885052D01*
X136159745Y-35757660D01*
X136083139Y-35643010D01*
X135985637Y-35545508D01*
X135954944Y-35525000D01*
X136925388Y-35525000D01*
X136956274Y-35571224D01*
X137053776Y-35668726D01*
X137168426Y-35745332D01*
X137295818Y-35798099D01*
X137431056Y-35825000D01*
X137568944Y-35825000D01*
X137704182Y-35798099D01*
X137831574Y-35745332D01*
X137946224Y-35668726D01*
X138043726Y-35571224D01*
X138120332Y-35456574D01*
X138173099Y-35329182D01*
X138200000Y-35193944D01*
X138200000Y-35056056D01*
X138173099Y-34920818D01*
X138133410Y-34825000D01*
X144925000Y-34825000D01*
X144925001Y-47675000D01*
X126825000Y-47675000D01*
X126825000Y-45411056D01*
X130690000Y-45411056D01*
X130690000Y-45548944D01*
X130716901Y-45684182D01*
X130769668Y-45811574D01*
X130846274Y-45926224D01*
X130943776Y-46023726D01*
X131058426Y-46100332D01*
X131185818Y-46153099D01*
X131321056Y-46180000D01*
X131458944Y-46180000D01*
X131594182Y-46153099D01*
X131721574Y-46100332D01*
X131836224Y-46023726D01*
X131933726Y-45926224D01*
X131964612Y-45880000D01*
X137170354Y-45880000D01*
X137190000Y-45881935D01*
X137209646Y-45880000D01*
X137209647Y-45880000D01*
X137268414Y-45874212D01*
X137343814Y-45851340D01*
X137413303Y-45814197D01*
X137474211Y-45764211D01*
X137486737Y-45748948D01*
X141046532Y-42189154D01*
X141101056Y-42200000D01*
X141238944Y-42200000D01*
X141374182Y-42173099D01*
X141501574Y-42120332D01*
X141616224Y-42043726D01*
X141713726Y-41946224D01*
X141790332Y-41831574D01*
X141843099Y-41704182D01*
X141870000Y-41568944D01*
X141870000Y-41431056D01*
X141843099Y-41295818D01*
X141790332Y-41168426D01*
X141713726Y-41053776D01*
X141616224Y-40956274D01*
X141501574Y-40879668D01*
X141374182Y-40826901D01*
X141238944Y-40800000D01*
X141101056Y-40800000D01*
X140965818Y-40826901D01*
X140838426Y-40879668D01*
X140723776Y-40956274D01*
X140626274Y-41053776D01*
X140549668Y-41168426D01*
X140496901Y-41295818D01*
X140470000Y-41431056D01*
X140470000Y-41568944D01*
X140480846Y-41623468D01*
X137024315Y-45080000D01*
X131964612Y-45080000D01*
X131933726Y-45033776D01*
X131836224Y-44936274D01*
X131721574Y-44859668D01*
X131594182Y-44806901D01*
X131458944Y-44780000D01*
X131321056Y-44780000D01*
X131185818Y-44806901D01*
X131058426Y-44859668D01*
X130943776Y-44936274D01*
X130846274Y-45033776D01*
X130769668Y-45148426D01*
X130716901Y-45275818D01*
X130690000Y-45411056D01*
X126825000Y-45411056D01*
X126825000Y-34825000D01*
X133566590Y-34825000D01*
X133526901Y-34920818D01*
G37*
X133526901Y-34920818D02*
X133500000Y-35056056D01*
X133500000Y-35193944D01*
X133526901Y-35329182D01*
X133573246Y-35441069D01*
X130653469Y-38360846D01*
X130598944Y-38350000D01*
X130461056Y-38350000D01*
X130325818Y-38376901D01*
X130198426Y-38429668D01*
X130083776Y-38506274D01*
X129986274Y-38603776D01*
X129909668Y-38718426D01*
X129856901Y-38845818D01*
X129830000Y-38981056D01*
X129830000Y-39118944D01*
X129856901Y-39254182D01*
X129909668Y-39381574D01*
X129986274Y-39496224D01*
X130083776Y-39593726D01*
X130198426Y-39670332D01*
X130325818Y-39723099D01*
X130461056Y-39750000D01*
X130598944Y-39750000D01*
X130734182Y-39723099D01*
X130861574Y-39670332D01*
X130976224Y-39593726D01*
X131073726Y-39496224D01*
X131150332Y-39381574D01*
X131203099Y-39254182D01*
X131230000Y-39118944D01*
X131230000Y-38981056D01*
X131219154Y-38926531D01*
X134333534Y-35812152D01*
X134404182Y-35798099D01*
X134531574Y-35745332D01*
X134646224Y-35668726D01*
X134743726Y-35571224D01*
X134774612Y-35525000D01*
X135123882Y-35525000D01*
X135093189Y-35545508D01*
X134995687Y-35643010D01*
X134919081Y-35757660D01*
X134866314Y-35885052D01*
X134839413Y-36020290D01*
X134839413Y-36158178D01*
X134850259Y-36212702D01*
X130131097Y-40931865D01*
X130115839Y-40944387D01*
X130103317Y-40959645D01*
X130103314Y-40959648D01*
X130065852Y-41005296D01*
X130028710Y-41074784D01*
X130005837Y-41150185D01*
X129998114Y-41228598D01*
X130000050Y-41248254D01*
X130000049Y-42585389D01*
X129953825Y-42616275D01*
X129856323Y-42713777D01*
X129779717Y-42828427D01*
X129726950Y-42955819D01*
X129700049Y-43091057D01*
X129700049Y-43228945D01*
X129726950Y-43364183D01*
X129779717Y-43491575D01*
X129856323Y-43606225D01*
X129923191Y-43673093D01*
X129882857Y-43713426D01*
X129806251Y-43828076D01*
X129753484Y-43955468D01*
X129726583Y-44090706D01*
X129726583Y-44228594D01*
X129753484Y-44363832D01*
X129806251Y-44491224D01*
X129882857Y-44605874D01*
X129980359Y-44703376D01*
X130095009Y-44779982D01*
X130222401Y-44832749D01*
X130357639Y-44859650D01*
X130495527Y-44859650D01*
X130630765Y-44832749D01*
X130758157Y-44779982D01*
X130872807Y-44703376D01*
X130970309Y-44605874D01*
X131001195Y-44559650D01*
X134545629Y-44559650D01*
X134565275Y-44561585D01*
X134584921Y-44559650D01*
X134584922Y-44559650D01*
X134643689Y-44553862D01*
X134719089Y-44530990D01*
X134788578Y-44493847D01*
X134849486Y-44443861D01*
X134862012Y-44428598D01*
X138078421Y-41212189D01*
X138127172Y-41260940D01*
X138241822Y-41337546D01*
X138369214Y-41390313D01*
X138504452Y-41417214D01*
X138642340Y-41417214D01*
X138777578Y-41390313D01*
X138904970Y-41337546D01*
X139019620Y-41260940D01*
X139117122Y-41163438D01*
X139193728Y-41048788D01*
X139246495Y-40921396D01*
X139273396Y-40786158D01*
X139273396Y-40648270D01*
X139246495Y-40513032D01*
X139193728Y-40385640D01*
X139117122Y-40270990D01*
X139019620Y-40173488D01*
X138904970Y-40096882D01*
X138777578Y-40044115D01*
X138642340Y-40017214D01*
X138504452Y-40017214D01*
X138369214Y-40044115D01*
X138241822Y-40096882D01*
X138127172Y-40173488D01*
X138029670Y-40270990D01*
X137999540Y-40316084D01*
X137988064Y-40317214D01*
X137929297Y-40323002D01*
X137853897Y-40345874D01*
X137784408Y-40383017D01*
X137723500Y-40433003D01*
X137710974Y-40448266D01*
X134399590Y-43759650D01*
X131392268Y-43759650D01*
X134883812Y-40268107D01*
X134906901Y-40384182D01*
X134959668Y-40511574D01*
X135036274Y-40626224D01*
X135133776Y-40723726D01*
X135248426Y-40800332D01*
X135375818Y-40853099D01*
X135511056Y-40880000D01*
X135648944Y-40880000D01*
X135784182Y-40853099D01*
X135911574Y-40800332D01*
X136026224Y-40723726D01*
X136123726Y-40626224D01*
X136200332Y-40511574D01*
X136253099Y-40384182D01*
X136280000Y-40248944D01*
X136280000Y-40111056D01*
X136275020Y-40086020D01*
X136926041Y-39435000D01*
X140552093Y-39435000D01*
X140566274Y-39456224D01*
X140663776Y-39553726D01*
X140778426Y-39630332D01*
X140905818Y-39683099D01*
X141041056Y-39710000D01*
X141178944Y-39710000D01*
X141314182Y-39683099D01*
X141441574Y-39630332D01*
X141556224Y-39553726D01*
X141653726Y-39456224D01*
X141730332Y-39341574D01*
X141783099Y-39214182D01*
X141810000Y-39078944D01*
X141810000Y-38941056D01*
X141783099Y-38805818D01*
X141730332Y-38678426D01*
X141653726Y-38563776D01*
X141556224Y-38466274D01*
X141441574Y-38389668D01*
X141314182Y-38336901D01*
X141178944Y-38310000D01*
X141041056Y-38310000D01*
X140905818Y-38336901D01*
X140778426Y-38389668D01*
X140663776Y-38466274D01*
X140566274Y-38563776D01*
X140552093Y-38585000D01*
X136770867Y-38585000D01*
X136750000Y-38582945D01*
X136729133Y-38585000D01*
X136729126Y-38585000D01*
X136674327Y-38590397D01*
X136666685Y-38591150D01*
X136651347Y-38595803D01*
X136586573Y-38615452D01*
X136512740Y-38654916D01*
X136448026Y-38708026D01*
X136434721Y-38724238D01*
X136316334Y-38842625D01*
X136293099Y-38725818D01*
X136240332Y-38598426D01*
X136163726Y-38483776D01*
X136066224Y-38386274D01*
X135951574Y-38309668D01*
X135945973Y-38307348D01*
X136026224Y-38253726D01*
X136123726Y-38156224D01*
X136154612Y-38110000D01*
X140520354Y-38110000D01*
X140540000Y-38111935D01*
X140559646Y-38110000D01*
X140559647Y-38110000D01*
X140618414Y-38104212D01*
X140693814Y-38081340D01*
X140763303Y-38044197D01*
X140824211Y-37994211D01*
X140836737Y-37978948D01*
X140876531Y-37939154D01*
X140931056Y-37950000D01*
X141068944Y-37950000D01*
X141204182Y-37923099D01*
X141331574Y-37870332D01*
X141446224Y-37793726D01*
X141543726Y-37696224D01*
X141620332Y-37581574D01*
X141673099Y-37454182D01*
X141700000Y-37318944D01*
X141700000Y-37181056D01*
X141673099Y-37045818D01*
X141620332Y-36918426D01*
X141543726Y-36803776D01*
X141446224Y-36706274D01*
X141331574Y-36629668D01*
X141204182Y-36576901D01*
X141068944Y-36550000D01*
X140931056Y-36550000D01*
X140795818Y-36576901D01*
X140668426Y-36629668D01*
X140553776Y-36706274D01*
X140456274Y-36803776D01*
X140379668Y-36918426D01*
X140326901Y-37045818D01*
X140300000Y-37181056D01*
X140300000Y-37310000D01*
X136154612Y-37310000D01*
X136123726Y-37263776D01*
X136026224Y-37166274D01*
X135911574Y-37089668D01*
X135784182Y-37036901D01*
X135648944Y-37010000D01*
X135511056Y-37010000D01*
X135375818Y-37036901D01*
X135248426Y-37089668D01*
X135133776Y-37166274D01*
X135036274Y-37263776D01*
X134959668Y-37378426D01*
X134906901Y-37505818D01*
X134880000Y-37641056D01*
X134880000Y-37778944D01*
X134906901Y-37914182D01*
X134959668Y-38041574D01*
X135036274Y-38156224D01*
X135133776Y-38253726D01*
X135248426Y-38330332D01*
X135254027Y-38332652D01*
X135173776Y-38386274D01*
X135076274Y-38483776D01*
X134999668Y-38598426D01*
X134946901Y-38725818D01*
X134920000Y-38861056D01*
X134920000Y-38998944D01*
X134936857Y-39083690D01*
X131070682Y-42949866D01*
X131020381Y-42828427D01*
X130943775Y-42713777D01*
X130846273Y-42616275D01*
X130800049Y-42585389D01*
X130800049Y-41394283D01*
X135415945Y-36778388D01*
X135470469Y-36789234D01*
X135608357Y-36789234D01*
X135743595Y-36762333D01*
X135870987Y-36709566D01*
X135985637Y-36632960D01*
X136083139Y-36535458D01*
X136159745Y-36420808D01*
X136212512Y-36293416D01*
X136239413Y-36158178D01*
X136239413Y-36020290D01*
X136212512Y-35885052D01*
X136159745Y-35757660D01*
X136083139Y-35643010D01*
X135985637Y-35545508D01*
X135954944Y-35525000D01*
X136925388Y-35525000D01*
X136956274Y-35571224D01*
X137053776Y-35668726D01*
X137168426Y-35745332D01*
X137295818Y-35798099D01*
X137431056Y-35825000D01*
X137568944Y-35825000D01*
X137704182Y-35798099D01*
X137831574Y-35745332D01*
X137946224Y-35668726D01*
X138043726Y-35571224D01*
X138120332Y-35456574D01*
X138173099Y-35329182D01*
X138200000Y-35193944D01*
X138200000Y-35056056D01*
X138173099Y-34920818D01*
X138133410Y-34825000D01*
X144925000Y-34825000D01*
X144925001Y-47675000D01*
X126825000Y-47675000D01*
X126825000Y-45411056D01*
X130690000Y-45411056D01*
X130690000Y-45548944D01*
X130716901Y-45684182D01*
X130769668Y-45811574D01*
X130846274Y-45926224D01*
X130943776Y-46023726D01*
X131058426Y-46100332D01*
X131185818Y-46153099D01*
X131321056Y-46180000D01*
X131458944Y-46180000D01*
X131594182Y-46153099D01*
X131721574Y-46100332D01*
X131836224Y-46023726D01*
X131933726Y-45926224D01*
X131964612Y-45880000D01*
X137170354Y-45880000D01*
X137190000Y-45881935D01*
X137209646Y-45880000D01*
X137209647Y-45880000D01*
X137268414Y-45874212D01*
X137343814Y-45851340D01*
X137413303Y-45814197D01*
X137474211Y-45764211D01*
X137486737Y-45748948D01*
X141046532Y-42189154D01*
X141101056Y-42200000D01*
X141238944Y-42200000D01*
X141374182Y-42173099D01*
X141501574Y-42120332D01*
X141616224Y-42043726D01*
X141713726Y-41946224D01*
X141790332Y-41831574D01*
X141843099Y-41704182D01*
X141870000Y-41568944D01*
X141870000Y-41431056D01*
X141843099Y-41295818D01*
X141790332Y-41168426D01*
X141713726Y-41053776D01*
X141616224Y-40956274D01*
X141501574Y-40879668D01*
X141374182Y-40826901D01*
X141238944Y-40800000D01*
X141101056Y-40800000D01*
X140965818Y-40826901D01*
X140838426Y-40879668D01*
X140723776Y-40956274D01*
X140626274Y-41053776D01*
X140549668Y-41168426D01*
X140496901Y-41295818D01*
X140470000Y-41431056D01*
X140470000Y-41568944D01*
X140480846Y-41623468D01*
X137024315Y-45080000D01*
X131964612Y-45080000D01*
X131933726Y-45033776D01*
X131836224Y-44936274D01*
X131721574Y-44859668D01*
X131594182Y-44806901D01*
X131458944Y-44780000D01*
X131321056Y-44780000D01*
X131185818Y-44806901D01*
X131058426Y-44859668D01*
X130943776Y-44936274D01*
X130846274Y-45033776D01*
X130769668Y-45148426D01*
X130716901Y-45275818D01*
X130690000Y-45411056D01*
X126825000Y-45411056D01*
X126825000Y-34825000D01*
X133566590Y-34825000D01*
X133526901Y-34920818D01*
M02*
