G04 #@! TF.GenerationSoftware,KiCad,Pcbnew,(5.1.5)-3*
G04 #@! TF.CreationDate,2020-05-27T19:43:43+09:00*
G04 #@! TF.ProjectId,FMU3_Sensors_make,464d5533-5f53-4656-9e73-6f72735f6d61,rev?*
G04 #@! TF.SameCoordinates,Original*
G04 #@! TF.FileFunction,Copper,L1,Top*
G04 #@! TF.FilePolarity,Positive*
%FSLAX46Y46*%
G04 Gerber Fmt 4.6, Leading zero omitted, Abs format (unit mm)*
G04 Created by KiCad (PCBNEW (5.1.5)-3) date 2020-05-27 19:43:43*
%MOMM*%
%LPD*%
G04 APERTURE LIST*
%ADD10R,0.300000X0.600000*%
%ADD11R,0.600000X0.300000*%
%ADD12R,0.640000X0.150000*%
%ADD13R,0.150000X0.640000*%
%ADD14R,1.010000X0.930000*%
%ADD15R,0.540000X0.600000*%
%ADD16R,0.930000X1.010000*%
%ADD17R,0.600000X0.540000*%
%ADD18R,2.500000X1.500000*%
%ADD19C,0.100000*%
%ADD20R,1.310000X0.530000*%
%ADD21C,0.800000*%
%ADD22C,0.200000*%
%ADD23C,0.250000*%
G04 APERTURE END LIST*
D10*
X132180000Y-41910000D03*
X132680000Y-41910000D03*
X133180000Y-41910000D03*
D11*
X133980000Y-42210000D03*
X133980000Y-42710000D03*
X133980000Y-43210000D03*
X133980000Y-43710000D03*
X133980000Y-44210000D03*
D10*
X133180000Y-44510000D03*
X132680000Y-44510000D03*
X132180000Y-44510000D03*
D11*
X131380000Y-44210000D03*
X131380000Y-43710000D03*
X131380000Y-43210000D03*
X131380000Y-42710000D03*
X131380000Y-42210000D03*
D12*
X136755001Y-36645001D03*
X136755001Y-37045001D03*
X136755001Y-37445001D03*
X136755001Y-37845001D03*
X136755001Y-38245001D03*
X136755001Y-38645001D03*
D13*
X137300001Y-39190001D03*
X137700001Y-39190001D03*
X138100001Y-39190001D03*
X138500001Y-39190001D03*
X138900001Y-39190001D03*
X139300001Y-39190001D03*
D12*
X139845001Y-38645001D03*
X139845001Y-38245001D03*
X139845001Y-37845001D03*
X139845001Y-37445001D03*
X139845001Y-37045001D03*
X139845001Y-36645001D03*
D13*
X139300001Y-36100001D03*
X138900001Y-36100001D03*
X138500001Y-36100001D03*
X138100001Y-36100001D03*
X137700001Y-36100001D03*
X137300001Y-36100001D03*
D14*
X138349000Y-42250000D03*
X136931000Y-42250000D03*
D15*
X136600000Y-43530000D03*
X137460000Y-43530000D03*
D16*
X139850000Y-40791000D03*
X139850000Y-42209000D03*
D15*
X137460000Y-44670000D03*
X136600000Y-44670000D03*
D17*
X135000000Y-41870000D03*
X135000000Y-42730000D03*
D18*
X128540000Y-44050000D03*
X128540000Y-36550000D03*
X128540000Y-41550000D03*
X128540000Y-39050000D03*
X128540000Y-46550000D03*
G04 #@! TA.AperFunction,SMDPad,CuDef*
D19*
G36*
X136776958Y-40700710D02*
G01*
X136791276Y-40702834D01*
X136805317Y-40706351D01*
X136818946Y-40711228D01*
X136832031Y-40717417D01*
X136844447Y-40724858D01*
X136856073Y-40733481D01*
X136866798Y-40743202D01*
X136876519Y-40753927D01*
X136885142Y-40765553D01*
X136892583Y-40777969D01*
X136898772Y-40791054D01*
X136903649Y-40804683D01*
X136907166Y-40818724D01*
X136909290Y-40833042D01*
X136910000Y-40847500D01*
X136910000Y-41192500D01*
X136909290Y-41206958D01*
X136907166Y-41221276D01*
X136903649Y-41235317D01*
X136898772Y-41248946D01*
X136892583Y-41262031D01*
X136885142Y-41274447D01*
X136876519Y-41286073D01*
X136866798Y-41296798D01*
X136856073Y-41306519D01*
X136844447Y-41315142D01*
X136832031Y-41322583D01*
X136818946Y-41328772D01*
X136805317Y-41333649D01*
X136791276Y-41337166D01*
X136776958Y-41339290D01*
X136762500Y-41340000D01*
X136467500Y-41340000D01*
X136453042Y-41339290D01*
X136438724Y-41337166D01*
X136424683Y-41333649D01*
X136411054Y-41328772D01*
X136397969Y-41322583D01*
X136385553Y-41315142D01*
X136373927Y-41306519D01*
X136363202Y-41296798D01*
X136353481Y-41286073D01*
X136344858Y-41274447D01*
X136337417Y-41262031D01*
X136331228Y-41248946D01*
X136326351Y-41235317D01*
X136322834Y-41221276D01*
X136320710Y-41206958D01*
X136320000Y-41192500D01*
X136320000Y-40847500D01*
X136320710Y-40833042D01*
X136322834Y-40818724D01*
X136326351Y-40804683D01*
X136331228Y-40791054D01*
X136337417Y-40777969D01*
X136344858Y-40765553D01*
X136353481Y-40753927D01*
X136363202Y-40743202D01*
X136373927Y-40733481D01*
X136385553Y-40724858D01*
X136397969Y-40717417D01*
X136411054Y-40711228D01*
X136424683Y-40706351D01*
X136438724Y-40702834D01*
X136453042Y-40700710D01*
X136467500Y-40700000D01*
X136762500Y-40700000D01*
X136776958Y-40700710D01*
G37*
G04 #@! TD.AperFunction*
G04 #@! TA.AperFunction,SMDPad,CuDef*
G36*
X137746958Y-40700710D02*
G01*
X137761276Y-40702834D01*
X137775317Y-40706351D01*
X137788946Y-40711228D01*
X137802031Y-40717417D01*
X137814447Y-40724858D01*
X137826073Y-40733481D01*
X137836798Y-40743202D01*
X137846519Y-40753927D01*
X137855142Y-40765553D01*
X137862583Y-40777969D01*
X137868772Y-40791054D01*
X137873649Y-40804683D01*
X137877166Y-40818724D01*
X137879290Y-40833042D01*
X137880000Y-40847500D01*
X137880000Y-41192500D01*
X137879290Y-41206958D01*
X137877166Y-41221276D01*
X137873649Y-41235317D01*
X137868772Y-41248946D01*
X137862583Y-41262031D01*
X137855142Y-41274447D01*
X137846519Y-41286073D01*
X137836798Y-41296798D01*
X137826073Y-41306519D01*
X137814447Y-41315142D01*
X137802031Y-41322583D01*
X137788946Y-41328772D01*
X137775317Y-41333649D01*
X137761276Y-41337166D01*
X137746958Y-41339290D01*
X137732500Y-41340000D01*
X137437500Y-41340000D01*
X137423042Y-41339290D01*
X137408724Y-41337166D01*
X137394683Y-41333649D01*
X137381054Y-41328772D01*
X137367969Y-41322583D01*
X137355553Y-41315142D01*
X137343927Y-41306519D01*
X137333202Y-41296798D01*
X137323481Y-41286073D01*
X137314858Y-41274447D01*
X137307417Y-41262031D01*
X137301228Y-41248946D01*
X137296351Y-41235317D01*
X137292834Y-41221276D01*
X137290710Y-41206958D01*
X137290000Y-41192500D01*
X137290000Y-40847500D01*
X137290710Y-40833042D01*
X137292834Y-40818724D01*
X137296351Y-40804683D01*
X137301228Y-40791054D01*
X137307417Y-40777969D01*
X137314858Y-40765553D01*
X137323481Y-40753927D01*
X137333202Y-40743202D01*
X137343927Y-40733481D01*
X137355553Y-40724858D01*
X137367969Y-40717417D01*
X137381054Y-40711228D01*
X137394683Y-40706351D01*
X137408724Y-40702834D01*
X137423042Y-40700710D01*
X137437500Y-40700000D01*
X137732500Y-40700000D01*
X137746958Y-40700710D01*
G37*
G04 #@! TD.AperFunction*
D20*
X131807001Y-36430001D03*
X134207001Y-36430001D03*
X131807001Y-37680001D03*
X131807001Y-38930001D03*
X131807001Y-40180001D03*
X134207001Y-40180001D03*
X134207001Y-38930001D03*
X134207001Y-37680001D03*
D18*
X143200000Y-44000000D03*
X143200000Y-36500000D03*
X143200000Y-41500000D03*
X143200000Y-39000000D03*
X143200000Y-46500000D03*
D21*
X140758808Y-38084005D03*
X135650000Y-37850000D03*
X140900000Y-46500000D03*
X130560000Y-37680000D03*
X135590000Y-40180000D03*
X141160000Y-39000000D03*
X141350000Y-41500000D03*
X131370000Y-45570000D03*
X138573396Y-40717214D03*
X135620000Y-38930000D03*
X130426583Y-44159650D03*
X130400049Y-43160001D03*
X135539413Y-36089234D03*
X137500000Y-35125000D03*
X134200000Y-35125000D03*
X130530000Y-39050000D03*
D22*
X137700001Y-39190001D02*
X137700001Y-39934999D01*
X136755001Y-36645001D02*
X135964999Y-36645001D01*
X136600000Y-42581000D02*
X136600000Y-43530000D01*
X136931000Y-42250000D02*
X136600000Y-42581000D01*
X136600000Y-43530000D02*
X136600000Y-44670000D01*
X140758808Y-38266196D02*
X140758808Y-38084005D01*
X139845001Y-38645001D02*
X140380003Y-38645001D01*
X140380003Y-38645001D02*
X140758808Y-38266196D01*
X138349000Y-42250000D02*
X138349000Y-42611000D01*
X137585000Y-41486000D02*
X138349000Y-42250000D01*
X137585000Y-41020000D02*
X137585000Y-41486000D01*
X133910000Y-42200000D02*
X133910000Y-42700000D01*
X133910000Y-42700000D02*
X133910000Y-43200000D01*
X134970000Y-42700000D02*
X135000000Y-42730000D01*
X133910000Y-42700000D02*
X134970000Y-42700000D01*
X133465000Y-42700000D02*
X133910000Y-42700000D01*
X132949998Y-42700000D02*
X133465000Y-42700000D01*
X132650000Y-42400002D02*
X132949998Y-42700000D01*
X132650000Y-41940000D02*
X132650000Y-42400002D01*
X131807001Y-37680001D02*
X131807001Y-38930001D01*
X131807001Y-37680001D02*
X130560001Y-37680001D01*
X130560001Y-37680001D02*
X130560000Y-37680000D01*
X139809000Y-42250000D02*
X139850000Y-42209000D01*
X138349000Y-42250000D02*
X139809000Y-42250000D01*
X138900001Y-36620001D02*
X138900001Y-39190001D01*
X138900001Y-36100001D02*
X138900001Y-36620001D01*
D23*
X139845001Y-36320001D02*
X139845001Y-36645001D01*
X139845001Y-35664999D02*
X139845001Y-36320001D01*
X139635002Y-35455000D02*
X139845001Y-35664999D01*
D22*
X138900001Y-36100001D02*
X138900000Y-35530000D01*
X138975000Y-35455000D02*
X139635002Y-35455000D01*
X138900000Y-35530000D02*
X138975000Y-35455000D01*
X138635008Y-35029992D02*
X138100001Y-35564999D01*
X138100001Y-35580001D02*
X138100001Y-36100001D01*
X138100001Y-35564999D02*
X138100001Y-35580001D01*
X143200000Y-35550000D02*
X142679992Y-35029992D01*
X142679992Y-35029992D02*
X138635008Y-35029992D01*
X143200000Y-36500000D02*
X143200000Y-35550000D01*
X134207001Y-40180001D02*
X135589999Y-40180001D01*
X135589999Y-40180001D02*
X135590000Y-40180000D01*
X143200000Y-39000000D02*
X141160000Y-39000000D01*
X143200000Y-41500000D02*
X141350000Y-41500000D01*
X131380000Y-44210000D02*
X131380000Y-45560000D01*
X131380000Y-45560000D02*
X131370000Y-45570000D01*
X138100001Y-39190001D02*
X138100001Y-40243819D01*
X138100001Y-40243819D02*
X138573396Y-40717214D01*
X134207001Y-38930001D02*
X135619999Y-38930001D01*
X135619999Y-38930001D02*
X135620000Y-38930000D01*
X131390000Y-43700000D02*
X130886233Y-43700000D01*
X130886233Y-43700000D02*
X130426583Y-44159650D01*
X130316933Y-44050000D02*
X130426583Y-44159650D01*
X128540000Y-44050000D02*
X130316933Y-44050000D01*
X131390000Y-43200000D02*
X130440048Y-43200000D01*
X130440048Y-43200000D02*
X130400049Y-43160001D01*
X130400049Y-42910049D02*
X130400049Y-43160001D01*
X129040000Y-41550000D02*
X130400049Y-42910049D01*
X128540000Y-41550000D02*
X129040000Y-41550000D01*
X137300001Y-36100001D02*
X135550180Y-36100001D01*
X135550180Y-36100001D02*
X135539413Y-36089234D01*
X135539413Y-36654919D02*
X135539413Y-36089234D01*
X135199330Y-36995002D02*
X135539413Y-36654919D01*
X134427000Y-36995002D02*
X135199330Y-36995002D01*
X134207001Y-37215001D02*
X134427000Y-36995002D01*
X134207001Y-37680001D02*
X134207001Y-37215001D01*
X137700001Y-36100001D02*
X137700001Y-35325001D01*
X137700001Y-35325001D02*
X137500000Y-35125000D01*
X134207001Y-36430001D02*
X134207001Y-35132001D01*
X134207001Y-35132001D02*
X134200000Y-35125000D01*
X128540000Y-39050000D02*
X130530000Y-39050000D01*
X130530000Y-39615685D02*
X130530000Y-39050000D01*
X130530000Y-42300002D02*
X130530000Y-39615685D01*
X130929998Y-42700000D02*
X130530000Y-42300002D01*
X131390000Y-42700000D02*
X130929998Y-42700000D01*
X141750000Y-44000000D02*
X143200000Y-44000000D01*
X140649999Y-40080997D02*
X140649999Y-42899999D01*
X140649999Y-42899999D02*
X141750000Y-44000000D01*
X139759003Y-39190001D02*
X140649999Y-40080997D01*
X139300001Y-39190001D02*
X139759003Y-39190001D01*
X139850000Y-40751000D02*
X139850000Y-40791000D01*
X138876000Y-40086000D02*
X139185000Y-40086000D01*
X138500001Y-39710001D02*
X138876000Y-40086000D01*
X139185000Y-40086000D02*
X139850000Y-40751000D01*
X138500001Y-39190001D02*
X138500001Y-39710001D01*
X133575000Y-41445000D02*
X133150000Y-41870000D01*
X134545000Y-41445000D02*
X133575000Y-41445000D01*
X134970000Y-41870000D02*
X134545000Y-41445000D01*
D23*
X135000000Y-41870000D02*
X134970000Y-41870000D01*
D22*
G36*
X133526901Y-34920818D02*
G01*
X133500000Y-35056056D01*
X133500000Y-35193944D01*
X133526901Y-35329182D01*
X133579668Y-35456574D01*
X133656274Y-35571224D01*
X133753776Y-35668726D01*
X133807002Y-35704290D01*
X133807001Y-35863550D01*
X133552001Y-35863550D01*
X133493191Y-35869342D01*
X133436641Y-35886497D01*
X133384524Y-35914354D01*
X133338843Y-35951843D01*
X133301354Y-35997524D01*
X133273497Y-36049641D01*
X133256342Y-36106191D01*
X133250550Y-36165001D01*
X133250550Y-36695001D01*
X133256342Y-36753811D01*
X133273497Y-36810361D01*
X133301354Y-36862478D01*
X133338843Y-36908159D01*
X133384524Y-36945648D01*
X133436641Y-36973505D01*
X133493191Y-36990660D01*
X133552001Y-36996452D01*
X133870263Y-36996452D01*
X133835662Y-37061187D01*
X133819778Y-37113550D01*
X133552001Y-37113550D01*
X133493191Y-37119342D01*
X133436641Y-37136497D01*
X133384524Y-37164354D01*
X133338843Y-37201843D01*
X133301354Y-37247524D01*
X133273497Y-37299641D01*
X133256342Y-37356191D01*
X133250550Y-37415001D01*
X133250550Y-37945001D01*
X133256342Y-38003811D01*
X133273497Y-38060361D01*
X133301354Y-38112478D01*
X133338843Y-38158159D01*
X133384524Y-38195648D01*
X133436641Y-38223505D01*
X133493191Y-38240660D01*
X133552001Y-38246452D01*
X134862001Y-38246452D01*
X134920811Y-38240660D01*
X134977361Y-38223505D01*
X135029478Y-38195648D01*
X135075159Y-38158159D01*
X135112648Y-38112478D01*
X135140505Y-38060361D01*
X135157660Y-38003811D01*
X135163452Y-37945001D01*
X135163452Y-37415001D01*
X135161482Y-37395002D01*
X135179684Y-37395002D01*
X135199330Y-37396937D01*
X135218976Y-37395002D01*
X135218977Y-37395002D01*
X135277744Y-37389214D01*
X135353144Y-37366342D01*
X135422633Y-37329199D01*
X135483541Y-37279213D01*
X135496067Y-37263950D01*
X135808367Y-36951651D01*
X135823624Y-36939130D01*
X135840716Y-36918304D01*
X135873610Y-36878222D01*
X135886214Y-36854641D01*
X135910753Y-36808733D01*
X135933625Y-36733333D01*
X135939413Y-36674566D01*
X135939413Y-36674565D01*
X135940543Y-36663090D01*
X135985637Y-36632960D01*
X136054299Y-36564299D01*
X136135001Y-36645001D01*
X136035001Y-36745001D01*
X136042787Y-36807865D01*
X136067465Y-36882694D01*
X136106267Y-36951271D01*
X136133550Y-36982932D01*
X136133550Y-37120001D01*
X136139342Y-37178811D01*
X136156497Y-37235361D01*
X136161650Y-37245001D01*
X136156497Y-37254641D01*
X136139342Y-37311191D01*
X136133550Y-37370001D01*
X136133550Y-37520001D01*
X136139342Y-37578811D01*
X136156497Y-37635361D01*
X136161650Y-37645001D01*
X136156497Y-37654641D01*
X136139342Y-37711191D01*
X136133550Y-37770001D01*
X136133550Y-37920001D01*
X136139342Y-37978811D01*
X136156497Y-38035361D01*
X136161650Y-38045001D01*
X136156497Y-38054641D01*
X136139342Y-38111191D01*
X136133550Y-38170001D01*
X136133550Y-38320001D01*
X136139342Y-38378811D01*
X136156497Y-38435361D01*
X136161650Y-38445001D01*
X136156497Y-38454641D01*
X136151398Y-38471448D01*
X136066224Y-38386274D01*
X135951574Y-38309668D01*
X135824182Y-38256901D01*
X135688944Y-38230000D01*
X135551056Y-38230000D01*
X135415818Y-38256901D01*
X135288426Y-38309668D01*
X135173776Y-38386274D01*
X135090055Y-38469995D01*
X135075159Y-38451843D01*
X135029478Y-38414354D01*
X134977361Y-38386497D01*
X134920811Y-38369342D01*
X134862001Y-38363550D01*
X133552001Y-38363550D01*
X133493191Y-38369342D01*
X133436641Y-38386497D01*
X133384524Y-38414354D01*
X133338843Y-38451843D01*
X133301354Y-38497524D01*
X133273497Y-38549641D01*
X133256342Y-38606191D01*
X133250550Y-38665001D01*
X133250550Y-39195001D01*
X133256342Y-39253811D01*
X133273497Y-39310361D01*
X133301354Y-39362478D01*
X133338843Y-39408159D01*
X133384524Y-39445648D01*
X133436641Y-39473505D01*
X133493191Y-39490660D01*
X133552001Y-39496452D01*
X134862001Y-39496452D01*
X134920811Y-39490660D01*
X134977361Y-39473505D01*
X135029478Y-39445648D01*
X135075159Y-39408159D01*
X135090056Y-39390006D01*
X135173776Y-39473726D01*
X135285571Y-39548424D01*
X135258426Y-39559668D01*
X135143776Y-39636274D01*
X135076533Y-39703517D01*
X135075159Y-39701843D01*
X135029478Y-39664354D01*
X134977361Y-39636497D01*
X134920811Y-39619342D01*
X134862001Y-39613550D01*
X133552001Y-39613550D01*
X133493191Y-39619342D01*
X133436641Y-39636497D01*
X133384524Y-39664354D01*
X133338843Y-39701843D01*
X133301354Y-39747524D01*
X133273497Y-39799641D01*
X133256342Y-39856191D01*
X133250550Y-39915001D01*
X133250550Y-40445001D01*
X133256342Y-40503811D01*
X133273497Y-40560361D01*
X133301354Y-40612478D01*
X133338843Y-40658159D01*
X133384524Y-40695648D01*
X133436641Y-40723505D01*
X133493191Y-40740660D01*
X133552001Y-40746452D01*
X134862001Y-40746452D01*
X134920811Y-40740660D01*
X134977361Y-40723505D01*
X135029478Y-40695648D01*
X135075159Y-40658159D01*
X135076534Y-40656484D01*
X135143776Y-40723726D01*
X135258426Y-40800332D01*
X135385818Y-40853099D01*
X135521056Y-40880000D01*
X135658944Y-40880000D01*
X135794182Y-40853099D01*
X135919218Y-40801308D01*
X135920000Y-40870000D01*
X136020000Y-40970000D01*
X136565000Y-40970000D01*
X136565000Y-40400000D01*
X136465000Y-40300000D01*
X136320000Y-40298065D01*
X136279434Y-40302060D01*
X136290000Y-40248944D01*
X136290000Y-40111056D01*
X136263099Y-39975818D01*
X136210332Y-39848426D01*
X136133726Y-39733776D01*
X136036224Y-39636274D01*
X135924429Y-39561576D01*
X135951574Y-39550332D01*
X136066224Y-39473726D01*
X136163726Y-39376224D01*
X136240332Y-39261574D01*
X136293099Y-39134182D01*
X136320000Y-38998944D01*
X136320000Y-38998614D01*
X136376191Y-39015660D01*
X136435001Y-39021452D01*
X136923550Y-39021452D01*
X136923550Y-39510001D01*
X136929342Y-39568811D01*
X136946497Y-39625361D01*
X136974354Y-39677478D01*
X137011843Y-39723159D01*
X137057524Y-39760648D01*
X137109641Y-39788505D01*
X137166191Y-39805660D01*
X137225001Y-39811452D01*
X137362070Y-39811452D01*
X137393731Y-39838735D01*
X137462308Y-39877537D01*
X137537137Y-39902215D01*
X137600001Y-39910001D01*
X137649999Y-39860003D01*
X137649999Y-39910001D01*
X137700002Y-39910001D01*
X137700002Y-40224163D01*
X137698066Y-40243819D01*
X137705789Y-40322232D01*
X137728662Y-40397633D01*
X137729152Y-40398549D01*
X137437500Y-40398549D01*
X137349914Y-40407175D01*
X137265694Y-40432723D01*
X137225667Y-40454118D01*
X137194211Y-40415789D01*
X137133303Y-40365803D01*
X137063814Y-40328660D01*
X136988414Y-40305788D01*
X136910000Y-40298065D01*
X136765000Y-40300000D01*
X136665000Y-40400000D01*
X136665000Y-40970000D01*
X136685000Y-40970000D01*
X136685000Y-41070000D01*
X136665000Y-41070000D01*
X136665000Y-41090000D01*
X136565000Y-41090000D01*
X136565000Y-41070000D01*
X136020000Y-41070000D01*
X135920000Y-41170000D01*
X135918065Y-41340000D01*
X135925788Y-41418414D01*
X135948660Y-41493814D01*
X135985803Y-41563303D01*
X136035789Y-41624211D01*
X136052593Y-41638001D01*
X136031788Y-41706586D01*
X136024065Y-41785000D01*
X136026000Y-42100000D01*
X136126000Y-42200000D01*
X136881000Y-42200000D01*
X136881000Y-42180000D01*
X136981000Y-42180000D01*
X136981000Y-42200000D01*
X137001000Y-42200000D01*
X137001000Y-42300000D01*
X136981000Y-42300000D01*
X136981000Y-42320000D01*
X136881000Y-42320000D01*
X136881000Y-42300000D01*
X136126000Y-42300000D01*
X136026000Y-42400000D01*
X135595298Y-42400000D01*
X135578504Y-42344640D01*
X135554644Y-42300000D01*
X135578504Y-42255360D01*
X135595659Y-42198810D01*
X135601451Y-42140000D01*
X135601451Y-41600000D01*
X135595659Y-41541190D01*
X135578504Y-41484640D01*
X135550647Y-41432523D01*
X135513158Y-41386842D01*
X135467477Y-41349353D01*
X135415360Y-41321496D01*
X135358810Y-41304341D01*
X135300000Y-41298549D01*
X134964234Y-41298549D01*
X134841737Y-41176052D01*
X134829211Y-41160789D01*
X134768303Y-41110803D01*
X134698814Y-41073660D01*
X134623414Y-41050788D01*
X134564647Y-41045000D01*
X134564646Y-41045000D01*
X134545000Y-41043065D01*
X134525354Y-41045000D01*
X133594647Y-41045000D01*
X133575000Y-41043065D01*
X133555353Y-41045000D01*
X133496586Y-41050788D01*
X133421186Y-41073660D01*
X133351697Y-41110803D01*
X133306049Y-41148265D01*
X133306047Y-41148267D01*
X133290789Y-41160789D01*
X133278267Y-41176047D01*
X133145765Y-41308549D01*
X133030000Y-41308549D01*
X132971190Y-41314341D01*
X132930000Y-41326836D01*
X132888810Y-41314341D01*
X132830000Y-41308549D01*
X132593204Y-41308549D01*
X132553303Y-41275803D01*
X132483814Y-41238660D01*
X132408414Y-41215788D01*
X132330000Y-41208065D01*
X132330000Y-41210000D01*
X132230000Y-41310000D01*
X132230000Y-41595267D01*
X132228549Y-41610000D01*
X132228549Y-41980000D01*
X132130000Y-41980000D01*
X132130000Y-41960000D01*
X132110000Y-41960000D01*
X132110000Y-41860000D01*
X132130000Y-41860000D01*
X132130000Y-41310000D01*
X132030000Y-41210000D01*
X132030000Y-41208065D01*
X131951586Y-41215788D01*
X131876186Y-41238660D01*
X131806697Y-41275803D01*
X131745789Y-41325789D01*
X131695803Y-41386697D01*
X131658660Y-41456186D01*
X131635788Y-41531586D01*
X131628065Y-41610000D01*
X131628694Y-41658727D01*
X131530000Y-41660000D01*
X131430000Y-41760000D01*
X131430000Y-42160000D01*
X131450000Y-42160000D01*
X131450000Y-42258549D01*
X131310000Y-42258549D01*
X131310000Y-42160000D01*
X131330000Y-42160000D01*
X131330000Y-41760000D01*
X131230000Y-41660000D01*
X131080000Y-41658065D01*
X131001586Y-41665788D01*
X130930000Y-41687503D01*
X130930000Y-40647384D01*
X130938843Y-40658159D01*
X130984524Y-40695648D01*
X131036641Y-40723505D01*
X131093191Y-40740660D01*
X131152001Y-40746452D01*
X132462001Y-40746452D01*
X132520811Y-40740660D01*
X132577361Y-40723505D01*
X132629478Y-40695648D01*
X132675159Y-40658159D01*
X132712648Y-40612478D01*
X132740505Y-40560361D01*
X132757660Y-40503811D01*
X132763452Y-40445001D01*
X132763452Y-39915001D01*
X132757660Y-39856191D01*
X132740505Y-39799641D01*
X132712648Y-39747524D01*
X132675159Y-39701843D01*
X132629478Y-39664354D01*
X132577361Y-39636497D01*
X132520811Y-39619342D01*
X132462001Y-39613550D01*
X131152001Y-39613550D01*
X131093191Y-39619342D01*
X131036641Y-39636497D01*
X130984524Y-39664354D01*
X130938843Y-39701843D01*
X130930000Y-39712618D01*
X130930000Y-39624612D01*
X130976224Y-39593726D01*
X131073726Y-39496224D01*
X131080098Y-39486688D01*
X131093191Y-39490660D01*
X131152001Y-39496452D01*
X132462001Y-39496452D01*
X132520811Y-39490660D01*
X132577361Y-39473505D01*
X132629478Y-39445648D01*
X132675159Y-39408159D01*
X132712648Y-39362478D01*
X132740505Y-39310361D01*
X132757660Y-39253811D01*
X132763452Y-39195001D01*
X132763452Y-38665001D01*
X132757660Y-38606191D01*
X132740505Y-38549641D01*
X132712648Y-38497524D01*
X132675159Y-38451843D01*
X132629478Y-38414354D01*
X132577361Y-38386497D01*
X132520811Y-38369342D01*
X132462001Y-38363550D01*
X132207001Y-38363550D01*
X132207001Y-38246452D01*
X132462001Y-38246452D01*
X132520811Y-38240660D01*
X132577361Y-38223505D01*
X132629478Y-38195648D01*
X132675159Y-38158159D01*
X132712648Y-38112478D01*
X132740505Y-38060361D01*
X132757660Y-38003811D01*
X132763452Y-37945001D01*
X132763452Y-37415001D01*
X132757660Y-37356191D01*
X132740505Y-37299641D01*
X132712648Y-37247524D01*
X132675159Y-37201843D01*
X132629478Y-37164354D01*
X132577361Y-37136497D01*
X132520811Y-37119342D01*
X132462001Y-37113550D01*
X131152001Y-37113550D01*
X131093191Y-37119342D01*
X131036641Y-37136497D01*
X131016964Y-37147014D01*
X131006224Y-37136274D01*
X130891574Y-37059668D01*
X130764182Y-37006901D01*
X130628944Y-36980000D01*
X130491056Y-36980000D01*
X130355818Y-37006901D01*
X130228426Y-37059668D01*
X130191240Y-37084515D01*
X130190000Y-36700000D01*
X130185001Y-36695001D01*
X130750066Y-36695001D01*
X130757789Y-36773415D01*
X130780661Y-36848815D01*
X130817804Y-36918304D01*
X130867790Y-36979212D01*
X130928698Y-37029198D01*
X130998187Y-37066341D01*
X131073587Y-37089213D01*
X131152001Y-37096936D01*
X131657001Y-37095001D01*
X131757001Y-36995001D01*
X131757001Y-36480001D01*
X131857001Y-36480001D01*
X131857001Y-36995001D01*
X131957001Y-37095001D01*
X132462001Y-37096936D01*
X132540415Y-37089213D01*
X132615815Y-37066341D01*
X132685304Y-37029198D01*
X132746212Y-36979212D01*
X132796198Y-36918304D01*
X132833341Y-36848815D01*
X132856213Y-36773415D01*
X132863936Y-36695001D01*
X132862001Y-36580001D01*
X132762001Y-36480001D01*
X131857001Y-36480001D01*
X131757001Y-36480001D01*
X130852001Y-36480001D01*
X130752001Y-36580001D01*
X130750066Y-36695001D01*
X130185001Y-36695001D01*
X130090000Y-36600000D01*
X128590000Y-36600000D01*
X128590000Y-37600000D01*
X128690000Y-37700000D01*
X129790000Y-37701935D01*
X129860000Y-37695041D01*
X129860000Y-37748944D01*
X129886901Y-37884182D01*
X129939668Y-38011574D01*
X129973936Y-38062861D01*
X129957477Y-38049353D01*
X129905360Y-38021496D01*
X129848810Y-38004341D01*
X129790000Y-37998549D01*
X127290000Y-37998549D01*
X127231190Y-38004341D01*
X127174640Y-38021496D01*
X127122523Y-38049353D01*
X127076842Y-38086842D01*
X127039353Y-38132523D01*
X127011496Y-38184640D01*
X126994341Y-38241190D01*
X126988549Y-38300000D01*
X126988549Y-39800000D01*
X126994341Y-39858810D01*
X127011496Y-39915360D01*
X127039353Y-39967477D01*
X127076842Y-40013158D01*
X127122523Y-40050647D01*
X127174640Y-40078504D01*
X127231190Y-40095659D01*
X127290000Y-40101451D01*
X129790000Y-40101451D01*
X129848810Y-40095659D01*
X129905360Y-40078504D01*
X129957477Y-40050647D01*
X130003158Y-40013158D01*
X130040647Y-39967477D01*
X130068504Y-39915360D01*
X130085659Y-39858810D01*
X130091451Y-39800000D01*
X130091451Y-39598854D01*
X130130000Y-39624612D01*
X130130000Y-39635331D01*
X130130001Y-39635341D01*
X130130000Y-42074314D01*
X130091451Y-42035765D01*
X130091451Y-40800000D01*
X130085659Y-40741190D01*
X130068504Y-40684640D01*
X130040647Y-40632523D01*
X130003158Y-40586842D01*
X129957477Y-40549353D01*
X129905360Y-40521496D01*
X129848810Y-40504341D01*
X129790000Y-40498549D01*
X127290000Y-40498549D01*
X127231190Y-40504341D01*
X127174640Y-40521496D01*
X127122523Y-40549353D01*
X127076842Y-40586842D01*
X127039353Y-40632523D01*
X127011496Y-40684640D01*
X126994341Y-40741190D01*
X126988549Y-40800000D01*
X126988549Y-42300000D01*
X126994341Y-42358810D01*
X127006836Y-42400000D01*
X126825000Y-42400000D01*
X126825000Y-37300000D01*
X126888065Y-37300000D01*
X126895788Y-37378414D01*
X126918660Y-37453814D01*
X126955803Y-37523303D01*
X127005789Y-37584211D01*
X127066697Y-37634197D01*
X127136186Y-37671340D01*
X127211586Y-37694212D01*
X127290000Y-37701935D01*
X128390000Y-37700000D01*
X128490000Y-37600000D01*
X128490000Y-36600000D01*
X126990000Y-36600000D01*
X126890000Y-36700000D01*
X126888065Y-37300000D01*
X126825000Y-37300000D01*
X126825000Y-35800000D01*
X126888065Y-35800000D01*
X126890000Y-36400000D01*
X126990000Y-36500000D01*
X128490000Y-36500000D01*
X128490000Y-35500000D01*
X128590000Y-35500000D01*
X128590000Y-36500000D01*
X130090000Y-36500000D01*
X130190000Y-36400000D01*
X130190757Y-36165001D01*
X130750066Y-36165001D01*
X130752001Y-36280001D01*
X130852001Y-36380001D01*
X131757001Y-36380001D01*
X131757001Y-35865001D01*
X131857001Y-35865001D01*
X131857001Y-36380001D01*
X132762001Y-36380001D01*
X132862001Y-36280001D01*
X132863936Y-36165001D01*
X132856213Y-36086587D01*
X132833341Y-36011187D01*
X132796198Y-35941698D01*
X132746212Y-35880790D01*
X132685304Y-35830804D01*
X132615815Y-35793661D01*
X132540415Y-35770789D01*
X132462001Y-35763066D01*
X131957001Y-35765001D01*
X131857001Y-35865001D01*
X131757001Y-35865001D01*
X131657001Y-35765001D01*
X131152001Y-35763066D01*
X131073587Y-35770789D01*
X130998187Y-35793661D01*
X130928698Y-35830804D01*
X130867790Y-35880790D01*
X130817804Y-35941698D01*
X130780661Y-36011187D01*
X130757789Y-36086587D01*
X130750066Y-36165001D01*
X130190757Y-36165001D01*
X130191935Y-35800000D01*
X130184212Y-35721586D01*
X130161340Y-35646186D01*
X130124197Y-35576697D01*
X130074211Y-35515789D01*
X130013303Y-35465803D01*
X129943814Y-35428660D01*
X129868414Y-35405788D01*
X129790000Y-35398065D01*
X128690000Y-35400000D01*
X128590000Y-35500000D01*
X128490000Y-35500000D01*
X128390000Y-35400000D01*
X127290000Y-35398065D01*
X127211586Y-35405788D01*
X127136186Y-35428660D01*
X127066697Y-35465803D01*
X127005789Y-35515789D01*
X126955803Y-35576697D01*
X126918660Y-35646186D01*
X126895788Y-35721586D01*
X126888065Y-35800000D01*
X126825000Y-35800000D01*
X126825000Y-34825000D01*
X133566590Y-34825000D01*
X133526901Y-34920818D01*
G37*
X133526901Y-34920818D02*
X133500000Y-35056056D01*
X133500000Y-35193944D01*
X133526901Y-35329182D01*
X133579668Y-35456574D01*
X133656274Y-35571224D01*
X133753776Y-35668726D01*
X133807002Y-35704290D01*
X133807001Y-35863550D01*
X133552001Y-35863550D01*
X133493191Y-35869342D01*
X133436641Y-35886497D01*
X133384524Y-35914354D01*
X133338843Y-35951843D01*
X133301354Y-35997524D01*
X133273497Y-36049641D01*
X133256342Y-36106191D01*
X133250550Y-36165001D01*
X133250550Y-36695001D01*
X133256342Y-36753811D01*
X133273497Y-36810361D01*
X133301354Y-36862478D01*
X133338843Y-36908159D01*
X133384524Y-36945648D01*
X133436641Y-36973505D01*
X133493191Y-36990660D01*
X133552001Y-36996452D01*
X133870263Y-36996452D01*
X133835662Y-37061187D01*
X133819778Y-37113550D01*
X133552001Y-37113550D01*
X133493191Y-37119342D01*
X133436641Y-37136497D01*
X133384524Y-37164354D01*
X133338843Y-37201843D01*
X133301354Y-37247524D01*
X133273497Y-37299641D01*
X133256342Y-37356191D01*
X133250550Y-37415001D01*
X133250550Y-37945001D01*
X133256342Y-38003811D01*
X133273497Y-38060361D01*
X133301354Y-38112478D01*
X133338843Y-38158159D01*
X133384524Y-38195648D01*
X133436641Y-38223505D01*
X133493191Y-38240660D01*
X133552001Y-38246452D01*
X134862001Y-38246452D01*
X134920811Y-38240660D01*
X134977361Y-38223505D01*
X135029478Y-38195648D01*
X135075159Y-38158159D01*
X135112648Y-38112478D01*
X135140505Y-38060361D01*
X135157660Y-38003811D01*
X135163452Y-37945001D01*
X135163452Y-37415001D01*
X135161482Y-37395002D01*
X135179684Y-37395002D01*
X135199330Y-37396937D01*
X135218976Y-37395002D01*
X135218977Y-37395002D01*
X135277744Y-37389214D01*
X135353144Y-37366342D01*
X135422633Y-37329199D01*
X135483541Y-37279213D01*
X135496067Y-37263950D01*
X135808367Y-36951651D01*
X135823624Y-36939130D01*
X135840716Y-36918304D01*
X135873610Y-36878222D01*
X135886214Y-36854641D01*
X135910753Y-36808733D01*
X135933625Y-36733333D01*
X135939413Y-36674566D01*
X135939413Y-36674565D01*
X135940543Y-36663090D01*
X135985637Y-36632960D01*
X136054299Y-36564299D01*
X136135001Y-36645001D01*
X136035001Y-36745001D01*
X136042787Y-36807865D01*
X136067465Y-36882694D01*
X136106267Y-36951271D01*
X136133550Y-36982932D01*
X136133550Y-37120001D01*
X136139342Y-37178811D01*
X136156497Y-37235361D01*
X136161650Y-37245001D01*
X136156497Y-37254641D01*
X136139342Y-37311191D01*
X136133550Y-37370001D01*
X136133550Y-37520001D01*
X136139342Y-37578811D01*
X136156497Y-37635361D01*
X136161650Y-37645001D01*
X136156497Y-37654641D01*
X136139342Y-37711191D01*
X136133550Y-37770001D01*
X136133550Y-37920001D01*
X136139342Y-37978811D01*
X136156497Y-38035361D01*
X136161650Y-38045001D01*
X136156497Y-38054641D01*
X136139342Y-38111191D01*
X136133550Y-38170001D01*
X136133550Y-38320001D01*
X136139342Y-38378811D01*
X136156497Y-38435361D01*
X136161650Y-38445001D01*
X136156497Y-38454641D01*
X136151398Y-38471448D01*
X136066224Y-38386274D01*
X135951574Y-38309668D01*
X135824182Y-38256901D01*
X135688944Y-38230000D01*
X135551056Y-38230000D01*
X135415818Y-38256901D01*
X135288426Y-38309668D01*
X135173776Y-38386274D01*
X135090055Y-38469995D01*
X135075159Y-38451843D01*
X135029478Y-38414354D01*
X134977361Y-38386497D01*
X134920811Y-38369342D01*
X134862001Y-38363550D01*
X133552001Y-38363550D01*
X133493191Y-38369342D01*
X133436641Y-38386497D01*
X133384524Y-38414354D01*
X133338843Y-38451843D01*
X133301354Y-38497524D01*
X133273497Y-38549641D01*
X133256342Y-38606191D01*
X133250550Y-38665001D01*
X133250550Y-39195001D01*
X133256342Y-39253811D01*
X133273497Y-39310361D01*
X133301354Y-39362478D01*
X133338843Y-39408159D01*
X133384524Y-39445648D01*
X133436641Y-39473505D01*
X133493191Y-39490660D01*
X133552001Y-39496452D01*
X134862001Y-39496452D01*
X134920811Y-39490660D01*
X134977361Y-39473505D01*
X135029478Y-39445648D01*
X135075159Y-39408159D01*
X135090056Y-39390006D01*
X135173776Y-39473726D01*
X135285571Y-39548424D01*
X135258426Y-39559668D01*
X135143776Y-39636274D01*
X135076533Y-39703517D01*
X135075159Y-39701843D01*
X135029478Y-39664354D01*
X134977361Y-39636497D01*
X134920811Y-39619342D01*
X134862001Y-39613550D01*
X133552001Y-39613550D01*
X133493191Y-39619342D01*
X133436641Y-39636497D01*
X133384524Y-39664354D01*
X133338843Y-39701843D01*
X133301354Y-39747524D01*
X133273497Y-39799641D01*
X133256342Y-39856191D01*
X133250550Y-39915001D01*
X133250550Y-40445001D01*
X133256342Y-40503811D01*
X133273497Y-40560361D01*
X133301354Y-40612478D01*
X133338843Y-40658159D01*
X133384524Y-40695648D01*
X133436641Y-40723505D01*
X133493191Y-40740660D01*
X133552001Y-40746452D01*
X134862001Y-40746452D01*
X134920811Y-40740660D01*
X134977361Y-40723505D01*
X135029478Y-40695648D01*
X135075159Y-40658159D01*
X135076534Y-40656484D01*
X135143776Y-40723726D01*
X135258426Y-40800332D01*
X135385818Y-40853099D01*
X135521056Y-40880000D01*
X135658944Y-40880000D01*
X135794182Y-40853099D01*
X135919218Y-40801308D01*
X135920000Y-40870000D01*
X136020000Y-40970000D01*
X136565000Y-40970000D01*
X136565000Y-40400000D01*
X136465000Y-40300000D01*
X136320000Y-40298065D01*
X136279434Y-40302060D01*
X136290000Y-40248944D01*
X136290000Y-40111056D01*
X136263099Y-39975818D01*
X136210332Y-39848426D01*
X136133726Y-39733776D01*
X136036224Y-39636274D01*
X135924429Y-39561576D01*
X135951574Y-39550332D01*
X136066224Y-39473726D01*
X136163726Y-39376224D01*
X136240332Y-39261574D01*
X136293099Y-39134182D01*
X136320000Y-38998944D01*
X136320000Y-38998614D01*
X136376191Y-39015660D01*
X136435001Y-39021452D01*
X136923550Y-39021452D01*
X136923550Y-39510001D01*
X136929342Y-39568811D01*
X136946497Y-39625361D01*
X136974354Y-39677478D01*
X137011843Y-39723159D01*
X137057524Y-39760648D01*
X137109641Y-39788505D01*
X137166191Y-39805660D01*
X137225001Y-39811452D01*
X137362070Y-39811452D01*
X137393731Y-39838735D01*
X137462308Y-39877537D01*
X137537137Y-39902215D01*
X137600001Y-39910001D01*
X137649999Y-39860003D01*
X137649999Y-39910001D01*
X137700002Y-39910001D01*
X137700002Y-40224163D01*
X137698066Y-40243819D01*
X137705789Y-40322232D01*
X137728662Y-40397633D01*
X137729152Y-40398549D01*
X137437500Y-40398549D01*
X137349914Y-40407175D01*
X137265694Y-40432723D01*
X137225667Y-40454118D01*
X137194211Y-40415789D01*
X137133303Y-40365803D01*
X137063814Y-40328660D01*
X136988414Y-40305788D01*
X136910000Y-40298065D01*
X136765000Y-40300000D01*
X136665000Y-40400000D01*
X136665000Y-40970000D01*
X136685000Y-40970000D01*
X136685000Y-41070000D01*
X136665000Y-41070000D01*
X136665000Y-41090000D01*
X136565000Y-41090000D01*
X136565000Y-41070000D01*
X136020000Y-41070000D01*
X135920000Y-41170000D01*
X135918065Y-41340000D01*
X135925788Y-41418414D01*
X135948660Y-41493814D01*
X135985803Y-41563303D01*
X136035789Y-41624211D01*
X136052593Y-41638001D01*
X136031788Y-41706586D01*
X136024065Y-41785000D01*
X136026000Y-42100000D01*
X136126000Y-42200000D01*
X136881000Y-42200000D01*
X136881000Y-42180000D01*
X136981000Y-42180000D01*
X136981000Y-42200000D01*
X137001000Y-42200000D01*
X137001000Y-42300000D01*
X136981000Y-42300000D01*
X136981000Y-42320000D01*
X136881000Y-42320000D01*
X136881000Y-42300000D01*
X136126000Y-42300000D01*
X136026000Y-42400000D01*
X135595298Y-42400000D01*
X135578504Y-42344640D01*
X135554644Y-42300000D01*
X135578504Y-42255360D01*
X135595659Y-42198810D01*
X135601451Y-42140000D01*
X135601451Y-41600000D01*
X135595659Y-41541190D01*
X135578504Y-41484640D01*
X135550647Y-41432523D01*
X135513158Y-41386842D01*
X135467477Y-41349353D01*
X135415360Y-41321496D01*
X135358810Y-41304341D01*
X135300000Y-41298549D01*
X134964234Y-41298549D01*
X134841737Y-41176052D01*
X134829211Y-41160789D01*
X134768303Y-41110803D01*
X134698814Y-41073660D01*
X134623414Y-41050788D01*
X134564647Y-41045000D01*
X134564646Y-41045000D01*
X134545000Y-41043065D01*
X134525354Y-41045000D01*
X133594647Y-41045000D01*
X133575000Y-41043065D01*
X133555353Y-41045000D01*
X133496586Y-41050788D01*
X133421186Y-41073660D01*
X133351697Y-41110803D01*
X133306049Y-41148265D01*
X133306047Y-41148267D01*
X133290789Y-41160789D01*
X133278267Y-41176047D01*
X133145765Y-41308549D01*
X133030000Y-41308549D01*
X132971190Y-41314341D01*
X132930000Y-41326836D01*
X132888810Y-41314341D01*
X132830000Y-41308549D01*
X132593204Y-41308549D01*
X132553303Y-41275803D01*
X132483814Y-41238660D01*
X132408414Y-41215788D01*
X132330000Y-41208065D01*
X132330000Y-41210000D01*
X132230000Y-41310000D01*
X132230000Y-41595267D01*
X132228549Y-41610000D01*
X132228549Y-41980000D01*
X132130000Y-41980000D01*
X132130000Y-41960000D01*
X132110000Y-41960000D01*
X132110000Y-41860000D01*
X132130000Y-41860000D01*
X132130000Y-41310000D01*
X132030000Y-41210000D01*
X132030000Y-41208065D01*
X131951586Y-41215788D01*
X131876186Y-41238660D01*
X131806697Y-41275803D01*
X131745789Y-41325789D01*
X131695803Y-41386697D01*
X131658660Y-41456186D01*
X131635788Y-41531586D01*
X131628065Y-41610000D01*
X131628694Y-41658727D01*
X131530000Y-41660000D01*
X131430000Y-41760000D01*
X131430000Y-42160000D01*
X131450000Y-42160000D01*
X131450000Y-42258549D01*
X131310000Y-42258549D01*
X131310000Y-42160000D01*
X131330000Y-42160000D01*
X131330000Y-41760000D01*
X131230000Y-41660000D01*
X131080000Y-41658065D01*
X131001586Y-41665788D01*
X130930000Y-41687503D01*
X130930000Y-40647384D01*
X130938843Y-40658159D01*
X130984524Y-40695648D01*
X131036641Y-40723505D01*
X131093191Y-40740660D01*
X131152001Y-40746452D01*
X132462001Y-40746452D01*
X132520811Y-40740660D01*
X132577361Y-40723505D01*
X132629478Y-40695648D01*
X132675159Y-40658159D01*
X132712648Y-40612478D01*
X132740505Y-40560361D01*
X132757660Y-40503811D01*
X132763452Y-40445001D01*
X132763452Y-39915001D01*
X132757660Y-39856191D01*
X132740505Y-39799641D01*
X132712648Y-39747524D01*
X132675159Y-39701843D01*
X132629478Y-39664354D01*
X132577361Y-39636497D01*
X132520811Y-39619342D01*
X132462001Y-39613550D01*
X131152001Y-39613550D01*
X131093191Y-39619342D01*
X131036641Y-39636497D01*
X130984524Y-39664354D01*
X130938843Y-39701843D01*
X130930000Y-39712618D01*
X130930000Y-39624612D01*
X130976224Y-39593726D01*
X131073726Y-39496224D01*
X131080098Y-39486688D01*
X131093191Y-39490660D01*
X131152001Y-39496452D01*
X132462001Y-39496452D01*
X132520811Y-39490660D01*
X132577361Y-39473505D01*
X132629478Y-39445648D01*
X132675159Y-39408159D01*
X132712648Y-39362478D01*
X132740505Y-39310361D01*
X132757660Y-39253811D01*
X132763452Y-39195001D01*
X132763452Y-38665001D01*
X132757660Y-38606191D01*
X132740505Y-38549641D01*
X132712648Y-38497524D01*
X132675159Y-38451843D01*
X132629478Y-38414354D01*
X132577361Y-38386497D01*
X132520811Y-38369342D01*
X132462001Y-38363550D01*
X132207001Y-38363550D01*
X132207001Y-38246452D01*
X132462001Y-38246452D01*
X132520811Y-38240660D01*
X132577361Y-38223505D01*
X132629478Y-38195648D01*
X132675159Y-38158159D01*
X132712648Y-38112478D01*
X132740505Y-38060361D01*
X132757660Y-38003811D01*
X132763452Y-37945001D01*
X132763452Y-37415001D01*
X132757660Y-37356191D01*
X132740505Y-37299641D01*
X132712648Y-37247524D01*
X132675159Y-37201843D01*
X132629478Y-37164354D01*
X132577361Y-37136497D01*
X132520811Y-37119342D01*
X132462001Y-37113550D01*
X131152001Y-37113550D01*
X131093191Y-37119342D01*
X131036641Y-37136497D01*
X131016964Y-37147014D01*
X131006224Y-37136274D01*
X130891574Y-37059668D01*
X130764182Y-37006901D01*
X130628944Y-36980000D01*
X130491056Y-36980000D01*
X130355818Y-37006901D01*
X130228426Y-37059668D01*
X130191240Y-37084515D01*
X130190000Y-36700000D01*
X130185001Y-36695001D01*
X130750066Y-36695001D01*
X130757789Y-36773415D01*
X130780661Y-36848815D01*
X130817804Y-36918304D01*
X130867790Y-36979212D01*
X130928698Y-37029198D01*
X130998187Y-37066341D01*
X131073587Y-37089213D01*
X131152001Y-37096936D01*
X131657001Y-37095001D01*
X131757001Y-36995001D01*
X131757001Y-36480001D01*
X131857001Y-36480001D01*
X131857001Y-36995001D01*
X131957001Y-37095001D01*
X132462001Y-37096936D01*
X132540415Y-37089213D01*
X132615815Y-37066341D01*
X132685304Y-37029198D01*
X132746212Y-36979212D01*
X132796198Y-36918304D01*
X132833341Y-36848815D01*
X132856213Y-36773415D01*
X132863936Y-36695001D01*
X132862001Y-36580001D01*
X132762001Y-36480001D01*
X131857001Y-36480001D01*
X131757001Y-36480001D01*
X130852001Y-36480001D01*
X130752001Y-36580001D01*
X130750066Y-36695001D01*
X130185001Y-36695001D01*
X130090000Y-36600000D01*
X128590000Y-36600000D01*
X128590000Y-37600000D01*
X128690000Y-37700000D01*
X129790000Y-37701935D01*
X129860000Y-37695041D01*
X129860000Y-37748944D01*
X129886901Y-37884182D01*
X129939668Y-38011574D01*
X129973936Y-38062861D01*
X129957477Y-38049353D01*
X129905360Y-38021496D01*
X129848810Y-38004341D01*
X129790000Y-37998549D01*
X127290000Y-37998549D01*
X127231190Y-38004341D01*
X127174640Y-38021496D01*
X127122523Y-38049353D01*
X127076842Y-38086842D01*
X127039353Y-38132523D01*
X127011496Y-38184640D01*
X126994341Y-38241190D01*
X126988549Y-38300000D01*
X126988549Y-39800000D01*
X126994341Y-39858810D01*
X127011496Y-39915360D01*
X127039353Y-39967477D01*
X127076842Y-40013158D01*
X127122523Y-40050647D01*
X127174640Y-40078504D01*
X127231190Y-40095659D01*
X127290000Y-40101451D01*
X129790000Y-40101451D01*
X129848810Y-40095659D01*
X129905360Y-40078504D01*
X129957477Y-40050647D01*
X130003158Y-40013158D01*
X130040647Y-39967477D01*
X130068504Y-39915360D01*
X130085659Y-39858810D01*
X130091451Y-39800000D01*
X130091451Y-39598854D01*
X130130000Y-39624612D01*
X130130000Y-39635331D01*
X130130001Y-39635341D01*
X130130000Y-42074314D01*
X130091451Y-42035765D01*
X130091451Y-40800000D01*
X130085659Y-40741190D01*
X130068504Y-40684640D01*
X130040647Y-40632523D01*
X130003158Y-40586842D01*
X129957477Y-40549353D01*
X129905360Y-40521496D01*
X129848810Y-40504341D01*
X129790000Y-40498549D01*
X127290000Y-40498549D01*
X127231190Y-40504341D01*
X127174640Y-40521496D01*
X127122523Y-40549353D01*
X127076842Y-40586842D01*
X127039353Y-40632523D01*
X127011496Y-40684640D01*
X126994341Y-40741190D01*
X126988549Y-40800000D01*
X126988549Y-42300000D01*
X126994341Y-42358810D01*
X127006836Y-42400000D01*
X126825000Y-42400000D01*
X126825000Y-37300000D01*
X126888065Y-37300000D01*
X126895788Y-37378414D01*
X126918660Y-37453814D01*
X126955803Y-37523303D01*
X127005789Y-37584211D01*
X127066697Y-37634197D01*
X127136186Y-37671340D01*
X127211586Y-37694212D01*
X127290000Y-37701935D01*
X128390000Y-37700000D01*
X128490000Y-37600000D01*
X128490000Y-36600000D01*
X126990000Y-36600000D01*
X126890000Y-36700000D01*
X126888065Y-37300000D01*
X126825000Y-37300000D01*
X126825000Y-35800000D01*
X126888065Y-35800000D01*
X126890000Y-36400000D01*
X126990000Y-36500000D01*
X128490000Y-36500000D01*
X128490000Y-35500000D01*
X128590000Y-35500000D01*
X128590000Y-36500000D01*
X130090000Y-36500000D01*
X130190000Y-36400000D01*
X130190757Y-36165001D01*
X130750066Y-36165001D01*
X130752001Y-36280001D01*
X130852001Y-36380001D01*
X131757001Y-36380001D01*
X131757001Y-35865001D01*
X131857001Y-35865001D01*
X131857001Y-36380001D01*
X132762001Y-36380001D01*
X132862001Y-36280001D01*
X132863936Y-36165001D01*
X132856213Y-36086587D01*
X132833341Y-36011187D01*
X132796198Y-35941698D01*
X132746212Y-35880790D01*
X132685304Y-35830804D01*
X132615815Y-35793661D01*
X132540415Y-35770789D01*
X132462001Y-35763066D01*
X131957001Y-35765001D01*
X131857001Y-35865001D01*
X131757001Y-35865001D01*
X131657001Y-35765001D01*
X131152001Y-35763066D01*
X131073587Y-35770789D01*
X130998187Y-35793661D01*
X130928698Y-35830804D01*
X130867790Y-35880790D01*
X130817804Y-35941698D01*
X130780661Y-36011187D01*
X130757789Y-36086587D01*
X130750066Y-36165001D01*
X130190757Y-36165001D01*
X130191935Y-35800000D01*
X130184212Y-35721586D01*
X130161340Y-35646186D01*
X130124197Y-35576697D01*
X130074211Y-35515789D01*
X130013303Y-35465803D01*
X129943814Y-35428660D01*
X129868414Y-35405788D01*
X129790000Y-35398065D01*
X128690000Y-35400000D01*
X128590000Y-35500000D01*
X128490000Y-35500000D01*
X128390000Y-35400000D01*
X127290000Y-35398065D01*
X127211586Y-35405788D01*
X127136186Y-35428660D01*
X127066697Y-35465803D01*
X127005789Y-35515789D01*
X126955803Y-35576697D01*
X126918660Y-35646186D01*
X126895788Y-35721586D01*
X126888065Y-35800000D01*
X126825000Y-35800000D01*
X126825000Y-34825000D01*
X133566590Y-34825000D01*
X133526901Y-34920818D01*
G36*
X137700001Y-39170355D02*
G01*
X137700001Y-39240001D01*
X137676452Y-39240001D01*
X137676452Y-39140001D01*
X137702991Y-39140001D01*
X137700001Y-39170355D01*
G37*
X137700001Y-39170355D02*
X137700001Y-39240001D01*
X137676452Y-39240001D01*
X137676452Y-39140001D01*
X137702991Y-39140001D01*
X137700001Y-39170355D01*
G36*
X136805001Y-36668550D02*
G01*
X136705001Y-36668550D01*
X136705001Y-36575001D01*
X136805001Y-36575001D01*
X136805001Y-36668550D01*
G37*
X136805001Y-36668550D02*
X136705001Y-36668550D01*
X136705001Y-36575001D01*
X136805001Y-36575001D01*
X136805001Y-36668550D01*
G36*
X144925001Y-47675000D02*
G01*
X129931748Y-47675000D01*
X129943814Y-47671340D01*
X130013303Y-47634197D01*
X130074211Y-47584211D01*
X130124197Y-47523303D01*
X130161340Y-47453814D01*
X130184212Y-47378414D01*
X130191935Y-47300000D01*
X130191774Y-47250000D01*
X141548065Y-47250000D01*
X141555788Y-47328414D01*
X141578660Y-47403814D01*
X141615803Y-47473303D01*
X141665789Y-47534211D01*
X141726697Y-47584197D01*
X141796186Y-47621340D01*
X141871586Y-47644212D01*
X141950000Y-47651935D01*
X143050000Y-47650000D01*
X143150000Y-47550000D01*
X143150000Y-46550000D01*
X143250000Y-46550000D01*
X143250000Y-47550000D01*
X143350000Y-47650000D01*
X144450000Y-47651935D01*
X144528414Y-47644212D01*
X144603814Y-47621340D01*
X144673303Y-47584197D01*
X144734211Y-47534211D01*
X144784197Y-47473303D01*
X144821340Y-47403814D01*
X144844212Y-47328414D01*
X144851935Y-47250000D01*
X144850000Y-46650000D01*
X144750000Y-46550000D01*
X143250000Y-46550000D01*
X143150000Y-46550000D01*
X141650000Y-46550000D01*
X141550000Y-46650000D01*
X141548065Y-47250000D01*
X130191774Y-47250000D01*
X130190000Y-46700000D01*
X130090000Y-46600000D01*
X128590000Y-46600000D01*
X128590000Y-46620000D01*
X128490000Y-46620000D01*
X128490000Y-46600000D01*
X126990000Y-46600000D01*
X126890000Y-46700000D01*
X126888065Y-47300000D01*
X126895788Y-47378414D01*
X126918660Y-47453814D01*
X126955803Y-47523303D01*
X127005789Y-47584211D01*
X127066697Y-47634197D01*
X127136186Y-47671340D01*
X127148252Y-47675000D01*
X126825000Y-47675000D01*
X126825000Y-45800000D01*
X126888065Y-45800000D01*
X126890000Y-46400000D01*
X126990000Y-46500000D01*
X128490000Y-46500000D01*
X128490000Y-45500000D01*
X128590000Y-45500000D01*
X128590000Y-46500000D01*
X130090000Y-46500000D01*
X130190000Y-46400000D01*
X130191935Y-45800000D01*
X130184212Y-45721586D01*
X130161340Y-45646186D01*
X130124197Y-45576697D01*
X130074211Y-45515789D01*
X130013303Y-45465803D01*
X129943814Y-45428660D01*
X129868414Y-45405788D01*
X129790000Y-45398065D01*
X128690000Y-45400000D01*
X128590000Y-45500000D01*
X128490000Y-45500000D01*
X128390000Y-45400000D01*
X127290000Y-45398065D01*
X127211586Y-45405788D01*
X127136186Y-45428660D01*
X127066697Y-45465803D01*
X127005789Y-45515789D01*
X126955803Y-45576697D01*
X126918660Y-45646186D01*
X126895788Y-45721586D01*
X126888065Y-45800000D01*
X126825000Y-45800000D01*
X126825000Y-43100000D01*
X127066044Y-43100000D01*
X127039353Y-43132523D01*
X127011496Y-43184640D01*
X126994341Y-43241190D01*
X126988549Y-43300000D01*
X126988549Y-44800000D01*
X126994341Y-44858810D01*
X127011496Y-44915360D01*
X127039353Y-44967477D01*
X127076842Y-45013158D01*
X127122523Y-45050647D01*
X127174640Y-45078504D01*
X127231190Y-45095659D01*
X127290000Y-45101451D01*
X129790000Y-45101451D01*
X129848810Y-45095659D01*
X129905360Y-45078504D01*
X129957477Y-45050647D01*
X130003158Y-45013158D01*
X130040647Y-44967477D01*
X130068504Y-44915360D01*
X130085659Y-44858810D01*
X130091451Y-44800000D01*
X130091451Y-44777605D01*
X130095009Y-44779982D01*
X130222401Y-44832749D01*
X130357639Y-44859650D01*
X130495527Y-44859650D01*
X130630765Y-44832749D01*
X130758157Y-44779982D01*
X130872807Y-44703376D01*
X130947070Y-44629113D01*
X130964640Y-44638504D01*
X130980000Y-44643164D01*
X130980001Y-44988706D01*
X130923776Y-45026274D01*
X130826274Y-45123776D01*
X130749668Y-45238426D01*
X130696901Y-45365818D01*
X130670000Y-45501056D01*
X130670000Y-45638944D01*
X130696901Y-45774182D01*
X130749668Y-45901574D01*
X130826274Y-46016224D01*
X130923776Y-46113726D01*
X131038426Y-46190332D01*
X131165818Y-46243099D01*
X131301056Y-46270000D01*
X131438944Y-46270000D01*
X131574182Y-46243099D01*
X131701574Y-46190332D01*
X131816224Y-46113726D01*
X131913726Y-46016224D01*
X131990332Y-45901574D01*
X132043099Y-45774182D01*
X132047909Y-45750000D01*
X141548065Y-45750000D01*
X141550000Y-46350000D01*
X141650000Y-46450000D01*
X143150000Y-46450000D01*
X143150000Y-45450000D01*
X143250000Y-45450000D01*
X143250000Y-46450000D01*
X144750000Y-46450000D01*
X144850000Y-46350000D01*
X144851935Y-45750000D01*
X144844212Y-45671586D01*
X144821340Y-45596186D01*
X144784197Y-45526697D01*
X144734211Y-45465789D01*
X144673303Y-45415803D01*
X144603814Y-45378660D01*
X144528414Y-45355788D01*
X144450000Y-45348065D01*
X143350000Y-45350000D01*
X143250000Y-45450000D01*
X143150000Y-45450000D01*
X143050000Y-45350000D01*
X141950000Y-45348065D01*
X141871586Y-45355788D01*
X141796186Y-45378660D01*
X141726697Y-45415803D01*
X141665789Y-45465789D01*
X141615803Y-45526697D01*
X141578660Y-45596186D01*
X141555788Y-45671586D01*
X141548065Y-45750000D01*
X132047909Y-45750000D01*
X132070000Y-45638944D01*
X132070000Y-45501056D01*
X132043099Y-45365818D01*
X131990332Y-45238426D01*
X131913726Y-45123776D01*
X131816224Y-45026274D01*
X131780000Y-45002070D01*
X131780000Y-44978265D01*
X131816842Y-45023158D01*
X131862523Y-45060647D01*
X131914640Y-45088504D01*
X131971190Y-45105659D01*
X132030000Y-45111451D01*
X132330000Y-45111451D01*
X132388810Y-45105659D01*
X132430000Y-45093164D01*
X132471190Y-45105659D01*
X132530000Y-45111451D01*
X132766796Y-45111451D01*
X132806697Y-45144197D01*
X132876186Y-45181340D01*
X132951586Y-45204212D01*
X133030000Y-45211935D01*
X133030000Y-45210000D01*
X133130000Y-45110000D01*
X133130000Y-44824733D01*
X133131451Y-44810000D01*
X133131451Y-44210000D01*
X133130000Y-44195267D01*
X133130000Y-43910000D01*
X133030000Y-43810000D01*
X133030000Y-43808065D01*
X132951586Y-43815788D01*
X132876186Y-43838660D01*
X132806697Y-43875803D01*
X132766796Y-43908549D01*
X132530000Y-43908549D01*
X132471190Y-43914341D01*
X132430000Y-43926836D01*
X132388810Y-43914341D01*
X132330000Y-43908549D01*
X132030000Y-43908549D01*
X131976147Y-43913853D01*
X131981451Y-43860000D01*
X131981451Y-43560000D01*
X131975659Y-43501190D01*
X131963164Y-43460000D01*
X131975659Y-43418810D01*
X131981451Y-43360000D01*
X131981451Y-43100000D01*
X133320000Y-43100000D01*
X133380000Y-43160000D01*
X133415028Y-43160000D01*
X133456697Y-43194197D01*
X133486262Y-43210000D01*
X133456697Y-43225803D01*
X133415028Y-43260000D01*
X133380000Y-43260000D01*
X133280000Y-43360000D01*
X133278065Y-43360000D01*
X133285788Y-43438414D01*
X133292336Y-43460000D01*
X133285788Y-43481586D01*
X133278065Y-43560000D01*
X133280000Y-43560000D01*
X133380000Y-43660000D01*
X133415028Y-43660000D01*
X133456697Y-43694197D01*
X133486262Y-43710000D01*
X133456697Y-43725803D01*
X133415028Y-43760000D01*
X133380000Y-43760000D01*
X133331762Y-43808238D01*
X133330000Y-43808065D01*
X133330000Y-43810000D01*
X133280000Y-43860000D01*
X133278065Y-43860000D01*
X133278238Y-43861762D01*
X133230000Y-43910000D01*
X133230000Y-44460000D01*
X133250000Y-44460000D01*
X133250000Y-44560000D01*
X133230000Y-44560000D01*
X133230000Y-45110000D01*
X133330000Y-45210000D01*
X133330000Y-45211935D01*
X133408414Y-45204212D01*
X133483814Y-45181340D01*
X133553303Y-45144197D01*
X133614211Y-45094211D01*
X133664197Y-45033303D01*
X133701340Y-44963814D01*
X133724212Y-44888414D01*
X133731935Y-44810000D01*
X133731306Y-44761273D01*
X133830000Y-44760000D01*
X133930000Y-44660000D01*
X133930000Y-44260000D01*
X133910000Y-44260000D01*
X133910000Y-44180000D01*
X133930000Y-44160000D01*
X133930000Y-43760000D01*
X133880000Y-43710000D01*
X133930000Y-43660000D01*
X133930000Y-43260000D01*
X133880000Y-43210000D01*
X133930000Y-43160000D01*
X133930000Y-43140000D01*
X134030000Y-43140000D01*
X134030000Y-43160000D01*
X134050000Y-43180000D01*
X134050000Y-43240000D01*
X134030000Y-43260000D01*
X134030000Y-43660000D01*
X134080000Y-43710000D01*
X134030000Y-43760000D01*
X134030000Y-44160000D01*
X134130000Y-44260000D01*
X134030000Y-44260000D01*
X134030000Y-44660000D01*
X134130000Y-44760000D01*
X134280000Y-44761935D01*
X134358414Y-44754212D01*
X134433814Y-44731340D01*
X134503303Y-44694197D01*
X134564211Y-44644211D01*
X134614197Y-44583303D01*
X134651340Y-44513814D01*
X134674212Y-44438414D01*
X134681935Y-44360000D01*
X134680000Y-44360000D01*
X134580000Y-44260000D01*
X134299647Y-44260000D01*
X134358414Y-44254212D01*
X134433814Y-44231340D01*
X134503303Y-44194197D01*
X134544972Y-44160000D01*
X134580000Y-44160000D01*
X134680000Y-44060000D01*
X134681935Y-44060000D01*
X134674212Y-43981586D01*
X134667664Y-43960000D01*
X134674212Y-43938414D01*
X134681935Y-43860000D01*
X134680000Y-43860000D01*
X134580000Y-43760000D01*
X134544972Y-43760000D01*
X134503303Y-43725803D01*
X134473738Y-43710000D01*
X134503303Y-43694197D01*
X134544972Y-43660000D01*
X134580000Y-43660000D01*
X134680000Y-43560000D01*
X134681935Y-43560000D01*
X134674212Y-43481586D01*
X134667664Y-43460000D01*
X134674212Y-43438414D01*
X134678018Y-43399770D01*
X134700000Y-43401935D01*
X134850000Y-43400000D01*
X134950000Y-43300000D01*
X134950000Y-43100000D01*
X135050000Y-43100000D01*
X135050000Y-43300000D01*
X135150000Y-43400000D01*
X135300000Y-43401935D01*
X135378414Y-43394212D01*
X135453814Y-43371340D01*
X135523303Y-43334197D01*
X135584211Y-43284211D01*
X135634197Y-43223303D01*
X135671340Y-43153814D01*
X135687664Y-43100000D01*
X136059321Y-43100000D01*
X136051496Y-43114640D01*
X136034341Y-43171190D01*
X136028549Y-43230000D01*
X136028549Y-43830000D01*
X136034341Y-43888810D01*
X136051496Y-43945360D01*
X136079353Y-43997477D01*
X136116842Y-44043158D01*
X136162523Y-44080647D01*
X136198730Y-44100000D01*
X136162523Y-44119353D01*
X136116842Y-44156842D01*
X136079353Y-44202523D01*
X136051496Y-44254640D01*
X136034341Y-44311190D01*
X136028549Y-44370000D01*
X136028549Y-44970000D01*
X136034341Y-45028810D01*
X136051496Y-45085360D01*
X136079353Y-45137477D01*
X136116842Y-45183158D01*
X136162523Y-45220647D01*
X136214640Y-45248504D01*
X136271190Y-45265659D01*
X136330000Y-45271451D01*
X136870000Y-45271451D01*
X136920710Y-45266457D01*
X136966697Y-45304197D01*
X137036186Y-45341340D01*
X137111586Y-45364212D01*
X137190000Y-45371935D01*
X137310000Y-45370000D01*
X137410000Y-45270000D01*
X137410000Y-44720000D01*
X137510000Y-44720000D01*
X137510000Y-45270000D01*
X137610000Y-45370000D01*
X137730000Y-45371935D01*
X137808414Y-45364212D01*
X137883814Y-45341340D01*
X137953303Y-45304197D01*
X138014211Y-45254211D01*
X138064197Y-45193303D01*
X138101340Y-45123814D01*
X138124212Y-45048414D01*
X138131935Y-44970000D01*
X138130000Y-44820000D01*
X138030000Y-44720000D01*
X137510000Y-44720000D01*
X137410000Y-44720000D01*
X137390000Y-44720000D01*
X137390000Y-44620000D01*
X137410000Y-44620000D01*
X137410000Y-43580000D01*
X137510000Y-43580000D01*
X137510000Y-44620000D01*
X138030000Y-44620000D01*
X138130000Y-44520000D01*
X138131935Y-44370000D01*
X138124212Y-44291586D01*
X138101340Y-44216186D01*
X138064197Y-44146697D01*
X138025874Y-44100000D01*
X138064197Y-44053303D01*
X138101340Y-43983814D01*
X138124212Y-43908414D01*
X138131935Y-43830000D01*
X138130000Y-43680000D01*
X138030000Y-43580000D01*
X137510000Y-43580000D01*
X137410000Y-43580000D01*
X137390000Y-43580000D01*
X137390000Y-43480000D01*
X137410000Y-43480000D01*
X137410000Y-43460000D01*
X137510000Y-43460000D01*
X137510000Y-43480000D01*
X138030000Y-43480000D01*
X138130000Y-43380000D01*
X138131935Y-43230000D01*
X138124212Y-43151586D01*
X138113256Y-43115467D01*
X138199000Y-43115000D01*
X138214000Y-43100000D01*
X138484000Y-43100000D01*
X138499000Y-43115000D01*
X138854000Y-43116935D01*
X138932414Y-43109212D01*
X139007814Y-43086340D01*
X139077303Y-43049197D01*
X139120109Y-43014067D01*
X139161697Y-43048197D01*
X139231186Y-43085340D01*
X139306586Y-43108212D01*
X139385000Y-43115935D01*
X139700000Y-43114000D01*
X139800000Y-43014000D01*
X139800000Y-42259000D01*
X139085000Y-42259000D01*
X139044000Y-42300000D01*
X138600000Y-42300000D01*
X138600000Y-42200000D01*
X139154000Y-42200000D01*
X139195000Y-42159000D01*
X139800000Y-42159000D01*
X139800000Y-42139000D01*
X139900000Y-42139000D01*
X139900000Y-42159000D01*
X139920000Y-42159000D01*
X139920000Y-42259000D01*
X139900000Y-42259000D01*
X139900000Y-43014000D01*
X140000000Y-43114000D01*
X140311854Y-43115916D01*
X140315802Y-43123301D01*
X140353264Y-43168949D01*
X140353267Y-43168952D01*
X140365789Y-43184210D01*
X140381047Y-43196732D01*
X141453267Y-44268953D01*
X141465789Y-44284211D01*
X141481047Y-44296733D01*
X141481049Y-44296735D01*
X141512982Y-44322941D01*
X141526697Y-44334197D01*
X141596186Y-44371340D01*
X141648549Y-44387224D01*
X141648549Y-44750000D01*
X141654341Y-44808810D01*
X141671496Y-44865360D01*
X141699353Y-44917477D01*
X141736842Y-44963158D01*
X141782523Y-45000647D01*
X141834640Y-45028504D01*
X141891190Y-45045659D01*
X141950000Y-45051451D01*
X144450000Y-45051451D01*
X144508810Y-45045659D01*
X144565360Y-45028504D01*
X144617477Y-45000647D01*
X144663158Y-44963158D01*
X144700647Y-44917477D01*
X144728504Y-44865360D01*
X144745659Y-44808810D01*
X144751451Y-44750000D01*
X144751451Y-43250000D01*
X144745659Y-43191190D01*
X144728504Y-43134640D01*
X144700647Y-43082523D01*
X144663158Y-43036842D01*
X144617477Y-42999353D01*
X144565360Y-42971496D01*
X144508810Y-42954341D01*
X144450000Y-42948549D01*
X141950000Y-42948549D01*
X141891190Y-42954341D01*
X141834640Y-42971496D01*
X141782523Y-42999353D01*
X141736842Y-43036842D01*
X141699353Y-43082523D01*
X141671496Y-43134640D01*
X141654341Y-43191190D01*
X141648549Y-43250000D01*
X141648549Y-43332863D01*
X141049999Y-42734314D01*
X141049999Y-42133410D01*
X141145818Y-42173099D01*
X141281056Y-42200000D01*
X141418944Y-42200000D01*
X141554182Y-42173099D01*
X141648549Y-42134011D01*
X141648549Y-42250000D01*
X141654341Y-42308810D01*
X141671496Y-42365360D01*
X141699353Y-42417477D01*
X141736842Y-42463158D01*
X141782523Y-42500647D01*
X141834640Y-42528504D01*
X141891190Y-42545659D01*
X141950000Y-42551451D01*
X144450000Y-42551451D01*
X144508810Y-42545659D01*
X144565360Y-42528504D01*
X144617477Y-42500647D01*
X144663158Y-42463158D01*
X144700647Y-42417477D01*
X144728504Y-42365360D01*
X144745659Y-42308810D01*
X144751451Y-42250000D01*
X144751451Y-40750000D01*
X144745659Y-40691190D01*
X144728504Y-40634640D01*
X144700647Y-40582523D01*
X144663158Y-40536842D01*
X144617477Y-40499353D01*
X144565360Y-40471496D01*
X144508810Y-40454341D01*
X144450000Y-40448549D01*
X141950000Y-40448549D01*
X141891190Y-40454341D01*
X141834640Y-40471496D01*
X141782523Y-40499353D01*
X141736842Y-40536842D01*
X141699353Y-40582523D01*
X141671496Y-40634640D01*
X141654341Y-40691190D01*
X141648549Y-40750000D01*
X141648549Y-40865989D01*
X141554182Y-40826901D01*
X141418944Y-40800000D01*
X141281056Y-40800000D01*
X141145818Y-40826901D01*
X141049999Y-40866590D01*
X141049999Y-40100644D01*
X141051934Y-40080997D01*
X141048302Y-40044115D01*
X141044211Y-40002583D01*
X141021339Y-39927183D01*
X140984196Y-39857694D01*
X140934210Y-39796786D01*
X140918948Y-39784261D01*
X140179688Y-39045001D01*
X140360357Y-39045001D01*
X140380003Y-39046936D01*
X140399649Y-39045001D01*
X140399650Y-39045001D01*
X140458417Y-39039213D01*
X140460000Y-39038733D01*
X140460000Y-39068944D01*
X140486901Y-39204182D01*
X140539668Y-39331574D01*
X140616274Y-39446224D01*
X140713776Y-39543726D01*
X140828426Y-39620332D01*
X140955818Y-39673099D01*
X141091056Y-39700000D01*
X141228944Y-39700000D01*
X141364182Y-39673099D01*
X141491574Y-39620332D01*
X141606224Y-39543726D01*
X141648549Y-39501401D01*
X141648549Y-39750000D01*
X141654341Y-39808810D01*
X141671496Y-39865360D01*
X141699353Y-39917477D01*
X141736842Y-39963158D01*
X141782523Y-40000647D01*
X141834640Y-40028504D01*
X141891190Y-40045659D01*
X141950000Y-40051451D01*
X144450000Y-40051451D01*
X144508810Y-40045659D01*
X144565360Y-40028504D01*
X144617477Y-40000647D01*
X144663158Y-39963158D01*
X144700647Y-39917477D01*
X144728504Y-39865360D01*
X144745659Y-39808810D01*
X144751451Y-39750000D01*
X144751451Y-38250000D01*
X144745659Y-38191190D01*
X144728504Y-38134640D01*
X144700647Y-38082523D01*
X144663158Y-38036842D01*
X144617477Y-37999353D01*
X144565360Y-37971496D01*
X144508810Y-37954341D01*
X144450000Y-37948549D01*
X141950000Y-37948549D01*
X141891190Y-37954341D01*
X141834640Y-37971496D01*
X141782523Y-37999353D01*
X141736842Y-38036842D01*
X141699353Y-38082523D01*
X141671496Y-38134640D01*
X141654341Y-38191190D01*
X141648549Y-38250000D01*
X141648549Y-38498599D01*
X141606224Y-38456274D01*
X141491574Y-38379668D01*
X141408302Y-38345176D01*
X141431907Y-38288187D01*
X141458808Y-38152949D01*
X141458808Y-38015061D01*
X141431907Y-37879823D01*
X141379140Y-37752431D01*
X141302534Y-37637781D01*
X141205032Y-37540279D01*
X141090382Y-37463673D01*
X140962990Y-37410906D01*
X140827752Y-37384005D01*
X140689864Y-37384005D01*
X140554626Y-37410906D01*
X140466452Y-37447429D01*
X140466452Y-37370001D01*
X140460660Y-37311191D01*
X140443505Y-37254641D01*
X140438352Y-37245001D01*
X140443505Y-37235361D01*
X140460660Y-37178811D01*
X140466452Y-37120001D01*
X140466452Y-36982932D01*
X140493735Y-36951271D01*
X140532537Y-36882694D01*
X140557215Y-36807865D01*
X140565001Y-36745001D01*
X140465001Y-36645001D01*
X140565001Y-36545001D01*
X140557215Y-36482137D01*
X140532537Y-36407308D01*
X140493735Y-36338731D01*
X140442300Y-36279042D01*
X140380208Y-36230534D01*
X140309847Y-36195072D01*
X140233918Y-36174019D01*
X140155342Y-36168182D01*
X139995001Y-36170001D01*
X139895001Y-36270001D01*
X139895001Y-36668550D01*
X139795001Y-36668550D01*
X139795001Y-36270001D01*
X139695001Y-36170001D01*
X139676452Y-36169791D01*
X139676452Y-35780001D01*
X139670660Y-35721191D01*
X139653505Y-35664641D01*
X139625648Y-35612524D01*
X139588159Y-35566843D01*
X139542478Y-35529354D01*
X139490361Y-35501497D01*
X139433811Y-35484342D01*
X139375001Y-35478550D01*
X139237932Y-35478550D01*
X139206271Y-35451267D01*
X139168670Y-35429992D01*
X142514307Y-35429992D01*
X142532864Y-35448549D01*
X141950000Y-35448549D01*
X141891190Y-35454341D01*
X141834640Y-35471496D01*
X141782523Y-35499353D01*
X141736842Y-35536842D01*
X141699353Y-35582523D01*
X141671496Y-35634640D01*
X141654341Y-35691190D01*
X141648549Y-35750000D01*
X141648549Y-37250000D01*
X141654341Y-37308810D01*
X141671496Y-37365360D01*
X141699353Y-37417477D01*
X141736842Y-37463158D01*
X141782523Y-37500647D01*
X141834640Y-37528504D01*
X141891190Y-37545659D01*
X141950000Y-37551451D01*
X144450000Y-37551451D01*
X144508810Y-37545659D01*
X144565360Y-37528504D01*
X144617477Y-37500647D01*
X144663158Y-37463158D01*
X144700647Y-37417477D01*
X144728504Y-37365360D01*
X144745659Y-37308810D01*
X144751451Y-37250000D01*
X144751451Y-35750000D01*
X144745659Y-35691190D01*
X144728504Y-35634640D01*
X144700647Y-35582523D01*
X144663158Y-35536842D01*
X144617477Y-35499353D01*
X144565360Y-35471496D01*
X144508810Y-35454341D01*
X144450000Y-35448549D01*
X143587224Y-35448549D01*
X143571340Y-35396186D01*
X143534197Y-35326697D01*
X143484211Y-35265789D01*
X143468948Y-35253263D01*
X143040685Y-34825000D01*
X144925000Y-34825000D01*
X144925001Y-47675000D01*
G37*
X144925001Y-47675000D02*
X129931748Y-47675000D01*
X129943814Y-47671340D01*
X130013303Y-47634197D01*
X130074211Y-47584211D01*
X130124197Y-47523303D01*
X130161340Y-47453814D01*
X130184212Y-47378414D01*
X130191935Y-47300000D01*
X130191774Y-47250000D01*
X141548065Y-47250000D01*
X141555788Y-47328414D01*
X141578660Y-47403814D01*
X141615803Y-47473303D01*
X141665789Y-47534211D01*
X141726697Y-47584197D01*
X141796186Y-47621340D01*
X141871586Y-47644212D01*
X141950000Y-47651935D01*
X143050000Y-47650000D01*
X143150000Y-47550000D01*
X143150000Y-46550000D01*
X143250000Y-46550000D01*
X143250000Y-47550000D01*
X143350000Y-47650000D01*
X144450000Y-47651935D01*
X144528414Y-47644212D01*
X144603814Y-47621340D01*
X144673303Y-47584197D01*
X144734211Y-47534211D01*
X144784197Y-47473303D01*
X144821340Y-47403814D01*
X144844212Y-47328414D01*
X144851935Y-47250000D01*
X144850000Y-46650000D01*
X144750000Y-46550000D01*
X143250000Y-46550000D01*
X143150000Y-46550000D01*
X141650000Y-46550000D01*
X141550000Y-46650000D01*
X141548065Y-47250000D01*
X130191774Y-47250000D01*
X130190000Y-46700000D01*
X130090000Y-46600000D01*
X128590000Y-46600000D01*
X128590000Y-46620000D01*
X128490000Y-46620000D01*
X128490000Y-46600000D01*
X126990000Y-46600000D01*
X126890000Y-46700000D01*
X126888065Y-47300000D01*
X126895788Y-47378414D01*
X126918660Y-47453814D01*
X126955803Y-47523303D01*
X127005789Y-47584211D01*
X127066697Y-47634197D01*
X127136186Y-47671340D01*
X127148252Y-47675000D01*
X126825000Y-47675000D01*
X126825000Y-45800000D01*
X126888065Y-45800000D01*
X126890000Y-46400000D01*
X126990000Y-46500000D01*
X128490000Y-46500000D01*
X128490000Y-45500000D01*
X128590000Y-45500000D01*
X128590000Y-46500000D01*
X130090000Y-46500000D01*
X130190000Y-46400000D01*
X130191935Y-45800000D01*
X130184212Y-45721586D01*
X130161340Y-45646186D01*
X130124197Y-45576697D01*
X130074211Y-45515789D01*
X130013303Y-45465803D01*
X129943814Y-45428660D01*
X129868414Y-45405788D01*
X129790000Y-45398065D01*
X128690000Y-45400000D01*
X128590000Y-45500000D01*
X128490000Y-45500000D01*
X128390000Y-45400000D01*
X127290000Y-45398065D01*
X127211586Y-45405788D01*
X127136186Y-45428660D01*
X127066697Y-45465803D01*
X127005789Y-45515789D01*
X126955803Y-45576697D01*
X126918660Y-45646186D01*
X126895788Y-45721586D01*
X126888065Y-45800000D01*
X126825000Y-45800000D01*
X126825000Y-43100000D01*
X127066044Y-43100000D01*
X127039353Y-43132523D01*
X127011496Y-43184640D01*
X126994341Y-43241190D01*
X126988549Y-43300000D01*
X126988549Y-44800000D01*
X126994341Y-44858810D01*
X127011496Y-44915360D01*
X127039353Y-44967477D01*
X127076842Y-45013158D01*
X127122523Y-45050647D01*
X127174640Y-45078504D01*
X127231190Y-45095659D01*
X127290000Y-45101451D01*
X129790000Y-45101451D01*
X129848810Y-45095659D01*
X129905360Y-45078504D01*
X129957477Y-45050647D01*
X130003158Y-45013158D01*
X130040647Y-44967477D01*
X130068504Y-44915360D01*
X130085659Y-44858810D01*
X130091451Y-44800000D01*
X130091451Y-44777605D01*
X130095009Y-44779982D01*
X130222401Y-44832749D01*
X130357639Y-44859650D01*
X130495527Y-44859650D01*
X130630765Y-44832749D01*
X130758157Y-44779982D01*
X130872807Y-44703376D01*
X130947070Y-44629113D01*
X130964640Y-44638504D01*
X130980000Y-44643164D01*
X130980001Y-44988706D01*
X130923776Y-45026274D01*
X130826274Y-45123776D01*
X130749668Y-45238426D01*
X130696901Y-45365818D01*
X130670000Y-45501056D01*
X130670000Y-45638944D01*
X130696901Y-45774182D01*
X130749668Y-45901574D01*
X130826274Y-46016224D01*
X130923776Y-46113726D01*
X131038426Y-46190332D01*
X131165818Y-46243099D01*
X131301056Y-46270000D01*
X131438944Y-46270000D01*
X131574182Y-46243099D01*
X131701574Y-46190332D01*
X131816224Y-46113726D01*
X131913726Y-46016224D01*
X131990332Y-45901574D01*
X132043099Y-45774182D01*
X132047909Y-45750000D01*
X141548065Y-45750000D01*
X141550000Y-46350000D01*
X141650000Y-46450000D01*
X143150000Y-46450000D01*
X143150000Y-45450000D01*
X143250000Y-45450000D01*
X143250000Y-46450000D01*
X144750000Y-46450000D01*
X144850000Y-46350000D01*
X144851935Y-45750000D01*
X144844212Y-45671586D01*
X144821340Y-45596186D01*
X144784197Y-45526697D01*
X144734211Y-45465789D01*
X144673303Y-45415803D01*
X144603814Y-45378660D01*
X144528414Y-45355788D01*
X144450000Y-45348065D01*
X143350000Y-45350000D01*
X143250000Y-45450000D01*
X143150000Y-45450000D01*
X143050000Y-45350000D01*
X141950000Y-45348065D01*
X141871586Y-45355788D01*
X141796186Y-45378660D01*
X141726697Y-45415803D01*
X141665789Y-45465789D01*
X141615803Y-45526697D01*
X141578660Y-45596186D01*
X141555788Y-45671586D01*
X141548065Y-45750000D01*
X132047909Y-45750000D01*
X132070000Y-45638944D01*
X132070000Y-45501056D01*
X132043099Y-45365818D01*
X131990332Y-45238426D01*
X131913726Y-45123776D01*
X131816224Y-45026274D01*
X131780000Y-45002070D01*
X131780000Y-44978265D01*
X131816842Y-45023158D01*
X131862523Y-45060647D01*
X131914640Y-45088504D01*
X131971190Y-45105659D01*
X132030000Y-45111451D01*
X132330000Y-45111451D01*
X132388810Y-45105659D01*
X132430000Y-45093164D01*
X132471190Y-45105659D01*
X132530000Y-45111451D01*
X132766796Y-45111451D01*
X132806697Y-45144197D01*
X132876186Y-45181340D01*
X132951586Y-45204212D01*
X133030000Y-45211935D01*
X133030000Y-45210000D01*
X133130000Y-45110000D01*
X133130000Y-44824733D01*
X133131451Y-44810000D01*
X133131451Y-44210000D01*
X133130000Y-44195267D01*
X133130000Y-43910000D01*
X133030000Y-43810000D01*
X133030000Y-43808065D01*
X132951586Y-43815788D01*
X132876186Y-43838660D01*
X132806697Y-43875803D01*
X132766796Y-43908549D01*
X132530000Y-43908549D01*
X132471190Y-43914341D01*
X132430000Y-43926836D01*
X132388810Y-43914341D01*
X132330000Y-43908549D01*
X132030000Y-43908549D01*
X131976147Y-43913853D01*
X131981451Y-43860000D01*
X131981451Y-43560000D01*
X131975659Y-43501190D01*
X131963164Y-43460000D01*
X131975659Y-43418810D01*
X131981451Y-43360000D01*
X131981451Y-43100000D01*
X133320000Y-43100000D01*
X133380000Y-43160000D01*
X133415028Y-43160000D01*
X133456697Y-43194197D01*
X133486262Y-43210000D01*
X133456697Y-43225803D01*
X133415028Y-43260000D01*
X133380000Y-43260000D01*
X133280000Y-43360000D01*
X133278065Y-43360000D01*
X133285788Y-43438414D01*
X133292336Y-43460000D01*
X133285788Y-43481586D01*
X133278065Y-43560000D01*
X133280000Y-43560000D01*
X133380000Y-43660000D01*
X133415028Y-43660000D01*
X133456697Y-43694197D01*
X133486262Y-43710000D01*
X133456697Y-43725803D01*
X133415028Y-43760000D01*
X133380000Y-43760000D01*
X133331762Y-43808238D01*
X133330000Y-43808065D01*
X133330000Y-43810000D01*
X133280000Y-43860000D01*
X133278065Y-43860000D01*
X133278238Y-43861762D01*
X133230000Y-43910000D01*
X133230000Y-44460000D01*
X133250000Y-44460000D01*
X133250000Y-44560000D01*
X133230000Y-44560000D01*
X133230000Y-45110000D01*
X133330000Y-45210000D01*
X133330000Y-45211935D01*
X133408414Y-45204212D01*
X133483814Y-45181340D01*
X133553303Y-45144197D01*
X133614211Y-45094211D01*
X133664197Y-45033303D01*
X133701340Y-44963814D01*
X133724212Y-44888414D01*
X133731935Y-44810000D01*
X133731306Y-44761273D01*
X133830000Y-44760000D01*
X133930000Y-44660000D01*
X133930000Y-44260000D01*
X133910000Y-44260000D01*
X133910000Y-44180000D01*
X133930000Y-44160000D01*
X133930000Y-43760000D01*
X133880000Y-43710000D01*
X133930000Y-43660000D01*
X133930000Y-43260000D01*
X133880000Y-43210000D01*
X133930000Y-43160000D01*
X133930000Y-43140000D01*
X134030000Y-43140000D01*
X134030000Y-43160000D01*
X134050000Y-43180000D01*
X134050000Y-43240000D01*
X134030000Y-43260000D01*
X134030000Y-43660000D01*
X134080000Y-43710000D01*
X134030000Y-43760000D01*
X134030000Y-44160000D01*
X134130000Y-44260000D01*
X134030000Y-44260000D01*
X134030000Y-44660000D01*
X134130000Y-44760000D01*
X134280000Y-44761935D01*
X134358414Y-44754212D01*
X134433814Y-44731340D01*
X134503303Y-44694197D01*
X134564211Y-44644211D01*
X134614197Y-44583303D01*
X134651340Y-44513814D01*
X134674212Y-44438414D01*
X134681935Y-44360000D01*
X134680000Y-44360000D01*
X134580000Y-44260000D01*
X134299647Y-44260000D01*
X134358414Y-44254212D01*
X134433814Y-44231340D01*
X134503303Y-44194197D01*
X134544972Y-44160000D01*
X134580000Y-44160000D01*
X134680000Y-44060000D01*
X134681935Y-44060000D01*
X134674212Y-43981586D01*
X134667664Y-43960000D01*
X134674212Y-43938414D01*
X134681935Y-43860000D01*
X134680000Y-43860000D01*
X134580000Y-43760000D01*
X134544972Y-43760000D01*
X134503303Y-43725803D01*
X134473738Y-43710000D01*
X134503303Y-43694197D01*
X134544972Y-43660000D01*
X134580000Y-43660000D01*
X134680000Y-43560000D01*
X134681935Y-43560000D01*
X134674212Y-43481586D01*
X134667664Y-43460000D01*
X134674212Y-43438414D01*
X134678018Y-43399770D01*
X134700000Y-43401935D01*
X134850000Y-43400000D01*
X134950000Y-43300000D01*
X134950000Y-43100000D01*
X135050000Y-43100000D01*
X135050000Y-43300000D01*
X135150000Y-43400000D01*
X135300000Y-43401935D01*
X135378414Y-43394212D01*
X135453814Y-43371340D01*
X135523303Y-43334197D01*
X135584211Y-43284211D01*
X135634197Y-43223303D01*
X135671340Y-43153814D01*
X135687664Y-43100000D01*
X136059321Y-43100000D01*
X136051496Y-43114640D01*
X136034341Y-43171190D01*
X136028549Y-43230000D01*
X136028549Y-43830000D01*
X136034341Y-43888810D01*
X136051496Y-43945360D01*
X136079353Y-43997477D01*
X136116842Y-44043158D01*
X136162523Y-44080647D01*
X136198730Y-44100000D01*
X136162523Y-44119353D01*
X136116842Y-44156842D01*
X136079353Y-44202523D01*
X136051496Y-44254640D01*
X136034341Y-44311190D01*
X136028549Y-44370000D01*
X136028549Y-44970000D01*
X136034341Y-45028810D01*
X136051496Y-45085360D01*
X136079353Y-45137477D01*
X136116842Y-45183158D01*
X136162523Y-45220647D01*
X136214640Y-45248504D01*
X136271190Y-45265659D01*
X136330000Y-45271451D01*
X136870000Y-45271451D01*
X136920710Y-45266457D01*
X136966697Y-45304197D01*
X137036186Y-45341340D01*
X137111586Y-45364212D01*
X137190000Y-45371935D01*
X137310000Y-45370000D01*
X137410000Y-45270000D01*
X137410000Y-44720000D01*
X137510000Y-44720000D01*
X137510000Y-45270000D01*
X137610000Y-45370000D01*
X137730000Y-45371935D01*
X137808414Y-45364212D01*
X137883814Y-45341340D01*
X137953303Y-45304197D01*
X138014211Y-45254211D01*
X138064197Y-45193303D01*
X138101340Y-45123814D01*
X138124212Y-45048414D01*
X138131935Y-44970000D01*
X138130000Y-44820000D01*
X138030000Y-44720000D01*
X137510000Y-44720000D01*
X137410000Y-44720000D01*
X137390000Y-44720000D01*
X137390000Y-44620000D01*
X137410000Y-44620000D01*
X137410000Y-43580000D01*
X137510000Y-43580000D01*
X137510000Y-44620000D01*
X138030000Y-44620000D01*
X138130000Y-44520000D01*
X138131935Y-44370000D01*
X138124212Y-44291586D01*
X138101340Y-44216186D01*
X138064197Y-44146697D01*
X138025874Y-44100000D01*
X138064197Y-44053303D01*
X138101340Y-43983814D01*
X138124212Y-43908414D01*
X138131935Y-43830000D01*
X138130000Y-43680000D01*
X138030000Y-43580000D01*
X137510000Y-43580000D01*
X137410000Y-43580000D01*
X137390000Y-43580000D01*
X137390000Y-43480000D01*
X137410000Y-43480000D01*
X137410000Y-43460000D01*
X137510000Y-43460000D01*
X137510000Y-43480000D01*
X138030000Y-43480000D01*
X138130000Y-43380000D01*
X138131935Y-43230000D01*
X138124212Y-43151586D01*
X138113256Y-43115467D01*
X138199000Y-43115000D01*
X138214000Y-43100000D01*
X138484000Y-43100000D01*
X138499000Y-43115000D01*
X138854000Y-43116935D01*
X138932414Y-43109212D01*
X139007814Y-43086340D01*
X139077303Y-43049197D01*
X139120109Y-43014067D01*
X139161697Y-43048197D01*
X139231186Y-43085340D01*
X139306586Y-43108212D01*
X139385000Y-43115935D01*
X139700000Y-43114000D01*
X139800000Y-43014000D01*
X139800000Y-42259000D01*
X139085000Y-42259000D01*
X139044000Y-42300000D01*
X138600000Y-42300000D01*
X138600000Y-42200000D01*
X139154000Y-42200000D01*
X139195000Y-42159000D01*
X139800000Y-42159000D01*
X139800000Y-42139000D01*
X139900000Y-42139000D01*
X139900000Y-42159000D01*
X139920000Y-42159000D01*
X139920000Y-42259000D01*
X139900000Y-42259000D01*
X139900000Y-43014000D01*
X140000000Y-43114000D01*
X140311854Y-43115916D01*
X140315802Y-43123301D01*
X140353264Y-43168949D01*
X140353267Y-43168952D01*
X140365789Y-43184210D01*
X140381047Y-43196732D01*
X141453267Y-44268953D01*
X141465789Y-44284211D01*
X141481047Y-44296733D01*
X141481049Y-44296735D01*
X141512982Y-44322941D01*
X141526697Y-44334197D01*
X141596186Y-44371340D01*
X141648549Y-44387224D01*
X141648549Y-44750000D01*
X141654341Y-44808810D01*
X141671496Y-44865360D01*
X141699353Y-44917477D01*
X141736842Y-44963158D01*
X141782523Y-45000647D01*
X141834640Y-45028504D01*
X141891190Y-45045659D01*
X141950000Y-45051451D01*
X144450000Y-45051451D01*
X144508810Y-45045659D01*
X144565360Y-45028504D01*
X144617477Y-45000647D01*
X144663158Y-44963158D01*
X144700647Y-44917477D01*
X144728504Y-44865360D01*
X144745659Y-44808810D01*
X144751451Y-44750000D01*
X144751451Y-43250000D01*
X144745659Y-43191190D01*
X144728504Y-43134640D01*
X144700647Y-43082523D01*
X144663158Y-43036842D01*
X144617477Y-42999353D01*
X144565360Y-42971496D01*
X144508810Y-42954341D01*
X144450000Y-42948549D01*
X141950000Y-42948549D01*
X141891190Y-42954341D01*
X141834640Y-42971496D01*
X141782523Y-42999353D01*
X141736842Y-43036842D01*
X141699353Y-43082523D01*
X141671496Y-43134640D01*
X141654341Y-43191190D01*
X141648549Y-43250000D01*
X141648549Y-43332863D01*
X141049999Y-42734314D01*
X141049999Y-42133410D01*
X141145818Y-42173099D01*
X141281056Y-42200000D01*
X141418944Y-42200000D01*
X141554182Y-42173099D01*
X141648549Y-42134011D01*
X141648549Y-42250000D01*
X141654341Y-42308810D01*
X141671496Y-42365360D01*
X141699353Y-42417477D01*
X141736842Y-42463158D01*
X141782523Y-42500647D01*
X141834640Y-42528504D01*
X141891190Y-42545659D01*
X141950000Y-42551451D01*
X144450000Y-42551451D01*
X144508810Y-42545659D01*
X144565360Y-42528504D01*
X144617477Y-42500647D01*
X144663158Y-42463158D01*
X144700647Y-42417477D01*
X144728504Y-42365360D01*
X144745659Y-42308810D01*
X144751451Y-42250000D01*
X144751451Y-40750000D01*
X144745659Y-40691190D01*
X144728504Y-40634640D01*
X144700647Y-40582523D01*
X144663158Y-40536842D01*
X144617477Y-40499353D01*
X144565360Y-40471496D01*
X144508810Y-40454341D01*
X144450000Y-40448549D01*
X141950000Y-40448549D01*
X141891190Y-40454341D01*
X141834640Y-40471496D01*
X141782523Y-40499353D01*
X141736842Y-40536842D01*
X141699353Y-40582523D01*
X141671496Y-40634640D01*
X141654341Y-40691190D01*
X141648549Y-40750000D01*
X141648549Y-40865989D01*
X141554182Y-40826901D01*
X141418944Y-40800000D01*
X141281056Y-40800000D01*
X141145818Y-40826901D01*
X141049999Y-40866590D01*
X141049999Y-40100644D01*
X141051934Y-40080997D01*
X141048302Y-40044115D01*
X141044211Y-40002583D01*
X141021339Y-39927183D01*
X140984196Y-39857694D01*
X140934210Y-39796786D01*
X140918948Y-39784261D01*
X140179688Y-39045001D01*
X140360357Y-39045001D01*
X140380003Y-39046936D01*
X140399649Y-39045001D01*
X140399650Y-39045001D01*
X140458417Y-39039213D01*
X140460000Y-39038733D01*
X140460000Y-39068944D01*
X140486901Y-39204182D01*
X140539668Y-39331574D01*
X140616274Y-39446224D01*
X140713776Y-39543726D01*
X140828426Y-39620332D01*
X140955818Y-39673099D01*
X141091056Y-39700000D01*
X141228944Y-39700000D01*
X141364182Y-39673099D01*
X141491574Y-39620332D01*
X141606224Y-39543726D01*
X141648549Y-39501401D01*
X141648549Y-39750000D01*
X141654341Y-39808810D01*
X141671496Y-39865360D01*
X141699353Y-39917477D01*
X141736842Y-39963158D01*
X141782523Y-40000647D01*
X141834640Y-40028504D01*
X141891190Y-40045659D01*
X141950000Y-40051451D01*
X144450000Y-40051451D01*
X144508810Y-40045659D01*
X144565360Y-40028504D01*
X144617477Y-40000647D01*
X144663158Y-39963158D01*
X144700647Y-39917477D01*
X144728504Y-39865360D01*
X144745659Y-39808810D01*
X144751451Y-39750000D01*
X144751451Y-38250000D01*
X144745659Y-38191190D01*
X144728504Y-38134640D01*
X144700647Y-38082523D01*
X144663158Y-38036842D01*
X144617477Y-37999353D01*
X144565360Y-37971496D01*
X144508810Y-37954341D01*
X144450000Y-37948549D01*
X141950000Y-37948549D01*
X141891190Y-37954341D01*
X141834640Y-37971496D01*
X141782523Y-37999353D01*
X141736842Y-38036842D01*
X141699353Y-38082523D01*
X141671496Y-38134640D01*
X141654341Y-38191190D01*
X141648549Y-38250000D01*
X141648549Y-38498599D01*
X141606224Y-38456274D01*
X141491574Y-38379668D01*
X141408302Y-38345176D01*
X141431907Y-38288187D01*
X141458808Y-38152949D01*
X141458808Y-38015061D01*
X141431907Y-37879823D01*
X141379140Y-37752431D01*
X141302534Y-37637781D01*
X141205032Y-37540279D01*
X141090382Y-37463673D01*
X140962990Y-37410906D01*
X140827752Y-37384005D01*
X140689864Y-37384005D01*
X140554626Y-37410906D01*
X140466452Y-37447429D01*
X140466452Y-37370001D01*
X140460660Y-37311191D01*
X140443505Y-37254641D01*
X140438352Y-37245001D01*
X140443505Y-37235361D01*
X140460660Y-37178811D01*
X140466452Y-37120001D01*
X140466452Y-36982932D01*
X140493735Y-36951271D01*
X140532537Y-36882694D01*
X140557215Y-36807865D01*
X140565001Y-36745001D01*
X140465001Y-36645001D01*
X140565001Y-36545001D01*
X140557215Y-36482137D01*
X140532537Y-36407308D01*
X140493735Y-36338731D01*
X140442300Y-36279042D01*
X140380208Y-36230534D01*
X140309847Y-36195072D01*
X140233918Y-36174019D01*
X140155342Y-36168182D01*
X139995001Y-36170001D01*
X139895001Y-36270001D01*
X139895001Y-36668550D01*
X139795001Y-36668550D01*
X139795001Y-36270001D01*
X139695001Y-36170001D01*
X139676452Y-36169791D01*
X139676452Y-35780001D01*
X139670660Y-35721191D01*
X139653505Y-35664641D01*
X139625648Y-35612524D01*
X139588159Y-35566843D01*
X139542478Y-35529354D01*
X139490361Y-35501497D01*
X139433811Y-35484342D01*
X139375001Y-35478550D01*
X139237932Y-35478550D01*
X139206271Y-35451267D01*
X139168670Y-35429992D01*
X142514307Y-35429992D01*
X142532864Y-35448549D01*
X141950000Y-35448549D01*
X141891190Y-35454341D01*
X141834640Y-35471496D01*
X141782523Y-35499353D01*
X141736842Y-35536842D01*
X141699353Y-35582523D01*
X141671496Y-35634640D01*
X141654341Y-35691190D01*
X141648549Y-35750000D01*
X141648549Y-37250000D01*
X141654341Y-37308810D01*
X141671496Y-37365360D01*
X141699353Y-37417477D01*
X141736842Y-37463158D01*
X141782523Y-37500647D01*
X141834640Y-37528504D01*
X141891190Y-37545659D01*
X141950000Y-37551451D01*
X144450000Y-37551451D01*
X144508810Y-37545659D01*
X144565360Y-37528504D01*
X144617477Y-37500647D01*
X144663158Y-37463158D01*
X144700647Y-37417477D01*
X144728504Y-37365360D01*
X144745659Y-37308810D01*
X144751451Y-37250000D01*
X144751451Y-35750000D01*
X144745659Y-35691190D01*
X144728504Y-35634640D01*
X144700647Y-35582523D01*
X144663158Y-35536842D01*
X144617477Y-35499353D01*
X144565360Y-35471496D01*
X144508810Y-35454341D01*
X144450000Y-35448549D01*
X143587224Y-35448549D01*
X143571340Y-35396186D01*
X143534197Y-35326697D01*
X143484211Y-35265789D01*
X143468948Y-35253263D01*
X143040685Y-34825000D01*
X144925000Y-34825000D01*
X144925001Y-47675000D01*
G36*
X138902991Y-39240001D02*
G01*
X138900001Y-39240001D01*
X138900001Y-39209648D01*
X138902991Y-39240001D01*
G37*
X138902991Y-39240001D02*
X138900001Y-39240001D01*
X138900001Y-39209648D01*
X138902991Y-39240001D01*
G36*
X138900001Y-39170354D02*
G01*
X138897012Y-39140001D01*
X138902991Y-39140001D01*
X138900001Y-39170354D01*
G37*
X138900001Y-39170354D02*
X138897012Y-39140001D01*
X138902991Y-39140001D01*
X138900001Y-39170354D01*
G36*
X139000001Y-36820001D02*
G01*
X139062865Y-36812215D01*
X139130561Y-36789890D01*
X139132787Y-36807865D01*
X139157465Y-36882694D01*
X139196267Y-36951271D01*
X139223550Y-36982932D01*
X139223550Y-37120001D01*
X139229342Y-37178811D01*
X139246497Y-37235361D01*
X139251650Y-37245001D01*
X139246497Y-37254641D01*
X139229342Y-37311191D01*
X139223550Y-37370001D01*
X139223550Y-37520001D01*
X139229342Y-37578811D01*
X139246497Y-37635361D01*
X139251650Y-37645001D01*
X139246497Y-37654641D01*
X139229342Y-37711191D01*
X139223550Y-37770001D01*
X139223550Y-37920001D01*
X139229342Y-37978811D01*
X139246497Y-38035361D01*
X139251650Y-38045001D01*
X139246497Y-38054641D01*
X139229342Y-38111191D01*
X139223550Y-38170001D01*
X139223550Y-38320001D01*
X139229342Y-38378811D01*
X139246497Y-38435361D01*
X139251650Y-38445001D01*
X139246497Y-38454641D01*
X139229342Y-38511191D01*
X139224807Y-38557240D01*
X139206271Y-38541267D01*
X139137694Y-38502465D01*
X139062865Y-38477787D01*
X139000001Y-38470001D01*
X138900001Y-38570001D01*
X138800001Y-38470001D01*
X138737137Y-38477787D01*
X138662308Y-38502465D01*
X138600000Y-38537720D01*
X138600000Y-36752282D01*
X138662308Y-36787537D01*
X138737137Y-36812215D01*
X138800001Y-36820001D01*
X138900001Y-36720001D01*
X139000001Y-36820001D01*
G37*
X139000001Y-36820001D02*
X139062865Y-36812215D01*
X139130561Y-36789890D01*
X139132787Y-36807865D01*
X139157465Y-36882694D01*
X139196267Y-36951271D01*
X139223550Y-36982932D01*
X139223550Y-37120001D01*
X139229342Y-37178811D01*
X139246497Y-37235361D01*
X139251650Y-37245001D01*
X139246497Y-37254641D01*
X139229342Y-37311191D01*
X139223550Y-37370001D01*
X139223550Y-37520001D01*
X139229342Y-37578811D01*
X139246497Y-37635361D01*
X139251650Y-37645001D01*
X139246497Y-37654641D01*
X139229342Y-37711191D01*
X139223550Y-37770001D01*
X139223550Y-37920001D01*
X139229342Y-37978811D01*
X139246497Y-38035361D01*
X139251650Y-38045001D01*
X139246497Y-38054641D01*
X139229342Y-38111191D01*
X139223550Y-38170001D01*
X139223550Y-38320001D01*
X139229342Y-38378811D01*
X139246497Y-38435361D01*
X139251650Y-38445001D01*
X139246497Y-38454641D01*
X139229342Y-38511191D01*
X139224807Y-38557240D01*
X139206271Y-38541267D01*
X139137694Y-38502465D01*
X139062865Y-38477787D01*
X139000001Y-38470001D01*
X138900001Y-38570001D01*
X138800001Y-38470001D01*
X138737137Y-38477787D01*
X138662308Y-38502465D01*
X138600000Y-38537720D01*
X138600000Y-36752282D01*
X138662308Y-36787537D01*
X138737137Y-36812215D01*
X138800001Y-36820001D01*
X138900001Y-36720001D01*
X139000001Y-36820001D01*
G36*
X138923550Y-36150001D02*
G01*
X138876452Y-36150001D01*
X138876452Y-36050001D01*
X138923550Y-36050001D01*
X138923550Y-36150001D01*
G37*
X138923550Y-36150001D02*
X138876452Y-36150001D01*
X138876452Y-36050001D01*
X138923550Y-36050001D01*
X138923550Y-36150001D01*
G36*
X138950003Y-35429999D02*
G01*
X138950003Y-35429992D01*
X138950010Y-35429992D01*
X138950003Y-35429999D01*
G37*
X138950003Y-35429999D02*
X138950003Y-35429992D01*
X138950010Y-35429992D01*
X138950003Y-35429999D01*
M02*
