G04 #@! TF.GenerationSoftware,KiCad,Pcbnew,(5.1.5)-3*
G04 #@! TF.CreationDate,2020-05-26T17:42:23+09:00*
G04 #@! TF.ProjectId,FMU3_Sensors_make,464d5533-5f53-4656-9e73-6f72735f6d61,rev?*
G04 #@! TF.SameCoordinates,Original*
G04 #@! TF.FileFunction,Soldermask,Top*
G04 #@! TF.FilePolarity,Negative*
%FSLAX46Y46*%
G04 Gerber Fmt 4.6, Leading zero omitted, Abs format (unit mm)*
G04 Created by KiCad (PCBNEW (5.1.5)-3) date 2020-05-26 17:42:23*
%MOMM*%
%LPD*%
G04 APERTURE LIST*
%ADD10C,0.100000*%
G04 APERTURE END LIST*
D10*
G36*
X129841000Y-47351000D02*
G01*
X127239000Y-47351000D01*
X127239000Y-45749000D01*
X129841000Y-45749000D01*
X129841000Y-47351000D01*
G37*
G36*
X137781000Y-45021000D02*
G01*
X136279000Y-45021000D01*
X136279000Y-44319000D01*
X137781000Y-44319000D01*
X137781000Y-45021000D01*
G37*
G36*
X133381000Y-41884001D02*
G01*
X133383402Y-41908387D01*
X133390515Y-41931836D01*
X133402066Y-41953447D01*
X133417611Y-41972389D01*
X133436553Y-41987934D01*
X133458164Y-41999485D01*
X133481613Y-42006598D01*
X133505999Y-42009000D01*
X134331000Y-42009000D01*
X134331000Y-44411000D01*
X133505999Y-44411000D01*
X133481613Y-44413402D01*
X133458164Y-44420515D01*
X133436553Y-44432066D01*
X133417611Y-44447611D01*
X133402066Y-44466553D01*
X133390515Y-44488164D01*
X133383402Y-44511613D01*
X133381000Y-44535999D01*
X133381000Y-44861000D01*
X131979000Y-44861000D01*
X131979000Y-44535999D01*
X131976598Y-44511613D01*
X131969485Y-44488164D01*
X131957934Y-44466553D01*
X131942389Y-44447611D01*
X131923447Y-44432066D01*
X131901836Y-44420515D01*
X131878387Y-44413402D01*
X131854001Y-44411000D01*
X131029000Y-44411000D01*
X131029000Y-42385999D01*
X131731000Y-42385999D01*
X131731000Y-44034001D01*
X131733402Y-44058387D01*
X131740515Y-44081836D01*
X131752066Y-44103447D01*
X131767611Y-44122389D01*
X131786553Y-44137934D01*
X131808164Y-44149485D01*
X131831613Y-44156598D01*
X131855999Y-44159000D01*
X133504001Y-44159000D01*
X133528387Y-44156598D01*
X133551836Y-44149485D01*
X133573447Y-44137934D01*
X133592389Y-44122389D01*
X133607934Y-44103447D01*
X133619485Y-44081836D01*
X133626598Y-44058387D01*
X133629000Y-44034001D01*
X133629000Y-42385999D01*
X133626598Y-42361613D01*
X133619485Y-42338164D01*
X133607934Y-42316553D01*
X133592389Y-42297611D01*
X133573447Y-42282066D01*
X133551836Y-42270515D01*
X133528387Y-42263402D01*
X133504001Y-42261000D01*
X131855999Y-42261000D01*
X131831613Y-42263402D01*
X131808164Y-42270515D01*
X131786553Y-42282066D01*
X131767611Y-42297611D01*
X131752066Y-42316553D01*
X131740515Y-42338164D01*
X131733402Y-42361613D01*
X131731000Y-42385999D01*
X131029000Y-42385999D01*
X131029000Y-42009000D01*
X131854001Y-42009000D01*
X131878387Y-42006598D01*
X131901836Y-41999485D01*
X131923447Y-41987934D01*
X131942389Y-41972389D01*
X131957934Y-41953447D01*
X131969485Y-41931836D01*
X131976598Y-41908387D01*
X131979000Y-41884001D01*
X131979000Y-41559000D01*
X133381000Y-41559000D01*
X133381000Y-41884001D01*
G37*
G36*
X129841000Y-44851000D02*
G01*
X127239000Y-44851000D01*
X127239000Y-43249000D01*
X129841000Y-43249000D01*
X129841000Y-44851000D01*
G37*
G36*
X144591000Y-44801000D02*
G01*
X141989000Y-44801000D01*
X141989000Y-43199000D01*
X144591000Y-43199000D01*
X144591000Y-44801000D01*
G37*
G36*
X137781000Y-43881000D02*
G01*
X136279000Y-43881000D01*
X136279000Y-43179000D01*
X137781000Y-43179000D01*
X137781000Y-43881000D01*
G37*
G36*
X135351000Y-43051000D02*
G01*
X134649000Y-43051000D01*
X134649000Y-41549000D01*
X135351000Y-41549000D01*
X135351000Y-43051000D01*
G37*
G36*
X137487000Y-42766000D02*
G01*
X136375000Y-42766000D01*
X136375000Y-41734000D01*
X137487000Y-41734000D01*
X137487000Y-42766000D01*
G37*
G36*
X138905000Y-42766000D02*
G01*
X137793000Y-42766000D01*
X137793000Y-41734000D01*
X138905000Y-41734000D01*
X138905000Y-42766000D01*
G37*
G36*
X140366000Y-42765000D02*
G01*
X139334000Y-42765000D01*
X139334000Y-41653000D01*
X140366000Y-41653000D01*
X140366000Y-42765000D01*
G37*
G36*
X129841000Y-42351000D02*
G01*
X127239000Y-42351000D01*
X127239000Y-40749000D01*
X129841000Y-40749000D01*
X129841000Y-42351000D01*
G37*
G36*
X144591000Y-42301000D02*
G01*
X141989000Y-42301000D01*
X141989000Y-40699000D01*
X144591000Y-40699000D01*
X144591000Y-42301000D01*
G37*
G36*
X137841938Y-40651716D02*
G01*
X137862557Y-40657971D01*
X137881553Y-40668124D01*
X137898208Y-40681792D01*
X137911876Y-40698447D01*
X137922029Y-40717443D01*
X137928284Y-40738062D01*
X137931000Y-40765640D01*
X137931000Y-41274360D01*
X137928284Y-41301938D01*
X137922029Y-41322557D01*
X137911876Y-41341553D01*
X137898208Y-41358208D01*
X137881553Y-41371876D01*
X137862557Y-41382029D01*
X137841938Y-41388284D01*
X137814360Y-41391000D01*
X137355640Y-41391000D01*
X137328062Y-41388284D01*
X137307443Y-41382029D01*
X137288447Y-41371876D01*
X137271792Y-41358208D01*
X137258124Y-41341553D01*
X137247971Y-41322557D01*
X137241716Y-41301938D01*
X137239000Y-41274360D01*
X137239000Y-40765640D01*
X137241716Y-40738062D01*
X137247971Y-40717443D01*
X137258124Y-40698447D01*
X137271792Y-40681792D01*
X137288447Y-40668124D01*
X137307443Y-40657971D01*
X137328062Y-40651716D01*
X137355640Y-40649000D01*
X137814360Y-40649000D01*
X137841938Y-40651716D01*
G37*
G36*
X136871938Y-40651716D02*
G01*
X136892557Y-40657971D01*
X136911553Y-40668124D01*
X136928208Y-40681792D01*
X136941876Y-40698447D01*
X136952029Y-40717443D01*
X136958284Y-40738062D01*
X136961000Y-40765640D01*
X136961000Y-41274360D01*
X136958284Y-41301938D01*
X136952029Y-41322557D01*
X136941876Y-41341553D01*
X136928208Y-41358208D01*
X136911553Y-41371876D01*
X136892557Y-41382029D01*
X136871938Y-41388284D01*
X136844360Y-41391000D01*
X136385640Y-41391000D01*
X136358062Y-41388284D01*
X136337443Y-41382029D01*
X136318447Y-41371876D01*
X136301792Y-41358208D01*
X136288124Y-41341553D01*
X136277971Y-41322557D01*
X136271716Y-41301938D01*
X136269000Y-41274360D01*
X136269000Y-40765640D01*
X136271716Y-40738062D01*
X136277971Y-40717443D01*
X136288124Y-40698447D01*
X136301792Y-40681792D01*
X136318447Y-40668124D01*
X136337443Y-40657971D01*
X136358062Y-40651716D01*
X136385640Y-40649000D01*
X136844360Y-40649000D01*
X136871938Y-40651716D01*
G37*
G36*
X140366000Y-41347000D02*
G01*
X139334000Y-41347000D01*
X139334000Y-40235000D01*
X140366000Y-40235000D01*
X140366000Y-41347000D01*
G37*
G36*
X134913001Y-40496001D02*
G01*
X133501001Y-40496001D01*
X133501001Y-39864001D01*
X134913001Y-39864001D01*
X134913001Y-40496001D01*
G37*
G36*
X132513001Y-40496001D02*
G01*
X131101001Y-40496001D01*
X131101001Y-39864001D01*
X132513001Y-39864001D01*
X132513001Y-40496001D01*
G37*
G36*
X129841000Y-39851000D02*
G01*
X127239000Y-39851000D01*
X127239000Y-38249000D01*
X129841000Y-38249000D01*
X129841000Y-39851000D01*
G37*
G36*
X144591000Y-39801000D02*
G01*
X141989000Y-39801000D01*
X141989000Y-38199000D01*
X144591000Y-38199000D01*
X144591000Y-39801000D01*
G37*
G36*
X139426001Y-36394002D02*
G01*
X139428403Y-36418388D01*
X139435516Y-36441837D01*
X139447067Y-36463448D01*
X139462612Y-36482390D01*
X139481554Y-36497935D01*
X139503165Y-36509486D01*
X139526614Y-36516599D01*
X139551000Y-36519001D01*
X140216001Y-36519001D01*
X140216001Y-38771001D01*
X139551000Y-38771001D01*
X139526614Y-38773403D01*
X139503165Y-38780516D01*
X139481554Y-38792067D01*
X139462612Y-38807612D01*
X139447067Y-38826554D01*
X139435516Y-38848165D01*
X139428403Y-38871614D01*
X139426001Y-38896000D01*
X139426001Y-39561001D01*
X137174001Y-39561001D01*
X137174001Y-38896000D01*
X137171599Y-38871614D01*
X137164486Y-38848165D01*
X137152935Y-38826554D01*
X137137390Y-38807612D01*
X137118448Y-38792067D01*
X137096837Y-38780516D01*
X137073388Y-38773403D01*
X137049002Y-38771001D01*
X136384001Y-38771001D01*
X136384001Y-36596000D01*
X137126001Y-36596000D01*
X137126001Y-38694002D01*
X137128403Y-38718388D01*
X137135516Y-38741837D01*
X137147067Y-38763448D01*
X137162612Y-38782390D01*
X137181554Y-38797935D01*
X137203165Y-38809486D01*
X137226614Y-38816599D01*
X137251000Y-38819001D01*
X139349002Y-38819001D01*
X139373388Y-38816599D01*
X139396837Y-38809486D01*
X139418448Y-38797935D01*
X139437390Y-38782390D01*
X139452935Y-38763448D01*
X139464486Y-38741837D01*
X139471599Y-38718388D01*
X139474001Y-38694002D01*
X139474001Y-36596000D01*
X139471599Y-36571614D01*
X139464486Y-36548165D01*
X139452935Y-36526554D01*
X139437390Y-36507612D01*
X139418448Y-36492067D01*
X139396837Y-36480516D01*
X139373388Y-36473403D01*
X139349002Y-36471001D01*
X137251000Y-36471001D01*
X137226614Y-36473403D01*
X137203165Y-36480516D01*
X137181554Y-36492067D01*
X137162612Y-36507612D01*
X137147067Y-36526554D01*
X137135516Y-36548165D01*
X137128403Y-36571614D01*
X137126001Y-36596000D01*
X136384001Y-36596000D01*
X136384001Y-36519001D01*
X137049002Y-36519001D01*
X137073388Y-36516599D01*
X137096837Y-36509486D01*
X137118448Y-36497935D01*
X137137390Y-36482390D01*
X137152935Y-36463448D01*
X137164486Y-36441837D01*
X137171599Y-36418388D01*
X137174001Y-36394002D01*
X137174001Y-35729001D01*
X139426001Y-35729001D01*
X139426001Y-36394002D01*
G37*
G36*
X132513001Y-39246001D02*
G01*
X131101001Y-39246001D01*
X131101001Y-38614001D01*
X132513001Y-38614001D01*
X132513001Y-39246001D01*
G37*
G36*
X134913001Y-39246001D02*
G01*
X133501001Y-39246001D01*
X133501001Y-38614001D01*
X134913001Y-38614001D01*
X134913001Y-39246001D01*
G37*
G36*
X132513001Y-37996001D02*
G01*
X131101001Y-37996001D01*
X131101001Y-37364001D01*
X132513001Y-37364001D01*
X132513001Y-37996001D01*
G37*
G36*
X134913001Y-37996001D02*
G01*
X133501001Y-37996001D01*
X133501001Y-37364001D01*
X134913001Y-37364001D01*
X134913001Y-37996001D01*
G37*
G36*
X129841000Y-37351000D02*
G01*
X127239000Y-37351000D01*
X127239000Y-35749000D01*
X129841000Y-35749000D01*
X129841000Y-37351000D01*
G37*
G36*
X144591000Y-37301000D02*
G01*
X141989000Y-37301000D01*
X141989000Y-35699000D01*
X144591000Y-35699000D01*
X144591000Y-37301000D01*
G37*
G36*
X132513001Y-36746001D02*
G01*
X131101001Y-36746001D01*
X131101001Y-36114001D01*
X132513001Y-36114001D01*
X132513001Y-36746001D01*
G37*
G36*
X134913001Y-36746001D02*
G01*
X133501001Y-36746001D01*
X133501001Y-36114001D01*
X134913001Y-36114001D01*
X134913001Y-36746001D01*
G37*
M02*
