G04 #@! TF.GenerationSoftware,KiCad,Pcbnew,(5.1.5)-3*
G04 #@! TF.CreationDate,2020-05-29T15:05:33+09:00*
G04 #@! TF.ProjectId,FMU3_Power_make,464d5533-5f50-46f7-9765-725f6d616b65,rev?*
G04 #@! TF.SameCoordinates,Original*
G04 #@! TF.FileFunction,Paste,Top*
G04 #@! TF.FilePolarity,Positive*
%FSLAX46Y46*%
G04 Gerber Fmt 4.6, Leading zero omitted, Abs format (unit mm)*
G04 Created by KiCad (PCBNEW (5.1.5)-3) date 2020-05-29 15:05:33*
%MOMM*%
%LPD*%
G04 APERTURE LIST*
%ADD10C,0.010000*%
%ADD11R,0.600000X0.540000*%
%ADD12C,0.100000*%
%ADD13R,0.540000X0.600000*%
%ADD14R,2.500000X1.500000*%
%ADD15R,1.100000X1.380000*%
%ADD16R,0.609600X0.457200*%
%ADD17R,1.100000X1.000000*%
%ADD18R,1.160000X1.470000*%
%ADD19R,1.470000X1.160000*%
%ADD20R,0.760000X0.270000*%
G04 APERTURE END LIST*
D10*
G36*
X108365000Y-54325000D02*
G01*
X108735000Y-54325000D01*
X108735000Y-55295000D01*
X108365000Y-55295000D01*
X108365000Y-54325000D01*
G37*
X108365000Y-54325000D02*
X108735000Y-54325000D01*
X108735000Y-55295000D01*
X108365000Y-55295000D01*
X108365000Y-54325000D01*
D11*
X109510000Y-52570000D03*
X109510000Y-51710000D03*
D12*
G36*
X109629802Y-56805482D02*
G01*
X109639509Y-56806921D01*
X109649028Y-56809306D01*
X109658268Y-56812612D01*
X109667140Y-56816808D01*
X109675557Y-56821853D01*
X109683439Y-56827699D01*
X109690711Y-56834289D01*
X109697301Y-56841561D01*
X109703147Y-56849443D01*
X109708192Y-56857860D01*
X109712388Y-56866732D01*
X109715694Y-56875972D01*
X109718079Y-56885491D01*
X109719518Y-56895198D01*
X109720000Y-56905000D01*
X109720000Y-57255000D01*
X109719518Y-57264802D01*
X109718079Y-57274509D01*
X109715694Y-57284028D01*
X109712388Y-57293268D01*
X109708192Y-57302140D01*
X109703147Y-57310557D01*
X109697301Y-57318439D01*
X109690711Y-57325711D01*
X109683439Y-57332301D01*
X109675557Y-57338147D01*
X109667140Y-57343192D01*
X109658268Y-57347388D01*
X109649028Y-57350694D01*
X109639509Y-57353079D01*
X109629802Y-57354518D01*
X109620000Y-57355000D01*
X109420000Y-57355000D01*
X109410198Y-57354518D01*
X109400491Y-57353079D01*
X109390972Y-57350694D01*
X109381732Y-57347388D01*
X109372860Y-57343192D01*
X109364443Y-57338147D01*
X109356561Y-57332301D01*
X109349289Y-57325711D01*
X109342699Y-57318439D01*
X109336853Y-57310557D01*
X109331808Y-57302140D01*
X109327612Y-57293268D01*
X109324306Y-57284028D01*
X109321921Y-57274509D01*
X109320482Y-57264802D01*
X109320000Y-57255000D01*
X109320000Y-56905000D01*
X109320482Y-56895198D01*
X109321921Y-56885491D01*
X109324306Y-56875972D01*
X109327612Y-56866732D01*
X109331808Y-56857860D01*
X109336853Y-56849443D01*
X109342699Y-56841561D01*
X109349289Y-56834289D01*
X109356561Y-56827699D01*
X109364443Y-56821853D01*
X109372860Y-56816808D01*
X109381732Y-56812612D01*
X109390972Y-56809306D01*
X109400491Y-56806921D01*
X109410198Y-56805482D01*
X109420000Y-56805000D01*
X109620000Y-56805000D01*
X109629802Y-56805482D01*
G37*
G36*
X108769802Y-56805482D02*
G01*
X108779509Y-56806921D01*
X108789028Y-56809306D01*
X108798268Y-56812612D01*
X108807140Y-56816808D01*
X108815557Y-56821853D01*
X108823439Y-56827699D01*
X108830711Y-56834289D01*
X108837301Y-56841561D01*
X108843147Y-56849443D01*
X108848192Y-56857860D01*
X108852388Y-56866732D01*
X108855694Y-56875972D01*
X108858079Y-56885491D01*
X108859518Y-56895198D01*
X108860000Y-56905000D01*
X108860000Y-57255000D01*
X108859518Y-57264802D01*
X108858079Y-57274509D01*
X108855694Y-57284028D01*
X108852388Y-57293268D01*
X108848192Y-57302140D01*
X108843147Y-57310557D01*
X108837301Y-57318439D01*
X108830711Y-57325711D01*
X108823439Y-57332301D01*
X108815557Y-57338147D01*
X108807140Y-57343192D01*
X108798268Y-57347388D01*
X108789028Y-57350694D01*
X108779509Y-57353079D01*
X108769802Y-57354518D01*
X108760000Y-57355000D01*
X108560000Y-57355000D01*
X108550198Y-57354518D01*
X108540491Y-57353079D01*
X108530972Y-57350694D01*
X108521732Y-57347388D01*
X108512860Y-57343192D01*
X108504443Y-57338147D01*
X108496561Y-57332301D01*
X108489289Y-57325711D01*
X108482699Y-57318439D01*
X108476853Y-57310557D01*
X108471808Y-57302140D01*
X108467612Y-57293268D01*
X108464306Y-57284028D01*
X108461921Y-57274509D01*
X108460482Y-57264802D01*
X108460000Y-57255000D01*
X108460000Y-56905000D01*
X108460482Y-56895198D01*
X108461921Y-56885491D01*
X108464306Y-56875972D01*
X108467612Y-56866732D01*
X108471808Y-56857860D01*
X108476853Y-56849443D01*
X108482699Y-56841561D01*
X108489289Y-56834289D01*
X108496561Y-56827699D01*
X108504443Y-56821853D01*
X108512860Y-56816808D01*
X108521732Y-56812612D01*
X108530972Y-56809306D01*
X108540491Y-56806921D01*
X108550198Y-56805482D01*
X108560000Y-56805000D01*
X108760000Y-56805000D01*
X108769802Y-56805482D01*
G37*
D13*
X113240000Y-55980000D03*
X112380000Y-55980000D03*
D14*
X117530000Y-53470000D03*
X117530000Y-55970000D03*
X117530000Y-50970000D03*
X117530000Y-58470000D03*
D13*
X106050000Y-52510000D03*
X106910000Y-52510000D03*
D15*
X106047000Y-50980000D03*
X107773000Y-50980000D03*
D16*
X111250000Y-55627400D03*
X111250000Y-56592600D03*
D17*
X112790000Y-54590000D03*
X114490000Y-54590000D03*
D18*
X114545000Y-57560000D03*
X112795000Y-57560000D03*
D19*
X111500000Y-52175000D03*
X111500000Y-50425000D03*
D14*
X103280000Y-53490000D03*
X103280000Y-55890000D03*
X103280000Y-50990000D03*
D20*
X107580000Y-54060000D03*
X107580000Y-54560000D03*
X107580000Y-55060000D03*
X107580000Y-55560000D03*
X109520000Y-55560000D03*
X109520000Y-55060000D03*
X109520000Y-54560000D03*
X109520000Y-54060000D03*
M02*
