G04 #@! TF.GenerationSoftware,KiCad,Pcbnew,(5.1.5)-3*
G04 #@! TF.CreationDate,2020-05-29T15:05:33+09:00*
G04 #@! TF.ProjectId,FMU3_Power_make,464d5533-5f50-46f7-9765-725f6d616b65,rev?*
G04 #@! TF.SameCoordinates,Original*
G04 #@! TF.FileFunction,Other,User*
%FSLAX46Y46*%
G04 Gerber Fmt 4.6, Leading zero omitted, Abs format (unit mm)*
G04 Created by KiCad (PCBNEW (5.1.5)-3) date 2020-05-29 15:05:33*
%MOMM*%
%LPD*%
G04 APERTURE LIST*
%ADD10C,0.050000*%
%ADD11C,0.120000*%
%ADD12C,0.050800*%
G04 APERTURE END LIST*
D10*
X110050000Y-51290000D02*
X108970000Y-51290000D01*
X110050000Y-52990000D02*
X110050000Y-51290000D01*
X108970000Y-52990000D02*
X110050000Y-52990000D01*
X108970000Y-51290000D02*
X108970000Y-52990000D01*
X108390000Y-56730000D02*
X108390000Y-57430000D01*
X109790000Y-57430000D02*
X109790000Y-56730000D01*
X108390000Y-57430000D02*
X109790000Y-57430000D01*
X109790000Y-56730000D02*
X108390000Y-56730000D01*
X113660000Y-55440000D02*
X111960000Y-55440000D01*
X111960000Y-55440000D02*
X111960000Y-56520000D01*
X111960000Y-56520000D02*
X113660000Y-56520000D01*
X113660000Y-56520000D02*
X113660000Y-55440000D01*
D11*
X119030000Y-49970000D02*
X116030000Y-49970000D01*
X116030000Y-59470000D02*
X119030000Y-59470000D01*
X119030000Y-59470000D02*
X119030000Y-49970000D01*
X116030000Y-49970000D02*
X116030000Y-59470000D01*
D10*
X107330000Y-53050000D02*
X107330000Y-51970000D01*
X105630000Y-53050000D02*
X107330000Y-53050000D01*
X105630000Y-51970000D02*
X105630000Y-53050000D01*
X107330000Y-51970000D02*
X105630000Y-51970000D01*
X108575000Y-51920000D02*
X108575000Y-50040000D01*
X105245000Y-51920000D02*
X105245000Y-50040000D01*
X105245000Y-50040000D02*
X108575000Y-50040000D01*
X105245000Y-51920000D02*
X108575000Y-51920000D01*
D11*
X111700000Y-56910000D02*
X111700000Y-55310000D01*
X110800000Y-56910000D02*
X111700000Y-56910000D01*
X110800000Y-55310000D02*
X110800000Y-56910000D01*
X111700000Y-55310000D02*
X110800000Y-55310000D01*
D12*
X111967000Y-55373000D02*
X111967000Y-53807000D01*
X115313000Y-55373000D02*
X111967000Y-55373000D01*
X115313000Y-53807000D02*
X115313000Y-55373000D01*
X111967000Y-53807000D02*
X115313000Y-53807000D01*
D10*
X111962000Y-58543000D02*
X115378000Y-58543000D01*
X111962000Y-56577000D02*
X115378000Y-56577000D01*
X111962000Y-58543000D02*
X111962000Y-56577000D01*
X115378000Y-58543000D02*
X115378000Y-56577000D01*
X112483000Y-49592000D02*
X110517000Y-49592000D01*
X112483000Y-53008000D02*
X110517000Y-53008000D01*
X110517000Y-53008000D02*
X110517000Y-49592000D01*
X112483000Y-53008000D02*
X112483000Y-49592000D01*
D11*
X101780000Y-56940000D02*
X104780000Y-56940000D01*
X104780000Y-49990000D02*
X101780000Y-49990000D01*
X104780000Y-56940000D02*
X104780000Y-49990000D01*
X101780000Y-49990000D02*
X101780000Y-56940000D01*
D10*
X106950000Y-56090000D02*
X106950000Y-53530000D01*
X110150000Y-56090000D02*
X106950000Y-56090000D01*
X110150000Y-53530000D02*
X110150000Y-56090000D01*
X106950000Y-53530000D02*
X110150000Y-53530000D01*
M02*
