G04 #@! TF.GenerationSoftware,KiCad,Pcbnew,(5.1.5)-3*
G04 #@! TF.CreationDate,2020-05-15T17:18:22+09:00*
G04 #@! TF.ProjectId,test1,74657374-312e-46b6-9963-61645f706362,rev?*
G04 #@! TF.SameCoordinates,Original*
G04 #@! TF.FileFunction,Legend,Top*
G04 #@! TF.FilePolarity,Positive*
%FSLAX46Y46*%
G04 Gerber Fmt 4.6, Leading zero omitted, Abs format (unit mm)*
G04 Created by KiCad (PCBNEW (5.1.5)-3) date 2020-05-15 17:18:22*
%MOMM*%
%LPD*%
G04 APERTURE LIST*
%ADD10C,0.120000*%
%ADD11C,0.150000*%
G04 APERTURE END LIST*
D10*
X86455000Y-109835000D02*
G75*
G03X86455000Y-109835000I-3270000J0D01*
G01*
X86415000Y-109835000D02*
X79955000Y-109835000D01*
X86415000Y-109875000D02*
X79955000Y-109875000D01*
X86415000Y-109915000D02*
X79955000Y-109915000D01*
X86413000Y-109955000D02*
X79957000Y-109955000D01*
X86412000Y-109995000D02*
X79958000Y-109995000D01*
X86409000Y-110035000D02*
X79961000Y-110035000D01*
X86407000Y-110075000D02*
X84225000Y-110075000D01*
X82145000Y-110075000D02*
X79963000Y-110075000D01*
X86403000Y-110115000D02*
X84225000Y-110115000D01*
X82145000Y-110115000D02*
X79967000Y-110115000D01*
X86400000Y-110155000D02*
X84225000Y-110155000D01*
X82145000Y-110155000D02*
X79970000Y-110155000D01*
X86396000Y-110195000D02*
X84225000Y-110195000D01*
X82145000Y-110195000D02*
X79974000Y-110195000D01*
X86391000Y-110235000D02*
X84225000Y-110235000D01*
X82145000Y-110235000D02*
X79979000Y-110235000D01*
X86386000Y-110275000D02*
X84225000Y-110275000D01*
X82145000Y-110275000D02*
X79984000Y-110275000D01*
X86380000Y-110315000D02*
X84225000Y-110315000D01*
X82145000Y-110315000D02*
X79990000Y-110315000D01*
X86374000Y-110355000D02*
X84225000Y-110355000D01*
X82145000Y-110355000D02*
X79996000Y-110355000D01*
X86367000Y-110395000D02*
X84225000Y-110395000D01*
X82145000Y-110395000D02*
X80003000Y-110395000D01*
X86360000Y-110435000D02*
X84225000Y-110435000D01*
X82145000Y-110435000D02*
X80010000Y-110435000D01*
X86352000Y-110475000D02*
X84225000Y-110475000D01*
X82145000Y-110475000D02*
X80018000Y-110475000D01*
X86344000Y-110515000D02*
X84225000Y-110515000D01*
X82145000Y-110515000D02*
X80026000Y-110515000D01*
X86335000Y-110556000D02*
X84225000Y-110556000D01*
X82145000Y-110556000D02*
X80035000Y-110556000D01*
X86326000Y-110596000D02*
X84225000Y-110596000D01*
X82145000Y-110596000D02*
X80044000Y-110596000D01*
X86316000Y-110636000D02*
X84225000Y-110636000D01*
X82145000Y-110636000D02*
X80054000Y-110636000D01*
X86306000Y-110676000D02*
X84225000Y-110676000D01*
X82145000Y-110676000D02*
X80064000Y-110676000D01*
X86295000Y-110716000D02*
X84225000Y-110716000D01*
X82145000Y-110716000D02*
X80075000Y-110716000D01*
X86283000Y-110756000D02*
X84225000Y-110756000D01*
X82145000Y-110756000D02*
X80087000Y-110756000D01*
X86271000Y-110796000D02*
X84225000Y-110796000D01*
X82145000Y-110796000D02*
X80099000Y-110796000D01*
X86259000Y-110836000D02*
X84225000Y-110836000D01*
X82145000Y-110836000D02*
X80111000Y-110836000D01*
X86246000Y-110876000D02*
X84225000Y-110876000D01*
X82145000Y-110876000D02*
X80124000Y-110876000D01*
X86232000Y-110916000D02*
X84225000Y-110916000D01*
X82145000Y-110916000D02*
X80138000Y-110916000D01*
X86218000Y-110956000D02*
X84225000Y-110956000D01*
X82145000Y-110956000D02*
X80152000Y-110956000D01*
X86203000Y-110996000D02*
X84225000Y-110996000D01*
X82145000Y-110996000D02*
X80167000Y-110996000D01*
X86187000Y-111036000D02*
X84225000Y-111036000D01*
X82145000Y-111036000D02*
X80183000Y-111036000D01*
X86171000Y-111076000D02*
X84225000Y-111076000D01*
X82145000Y-111076000D02*
X80199000Y-111076000D01*
X86155000Y-111116000D02*
X84225000Y-111116000D01*
X82145000Y-111116000D02*
X80215000Y-111116000D01*
X86137000Y-111156000D02*
X84225000Y-111156000D01*
X82145000Y-111156000D02*
X80233000Y-111156000D01*
X86119000Y-111196000D02*
X84225000Y-111196000D01*
X82145000Y-111196000D02*
X80251000Y-111196000D01*
X86101000Y-111236000D02*
X84225000Y-111236000D01*
X82145000Y-111236000D02*
X80269000Y-111236000D01*
X86081000Y-111276000D02*
X84225000Y-111276000D01*
X82145000Y-111276000D02*
X80289000Y-111276000D01*
X86061000Y-111316000D02*
X84225000Y-111316000D01*
X82145000Y-111316000D02*
X80309000Y-111316000D01*
X86041000Y-111356000D02*
X84225000Y-111356000D01*
X82145000Y-111356000D02*
X80329000Y-111356000D01*
X86019000Y-111396000D02*
X84225000Y-111396000D01*
X82145000Y-111396000D02*
X80351000Y-111396000D01*
X85997000Y-111436000D02*
X84225000Y-111436000D01*
X82145000Y-111436000D02*
X80373000Y-111436000D01*
X85975000Y-111476000D02*
X84225000Y-111476000D01*
X82145000Y-111476000D02*
X80395000Y-111476000D01*
X85951000Y-111516000D02*
X84225000Y-111516000D01*
X82145000Y-111516000D02*
X80419000Y-111516000D01*
X85927000Y-111556000D02*
X84225000Y-111556000D01*
X82145000Y-111556000D02*
X80443000Y-111556000D01*
X85901000Y-111596000D02*
X84225000Y-111596000D01*
X82145000Y-111596000D02*
X80469000Y-111596000D01*
X85875000Y-111636000D02*
X84225000Y-111636000D01*
X82145000Y-111636000D02*
X80495000Y-111636000D01*
X85849000Y-111676000D02*
X84225000Y-111676000D01*
X82145000Y-111676000D02*
X80521000Y-111676000D01*
X85821000Y-111716000D02*
X84225000Y-111716000D01*
X82145000Y-111716000D02*
X80549000Y-111716000D01*
X85792000Y-111756000D02*
X84225000Y-111756000D01*
X82145000Y-111756000D02*
X80578000Y-111756000D01*
X85763000Y-111796000D02*
X84225000Y-111796000D01*
X82145000Y-111796000D02*
X80607000Y-111796000D01*
X85733000Y-111836000D02*
X84225000Y-111836000D01*
X82145000Y-111836000D02*
X80637000Y-111836000D01*
X85701000Y-111876000D02*
X84225000Y-111876000D01*
X82145000Y-111876000D02*
X80669000Y-111876000D01*
X85669000Y-111916000D02*
X84225000Y-111916000D01*
X82145000Y-111916000D02*
X80701000Y-111916000D01*
X85635000Y-111956000D02*
X84225000Y-111956000D01*
X82145000Y-111956000D02*
X80735000Y-111956000D01*
X85601000Y-111996000D02*
X84225000Y-111996000D01*
X82145000Y-111996000D02*
X80769000Y-111996000D01*
X85565000Y-112036000D02*
X84225000Y-112036000D01*
X82145000Y-112036000D02*
X80805000Y-112036000D01*
X85528000Y-112076000D02*
X84225000Y-112076000D01*
X82145000Y-112076000D02*
X80842000Y-112076000D01*
X85490000Y-112116000D02*
X84225000Y-112116000D01*
X82145000Y-112116000D02*
X80880000Y-112116000D01*
X85450000Y-112156000D02*
X80920000Y-112156000D01*
X85409000Y-112196000D02*
X80961000Y-112196000D01*
X85367000Y-112236000D02*
X81003000Y-112236000D01*
X85322000Y-112276000D02*
X81048000Y-112276000D01*
X85277000Y-112316000D02*
X81093000Y-112316000D01*
X85229000Y-112356000D02*
X81141000Y-112356000D01*
X85180000Y-112396000D02*
X81190000Y-112396000D01*
X85129000Y-112436000D02*
X81241000Y-112436000D01*
X85075000Y-112476000D02*
X81295000Y-112476000D01*
X85019000Y-112516000D02*
X81351000Y-112516000D01*
X84961000Y-112556000D02*
X81409000Y-112556000D01*
X84899000Y-112596000D02*
X81471000Y-112596000D01*
X84835000Y-112636000D02*
X81535000Y-112636000D01*
X84766000Y-112676000D02*
X81604000Y-112676000D01*
X84694000Y-112716000D02*
X81676000Y-112716000D01*
X84617000Y-112756000D02*
X81753000Y-112756000D01*
X84535000Y-112796000D02*
X81835000Y-112796000D01*
X84447000Y-112836000D02*
X81923000Y-112836000D01*
X84350000Y-112876000D02*
X82020000Y-112876000D01*
X84244000Y-112916000D02*
X82126000Y-112916000D01*
X84125000Y-112956000D02*
X82245000Y-112956000D01*
X83987000Y-112996000D02*
X82383000Y-112996000D01*
X83818000Y-113036000D02*
X82552000Y-113036000D01*
X83587000Y-113076000D02*
X82783000Y-113076000D01*
X85024000Y-106334759D02*
X85024000Y-106964759D01*
X85339000Y-106649759D02*
X84709000Y-106649759D01*
X80830000Y-118109538D02*
G75*
G03X86380000Y-119654830I2990000J-462D01*
G01*
X80830000Y-118110462D02*
G75*
G02X86380000Y-116565170I2990000J462D01*
G01*
X86320000Y-118110000D02*
G75*
G03X86320000Y-118110000I-2500000J0D01*
G01*
X86380000Y-119655000D02*
X86380000Y-116565000D01*
X91380000Y-101540000D02*
X91380000Y-104200000D01*
X93980000Y-101540000D02*
X91380000Y-101540000D01*
X93980000Y-104200000D02*
X91380000Y-104200000D01*
X93980000Y-101540000D02*
X93980000Y-104200000D01*
X95250000Y-101540000D02*
X96580000Y-101540000D01*
X96580000Y-101540000D02*
X96580000Y-102870000D01*
X92141522Y-112328478D02*
G75*
G03X96580000Y-110490000I1838478J1838478D01*
G01*
X92141522Y-108651522D02*
G75*
G02X96580000Y-110490000I1838478J-1838478D01*
G01*
X92130000Y-108690000D02*
X92130000Y-112290000D01*
X92130000Y-116945000D02*
X92130000Y-120545000D01*
X92141522Y-116906522D02*
G75*
G02X96580000Y-118745000I1838478J-1838478D01*
G01*
X92141522Y-120583478D02*
G75*
G03X96580000Y-118745000I1838478J1838478D01*
G01*
X87725000Y-103910000D02*
X87725000Y-104240000D01*
X87725000Y-104240000D02*
X81185000Y-104240000D01*
X81185000Y-104240000D02*
X81185000Y-103910000D01*
X87725000Y-101830000D02*
X87725000Y-101500000D01*
X87725000Y-101500000D02*
X81185000Y-101500000D01*
X81185000Y-101500000D02*
X81185000Y-101830000D01*
D11*
X87463333Y-110212142D02*
X87415714Y-110259761D01*
X87272857Y-110307380D01*
X87177619Y-110307380D01*
X87034761Y-110259761D01*
X86939523Y-110164523D01*
X86891904Y-110069285D01*
X86844285Y-109878809D01*
X86844285Y-109735952D01*
X86891904Y-109545476D01*
X86939523Y-109450238D01*
X87034761Y-109355000D01*
X87177619Y-109307380D01*
X87272857Y-109307380D01*
X87415714Y-109355000D01*
X87463333Y-109402619D01*
X88415714Y-110307380D02*
X87844285Y-110307380D01*
X88130000Y-110307380D02*
X88130000Y-109307380D01*
X88034761Y-109450238D01*
X87939523Y-109545476D01*
X87844285Y-109593095D01*
X85621904Y-114752380D02*
X85621904Y-113752380D01*
X85860000Y-113752380D01*
X86002857Y-113800000D01*
X86098095Y-113895238D01*
X86145714Y-113990476D01*
X86193333Y-114180952D01*
X86193333Y-114323809D01*
X86145714Y-114514285D01*
X86098095Y-114609523D01*
X86002857Y-114704761D01*
X85860000Y-114752380D01*
X85621904Y-114752380D01*
X87145714Y-114752380D02*
X86574285Y-114752380D01*
X86860000Y-114752380D02*
X86860000Y-113752380D01*
X86764761Y-113895238D01*
X86669523Y-113990476D01*
X86574285Y-114038095D01*
X93646666Y-104862380D02*
X93646666Y-105576666D01*
X93599047Y-105719523D01*
X93503809Y-105814761D01*
X93360952Y-105862380D01*
X93265714Y-105862380D01*
X94646666Y-105862380D02*
X94075238Y-105862380D01*
X94360952Y-105862380D02*
X94360952Y-104862380D01*
X94265714Y-105005238D01*
X94170476Y-105100476D01*
X94075238Y-105148095D01*
X93884761Y-114847619D02*
X93789523Y-114800000D01*
X93694285Y-114704761D01*
X93551428Y-114561904D01*
X93456190Y-114514285D01*
X93360952Y-114514285D01*
X93408571Y-114752380D02*
X93313333Y-114704761D01*
X93218095Y-114609523D01*
X93170476Y-114419047D01*
X93170476Y-114085714D01*
X93218095Y-113895238D01*
X93313333Y-113800000D01*
X93408571Y-113752380D01*
X93599047Y-113752380D01*
X93694285Y-113800000D01*
X93789523Y-113895238D01*
X93837142Y-114085714D01*
X93837142Y-114419047D01*
X93789523Y-114609523D01*
X93694285Y-114704761D01*
X93599047Y-114752380D01*
X93408571Y-114752380D01*
X94789523Y-114752380D02*
X94218095Y-114752380D01*
X94503809Y-114752380D02*
X94503809Y-113752380D01*
X94408571Y-113895238D01*
X94313333Y-113990476D01*
X94218095Y-114038095D01*
X93884761Y-123102619D02*
X93789523Y-123055000D01*
X93694285Y-122959761D01*
X93551428Y-122816904D01*
X93456190Y-122769285D01*
X93360952Y-122769285D01*
X93408571Y-123007380D02*
X93313333Y-122959761D01*
X93218095Y-122864523D01*
X93170476Y-122674047D01*
X93170476Y-122340714D01*
X93218095Y-122150238D01*
X93313333Y-122055000D01*
X93408571Y-122007380D01*
X93599047Y-122007380D01*
X93694285Y-122055000D01*
X93789523Y-122150238D01*
X93837142Y-122340714D01*
X93837142Y-122674047D01*
X93789523Y-122864523D01*
X93694285Y-122959761D01*
X93599047Y-123007380D01*
X93408571Y-123007380D01*
X94218095Y-122102619D02*
X94265714Y-122055000D01*
X94360952Y-122007380D01*
X94599047Y-122007380D01*
X94694285Y-122055000D01*
X94741904Y-122102619D01*
X94789523Y-122197857D01*
X94789523Y-122293095D01*
X94741904Y-122435952D01*
X94170476Y-123007380D01*
X94789523Y-123007380D01*
X84288333Y-103322380D02*
X83955000Y-102846190D01*
X83716904Y-103322380D02*
X83716904Y-102322380D01*
X84097857Y-102322380D01*
X84193095Y-102370000D01*
X84240714Y-102417619D01*
X84288333Y-102512857D01*
X84288333Y-102655714D01*
X84240714Y-102750952D01*
X84193095Y-102798571D01*
X84097857Y-102846190D01*
X83716904Y-102846190D01*
X85240714Y-103322380D02*
X84669285Y-103322380D01*
X84955000Y-103322380D02*
X84955000Y-102322380D01*
X84859761Y-102465238D01*
X84764523Y-102560476D01*
X84669285Y-102608095D01*
M02*
