G04 #@! TF.GenerationSoftware,KiCad,Pcbnew,(5.1.5)-3*
G04 #@! TF.CreationDate,2020-05-15T17:18:22+09:00*
G04 #@! TF.ProjectId,test1,74657374-312e-46b6-9963-61645f706362,rev?*
G04 #@! TF.SameCoordinates,Original*
G04 #@! TF.FileFunction,Copper,L1,Top*
G04 #@! TF.FilePolarity,Positive*
%FSLAX46Y46*%
G04 Gerber Fmt 4.6, Leading zero omitted, Abs format (unit mm)*
G04 Created by KiCad (PCBNEW (5.1.5)-3) date 2020-05-15 17:18:22*
%MOMM*%
%LPD*%
G04 APERTURE LIST*
%ADD10R,1.600000X1.600000*%
%ADD11C,1.600000*%
%ADD12R,1.800000X1.800000*%
%ADD13C,1.800000*%
%ADD14R,1.700000X1.700000*%
%ADD15O,1.700000X1.700000*%
%ADD16R,1.500000X1.050000*%
%ADD17O,1.500000X1.050000*%
%ADD18O,1.600000X1.600000*%
%ADD19C,0.250000*%
%ADD20C,0.254000*%
G04 APERTURE END LIST*
D10*
X83185000Y-108585000D03*
D11*
X83185000Y-111085000D03*
D12*
X85090000Y-118110000D03*
D13*
X82550000Y-118110000D03*
D14*
X95250000Y-102870000D03*
D15*
X92710000Y-102870000D03*
D16*
X93980000Y-109220000D03*
D17*
X93980000Y-111760000D03*
X93980000Y-110490000D03*
X93980000Y-118745000D03*
X93980000Y-120015000D03*
D16*
X93980000Y-117475000D03*
D11*
X88265000Y-102870000D03*
D18*
X80645000Y-102870000D03*
D19*
X92980000Y-110490000D02*
X93980000Y-110490000D01*
X84235000Y-108585000D02*
X86140000Y-110490000D01*
X86140000Y-110490000D02*
X92980000Y-110490000D01*
X83185000Y-108585000D02*
X84235000Y-108585000D01*
X82135000Y-108585000D02*
X83185000Y-108585000D01*
X80645000Y-107095000D02*
X82135000Y-108585000D01*
X80645000Y-102870000D02*
X80645000Y-107095000D01*
X83185000Y-111085000D02*
X83185000Y-114935000D01*
X82550000Y-115570000D02*
X82550000Y-118110000D01*
X83185000Y-114935000D02*
X82550000Y-115570000D01*
X82550000Y-118110000D02*
X82550000Y-120015000D01*
X82550000Y-120015000D02*
X93980000Y-120015000D01*
X94980000Y-117475000D02*
X97155000Y-115300000D01*
X93980000Y-117475000D02*
X94980000Y-117475000D01*
X97155000Y-107315000D02*
X95250000Y-105410000D01*
X97155000Y-115300000D02*
X97155000Y-107315000D01*
X95250000Y-105410000D02*
X92710000Y-105410000D01*
X92710000Y-105410000D02*
X92710000Y-102870000D01*
X88265000Y-102870000D02*
X92710000Y-102870000D01*
X93980000Y-118745000D02*
X92075000Y-118745000D01*
X92075000Y-112665000D02*
X92980000Y-111760000D01*
X92980000Y-111760000D02*
X93980000Y-111760000D01*
X92075000Y-118745000D02*
X92075000Y-112665000D01*
D20*
G36*
X99568000Y-121158000D02*
G01*
X94433109Y-121158000D01*
X94651060Y-121091885D01*
X94852579Y-120984171D01*
X95029212Y-120839212D01*
X95174171Y-120662579D01*
X95281885Y-120461060D01*
X95348215Y-120242400D01*
X95370612Y-120015000D01*
X95348215Y-119787600D01*
X95281885Y-119568940D01*
X95180895Y-119380000D01*
X95281885Y-119191060D01*
X95348215Y-118972400D01*
X95370612Y-118745000D01*
X95348215Y-118517600D01*
X95284907Y-118308902D01*
X95319502Y-118244180D01*
X95351686Y-118138084D01*
X95404276Y-118109974D01*
X95520001Y-118015001D01*
X95543804Y-117985998D01*
X97666009Y-115863794D01*
X97695001Y-115840001D01*
X97718795Y-115811008D01*
X97718799Y-115811004D01*
X97789973Y-115724277D01*
X97789974Y-115724276D01*
X97860546Y-115592247D01*
X97904003Y-115448986D01*
X97915000Y-115337333D01*
X97915000Y-115337324D01*
X97918676Y-115300001D01*
X97915000Y-115262678D01*
X97915000Y-107352323D01*
X97918676Y-107315000D01*
X97915000Y-107277677D01*
X97915000Y-107277667D01*
X97904003Y-107166014D01*
X97860546Y-107022753D01*
X97789974Y-106890724D01*
X97695001Y-106774999D01*
X97666003Y-106751201D01*
X95813804Y-104899003D01*
X95790001Y-104869999D01*
X95674276Y-104775026D01*
X95542247Y-104704454D01*
X95398986Y-104660997D01*
X95287333Y-104650000D01*
X95287322Y-104650000D01*
X95250000Y-104646324D01*
X95212678Y-104650000D01*
X93470000Y-104650000D01*
X93470000Y-104148178D01*
X93656632Y-104023475D01*
X93788487Y-103891620D01*
X93810498Y-103964180D01*
X93869463Y-104074494D01*
X93948815Y-104171185D01*
X94045506Y-104250537D01*
X94155820Y-104309502D01*
X94275518Y-104345812D01*
X94400000Y-104358072D01*
X94964250Y-104355000D01*
X95123000Y-104196250D01*
X95123000Y-102997000D01*
X95377000Y-102997000D01*
X95377000Y-104196250D01*
X95535750Y-104355000D01*
X96100000Y-104358072D01*
X96224482Y-104345812D01*
X96344180Y-104309502D01*
X96454494Y-104250537D01*
X96551185Y-104171185D01*
X96630537Y-104074494D01*
X96689502Y-103964180D01*
X96725812Y-103844482D01*
X96738072Y-103720000D01*
X96735000Y-103155750D01*
X96576250Y-102997000D01*
X95377000Y-102997000D01*
X95123000Y-102997000D01*
X95103000Y-102997000D01*
X95103000Y-102743000D01*
X95123000Y-102743000D01*
X95123000Y-101543750D01*
X95377000Y-101543750D01*
X95377000Y-102743000D01*
X96576250Y-102743000D01*
X96735000Y-102584250D01*
X96738072Y-102020000D01*
X96725812Y-101895518D01*
X96689502Y-101775820D01*
X96630537Y-101665506D01*
X96551185Y-101568815D01*
X96454494Y-101489463D01*
X96344180Y-101430498D01*
X96224482Y-101394188D01*
X96100000Y-101381928D01*
X95535750Y-101385000D01*
X95377000Y-101543750D01*
X95123000Y-101543750D01*
X94964250Y-101385000D01*
X94400000Y-101381928D01*
X94275518Y-101394188D01*
X94155820Y-101430498D01*
X94045506Y-101489463D01*
X93948815Y-101568815D01*
X93869463Y-101665506D01*
X93810498Y-101775820D01*
X93788487Y-101848380D01*
X93656632Y-101716525D01*
X93413411Y-101554010D01*
X93143158Y-101442068D01*
X92856260Y-101385000D01*
X92563740Y-101385000D01*
X92276842Y-101442068D01*
X92006589Y-101554010D01*
X91763368Y-101716525D01*
X91556525Y-101923368D01*
X91431822Y-102110000D01*
X89483043Y-102110000D01*
X89379637Y-101955241D01*
X89179759Y-101755363D01*
X88944727Y-101598320D01*
X88683574Y-101490147D01*
X88406335Y-101435000D01*
X88123665Y-101435000D01*
X87846426Y-101490147D01*
X87585273Y-101598320D01*
X87350241Y-101755363D01*
X87150363Y-101955241D01*
X86993320Y-102190273D01*
X86885147Y-102451426D01*
X86830000Y-102728665D01*
X86830000Y-103011335D01*
X86885147Y-103288574D01*
X86993320Y-103549727D01*
X87150363Y-103784759D01*
X87350241Y-103984637D01*
X87585273Y-104141680D01*
X87846426Y-104249853D01*
X88123665Y-104305000D01*
X88406335Y-104305000D01*
X88683574Y-104249853D01*
X88944727Y-104141680D01*
X89179759Y-103984637D01*
X89379637Y-103784759D01*
X89483043Y-103630000D01*
X91431822Y-103630000D01*
X91556525Y-103816632D01*
X91763368Y-104023475D01*
X91950000Y-104148179D01*
X91950000Y-105372667D01*
X91946323Y-105410000D01*
X91960997Y-105558986D01*
X92004454Y-105702247D01*
X92075026Y-105834276D01*
X92146200Y-105921002D01*
X92169999Y-105950001D01*
X92285724Y-106044974D01*
X92417753Y-106115546D01*
X92561014Y-106159003D01*
X92710000Y-106173677D01*
X92747333Y-106170000D01*
X94935199Y-106170000D01*
X96395001Y-107629803D01*
X96395000Y-114985197D01*
X95003844Y-116376354D01*
X94974180Y-116360498D01*
X94854482Y-116324188D01*
X94730000Y-116311928D01*
X93230000Y-116311928D01*
X93105518Y-116324188D01*
X92985820Y-116360498D01*
X92875506Y-116419463D01*
X92835000Y-116452705D01*
X92835000Y-112979801D01*
X93095453Y-112719349D01*
X93107421Y-112729171D01*
X93308940Y-112836885D01*
X93527600Y-112903215D01*
X93698021Y-112920000D01*
X94261979Y-112920000D01*
X94432400Y-112903215D01*
X94651060Y-112836885D01*
X94852579Y-112729171D01*
X95029212Y-112584212D01*
X95174171Y-112407579D01*
X95281885Y-112206060D01*
X95348215Y-111987400D01*
X95370612Y-111760000D01*
X95348215Y-111532600D01*
X95281885Y-111313940D01*
X95180895Y-111125000D01*
X95281885Y-110936060D01*
X95348215Y-110717400D01*
X95370612Y-110490000D01*
X95348215Y-110262600D01*
X95284907Y-110053902D01*
X95319502Y-109989180D01*
X95355812Y-109869482D01*
X95368072Y-109745000D01*
X95365000Y-109505750D01*
X95206250Y-109347000D01*
X94433109Y-109347000D01*
X94432400Y-109346785D01*
X94261979Y-109330000D01*
X93698021Y-109330000D01*
X93527600Y-109346785D01*
X93526891Y-109347000D01*
X92753750Y-109347000D01*
X92595000Y-109505750D01*
X92592121Y-109730000D01*
X86454802Y-109730000D01*
X85419802Y-108695000D01*
X92591928Y-108695000D01*
X92595000Y-108934250D01*
X92753750Y-109093000D01*
X93853000Y-109093000D01*
X93853000Y-108218750D01*
X94107000Y-108218750D01*
X94107000Y-109093000D01*
X95206250Y-109093000D01*
X95365000Y-108934250D01*
X95368072Y-108695000D01*
X95355812Y-108570518D01*
X95319502Y-108450820D01*
X95260537Y-108340506D01*
X95181185Y-108243815D01*
X95084494Y-108164463D01*
X94974180Y-108105498D01*
X94854482Y-108069188D01*
X94730000Y-108056928D01*
X94265750Y-108060000D01*
X94107000Y-108218750D01*
X93853000Y-108218750D01*
X93694250Y-108060000D01*
X93230000Y-108056928D01*
X93105518Y-108069188D01*
X92985820Y-108105498D01*
X92875506Y-108164463D01*
X92778815Y-108243815D01*
X92699463Y-108340506D01*
X92640498Y-108450820D01*
X92604188Y-108570518D01*
X92591928Y-108695000D01*
X85419802Y-108695000D01*
X84798804Y-108074003D01*
X84775001Y-108044999D01*
X84659276Y-107950026D01*
X84623072Y-107930674D01*
X84623072Y-107785000D01*
X84610812Y-107660518D01*
X84574502Y-107540820D01*
X84515537Y-107430506D01*
X84436185Y-107333815D01*
X84339494Y-107254463D01*
X84229180Y-107195498D01*
X84109482Y-107159188D01*
X83985000Y-107146928D01*
X82385000Y-107146928D01*
X82260518Y-107159188D01*
X82140820Y-107195498D01*
X82030506Y-107254463D01*
X81947437Y-107322636D01*
X81405000Y-106780199D01*
X81405000Y-104088043D01*
X81559759Y-103984637D01*
X81759637Y-103784759D01*
X81916680Y-103549727D01*
X82024853Y-103288574D01*
X82080000Y-103011335D01*
X82080000Y-102728665D01*
X82024853Y-102451426D01*
X81916680Y-102190273D01*
X81759637Y-101955241D01*
X81559759Y-101755363D01*
X81324727Y-101598320D01*
X81063574Y-101490147D01*
X80786335Y-101435000D01*
X80503665Y-101435000D01*
X80226426Y-101490147D01*
X79965273Y-101598320D01*
X79730241Y-101755363D01*
X79530363Y-101955241D01*
X79502000Y-101997689D01*
X79502000Y-101092000D01*
X99568000Y-101092000D01*
X99568000Y-121158000D01*
G37*
X99568000Y-121158000D02*
X94433109Y-121158000D01*
X94651060Y-121091885D01*
X94852579Y-120984171D01*
X95029212Y-120839212D01*
X95174171Y-120662579D01*
X95281885Y-120461060D01*
X95348215Y-120242400D01*
X95370612Y-120015000D01*
X95348215Y-119787600D01*
X95281885Y-119568940D01*
X95180895Y-119380000D01*
X95281885Y-119191060D01*
X95348215Y-118972400D01*
X95370612Y-118745000D01*
X95348215Y-118517600D01*
X95284907Y-118308902D01*
X95319502Y-118244180D01*
X95351686Y-118138084D01*
X95404276Y-118109974D01*
X95520001Y-118015001D01*
X95543804Y-117985998D01*
X97666009Y-115863794D01*
X97695001Y-115840001D01*
X97718795Y-115811008D01*
X97718799Y-115811004D01*
X97789973Y-115724277D01*
X97789974Y-115724276D01*
X97860546Y-115592247D01*
X97904003Y-115448986D01*
X97915000Y-115337333D01*
X97915000Y-115337324D01*
X97918676Y-115300001D01*
X97915000Y-115262678D01*
X97915000Y-107352323D01*
X97918676Y-107315000D01*
X97915000Y-107277677D01*
X97915000Y-107277667D01*
X97904003Y-107166014D01*
X97860546Y-107022753D01*
X97789974Y-106890724D01*
X97695001Y-106774999D01*
X97666003Y-106751201D01*
X95813804Y-104899003D01*
X95790001Y-104869999D01*
X95674276Y-104775026D01*
X95542247Y-104704454D01*
X95398986Y-104660997D01*
X95287333Y-104650000D01*
X95287322Y-104650000D01*
X95250000Y-104646324D01*
X95212678Y-104650000D01*
X93470000Y-104650000D01*
X93470000Y-104148178D01*
X93656632Y-104023475D01*
X93788487Y-103891620D01*
X93810498Y-103964180D01*
X93869463Y-104074494D01*
X93948815Y-104171185D01*
X94045506Y-104250537D01*
X94155820Y-104309502D01*
X94275518Y-104345812D01*
X94400000Y-104358072D01*
X94964250Y-104355000D01*
X95123000Y-104196250D01*
X95123000Y-102997000D01*
X95377000Y-102997000D01*
X95377000Y-104196250D01*
X95535750Y-104355000D01*
X96100000Y-104358072D01*
X96224482Y-104345812D01*
X96344180Y-104309502D01*
X96454494Y-104250537D01*
X96551185Y-104171185D01*
X96630537Y-104074494D01*
X96689502Y-103964180D01*
X96725812Y-103844482D01*
X96738072Y-103720000D01*
X96735000Y-103155750D01*
X96576250Y-102997000D01*
X95377000Y-102997000D01*
X95123000Y-102997000D01*
X95103000Y-102997000D01*
X95103000Y-102743000D01*
X95123000Y-102743000D01*
X95123000Y-101543750D01*
X95377000Y-101543750D01*
X95377000Y-102743000D01*
X96576250Y-102743000D01*
X96735000Y-102584250D01*
X96738072Y-102020000D01*
X96725812Y-101895518D01*
X96689502Y-101775820D01*
X96630537Y-101665506D01*
X96551185Y-101568815D01*
X96454494Y-101489463D01*
X96344180Y-101430498D01*
X96224482Y-101394188D01*
X96100000Y-101381928D01*
X95535750Y-101385000D01*
X95377000Y-101543750D01*
X95123000Y-101543750D01*
X94964250Y-101385000D01*
X94400000Y-101381928D01*
X94275518Y-101394188D01*
X94155820Y-101430498D01*
X94045506Y-101489463D01*
X93948815Y-101568815D01*
X93869463Y-101665506D01*
X93810498Y-101775820D01*
X93788487Y-101848380D01*
X93656632Y-101716525D01*
X93413411Y-101554010D01*
X93143158Y-101442068D01*
X92856260Y-101385000D01*
X92563740Y-101385000D01*
X92276842Y-101442068D01*
X92006589Y-101554010D01*
X91763368Y-101716525D01*
X91556525Y-101923368D01*
X91431822Y-102110000D01*
X89483043Y-102110000D01*
X89379637Y-101955241D01*
X89179759Y-101755363D01*
X88944727Y-101598320D01*
X88683574Y-101490147D01*
X88406335Y-101435000D01*
X88123665Y-101435000D01*
X87846426Y-101490147D01*
X87585273Y-101598320D01*
X87350241Y-101755363D01*
X87150363Y-101955241D01*
X86993320Y-102190273D01*
X86885147Y-102451426D01*
X86830000Y-102728665D01*
X86830000Y-103011335D01*
X86885147Y-103288574D01*
X86993320Y-103549727D01*
X87150363Y-103784759D01*
X87350241Y-103984637D01*
X87585273Y-104141680D01*
X87846426Y-104249853D01*
X88123665Y-104305000D01*
X88406335Y-104305000D01*
X88683574Y-104249853D01*
X88944727Y-104141680D01*
X89179759Y-103984637D01*
X89379637Y-103784759D01*
X89483043Y-103630000D01*
X91431822Y-103630000D01*
X91556525Y-103816632D01*
X91763368Y-104023475D01*
X91950000Y-104148179D01*
X91950000Y-105372667D01*
X91946323Y-105410000D01*
X91960997Y-105558986D01*
X92004454Y-105702247D01*
X92075026Y-105834276D01*
X92146200Y-105921002D01*
X92169999Y-105950001D01*
X92285724Y-106044974D01*
X92417753Y-106115546D01*
X92561014Y-106159003D01*
X92710000Y-106173677D01*
X92747333Y-106170000D01*
X94935199Y-106170000D01*
X96395001Y-107629803D01*
X96395000Y-114985197D01*
X95003844Y-116376354D01*
X94974180Y-116360498D01*
X94854482Y-116324188D01*
X94730000Y-116311928D01*
X93230000Y-116311928D01*
X93105518Y-116324188D01*
X92985820Y-116360498D01*
X92875506Y-116419463D01*
X92835000Y-116452705D01*
X92835000Y-112979801D01*
X93095453Y-112719349D01*
X93107421Y-112729171D01*
X93308940Y-112836885D01*
X93527600Y-112903215D01*
X93698021Y-112920000D01*
X94261979Y-112920000D01*
X94432400Y-112903215D01*
X94651060Y-112836885D01*
X94852579Y-112729171D01*
X95029212Y-112584212D01*
X95174171Y-112407579D01*
X95281885Y-112206060D01*
X95348215Y-111987400D01*
X95370612Y-111760000D01*
X95348215Y-111532600D01*
X95281885Y-111313940D01*
X95180895Y-111125000D01*
X95281885Y-110936060D01*
X95348215Y-110717400D01*
X95370612Y-110490000D01*
X95348215Y-110262600D01*
X95284907Y-110053902D01*
X95319502Y-109989180D01*
X95355812Y-109869482D01*
X95368072Y-109745000D01*
X95365000Y-109505750D01*
X95206250Y-109347000D01*
X94433109Y-109347000D01*
X94432400Y-109346785D01*
X94261979Y-109330000D01*
X93698021Y-109330000D01*
X93527600Y-109346785D01*
X93526891Y-109347000D01*
X92753750Y-109347000D01*
X92595000Y-109505750D01*
X92592121Y-109730000D01*
X86454802Y-109730000D01*
X85419802Y-108695000D01*
X92591928Y-108695000D01*
X92595000Y-108934250D01*
X92753750Y-109093000D01*
X93853000Y-109093000D01*
X93853000Y-108218750D01*
X94107000Y-108218750D01*
X94107000Y-109093000D01*
X95206250Y-109093000D01*
X95365000Y-108934250D01*
X95368072Y-108695000D01*
X95355812Y-108570518D01*
X95319502Y-108450820D01*
X95260537Y-108340506D01*
X95181185Y-108243815D01*
X95084494Y-108164463D01*
X94974180Y-108105498D01*
X94854482Y-108069188D01*
X94730000Y-108056928D01*
X94265750Y-108060000D01*
X94107000Y-108218750D01*
X93853000Y-108218750D01*
X93694250Y-108060000D01*
X93230000Y-108056928D01*
X93105518Y-108069188D01*
X92985820Y-108105498D01*
X92875506Y-108164463D01*
X92778815Y-108243815D01*
X92699463Y-108340506D01*
X92640498Y-108450820D01*
X92604188Y-108570518D01*
X92591928Y-108695000D01*
X85419802Y-108695000D01*
X84798804Y-108074003D01*
X84775001Y-108044999D01*
X84659276Y-107950026D01*
X84623072Y-107930674D01*
X84623072Y-107785000D01*
X84610812Y-107660518D01*
X84574502Y-107540820D01*
X84515537Y-107430506D01*
X84436185Y-107333815D01*
X84339494Y-107254463D01*
X84229180Y-107195498D01*
X84109482Y-107159188D01*
X83985000Y-107146928D01*
X82385000Y-107146928D01*
X82260518Y-107159188D01*
X82140820Y-107195498D01*
X82030506Y-107254463D01*
X81947437Y-107322636D01*
X81405000Y-106780199D01*
X81405000Y-104088043D01*
X81559759Y-103984637D01*
X81759637Y-103784759D01*
X81916680Y-103549727D01*
X82024853Y-103288574D01*
X82080000Y-103011335D01*
X82080000Y-102728665D01*
X82024853Y-102451426D01*
X81916680Y-102190273D01*
X81759637Y-101955241D01*
X81559759Y-101755363D01*
X81324727Y-101598320D01*
X81063574Y-101490147D01*
X80786335Y-101435000D01*
X80503665Y-101435000D01*
X80226426Y-101490147D01*
X79965273Y-101598320D01*
X79730241Y-101755363D01*
X79530363Y-101955241D01*
X79502000Y-101997689D01*
X79502000Y-101092000D01*
X99568000Y-101092000D01*
X99568000Y-121158000D01*
G36*
X85576201Y-111001003D02*
G01*
X85599999Y-111030001D01*
X85715724Y-111124974D01*
X85847753Y-111195546D01*
X85991014Y-111239003D01*
X86102667Y-111250000D01*
X86102677Y-111250000D01*
X86140000Y-111253676D01*
X86177323Y-111250000D01*
X92415198Y-111250000D01*
X91563998Y-112101201D01*
X91535000Y-112124999D01*
X91511202Y-112153997D01*
X91511201Y-112153998D01*
X91440026Y-112240724D01*
X91369454Y-112372754D01*
X91341517Y-112464853D01*
X91325998Y-112516014D01*
X91319281Y-112584212D01*
X91311324Y-112665000D01*
X91315001Y-112702332D01*
X91315000Y-118707667D01*
X91311323Y-118745000D01*
X91325997Y-118893986D01*
X91369454Y-119037247D01*
X91440026Y-119169276D01*
X91457904Y-119191060D01*
X91510378Y-119255000D01*
X86579064Y-119255000D01*
X86579502Y-119254180D01*
X86615812Y-119134482D01*
X86628072Y-119010000D01*
X86625000Y-118395750D01*
X86466250Y-118237000D01*
X85217000Y-118237000D01*
X85217000Y-118257000D01*
X84963000Y-118257000D01*
X84963000Y-118237000D01*
X84943000Y-118237000D01*
X84943000Y-117983000D01*
X84963000Y-117983000D01*
X84963000Y-116733750D01*
X85217000Y-116733750D01*
X85217000Y-117983000D01*
X86466250Y-117983000D01*
X86625000Y-117824250D01*
X86628072Y-117210000D01*
X86615812Y-117085518D01*
X86579502Y-116965820D01*
X86520537Y-116855506D01*
X86441185Y-116758815D01*
X86344494Y-116679463D01*
X86234180Y-116620498D01*
X86114482Y-116584188D01*
X85990000Y-116571928D01*
X85375750Y-116575000D01*
X85217000Y-116733750D01*
X84963000Y-116733750D01*
X84804250Y-116575000D01*
X84190000Y-116571928D01*
X84065518Y-116584188D01*
X83945820Y-116620498D01*
X83835506Y-116679463D01*
X83738815Y-116758815D01*
X83659463Y-116855506D01*
X83600498Y-116965820D01*
X83594944Y-116984127D01*
X83528505Y-116917688D01*
X83310000Y-116771687D01*
X83310000Y-115884801D01*
X83696002Y-115498800D01*
X83725001Y-115475001D01*
X83819974Y-115359276D01*
X83890546Y-115227247D01*
X83934003Y-115083986D01*
X83945000Y-114972333D01*
X83948677Y-114935000D01*
X83945000Y-114897667D01*
X83945000Y-112303043D01*
X84099759Y-112199637D01*
X84299637Y-111999759D01*
X84456680Y-111764727D01*
X84564853Y-111503574D01*
X84620000Y-111226335D01*
X84620000Y-110943665D01*
X84564853Y-110666426D01*
X84456680Y-110405273D01*
X84299637Y-110170241D01*
X84133057Y-110003661D01*
X84229180Y-109974502D01*
X84339494Y-109915537D01*
X84422563Y-109847364D01*
X85576201Y-111001003D01*
G37*
X85576201Y-111001003D02*
X85599999Y-111030001D01*
X85715724Y-111124974D01*
X85847753Y-111195546D01*
X85991014Y-111239003D01*
X86102667Y-111250000D01*
X86102677Y-111250000D01*
X86140000Y-111253676D01*
X86177323Y-111250000D01*
X92415198Y-111250000D01*
X91563998Y-112101201D01*
X91535000Y-112124999D01*
X91511202Y-112153997D01*
X91511201Y-112153998D01*
X91440026Y-112240724D01*
X91369454Y-112372754D01*
X91341517Y-112464853D01*
X91325998Y-112516014D01*
X91319281Y-112584212D01*
X91311324Y-112665000D01*
X91315001Y-112702332D01*
X91315000Y-118707667D01*
X91311323Y-118745000D01*
X91325997Y-118893986D01*
X91369454Y-119037247D01*
X91440026Y-119169276D01*
X91457904Y-119191060D01*
X91510378Y-119255000D01*
X86579064Y-119255000D01*
X86579502Y-119254180D01*
X86615812Y-119134482D01*
X86628072Y-119010000D01*
X86625000Y-118395750D01*
X86466250Y-118237000D01*
X85217000Y-118237000D01*
X85217000Y-118257000D01*
X84963000Y-118257000D01*
X84963000Y-118237000D01*
X84943000Y-118237000D01*
X84943000Y-117983000D01*
X84963000Y-117983000D01*
X84963000Y-116733750D01*
X85217000Y-116733750D01*
X85217000Y-117983000D01*
X86466250Y-117983000D01*
X86625000Y-117824250D01*
X86628072Y-117210000D01*
X86615812Y-117085518D01*
X86579502Y-116965820D01*
X86520537Y-116855506D01*
X86441185Y-116758815D01*
X86344494Y-116679463D01*
X86234180Y-116620498D01*
X86114482Y-116584188D01*
X85990000Y-116571928D01*
X85375750Y-116575000D01*
X85217000Y-116733750D01*
X84963000Y-116733750D01*
X84804250Y-116575000D01*
X84190000Y-116571928D01*
X84065518Y-116584188D01*
X83945820Y-116620498D01*
X83835506Y-116679463D01*
X83738815Y-116758815D01*
X83659463Y-116855506D01*
X83600498Y-116965820D01*
X83594944Y-116984127D01*
X83528505Y-116917688D01*
X83310000Y-116771687D01*
X83310000Y-115884801D01*
X83696002Y-115498800D01*
X83725001Y-115475001D01*
X83819974Y-115359276D01*
X83890546Y-115227247D01*
X83934003Y-115083986D01*
X83945000Y-114972333D01*
X83948677Y-114935000D01*
X83945000Y-114897667D01*
X83945000Y-112303043D01*
X84099759Y-112199637D01*
X84299637Y-111999759D01*
X84456680Y-111764727D01*
X84564853Y-111503574D01*
X84620000Y-111226335D01*
X84620000Y-110943665D01*
X84564853Y-110666426D01*
X84456680Y-110405273D01*
X84299637Y-110170241D01*
X84133057Y-110003661D01*
X84229180Y-109974502D01*
X84339494Y-109915537D01*
X84422563Y-109847364D01*
X85576201Y-111001003D01*
M02*
