G04 #@! TF.GenerationSoftware,KiCad,Pcbnew,(5.1.6)-1*
G04 #@! TF.CreationDate,2020-05-28T14:34:21+09:00*
G04 #@! TF.ProjectId,FMU3_Power_make,464d5533-5f50-46f7-9765-725f6d616b65,rev?*
G04 #@! TF.SameCoordinates,Original*
G04 #@! TF.FileFunction,Soldermask,Top*
G04 #@! TF.FilePolarity,Negative*
%FSLAX46Y46*%
G04 Gerber Fmt 4.6, Leading zero omitted, Abs format (unit mm)*
G04 Created by KiCad (PCBNEW (5.1.6)-1) date 2020-05-28 14:34:21*
%MOMM*%
%LPD*%
G01*
G04 APERTURE LIST*
%ADD10C,0.100000*%
G04 APERTURE END LIST*
D10*
G36*
X118831000Y-59271000D02*
G01*
X116229000Y-59271000D01*
X116229000Y-57669000D01*
X118831000Y-57669000D01*
X118831000Y-59271000D01*
G37*
G36*
X115176000Y-58346000D02*
G01*
X113914000Y-58346000D01*
X113914000Y-56774000D01*
X115176000Y-56774000D01*
X115176000Y-58346000D01*
G37*
G36*
X113426000Y-58346000D02*
G01*
X112164000Y-58346000D01*
X112164000Y-56774000D01*
X113426000Y-56774000D01*
X113426000Y-58346000D01*
G37*
G36*
X108860170Y-56755803D02*
G01*
X108871875Y-56759354D01*
X108882665Y-56765121D01*
X108892119Y-56772881D01*
X108899879Y-56782335D01*
X108905646Y-56793125D01*
X108909197Y-56804830D01*
X108911000Y-56823138D01*
X108911000Y-57336862D01*
X108909197Y-57355170D01*
X108905646Y-57366875D01*
X108899879Y-57377665D01*
X108892119Y-57387119D01*
X108882665Y-57394879D01*
X108871875Y-57400646D01*
X108860170Y-57404197D01*
X108841862Y-57406000D01*
X108478138Y-57406000D01*
X108459830Y-57404197D01*
X108448125Y-57400646D01*
X108437335Y-57394879D01*
X108427881Y-57387119D01*
X108420121Y-57377665D01*
X108414354Y-57366875D01*
X108410803Y-57355170D01*
X108409000Y-57336862D01*
X108409000Y-56823138D01*
X108410803Y-56804830D01*
X108414354Y-56793125D01*
X108420121Y-56782335D01*
X108427881Y-56772881D01*
X108437335Y-56765121D01*
X108448125Y-56759354D01*
X108459830Y-56755803D01*
X108478138Y-56754000D01*
X108841862Y-56754000D01*
X108860170Y-56755803D01*
G37*
G36*
X109720170Y-56755803D02*
G01*
X109731875Y-56759354D01*
X109742665Y-56765121D01*
X109752119Y-56772881D01*
X109759879Y-56782335D01*
X109765646Y-56793125D01*
X109769197Y-56804830D01*
X109771000Y-56823138D01*
X109771000Y-57336862D01*
X109769197Y-57355170D01*
X109765646Y-57366875D01*
X109759879Y-57377665D01*
X109752119Y-57387119D01*
X109742665Y-57394879D01*
X109731875Y-57400646D01*
X109720170Y-57404197D01*
X109701862Y-57406000D01*
X109338138Y-57406000D01*
X109319830Y-57404197D01*
X109308125Y-57400646D01*
X109297335Y-57394879D01*
X109287881Y-57387119D01*
X109280121Y-57377665D01*
X109274354Y-57366875D01*
X109270803Y-57355170D01*
X109269000Y-57336862D01*
X109269000Y-56823138D01*
X109270803Y-56804830D01*
X109274354Y-56793125D01*
X109280121Y-56782335D01*
X109287881Y-56772881D01*
X109297335Y-56765121D01*
X109308125Y-56759354D01*
X109319830Y-56755803D01*
X109338138Y-56754000D01*
X109701862Y-56754000D01*
X109720170Y-56755803D01*
G37*
G36*
X111605800Y-56872200D02*
G01*
X110894200Y-56872200D01*
X110894200Y-56313000D01*
X111605800Y-56313000D01*
X111605800Y-56872200D01*
G37*
G36*
X118831000Y-56771000D02*
G01*
X116229000Y-56771000D01*
X116229000Y-55169000D01*
X118831000Y-55169000D01*
X118831000Y-56771000D01*
G37*
G36*
X104581000Y-56691000D02*
G01*
X101979000Y-56691000D01*
X101979000Y-55089000D01*
X104581000Y-55089000D01*
X104581000Y-56691000D01*
G37*
G36*
X113561000Y-56331000D02*
G01*
X112059000Y-56331000D01*
X112059000Y-55629000D01*
X113561000Y-55629000D01*
X113561000Y-56331000D01*
G37*
G36*
X111605800Y-55907000D02*
G01*
X110894200Y-55907000D01*
X110894200Y-55347800D01*
X111605800Y-55347800D01*
X111605800Y-55907000D01*
G37*
G36*
X108011000Y-54034001D02*
G01*
X108013402Y-54058387D01*
X108020515Y-54081836D01*
X108032066Y-54103447D01*
X108047611Y-54122389D01*
X108066553Y-54137934D01*
X108088164Y-54149485D01*
X108111613Y-54156598D01*
X108135999Y-54159000D01*
X108964001Y-54159000D01*
X108988387Y-54156598D01*
X109011836Y-54149485D01*
X109033447Y-54137934D01*
X109052389Y-54122389D01*
X109067934Y-54103447D01*
X109079485Y-54081836D01*
X109086598Y-54058387D01*
X109089000Y-54034001D01*
X109089000Y-53874000D01*
X109951000Y-53874000D01*
X109951000Y-55746000D01*
X109089000Y-55746000D01*
X109089000Y-55585999D01*
X109086598Y-55561613D01*
X109079485Y-55538164D01*
X109067934Y-55516553D01*
X109052389Y-55497611D01*
X109033447Y-55482066D01*
X109011836Y-55470515D01*
X108988387Y-55463402D01*
X108964001Y-55461000D01*
X108135999Y-55461000D01*
X108111613Y-55463402D01*
X108088164Y-55470515D01*
X108066553Y-55482066D01*
X108047611Y-55497611D01*
X108032066Y-55516553D01*
X108020515Y-55538164D01*
X108013402Y-55561613D01*
X108011000Y-55585999D01*
X108011000Y-55746000D01*
X107149000Y-55746000D01*
X107149000Y-53874000D01*
X108011000Y-53874000D01*
X108011000Y-54034001D01*
G37*
G36*
X115091000Y-55141000D02*
G01*
X113889000Y-55141000D01*
X113889000Y-54039000D01*
X115091000Y-54039000D01*
X115091000Y-55141000D01*
G37*
G36*
X113391000Y-55141000D02*
G01*
X112189000Y-55141000D01*
X112189000Y-54039000D01*
X113391000Y-54039000D01*
X113391000Y-55141000D01*
G37*
G36*
X104581000Y-54291000D02*
G01*
X101979000Y-54291000D01*
X101979000Y-52689000D01*
X104581000Y-52689000D01*
X104581000Y-54291000D01*
G37*
G36*
X118831000Y-54271000D02*
G01*
X116229000Y-54271000D01*
X116229000Y-52669000D01*
X118831000Y-52669000D01*
X118831000Y-54271000D01*
G37*
G36*
X109861000Y-52891000D02*
G01*
X109159000Y-52891000D01*
X109159000Y-51389000D01*
X109861000Y-51389000D01*
X109861000Y-52891000D01*
G37*
G36*
X107231000Y-52861000D02*
G01*
X105729000Y-52861000D01*
X105729000Y-52159000D01*
X107231000Y-52159000D01*
X107231000Y-52861000D01*
G37*
G36*
X112286000Y-52806000D02*
G01*
X110714000Y-52806000D01*
X110714000Y-51544000D01*
X112286000Y-51544000D01*
X112286000Y-52806000D01*
G37*
G36*
X104581000Y-51791000D02*
G01*
X101979000Y-51791000D01*
X101979000Y-50189000D01*
X104581000Y-50189000D01*
X104581000Y-51791000D01*
G37*
G36*
X118831000Y-51771000D02*
G01*
X116229000Y-51771000D01*
X116229000Y-50169000D01*
X118831000Y-50169000D01*
X118831000Y-51771000D01*
G37*
G36*
X108374000Y-51721000D02*
G01*
X107172000Y-51721000D01*
X107172000Y-50239000D01*
X108374000Y-50239000D01*
X108374000Y-51721000D01*
G37*
G36*
X106648000Y-51721000D02*
G01*
X105446000Y-51721000D01*
X105446000Y-50239000D01*
X106648000Y-50239000D01*
X106648000Y-51721000D01*
G37*
G36*
X112286000Y-51056000D02*
G01*
X110714000Y-51056000D01*
X110714000Y-49794000D01*
X112286000Y-49794000D01*
X112286000Y-51056000D01*
G37*
M02*
