G04 #@! TF.GenerationSoftware,KiCad,Pcbnew,(5.1.5)-3*
G04 #@! TF.CreationDate,2020-05-25T14:18:06+09:00*
G04 #@! TF.ProjectId,FMU3_Power_make,464d5533-5f50-46f7-9765-725f6d616b65,rev?*
G04 #@! TF.SameCoordinates,Original*
G04 #@! TF.FileFunction,Legend,Top*
G04 #@! TF.FilePolarity,Positive*
%FSLAX46Y46*%
G04 Gerber Fmt 4.6, Leading zero omitted, Abs format (unit mm)*
G04 Created by KiCad (PCBNEW (5.1.5)-3) date 2020-05-25 14:18:06*
%MOMM*%
%LPD*%
G04 APERTURE LIST*
%ADD10C,0.127000*%
%ADD11C,0.120000*%
%ADD12C,0.050000*%
%ADD13C,0.200000*%
G04 APERTURE END LIST*
D10*
X106480000Y-53700000D02*
X106480000Y-52700000D01*
X105520000Y-52700000D02*
X105520000Y-53700000D01*
D11*
X106375000Y-50450000D02*
X107675000Y-50450000D01*
X106350000Y-52050000D02*
X107675000Y-52050000D01*
X110550000Y-57050000D02*
X110550000Y-57450000D01*
X109850000Y-57050000D02*
X109850000Y-57450000D01*
D10*
X112000000Y-53550000D02*
X112300000Y-53550000D01*
X112000000Y-54450000D02*
X112300000Y-54450000D01*
X110720000Y-55500000D02*
X110720000Y-56500000D01*
X111680000Y-56500000D02*
X111680000Y-55500000D01*
D11*
X111950000Y-57350000D02*
X111950000Y-56250000D01*
X113750000Y-56250000D02*
X113750000Y-57350000D01*
D10*
X109045000Y-50900000D02*
X109045000Y-51900000D01*
X110005000Y-51900000D02*
X110005000Y-50900000D01*
D11*
X111500000Y-50375000D02*
X112600000Y-50375000D01*
X112600000Y-52175000D02*
X111500000Y-52175000D01*
X104650000Y-52000000D02*
X104650000Y-52500000D01*
X102150000Y-54500000D02*
X102150000Y-55000000D01*
X102150000Y-50150000D02*
X104650000Y-50150000D01*
X102150000Y-52000000D02*
X102150000Y-52500000D01*
X104650000Y-54500000D02*
X104650000Y-55000000D01*
X117500000Y-51950000D02*
X117500000Y-52450000D01*
X115000000Y-56950000D02*
X115000000Y-57450000D01*
X117500000Y-56950000D02*
X117500000Y-57450000D01*
X115000000Y-54450000D02*
X115000000Y-54950000D01*
X115000000Y-50100000D02*
X117500000Y-50100000D01*
X115000000Y-51950000D02*
X115000000Y-52450000D01*
X117500000Y-54450000D02*
X117500000Y-54950000D01*
D12*
X107710000Y-56260000D02*
X107710000Y-56760000D01*
X107310000Y-56760000D02*
X107310000Y-56260000D01*
D10*
X107470000Y-53050000D02*
X109530000Y-53050000D01*
X109530000Y-55450000D02*
X107470000Y-55450000D01*
D13*
X106950000Y-53200000D02*
G75*
G03X106950000Y-53200000I-100000J0D01*
G01*
D12*
X105166666Y-52571428D02*
X105157142Y-52580952D01*
X105128571Y-52590476D01*
X105109523Y-52590476D01*
X105080952Y-52580952D01*
X105061904Y-52561904D01*
X105052380Y-52542857D01*
X105042857Y-52504761D01*
X105042857Y-52476190D01*
X105052380Y-52438095D01*
X105061904Y-52419047D01*
X105080952Y-52400000D01*
X105109523Y-52390476D01*
X105128571Y-52390476D01*
X105157142Y-52400000D01*
X105166666Y-52409523D01*
X105357142Y-52590476D02*
X105242857Y-52590476D01*
X105300000Y-52590476D02*
X105300000Y-52390476D01*
X105280952Y-52419047D01*
X105261904Y-52438095D01*
X105242857Y-52447619D01*
X105466666Y-50171428D02*
X105457142Y-50180952D01*
X105428571Y-50190476D01*
X105409523Y-50190476D01*
X105380952Y-50180952D01*
X105361904Y-50161904D01*
X105352380Y-50142857D01*
X105342857Y-50104761D01*
X105342857Y-50076190D01*
X105352380Y-50038095D01*
X105361904Y-50019047D01*
X105380952Y-50000000D01*
X105409523Y-49990476D01*
X105428571Y-49990476D01*
X105457142Y-50000000D01*
X105466666Y-50009523D01*
X105542857Y-50009523D02*
X105552380Y-50000000D01*
X105571428Y-49990476D01*
X105619047Y-49990476D01*
X105638095Y-50000000D01*
X105647619Y-50009523D01*
X105657142Y-50028571D01*
X105657142Y-50047619D01*
X105647619Y-50076190D01*
X105533333Y-50190476D01*
X105657142Y-50190476D01*
X109766666Y-56271428D02*
X109757142Y-56280952D01*
X109728571Y-56290476D01*
X109709523Y-56290476D01*
X109680952Y-56280952D01*
X109661904Y-56261904D01*
X109652380Y-56242857D01*
X109642857Y-56204761D01*
X109642857Y-56176190D01*
X109652380Y-56138095D01*
X109661904Y-56119047D01*
X109680952Y-56100000D01*
X109709523Y-56090476D01*
X109728571Y-56090476D01*
X109757142Y-56100000D01*
X109766666Y-56109523D01*
X109833333Y-56090476D02*
X109957142Y-56090476D01*
X109890476Y-56166666D01*
X109919047Y-56166666D01*
X109938095Y-56176190D01*
X109947619Y-56185714D01*
X109957142Y-56204761D01*
X109957142Y-56252380D01*
X109947619Y-56271428D01*
X109938095Y-56280952D01*
X109919047Y-56290476D01*
X109861904Y-56290476D01*
X109842857Y-56280952D01*
X109833333Y-56271428D01*
X110566666Y-53071428D02*
X110557142Y-53080952D01*
X110528571Y-53090476D01*
X110509523Y-53090476D01*
X110480952Y-53080952D01*
X110461904Y-53061904D01*
X110452380Y-53042857D01*
X110442857Y-53004761D01*
X110442857Y-52976190D01*
X110452380Y-52938095D01*
X110461904Y-52919047D01*
X110480952Y-52900000D01*
X110509523Y-52890476D01*
X110528571Y-52890476D01*
X110557142Y-52900000D01*
X110566666Y-52909523D01*
X110738095Y-52957142D02*
X110738095Y-53090476D01*
X110690476Y-52880952D02*
X110642857Y-53023809D01*
X110766666Y-53023809D01*
X110766666Y-55071428D02*
X110757142Y-55080952D01*
X110728571Y-55090476D01*
X110709523Y-55090476D01*
X110680952Y-55080952D01*
X110661904Y-55061904D01*
X110652380Y-55042857D01*
X110642857Y-55004761D01*
X110642857Y-54976190D01*
X110652380Y-54938095D01*
X110661904Y-54919047D01*
X110680952Y-54900000D01*
X110709523Y-54890476D01*
X110728571Y-54890476D01*
X110757142Y-54900000D01*
X110766666Y-54909523D01*
X110947619Y-54890476D02*
X110852380Y-54890476D01*
X110842857Y-54985714D01*
X110852380Y-54976190D01*
X110871428Y-54966666D01*
X110919047Y-54966666D01*
X110938095Y-54976190D01*
X110947619Y-54985714D01*
X110957142Y-55004761D01*
X110957142Y-55052380D01*
X110947619Y-55071428D01*
X110938095Y-55080952D01*
X110919047Y-55090476D01*
X110871428Y-55090476D01*
X110852380Y-55080952D01*
X110842857Y-55071428D01*
X111966666Y-55071428D02*
X111957142Y-55080952D01*
X111928571Y-55090476D01*
X111909523Y-55090476D01*
X111880952Y-55080952D01*
X111861904Y-55061904D01*
X111852380Y-55042857D01*
X111842857Y-55004761D01*
X111842857Y-54976190D01*
X111852380Y-54938095D01*
X111861904Y-54919047D01*
X111880952Y-54900000D01*
X111909523Y-54890476D01*
X111928571Y-54890476D01*
X111957142Y-54900000D01*
X111966666Y-54909523D01*
X112138095Y-54890476D02*
X112100000Y-54890476D01*
X112080952Y-54900000D01*
X112071428Y-54909523D01*
X112052380Y-54938095D01*
X112042857Y-54976190D01*
X112042857Y-55052380D01*
X112052380Y-55071428D01*
X112061904Y-55080952D01*
X112080952Y-55090476D01*
X112119047Y-55090476D01*
X112138095Y-55080952D01*
X112147619Y-55071428D01*
X112157142Y-55052380D01*
X112157142Y-55004761D01*
X112147619Y-54985714D01*
X112138095Y-54976190D01*
X112119047Y-54966666D01*
X112080952Y-54966666D01*
X112061904Y-54976190D01*
X112052380Y-54985714D01*
X112042857Y-55004761D01*
X109066666Y-50471428D02*
X109057142Y-50480952D01*
X109028571Y-50490476D01*
X109009523Y-50490476D01*
X108980952Y-50480952D01*
X108961904Y-50461904D01*
X108952380Y-50442857D01*
X108942857Y-50404761D01*
X108942857Y-50376190D01*
X108952380Y-50338095D01*
X108961904Y-50319047D01*
X108980952Y-50300000D01*
X109009523Y-50290476D01*
X109028571Y-50290476D01*
X109057142Y-50300000D01*
X109066666Y-50309523D01*
X109133333Y-50290476D02*
X109266666Y-50290476D01*
X109180952Y-50490476D01*
X110466666Y-50146428D02*
X110457142Y-50155952D01*
X110428571Y-50165476D01*
X110409523Y-50165476D01*
X110380952Y-50155952D01*
X110361904Y-50136904D01*
X110352380Y-50117857D01*
X110342857Y-50079761D01*
X110342857Y-50051190D01*
X110352380Y-50013095D01*
X110361904Y-49994047D01*
X110380952Y-49975000D01*
X110409523Y-49965476D01*
X110428571Y-49965476D01*
X110457142Y-49975000D01*
X110466666Y-49984523D01*
X110580952Y-50051190D02*
X110561904Y-50041666D01*
X110552380Y-50032142D01*
X110542857Y-50013095D01*
X110542857Y-50003571D01*
X110552380Y-49984523D01*
X110561904Y-49975000D01*
X110580952Y-49965476D01*
X110619047Y-49965476D01*
X110638095Y-49975000D01*
X110647619Y-49984523D01*
X110657142Y-50003571D01*
X110657142Y-50013095D01*
X110647619Y-50032142D01*
X110638095Y-50041666D01*
X110619047Y-50051190D01*
X110580952Y-50051190D01*
X110561904Y-50060714D01*
X110552380Y-50070238D01*
X110542857Y-50089285D01*
X110542857Y-50127380D01*
X110552380Y-50146428D01*
X110561904Y-50155952D01*
X110580952Y-50165476D01*
X110619047Y-50165476D01*
X110638095Y-50155952D01*
X110647619Y-50146428D01*
X110657142Y-50127380D01*
X110657142Y-50089285D01*
X110647619Y-50070238D01*
X110638095Y-50060714D01*
X110619047Y-50051190D01*
X102133333Y-49590476D02*
X102133333Y-49733333D01*
X102123809Y-49761904D01*
X102104761Y-49780952D01*
X102076190Y-49790476D01*
X102057142Y-49790476D01*
X102333333Y-49790476D02*
X102219047Y-49790476D01*
X102276190Y-49790476D02*
X102276190Y-49590476D01*
X102257142Y-49619047D01*
X102238095Y-49638095D01*
X102219047Y-49647619D01*
X115033333Y-49640476D02*
X115033333Y-49783333D01*
X115023809Y-49811904D01*
X115004761Y-49830952D01*
X114976190Y-49840476D01*
X114957142Y-49840476D01*
X115119047Y-49659523D02*
X115128571Y-49650000D01*
X115147619Y-49640476D01*
X115195238Y-49640476D01*
X115214285Y-49650000D01*
X115223809Y-49659523D01*
X115233333Y-49678571D01*
X115233333Y-49697619D01*
X115223809Y-49726190D01*
X115109523Y-49840476D01*
X115233333Y-49840476D01*
X106866666Y-55990476D02*
X106800000Y-55895238D01*
X106752380Y-55990476D02*
X106752380Y-55790476D01*
X106828571Y-55790476D01*
X106847619Y-55800000D01*
X106857142Y-55809523D01*
X106866666Y-55828571D01*
X106866666Y-55857142D01*
X106857142Y-55876190D01*
X106847619Y-55885714D01*
X106828571Y-55895238D01*
X106752380Y-55895238D01*
X107057142Y-55990476D02*
X106942857Y-55990476D01*
X107000000Y-55990476D02*
X107000000Y-55790476D01*
X106980952Y-55819047D01*
X106961904Y-55838095D01*
X106942857Y-55847619D01*
X106947619Y-52590476D02*
X106947619Y-52752380D01*
X106957142Y-52771428D01*
X106966666Y-52780952D01*
X106985714Y-52790476D01*
X107023809Y-52790476D01*
X107042857Y-52780952D01*
X107052380Y-52771428D01*
X107061904Y-52752380D01*
X107061904Y-52590476D01*
X107261904Y-52790476D02*
X107147619Y-52790476D01*
X107204761Y-52790476D02*
X107204761Y-52590476D01*
X107185714Y-52619047D01*
X107166666Y-52638095D01*
X107147619Y-52647619D01*
M02*
