G04 #@! TF.GenerationSoftware,KiCad,Pcbnew,(5.1.6)-1*
G04 #@! TF.CreationDate,2020-05-28T14:34:21+09:00*
G04 #@! TF.ProjectId,FMU3_Power_make,464d5533-5f50-46f7-9765-725f6d616b65,rev?*
G04 #@! TF.SameCoordinates,Original*
G04 #@! TF.FileFunction,Paste,Top*
G04 #@! TF.FilePolarity,Positive*
%FSLAX46Y46*%
G04 Gerber Fmt 4.6, Leading zero omitted, Abs format (unit mm)*
G04 Created by KiCad (PCBNEW (5.1.6)-1) date 2020-05-28 14:34:21*
%MOMM*%
%LPD*%
G01*
G04 APERTURE LIST*
%ADD10C,0.010000*%
%ADD11R,0.600000X0.540000*%
%ADD12R,0.540000X0.600000*%
%ADD13R,2.500000X1.500000*%
%ADD14R,1.100000X1.380000*%
%ADD15R,0.609600X0.457200*%
%ADD16R,1.100000X1.000000*%
%ADD17R,1.160000X1.470000*%
%ADD18R,1.470000X1.160000*%
%ADD19R,0.760000X0.270000*%
G04 APERTURE END LIST*
D10*
G36*
X108365000Y-54325000D02*
G01*
X108735000Y-54325000D01*
X108735000Y-55295000D01*
X108365000Y-55295000D01*
X108365000Y-54325000D01*
G37*
X108365000Y-54325000D02*
X108735000Y-54325000D01*
X108735000Y-55295000D01*
X108365000Y-55295000D01*
X108365000Y-54325000D01*
D11*
X109510000Y-52570000D03*
X109510000Y-51710000D03*
G36*
G01*
X109720000Y-56905000D02*
X109720000Y-57255000D01*
G75*
G02*
X109620000Y-57355000I-100000J0D01*
G01*
X109420000Y-57355000D01*
G75*
G02*
X109320000Y-57255000I0J100000D01*
G01*
X109320000Y-56905000D01*
G75*
G02*
X109420000Y-56805000I100000J0D01*
G01*
X109620000Y-56805000D01*
G75*
G02*
X109720000Y-56905000I0J-100000D01*
G01*
G37*
G36*
G01*
X108860000Y-56905000D02*
X108860000Y-57255000D01*
G75*
G02*
X108760000Y-57355000I-100000J0D01*
G01*
X108560000Y-57355000D01*
G75*
G02*
X108460000Y-57255000I0J100000D01*
G01*
X108460000Y-56905000D01*
G75*
G02*
X108560000Y-56805000I100000J0D01*
G01*
X108760000Y-56805000D01*
G75*
G02*
X108860000Y-56905000I0J-100000D01*
G01*
G37*
D12*
X113240000Y-55980000D03*
X112380000Y-55980000D03*
D13*
X117530000Y-53470000D03*
X117530000Y-55970000D03*
X117530000Y-50970000D03*
X117530000Y-58470000D03*
D12*
X106050000Y-52510000D03*
X106910000Y-52510000D03*
D14*
X106047000Y-50980000D03*
X107773000Y-50980000D03*
D15*
X111250000Y-55627400D03*
X111250000Y-56592600D03*
D16*
X112790000Y-54590000D03*
X114490000Y-54590000D03*
D17*
X114545000Y-57560000D03*
X112795000Y-57560000D03*
D18*
X111500000Y-52175000D03*
X111500000Y-50425000D03*
D13*
X103280000Y-53490000D03*
X103280000Y-55890000D03*
X103280000Y-50990000D03*
D19*
X107580000Y-54060000D03*
X107580000Y-54560000D03*
X107580000Y-55060000D03*
X107580000Y-55560000D03*
X109520000Y-55560000D03*
X109520000Y-55060000D03*
X109520000Y-54560000D03*
X109520000Y-54060000D03*
M02*
