G04 #@! TF.GenerationSoftware,KiCad,Pcbnew,(5.1.5)-3*
G04 #@! TF.CreationDate,2020-05-22T09:47:08+09:00*
G04 #@! TF.ProjectId,FMU3_Power_make,464d5533-5f50-46f7-9765-725f6d616b65,rev?*
G04 #@! TF.SameCoordinates,Original*
G04 #@! TF.FileFunction,Soldermask,Top*
G04 #@! TF.FilePolarity,Negative*
%FSLAX46Y46*%
G04 Gerber Fmt 4.6, Leading zero omitted, Abs format (unit mm)*
G04 Created by KiCad (PCBNEW (5.1.5)-3) date 2020-05-22 09:47:08*
%MOMM*%
%LPD*%
G04 APERTURE LIST*
%ADD10C,0.100000*%
G04 APERTURE END LIST*
D10*
G36*
X110451000Y-59401000D02*
G01*
X107849000Y-59401000D01*
X107849000Y-57799000D01*
X110451000Y-57799000D01*
X110451000Y-59401000D01*
G37*
G36*
X106486000Y-58036000D02*
G01*
X104914000Y-58036000D01*
X104914000Y-56774000D01*
X106486000Y-56774000D01*
X106486000Y-58036000D01*
G37*
G36*
X100535355Y-57315083D02*
G01*
X100540029Y-57316501D01*
X100544331Y-57318800D01*
X100548104Y-57321896D01*
X100551200Y-57325669D01*
X100553499Y-57329971D01*
X100554917Y-57334645D01*
X100556000Y-57345641D01*
X100556000Y-57634359D01*
X100554917Y-57645355D01*
X100553499Y-57650029D01*
X100551200Y-57654331D01*
X100548104Y-57658104D01*
X100544331Y-57661200D01*
X100540029Y-57663499D01*
X100535355Y-57664917D01*
X100524359Y-57666000D01*
X99935641Y-57666000D01*
X99924645Y-57664917D01*
X99919971Y-57663499D01*
X99915669Y-57661200D01*
X99911896Y-57658104D01*
X99908800Y-57654331D01*
X99906501Y-57650029D01*
X99905083Y-57645355D01*
X99904000Y-57634359D01*
X99904000Y-57345641D01*
X99905083Y-57334645D01*
X99906501Y-57329971D01*
X99908800Y-57325669D01*
X99911896Y-57321896D01*
X99915669Y-57318800D01*
X99919971Y-57316501D01*
X99924645Y-57315083D01*
X99935641Y-57314000D01*
X100524359Y-57314000D01*
X100535355Y-57315083D01*
G37*
G36*
X103235800Y-57522200D02*
G01*
X102524200Y-57522200D01*
X102524200Y-56963000D01*
X103235800Y-56963000D01*
X103235800Y-57522200D01*
G37*
G36*
X110451000Y-56901000D02*
G01*
X107849000Y-56901000D01*
X107849000Y-55299000D01*
X110451000Y-55299000D01*
X110451000Y-56901000D01*
G37*
G36*
X100535355Y-56455083D02*
G01*
X100540029Y-56456501D01*
X100544331Y-56458800D01*
X100548104Y-56461896D01*
X100551200Y-56465669D01*
X100553499Y-56469971D01*
X100554917Y-56474645D01*
X100556000Y-56485641D01*
X100556000Y-56774359D01*
X100554917Y-56785355D01*
X100553499Y-56790029D01*
X100551200Y-56794331D01*
X100548104Y-56798104D01*
X100544331Y-56801200D01*
X100540029Y-56803499D01*
X100535355Y-56804917D01*
X100524359Y-56806000D01*
X99935641Y-56806000D01*
X99924645Y-56804917D01*
X99919971Y-56803499D01*
X99915669Y-56801200D01*
X99911896Y-56798104D01*
X99908800Y-56794331D01*
X99906501Y-56790029D01*
X99905083Y-56785355D01*
X99904000Y-56774359D01*
X99904000Y-56485641D01*
X99905083Y-56474645D01*
X99906501Y-56469971D01*
X99908800Y-56465669D01*
X99911896Y-56461896D01*
X99915669Y-56458800D01*
X99919971Y-56456501D01*
X99924645Y-56455083D01*
X99935641Y-56454000D01*
X100524359Y-56454000D01*
X100535355Y-56455083D01*
G37*
G36*
X96601000Y-56801000D02*
G01*
X93999000Y-56801000D01*
X93999000Y-55199000D01*
X96601000Y-55199000D01*
X96601000Y-56801000D01*
G37*
G36*
X103235800Y-56557000D02*
G01*
X102524200Y-56557000D01*
X102524200Y-55997800D01*
X103235800Y-55997800D01*
X103235800Y-56557000D01*
G37*
G36*
X104351000Y-56451000D02*
G01*
X103649000Y-56451000D01*
X103649000Y-54949000D01*
X104351000Y-54949000D01*
X104351000Y-56451000D01*
G37*
G36*
X106486000Y-56286000D02*
G01*
X104914000Y-56286000D01*
X104914000Y-55024000D01*
X106486000Y-55024000D01*
X106486000Y-56286000D01*
G37*
G36*
X100661000Y-53574001D02*
G01*
X100663402Y-53598387D01*
X100670515Y-53621836D01*
X100682066Y-53643447D01*
X100697611Y-53662389D01*
X100716553Y-53677934D01*
X100738164Y-53689485D01*
X100761613Y-53696598D01*
X100785999Y-53699000D01*
X101614001Y-53699000D01*
X101638387Y-53696598D01*
X101661836Y-53689485D01*
X101683447Y-53677934D01*
X101702389Y-53662389D01*
X101717934Y-53643447D01*
X101729485Y-53621836D01*
X101736598Y-53598387D01*
X101739000Y-53574001D01*
X101739000Y-53414000D01*
X102601000Y-53414000D01*
X102601000Y-55286000D01*
X101739000Y-55286000D01*
X101739000Y-55125999D01*
X101736598Y-55101613D01*
X101729485Y-55078164D01*
X101717934Y-55056553D01*
X101702389Y-55037611D01*
X101683447Y-55022066D01*
X101661836Y-55010515D01*
X101638387Y-55003402D01*
X101614001Y-55001000D01*
X100785999Y-55001000D01*
X100761613Y-55003402D01*
X100738164Y-55010515D01*
X100716553Y-55022066D01*
X100697611Y-55037611D01*
X100682066Y-55056553D01*
X100670515Y-55078164D01*
X100663402Y-55101613D01*
X100661000Y-55125999D01*
X100661000Y-55286000D01*
X99799000Y-55286000D01*
X99799000Y-53414000D01*
X100661000Y-53414000D01*
X100661000Y-53574001D01*
G37*
G36*
X110451000Y-54401000D02*
G01*
X107849000Y-54401000D01*
X107849000Y-52799000D01*
X110451000Y-52799000D01*
X110451000Y-54401000D01*
G37*
G36*
X96601000Y-54401000D02*
G01*
X93999000Y-54401000D01*
X93999000Y-52799000D01*
X96601000Y-52799000D01*
X96601000Y-54401000D01*
G37*
G36*
X106351000Y-54381000D02*
G01*
X105149000Y-54381000D01*
X105149000Y-53279000D01*
X106351000Y-53279000D01*
X106351000Y-54381000D01*
G37*
G36*
X104651000Y-54381000D02*
G01*
X103449000Y-54381000D01*
X103449000Y-53279000D01*
X104651000Y-53279000D01*
X104651000Y-54381000D01*
G37*
G36*
X98591000Y-53581000D02*
G01*
X97089000Y-53581000D01*
X97089000Y-52879000D01*
X98591000Y-52879000D01*
X98591000Y-53581000D01*
G37*
G36*
X100991000Y-52714000D02*
G01*
X99509000Y-52714000D01*
X99509000Y-51512000D01*
X100991000Y-51512000D01*
X100991000Y-52714000D01*
G37*
G36*
X98472591Y-50131581D02*
G01*
X98491885Y-50137434D01*
X98509675Y-50146943D01*
X98525264Y-50159736D01*
X98538057Y-50175325D01*
X98547566Y-50193115D01*
X98553419Y-50212409D01*
X98556000Y-50238620D01*
X98556000Y-50721380D01*
X98553419Y-50747591D01*
X98547566Y-50766885D01*
X98538057Y-50784675D01*
X98525264Y-50800263D01*
X98516599Y-50807374D01*
X98499272Y-50824701D01*
X98485658Y-50845075D01*
X98476280Y-50867714D01*
X98471499Y-50891747D01*
X98471499Y-50916251D01*
X98476279Y-50940285D01*
X98485656Y-50962924D01*
X98499269Y-50983298D01*
X98516596Y-51000625D01*
X98536970Y-51014239D01*
X98559609Y-51023617D01*
X98583642Y-51028398D01*
X98595896Y-51029000D01*
X98786862Y-51029000D01*
X98805170Y-51030803D01*
X98816875Y-51034354D01*
X98827665Y-51040121D01*
X98837119Y-51047881D01*
X98844879Y-51057335D01*
X98850646Y-51068125D01*
X98854197Y-51079830D01*
X98856000Y-51098138D01*
X98856000Y-51461862D01*
X98854197Y-51480170D01*
X98850646Y-51491875D01*
X98844879Y-51502665D01*
X98837119Y-51512119D01*
X98827665Y-51519879D01*
X98816875Y-51525646D01*
X98805170Y-51529197D01*
X98786862Y-51531000D01*
X98595896Y-51531000D01*
X98571510Y-51533402D01*
X98548061Y-51540515D01*
X98526450Y-51552066D01*
X98507508Y-51567611D01*
X98491963Y-51586553D01*
X98480412Y-51608164D01*
X98473299Y-51631613D01*
X98470897Y-51655999D01*
X98473299Y-51680385D01*
X98480412Y-51703834D01*
X98491963Y-51725445D01*
X98507508Y-51744387D01*
X98516599Y-51752626D01*
X98525264Y-51759737D01*
X98538057Y-51775325D01*
X98547566Y-51793115D01*
X98553419Y-51812409D01*
X98556000Y-51838620D01*
X98556000Y-52321380D01*
X98553419Y-52347591D01*
X98547566Y-52366885D01*
X98538057Y-52384675D01*
X98525264Y-52400264D01*
X98509675Y-52413057D01*
X98491885Y-52422566D01*
X98472591Y-52428419D01*
X98446380Y-52431000D01*
X97963620Y-52431000D01*
X97937409Y-52428419D01*
X97918115Y-52422566D01*
X97900325Y-52413057D01*
X97884736Y-52400264D01*
X97871943Y-52384675D01*
X97862434Y-52366885D01*
X97856581Y-52347591D01*
X97854000Y-52321380D01*
X97854000Y-51838620D01*
X97856581Y-51812409D01*
X97862434Y-51793115D01*
X97871943Y-51775325D01*
X97884736Y-51759737D01*
X97893401Y-51752626D01*
X97910728Y-51735299D01*
X97924342Y-51714925D01*
X97933720Y-51692286D01*
X97938501Y-51668253D01*
X97938501Y-51643749D01*
X97933721Y-51619715D01*
X97924344Y-51597076D01*
X97910731Y-51576702D01*
X97893404Y-51559375D01*
X97873030Y-51545761D01*
X97850391Y-51536383D01*
X97826358Y-51531602D01*
X97814104Y-51531000D01*
X97623138Y-51531000D01*
X97604830Y-51529197D01*
X97593125Y-51525646D01*
X97582335Y-51519879D01*
X97572881Y-51512119D01*
X97565121Y-51502665D01*
X97559354Y-51491875D01*
X97555803Y-51480170D01*
X97554000Y-51461862D01*
X97554000Y-51098138D01*
X97555803Y-51079830D01*
X97559354Y-51068125D01*
X97565121Y-51057335D01*
X97572881Y-51047881D01*
X97582335Y-51040121D01*
X97593125Y-51034354D01*
X97604830Y-51030803D01*
X97623138Y-51029000D01*
X97814104Y-51029000D01*
X97838490Y-51026598D01*
X97861939Y-51019485D01*
X97883550Y-51007934D01*
X97902492Y-50992389D01*
X97918037Y-50973447D01*
X97927362Y-50955999D01*
X97997200Y-50955999D01*
X97999602Y-50980385D01*
X98006715Y-51003834D01*
X98018266Y-51025445D01*
X98033811Y-51044387D01*
X98035533Y-51045948D01*
X98044879Y-51057335D01*
X98050646Y-51068125D01*
X98054197Y-51079830D01*
X98056000Y-51098138D01*
X98056000Y-51461862D01*
X98054197Y-51480170D01*
X98050646Y-51491875D01*
X98044879Y-51502665D01*
X98032372Y-51517904D01*
X98025574Y-51524702D01*
X98011960Y-51545076D01*
X98002583Y-51567715D01*
X97997802Y-51591748D01*
X97997802Y-51616252D01*
X98002582Y-51640285D01*
X98011959Y-51662924D01*
X98025573Y-51683299D01*
X98042900Y-51700626D01*
X98063274Y-51714240D01*
X98085913Y-51723617D01*
X98109946Y-51728398D01*
X98122199Y-51729000D01*
X98287801Y-51729000D01*
X98312187Y-51726598D01*
X98335636Y-51719485D01*
X98357247Y-51707934D01*
X98376189Y-51692389D01*
X98391734Y-51673447D01*
X98403285Y-51651836D01*
X98410398Y-51628387D01*
X98412800Y-51604001D01*
X98410398Y-51579615D01*
X98403285Y-51556166D01*
X98391734Y-51534555D01*
X98376189Y-51515613D01*
X98374467Y-51514052D01*
X98365121Y-51502665D01*
X98359354Y-51491875D01*
X98355803Y-51480170D01*
X98354000Y-51461862D01*
X98354000Y-51098138D01*
X98355803Y-51079830D01*
X98359354Y-51068125D01*
X98365121Y-51057335D01*
X98377628Y-51042096D01*
X98384426Y-51035298D01*
X98398040Y-51014924D01*
X98407417Y-50992285D01*
X98412198Y-50968252D01*
X98412198Y-50943748D01*
X98407418Y-50919715D01*
X98398041Y-50897076D01*
X98384427Y-50876701D01*
X98367100Y-50859374D01*
X98346726Y-50845760D01*
X98324087Y-50836383D01*
X98300054Y-50831602D01*
X98287801Y-50831000D01*
X98122199Y-50831000D01*
X98097813Y-50833402D01*
X98074364Y-50840515D01*
X98052753Y-50852066D01*
X98033811Y-50867611D01*
X98018266Y-50886553D01*
X98006715Y-50908164D01*
X97999602Y-50931613D01*
X97997200Y-50955999D01*
X97927362Y-50955999D01*
X97929588Y-50951836D01*
X97936701Y-50928387D01*
X97939103Y-50904001D01*
X97936701Y-50879615D01*
X97929588Y-50856166D01*
X97918037Y-50834555D01*
X97902492Y-50815613D01*
X97893401Y-50807374D01*
X97884736Y-50800263D01*
X97871943Y-50784675D01*
X97862434Y-50766885D01*
X97856581Y-50747591D01*
X97854000Y-50721380D01*
X97854000Y-50238620D01*
X97856581Y-50212409D01*
X97862434Y-50193115D01*
X97871943Y-50175325D01*
X97884736Y-50159736D01*
X97900325Y-50146943D01*
X97918115Y-50137434D01*
X97937409Y-50131581D01*
X97963620Y-50129000D01*
X98446380Y-50129000D01*
X98472591Y-50131581D01*
G37*
G36*
X102851000Y-52251000D02*
G01*
X102149000Y-52251000D01*
X102149000Y-50749000D01*
X102851000Y-50749000D01*
X102851000Y-52251000D01*
G37*
G36*
X110451000Y-51901000D02*
G01*
X107849000Y-51901000D01*
X107849000Y-50299000D01*
X110451000Y-50299000D01*
X110451000Y-51901000D01*
G37*
G36*
X96601000Y-51901000D02*
G01*
X93999000Y-51901000D01*
X93999000Y-50299000D01*
X96601000Y-50299000D01*
X96601000Y-51901000D01*
G37*
G36*
X104886000Y-51866000D02*
G01*
X103624000Y-51866000D01*
X103624000Y-50294000D01*
X104886000Y-50294000D01*
X104886000Y-51866000D01*
G37*
G36*
X106636000Y-51866000D02*
G01*
X105374000Y-51866000D01*
X105374000Y-50294000D01*
X106636000Y-50294000D01*
X106636000Y-51866000D01*
G37*
G36*
X100991000Y-50988000D02*
G01*
X99509000Y-50988000D01*
X99509000Y-49786000D01*
X100991000Y-49786000D01*
X100991000Y-50988000D01*
G37*
M02*
