G04 #@! TF.GenerationSoftware,KiCad,Pcbnew,(5.1.5)-3*
G04 #@! TF.CreationDate,2020-05-26T17:41:33+09:00*
G04 #@! TF.ProjectId,FMU3_Power_make,464d5533-5f50-46f7-9765-725f6d616b65,rev?*
G04 #@! TF.SameCoordinates,Original*
G04 #@! TF.FileFunction,Copper,L2,Bot*
G04 #@! TF.FilePolarity,Positive*
%FSLAX46Y46*%
G04 Gerber Fmt 4.6, Leading zero omitted, Abs format (unit mm)*
G04 Created by KiCad (PCBNEW (5.1.5)-3) date 2020-05-26 17:41:33*
%MOMM*%
%LPD*%
G04 APERTURE LIST*
%ADD10C,0.800000*%
%ADD11C,0.250000*%
G04 APERTURE END LIST*
D10*
X103400000Y-57800000D03*
X114240000Y-54000000D03*
X108510000Y-52540000D03*
X103400000Y-54549998D03*
X106030000Y-56940000D03*
X114340000Y-55950000D03*
X106047348Y-54502654D03*
D11*
X106030000Y-56940000D02*
X103639998Y-54549998D01*
X103639998Y-54549998D02*
X103400000Y-54549998D01*
X107494694Y-55950000D02*
X114340000Y-55950000D01*
X106047348Y-54502654D02*
X107494694Y-55950000D01*
G36*
X117850001Y-59600000D02*
G01*
X101900000Y-59600000D01*
X101900000Y-54473667D01*
X102625000Y-54473667D01*
X102625000Y-54626329D01*
X102654783Y-54776057D01*
X102713204Y-54917098D01*
X102798018Y-55044032D01*
X102905966Y-55151980D01*
X103032900Y-55236794D01*
X103173941Y-55295215D01*
X103323669Y-55324998D01*
X103476331Y-55324998D01*
X103626059Y-55295215D01*
X103662864Y-55279970D01*
X105255000Y-56872107D01*
X105255000Y-57016331D01*
X105284783Y-57166059D01*
X105343204Y-57307100D01*
X105428018Y-57434034D01*
X105535966Y-57541982D01*
X105662900Y-57626796D01*
X105803941Y-57685217D01*
X105953669Y-57715000D01*
X106106331Y-57715000D01*
X106256059Y-57685217D01*
X106397100Y-57626796D01*
X106524034Y-57541982D01*
X106631982Y-57434034D01*
X106716796Y-57307100D01*
X106775217Y-57166059D01*
X106805000Y-57016331D01*
X106805000Y-56863669D01*
X106775217Y-56713941D01*
X106716796Y-56572900D01*
X106631982Y-56445966D01*
X106524034Y-56338018D01*
X106397100Y-56253204D01*
X106256059Y-56194783D01*
X106106331Y-56165000D01*
X105962107Y-56165000D01*
X104223429Y-54426323D01*
X105272348Y-54426323D01*
X105272348Y-54578985D01*
X105302131Y-54728713D01*
X105360552Y-54869754D01*
X105445366Y-54996688D01*
X105553314Y-55104636D01*
X105680248Y-55189450D01*
X105821289Y-55247871D01*
X105971017Y-55277654D01*
X106115242Y-55277654D01*
X107123774Y-56286187D01*
X107139430Y-56305264D01*
X107215565Y-56367746D01*
X107302427Y-56414175D01*
X107396677Y-56442765D01*
X107470134Y-56450000D01*
X107470143Y-56450000D01*
X107494693Y-56452418D01*
X107519243Y-56450000D01*
X113743984Y-56450000D01*
X113845966Y-56551982D01*
X113972900Y-56636796D01*
X114113941Y-56695217D01*
X114263669Y-56725000D01*
X114416331Y-56725000D01*
X114566059Y-56695217D01*
X114707100Y-56636796D01*
X114834034Y-56551982D01*
X114941982Y-56444034D01*
X115026796Y-56317100D01*
X115085217Y-56176059D01*
X115115000Y-56026331D01*
X115115000Y-55873669D01*
X115085217Y-55723941D01*
X115026796Y-55582900D01*
X114941982Y-55455966D01*
X114834034Y-55348018D01*
X114707100Y-55263204D01*
X114566059Y-55204783D01*
X114416331Y-55175000D01*
X114263669Y-55175000D01*
X114113941Y-55204783D01*
X113972900Y-55263204D01*
X113845966Y-55348018D01*
X113743984Y-55450000D01*
X107701801Y-55450000D01*
X106822348Y-54570548D01*
X106822348Y-54426323D01*
X106792565Y-54276595D01*
X106734144Y-54135554D01*
X106649330Y-54008620D01*
X106541382Y-53900672D01*
X106414448Y-53815858D01*
X106273407Y-53757437D01*
X106123679Y-53727654D01*
X105971017Y-53727654D01*
X105821289Y-53757437D01*
X105680248Y-53815858D01*
X105553314Y-53900672D01*
X105445366Y-54008620D01*
X105360552Y-54135554D01*
X105302131Y-54276595D01*
X105272348Y-54426323D01*
X104223429Y-54426323D01*
X104151219Y-54354114D01*
X104145217Y-54323939D01*
X104086796Y-54182898D01*
X104001982Y-54055964D01*
X103894034Y-53948016D01*
X103767100Y-53863202D01*
X103626059Y-53804781D01*
X103476331Y-53774998D01*
X103323669Y-53774998D01*
X103173941Y-53804781D01*
X103032900Y-53863202D01*
X102905966Y-53948016D01*
X102798018Y-54055964D01*
X102713204Y-54182898D01*
X102654783Y-54323939D01*
X102625000Y-54473667D01*
X101900000Y-54473667D01*
X101900000Y-49900000D01*
X117850000Y-49900000D01*
X117850001Y-59600000D01*
G37*
X117850001Y-59600000D02*
X101900000Y-59600000D01*
X101900000Y-54473667D01*
X102625000Y-54473667D01*
X102625000Y-54626329D01*
X102654783Y-54776057D01*
X102713204Y-54917098D01*
X102798018Y-55044032D01*
X102905966Y-55151980D01*
X103032900Y-55236794D01*
X103173941Y-55295215D01*
X103323669Y-55324998D01*
X103476331Y-55324998D01*
X103626059Y-55295215D01*
X103662864Y-55279970D01*
X105255000Y-56872107D01*
X105255000Y-57016331D01*
X105284783Y-57166059D01*
X105343204Y-57307100D01*
X105428018Y-57434034D01*
X105535966Y-57541982D01*
X105662900Y-57626796D01*
X105803941Y-57685217D01*
X105953669Y-57715000D01*
X106106331Y-57715000D01*
X106256059Y-57685217D01*
X106397100Y-57626796D01*
X106524034Y-57541982D01*
X106631982Y-57434034D01*
X106716796Y-57307100D01*
X106775217Y-57166059D01*
X106805000Y-57016331D01*
X106805000Y-56863669D01*
X106775217Y-56713941D01*
X106716796Y-56572900D01*
X106631982Y-56445966D01*
X106524034Y-56338018D01*
X106397100Y-56253204D01*
X106256059Y-56194783D01*
X106106331Y-56165000D01*
X105962107Y-56165000D01*
X104223429Y-54426323D01*
X105272348Y-54426323D01*
X105272348Y-54578985D01*
X105302131Y-54728713D01*
X105360552Y-54869754D01*
X105445366Y-54996688D01*
X105553314Y-55104636D01*
X105680248Y-55189450D01*
X105821289Y-55247871D01*
X105971017Y-55277654D01*
X106115242Y-55277654D01*
X107123774Y-56286187D01*
X107139430Y-56305264D01*
X107215565Y-56367746D01*
X107302427Y-56414175D01*
X107396677Y-56442765D01*
X107470134Y-56450000D01*
X107470143Y-56450000D01*
X107494693Y-56452418D01*
X107519243Y-56450000D01*
X113743984Y-56450000D01*
X113845966Y-56551982D01*
X113972900Y-56636796D01*
X114113941Y-56695217D01*
X114263669Y-56725000D01*
X114416331Y-56725000D01*
X114566059Y-56695217D01*
X114707100Y-56636796D01*
X114834034Y-56551982D01*
X114941982Y-56444034D01*
X115026796Y-56317100D01*
X115085217Y-56176059D01*
X115115000Y-56026331D01*
X115115000Y-55873669D01*
X115085217Y-55723941D01*
X115026796Y-55582900D01*
X114941982Y-55455966D01*
X114834034Y-55348018D01*
X114707100Y-55263204D01*
X114566059Y-55204783D01*
X114416331Y-55175000D01*
X114263669Y-55175000D01*
X114113941Y-55204783D01*
X113972900Y-55263204D01*
X113845966Y-55348018D01*
X113743984Y-55450000D01*
X107701801Y-55450000D01*
X106822348Y-54570548D01*
X106822348Y-54426323D01*
X106792565Y-54276595D01*
X106734144Y-54135554D01*
X106649330Y-54008620D01*
X106541382Y-53900672D01*
X106414448Y-53815858D01*
X106273407Y-53757437D01*
X106123679Y-53727654D01*
X105971017Y-53727654D01*
X105821289Y-53757437D01*
X105680248Y-53815858D01*
X105553314Y-53900672D01*
X105445366Y-54008620D01*
X105360552Y-54135554D01*
X105302131Y-54276595D01*
X105272348Y-54426323D01*
X104223429Y-54426323D01*
X104151219Y-54354114D01*
X104145217Y-54323939D01*
X104086796Y-54182898D01*
X104001982Y-54055964D01*
X103894034Y-53948016D01*
X103767100Y-53863202D01*
X103626059Y-53804781D01*
X103476331Y-53774998D01*
X103323669Y-53774998D01*
X103173941Y-53804781D01*
X103032900Y-53863202D01*
X102905966Y-53948016D01*
X102798018Y-54055964D01*
X102713204Y-54182898D01*
X102654783Y-54323939D01*
X102625000Y-54473667D01*
X101900000Y-54473667D01*
X101900000Y-49900000D01*
X117850000Y-49900000D01*
X117850001Y-59600000D01*
M02*
