G04 #@! TF.GenerationSoftware,KiCad,Pcbnew,(5.1.5)-3*
G04 #@! TF.CreationDate,2020-05-29T15:05:33+09:00*
G04 #@! TF.ProjectId,FMU3_Power_make,464d5533-5f50-46f7-9765-725f6d616b65,rev?*
G04 #@! TF.SameCoordinates,Original*
G04 #@! TF.FileFunction,Copper,L2,Bot*
G04 #@! TF.FilePolarity,Positive*
%FSLAX46Y46*%
G04 Gerber Fmt 4.6, Leading zero omitted, Abs format (unit mm)*
G04 Created by KiCad (PCBNEW (5.1.5)-3) date 2020-05-29 15:05:33*
%MOMM*%
%LPD*%
G04 APERTURE LIST*
%ADD10C,0.800000*%
%ADD11C,0.250000*%
%ADD12C,0.254000*%
G04 APERTURE END LIST*
D10*
X105860000Y-55020000D03*
X115250000Y-59250000D03*
X109500000Y-50500000D03*
X103500000Y-58500000D03*
X105220000Y-53480000D03*
X109530000Y-58100000D03*
X115210000Y-55960000D03*
X105910954Y-56018703D03*
D11*
X106919249Y-58100000D02*
X109530000Y-58100000D01*
X104820001Y-56000752D02*
X106919249Y-58100000D01*
X105220000Y-53480000D02*
X104820001Y-53879999D01*
X104820001Y-53879999D02*
X104820001Y-56000752D01*
X115210000Y-55960000D02*
X105969657Y-55960000D01*
X105969657Y-55960000D02*
X105910954Y-56018703D01*
D12*
G36*
X119098001Y-59598000D02*
G01*
X101902000Y-59598000D01*
X101902000Y-53879999D01*
X104315574Y-53879999D01*
X104318001Y-53904642D01*
X104318002Y-55976099D01*
X104315574Y-56000752D01*
X104325266Y-56099161D01*
X104353971Y-56193788D01*
X104400585Y-56280997D01*
X104447602Y-56338287D01*
X104447605Y-56338290D01*
X104463318Y-56357436D01*
X104482464Y-56373149D01*
X106546852Y-58437538D01*
X106562565Y-58456684D01*
X106639004Y-58519417D01*
X106726213Y-58566031D01*
X106820840Y-58594736D01*
X106894596Y-58602000D01*
X106894606Y-58602000D01*
X106919249Y-58604427D01*
X106943892Y-58602000D01*
X108933155Y-58602000D01*
X109034691Y-58703536D01*
X109161952Y-58788569D01*
X109303357Y-58847141D01*
X109453472Y-58877000D01*
X109606528Y-58877000D01*
X109756643Y-58847141D01*
X109898048Y-58788569D01*
X110025309Y-58703536D01*
X110133536Y-58595309D01*
X110218569Y-58468048D01*
X110277141Y-58326643D01*
X110307000Y-58176528D01*
X110307000Y-58023472D01*
X110277141Y-57873357D01*
X110218569Y-57731952D01*
X110133536Y-57604691D01*
X110025309Y-57496464D01*
X109898048Y-57411431D01*
X109756643Y-57352859D01*
X109606528Y-57323000D01*
X109453472Y-57323000D01*
X109303357Y-57352859D01*
X109161952Y-57411431D01*
X109034691Y-57496464D01*
X108933155Y-57598000D01*
X107127184Y-57598000D01*
X106248917Y-56719734D01*
X106279002Y-56707272D01*
X106406263Y-56622239D01*
X106514490Y-56514012D01*
X106549243Y-56462000D01*
X114613155Y-56462000D01*
X114714691Y-56563536D01*
X114841952Y-56648569D01*
X114983357Y-56707141D01*
X115133472Y-56737000D01*
X115286528Y-56737000D01*
X115436643Y-56707141D01*
X115578048Y-56648569D01*
X115705309Y-56563536D01*
X115813536Y-56455309D01*
X115898569Y-56328048D01*
X115957141Y-56186643D01*
X115987000Y-56036528D01*
X115987000Y-55883472D01*
X115957141Y-55733357D01*
X115898569Y-55591952D01*
X115813536Y-55464691D01*
X115705309Y-55356464D01*
X115578048Y-55271431D01*
X115436643Y-55212859D01*
X115286528Y-55183000D01*
X115133472Y-55183000D01*
X114983357Y-55212859D01*
X114841952Y-55271431D01*
X114714691Y-55356464D01*
X114613155Y-55458000D01*
X106449096Y-55458000D01*
X106406263Y-55415167D01*
X106279002Y-55330134D01*
X106137597Y-55271562D01*
X105987482Y-55241703D01*
X105834426Y-55241703D01*
X105684311Y-55271562D01*
X105542906Y-55330134D01*
X105415645Y-55415167D01*
X105322001Y-55508811D01*
X105322001Y-54251933D01*
X105446643Y-54227141D01*
X105588048Y-54168569D01*
X105715309Y-54083536D01*
X105823536Y-53975309D01*
X105908569Y-53848048D01*
X105967141Y-53706643D01*
X105997000Y-53556528D01*
X105997000Y-53403472D01*
X105967141Y-53253357D01*
X105908569Y-53111952D01*
X105823536Y-52984691D01*
X105715309Y-52876464D01*
X105588048Y-52791431D01*
X105446643Y-52732859D01*
X105296528Y-52703000D01*
X105143472Y-52703000D01*
X104993357Y-52732859D01*
X104851952Y-52791431D01*
X104724691Y-52876464D01*
X104616464Y-52984691D01*
X104531431Y-53111952D01*
X104472859Y-53253357D01*
X104443000Y-53403472D01*
X104443000Y-53548071D01*
X104400584Y-53599754D01*
X104353970Y-53686964D01*
X104325265Y-53781591D01*
X104318001Y-53855347D01*
X104318001Y-53855356D01*
X104315574Y-53879999D01*
X101902000Y-53879999D01*
X101902000Y-49902000D01*
X119098000Y-49902000D01*
X119098001Y-59598000D01*
G37*
X119098001Y-59598000D02*
X101902000Y-59598000D01*
X101902000Y-53879999D01*
X104315574Y-53879999D01*
X104318001Y-53904642D01*
X104318002Y-55976099D01*
X104315574Y-56000752D01*
X104325266Y-56099161D01*
X104353971Y-56193788D01*
X104400585Y-56280997D01*
X104447602Y-56338287D01*
X104447605Y-56338290D01*
X104463318Y-56357436D01*
X104482464Y-56373149D01*
X106546852Y-58437538D01*
X106562565Y-58456684D01*
X106639004Y-58519417D01*
X106726213Y-58566031D01*
X106820840Y-58594736D01*
X106894596Y-58602000D01*
X106894606Y-58602000D01*
X106919249Y-58604427D01*
X106943892Y-58602000D01*
X108933155Y-58602000D01*
X109034691Y-58703536D01*
X109161952Y-58788569D01*
X109303357Y-58847141D01*
X109453472Y-58877000D01*
X109606528Y-58877000D01*
X109756643Y-58847141D01*
X109898048Y-58788569D01*
X110025309Y-58703536D01*
X110133536Y-58595309D01*
X110218569Y-58468048D01*
X110277141Y-58326643D01*
X110307000Y-58176528D01*
X110307000Y-58023472D01*
X110277141Y-57873357D01*
X110218569Y-57731952D01*
X110133536Y-57604691D01*
X110025309Y-57496464D01*
X109898048Y-57411431D01*
X109756643Y-57352859D01*
X109606528Y-57323000D01*
X109453472Y-57323000D01*
X109303357Y-57352859D01*
X109161952Y-57411431D01*
X109034691Y-57496464D01*
X108933155Y-57598000D01*
X107127184Y-57598000D01*
X106248917Y-56719734D01*
X106279002Y-56707272D01*
X106406263Y-56622239D01*
X106514490Y-56514012D01*
X106549243Y-56462000D01*
X114613155Y-56462000D01*
X114714691Y-56563536D01*
X114841952Y-56648569D01*
X114983357Y-56707141D01*
X115133472Y-56737000D01*
X115286528Y-56737000D01*
X115436643Y-56707141D01*
X115578048Y-56648569D01*
X115705309Y-56563536D01*
X115813536Y-56455309D01*
X115898569Y-56328048D01*
X115957141Y-56186643D01*
X115987000Y-56036528D01*
X115987000Y-55883472D01*
X115957141Y-55733357D01*
X115898569Y-55591952D01*
X115813536Y-55464691D01*
X115705309Y-55356464D01*
X115578048Y-55271431D01*
X115436643Y-55212859D01*
X115286528Y-55183000D01*
X115133472Y-55183000D01*
X114983357Y-55212859D01*
X114841952Y-55271431D01*
X114714691Y-55356464D01*
X114613155Y-55458000D01*
X106449096Y-55458000D01*
X106406263Y-55415167D01*
X106279002Y-55330134D01*
X106137597Y-55271562D01*
X105987482Y-55241703D01*
X105834426Y-55241703D01*
X105684311Y-55271562D01*
X105542906Y-55330134D01*
X105415645Y-55415167D01*
X105322001Y-55508811D01*
X105322001Y-54251933D01*
X105446643Y-54227141D01*
X105588048Y-54168569D01*
X105715309Y-54083536D01*
X105823536Y-53975309D01*
X105908569Y-53848048D01*
X105967141Y-53706643D01*
X105997000Y-53556528D01*
X105997000Y-53403472D01*
X105967141Y-53253357D01*
X105908569Y-53111952D01*
X105823536Y-52984691D01*
X105715309Y-52876464D01*
X105588048Y-52791431D01*
X105446643Y-52732859D01*
X105296528Y-52703000D01*
X105143472Y-52703000D01*
X104993357Y-52732859D01*
X104851952Y-52791431D01*
X104724691Y-52876464D01*
X104616464Y-52984691D01*
X104531431Y-53111952D01*
X104472859Y-53253357D01*
X104443000Y-53403472D01*
X104443000Y-53548071D01*
X104400584Y-53599754D01*
X104353970Y-53686964D01*
X104325265Y-53781591D01*
X104318001Y-53855347D01*
X104318001Y-53855356D01*
X104315574Y-53879999D01*
X101902000Y-53879999D01*
X101902000Y-49902000D01*
X119098000Y-49902000D01*
X119098001Y-59598000D01*
M02*
