G04 #@! TF.GenerationSoftware,KiCad,Pcbnew,(5.1.5)-3*
G04 #@! TF.CreationDate,2020-05-15T17:56:07+09:00*
G04 #@! TF.ProjectId,test2,74657374-322e-46b6-9963-61645f706362,rev?*
G04 #@! TF.SameCoordinates,Original*
G04 #@! TF.FileFunction,Legend,Top*
G04 #@! TF.FilePolarity,Positive*
%FSLAX46Y46*%
G04 Gerber Fmt 4.6, Leading zero omitted, Abs format (unit mm)*
G04 Created by KiCad (PCBNEW (5.1.5)-3) date 2020-05-15 17:56:07*
%MOMM*%
%LPD*%
G04 APERTURE LIST*
%ADD10C,0.120000*%
%ADD11C,0.150000*%
G04 APERTURE END LIST*
D10*
X140970000Y-52070000D02*
X140970000Y-32385000D01*
X141605000Y-52070000D02*
X140970000Y-52070000D01*
X162560000Y-52070000D02*
X141605000Y-52070000D01*
X162560000Y-32385000D02*
X162560000Y-52070000D01*
X140970000Y-32385000D02*
X162560000Y-32385000D01*
X149320000Y-40620000D02*
G75*
G03X149320000Y-40620000I-3270000J0D01*
G01*
X149280000Y-40620000D02*
X142820000Y-40620000D01*
X149280000Y-40660000D02*
X142820000Y-40660000D01*
X149280000Y-40700000D02*
X142820000Y-40700000D01*
X149278000Y-40740000D02*
X142822000Y-40740000D01*
X149277000Y-40780000D02*
X142823000Y-40780000D01*
X149274000Y-40820000D02*
X142826000Y-40820000D01*
X149272000Y-40860000D02*
X147090000Y-40860000D01*
X145010000Y-40860000D02*
X142828000Y-40860000D01*
X149268000Y-40900000D02*
X147090000Y-40900000D01*
X145010000Y-40900000D02*
X142832000Y-40900000D01*
X149265000Y-40940000D02*
X147090000Y-40940000D01*
X145010000Y-40940000D02*
X142835000Y-40940000D01*
X149261000Y-40980000D02*
X147090000Y-40980000D01*
X145010000Y-40980000D02*
X142839000Y-40980000D01*
X149256000Y-41020000D02*
X147090000Y-41020000D01*
X145010000Y-41020000D02*
X142844000Y-41020000D01*
X149251000Y-41060000D02*
X147090000Y-41060000D01*
X145010000Y-41060000D02*
X142849000Y-41060000D01*
X149245000Y-41100000D02*
X147090000Y-41100000D01*
X145010000Y-41100000D02*
X142855000Y-41100000D01*
X149239000Y-41140000D02*
X147090000Y-41140000D01*
X145010000Y-41140000D02*
X142861000Y-41140000D01*
X149232000Y-41180000D02*
X147090000Y-41180000D01*
X145010000Y-41180000D02*
X142868000Y-41180000D01*
X149225000Y-41220000D02*
X147090000Y-41220000D01*
X145010000Y-41220000D02*
X142875000Y-41220000D01*
X149217000Y-41260000D02*
X147090000Y-41260000D01*
X145010000Y-41260000D02*
X142883000Y-41260000D01*
X149209000Y-41300000D02*
X147090000Y-41300000D01*
X145010000Y-41300000D02*
X142891000Y-41300000D01*
X149200000Y-41341000D02*
X147090000Y-41341000D01*
X145010000Y-41341000D02*
X142900000Y-41341000D01*
X149191000Y-41381000D02*
X147090000Y-41381000D01*
X145010000Y-41381000D02*
X142909000Y-41381000D01*
X149181000Y-41421000D02*
X147090000Y-41421000D01*
X145010000Y-41421000D02*
X142919000Y-41421000D01*
X149171000Y-41461000D02*
X147090000Y-41461000D01*
X145010000Y-41461000D02*
X142929000Y-41461000D01*
X149160000Y-41501000D02*
X147090000Y-41501000D01*
X145010000Y-41501000D02*
X142940000Y-41501000D01*
X149148000Y-41541000D02*
X147090000Y-41541000D01*
X145010000Y-41541000D02*
X142952000Y-41541000D01*
X149136000Y-41581000D02*
X147090000Y-41581000D01*
X145010000Y-41581000D02*
X142964000Y-41581000D01*
X149124000Y-41621000D02*
X147090000Y-41621000D01*
X145010000Y-41621000D02*
X142976000Y-41621000D01*
X149111000Y-41661000D02*
X147090000Y-41661000D01*
X145010000Y-41661000D02*
X142989000Y-41661000D01*
X149097000Y-41701000D02*
X147090000Y-41701000D01*
X145010000Y-41701000D02*
X143003000Y-41701000D01*
X149083000Y-41741000D02*
X147090000Y-41741000D01*
X145010000Y-41741000D02*
X143017000Y-41741000D01*
X149068000Y-41781000D02*
X147090000Y-41781000D01*
X145010000Y-41781000D02*
X143032000Y-41781000D01*
X149052000Y-41821000D02*
X147090000Y-41821000D01*
X145010000Y-41821000D02*
X143048000Y-41821000D01*
X149036000Y-41861000D02*
X147090000Y-41861000D01*
X145010000Y-41861000D02*
X143064000Y-41861000D01*
X149020000Y-41901000D02*
X147090000Y-41901000D01*
X145010000Y-41901000D02*
X143080000Y-41901000D01*
X149002000Y-41941000D02*
X147090000Y-41941000D01*
X145010000Y-41941000D02*
X143098000Y-41941000D01*
X148984000Y-41981000D02*
X147090000Y-41981000D01*
X145010000Y-41981000D02*
X143116000Y-41981000D01*
X148966000Y-42021000D02*
X147090000Y-42021000D01*
X145010000Y-42021000D02*
X143134000Y-42021000D01*
X148946000Y-42061000D02*
X147090000Y-42061000D01*
X145010000Y-42061000D02*
X143154000Y-42061000D01*
X148926000Y-42101000D02*
X147090000Y-42101000D01*
X145010000Y-42101000D02*
X143174000Y-42101000D01*
X148906000Y-42141000D02*
X147090000Y-42141000D01*
X145010000Y-42141000D02*
X143194000Y-42141000D01*
X148884000Y-42181000D02*
X147090000Y-42181000D01*
X145010000Y-42181000D02*
X143216000Y-42181000D01*
X148862000Y-42221000D02*
X147090000Y-42221000D01*
X145010000Y-42221000D02*
X143238000Y-42221000D01*
X148840000Y-42261000D02*
X147090000Y-42261000D01*
X145010000Y-42261000D02*
X143260000Y-42261000D01*
X148816000Y-42301000D02*
X147090000Y-42301000D01*
X145010000Y-42301000D02*
X143284000Y-42301000D01*
X148792000Y-42341000D02*
X147090000Y-42341000D01*
X145010000Y-42341000D02*
X143308000Y-42341000D01*
X148766000Y-42381000D02*
X147090000Y-42381000D01*
X145010000Y-42381000D02*
X143334000Y-42381000D01*
X148740000Y-42421000D02*
X147090000Y-42421000D01*
X145010000Y-42421000D02*
X143360000Y-42421000D01*
X148714000Y-42461000D02*
X147090000Y-42461000D01*
X145010000Y-42461000D02*
X143386000Y-42461000D01*
X148686000Y-42501000D02*
X147090000Y-42501000D01*
X145010000Y-42501000D02*
X143414000Y-42501000D01*
X148657000Y-42541000D02*
X147090000Y-42541000D01*
X145010000Y-42541000D02*
X143443000Y-42541000D01*
X148628000Y-42581000D02*
X147090000Y-42581000D01*
X145010000Y-42581000D02*
X143472000Y-42581000D01*
X148598000Y-42621000D02*
X147090000Y-42621000D01*
X145010000Y-42621000D02*
X143502000Y-42621000D01*
X148566000Y-42661000D02*
X147090000Y-42661000D01*
X145010000Y-42661000D02*
X143534000Y-42661000D01*
X148534000Y-42701000D02*
X147090000Y-42701000D01*
X145010000Y-42701000D02*
X143566000Y-42701000D01*
X148500000Y-42741000D02*
X147090000Y-42741000D01*
X145010000Y-42741000D02*
X143600000Y-42741000D01*
X148466000Y-42781000D02*
X147090000Y-42781000D01*
X145010000Y-42781000D02*
X143634000Y-42781000D01*
X148430000Y-42821000D02*
X147090000Y-42821000D01*
X145010000Y-42821000D02*
X143670000Y-42821000D01*
X148393000Y-42861000D02*
X147090000Y-42861000D01*
X145010000Y-42861000D02*
X143707000Y-42861000D01*
X148355000Y-42901000D02*
X147090000Y-42901000D01*
X145010000Y-42901000D02*
X143745000Y-42901000D01*
X148315000Y-42941000D02*
X143785000Y-42941000D01*
X148274000Y-42981000D02*
X143826000Y-42981000D01*
X148232000Y-43021000D02*
X143868000Y-43021000D01*
X148187000Y-43061000D02*
X143913000Y-43061000D01*
X148142000Y-43101000D02*
X143958000Y-43101000D01*
X148094000Y-43141000D02*
X144006000Y-43141000D01*
X148045000Y-43181000D02*
X144055000Y-43181000D01*
X147994000Y-43221000D02*
X144106000Y-43221000D01*
X147940000Y-43261000D02*
X144160000Y-43261000D01*
X147884000Y-43301000D02*
X144216000Y-43301000D01*
X147826000Y-43341000D02*
X144274000Y-43341000D01*
X147764000Y-43381000D02*
X144336000Y-43381000D01*
X147700000Y-43421000D02*
X144400000Y-43421000D01*
X147631000Y-43461000D02*
X144469000Y-43461000D01*
X147559000Y-43501000D02*
X144541000Y-43501000D01*
X147482000Y-43541000D02*
X144618000Y-43541000D01*
X147400000Y-43581000D02*
X144700000Y-43581000D01*
X147312000Y-43621000D02*
X144788000Y-43621000D01*
X147215000Y-43661000D02*
X144885000Y-43661000D01*
X147109000Y-43701000D02*
X144991000Y-43701000D01*
X146990000Y-43741000D02*
X145110000Y-43741000D01*
X146852000Y-43781000D02*
X145248000Y-43781000D01*
X146683000Y-43821000D02*
X145417000Y-43821000D01*
X146452000Y-43861000D02*
X145648000Y-43861000D01*
X147889000Y-37119759D02*
X147889000Y-37749759D01*
X148204000Y-37434759D02*
X147574000Y-37434759D01*
X146050462Y-45905000D02*
G75*
G03X144505170Y-51455000I-462J-2990000D01*
G01*
X146049538Y-45905000D02*
G75*
G02X147594830Y-51455000I462J-2990000D01*
G01*
X148550000Y-48895000D02*
G75*
G03X148550000Y-48895000I-2500000J0D01*
G01*
X144505000Y-51455000D02*
X147595000Y-51455000D01*
X154880000Y-33595000D02*
X154880000Y-36255000D01*
X157480000Y-33595000D02*
X154880000Y-33595000D01*
X157480000Y-36255000D02*
X154880000Y-36255000D01*
X157480000Y-33595000D02*
X157480000Y-36255000D01*
X158750000Y-33595000D02*
X160080000Y-33595000D01*
X160080000Y-33595000D02*
X160080000Y-34925000D01*
X155641522Y-42478478D02*
G75*
G03X160080000Y-40640000I1838478J1838478D01*
G01*
X155641522Y-38801522D02*
G75*
G02X160080000Y-40640000I1838478J-1838478D01*
G01*
X155630000Y-38840000D02*
X155630000Y-42440000D01*
X155630000Y-46460000D02*
X155630000Y-50060000D01*
X155641522Y-46421522D02*
G75*
G02X160080000Y-48260000I1838478J-1838478D01*
G01*
X155641522Y-50098478D02*
G75*
G03X160080000Y-48260000I1838478J1838478D01*
G01*
X149955000Y-35965000D02*
X149955000Y-36295000D01*
X149955000Y-36295000D02*
X143415000Y-36295000D01*
X143415000Y-36295000D02*
X143415000Y-35965000D01*
X149955000Y-33885000D02*
X149955000Y-33555000D01*
X149955000Y-33555000D02*
X143415000Y-33555000D01*
X143415000Y-33555000D02*
X143415000Y-33885000D01*
D11*
X150807142Y-40786666D02*
X150854761Y-40834285D01*
X150902380Y-40977142D01*
X150902380Y-41072380D01*
X150854761Y-41215238D01*
X150759523Y-41310476D01*
X150664285Y-41358095D01*
X150473809Y-41405714D01*
X150330952Y-41405714D01*
X150140476Y-41358095D01*
X150045238Y-41310476D01*
X149950000Y-41215238D01*
X149902380Y-41072380D01*
X149902380Y-40977142D01*
X149950000Y-40834285D01*
X149997619Y-40786666D01*
X150902380Y-39834285D02*
X150902380Y-40405714D01*
X150902380Y-40120000D02*
X149902380Y-40120000D01*
X150045238Y-40215238D01*
X150140476Y-40310476D01*
X150188095Y-40405714D01*
X142542380Y-49633095D02*
X141542380Y-49633095D01*
X141542380Y-49395000D01*
X141590000Y-49252142D01*
X141685238Y-49156904D01*
X141780476Y-49109285D01*
X141970952Y-49061666D01*
X142113809Y-49061666D01*
X142304285Y-49109285D01*
X142399523Y-49156904D01*
X142494761Y-49252142D01*
X142542380Y-49395000D01*
X142542380Y-49633095D01*
X142542380Y-48109285D02*
X142542380Y-48680714D01*
X142542380Y-48395000D02*
X141542380Y-48395000D01*
X141685238Y-48490238D01*
X141780476Y-48585476D01*
X141828095Y-48680714D01*
X160532380Y-35258333D02*
X161246666Y-35258333D01*
X161389523Y-35305952D01*
X161484761Y-35401190D01*
X161532380Y-35544047D01*
X161532380Y-35639285D01*
X161532380Y-34258333D02*
X161532380Y-34829761D01*
X161532380Y-34544047D02*
X160532380Y-34544047D01*
X160675238Y-34639285D01*
X160770476Y-34734523D01*
X160818095Y-34829761D01*
X161587619Y-40735238D02*
X161540000Y-40830476D01*
X161444761Y-40925714D01*
X161301904Y-41068571D01*
X161254285Y-41163809D01*
X161254285Y-41259047D01*
X161492380Y-41211428D02*
X161444761Y-41306666D01*
X161349523Y-41401904D01*
X161159047Y-41449523D01*
X160825714Y-41449523D01*
X160635238Y-41401904D01*
X160540000Y-41306666D01*
X160492380Y-41211428D01*
X160492380Y-41020952D01*
X160540000Y-40925714D01*
X160635238Y-40830476D01*
X160825714Y-40782857D01*
X161159047Y-40782857D01*
X161349523Y-40830476D01*
X161444761Y-40925714D01*
X161492380Y-41020952D01*
X161492380Y-41211428D01*
X161492380Y-39830476D02*
X161492380Y-40401904D01*
X161492380Y-40116190D02*
X160492380Y-40116190D01*
X160635238Y-40211428D01*
X160730476Y-40306666D01*
X160778095Y-40401904D01*
X161587619Y-48355238D02*
X161540000Y-48450476D01*
X161444761Y-48545714D01*
X161301904Y-48688571D01*
X161254285Y-48783809D01*
X161254285Y-48879047D01*
X161492380Y-48831428D02*
X161444761Y-48926666D01*
X161349523Y-49021904D01*
X161159047Y-49069523D01*
X160825714Y-49069523D01*
X160635238Y-49021904D01*
X160540000Y-48926666D01*
X160492380Y-48831428D01*
X160492380Y-48640952D01*
X160540000Y-48545714D01*
X160635238Y-48450476D01*
X160825714Y-48402857D01*
X161159047Y-48402857D01*
X161349523Y-48450476D01*
X161444761Y-48545714D01*
X161492380Y-48640952D01*
X161492380Y-48831428D01*
X160587619Y-48021904D02*
X160540000Y-47974285D01*
X160492380Y-47879047D01*
X160492380Y-47640952D01*
X160540000Y-47545714D01*
X160587619Y-47498095D01*
X160682857Y-47450476D01*
X160778095Y-47450476D01*
X160920952Y-47498095D01*
X161492380Y-48069523D01*
X161492380Y-47450476D01*
X146518333Y-37747380D02*
X146185000Y-37271190D01*
X145946904Y-37747380D02*
X145946904Y-36747380D01*
X146327857Y-36747380D01*
X146423095Y-36795000D01*
X146470714Y-36842619D01*
X146518333Y-36937857D01*
X146518333Y-37080714D01*
X146470714Y-37175952D01*
X146423095Y-37223571D01*
X146327857Y-37271190D01*
X145946904Y-37271190D01*
X147470714Y-37747380D02*
X146899285Y-37747380D01*
X147185000Y-37747380D02*
X147185000Y-36747380D01*
X147089761Y-36890238D01*
X146994523Y-36985476D01*
X146899285Y-37033095D01*
M02*
