G04 #@! TF.GenerationSoftware,KiCad,Pcbnew,(5.1.5)-3*
G04 #@! TF.CreationDate,2020-05-19T17:15:19+09:00*
G04 #@! TF.ProjectId,FMU_Power,464d555f-506f-4776-9572-2e6b69636164,rev?*
G04 #@! TF.SameCoordinates,Original*
G04 #@! TF.FileFunction,Soldermask,Top*
G04 #@! TF.FilePolarity,Negative*
%FSLAX46Y46*%
G04 Gerber Fmt 4.6, Leading zero omitted, Abs format (unit mm)*
G04 Created by KiCad (PCBNEW (5.1.5)-3) date 2020-05-19 17:15:19*
%MOMM*%
%LPD*%
G04 APERTURE LIST*
%ADD10C,0.100000*%
G04 APERTURE END LIST*
D10*
G36*
X157601000Y-111801000D02*
G01*
X155999000Y-111801000D01*
X155999000Y-109199000D01*
X157601000Y-109199000D01*
X157601000Y-111801000D01*
G37*
G36*
X152601000Y-111801000D02*
G01*
X150999000Y-111801000D01*
X150999000Y-109199000D01*
X152601000Y-109199000D01*
X152601000Y-111801000D01*
G37*
G36*
X150101000Y-111801000D02*
G01*
X148499000Y-111801000D01*
X148499000Y-109199000D01*
X150101000Y-109199000D01*
X150101000Y-111801000D01*
G37*
G36*
X155101000Y-111801000D02*
G01*
X153499000Y-111801000D01*
X153499000Y-109199000D01*
X155101000Y-109199000D01*
X155101000Y-111801000D01*
G37*
G36*
X155170416Y-107249843D02*
G01*
X155172745Y-107250550D01*
X155174887Y-107251695D01*
X155176765Y-107253235D01*
X155178305Y-107255113D01*
X155179450Y-107257255D01*
X155180157Y-107259584D01*
X155181000Y-107268143D01*
X155181000Y-107831857D01*
X155180157Y-107840416D01*
X155179450Y-107842745D01*
X155178305Y-107844887D01*
X155176765Y-107846765D01*
X155174887Y-107848305D01*
X155172745Y-107849450D01*
X155170416Y-107850157D01*
X155161857Y-107851000D01*
X154898143Y-107851000D01*
X154889584Y-107850157D01*
X154887255Y-107849450D01*
X154885113Y-107848305D01*
X154883235Y-107846765D01*
X154881695Y-107844887D01*
X154880550Y-107842745D01*
X154879843Y-107840416D01*
X154879000Y-107831857D01*
X154879000Y-107268143D01*
X154879843Y-107259584D01*
X154880550Y-107257255D01*
X154881695Y-107255113D01*
X154883235Y-107253235D01*
X154885113Y-107251695D01*
X154887255Y-107250550D01*
X154889584Y-107249843D01*
X154898143Y-107249000D01*
X155161857Y-107249000D01*
X155170416Y-107249843D01*
G37*
G36*
X154310416Y-107249843D02*
G01*
X154312745Y-107250550D01*
X154314887Y-107251695D01*
X154316765Y-107253235D01*
X154318305Y-107255113D01*
X154319450Y-107257255D01*
X154320157Y-107259584D01*
X154321000Y-107268143D01*
X154321000Y-107831857D01*
X154320157Y-107840416D01*
X154319450Y-107842745D01*
X154318305Y-107844887D01*
X154316765Y-107846765D01*
X154314887Y-107848305D01*
X154312745Y-107849450D01*
X154310416Y-107850157D01*
X154301857Y-107851000D01*
X154038143Y-107851000D01*
X154029584Y-107850157D01*
X154027255Y-107849450D01*
X154025113Y-107848305D01*
X154023235Y-107846765D01*
X154021695Y-107844887D01*
X154020550Y-107842745D01*
X154019843Y-107840416D01*
X154019000Y-107831857D01*
X154019000Y-107268143D01*
X154019843Y-107259584D01*
X154020550Y-107257255D01*
X154021695Y-107255113D01*
X154023235Y-107253235D01*
X154025113Y-107251695D01*
X154027255Y-107250550D01*
X154029584Y-107249843D01*
X154038143Y-107249000D01*
X154301857Y-107249000D01*
X154310416Y-107249843D01*
G37*
G36*
X157295295Y-106550323D02*
G01*
X157302310Y-106552451D01*
X157308776Y-106555908D01*
X157314442Y-106560558D01*
X157319092Y-106566224D01*
X157322549Y-106572690D01*
X157324677Y-106579705D01*
X157326000Y-106593140D01*
X157326000Y-107106860D01*
X157324677Y-107120295D01*
X157322549Y-107127310D01*
X157319092Y-107133776D01*
X157314442Y-107139442D01*
X157308776Y-107144092D01*
X157302310Y-107147549D01*
X157295295Y-107149677D01*
X157281860Y-107151000D01*
X156968140Y-107151000D01*
X156954705Y-107149677D01*
X156947690Y-107147549D01*
X156941224Y-107144092D01*
X156935558Y-107139442D01*
X156930908Y-107133776D01*
X156927451Y-107127310D01*
X156925323Y-107120295D01*
X156924000Y-107106860D01*
X156924000Y-106593140D01*
X156925323Y-106579705D01*
X156927451Y-106572690D01*
X156930908Y-106566224D01*
X156935558Y-106560558D01*
X156941224Y-106555908D01*
X156947690Y-106552451D01*
X156954705Y-106550323D01*
X156968140Y-106549000D01*
X157281860Y-106549000D01*
X157295295Y-106550323D01*
G37*
G36*
X158045295Y-106550323D02*
G01*
X158052310Y-106552451D01*
X158058776Y-106555908D01*
X158064442Y-106560558D01*
X158069092Y-106566224D01*
X158072549Y-106572690D01*
X158074677Y-106579705D01*
X158076000Y-106593140D01*
X158076000Y-107106860D01*
X158074677Y-107120295D01*
X158072549Y-107127310D01*
X158069092Y-107133776D01*
X158064442Y-107139442D01*
X158058776Y-107144092D01*
X158052310Y-107147549D01*
X158045295Y-107149677D01*
X158031860Y-107151000D01*
X157718140Y-107151000D01*
X157704705Y-107149677D01*
X157697690Y-107147549D01*
X157691224Y-107144092D01*
X157685558Y-107139442D01*
X157680908Y-107133776D01*
X157677451Y-107127310D01*
X157675323Y-107120295D01*
X157674000Y-107106860D01*
X157674000Y-106593140D01*
X157675323Y-106579705D01*
X157677451Y-106572690D01*
X157680908Y-106566224D01*
X157685558Y-106560558D01*
X157691224Y-106555908D01*
X157697690Y-106552451D01*
X157704705Y-106550323D01*
X157718140Y-106549000D01*
X158031860Y-106549000D01*
X158045295Y-106550323D01*
G37*
G36*
X151780051Y-106076284D02*
G01*
X151796443Y-106081257D01*
X151811555Y-106089334D01*
X151824798Y-106100202D01*
X151835666Y-106113445D01*
X151843743Y-106128557D01*
X151848716Y-106144949D01*
X151851000Y-106168141D01*
X151851000Y-106581859D01*
X151848716Y-106605051D01*
X151843743Y-106621443D01*
X151835666Y-106636555D01*
X151824798Y-106649798D01*
X151811555Y-106660666D01*
X151796443Y-106668743D01*
X151780051Y-106673716D01*
X151756859Y-106676000D01*
X150593141Y-106676000D01*
X150569949Y-106673716D01*
X150553557Y-106668743D01*
X150538445Y-106660666D01*
X150525202Y-106649798D01*
X150514334Y-106636555D01*
X150506257Y-106621443D01*
X150501284Y-106605051D01*
X150499000Y-106581859D01*
X150499000Y-106168141D01*
X150501284Y-106144949D01*
X150506257Y-106128557D01*
X150514334Y-106113445D01*
X150525202Y-106100202D01*
X150538445Y-106089334D01*
X150553557Y-106081257D01*
X150569949Y-106076284D01*
X150593141Y-106074000D01*
X151756859Y-106074000D01*
X151780051Y-106076284D01*
G37*
G36*
X153601000Y-106601000D02*
G01*
X153149000Y-106601000D01*
X153149000Y-104749000D01*
X153601000Y-104749000D01*
X153601000Y-106601000D01*
G37*
G36*
X155251000Y-106601000D02*
G01*
X154799000Y-106601000D01*
X154799000Y-104749000D01*
X155251000Y-104749000D01*
X155251000Y-106601000D01*
G37*
G36*
X147585203Y-106074967D02*
G01*
X147588743Y-106076041D01*
X147592006Y-106077785D01*
X147594867Y-106080133D01*
X147597215Y-106082994D01*
X147598959Y-106086257D01*
X147600033Y-106089797D01*
X147601000Y-106099620D01*
X147601000Y-106400380D01*
X147600033Y-106410203D01*
X147598959Y-106413743D01*
X147597215Y-106417006D01*
X147594867Y-106419867D01*
X147592006Y-106422215D01*
X147588743Y-106423959D01*
X147585203Y-106425033D01*
X147575380Y-106426000D01*
X146724620Y-106426000D01*
X146714797Y-106425033D01*
X146711257Y-106423959D01*
X146707994Y-106422215D01*
X146705133Y-106419867D01*
X146702785Y-106417006D01*
X146701041Y-106413743D01*
X146699967Y-106410203D01*
X146699000Y-106400380D01*
X146699000Y-106099620D01*
X146699967Y-106089797D01*
X146701041Y-106086257D01*
X146702785Y-106082994D01*
X146705133Y-106080133D01*
X146707994Y-106077785D01*
X146711257Y-106076041D01*
X146714797Y-106074967D01*
X146724620Y-106074000D01*
X147575380Y-106074000D01*
X147585203Y-106074967D01*
G37*
G36*
X158105051Y-104951284D02*
G01*
X158121443Y-104956257D01*
X158136555Y-104964334D01*
X158149798Y-104975202D01*
X158160666Y-104988445D01*
X158168743Y-105003557D01*
X158173716Y-105019949D01*
X158176000Y-105043141D01*
X158176000Y-105756859D01*
X158173716Y-105780051D01*
X158168743Y-105796443D01*
X158160666Y-105811555D01*
X158149798Y-105824798D01*
X158136555Y-105835666D01*
X158121443Y-105843743D01*
X158105051Y-105848716D01*
X158081859Y-105851000D01*
X157668141Y-105851000D01*
X157644949Y-105848716D01*
X157628557Y-105843743D01*
X157613445Y-105835666D01*
X157600202Y-105824798D01*
X157589334Y-105811555D01*
X157581257Y-105796443D01*
X157576284Y-105780051D01*
X157574000Y-105756859D01*
X157574000Y-105043141D01*
X157576284Y-105019949D01*
X157581257Y-105003557D01*
X157589334Y-104988445D01*
X157600202Y-104975202D01*
X157613445Y-104964334D01*
X157628557Y-104956257D01*
X157644949Y-104951284D01*
X157668141Y-104949000D01*
X158081859Y-104949000D01*
X158105051Y-104951284D01*
G37*
G36*
X156955051Y-104951284D02*
G01*
X156971443Y-104956257D01*
X156986555Y-104964334D01*
X156999798Y-104975202D01*
X157010666Y-104988445D01*
X157018743Y-105003557D01*
X157023716Y-105019949D01*
X157026000Y-105043141D01*
X157026000Y-105756859D01*
X157023716Y-105780051D01*
X157018743Y-105796443D01*
X157010666Y-105811555D01*
X156999798Y-105824798D01*
X156986555Y-105835666D01*
X156971443Y-105843743D01*
X156955051Y-105848716D01*
X156931859Y-105851000D01*
X156518141Y-105851000D01*
X156494949Y-105848716D01*
X156478557Y-105843743D01*
X156463445Y-105835666D01*
X156450202Y-105824798D01*
X156439334Y-105811555D01*
X156431257Y-105796443D01*
X156426284Y-105780051D01*
X156424000Y-105756859D01*
X156424000Y-105043141D01*
X156426284Y-105019949D01*
X156431257Y-105003557D01*
X156439334Y-104988445D01*
X156450202Y-104975202D01*
X156463445Y-104964334D01*
X156478557Y-104956257D01*
X156494949Y-104951284D01*
X156518141Y-104949000D01*
X156931859Y-104949000D01*
X156955051Y-104951284D01*
G37*
G36*
X146940416Y-105299843D02*
G01*
X146942745Y-105300550D01*
X146944887Y-105301695D01*
X146946765Y-105303235D01*
X146948305Y-105305113D01*
X146949450Y-105307255D01*
X146950157Y-105309584D01*
X146951000Y-105318143D01*
X146951000Y-105781857D01*
X146950157Y-105790416D01*
X146949450Y-105792745D01*
X146948305Y-105794887D01*
X146946765Y-105796765D01*
X146944887Y-105798305D01*
X146942745Y-105799450D01*
X146940416Y-105800157D01*
X146931857Y-105801000D01*
X146668143Y-105801000D01*
X146659584Y-105800157D01*
X146657255Y-105799450D01*
X146655113Y-105798305D01*
X146653235Y-105796765D01*
X146651695Y-105794887D01*
X146650550Y-105792745D01*
X146649843Y-105790416D01*
X146649000Y-105781857D01*
X146649000Y-105318143D01*
X146649843Y-105309584D01*
X146650550Y-105307255D01*
X146651695Y-105305113D01*
X146653235Y-105303235D01*
X146655113Y-105301695D01*
X146657255Y-105300550D01*
X146659584Y-105299843D01*
X146668143Y-105299000D01*
X146931857Y-105299000D01*
X146940416Y-105299843D01*
G37*
G36*
X147640416Y-105299843D02*
G01*
X147642745Y-105300550D01*
X147644887Y-105301695D01*
X147646765Y-105303235D01*
X147648305Y-105305113D01*
X147649450Y-105307255D01*
X147650157Y-105309584D01*
X147651000Y-105318143D01*
X147651000Y-105781857D01*
X147650157Y-105790416D01*
X147649450Y-105792745D01*
X147648305Y-105794887D01*
X147646765Y-105796765D01*
X147644887Y-105798305D01*
X147642745Y-105799450D01*
X147640416Y-105800157D01*
X147631857Y-105801000D01*
X147368143Y-105801000D01*
X147359584Y-105800157D01*
X147357255Y-105799450D01*
X147355113Y-105798305D01*
X147353235Y-105796765D01*
X147351695Y-105794887D01*
X147350550Y-105792745D01*
X147349843Y-105790416D01*
X147349000Y-105781857D01*
X147349000Y-105318143D01*
X147349843Y-105309584D01*
X147350550Y-105307255D01*
X147351695Y-105305113D01*
X147353235Y-105303235D01*
X147355113Y-105301695D01*
X147357255Y-105300550D01*
X147359584Y-105299843D01*
X147368143Y-105299000D01*
X147631857Y-105299000D01*
X147640416Y-105299843D01*
G37*
G36*
X149220295Y-105375323D02*
G01*
X149227310Y-105377451D01*
X149233776Y-105380908D01*
X149239442Y-105385558D01*
X149244092Y-105391224D01*
X149247549Y-105397690D01*
X149249677Y-105404705D01*
X149251000Y-105418140D01*
X149251000Y-105731860D01*
X149249677Y-105745295D01*
X149247549Y-105752310D01*
X149244092Y-105758776D01*
X149239442Y-105764442D01*
X149233776Y-105769092D01*
X149227310Y-105772549D01*
X149220295Y-105774677D01*
X149206860Y-105776000D01*
X148693140Y-105776000D01*
X148679705Y-105774677D01*
X148672690Y-105772549D01*
X148666224Y-105769092D01*
X148660558Y-105764442D01*
X148655908Y-105758776D01*
X148652451Y-105752310D01*
X148650323Y-105745295D01*
X148649000Y-105731860D01*
X148649000Y-105418140D01*
X148650323Y-105404705D01*
X148652451Y-105397690D01*
X148655908Y-105391224D01*
X148660558Y-105385558D01*
X148666224Y-105380908D01*
X148672690Y-105377451D01*
X148679705Y-105375323D01*
X148693140Y-105374000D01*
X149206860Y-105374000D01*
X149220295Y-105375323D01*
G37*
G36*
X151780051Y-104526284D02*
G01*
X151796443Y-104531257D01*
X151811555Y-104539334D01*
X151824798Y-104550202D01*
X151835666Y-104563445D01*
X151843743Y-104578557D01*
X151848716Y-104594949D01*
X151851000Y-104618141D01*
X151851000Y-105031859D01*
X151848716Y-105055051D01*
X151843743Y-105071443D01*
X151835666Y-105086555D01*
X151824798Y-105099798D01*
X151811555Y-105110666D01*
X151796443Y-105118743D01*
X151780051Y-105123716D01*
X151756859Y-105126000D01*
X150593141Y-105126000D01*
X150569949Y-105123716D01*
X150553557Y-105118743D01*
X150538445Y-105110666D01*
X150525202Y-105099798D01*
X150514334Y-105086555D01*
X150506257Y-105071443D01*
X150501284Y-105055051D01*
X150499000Y-105031859D01*
X150499000Y-104618141D01*
X150501284Y-104594949D01*
X150506257Y-104578557D01*
X150514334Y-104563445D01*
X150525202Y-104550202D01*
X150538445Y-104539334D01*
X150553557Y-104531257D01*
X150569949Y-104526284D01*
X150593141Y-104524000D01*
X151756859Y-104524000D01*
X151780051Y-104526284D01*
G37*
G36*
X149220295Y-104625323D02*
G01*
X149227310Y-104627451D01*
X149233776Y-104630908D01*
X149239442Y-104635558D01*
X149244092Y-104641224D01*
X149247549Y-104647690D01*
X149249677Y-104654705D01*
X149251000Y-104668140D01*
X149251000Y-104981860D01*
X149249677Y-104995295D01*
X149247549Y-105002310D01*
X149244092Y-105008776D01*
X149239442Y-105014442D01*
X149233776Y-105019092D01*
X149227310Y-105022549D01*
X149220295Y-105024677D01*
X149206860Y-105026000D01*
X148693140Y-105026000D01*
X148679705Y-105024677D01*
X148672690Y-105022549D01*
X148666224Y-105019092D01*
X148660558Y-105014442D01*
X148655908Y-105008776D01*
X148652451Y-105002310D01*
X148650323Y-104995295D01*
X148649000Y-104981860D01*
X148649000Y-104668140D01*
X148650323Y-104654705D01*
X148652451Y-104647690D01*
X148655908Y-104641224D01*
X148660558Y-104635558D01*
X148666224Y-104630908D01*
X148672690Y-104627451D01*
X148679705Y-104625323D01*
X148693140Y-104624000D01*
X149206860Y-104624000D01*
X149220295Y-104625323D01*
G37*
G36*
X147585203Y-104674967D02*
G01*
X147588743Y-104676041D01*
X147592006Y-104677785D01*
X147594867Y-104680133D01*
X147597215Y-104682994D01*
X147598959Y-104686257D01*
X147600033Y-104689797D01*
X147601000Y-104699620D01*
X147601000Y-105000380D01*
X147600033Y-105010203D01*
X147598959Y-105013743D01*
X147597215Y-105017006D01*
X147594867Y-105019867D01*
X147592006Y-105022215D01*
X147588743Y-105023959D01*
X147585203Y-105025033D01*
X147575380Y-105026000D01*
X146724620Y-105026000D01*
X146714797Y-105025033D01*
X146711257Y-105023959D01*
X146707994Y-105022215D01*
X146705133Y-105019867D01*
X146702785Y-105017006D01*
X146701041Y-105013743D01*
X146699967Y-105010203D01*
X146699000Y-105000380D01*
X146699000Y-104699620D01*
X146699967Y-104689797D01*
X146701041Y-104686257D01*
X146702785Y-104682994D01*
X146705133Y-104680133D01*
X146707994Y-104677785D01*
X146711257Y-104676041D01*
X146714797Y-104674967D01*
X146724620Y-104674000D01*
X147575380Y-104674000D01*
X147585203Y-104674967D01*
G37*
G36*
X158045295Y-103650323D02*
G01*
X158052310Y-103652451D01*
X158058776Y-103655908D01*
X158064442Y-103660558D01*
X158069092Y-103666224D01*
X158072549Y-103672690D01*
X158074677Y-103679705D01*
X158076000Y-103693140D01*
X158076000Y-104206860D01*
X158074677Y-104220295D01*
X158072549Y-104227310D01*
X158069092Y-104233776D01*
X158064442Y-104239442D01*
X158058776Y-104244092D01*
X158052310Y-104247549D01*
X158045295Y-104249677D01*
X158031860Y-104251000D01*
X157718140Y-104251000D01*
X157704705Y-104249677D01*
X157697690Y-104247549D01*
X157691224Y-104244092D01*
X157685558Y-104239442D01*
X157680908Y-104233776D01*
X157677451Y-104227310D01*
X157675323Y-104220295D01*
X157674000Y-104206860D01*
X157674000Y-103693140D01*
X157675323Y-103679705D01*
X157677451Y-103672690D01*
X157680908Y-103666224D01*
X157685558Y-103660558D01*
X157691224Y-103655908D01*
X157697690Y-103652451D01*
X157704705Y-103650323D01*
X157718140Y-103649000D01*
X158031860Y-103649000D01*
X158045295Y-103650323D01*
G37*
G36*
X157295295Y-103650323D02*
G01*
X157302310Y-103652451D01*
X157308776Y-103655908D01*
X157314442Y-103660558D01*
X157319092Y-103666224D01*
X157322549Y-103672690D01*
X157324677Y-103679705D01*
X157326000Y-103693140D01*
X157326000Y-104206860D01*
X157324677Y-104220295D01*
X157322549Y-104227310D01*
X157319092Y-104233776D01*
X157314442Y-104239442D01*
X157308776Y-104244092D01*
X157302310Y-104247549D01*
X157295295Y-104249677D01*
X157281860Y-104251000D01*
X156968140Y-104251000D01*
X156954705Y-104249677D01*
X156947690Y-104247549D01*
X156941224Y-104244092D01*
X156935558Y-104239442D01*
X156930908Y-104233776D01*
X156927451Y-104227310D01*
X156925323Y-104220295D01*
X156924000Y-104206860D01*
X156924000Y-103693140D01*
X156925323Y-103679705D01*
X156927451Y-103672690D01*
X156930908Y-103666224D01*
X156935558Y-103660558D01*
X156941224Y-103655908D01*
X156947690Y-103652451D01*
X156954705Y-103650323D01*
X156968140Y-103649000D01*
X157281860Y-103649000D01*
X157295295Y-103650323D01*
G37*
G36*
X148656000Y-103551000D02*
G01*
X146554000Y-103551000D01*
X146554000Y-100449000D01*
X148656000Y-100449000D01*
X148656000Y-103551000D01*
G37*
G36*
X151831000Y-103551000D02*
G01*
X149729000Y-103551000D01*
X149729000Y-100449000D01*
X151831000Y-100449000D01*
X151831000Y-103551000D01*
G37*
G36*
X156555051Y-101851284D02*
G01*
X156571443Y-101856257D01*
X156586555Y-101864334D01*
X156599798Y-101875202D01*
X156610666Y-101888445D01*
X156618743Y-101903557D01*
X156623716Y-101919949D01*
X156626000Y-101943141D01*
X156626000Y-103106859D01*
X156623716Y-103130051D01*
X156618743Y-103146443D01*
X156610666Y-103161555D01*
X156599798Y-103174798D01*
X156586555Y-103185666D01*
X156571443Y-103193743D01*
X156555051Y-103198716D01*
X156531859Y-103201000D01*
X156118141Y-103201000D01*
X156094949Y-103198716D01*
X156078557Y-103193743D01*
X156063445Y-103185666D01*
X156050202Y-103174798D01*
X156039334Y-103161555D01*
X156031257Y-103146443D01*
X156026284Y-103130051D01*
X156024000Y-103106859D01*
X156024000Y-101943141D01*
X156026284Y-101919949D01*
X156031257Y-101903557D01*
X156039334Y-101888445D01*
X156050202Y-101875202D01*
X156063445Y-101864334D01*
X156078557Y-101856257D01*
X156094949Y-101851284D01*
X156118141Y-101849000D01*
X156531859Y-101849000D01*
X156555051Y-101851284D01*
G37*
G36*
X158105051Y-101851284D02*
G01*
X158121443Y-101856257D01*
X158136555Y-101864334D01*
X158149798Y-101875202D01*
X158160666Y-101888445D01*
X158168743Y-101903557D01*
X158173716Y-101919949D01*
X158176000Y-101943141D01*
X158176000Y-103106859D01*
X158173716Y-103130051D01*
X158168743Y-103146443D01*
X158160666Y-103161555D01*
X158149798Y-103174798D01*
X158136555Y-103185666D01*
X158121443Y-103193743D01*
X158105051Y-103198716D01*
X158081859Y-103201000D01*
X157668141Y-103201000D01*
X157644949Y-103198716D01*
X157628557Y-103193743D01*
X157613445Y-103185666D01*
X157600202Y-103174798D01*
X157589334Y-103161555D01*
X157581257Y-103146443D01*
X157576284Y-103130051D01*
X157574000Y-103106859D01*
X157574000Y-101943141D01*
X157576284Y-101919949D01*
X157581257Y-101903557D01*
X157589334Y-101888445D01*
X157600202Y-101875202D01*
X157613445Y-101864334D01*
X157628557Y-101856257D01*
X157644949Y-101851284D01*
X157668141Y-101849000D01*
X158081859Y-101849000D01*
X158105051Y-101851284D01*
G37*
G36*
X155195295Y-102250323D02*
G01*
X155202310Y-102252451D01*
X155208776Y-102255908D01*
X155214442Y-102260558D01*
X155219092Y-102266224D01*
X155222549Y-102272690D01*
X155224677Y-102279705D01*
X155226000Y-102293140D01*
X155226000Y-102806860D01*
X155224677Y-102820295D01*
X155222549Y-102827310D01*
X155219092Y-102833776D01*
X155214442Y-102839442D01*
X155208776Y-102844092D01*
X155202310Y-102847549D01*
X155195295Y-102849677D01*
X155181860Y-102851000D01*
X154868140Y-102851000D01*
X154854705Y-102849677D01*
X154847690Y-102847549D01*
X154841224Y-102844092D01*
X154835558Y-102839442D01*
X154830908Y-102833776D01*
X154827451Y-102827310D01*
X154825323Y-102820295D01*
X154824000Y-102806860D01*
X154824000Y-102293140D01*
X154825323Y-102279705D01*
X154827451Y-102272690D01*
X154830908Y-102266224D01*
X154835558Y-102260558D01*
X154841224Y-102255908D01*
X154847690Y-102252451D01*
X154854705Y-102250323D01*
X154868140Y-102249000D01*
X155181860Y-102249000D01*
X155195295Y-102250323D01*
G37*
G36*
X154445295Y-102250323D02*
G01*
X154452310Y-102252451D01*
X154458776Y-102255908D01*
X154464442Y-102260558D01*
X154469092Y-102266224D01*
X154472549Y-102272690D01*
X154474677Y-102279705D01*
X154476000Y-102293140D01*
X154476000Y-102806860D01*
X154474677Y-102820295D01*
X154472549Y-102827310D01*
X154469092Y-102833776D01*
X154464442Y-102839442D01*
X154458776Y-102844092D01*
X154452310Y-102847549D01*
X154445295Y-102849677D01*
X154431860Y-102851000D01*
X154118140Y-102851000D01*
X154104705Y-102849677D01*
X154097690Y-102847549D01*
X154091224Y-102844092D01*
X154085558Y-102839442D01*
X154080908Y-102833776D01*
X154077451Y-102827310D01*
X154075323Y-102820295D01*
X154074000Y-102806860D01*
X154074000Y-102293140D01*
X154075323Y-102279705D01*
X154077451Y-102272690D01*
X154080908Y-102266224D01*
X154085558Y-102260558D01*
X154091224Y-102255908D01*
X154097690Y-102252451D01*
X154104705Y-102250323D01*
X154118140Y-102249000D01*
X154431860Y-102249000D01*
X154445295Y-102250323D01*
G37*
G36*
X155255051Y-100001284D02*
G01*
X155271443Y-100006257D01*
X155286555Y-100014334D01*
X155299798Y-100025202D01*
X155310666Y-100038445D01*
X155318743Y-100053557D01*
X155323716Y-100069949D01*
X155326000Y-100093141D01*
X155326000Y-101256859D01*
X155323716Y-101280051D01*
X155318743Y-101296443D01*
X155310666Y-101311555D01*
X155299798Y-101324798D01*
X155286555Y-101335666D01*
X155271443Y-101343743D01*
X155255051Y-101348716D01*
X155231859Y-101351000D01*
X154818141Y-101351000D01*
X154794949Y-101348716D01*
X154778557Y-101343743D01*
X154763445Y-101335666D01*
X154750202Y-101324798D01*
X154739334Y-101311555D01*
X154731257Y-101296443D01*
X154726284Y-101280051D01*
X154724000Y-101256859D01*
X154724000Y-100093141D01*
X154726284Y-100069949D01*
X154731257Y-100053557D01*
X154739334Y-100038445D01*
X154750202Y-100025202D01*
X154763445Y-100014334D01*
X154778557Y-100006257D01*
X154794949Y-100001284D01*
X154818141Y-99999000D01*
X155231859Y-99999000D01*
X155255051Y-100001284D01*
G37*
G36*
X153705051Y-100001284D02*
G01*
X153721443Y-100006257D01*
X153736555Y-100014334D01*
X153749798Y-100025202D01*
X153760666Y-100038445D01*
X153768743Y-100053557D01*
X153773716Y-100069949D01*
X153776000Y-100093141D01*
X153776000Y-101256859D01*
X153773716Y-101280051D01*
X153768743Y-101296443D01*
X153760666Y-101311555D01*
X153749798Y-101324798D01*
X153736555Y-101335666D01*
X153721443Y-101343743D01*
X153705051Y-101348716D01*
X153681859Y-101351000D01*
X153268141Y-101351000D01*
X153244949Y-101348716D01*
X153228557Y-101343743D01*
X153213445Y-101335666D01*
X153200202Y-101324798D01*
X153189334Y-101311555D01*
X153181257Y-101296443D01*
X153176284Y-101280051D01*
X153174000Y-101256859D01*
X153174000Y-100093141D01*
X153176284Y-100069949D01*
X153181257Y-100053557D01*
X153189334Y-100038445D01*
X153200202Y-100025202D01*
X153213445Y-100014334D01*
X153228557Y-100006257D01*
X153244949Y-100001284D01*
X153268141Y-99999000D01*
X153681859Y-99999000D01*
X153705051Y-100001284D01*
G37*
M02*
