G04 #@! TF.GenerationSoftware,KiCad,Pcbnew,(5.1.5)-3*
G04 #@! TF.CreationDate,2020-05-19T17:15:19+09:00*
G04 #@! TF.ProjectId,FMU_Power,464d555f-506f-4776-9572-2e6b69636164,rev?*
G04 #@! TF.SameCoordinates,Original*
G04 #@! TF.FileFunction,Legend,Top*
G04 #@! TF.FilePolarity,Positive*
%FSLAX46Y46*%
G04 Gerber Fmt 4.6, Leading zero omitted, Abs format (unit mm)*
G04 Created by KiCad (PCBNEW (5.1.5)-3) date 2020-05-19 17:15:19*
%MOMM*%
%LPD*%
G04 APERTURE LIST*
%ADD10C,0.050000*%
%ADD11C,0.120000*%
%ADD12C,0.100000*%
%ADD13C,0.040000*%
%ADD14C,0.125000*%
%ADD15C,0.150000*%
%ADD16C,0.075000*%
G04 APERTURE END LIST*
D10*
X149250000Y-105000000D02*
X149250000Y-105400000D01*
X148650000Y-105000000D02*
X148650000Y-105400000D01*
D11*
X151750000Y-105150000D02*
X151750000Y-106050000D01*
X150600000Y-106050000D02*
X150600000Y-105150000D01*
D10*
X157300000Y-106550000D02*
X157700000Y-106550000D01*
X157300000Y-107150000D02*
X157700000Y-107150000D01*
D11*
X157050000Y-104950000D02*
X157550000Y-104950000D01*
X157050000Y-105850000D02*
X157550000Y-105850000D01*
D10*
X157300000Y-104250000D02*
X157700000Y-104250000D01*
X157300000Y-103650000D02*
X157700000Y-103650000D01*
D11*
X156650000Y-101950000D02*
X157550000Y-101950000D01*
X157550000Y-103050000D02*
X156650000Y-103050000D01*
D10*
X154850000Y-102850000D02*
X154450000Y-102850000D01*
X154850000Y-102250000D02*
X154450000Y-102250000D01*
D11*
X153800000Y-100150000D02*
X154700000Y-100150000D01*
X154700000Y-101250000D02*
X153800000Y-101250000D01*
X146800000Y-103700000D02*
X151700000Y-103700000D01*
X151700000Y-100300000D02*
X149500000Y-100300000D01*
X155800000Y-109250000D02*
X155300000Y-109250000D01*
X155800000Y-111750000D02*
X155300000Y-111750000D01*
X153300000Y-109250000D02*
X152800000Y-109250000D01*
X153300000Y-111750000D02*
X152800000Y-111750000D01*
X150800000Y-111750000D02*
X150300000Y-111750000D01*
X150800000Y-109250000D02*
X150300000Y-109250000D01*
X157650000Y-109250000D02*
X157650000Y-111750000D01*
D12*
X146650000Y-106300000D02*
X146650000Y-106050000D01*
X146650000Y-106050000D02*
X146750000Y-106050000D01*
X146750000Y-106050000D02*
X146750000Y-105850000D01*
X146750000Y-105050000D02*
X146750000Y-105250000D01*
X147550000Y-105850000D02*
X147550000Y-106050000D01*
X147550000Y-105050000D02*
X147550000Y-105250000D01*
D10*
X154850000Y-107750000D02*
X154350000Y-107750000D01*
X154350000Y-107350000D02*
X154850000Y-107350000D01*
D13*
X153900000Y-106250000D02*
X154500000Y-106250000D01*
X154500000Y-106250000D02*
X154500000Y-105050000D01*
X154500000Y-105050000D02*
X153900000Y-105050000D01*
X153900000Y-105450000D02*
G75*
G03X153900000Y-105250000I0J100000D01*
G01*
X153900000Y-105050000D02*
X153900000Y-105250000D01*
X153900000Y-105450000D02*
X153900000Y-106250000D01*
D11*
X153300000Y-104700000D02*
X155050000Y-104700000D01*
X155050000Y-106650000D02*
X153300000Y-106650000D01*
D14*
X148816666Y-106478571D02*
X148792857Y-106502380D01*
X148721428Y-106526190D01*
X148673809Y-106526190D01*
X148602380Y-106502380D01*
X148554761Y-106454761D01*
X148530952Y-106407142D01*
X148507142Y-106311904D01*
X148507142Y-106240476D01*
X148530952Y-106145238D01*
X148554761Y-106097619D01*
X148602380Y-106050000D01*
X148673809Y-106026190D01*
X148721428Y-106026190D01*
X148792857Y-106050000D01*
X148816666Y-106073809D01*
X149292857Y-106526190D02*
X149007142Y-106526190D01*
X149150000Y-106526190D02*
X149150000Y-106026190D01*
X149102380Y-106097619D01*
X149054761Y-106145238D01*
X149007142Y-106169047D01*
X150816666Y-107378571D02*
X150792857Y-107402380D01*
X150721428Y-107426190D01*
X150673809Y-107426190D01*
X150602380Y-107402380D01*
X150554761Y-107354761D01*
X150530952Y-107307142D01*
X150507142Y-107211904D01*
X150507142Y-107140476D01*
X150530952Y-107045238D01*
X150554761Y-106997619D01*
X150602380Y-106950000D01*
X150673809Y-106926190D01*
X150721428Y-106926190D01*
X150792857Y-106950000D01*
X150816666Y-106973809D01*
X151007142Y-106973809D02*
X151030952Y-106950000D01*
X151078571Y-106926190D01*
X151197619Y-106926190D01*
X151245238Y-106950000D01*
X151269047Y-106973809D01*
X151292857Y-107021428D01*
X151292857Y-107069047D01*
X151269047Y-107140476D01*
X150983333Y-107426190D01*
X151292857Y-107426190D01*
X158616666Y-107078571D02*
X158592857Y-107102380D01*
X158521428Y-107126190D01*
X158473809Y-107126190D01*
X158402380Y-107102380D01*
X158354761Y-107054761D01*
X158330952Y-107007142D01*
X158307142Y-106911904D01*
X158307142Y-106840476D01*
X158330952Y-106745238D01*
X158354761Y-106697619D01*
X158402380Y-106650000D01*
X158473809Y-106626190D01*
X158521428Y-106626190D01*
X158592857Y-106650000D01*
X158616666Y-106673809D01*
X158783333Y-106626190D02*
X159092857Y-106626190D01*
X158926190Y-106816666D01*
X158997619Y-106816666D01*
X159045238Y-106840476D01*
X159069047Y-106864285D01*
X159092857Y-106911904D01*
X159092857Y-107030952D01*
X159069047Y-107078571D01*
X159045238Y-107102380D01*
X158997619Y-107126190D01*
X158854761Y-107126190D01*
X158807142Y-107102380D01*
X158783333Y-107078571D01*
X158716666Y-105678571D02*
X158692857Y-105702380D01*
X158621428Y-105726190D01*
X158573809Y-105726190D01*
X158502380Y-105702380D01*
X158454761Y-105654761D01*
X158430952Y-105607142D01*
X158407142Y-105511904D01*
X158407142Y-105440476D01*
X158430952Y-105345238D01*
X158454761Y-105297619D01*
X158502380Y-105250000D01*
X158573809Y-105226190D01*
X158621428Y-105226190D01*
X158692857Y-105250000D01*
X158716666Y-105273809D01*
X159145238Y-105392857D02*
X159145238Y-105726190D01*
X159026190Y-105202380D02*
X158907142Y-105559523D01*
X159216666Y-105559523D01*
X158641666Y-104178571D02*
X158617857Y-104202380D01*
X158546428Y-104226190D01*
X158498809Y-104226190D01*
X158427380Y-104202380D01*
X158379761Y-104154761D01*
X158355952Y-104107142D01*
X158332142Y-104011904D01*
X158332142Y-103940476D01*
X158355952Y-103845238D01*
X158379761Y-103797619D01*
X158427380Y-103750000D01*
X158498809Y-103726190D01*
X158546428Y-103726190D01*
X158617857Y-103750000D01*
X158641666Y-103773809D01*
X159094047Y-103726190D02*
X158855952Y-103726190D01*
X158832142Y-103964285D01*
X158855952Y-103940476D01*
X158903571Y-103916666D01*
X159022619Y-103916666D01*
X159070238Y-103940476D01*
X159094047Y-103964285D01*
X159117857Y-104011904D01*
X159117857Y-104130952D01*
X159094047Y-104178571D01*
X159070238Y-104202380D01*
X159022619Y-104226190D01*
X158903571Y-104226190D01*
X158855952Y-104202380D01*
X158832142Y-104178571D01*
X158716666Y-102778571D02*
X158692857Y-102802380D01*
X158621428Y-102826190D01*
X158573809Y-102826190D01*
X158502380Y-102802380D01*
X158454761Y-102754761D01*
X158430952Y-102707142D01*
X158407142Y-102611904D01*
X158407142Y-102540476D01*
X158430952Y-102445238D01*
X158454761Y-102397619D01*
X158502380Y-102350000D01*
X158573809Y-102326190D01*
X158621428Y-102326190D01*
X158692857Y-102350000D01*
X158716666Y-102373809D01*
X159145238Y-102326190D02*
X159050000Y-102326190D01*
X159002380Y-102350000D01*
X158978571Y-102373809D01*
X158930952Y-102445238D01*
X158907142Y-102540476D01*
X158907142Y-102730952D01*
X158930952Y-102778571D01*
X158954761Y-102802380D01*
X159002380Y-102826190D01*
X159097619Y-102826190D01*
X159145238Y-102802380D01*
X159169047Y-102778571D01*
X159192857Y-102730952D01*
X159192857Y-102611904D01*
X159169047Y-102564285D01*
X159145238Y-102540476D01*
X159097619Y-102516666D01*
X159002380Y-102516666D01*
X158954761Y-102540476D01*
X158930952Y-102564285D01*
X158907142Y-102611904D01*
X154766666Y-103578571D02*
X154742857Y-103602380D01*
X154671428Y-103626190D01*
X154623809Y-103626190D01*
X154552380Y-103602380D01*
X154504761Y-103554761D01*
X154480952Y-103507142D01*
X154457142Y-103411904D01*
X154457142Y-103340476D01*
X154480952Y-103245238D01*
X154504761Y-103197619D01*
X154552380Y-103150000D01*
X154623809Y-103126190D01*
X154671428Y-103126190D01*
X154742857Y-103150000D01*
X154766666Y-103173809D01*
X154933333Y-103126190D02*
X155266666Y-103126190D01*
X155052380Y-103626190D01*
X153466666Y-102078571D02*
X153442857Y-102102380D01*
X153371428Y-102126190D01*
X153323809Y-102126190D01*
X153252380Y-102102380D01*
X153204761Y-102054761D01*
X153180952Y-102007142D01*
X153157142Y-101911904D01*
X153157142Y-101840476D01*
X153180952Y-101745238D01*
X153204761Y-101697619D01*
X153252380Y-101650000D01*
X153323809Y-101626190D01*
X153371428Y-101626190D01*
X153442857Y-101650000D01*
X153466666Y-101673809D01*
X153752380Y-101840476D02*
X153704761Y-101816666D01*
X153680952Y-101792857D01*
X153657142Y-101745238D01*
X153657142Y-101721428D01*
X153680952Y-101673809D01*
X153704761Y-101650000D01*
X153752380Y-101626190D01*
X153847619Y-101626190D01*
X153895238Y-101650000D01*
X153919047Y-101673809D01*
X153942857Y-101721428D01*
X153942857Y-101745238D01*
X153919047Y-101792857D01*
X153895238Y-101816666D01*
X153847619Y-101840476D01*
X153752380Y-101840476D01*
X153704761Y-101864285D01*
X153680952Y-101888095D01*
X153657142Y-101935714D01*
X153657142Y-102030952D01*
X153680952Y-102078571D01*
X153704761Y-102102380D01*
X153752380Y-102126190D01*
X153847619Y-102126190D01*
X153895238Y-102102380D01*
X153919047Y-102078571D01*
X153942857Y-102030952D01*
X153942857Y-101935714D01*
X153919047Y-101888095D01*
X153895238Y-101864285D01*
X153847619Y-101840476D01*
X146333333Y-99726190D02*
X146333333Y-100083333D01*
X146309523Y-100154761D01*
X146261904Y-100202380D01*
X146190476Y-100226190D01*
X146142857Y-100226190D01*
X146833333Y-100226190D02*
X146547619Y-100226190D01*
X146690476Y-100226190D02*
X146690476Y-99726190D01*
X146642857Y-99797619D01*
X146595238Y-99845238D01*
X146547619Y-99869047D01*
D15*
X158466666Y-110952380D02*
X158466666Y-111666666D01*
X158419047Y-111809523D01*
X158323809Y-111904761D01*
X158180952Y-111952380D01*
X158085714Y-111952380D01*
X158895238Y-111047619D02*
X158942857Y-111000000D01*
X159038095Y-110952380D01*
X159276190Y-110952380D01*
X159371428Y-111000000D01*
X159419047Y-111047619D01*
X159466666Y-111142857D01*
X159466666Y-111238095D01*
X159419047Y-111380952D01*
X158847619Y-111952380D01*
X159466666Y-111952380D01*
D14*
X147016666Y-107226190D02*
X146778571Y-107226190D01*
X146778571Y-106726190D01*
X147445238Y-107226190D02*
X147159523Y-107226190D01*
X147302380Y-107226190D02*
X147302380Y-106726190D01*
X147254761Y-106797619D01*
X147207142Y-106845238D01*
X147159523Y-106869047D01*
X154316666Y-108626190D02*
X154150000Y-108388095D01*
X154030952Y-108626190D02*
X154030952Y-108126190D01*
X154221428Y-108126190D01*
X154269047Y-108150000D01*
X154292857Y-108173809D01*
X154316666Y-108221428D01*
X154316666Y-108292857D01*
X154292857Y-108340476D01*
X154269047Y-108364285D01*
X154221428Y-108388095D01*
X154030952Y-108388095D01*
X154792857Y-108626190D02*
X154507142Y-108626190D01*
X154650000Y-108626190D02*
X154650000Y-108126190D01*
X154602380Y-108197619D01*
X154554761Y-108245238D01*
X154507142Y-108269047D01*
D16*
X153471428Y-104135714D02*
X153471428Y-104378571D01*
X153485714Y-104407142D01*
X153500000Y-104421428D01*
X153528571Y-104435714D01*
X153585714Y-104435714D01*
X153614285Y-104421428D01*
X153628571Y-104407142D01*
X153642857Y-104378571D01*
X153642857Y-104135714D01*
X153942857Y-104435714D02*
X153771428Y-104435714D01*
X153857142Y-104435714D02*
X153857142Y-104135714D01*
X153828571Y-104178571D01*
X153800000Y-104207142D01*
X153771428Y-104221428D01*
M02*
