G04 #@! TF.GenerationSoftware,KiCad,Pcbnew,(5.1.5)-3*
G04 #@! TF.CreationDate,2020-06-01T16:45:15+09:00*
G04 #@! TF.ProjectId,FMU3_Sensors_make,464d5533-5f53-4656-9e73-6f72735f6d61,rev?*
G04 #@! TF.SameCoordinates,Original*
G04 #@! TF.FileFunction,Soldermask,Top*
G04 #@! TF.FilePolarity,Negative*
%FSLAX46Y46*%
G04 Gerber Fmt 4.6, Leading zero omitted, Abs format (unit mm)*
G04 Created by KiCad (PCBNEW (5.1.5)-3) date 2020-06-01 16:45:15*
%MOMM*%
%LPD*%
G04 APERTURE LIST*
%ADD10C,0.100000*%
G04 APERTURE END LIST*
D10*
G36*
X148171000Y-37321000D02*
G01*
X145569000Y-37321000D01*
X145569000Y-35719000D01*
X148171000Y-35719000D01*
X148171000Y-37321000D01*
G37*
G36*
X139166000Y-36271000D02*
G01*
X137754000Y-36271000D01*
X137754000Y-35639000D01*
X139166000Y-35639000D01*
X139166000Y-36271000D01*
G37*
G36*
X136766000Y-36271000D02*
G01*
X135354000Y-36271000D01*
X135354000Y-35639000D01*
X136766000Y-35639000D01*
X136766000Y-36271000D01*
G37*
G36*
X143301000Y-32884001D02*
G01*
X143303402Y-32908387D01*
X143310515Y-32931836D01*
X143322066Y-32953447D01*
X143337611Y-32972389D01*
X143356553Y-32987934D01*
X143378164Y-32999485D01*
X143401613Y-33006598D01*
X143425999Y-33009000D01*
X144251000Y-33009000D01*
X144251000Y-35411000D01*
X143425999Y-35411000D01*
X143401613Y-35413402D01*
X143378164Y-35420515D01*
X143356553Y-35432066D01*
X143337611Y-35447611D01*
X143322066Y-35466553D01*
X143310515Y-35488164D01*
X143303402Y-35511613D01*
X143301000Y-35535999D01*
X143301000Y-35861000D01*
X141899000Y-35861000D01*
X141899000Y-35535999D01*
X141896598Y-35511613D01*
X141889485Y-35488164D01*
X141877934Y-35466553D01*
X141862389Y-35447611D01*
X141843447Y-35432066D01*
X141821836Y-35420515D01*
X141798387Y-35413402D01*
X141774001Y-35411000D01*
X140949000Y-35411000D01*
X140949000Y-33385999D01*
X141651000Y-33385999D01*
X141651000Y-35034001D01*
X141653402Y-35058387D01*
X141660515Y-35081836D01*
X141672066Y-35103447D01*
X141687611Y-35122389D01*
X141706553Y-35137934D01*
X141728164Y-35149485D01*
X141751613Y-35156598D01*
X141775999Y-35159000D01*
X143424001Y-35159000D01*
X143448387Y-35156598D01*
X143471836Y-35149485D01*
X143493447Y-35137934D01*
X143512389Y-35122389D01*
X143527934Y-35103447D01*
X143539485Y-35081836D01*
X143546598Y-35058387D01*
X143549000Y-35034001D01*
X143549000Y-33385999D01*
X143546598Y-33361613D01*
X143539485Y-33338164D01*
X143527934Y-33316553D01*
X143512389Y-33297611D01*
X143493447Y-33282066D01*
X143471836Y-33270515D01*
X143448387Y-33263402D01*
X143424001Y-33261000D01*
X141775999Y-33261000D01*
X141751613Y-33263402D01*
X141728164Y-33270515D01*
X141706553Y-33282066D01*
X141687611Y-33297611D01*
X141672066Y-33316553D01*
X141660515Y-33338164D01*
X141653402Y-33361613D01*
X141651000Y-33385999D01*
X140949000Y-33385999D01*
X140949000Y-33009000D01*
X141774001Y-33009000D01*
X141798387Y-33006598D01*
X141821836Y-32999485D01*
X141843447Y-32987934D01*
X141862389Y-32972389D01*
X141877934Y-32953447D01*
X141889485Y-32931836D01*
X141896598Y-32908387D01*
X141899000Y-32884001D01*
X141899000Y-32559000D01*
X143301000Y-32559000D01*
X143301000Y-32884001D01*
G37*
G36*
X132501001Y-35151000D02*
G01*
X129899001Y-35151000D01*
X129899001Y-33549000D01*
X132501001Y-33549000D01*
X132501001Y-35151000D01*
G37*
G36*
X136766000Y-35021000D02*
G01*
X135354000Y-35021000D01*
X135354000Y-34389000D01*
X136766000Y-34389000D01*
X136766000Y-35021000D01*
G37*
G36*
X139166000Y-35021000D02*
G01*
X137754000Y-35021000D01*
X137754000Y-34389000D01*
X139166000Y-34389000D01*
X139166000Y-35021000D01*
G37*
G36*
X148171000Y-34921000D02*
G01*
X145569000Y-34921000D01*
X145569000Y-33319000D01*
X148171000Y-33319000D01*
X148171000Y-34921000D01*
G37*
G36*
X139166000Y-33771000D02*
G01*
X137754000Y-33771000D01*
X137754000Y-33139000D01*
X139166000Y-33139000D01*
X139166000Y-33771000D01*
G37*
G36*
X136766000Y-33771000D02*
G01*
X135354000Y-33771000D01*
X135354000Y-33139000D01*
X136766000Y-33139000D01*
X136766000Y-33771000D01*
G37*
G36*
X132501001Y-32651000D02*
G01*
X129899001Y-32651000D01*
X129899001Y-31049000D01*
X132501001Y-31049000D01*
X132501001Y-32651000D01*
G37*
G36*
X139166000Y-32521000D02*
G01*
X137754000Y-32521000D01*
X137754000Y-31889000D01*
X139166000Y-31889000D01*
X139166000Y-32521000D01*
G37*
G36*
X136766000Y-32521000D02*
G01*
X135354000Y-32521000D01*
X135354000Y-31889000D01*
X136766000Y-31889000D01*
X136766000Y-32521000D01*
G37*
G36*
X148171000Y-32421000D02*
G01*
X145569000Y-32421000D01*
X145569000Y-30819000D01*
X148171000Y-30819000D01*
X148171000Y-32421000D01*
G37*
G36*
X142598164Y-30949485D02*
G01*
X142621613Y-30956598D01*
X142645999Y-30959000D01*
X144251000Y-30959000D01*
X144251000Y-31661000D01*
X142691453Y-31661000D01*
X142671836Y-31650515D01*
X142648387Y-31643402D01*
X142624001Y-31641000D01*
X141019000Y-31641000D01*
X141019000Y-30939000D01*
X142578547Y-30939000D01*
X142598164Y-30949485D01*
G37*
G36*
X142237000Y-30526000D02*
G01*
X141125000Y-30526000D01*
X141125000Y-29494000D01*
X142237000Y-29494000D01*
X142237000Y-30526000D01*
G37*
G36*
X143655000Y-30526000D02*
G01*
X142543000Y-30526000D01*
X142543000Y-29494000D01*
X143655000Y-29494000D01*
X143655000Y-30526000D01*
G37*
G36*
X139495000Y-30516000D02*
G01*
X138383000Y-30516000D01*
X138383000Y-29484000D01*
X139495000Y-29484000D01*
X139495000Y-30516000D01*
G37*
G36*
X138077000Y-30516000D02*
G01*
X136965000Y-30516000D01*
X136965000Y-29484000D01*
X138077000Y-29484000D01*
X138077000Y-30516000D01*
G37*
G36*
X132501001Y-30151000D02*
G01*
X129899001Y-30151000D01*
X129899001Y-28549000D01*
X132501001Y-28549000D01*
X132501001Y-30151000D01*
G37*
G36*
X136371000Y-30131000D02*
G01*
X134869000Y-30131000D01*
X134869000Y-29429000D01*
X136371000Y-29429000D01*
X136371000Y-30131000D01*
G37*
G36*
X148171000Y-29921000D02*
G01*
X145569000Y-29921000D01*
X145569000Y-28319000D01*
X148171000Y-28319000D01*
X148171000Y-29921000D01*
G37*
G36*
X142511000Y-29081000D02*
G01*
X141009000Y-29081000D01*
X141009000Y-28379000D01*
X142511000Y-28379000D01*
X142511000Y-29081000D01*
G37*
G36*
X132501001Y-27651000D02*
G01*
X129899001Y-27651000D01*
X129899001Y-26049000D01*
X132501001Y-26049000D01*
X132501001Y-27651000D01*
G37*
G36*
X148171000Y-27421000D02*
G01*
X145569000Y-27421000D01*
X145569000Y-25819000D01*
X148171000Y-25819000D01*
X148171000Y-27421000D01*
G37*
G36*
X139896000Y-24159001D02*
G01*
X139898402Y-24183387D01*
X139905515Y-24206836D01*
X139917066Y-24228447D01*
X139932611Y-24247389D01*
X139951553Y-24262934D01*
X139973164Y-24274485D01*
X139996613Y-24281598D01*
X140020999Y-24284000D01*
X140686000Y-24284000D01*
X140686000Y-26536000D01*
X140020999Y-26536000D01*
X139996613Y-26538402D01*
X139973164Y-26545515D01*
X139951553Y-26557066D01*
X139932611Y-26572611D01*
X139917066Y-26591553D01*
X139905515Y-26613164D01*
X139898402Y-26636613D01*
X139896000Y-26660999D01*
X139896000Y-27326000D01*
X137644000Y-27326000D01*
X137644000Y-26660999D01*
X137641598Y-26636613D01*
X137634485Y-26613164D01*
X137622934Y-26591553D01*
X137607389Y-26572611D01*
X137588447Y-26557066D01*
X137566836Y-26545515D01*
X137543387Y-26538402D01*
X137519001Y-26536000D01*
X136854000Y-26536000D01*
X136854000Y-24360999D01*
X137596000Y-24360999D01*
X137596000Y-26459001D01*
X137598402Y-26483387D01*
X137605515Y-26506836D01*
X137617066Y-26528447D01*
X137632611Y-26547389D01*
X137651553Y-26562934D01*
X137673164Y-26574485D01*
X137696613Y-26581598D01*
X137720999Y-26584000D01*
X139819001Y-26584000D01*
X139843387Y-26581598D01*
X139866836Y-26574485D01*
X139888447Y-26562934D01*
X139907389Y-26547389D01*
X139922934Y-26528447D01*
X139934485Y-26506836D01*
X139941598Y-26483387D01*
X139944000Y-26459001D01*
X139944000Y-24360999D01*
X139941598Y-24336613D01*
X139934485Y-24313164D01*
X139922934Y-24291553D01*
X139907389Y-24272611D01*
X139888447Y-24257066D01*
X139866836Y-24245515D01*
X139843387Y-24238402D01*
X139819001Y-24236000D01*
X137720999Y-24236000D01*
X137696613Y-24238402D01*
X137673164Y-24245515D01*
X137651553Y-24257066D01*
X137632611Y-24272611D01*
X137617066Y-24291553D01*
X137605515Y-24313164D01*
X137598402Y-24336613D01*
X137596000Y-24360999D01*
X136854000Y-24360999D01*
X136854000Y-24284000D01*
X137519001Y-24284000D01*
X137543387Y-24281598D01*
X137566836Y-24274485D01*
X137588447Y-24262934D01*
X137607389Y-24247389D01*
X137622934Y-24228447D01*
X137634485Y-24206836D01*
X137641598Y-24183387D01*
X137644000Y-24159001D01*
X137644000Y-23494000D01*
X139896000Y-23494000D01*
X139896000Y-24159001D01*
G37*
G36*
X135981000Y-27051000D02*
G01*
X134479000Y-27051000D01*
X134479000Y-26349000D01*
X135981000Y-26349000D01*
X135981000Y-27051000D01*
G37*
G36*
X135875000Y-25796000D02*
G01*
X134763000Y-25796000D01*
X134763000Y-24764000D01*
X135875000Y-24764000D01*
X135875000Y-25796000D01*
G37*
G36*
X134457000Y-25796000D02*
G01*
X133345000Y-25796000D01*
X133345000Y-24764000D01*
X134457000Y-24764000D01*
X134457000Y-25796000D01*
G37*
G36*
X132501001Y-25151000D02*
G01*
X129899001Y-25151000D01*
X129899001Y-23549000D01*
X132501001Y-23549000D01*
X132501001Y-25151000D01*
G37*
G36*
X148171000Y-24921000D02*
G01*
X145569000Y-24921000D01*
X145569000Y-23319000D01*
X148171000Y-23319000D01*
X148171000Y-24921000D01*
G37*
G36*
X134901938Y-23391716D02*
G01*
X134922557Y-23397971D01*
X134941553Y-23408124D01*
X134958208Y-23421792D01*
X134971876Y-23438447D01*
X134982029Y-23457443D01*
X134988284Y-23478062D01*
X134991000Y-23505640D01*
X134991000Y-24014360D01*
X134988284Y-24041938D01*
X134982029Y-24062557D01*
X134971876Y-24081553D01*
X134958208Y-24098208D01*
X134941553Y-24111876D01*
X134922557Y-24122029D01*
X134901938Y-24128284D01*
X134874360Y-24131000D01*
X134415640Y-24131000D01*
X134388062Y-24128284D01*
X134367443Y-24122029D01*
X134348447Y-24111876D01*
X134331792Y-24098208D01*
X134318124Y-24081553D01*
X134307971Y-24062557D01*
X134301716Y-24041938D01*
X134299000Y-24014360D01*
X134299000Y-23505640D01*
X134301716Y-23478062D01*
X134307971Y-23457443D01*
X134318124Y-23438447D01*
X134331792Y-23421792D01*
X134348447Y-23408124D01*
X134367443Y-23397971D01*
X134388062Y-23391716D01*
X134415640Y-23389000D01*
X134874360Y-23389000D01*
X134901938Y-23391716D01*
G37*
G36*
X135871938Y-23391716D02*
G01*
X135892557Y-23397971D01*
X135911553Y-23408124D01*
X135928208Y-23421792D01*
X135941876Y-23438447D01*
X135952029Y-23457443D01*
X135958284Y-23478062D01*
X135961000Y-23505640D01*
X135961000Y-24014360D01*
X135958284Y-24041938D01*
X135952029Y-24062557D01*
X135941876Y-24081553D01*
X135928208Y-24098208D01*
X135911553Y-24111876D01*
X135892557Y-24122029D01*
X135871938Y-24128284D01*
X135844360Y-24131000D01*
X135385640Y-24131000D01*
X135358062Y-24128284D01*
X135337443Y-24122029D01*
X135318447Y-24111876D01*
X135301792Y-24098208D01*
X135288124Y-24081553D01*
X135277971Y-24062557D01*
X135271716Y-24041938D01*
X135269000Y-24014360D01*
X135269000Y-23505640D01*
X135271716Y-23478062D01*
X135277971Y-23457443D01*
X135288124Y-23438447D01*
X135301792Y-23421792D01*
X135318447Y-23408124D01*
X135337443Y-23397971D01*
X135358062Y-23391716D01*
X135385640Y-23389000D01*
X135844360Y-23389000D01*
X135871938Y-23391716D01*
G37*
M02*
