M48
; DRILL file {KiCad (5.1.5)-3} date 2020-05-27 오후 3:07:37
; FORMAT={-:-/ absolute / inch / decimal}
; #@! TF.CreationDate,2020-05-27T15:07:37+09:00
; #@! TF.GenerationSoftware,Kicad,Pcbnew,(5.1.5)-3
; #@! TF.FileFunction,Plated,1,2,PTH
FMAT,2
INCH
T1C0.0157
%
G90
G05
T1
X5.4319Y-1.5295
X5.4319Y-1.8236
X5.4346Y-1.6283
X5.4409Y-1.4744
X5.4638Y-1.4134
X5.4724Y-1.5165
X5.5028Y-1.7094
X5.5047Y-1.4146
X5.5516Y-1.7102
X5.6012Y-1.6803
X5.6508Y-1.7122
X5.6987Y-1.666
X5.7122Y-1.6252
X5.7185Y-1.5453
X5.7402Y-1.4272
X5.748Y-1.7709
X5.8925Y-1.628
X5.8933Y-1.5295
X5.8945Y-1.7268
X5.9768Y-1.8866
T0
M30
