G04 #@! TF.GenerationSoftware,KiCad,Pcbnew,(5.1.5)-3*
G04 #@! TF.CreationDate,2020-06-02T09:59:11+09:00*
G04 #@! TF.ProjectId,FMU3_Sensors_make,464d5533-5f53-4656-9e73-6f72735f6d61,rev?*
G04 #@! TF.SameCoordinates,Original*
G04 #@! TF.FileFunction,Other,User*
%FSLAX46Y46*%
G04 Gerber Fmt 4.6, Leading zero omitted, Abs format (unit mm)*
G04 Created by KiCad (PCBNEW (5.1.5)-3) date 2020-06-02 09:59:11*
%MOMM*%
%LPD*%
G04 APERTURE LIST*
%ADD10C,0.050000*%
%ADD11C,0.120000*%
G04 APERTURE END LIST*
D10*
X142620000Y-31830000D02*
X142620000Y-30750000D01*
X140920000Y-31830000D02*
X142620000Y-31830000D01*
X140920000Y-30750000D02*
X140920000Y-31830000D01*
X142620000Y-30750000D02*
X140920000Y-30750000D01*
X136650000Y-23534000D02*
X140890000Y-23534000D01*
X140890000Y-23534000D02*
X140890000Y-27774000D01*
X140890000Y-27774000D02*
X136650000Y-27774000D01*
X136650000Y-27774000D02*
X136650000Y-23534000D01*
X142610000Y-28190000D02*
X140910000Y-28190000D01*
X140910000Y-28190000D02*
X140910000Y-29270000D01*
X140910000Y-29270000D02*
X142610000Y-29270000D01*
X142610000Y-29270000D02*
X142610000Y-28190000D01*
X140925000Y-30725000D02*
X143855000Y-30725000D01*
X140925000Y-29295000D02*
X143855000Y-29295000D01*
X140925000Y-30725000D02*
X140925000Y-29295000D01*
X143855000Y-30725000D02*
X143855000Y-29295000D01*
X144350000Y-30770000D02*
X142650000Y-30770000D01*
X142650000Y-30770000D02*
X142650000Y-31850000D01*
X142650000Y-31850000D02*
X144350000Y-31850000D01*
X144350000Y-31850000D02*
X144350000Y-30770000D01*
D11*
X132700001Y-35400000D02*
X132700001Y-23350000D01*
X129700001Y-35400000D02*
X132700001Y-35400000D01*
X129700001Y-23350000D02*
X129700001Y-35400000D01*
X132700001Y-23350000D02*
X129700001Y-23350000D01*
D10*
X133145000Y-24565000D02*
X133145000Y-25995000D01*
X136075000Y-24565000D02*
X136075000Y-25995000D01*
X136075000Y-25995000D02*
X133145000Y-25995000D01*
X136075000Y-24565000D02*
X133145000Y-24565000D01*
X134380000Y-27240000D02*
X136080000Y-27240000D01*
X136080000Y-27240000D02*
X136080000Y-26160000D01*
X136080000Y-26160000D02*
X134380000Y-26160000D01*
X134380000Y-26160000D02*
X134380000Y-27240000D01*
X139695000Y-29285000D02*
X136765000Y-29285000D01*
X139695000Y-30715000D02*
X136765000Y-30715000D01*
X139695000Y-29285000D02*
X139695000Y-30715000D01*
X136765000Y-29285000D02*
X136765000Y-30715000D01*
X136470000Y-30320000D02*
X136470000Y-29240000D01*
X134770000Y-30320000D02*
X136470000Y-30320000D01*
X134770000Y-29240000D02*
X134770000Y-30320000D01*
X136470000Y-29240000D02*
X134770000Y-29240000D01*
D11*
X148370000Y-37490000D02*
X148370000Y-23120000D01*
X145370000Y-23120000D02*
X145370000Y-37490000D01*
X148370000Y-23120000D02*
X145370000Y-23120000D01*
X145370000Y-37490000D02*
X148370000Y-37490000D01*
D10*
X136060000Y-23290000D02*
X136060000Y-24230000D01*
X136060000Y-24230000D02*
X134200000Y-24230000D01*
X134200000Y-24230000D02*
X134200000Y-23290000D01*
X134200000Y-23290000D02*
X136060000Y-23290000D01*
X135150000Y-31300000D02*
X135150000Y-36860000D01*
X135150000Y-36860000D02*
X139370000Y-36860000D01*
X139370000Y-36860000D02*
X139370000Y-31300000D01*
X139370000Y-31300000D02*
X135150000Y-31300000D01*
X140840000Y-32450000D02*
X144360000Y-32450000D01*
X144360000Y-32450000D02*
X144360000Y-35960000D01*
X144360000Y-35960000D02*
X140840000Y-35970000D01*
X140840000Y-35970000D02*
X140840000Y-32450000D01*
M02*
