M48
; DRILL file {KiCad (5.1.5)-3} date 2020-05-29 오후 4:37:45
; FORMAT={-:-/ absolute / inch / decimal}
; #@! TF.CreationDate,2020-05-29T16:37:45+09:00
; #@! TF.GenerationSoftware,Kicad,Pcbnew,(5.1.5)-3
; #@! TF.FileFunction,Plated,1,2,PTH
FMAT,2
INCH
T1C0.0157
%
G90
G05
T1
X5.1654Y-1.4161
X5.2431Y-1.0807
X5.2431Y-1.1555
X5.2451Y-1.2539
X5.2713Y-1.0492
X5.3083Y-1.1295
X5.3937Y-0.9252
X5.4213Y-0.8971
X5.4379Y-1.1395
X5.4512Y-1.4488
X5.5067Y-1.3209
X5.5106Y-1.4118
X5.5193Y-1.2543
X5.535Y-1.1815
X5.5618Y-1.0337
X5.563Y-1.4303
X5.57Y-0.96
X5.64Y-1.13
X5.7024Y-1.1469
X5.7051Y-1.048
X5.7086Y-1.4377
T0
M30
