G04 #@! TF.GenerationSoftware,KiCad,Pcbnew,(5.1.5)-3*
G04 #@! TF.CreationDate,2020-05-29T16:37:46+09:00*
G04 #@! TF.ProjectId,FMU3_Sensors_make,464d5533-5f53-4656-9e73-6f72735f6d61,rev?*
G04 #@! TF.SameCoordinates,Original*
G04 #@! TF.FileFunction,Copper,L2,Bot*
G04 #@! TF.FilePolarity,Positive*
%FSLAX46Y46*%
G04 Gerber Fmt 4.6, Leading zero omitted, Abs format (unit mm)*
G04 Created by KiCad (PCBNEW (5.1.5)-3) date 2020-05-29 16:37:46*
%MOMM*%
%LPD*%
G04 APERTURE LIST*
%ADD10C,0.800000*%
%ADD11C,0.200000*%
%ADD12C,0.250000*%
G04 APERTURE END LIST*
D10*
X141270180Y-26255000D03*
X140590000Y-30010000D03*
X131200000Y-35970000D03*
X133890000Y-26650000D03*
X134830000Y-28690000D03*
X144997653Y-36517653D03*
X141478000Y-24384000D03*
X143256000Y-28702000D03*
X138460000Y-36800000D03*
X144910000Y-26620000D03*
X141300000Y-36330000D03*
X144840000Y-29130000D03*
X138122981Y-28942888D03*
X139970000Y-35860000D03*
X133225000Y-31850000D03*
X137000000Y-23500000D03*
X139870000Y-33550000D03*
X133175000Y-29350000D03*
X137701240Y-22787072D03*
X133175000Y-27450000D03*
X140190000Y-31860000D03*
D11*
X140590000Y-26935180D02*
X141270180Y-26255000D01*
X140590000Y-30010000D02*
X140590000Y-26935180D01*
D12*
X145565001Y-34524999D02*
X142890001Y-37199999D01*
X145565001Y-27275001D02*
X145565001Y-34524999D01*
X138859999Y-37199999D02*
X138460000Y-36800000D01*
X142890001Y-37199999D02*
X138859999Y-37199999D01*
X144910000Y-26620000D02*
X145565001Y-27275001D01*
X144840000Y-32790000D02*
X141300000Y-36330000D01*
X144840000Y-29130000D02*
X144840000Y-32790000D01*
D11*
X138122981Y-29508573D02*
X138122981Y-28942888D01*
X139404315Y-35860000D02*
X138122981Y-34578666D01*
X139970000Y-35860000D02*
X139404315Y-35860000D01*
X138100000Y-31850000D02*
X138125000Y-31875000D01*
X133225000Y-31850000D02*
X138100000Y-31850000D01*
X138122981Y-34578666D02*
X138125000Y-31875000D01*
X138125000Y-31875000D02*
X138122981Y-29508573D01*
D12*
X139339991Y-33019991D02*
X139470001Y-33150001D01*
X139470001Y-33150001D02*
X139870000Y-33550000D01*
X137000000Y-23500000D02*
X139339991Y-25839991D01*
X139339991Y-25839991D02*
X139340000Y-27740000D01*
X139340000Y-27740000D02*
X139339991Y-33019991D01*
X136577866Y-29415001D02*
X138252867Y-27740000D01*
X138252867Y-27740000D02*
X139340000Y-27740000D01*
X133240001Y-29415001D02*
X136577866Y-29415001D01*
X133175000Y-29350000D02*
X133240001Y-29415001D01*
D11*
X133175000Y-26884315D02*
X133175000Y-27450000D01*
X133175000Y-26328998D02*
X133175000Y-26884315D01*
X136716926Y-22787072D02*
X133175000Y-26328998D01*
X137701240Y-22787072D02*
X136716926Y-22787072D01*
D12*
X138101239Y-23187071D02*
X137701240Y-22787072D01*
X139790001Y-31460001D02*
X139790001Y-24875833D01*
X139790001Y-24875833D02*
X138101239Y-23187071D01*
X140190000Y-31860000D02*
X139790001Y-31460001D01*
D11*
G36*
X137157514Y-22340848D02*
G01*
X137126628Y-22387072D01*
X136736573Y-22387072D01*
X136716926Y-22385137D01*
X136638512Y-22392860D01*
X136563112Y-22415732D01*
X136493623Y-22452875D01*
X136447975Y-22490337D01*
X136447973Y-22490339D01*
X136432715Y-22502861D01*
X136420193Y-22518119D01*
X132906052Y-26032261D01*
X132890789Y-26044787D01*
X132840803Y-26105696D01*
X132803660Y-26175185D01*
X132798273Y-26192945D01*
X132780788Y-26250585D01*
X132773065Y-26328998D01*
X132775000Y-26348645D01*
X132775001Y-26864660D01*
X132775000Y-26864669D01*
X132775000Y-26875388D01*
X132728776Y-26906274D01*
X132631274Y-27003776D01*
X132554668Y-27118426D01*
X132501901Y-27245818D01*
X132475000Y-27381056D01*
X132475000Y-27518944D01*
X132501901Y-27654182D01*
X132554668Y-27781574D01*
X132631274Y-27896224D01*
X132728776Y-27993726D01*
X132843426Y-28070332D01*
X132970818Y-28123099D01*
X133106056Y-28150000D01*
X133243944Y-28150000D01*
X133379182Y-28123099D01*
X133506574Y-28070332D01*
X133621224Y-27993726D01*
X133718726Y-27896224D01*
X133795332Y-27781574D01*
X133848099Y-27654182D01*
X133875000Y-27518944D01*
X133875000Y-27381056D01*
X133848099Y-27245818D01*
X133795332Y-27118426D01*
X133718726Y-27003776D01*
X133621224Y-26906274D01*
X133575000Y-26875388D01*
X133575000Y-26494683D01*
X136338207Y-23731477D01*
X136379668Y-23831574D01*
X136456274Y-23946224D01*
X136553776Y-24043726D01*
X136668426Y-24120332D01*
X136795818Y-24173099D01*
X136931056Y-24200000D01*
X137068944Y-24200000D01*
X137093980Y-24195020D01*
X138914992Y-26016033D01*
X138914999Y-27315000D01*
X138273733Y-27315000D01*
X138252866Y-27312945D01*
X138231999Y-27315000D01*
X138231993Y-27315000D01*
X138181229Y-27320000D01*
X138169552Y-27321150D01*
X138145250Y-27328522D01*
X138089440Y-27345452D01*
X138015607Y-27384916D01*
X137950893Y-27438026D01*
X137937588Y-27454238D01*
X136401826Y-28990001D01*
X133776339Y-28990001D01*
X133718726Y-28903776D01*
X133621224Y-28806274D01*
X133506574Y-28729668D01*
X133379182Y-28676901D01*
X133243944Y-28650000D01*
X133106056Y-28650000D01*
X132970818Y-28676901D01*
X132843426Y-28729668D01*
X132728776Y-28806274D01*
X132631274Y-28903776D01*
X132554668Y-29018426D01*
X132501901Y-29145818D01*
X132475000Y-29281056D01*
X132475000Y-29418944D01*
X132501901Y-29554182D01*
X132554668Y-29681574D01*
X132631274Y-29796224D01*
X132728776Y-29893726D01*
X132843426Y-29970332D01*
X132970818Y-30023099D01*
X133106056Y-30050000D01*
X133243944Y-30050000D01*
X133379182Y-30023099D01*
X133506574Y-29970332D01*
X133621224Y-29893726D01*
X133674949Y-29840001D01*
X136556999Y-29840001D01*
X136577866Y-29842056D01*
X136598733Y-29840001D01*
X136598740Y-29840001D01*
X136661180Y-29833851D01*
X136741293Y-29809549D01*
X136815126Y-29770085D01*
X136879840Y-29716975D01*
X136893149Y-29700758D01*
X137449377Y-29144530D01*
X137449882Y-29147070D01*
X137502649Y-29274462D01*
X137579255Y-29389112D01*
X137676757Y-29486614D01*
X137722981Y-29517500D01*
X137722981Y-29528219D01*
X137722998Y-29528395D01*
X137724637Y-31450000D01*
X133799612Y-31450000D01*
X133768726Y-31403776D01*
X133671224Y-31306274D01*
X133556574Y-31229668D01*
X133429182Y-31176901D01*
X133293944Y-31150000D01*
X133156056Y-31150000D01*
X133020818Y-31176901D01*
X132893426Y-31229668D01*
X132778776Y-31306274D01*
X132681274Y-31403776D01*
X132604668Y-31518426D01*
X132551901Y-31645818D01*
X132525000Y-31781056D01*
X132525000Y-31918944D01*
X132551901Y-32054182D01*
X132604668Y-32181574D01*
X132681274Y-32296224D01*
X132778776Y-32393726D01*
X132893426Y-32470332D01*
X133020818Y-32523099D01*
X133156056Y-32550000D01*
X133293944Y-32550000D01*
X133429182Y-32523099D01*
X133556574Y-32470332D01*
X133671224Y-32393726D01*
X133768726Y-32296224D01*
X133799612Y-32250000D01*
X137724720Y-32250000D01*
X137722996Y-34558865D01*
X137721046Y-34578666D01*
X137724956Y-34618370D01*
X137728711Y-34656785D01*
X137728754Y-34656927D01*
X137728769Y-34657079D01*
X137740214Y-34694809D01*
X137751527Y-34732202D01*
X137751598Y-34732335D01*
X137751642Y-34732480D01*
X137770264Y-34767319D01*
X137788618Y-34801719D01*
X137788713Y-34801834D01*
X137788784Y-34801968D01*
X137813880Y-34832548D01*
X137838558Y-34862664D01*
X137853923Y-34875293D01*
X139107582Y-36128953D01*
X139120104Y-36144211D01*
X139135362Y-36156733D01*
X139135364Y-36156735D01*
X139181012Y-36194197D01*
X139250500Y-36231340D01*
X139325901Y-36254212D01*
X139396144Y-36261130D01*
X139426274Y-36306224D01*
X139523776Y-36403726D01*
X139638426Y-36480332D01*
X139765818Y-36533099D01*
X139901056Y-36560000D01*
X140038944Y-36560000D01*
X140174182Y-36533099D01*
X140301574Y-36480332D01*
X140416224Y-36403726D01*
X140513726Y-36306224D01*
X140590332Y-36191574D01*
X140643099Y-36064182D01*
X140670000Y-35928944D01*
X140670000Y-35791056D01*
X140643099Y-35655818D01*
X140590332Y-35528426D01*
X140513726Y-35413776D01*
X140416224Y-35316274D01*
X140301574Y-35239668D01*
X140174182Y-35186901D01*
X140038944Y-35160000D01*
X139901056Y-35160000D01*
X139765818Y-35186901D01*
X139638426Y-35239668D01*
X139523776Y-35316274D01*
X139475025Y-35365025D01*
X138523105Y-34413104D01*
X138524985Y-31894790D01*
X138526934Y-31874999D01*
X138524983Y-31855186D01*
X138522989Y-29517494D01*
X138569205Y-29486614D01*
X138666707Y-29389112D01*
X138743313Y-29274462D01*
X138796080Y-29147070D01*
X138822981Y-29011832D01*
X138822981Y-28873944D01*
X138796080Y-28738706D01*
X138743313Y-28611314D01*
X138666707Y-28496664D01*
X138569205Y-28399162D01*
X138454555Y-28322556D01*
X138327163Y-28269789D01*
X138324624Y-28269284D01*
X138428908Y-28165000D01*
X138915000Y-28165000D01*
X138914991Y-32999124D01*
X138912936Y-33019991D01*
X138914991Y-33040858D01*
X138914991Y-33040864D01*
X138921141Y-33103304D01*
X138945443Y-33183417D01*
X138984907Y-33257250D01*
X139038017Y-33321964D01*
X139054229Y-33335269D01*
X139174980Y-33456020D01*
X139170000Y-33481056D01*
X139170000Y-33618944D01*
X139196901Y-33754182D01*
X139249668Y-33881574D01*
X139326274Y-33996224D01*
X139423776Y-34093726D01*
X139538426Y-34170332D01*
X139665818Y-34223099D01*
X139801056Y-34250000D01*
X139938944Y-34250000D01*
X140074182Y-34223099D01*
X140201574Y-34170332D01*
X140316224Y-34093726D01*
X140413726Y-33996224D01*
X140490332Y-33881574D01*
X140543099Y-33754182D01*
X140570000Y-33618944D01*
X140570000Y-33481056D01*
X140543099Y-33345818D01*
X140490332Y-33218426D01*
X140413726Y-33103776D01*
X140316224Y-33006274D01*
X140201574Y-32929668D01*
X140074182Y-32876901D01*
X139938944Y-32850000D01*
X139801056Y-32850000D01*
X139776020Y-32854980D01*
X139764990Y-32843950D01*
X139764991Y-32417901D01*
X139858426Y-32480332D01*
X139985818Y-32533099D01*
X140121056Y-32560000D01*
X140258944Y-32560000D01*
X140394182Y-32533099D01*
X140521574Y-32480332D01*
X140636224Y-32403726D01*
X140733726Y-32306224D01*
X140810332Y-32191574D01*
X140863099Y-32064182D01*
X140890000Y-31928944D01*
X140890000Y-31791056D01*
X140863099Y-31655818D01*
X140810332Y-31528426D01*
X140733726Y-31413776D01*
X140636224Y-31316274D01*
X140521574Y-31239668D01*
X140394182Y-31186901D01*
X140258944Y-31160000D01*
X140215001Y-31160000D01*
X140215001Y-30601317D01*
X140258426Y-30630332D01*
X140385818Y-30683099D01*
X140521056Y-30710000D01*
X140658944Y-30710000D01*
X140794182Y-30683099D01*
X140921574Y-30630332D01*
X141036224Y-30553726D01*
X141133726Y-30456224D01*
X141210332Y-30341574D01*
X141263099Y-30214182D01*
X141290000Y-30078944D01*
X141290000Y-29941056D01*
X141263099Y-29805818D01*
X141210332Y-29678426D01*
X141133726Y-29563776D01*
X141036224Y-29466274D01*
X140990000Y-29435388D01*
X140990000Y-27100865D01*
X141146711Y-26944154D01*
X141201236Y-26955000D01*
X141339124Y-26955000D01*
X141474362Y-26928099D01*
X141601754Y-26875332D01*
X141716404Y-26798726D01*
X141813906Y-26701224D01*
X141890512Y-26586574D01*
X141943279Y-26459182D01*
X141970180Y-26323944D01*
X141970180Y-26186056D01*
X141943279Y-26050818D01*
X141890512Y-25923426D01*
X141813906Y-25808776D01*
X141716404Y-25711274D01*
X141601754Y-25634668D01*
X141474362Y-25581901D01*
X141339124Y-25555000D01*
X141201236Y-25555000D01*
X141065998Y-25581901D01*
X140938606Y-25634668D01*
X140823956Y-25711274D01*
X140726454Y-25808776D01*
X140649848Y-25923426D01*
X140597081Y-26050818D01*
X140570180Y-26186056D01*
X140570180Y-26323944D01*
X140581026Y-26378469D01*
X140321047Y-26638448D01*
X140305790Y-26650969D01*
X140293268Y-26666227D01*
X140293265Y-26666230D01*
X140255803Y-26711878D01*
X140218661Y-26781366D01*
X140215001Y-26793431D01*
X140215001Y-24896699D01*
X140217056Y-24875832D01*
X140215001Y-24854965D01*
X140215001Y-24854959D01*
X140208851Y-24792519D01*
X140184549Y-24712406D01*
X140145085Y-24638573D01*
X140091975Y-24573859D01*
X140075763Y-24560554D01*
X138416523Y-22901315D01*
X138416519Y-22901310D01*
X138396260Y-22881051D01*
X138401240Y-22856016D01*
X138401240Y-22718128D01*
X138374339Y-22582890D01*
X138321572Y-22455498D01*
X138244966Y-22340848D01*
X138229118Y-22325000D01*
X148675000Y-22325000D01*
X148675001Y-37675000D01*
X129575000Y-37675000D01*
X129575000Y-36731056D01*
X137760000Y-36731056D01*
X137760000Y-36868944D01*
X137786901Y-37004182D01*
X137839668Y-37131574D01*
X137916274Y-37246224D01*
X138013776Y-37343726D01*
X138128426Y-37420332D01*
X138255818Y-37473099D01*
X138391056Y-37500000D01*
X138528944Y-37500000D01*
X138552552Y-37495304D01*
X138558025Y-37501973D01*
X138622739Y-37555083D01*
X138696572Y-37594547D01*
X138752382Y-37611477D01*
X138776684Y-37618849D01*
X138785097Y-37619678D01*
X138839125Y-37624999D01*
X138839131Y-37624999D01*
X138859998Y-37627054D01*
X138880865Y-37624999D01*
X142869134Y-37624999D01*
X142890001Y-37627054D01*
X142910868Y-37624999D01*
X142910875Y-37624999D01*
X142973315Y-37618849D01*
X143053428Y-37594547D01*
X143127261Y-37555083D01*
X143191975Y-37501973D01*
X143205284Y-37485756D01*
X145850763Y-34840278D01*
X145866975Y-34826973D01*
X145920085Y-34762259D01*
X145959549Y-34688426D01*
X145983851Y-34608313D01*
X145990001Y-34545873D01*
X145990001Y-34545867D01*
X145992056Y-34525000D01*
X145990001Y-34504133D01*
X145990001Y-27295867D01*
X145992056Y-27275000D01*
X145990001Y-27254133D01*
X145990001Y-27254127D01*
X145983851Y-27191687D01*
X145959549Y-27111574D01*
X145920085Y-27037741D01*
X145866975Y-26973027D01*
X145850764Y-26959723D01*
X145605020Y-26713979D01*
X145610000Y-26688944D01*
X145610000Y-26551056D01*
X145583099Y-26415818D01*
X145530332Y-26288426D01*
X145453726Y-26173776D01*
X145356224Y-26076274D01*
X145241574Y-25999668D01*
X145114182Y-25946901D01*
X144978944Y-25920000D01*
X144841056Y-25920000D01*
X144705818Y-25946901D01*
X144578426Y-25999668D01*
X144463776Y-26076274D01*
X144366274Y-26173776D01*
X144289668Y-26288426D01*
X144236901Y-26415818D01*
X144210000Y-26551056D01*
X144210000Y-26688944D01*
X144236901Y-26824182D01*
X144289668Y-26951574D01*
X144366274Y-27066224D01*
X144463776Y-27163726D01*
X144578426Y-27240332D01*
X144705818Y-27293099D01*
X144841056Y-27320000D01*
X144978944Y-27320000D01*
X145003979Y-27315020D01*
X145140001Y-27451042D01*
X145140001Y-28496590D01*
X145044182Y-28456901D01*
X144908944Y-28430000D01*
X144771056Y-28430000D01*
X144635818Y-28456901D01*
X144508426Y-28509668D01*
X144393776Y-28586274D01*
X144296274Y-28683776D01*
X144219668Y-28798426D01*
X144166901Y-28925818D01*
X144140000Y-29061056D01*
X144140000Y-29198944D01*
X144166901Y-29334182D01*
X144219668Y-29461574D01*
X144296274Y-29576224D01*
X144393776Y-29673726D01*
X144415000Y-29687907D01*
X144415001Y-32613958D01*
X141393980Y-35634980D01*
X141368944Y-35630000D01*
X141231056Y-35630000D01*
X141095818Y-35656901D01*
X140968426Y-35709668D01*
X140853776Y-35786274D01*
X140756274Y-35883776D01*
X140679668Y-35998426D01*
X140626901Y-36125818D01*
X140600000Y-36261056D01*
X140600000Y-36398944D01*
X140626901Y-36534182D01*
X140679668Y-36661574D01*
X140755455Y-36774999D01*
X139160000Y-36774999D01*
X139160000Y-36731056D01*
X139133099Y-36595818D01*
X139080332Y-36468426D01*
X139003726Y-36353776D01*
X138906224Y-36256274D01*
X138791574Y-36179668D01*
X138664182Y-36126901D01*
X138528944Y-36100000D01*
X138391056Y-36100000D01*
X138255818Y-36126901D01*
X138128426Y-36179668D01*
X138013776Y-36256274D01*
X137916274Y-36353776D01*
X137839668Y-36468426D01*
X137786901Y-36595818D01*
X137760000Y-36731056D01*
X129575000Y-36731056D01*
X129575000Y-22325000D01*
X137173362Y-22325000D01*
X137157514Y-22340848D01*
G37*
X137157514Y-22340848D02*
X137126628Y-22387072D01*
X136736573Y-22387072D01*
X136716926Y-22385137D01*
X136638512Y-22392860D01*
X136563112Y-22415732D01*
X136493623Y-22452875D01*
X136447975Y-22490337D01*
X136447973Y-22490339D01*
X136432715Y-22502861D01*
X136420193Y-22518119D01*
X132906052Y-26032261D01*
X132890789Y-26044787D01*
X132840803Y-26105696D01*
X132803660Y-26175185D01*
X132798273Y-26192945D01*
X132780788Y-26250585D01*
X132773065Y-26328998D01*
X132775000Y-26348645D01*
X132775001Y-26864660D01*
X132775000Y-26864669D01*
X132775000Y-26875388D01*
X132728776Y-26906274D01*
X132631274Y-27003776D01*
X132554668Y-27118426D01*
X132501901Y-27245818D01*
X132475000Y-27381056D01*
X132475000Y-27518944D01*
X132501901Y-27654182D01*
X132554668Y-27781574D01*
X132631274Y-27896224D01*
X132728776Y-27993726D01*
X132843426Y-28070332D01*
X132970818Y-28123099D01*
X133106056Y-28150000D01*
X133243944Y-28150000D01*
X133379182Y-28123099D01*
X133506574Y-28070332D01*
X133621224Y-27993726D01*
X133718726Y-27896224D01*
X133795332Y-27781574D01*
X133848099Y-27654182D01*
X133875000Y-27518944D01*
X133875000Y-27381056D01*
X133848099Y-27245818D01*
X133795332Y-27118426D01*
X133718726Y-27003776D01*
X133621224Y-26906274D01*
X133575000Y-26875388D01*
X133575000Y-26494683D01*
X136338207Y-23731477D01*
X136379668Y-23831574D01*
X136456274Y-23946224D01*
X136553776Y-24043726D01*
X136668426Y-24120332D01*
X136795818Y-24173099D01*
X136931056Y-24200000D01*
X137068944Y-24200000D01*
X137093980Y-24195020D01*
X138914992Y-26016033D01*
X138914999Y-27315000D01*
X138273733Y-27315000D01*
X138252866Y-27312945D01*
X138231999Y-27315000D01*
X138231993Y-27315000D01*
X138181229Y-27320000D01*
X138169552Y-27321150D01*
X138145250Y-27328522D01*
X138089440Y-27345452D01*
X138015607Y-27384916D01*
X137950893Y-27438026D01*
X137937588Y-27454238D01*
X136401826Y-28990001D01*
X133776339Y-28990001D01*
X133718726Y-28903776D01*
X133621224Y-28806274D01*
X133506574Y-28729668D01*
X133379182Y-28676901D01*
X133243944Y-28650000D01*
X133106056Y-28650000D01*
X132970818Y-28676901D01*
X132843426Y-28729668D01*
X132728776Y-28806274D01*
X132631274Y-28903776D01*
X132554668Y-29018426D01*
X132501901Y-29145818D01*
X132475000Y-29281056D01*
X132475000Y-29418944D01*
X132501901Y-29554182D01*
X132554668Y-29681574D01*
X132631274Y-29796224D01*
X132728776Y-29893726D01*
X132843426Y-29970332D01*
X132970818Y-30023099D01*
X133106056Y-30050000D01*
X133243944Y-30050000D01*
X133379182Y-30023099D01*
X133506574Y-29970332D01*
X133621224Y-29893726D01*
X133674949Y-29840001D01*
X136556999Y-29840001D01*
X136577866Y-29842056D01*
X136598733Y-29840001D01*
X136598740Y-29840001D01*
X136661180Y-29833851D01*
X136741293Y-29809549D01*
X136815126Y-29770085D01*
X136879840Y-29716975D01*
X136893149Y-29700758D01*
X137449377Y-29144530D01*
X137449882Y-29147070D01*
X137502649Y-29274462D01*
X137579255Y-29389112D01*
X137676757Y-29486614D01*
X137722981Y-29517500D01*
X137722981Y-29528219D01*
X137722998Y-29528395D01*
X137724637Y-31450000D01*
X133799612Y-31450000D01*
X133768726Y-31403776D01*
X133671224Y-31306274D01*
X133556574Y-31229668D01*
X133429182Y-31176901D01*
X133293944Y-31150000D01*
X133156056Y-31150000D01*
X133020818Y-31176901D01*
X132893426Y-31229668D01*
X132778776Y-31306274D01*
X132681274Y-31403776D01*
X132604668Y-31518426D01*
X132551901Y-31645818D01*
X132525000Y-31781056D01*
X132525000Y-31918944D01*
X132551901Y-32054182D01*
X132604668Y-32181574D01*
X132681274Y-32296224D01*
X132778776Y-32393726D01*
X132893426Y-32470332D01*
X133020818Y-32523099D01*
X133156056Y-32550000D01*
X133293944Y-32550000D01*
X133429182Y-32523099D01*
X133556574Y-32470332D01*
X133671224Y-32393726D01*
X133768726Y-32296224D01*
X133799612Y-32250000D01*
X137724720Y-32250000D01*
X137722996Y-34558865D01*
X137721046Y-34578666D01*
X137724956Y-34618370D01*
X137728711Y-34656785D01*
X137728754Y-34656927D01*
X137728769Y-34657079D01*
X137740214Y-34694809D01*
X137751527Y-34732202D01*
X137751598Y-34732335D01*
X137751642Y-34732480D01*
X137770264Y-34767319D01*
X137788618Y-34801719D01*
X137788713Y-34801834D01*
X137788784Y-34801968D01*
X137813880Y-34832548D01*
X137838558Y-34862664D01*
X137853923Y-34875293D01*
X139107582Y-36128953D01*
X139120104Y-36144211D01*
X139135362Y-36156733D01*
X139135364Y-36156735D01*
X139181012Y-36194197D01*
X139250500Y-36231340D01*
X139325901Y-36254212D01*
X139396144Y-36261130D01*
X139426274Y-36306224D01*
X139523776Y-36403726D01*
X139638426Y-36480332D01*
X139765818Y-36533099D01*
X139901056Y-36560000D01*
X140038944Y-36560000D01*
X140174182Y-36533099D01*
X140301574Y-36480332D01*
X140416224Y-36403726D01*
X140513726Y-36306224D01*
X140590332Y-36191574D01*
X140643099Y-36064182D01*
X140670000Y-35928944D01*
X140670000Y-35791056D01*
X140643099Y-35655818D01*
X140590332Y-35528426D01*
X140513726Y-35413776D01*
X140416224Y-35316274D01*
X140301574Y-35239668D01*
X140174182Y-35186901D01*
X140038944Y-35160000D01*
X139901056Y-35160000D01*
X139765818Y-35186901D01*
X139638426Y-35239668D01*
X139523776Y-35316274D01*
X139475025Y-35365025D01*
X138523105Y-34413104D01*
X138524985Y-31894790D01*
X138526934Y-31874999D01*
X138524983Y-31855186D01*
X138522989Y-29517494D01*
X138569205Y-29486614D01*
X138666707Y-29389112D01*
X138743313Y-29274462D01*
X138796080Y-29147070D01*
X138822981Y-29011832D01*
X138822981Y-28873944D01*
X138796080Y-28738706D01*
X138743313Y-28611314D01*
X138666707Y-28496664D01*
X138569205Y-28399162D01*
X138454555Y-28322556D01*
X138327163Y-28269789D01*
X138324624Y-28269284D01*
X138428908Y-28165000D01*
X138915000Y-28165000D01*
X138914991Y-32999124D01*
X138912936Y-33019991D01*
X138914991Y-33040858D01*
X138914991Y-33040864D01*
X138921141Y-33103304D01*
X138945443Y-33183417D01*
X138984907Y-33257250D01*
X139038017Y-33321964D01*
X139054229Y-33335269D01*
X139174980Y-33456020D01*
X139170000Y-33481056D01*
X139170000Y-33618944D01*
X139196901Y-33754182D01*
X139249668Y-33881574D01*
X139326274Y-33996224D01*
X139423776Y-34093726D01*
X139538426Y-34170332D01*
X139665818Y-34223099D01*
X139801056Y-34250000D01*
X139938944Y-34250000D01*
X140074182Y-34223099D01*
X140201574Y-34170332D01*
X140316224Y-34093726D01*
X140413726Y-33996224D01*
X140490332Y-33881574D01*
X140543099Y-33754182D01*
X140570000Y-33618944D01*
X140570000Y-33481056D01*
X140543099Y-33345818D01*
X140490332Y-33218426D01*
X140413726Y-33103776D01*
X140316224Y-33006274D01*
X140201574Y-32929668D01*
X140074182Y-32876901D01*
X139938944Y-32850000D01*
X139801056Y-32850000D01*
X139776020Y-32854980D01*
X139764990Y-32843950D01*
X139764991Y-32417901D01*
X139858426Y-32480332D01*
X139985818Y-32533099D01*
X140121056Y-32560000D01*
X140258944Y-32560000D01*
X140394182Y-32533099D01*
X140521574Y-32480332D01*
X140636224Y-32403726D01*
X140733726Y-32306224D01*
X140810332Y-32191574D01*
X140863099Y-32064182D01*
X140890000Y-31928944D01*
X140890000Y-31791056D01*
X140863099Y-31655818D01*
X140810332Y-31528426D01*
X140733726Y-31413776D01*
X140636224Y-31316274D01*
X140521574Y-31239668D01*
X140394182Y-31186901D01*
X140258944Y-31160000D01*
X140215001Y-31160000D01*
X140215001Y-30601317D01*
X140258426Y-30630332D01*
X140385818Y-30683099D01*
X140521056Y-30710000D01*
X140658944Y-30710000D01*
X140794182Y-30683099D01*
X140921574Y-30630332D01*
X141036224Y-30553726D01*
X141133726Y-30456224D01*
X141210332Y-30341574D01*
X141263099Y-30214182D01*
X141290000Y-30078944D01*
X141290000Y-29941056D01*
X141263099Y-29805818D01*
X141210332Y-29678426D01*
X141133726Y-29563776D01*
X141036224Y-29466274D01*
X140990000Y-29435388D01*
X140990000Y-27100865D01*
X141146711Y-26944154D01*
X141201236Y-26955000D01*
X141339124Y-26955000D01*
X141474362Y-26928099D01*
X141601754Y-26875332D01*
X141716404Y-26798726D01*
X141813906Y-26701224D01*
X141890512Y-26586574D01*
X141943279Y-26459182D01*
X141970180Y-26323944D01*
X141970180Y-26186056D01*
X141943279Y-26050818D01*
X141890512Y-25923426D01*
X141813906Y-25808776D01*
X141716404Y-25711274D01*
X141601754Y-25634668D01*
X141474362Y-25581901D01*
X141339124Y-25555000D01*
X141201236Y-25555000D01*
X141065998Y-25581901D01*
X140938606Y-25634668D01*
X140823956Y-25711274D01*
X140726454Y-25808776D01*
X140649848Y-25923426D01*
X140597081Y-26050818D01*
X140570180Y-26186056D01*
X140570180Y-26323944D01*
X140581026Y-26378469D01*
X140321047Y-26638448D01*
X140305790Y-26650969D01*
X140293268Y-26666227D01*
X140293265Y-26666230D01*
X140255803Y-26711878D01*
X140218661Y-26781366D01*
X140215001Y-26793431D01*
X140215001Y-24896699D01*
X140217056Y-24875832D01*
X140215001Y-24854965D01*
X140215001Y-24854959D01*
X140208851Y-24792519D01*
X140184549Y-24712406D01*
X140145085Y-24638573D01*
X140091975Y-24573859D01*
X140075763Y-24560554D01*
X138416523Y-22901315D01*
X138416519Y-22901310D01*
X138396260Y-22881051D01*
X138401240Y-22856016D01*
X138401240Y-22718128D01*
X138374339Y-22582890D01*
X138321572Y-22455498D01*
X138244966Y-22340848D01*
X138229118Y-22325000D01*
X148675000Y-22325000D01*
X148675001Y-37675000D01*
X129575000Y-37675000D01*
X129575000Y-36731056D01*
X137760000Y-36731056D01*
X137760000Y-36868944D01*
X137786901Y-37004182D01*
X137839668Y-37131574D01*
X137916274Y-37246224D01*
X138013776Y-37343726D01*
X138128426Y-37420332D01*
X138255818Y-37473099D01*
X138391056Y-37500000D01*
X138528944Y-37500000D01*
X138552552Y-37495304D01*
X138558025Y-37501973D01*
X138622739Y-37555083D01*
X138696572Y-37594547D01*
X138752382Y-37611477D01*
X138776684Y-37618849D01*
X138785097Y-37619678D01*
X138839125Y-37624999D01*
X138839131Y-37624999D01*
X138859998Y-37627054D01*
X138880865Y-37624999D01*
X142869134Y-37624999D01*
X142890001Y-37627054D01*
X142910868Y-37624999D01*
X142910875Y-37624999D01*
X142973315Y-37618849D01*
X143053428Y-37594547D01*
X143127261Y-37555083D01*
X143191975Y-37501973D01*
X143205284Y-37485756D01*
X145850763Y-34840278D01*
X145866975Y-34826973D01*
X145920085Y-34762259D01*
X145959549Y-34688426D01*
X145983851Y-34608313D01*
X145990001Y-34545873D01*
X145990001Y-34545867D01*
X145992056Y-34525000D01*
X145990001Y-34504133D01*
X145990001Y-27295867D01*
X145992056Y-27275000D01*
X145990001Y-27254133D01*
X145990001Y-27254127D01*
X145983851Y-27191687D01*
X145959549Y-27111574D01*
X145920085Y-27037741D01*
X145866975Y-26973027D01*
X145850764Y-26959723D01*
X145605020Y-26713979D01*
X145610000Y-26688944D01*
X145610000Y-26551056D01*
X145583099Y-26415818D01*
X145530332Y-26288426D01*
X145453726Y-26173776D01*
X145356224Y-26076274D01*
X145241574Y-25999668D01*
X145114182Y-25946901D01*
X144978944Y-25920000D01*
X144841056Y-25920000D01*
X144705818Y-25946901D01*
X144578426Y-25999668D01*
X144463776Y-26076274D01*
X144366274Y-26173776D01*
X144289668Y-26288426D01*
X144236901Y-26415818D01*
X144210000Y-26551056D01*
X144210000Y-26688944D01*
X144236901Y-26824182D01*
X144289668Y-26951574D01*
X144366274Y-27066224D01*
X144463776Y-27163726D01*
X144578426Y-27240332D01*
X144705818Y-27293099D01*
X144841056Y-27320000D01*
X144978944Y-27320000D01*
X145003979Y-27315020D01*
X145140001Y-27451042D01*
X145140001Y-28496590D01*
X145044182Y-28456901D01*
X144908944Y-28430000D01*
X144771056Y-28430000D01*
X144635818Y-28456901D01*
X144508426Y-28509668D01*
X144393776Y-28586274D01*
X144296274Y-28683776D01*
X144219668Y-28798426D01*
X144166901Y-28925818D01*
X144140000Y-29061056D01*
X144140000Y-29198944D01*
X144166901Y-29334182D01*
X144219668Y-29461574D01*
X144296274Y-29576224D01*
X144393776Y-29673726D01*
X144415000Y-29687907D01*
X144415001Y-32613958D01*
X141393980Y-35634980D01*
X141368944Y-35630000D01*
X141231056Y-35630000D01*
X141095818Y-35656901D01*
X140968426Y-35709668D01*
X140853776Y-35786274D01*
X140756274Y-35883776D01*
X140679668Y-35998426D01*
X140626901Y-36125818D01*
X140600000Y-36261056D01*
X140600000Y-36398944D01*
X140626901Y-36534182D01*
X140679668Y-36661574D01*
X140755455Y-36774999D01*
X139160000Y-36774999D01*
X139160000Y-36731056D01*
X139133099Y-36595818D01*
X139080332Y-36468426D01*
X139003726Y-36353776D01*
X138906224Y-36256274D01*
X138791574Y-36179668D01*
X138664182Y-36126901D01*
X138528944Y-36100000D01*
X138391056Y-36100000D01*
X138255818Y-36126901D01*
X138128426Y-36179668D01*
X138013776Y-36256274D01*
X137916274Y-36353776D01*
X137839668Y-36468426D01*
X137786901Y-36595818D01*
X137760000Y-36731056D01*
X129575000Y-36731056D01*
X129575000Y-22325000D01*
X137173362Y-22325000D01*
X137157514Y-22340848D01*
M02*
