G04 #@! TF.GenerationSoftware,KiCad,Pcbnew,(5.1.5)-3*
G04 #@! TF.CreationDate,2020-05-29T16:37:46+09:00*
G04 #@! TF.ProjectId,FMU3_Sensors_make,464d5533-5f53-4656-9e73-6f72735f6d61,rev?*
G04 #@! TF.SameCoordinates,Original*
G04 #@! TF.FileFunction,Copper,L1,Top*
G04 #@! TF.FilePolarity,Positive*
%FSLAX46Y46*%
G04 Gerber Fmt 4.6, Leading zero omitted, Abs format (unit mm)*
G04 Created by KiCad (PCBNEW (5.1.5)-3) date 2020-05-29 16:37:46*
%MOMM*%
%LPD*%
G04 APERTURE LIST*
%ADD10R,0.540000X0.600000*%
%ADD11R,0.640000X0.150000*%
%ADD12R,0.150000X0.640000*%
%ADD13R,1.010000X0.930000*%
%ADD14R,2.500000X1.500000*%
%ADD15C,0.100000*%
%ADD16R,1.310000X0.530000*%
%ADD17R,0.600000X0.300000*%
%ADD18R,0.300000X0.600000*%
%ADD19C,0.800000*%
%ADD20C,0.200000*%
%ADD21C,0.250000*%
G04 APERTURE END LIST*
D10*
X142200000Y-31290000D03*
X141340000Y-31290000D03*
D11*
X137225000Y-24410000D03*
X137225000Y-24810000D03*
X137225000Y-25210000D03*
X137225000Y-25610000D03*
X137225000Y-26010000D03*
X137225000Y-26410000D03*
D12*
X137770000Y-26955000D03*
X138170000Y-26955000D03*
X138570000Y-26955000D03*
X138970000Y-26955000D03*
X139370000Y-26955000D03*
X139770000Y-26955000D03*
D11*
X140315000Y-26410000D03*
X140315000Y-26010000D03*
X140315000Y-25610000D03*
X140315000Y-25210000D03*
X140315000Y-24810000D03*
X140315000Y-24410000D03*
D12*
X139770000Y-23865000D03*
X139370000Y-23865000D03*
X138970000Y-23865000D03*
X138570000Y-23865000D03*
X138170000Y-23865000D03*
X137770000Y-23865000D03*
D10*
X141330000Y-28730000D03*
X142190000Y-28730000D03*
D13*
X141681000Y-30010000D03*
X143099000Y-30010000D03*
D10*
X143070000Y-31310000D03*
X143930000Y-31310000D03*
D14*
X131200001Y-31850000D03*
X131200001Y-24350000D03*
X131200001Y-29350000D03*
X131200001Y-26850000D03*
X131200001Y-34350000D03*
D13*
X133901000Y-25280000D03*
X135319000Y-25280000D03*
D10*
X135660000Y-26700000D03*
X134800000Y-26700000D03*
D13*
X138939000Y-30000000D03*
X137521000Y-30000000D03*
D10*
X136050000Y-29780000D03*
X135190000Y-29780000D03*
D14*
X146870000Y-24120000D03*
X146870000Y-34120000D03*
X146870000Y-31620000D03*
X146870000Y-26620000D03*
X146870000Y-29120000D03*
X146870000Y-36520000D03*
G04 #@! TA.AperFunction,SMDPad,CuDef*
D15*
G36*
X135776958Y-23440710D02*
G01*
X135791276Y-23442834D01*
X135805317Y-23446351D01*
X135818946Y-23451228D01*
X135832031Y-23457417D01*
X135844447Y-23464858D01*
X135856073Y-23473481D01*
X135866798Y-23483202D01*
X135876519Y-23493927D01*
X135885142Y-23505553D01*
X135892583Y-23517969D01*
X135898772Y-23531054D01*
X135903649Y-23544683D01*
X135907166Y-23558724D01*
X135909290Y-23573042D01*
X135910000Y-23587500D01*
X135910000Y-23932500D01*
X135909290Y-23946958D01*
X135907166Y-23961276D01*
X135903649Y-23975317D01*
X135898772Y-23988946D01*
X135892583Y-24002031D01*
X135885142Y-24014447D01*
X135876519Y-24026073D01*
X135866798Y-24036798D01*
X135856073Y-24046519D01*
X135844447Y-24055142D01*
X135832031Y-24062583D01*
X135818946Y-24068772D01*
X135805317Y-24073649D01*
X135791276Y-24077166D01*
X135776958Y-24079290D01*
X135762500Y-24080000D01*
X135467500Y-24080000D01*
X135453042Y-24079290D01*
X135438724Y-24077166D01*
X135424683Y-24073649D01*
X135411054Y-24068772D01*
X135397969Y-24062583D01*
X135385553Y-24055142D01*
X135373927Y-24046519D01*
X135363202Y-24036798D01*
X135353481Y-24026073D01*
X135344858Y-24014447D01*
X135337417Y-24002031D01*
X135331228Y-23988946D01*
X135326351Y-23975317D01*
X135322834Y-23961276D01*
X135320710Y-23946958D01*
X135320000Y-23932500D01*
X135320000Y-23587500D01*
X135320710Y-23573042D01*
X135322834Y-23558724D01*
X135326351Y-23544683D01*
X135331228Y-23531054D01*
X135337417Y-23517969D01*
X135344858Y-23505553D01*
X135353481Y-23493927D01*
X135363202Y-23483202D01*
X135373927Y-23473481D01*
X135385553Y-23464858D01*
X135397969Y-23457417D01*
X135411054Y-23451228D01*
X135424683Y-23446351D01*
X135438724Y-23442834D01*
X135453042Y-23440710D01*
X135467500Y-23440000D01*
X135762500Y-23440000D01*
X135776958Y-23440710D01*
G37*
G04 #@! TD.AperFunction*
G04 #@! TA.AperFunction,SMDPad,CuDef*
G36*
X134806958Y-23440710D02*
G01*
X134821276Y-23442834D01*
X134835317Y-23446351D01*
X134848946Y-23451228D01*
X134862031Y-23457417D01*
X134874447Y-23464858D01*
X134886073Y-23473481D01*
X134896798Y-23483202D01*
X134906519Y-23493927D01*
X134915142Y-23505553D01*
X134922583Y-23517969D01*
X134928772Y-23531054D01*
X134933649Y-23544683D01*
X134937166Y-23558724D01*
X134939290Y-23573042D01*
X134940000Y-23587500D01*
X134940000Y-23932500D01*
X134939290Y-23946958D01*
X134937166Y-23961276D01*
X134933649Y-23975317D01*
X134928772Y-23988946D01*
X134922583Y-24002031D01*
X134915142Y-24014447D01*
X134906519Y-24026073D01*
X134896798Y-24036798D01*
X134886073Y-24046519D01*
X134874447Y-24055142D01*
X134862031Y-24062583D01*
X134848946Y-24068772D01*
X134835317Y-24073649D01*
X134821276Y-24077166D01*
X134806958Y-24079290D01*
X134792500Y-24080000D01*
X134497500Y-24080000D01*
X134483042Y-24079290D01*
X134468724Y-24077166D01*
X134454683Y-24073649D01*
X134441054Y-24068772D01*
X134427969Y-24062583D01*
X134415553Y-24055142D01*
X134403927Y-24046519D01*
X134393202Y-24036798D01*
X134383481Y-24026073D01*
X134374858Y-24014447D01*
X134367417Y-24002031D01*
X134361228Y-23988946D01*
X134356351Y-23975317D01*
X134352834Y-23961276D01*
X134350710Y-23946958D01*
X134350000Y-23932500D01*
X134350000Y-23587500D01*
X134350710Y-23573042D01*
X134352834Y-23558724D01*
X134356351Y-23544683D01*
X134361228Y-23531054D01*
X134367417Y-23517969D01*
X134374858Y-23505553D01*
X134383481Y-23493927D01*
X134393202Y-23483202D01*
X134403927Y-23473481D01*
X134415553Y-23464858D01*
X134427969Y-23457417D01*
X134441054Y-23451228D01*
X134454683Y-23446351D01*
X134468724Y-23442834D01*
X134483042Y-23440710D01*
X134497500Y-23440000D01*
X134792500Y-23440000D01*
X134806958Y-23440710D01*
G37*
G04 #@! TD.AperFunction*
D16*
X136060000Y-32205000D03*
X138460000Y-32205000D03*
X136060000Y-33455000D03*
X136060000Y-34705000D03*
X136060000Y-35955000D03*
X138460000Y-35955000D03*
X138460000Y-34705000D03*
X138460000Y-33455000D03*
D17*
X141300000Y-33210000D03*
X141300000Y-33710000D03*
X141300000Y-34210000D03*
X141300000Y-34710000D03*
X141300000Y-35210000D03*
D18*
X142100000Y-35510000D03*
X142600000Y-35510000D03*
X143100000Y-35510000D03*
D17*
X143900000Y-35210000D03*
X143900000Y-34710000D03*
X143900000Y-34210000D03*
X143900000Y-33710000D03*
X143900000Y-33210000D03*
D18*
X143100000Y-32910000D03*
X142600000Y-32910000D03*
X142100000Y-32910000D03*
D19*
X141270180Y-26255000D03*
X140590000Y-30010000D03*
X131200000Y-35970000D03*
X133890000Y-26650000D03*
X134830000Y-28690000D03*
X144997653Y-36517653D03*
X141478000Y-24384000D03*
X143256000Y-28702000D03*
X138460000Y-36800000D03*
X144910000Y-26620000D03*
X141300000Y-36330000D03*
X144840000Y-29130000D03*
X138122981Y-28942888D03*
X139970000Y-35860000D03*
X133225000Y-31850000D03*
X137000000Y-23500000D03*
X139870000Y-33550000D03*
X133175000Y-29350000D03*
X137701240Y-22787072D03*
X133175000Y-27450000D03*
X140190000Y-31860000D03*
D20*
X138170000Y-27490002D02*
X137250000Y-28410002D01*
X138170000Y-26955000D02*
X138170000Y-27490002D01*
X135615000Y-24984000D02*
X135319000Y-25280000D01*
X135615000Y-23760000D02*
X135615000Y-24984000D01*
X135660000Y-25621000D02*
X135660000Y-26700000D01*
X135319000Y-25280000D02*
X135660000Y-25621000D01*
X136060000Y-32205000D02*
X136060000Y-31740000D01*
X136060000Y-31740000D02*
X136060000Y-31150000D01*
X141340000Y-32500000D02*
X141340000Y-31790000D01*
X141750000Y-32910000D02*
X141340000Y-32500000D01*
X141340000Y-31790000D02*
X141340000Y-31290000D01*
X142100000Y-32910000D02*
X141750000Y-32910000D01*
X141300000Y-31330000D02*
X141340000Y-31290000D01*
X141300000Y-33210000D02*
X141300000Y-31330000D01*
X135615000Y-24080000D02*
X135615000Y-23760000D01*
X135945000Y-24410000D02*
X135615000Y-24080000D01*
X137225000Y-24410000D02*
X135945000Y-24410000D01*
X140315000Y-26410000D02*
X141115180Y-26410000D01*
X141115180Y-26410000D02*
X141270180Y-26255000D01*
X141330000Y-29659000D02*
X141330000Y-28730000D01*
X141681000Y-30010000D02*
X141330000Y-29659000D01*
X141340000Y-30351000D02*
X141340000Y-31290000D01*
X141681000Y-30010000D02*
X141340000Y-30351000D01*
X141681000Y-30010000D02*
X140590000Y-30010000D01*
D21*
X142200000Y-31024998D02*
X143099000Y-30125998D01*
X143099000Y-30125998D02*
X143099000Y-30010000D01*
X142200000Y-31290000D02*
X142200000Y-31024998D01*
X142200000Y-31840000D02*
X142200000Y-31290000D01*
X142200000Y-31960000D02*
X142200000Y-31840000D01*
X142600000Y-32360000D02*
X142200000Y-31960000D01*
X142600000Y-32910000D02*
X142600000Y-32360000D01*
X143900000Y-33210000D02*
X143900000Y-33710000D01*
X143900000Y-34210000D02*
X143900000Y-34710000D01*
X143900000Y-34710000D02*
X143900000Y-35210000D01*
X143600000Y-35510000D02*
X143900000Y-35210000D01*
X143100000Y-35510000D02*
X143600000Y-35510000D01*
D20*
X133901000Y-24615000D02*
X133901000Y-25280000D01*
X133901000Y-24209000D02*
X133901000Y-24615000D01*
X134350000Y-23760000D02*
X133901000Y-24209000D01*
X134645000Y-23760000D02*
X134350000Y-23760000D01*
X133901000Y-25801000D02*
X134800000Y-26700000D01*
X133901000Y-25280000D02*
X133901000Y-25801000D01*
X131200001Y-34350000D02*
X131200001Y-35969999D01*
X131200001Y-35969999D02*
X131200000Y-35970000D01*
X136270000Y-30000000D02*
X136050000Y-29780000D01*
X137521000Y-30000000D02*
X136270000Y-30000000D01*
X133901000Y-25280000D02*
X133901000Y-26639000D01*
X133901000Y-26639000D02*
X133890000Y-26650000D01*
X135460000Y-28690000D02*
X134830000Y-28690000D01*
X136050000Y-29780000D02*
X136050000Y-29280000D01*
X136050000Y-29280000D02*
X135460000Y-28690000D01*
X146870000Y-36520000D02*
X145000000Y-36520000D01*
X145000000Y-36520000D02*
X144997653Y-36517653D01*
X139370000Y-23345000D02*
X139715000Y-23000000D01*
X139370000Y-23865000D02*
X139370000Y-23345000D01*
X139370000Y-27490002D02*
X139454999Y-27575001D01*
X139370000Y-26955000D02*
X139370000Y-27490002D01*
X139454999Y-27575001D02*
X140049999Y-27575001D01*
X140315000Y-24135000D02*
X140315000Y-24410000D01*
X140315000Y-23474998D02*
X140315000Y-24135000D01*
X140085001Y-23244999D02*
X140315000Y-23474998D01*
X139454999Y-23244999D02*
X140085001Y-23244999D01*
X139370000Y-23329998D02*
X139454999Y-23244999D01*
X139370000Y-23865000D02*
X139370000Y-23329998D01*
X143099000Y-29639000D02*
X142190000Y-28730000D01*
X143099000Y-30010000D02*
X143099000Y-29639000D01*
X146870000Y-23170000D02*
X146275010Y-22575010D01*
X146870000Y-24120000D02*
X146870000Y-23170000D01*
X138570000Y-23329998D02*
X138570000Y-23345000D01*
X139324988Y-22575010D02*
X138570000Y-23329998D01*
X138570000Y-23345000D02*
X138570000Y-23865000D01*
X146275010Y-22575010D02*
X139324988Y-22575010D01*
X138460000Y-35955000D02*
X138460000Y-36800000D01*
D21*
X146870000Y-26620000D02*
X144910000Y-26620000D01*
X141300000Y-35210000D02*
X141300000Y-36330000D01*
X146870000Y-29120000D02*
X144850000Y-29120000D01*
X144850000Y-29120000D02*
X144840000Y-29130000D01*
X138465000Y-34700000D02*
X138460000Y-34705000D01*
D20*
X138570000Y-26955000D02*
X138570000Y-28495869D01*
X138570000Y-28495869D02*
X138122981Y-28942888D01*
X131200001Y-31850000D02*
X133225000Y-31850000D01*
D21*
X138465000Y-34710000D02*
X138460000Y-34705000D01*
X141300000Y-34710000D02*
X138465000Y-34710000D01*
D20*
X137770000Y-23865000D02*
X137365000Y-23865000D01*
X137365000Y-23865000D02*
X137000000Y-23500000D01*
D21*
X138850000Y-33455000D02*
X138460000Y-33455000D01*
X139605000Y-34210000D02*
X138850000Y-33455000D01*
X139870000Y-34210000D02*
X139870000Y-33550000D01*
X139870000Y-34210000D02*
X139605000Y-34210000D01*
X141300000Y-34210000D02*
X139870000Y-34210000D01*
D20*
X131200001Y-29350000D02*
X133175000Y-29350000D01*
X138170000Y-23865000D02*
X138170000Y-23255832D01*
X138170000Y-23255832D02*
X137701240Y-22787072D01*
X132650001Y-26850000D02*
X133175000Y-27374999D01*
X131200001Y-26850000D02*
X132650001Y-26850000D01*
X133175000Y-27374999D02*
X133175000Y-27450000D01*
D21*
X140595001Y-33540003D02*
X140595001Y-33201999D01*
X139365000Y-32205000D02*
X138460000Y-32205000D01*
X140764998Y-33710000D02*
X140595001Y-33540003D01*
X139598002Y-32205000D02*
X139365000Y-32205000D01*
X141300000Y-33710000D02*
X140764998Y-33710000D01*
X140186501Y-31863499D02*
X140190000Y-31860000D01*
X140186501Y-32793499D02*
X140186501Y-31863499D01*
X140186501Y-32793499D02*
X139598002Y-32205000D01*
X140595001Y-33201999D02*
X140186501Y-32793499D01*
D20*
X145420000Y-31620000D02*
X146870000Y-31620000D01*
X145350002Y-31620000D02*
X145420000Y-31620000D01*
X144139999Y-30409997D02*
X145350002Y-31620000D01*
X144139999Y-28569999D02*
X144139999Y-30409997D01*
X142525000Y-26955000D02*
X144139999Y-28569999D01*
X139770000Y-26955000D02*
X142525000Y-26955000D01*
X138970000Y-29969000D02*
X138939000Y-30000000D01*
X138970000Y-26955000D02*
X138970000Y-29969000D01*
D21*
X143100000Y-31340000D02*
X143100000Y-32910000D01*
X143070000Y-31310000D02*
X143100000Y-31340000D01*
X144354999Y-36135001D02*
X146370000Y-34120000D01*
X142175001Y-36135001D02*
X144354999Y-36135001D01*
X146370000Y-34120000D02*
X146870000Y-34120000D01*
X142100000Y-36060000D02*
X142175001Y-36135001D01*
X142100000Y-35510000D02*
X142100000Y-36060000D01*
G36*
X135685000Y-26675000D02*
G01*
X135705000Y-26675000D01*
X135705000Y-26725000D01*
X135685000Y-26725000D01*
X135685000Y-27318750D01*
X135791250Y-27425000D01*
X135875000Y-27426241D01*
X135875000Y-28250000D01*
X135877402Y-28274386D01*
X135884515Y-28297835D01*
X135896066Y-28319446D01*
X135911612Y-28338388D01*
X135930554Y-28353934D01*
X135952165Y-28365485D01*
X135975614Y-28372598D01*
X136000000Y-28375000D01*
X137667920Y-28375000D01*
X137660820Y-28379744D01*
X137559837Y-28480727D01*
X137480494Y-28599472D01*
X137425842Y-28731413D01*
X137397981Y-28871482D01*
X137397981Y-29014294D01*
X137425842Y-29154363D01*
X137448237Y-29208428D01*
X137016000Y-29208428D01*
X136952289Y-29214703D01*
X136891026Y-29233287D01*
X136834566Y-29263465D01*
X136785079Y-29304079D01*
X136744465Y-29353566D01*
X136714287Y-29410026D01*
X136695703Y-29471289D01*
X136689428Y-29535000D01*
X136689428Y-29575000D01*
X136646572Y-29575000D01*
X136646572Y-29480000D01*
X136640297Y-29416289D01*
X136621713Y-29355026D01*
X136591535Y-29298566D01*
X136550921Y-29249079D01*
X136501434Y-29208465D01*
X136466809Y-29189958D01*
X136461478Y-29172383D01*
X136444548Y-29116573D01*
X136405084Y-29042740D01*
X136371530Y-29001855D01*
X136365280Y-28994239D01*
X136365279Y-28994238D01*
X136351974Y-28978026D01*
X136335762Y-28964721D01*
X135775283Y-28404243D01*
X135761974Y-28388026D01*
X135697260Y-28334916D01*
X135623427Y-28295452D01*
X135543314Y-28271150D01*
X135480874Y-28265000D01*
X135480867Y-28265000D01*
X135460000Y-28262945D01*
X135439133Y-28265000D01*
X135417974Y-28265000D01*
X135393144Y-28227839D01*
X135292161Y-28126856D01*
X135173416Y-28047513D01*
X135041475Y-27992861D01*
X134901406Y-27965000D01*
X134758594Y-27965000D01*
X134618525Y-27992861D01*
X134486584Y-28047513D01*
X134367839Y-28126856D01*
X134266856Y-28227839D01*
X134187513Y-28346584D01*
X134132861Y-28478525D01*
X134105000Y-28618594D01*
X134105000Y-28761406D01*
X134132861Y-28901475D01*
X134187513Y-29033416D01*
X134266856Y-29152161D01*
X134367839Y-29253144D01*
X134486584Y-29332487D01*
X134516825Y-29345013D01*
X134501150Y-29396686D01*
X134492944Y-29480000D01*
X134495000Y-29648750D01*
X134601250Y-29755000D01*
X135165000Y-29755000D01*
X135165000Y-29735000D01*
X135215000Y-29735000D01*
X135215000Y-29755000D01*
X135235000Y-29755000D01*
X135235000Y-29805000D01*
X135215000Y-29805000D01*
X135215000Y-30398750D01*
X135321250Y-30505000D01*
X135460000Y-30507056D01*
X135543314Y-30498850D01*
X135623427Y-30474548D01*
X135697260Y-30435084D01*
X135737145Y-30402351D01*
X135780000Y-30406572D01*
X136146211Y-30406572D01*
X136162383Y-30411478D01*
X136186685Y-30418850D01*
X136194327Y-30419603D01*
X136249126Y-30425000D01*
X136249133Y-30425000D01*
X136270000Y-30427055D01*
X136290867Y-30425000D01*
X136689428Y-30425000D01*
X136689428Y-30465000D01*
X136695703Y-30528711D01*
X136714287Y-30589974D01*
X136744465Y-30646434D01*
X136785079Y-30695921D01*
X136834566Y-30736535D01*
X136891026Y-30766713D01*
X136952289Y-30785297D01*
X137016000Y-30791572D01*
X138026000Y-30791572D01*
X138089711Y-30785297D01*
X138150974Y-30766713D01*
X138207434Y-30736535D01*
X138230000Y-30718015D01*
X138252566Y-30736535D01*
X138309026Y-30766713D01*
X138370289Y-30785297D01*
X138434000Y-30791572D01*
X139444000Y-30791572D01*
X139507711Y-30785297D01*
X139568974Y-30766713D01*
X139625434Y-30736535D01*
X139674921Y-30695921D01*
X139715535Y-30646434D01*
X139745713Y-30589974D01*
X139764297Y-30528711D01*
X139770572Y-30465000D01*
X139770572Y-29535000D01*
X139764297Y-29471289D01*
X139745713Y-29410026D01*
X139715535Y-29353566D01*
X139674921Y-29304079D01*
X139625434Y-29263465D01*
X139568974Y-29233287D01*
X139507711Y-29214703D01*
X139444000Y-29208428D01*
X139395000Y-29208428D01*
X139395000Y-28375000D01*
X140638361Y-28375000D01*
X140632944Y-28430000D01*
X140635000Y-28598750D01*
X140741250Y-28705000D01*
X141305000Y-28705000D01*
X141305000Y-28685000D01*
X141355000Y-28685000D01*
X141355000Y-28705000D01*
X141375000Y-28705000D01*
X141375000Y-28755000D01*
X141355000Y-28755000D01*
X141355000Y-28775000D01*
X141305000Y-28775000D01*
X141305000Y-28755000D01*
X140741250Y-28755000D01*
X140635000Y-28861250D01*
X140632944Y-29030000D01*
X140641150Y-29113314D01*
X140665452Y-29193427D01*
X140704916Y-29267260D01*
X140758026Y-29331974D01*
X140792737Y-29360461D01*
X140781452Y-29381573D01*
X140757150Y-29461686D01*
X140748944Y-29545000D01*
X140751000Y-29878750D01*
X140857250Y-29985000D01*
X141375000Y-29985000D01*
X141375000Y-30035000D01*
X140857250Y-30035000D01*
X140751000Y-30141250D01*
X140748944Y-30475000D01*
X140757150Y-30558314D01*
X140781452Y-30638427D01*
X140795786Y-30665244D01*
X140768026Y-30688026D01*
X140714916Y-30752740D01*
X140675452Y-30826573D01*
X140651150Y-30906686D01*
X140642944Y-30990000D01*
X140645000Y-31158750D01*
X140751250Y-31265000D01*
X141315000Y-31265000D01*
X141315000Y-31245000D01*
X141365000Y-31245000D01*
X141365000Y-31265000D01*
X141375000Y-31265000D01*
X141375000Y-31315000D01*
X141365000Y-31315000D01*
X141365000Y-31335000D01*
X141315000Y-31335000D01*
X141315000Y-31315000D01*
X140751250Y-31315000D01*
X140710778Y-31355473D01*
X140652161Y-31296856D01*
X140533416Y-31217513D01*
X140401475Y-31162861D01*
X140261406Y-31135000D01*
X140118594Y-31135000D01*
X139978525Y-31162861D01*
X139846584Y-31217513D01*
X139727839Y-31296856D01*
X139649695Y-31375000D01*
X133775305Y-31375000D01*
X133687161Y-31286856D01*
X133568416Y-31207513D01*
X133436475Y-31152861D01*
X133296406Y-31125000D01*
X133153594Y-31125000D01*
X133013525Y-31152861D01*
X132881584Y-31207513D01*
X132875000Y-31211912D01*
X132875000Y-30080000D01*
X134492944Y-30080000D01*
X134501150Y-30163314D01*
X134525452Y-30243427D01*
X134564916Y-30317260D01*
X134618026Y-30381974D01*
X134682740Y-30435084D01*
X134756573Y-30474548D01*
X134836686Y-30498850D01*
X134920000Y-30507056D01*
X135058750Y-30505000D01*
X135165000Y-30398750D01*
X135165000Y-29805000D01*
X134601250Y-29805000D01*
X134495000Y-29911250D01*
X134492944Y-30080000D01*
X132875000Y-30080000D01*
X132875000Y-30010471D01*
X132963525Y-30047139D01*
X133103594Y-30075000D01*
X133246406Y-30075000D01*
X133386475Y-30047139D01*
X133518416Y-29992487D01*
X133637161Y-29913144D01*
X133738144Y-29812161D01*
X133817487Y-29693416D01*
X133872139Y-29561475D01*
X133900000Y-29421406D01*
X133900000Y-29278594D01*
X133872139Y-29138525D01*
X133817487Y-29006584D01*
X133738144Y-28887839D01*
X133637161Y-28786856D01*
X133518416Y-28707513D01*
X133386475Y-28652861D01*
X133246406Y-28625000D01*
X133103594Y-28625000D01*
X132963525Y-28652861D01*
X132875000Y-28689529D01*
X132875000Y-28110471D01*
X132963525Y-28147139D01*
X133103594Y-28175000D01*
X133246406Y-28175000D01*
X133386475Y-28147139D01*
X133518416Y-28092487D01*
X133637161Y-28013144D01*
X133738144Y-27912161D01*
X133817487Y-27793416D01*
X133872139Y-27661475D01*
X133900000Y-27521406D01*
X133900000Y-27378594D01*
X133899285Y-27375000D01*
X133961406Y-27375000D01*
X134101475Y-27347139D01*
X134233416Y-27292487D01*
X134310961Y-27240673D01*
X134348566Y-27271535D01*
X134405026Y-27301713D01*
X134466289Y-27320297D01*
X134530000Y-27326572D01*
X135070000Y-27326572D01*
X135112855Y-27322351D01*
X135152740Y-27355084D01*
X135226573Y-27394548D01*
X135306686Y-27418850D01*
X135390000Y-27427056D01*
X135528750Y-27425000D01*
X135635000Y-27318750D01*
X135635000Y-26725000D01*
X135615000Y-26725000D01*
X135615000Y-26675000D01*
X135635000Y-26675000D01*
X135635000Y-26655000D01*
X135685000Y-26655000D01*
X135685000Y-26675000D01*
G37*
X135685000Y-26675000D02*
X135705000Y-26675000D01*
X135705000Y-26725000D01*
X135685000Y-26725000D01*
X135685000Y-27318750D01*
X135791250Y-27425000D01*
X135875000Y-27426241D01*
X135875000Y-28250000D01*
X135877402Y-28274386D01*
X135884515Y-28297835D01*
X135896066Y-28319446D01*
X135911612Y-28338388D01*
X135930554Y-28353934D01*
X135952165Y-28365485D01*
X135975614Y-28372598D01*
X136000000Y-28375000D01*
X137667920Y-28375000D01*
X137660820Y-28379744D01*
X137559837Y-28480727D01*
X137480494Y-28599472D01*
X137425842Y-28731413D01*
X137397981Y-28871482D01*
X137397981Y-29014294D01*
X137425842Y-29154363D01*
X137448237Y-29208428D01*
X137016000Y-29208428D01*
X136952289Y-29214703D01*
X136891026Y-29233287D01*
X136834566Y-29263465D01*
X136785079Y-29304079D01*
X136744465Y-29353566D01*
X136714287Y-29410026D01*
X136695703Y-29471289D01*
X136689428Y-29535000D01*
X136689428Y-29575000D01*
X136646572Y-29575000D01*
X136646572Y-29480000D01*
X136640297Y-29416289D01*
X136621713Y-29355026D01*
X136591535Y-29298566D01*
X136550921Y-29249079D01*
X136501434Y-29208465D01*
X136466809Y-29189958D01*
X136461478Y-29172383D01*
X136444548Y-29116573D01*
X136405084Y-29042740D01*
X136371530Y-29001855D01*
X136365280Y-28994239D01*
X136365279Y-28994238D01*
X136351974Y-28978026D01*
X136335762Y-28964721D01*
X135775283Y-28404243D01*
X135761974Y-28388026D01*
X135697260Y-28334916D01*
X135623427Y-28295452D01*
X135543314Y-28271150D01*
X135480874Y-28265000D01*
X135480867Y-28265000D01*
X135460000Y-28262945D01*
X135439133Y-28265000D01*
X135417974Y-28265000D01*
X135393144Y-28227839D01*
X135292161Y-28126856D01*
X135173416Y-28047513D01*
X135041475Y-27992861D01*
X134901406Y-27965000D01*
X134758594Y-27965000D01*
X134618525Y-27992861D01*
X134486584Y-28047513D01*
X134367839Y-28126856D01*
X134266856Y-28227839D01*
X134187513Y-28346584D01*
X134132861Y-28478525D01*
X134105000Y-28618594D01*
X134105000Y-28761406D01*
X134132861Y-28901475D01*
X134187513Y-29033416D01*
X134266856Y-29152161D01*
X134367839Y-29253144D01*
X134486584Y-29332487D01*
X134516825Y-29345013D01*
X134501150Y-29396686D01*
X134492944Y-29480000D01*
X134495000Y-29648750D01*
X134601250Y-29755000D01*
X135165000Y-29755000D01*
X135165000Y-29735000D01*
X135215000Y-29735000D01*
X135215000Y-29755000D01*
X135235000Y-29755000D01*
X135235000Y-29805000D01*
X135215000Y-29805000D01*
X135215000Y-30398750D01*
X135321250Y-30505000D01*
X135460000Y-30507056D01*
X135543314Y-30498850D01*
X135623427Y-30474548D01*
X135697260Y-30435084D01*
X135737145Y-30402351D01*
X135780000Y-30406572D01*
X136146211Y-30406572D01*
X136162383Y-30411478D01*
X136186685Y-30418850D01*
X136194327Y-30419603D01*
X136249126Y-30425000D01*
X136249133Y-30425000D01*
X136270000Y-30427055D01*
X136290867Y-30425000D01*
X136689428Y-30425000D01*
X136689428Y-30465000D01*
X136695703Y-30528711D01*
X136714287Y-30589974D01*
X136744465Y-30646434D01*
X136785079Y-30695921D01*
X136834566Y-30736535D01*
X136891026Y-30766713D01*
X136952289Y-30785297D01*
X137016000Y-30791572D01*
X138026000Y-30791572D01*
X138089711Y-30785297D01*
X138150974Y-30766713D01*
X138207434Y-30736535D01*
X138230000Y-30718015D01*
X138252566Y-30736535D01*
X138309026Y-30766713D01*
X138370289Y-30785297D01*
X138434000Y-30791572D01*
X139444000Y-30791572D01*
X139507711Y-30785297D01*
X139568974Y-30766713D01*
X139625434Y-30736535D01*
X139674921Y-30695921D01*
X139715535Y-30646434D01*
X139745713Y-30589974D01*
X139764297Y-30528711D01*
X139770572Y-30465000D01*
X139770572Y-29535000D01*
X139764297Y-29471289D01*
X139745713Y-29410026D01*
X139715535Y-29353566D01*
X139674921Y-29304079D01*
X139625434Y-29263465D01*
X139568974Y-29233287D01*
X139507711Y-29214703D01*
X139444000Y-29208428D01*
X139395000Y-29208428D01*
X139395000Y-28375000D01*
X140638361Y-28375000D01*
X140632944Y-28430000D01*
X140635000Y-28598750D01*
X140741250Y-28705000D01*
X141305000Y-28705000D01*
X141305000Y-28685000D01*
X141355000Y-28685000D01*
X141355000Y-28705000D01*
X141375000Y-28705000D01*
X141375000Y-28755000D01*
X141355000Y-28755000D01*
X141355000Y-28775000D01*
X141305000Y-28775000D01*
X141305000Y-28755000D01*
X140741250Y-28755000D01*
X140635000Y-28861250D01*
X140632944Y-29030000D01*
X140641150Y-29113314D01*
X140665452Y-29193427D01*
X140704916Y-29267260D01*
X140758026Y-29331974D01*
X140792737Y-29360461D01*
X140781452Y-29381573D01*
X140757150Y-29461686D01*
X140748944Y-29545000D01*
X140751000Y-29878750D01*
X140857250Y-29985000D01*
X141375000Y-29985000D01*
X141375000Y-30035000D01*
X140857250Y-30035000D01*
X140751000Y-30141250D01*
X140748944Y-30475000D01*
X140757150Y-30558314D01*
X140781452Y-30638427D01*
X140795786Y-30665244D01*
X140768026Y-30688026D01*
X140714916Y-30752740D01*
X140675452Y-30826573D01*
X140651150Y-30906686D01*
X140642944Y-30990000D01*
X140645000Y-31158750D01*
X140751250Y-31265000D01*
X141315000Y-31265000D01*
X141315000Y-31245000D01*
X141365000Y-31245000D01*
X141365000Y-31265000D01*
X141375000Y-31265000D01*
X141375000Y-31315000D01*
X141365000Y-31315000D01*
X141365000Y-31335000D01*
X141315000Y-31335000D01*
X141315000Y-31315000D01*
X140751250Y-31315000D01*
X140710778Y-31355473D01*
X140652161Y-31296856D01*
X140533416Y-31217513D01*
X140401475Y-31162861D01*
X140261406Y-31135000D01*
X140118594Y-31135000D01*
X139978525Y-31162861D01*
X139846584Y-31217513D01*
X139727839Y-31296856D01*
X139649695Y-31375000D01*
X133775305Y-31375000D01*
X133687161Y-31286856D01*
X133568416Y-31207513D01*
X133436475Y-31152861D01*
X133296406Y-31125000D01*
X133153594Y-31125000D01*
X133013525Y-31152861D01*
X132881584Y-31207513D01*
X132875000Y-31211912D01*
X132875000Y-30080000D01*
X134492944Y-30080000D01*
X134501150Y-30163314D01*
X134525452Y-30243427D01*
X134564916Y-30317260D01*
X134618026Y-30381974D01*
X134682740Y-30435084D01*
X134756573Y-30474548D01*
X134836686Y-30498850D01*
X134920000Y-30507056D01*
X135058750Y-30505000D01*
X135165000Y-30398750D01*
X135165000Y-29805000D01*
X134601250Y-29805000D01*
X134495000Y-29911250D01*
X134492944Y-30080000D01*
X132875000Y-30080000D01*
X132875000Y-30010471D01*
X132963525Y-30047139D01*
X133103594Y-30075000D01*
X133246406Y-30075000D01*
X133386475Y-30047139D01*
X133518416Y-29992487D01*
X133637161Y-29913144D01*
X133738144Y-29812161D01*
X133817487Y-29693416D01*
X133872139Y-29561475D01*
X133900000Y-29421406D01*
X133900000Y-29278594D01*
X133872139Y-29138525D01*
X133817487Y-29006584D01*
X133738144Y-28887839D01*
X133637161Y-28786856D01*
X133518416Y-28707513D01*
X133386475Y-28652861D01*
X133246406Y-28625000D01*
X133103594Y-28625000D01*
X132963525Y-28652861D01*
X132875000Y-28689529D01*
X132875000Y-28110471D01*
X132963525Y-28147139D01*
X133103594Y-28175000D01*
X133246406Y-28175000D01*
X133386475Y-28147139D01*
X133518416Y-28092487D01*
X133637161Y-28013144D01*
X133738144Y-27912161D01*
X133817487Y-27793416D01*
X133872139Y-27661475D01*
X133900000Y-27521406D01*
X133900000Y-27378594D01*
X133899285Y-27375000D01*
X133961406Y-27375000D01*
X134101475Y-27347139D01*
X134233416Y-27292487D01*
X134310961Y-27240673D01*
X134348566Y-27271535D01*
X134405026Y-27301713D01*
X134466289Y-27320297D01*
X134530000Y-27326572D01*
X135070000Y-27326572D01*
X135112855Y-27322351D01*
X135152740Y-27355084D01*
X135226573Y-27394548D01*
X135306686Y-27418850D01*
X135390000Y-27427056D01*
X135528750Y-27425000D01*
X135635000Y-27318750D01*
X135635000Y-26725000D01*
X135615000Y-26725000D01*
X135615000Y-26675000D01*
X135635000Y-26675000D01*
X135635000Y-26655000D01*
X135685000Y-26655000D01*
X135685000Y-26675000D01*
G36*
X135875000Y-23013383D02*
G01*
X135746250Y-23015000D01*
X135640000Y-23121250D01*
X135640000Y-23735000D01*
X135660000Y-23735000D01*
X135660000Y-23785000D01*
X135640000Y-23785000D01*
X135640000Y-23805000D01*
X135590000Y-23805000D01*
X135590000Y-23785000D01*
X135570000Y-23785000D01*
X135570000Y-23735000D01*
X135590000Y-23735000D01*
X135590000Y-23121250D01*
X135483750Y-23015000D01*
X135320000Y-23012944D01*
X135236686Y-23021150D01*
X135156573Y-23045452D01*
X135082740Y-23084916D01*
X135018026Y-23138026D01*
X134998024Y-23162399D01*
X134973920Y-23149515D01*
X134884987Y-23122537D01*
X134792500Y-23113428D01*
X134497500Y-23113428D01*
X134405013Y-23122537D01*
X134316080Y-23149515D01*
X134234120Y-23193324D01*
X134162280Y-23252280D01*
X134103324Y-23324120D01*
X134059515Y-23406080D01*
X134041254Y-23466278D01*
X134034721Y-23474238D01*
X133615243Y-23893717D01*
X133599026Y-23907026D01*
X133545916Y-23971741D01*
X133506452Y-24045574D01*
X133482150Y-24125687D01*
X133476000Y-24188127D01*
X133476000Y-24188133D01*
X133473945Y-24209000D01*
X133476000Y-24229867D01*
X133476000Y-24488428D01*
X133396000Y-24488428D01*
X133332289Y-24494703D01*
X133271026Y-24513287D01*
X133214566Y-24543465D01*
X133165079Y-24584079D01*
X133124465Y-24633566D01*
X133094287Y-24690026D01*
X133075703Y-24751289D01*
X133069428Y-24815000D01*
X133069428Y-25745000D01*
X133075703Y-25808711D01*
X133094287Y-25869974D01*
X133124465Y-25926434D01*
X133165079Y-25975921D01*
X133214566Y-26016535D01*
X133271026Y-26046713D01*
X133332289Y-26065297D01*
X133396000Y-26071572D01*
X133450713Y-26071572D01*
X133427839Y-26086856D01*
X133326856Y-26187839D01*
X133247513Y-26306584D01*
X133192861Y-26438525D01*
X133165000Y-26578594D01*
X133165000Y-26721406D01*
X133165715Y-26725000D01*
X133126041Y-26725000D01*
X132965284Y-26564243D01*
X132951975Y-26548026D01*
X132887261Y-26494916D01*
X132875000Y-26488362D01*
X132875000Y-25750000D01*
X132872598Y-25725614D01*
X132865485Y-25702165D01*
X132853934Y-25680554D01*
X132838388Y-25661612D01*
X132819446Y-25646066D01*
X132797835Y-25634515D01*
X132774386Y-25627402D01*
X132750000Y-25625000D01*
X129600000Y-25625000D01*
X129600000Y-25343454D01*
X129648027Y-25401974D01*
X129712741Y-25455084D01*
X129786574Y-25494548D01*
X129866687Y-25518850D01*
X129950001Y-25527056D01*
X131068751Y-25525000D01*
X131175001Y-25418750D01*
X131175001Y-24375000D01*
X131225001Y-24375000D01*
X131225001Y-25418750D01*
X131331251Y-25525000D01*
X132450001Y-25527056D01*
X132533315Y-25518850D01*
X132613428Y-25494548D01*
X132687261Y-25455084D01*
X132751975Y-25401974D01*
X132805085Y-25337260D01*
X132844549Y-25263427D01*
X132868851Y-25183314D01*
X132877057Y-25100000D01*
X132875001Y-24481250D01*
X132768751Y-24375000D01*
X131225001Y-24375000D01*
X131175001Y-24375000D01*
X131155001Y-24375000D01*
X131155001Y-24325000D01*
X131175001Y-24325000D01*
X131175001Y-23281250D01*
X131225001Y-23281250D01*
X131225001Y-24325000D01*
X132768751Y-24325000D01*
X132875001Y-24218750D01*
X132877057Y-23600000D01*
X132868851Y-23516686D01*
X132844549Y-23436573D01*
X132805085Y-23362740D01*
X132751975Y-23298026D01*
X132687261Y-23244916D01*
X132613428Y-23205452D01*
X132533315Y-23181150D01*
X132450001Y-23172944D01*
X131331251Y-23175000D01*
X131225001Y-23281250D01*
X131175001Y-23281250D01*
X131068751Y-23175000D01*
X129950001Y-23172944D01*
X129866687Y-23181150D01*
X129786574Y-23205452D01*
X129712741Y-23244916D01*
X129648027Y-23298026D01*
X129600000Y-23356546D01*
X129600000Y-22350000D01*
X135875000Y-22350000D01*
X135875000Y-23013383D01*
G37*
X135875000Y-23013383D02*
X135746250Y-23015000D01*
X135640000Y-23121250D01*
X135640000Y-23735000D01*
X135660000Y-23735000D01*
X135660000Y-23785000D01*
X135640000Y-23785000D01*
X135640000Y-23805000D01*
X135590000Y-23805000D01*
X135590000Y-23785000D01*
X135570000Y-23785000D01*
X135570000Y-23735000D01*
X135590000Y-23735000D01*
X135590000Y-23121250D01*
X135483750Y-23015000D01*
X135320000Y-23012944D01*
X135236686Y-23021150D01*
X135156573Y-23045452D01*
X135082740Y-23084916D01*
X135018026Y-23138026D01*
X134998024Y-23162399D01*
X134973920Y-23149515D01*
X134884987Y-23122537D01*
X134792500Y-23113428D01*
X134497500Y-23113428D01*
X134405013Y-23122537D01*
X134316080Y-23149515D01*
X134234120Y-23193324D01*
X134162280Y-23252280D01*
X134103324Y-23324120D01*
X134059515Y-23406080D01*
X134041254Y-23466278D01*
X134034721Y-23474238D01*
X133615243Y-23893717D01*
X133599026Y-23907026D01*
X133545916Y-23971741D01*
X133506452Y-24045574D01*
X133482150Y-24125687D01*
X133476000Y-24188127D01*
X133476000Y-24188133D01*
X133473945Y-24209000D01*
X133476000Y-24229867D01*
X133476000Y-24488428D01*
X133396000Y-24488428D01*
X133332289Y-24494703D01*
X133271026Y-24513287D01*
X133214566Y-24543465D01*
X133165079Y-24584079D01*
X133124465Y-24633566D01*
X133094287Y-24690026D01*
X133075703Y-24751289D01*
X133069428Y-24815000D01*
X133069428Y-25745000D01*
X133075703Y-25808711D01*
X133094287Y-25869974D01*
X133124465Y-25926434D01*
X133165079Y-25975921D01*
X133214566Y-26016535D01*
X133271026Y-26046713D01*
X133332289Y-26065297D01*
X133396000Y-26071572D01*
X133450713Y-26071572D01*
X133427839Y-26086856D01*
X133326856Y-26187839D01*
X133247513Y-26306584D01*
X133192861Y-26438525D01*
X133165000Y-26578594D01*
X133165000Y-26721406D01*
X133165715Y-26725000D01*
X133126041Y-26725000D01*
X132965284Y-26564243D01*
X132951975Y-26548026D01*
X132887261Y-26494916D01*
X132875000Y-26488362D01*
X132875000Y-25750000D01*
X132872598Y-25725614D01*
X132865485Y-25702165D01*
X132853934Y-25680554D01*
X132838388Y-25661612D01*
X132819446Y-25646066D01*
X132797835Y-25634515D01*
X132774386Y-25627402D01*
X132750000Y-25625000D01*
X129600000Y-25625000D01*
X129600000Y-25343454D01*
X129648027Y-25401974D01*
X129712741Y-25455084D01*
X129786574Y-25494548D01*
X129866687Y-25518850D01*
X129950001Y-25527056D01*
X131068751Y-25525000D01*
X131175001Y-25418750D01*
X131175001Y-24375000D01*
X131225001Y-24375000D01*
X131225001Y-25418750D01*
X131331251Y-25525000D01*
X132450001Y-25527056D01*
X132533315Y-25518850D01*
X132613428Y-25494548D01*
X132687261Y-25455084D01*
X132751975Y-25401974D01*
X132805085Y-25337260D01*
X132844549Y-25263427D01*
X132868851Y-25183314D01*
X132877057Y-25100000D01*
X132875001Y-24481250D01*
X132768751Y-24375000D01*
X131225001Y-24375000D01*
X131175001Y-24375000D01*
X131155001Y-24375000D01*
X131155001Y-24325000D01*
X131175001Y-24325000D01*
X131175001Y-23281250D01*
X131225001Y-23281250D01*
X131225001Y-24325000D01*
X132768751Y-24325000D01*
X132875001Y-24218750D01*
X132877057Y-23600000D01*
X132868851Y-23516686D01*
X132844549Y-23436573D01*
X132805085Y-23362740D01*
X132751975Y-23298026D01*
X132687261Y-23244916D01*
X132613428Y-23205452D01*
X132533315Y-23181150D01*
X132450001Y-23172944D01*
X131331251Y-23175000D01*
X131225001Y-23281250D01*
X131175001Y-23281250D01*
X131068751Y-23175000D01*
X129950001Y-23172944D01*
X129866687Y-23181150D01*
X129786574Y-23205452D01*
X129712741Y-23244916D01*
X129648027Y-23298026D01*
X129600000Y-23356546D01*
X129600000Y-22350000D01*
X135875000Y-22350000D01*
X135875000Y-23013383D01*
G36*
X135344000Y-25255000D02*
G01*
X135364000Y-25255000D01*
X135364000Y-25305000D01*
X135344000Y-25305000D01*
X135344000Y-25325000D01*
X135294000Y-25325000D01*
X135294000Y-25305000D01*
X135274000Y-25305000D01*
X135274000Y-25255000D01*
X135294000Y-25255000D01*
X135294000Y-25235000D01*
X135344000Y-25235000D01*
X135344000Y-25255000D01*
G37*
X135344000Y-25255000D02*
X135364000Y-25255000D01*
X135364000Y-25305000D01*
X135344000Y-25305000D01*
X135344000Y-25325000D01*
X135294000Y-25325000D01*
X135294000Y-25305000D01*
X135274000Y-25305000D01*
X135274000Y-25255000D01*
X135294000Y-25255000D01*
X135294000Y-25235000D01*
X135344000Y-25235000D01*
X135344000Y-25255000D01*
G36*
X148650001Y-37650000D02*
G01*
X148310645Y-37650000D01*
X148357260Y-37625084D01*
X148421974Y-37571974D01*
X148475084Y-37507260D01*
X148514548Y-37433427D01*
X148538850Y-37353314D01*
X148547056Y-37270000D01*
X148545000Y-36651250D01*
X148438750Y-36545000D01*
X146895000Y-36545000D01*
X146895000Y-36565000D01*
X146845000Y-36565000D01*
X146845000Y-36545000D01*
X145301250Y-36545000D01*
X145195000Y-36651250D01*
X145192944Y-37270000D01*
X145201150Y-37353314D01*
X145225452Y-37433427D01*
X145264916Y-37507260D01*
X145318026Y-37571974D01*
X145382740Y-37625084D01*
X145429355Y-37650000D01*
X129600000Y-37650000D01*
X129600000Y-35343454D01*
X129648027Y-35401974D01*
X129712741Y-35455084D01*
X129786574Y-35494548D01*
X129866687Y-35518850D01*
X129950001Y-35527056D01*
X131068751Y-35525000D01*
X131175001Y-35418750D01*
X131175001Y-34375000D01*
X131225001Y-34375000D01*
X131225001Y-35418750D01*
X131331251Y-35525000D01*
X132450001Y-35527056D01*
X132533315Y-35518850D01*
X132613428Y-35494548D01*
X132687261Y-35455084D01*
X132751975Y-35401974D01*
X132805085Y-35337260D01*
X132844549Y-35263427D01*
X132868851Y-35183314D01*
X132877057Y-35100000D01*
X132876626Y-34970000D01*
X134977944Y-34970000D01*
X134986150Y-35053314D01*
X135010452Y-35133427D01*
X135049916Y-35207260D01*
X135103026Y-35271974D01*
X135167740Y-35325084D01*
X135241573Y-35364548D01*
X135299928Y-35382250D01*
X135280026Y-35388287D01*
X135223566Y-35418465D01*
X135174079Y-35459079D01*
X135133465Y-35508566D01*
X135103287Y-35565026D01*
X135084703Y-35626289D01*
X135078428Y-35690000D01*
X135078428Y-36220000D01*
X135084703Y-36283711D01*
X135103287Y-36344974D01*
X135133465Y-36401434D01*
X135174079Y-36450921D01*
X135223566Y-36491535D01*
X135280026Y-36521713D01*
X135341289Y-36540297D01*
X135405000Y-36546572D01*
X136715000Y-36546572D01*
X136778711Y-36540297D01*
X136839974Y-36521713D01*
X136896434Y-36491535D01*
X136945921Y-36450921D01*
X136986535Y-36401434D01*
X137016713Y-36344974D01*
X137035297Y-36283711D01*
X137041572Y-36220000D01*
X137041572Y-35690000D01*
X137035297Y-35626289D01*
X137016713Y-35565026D01*
X136986535Y-35508566D01*
X136945921Y-35459079D01*
X136896434Y-35418465D01*
X136839974Y-35388287D01*
X136820072Y-35382250D01*
X136878427Y-35364548D01*
X136952260Y-35325084D01*
X137016974Y-35271974D01*
X137070084Y-35207260D01*
X137109548Y-35133427D01*
X137133850Y-35053314D01*
X137142056Y-34970000D01*
X137140000Y-34836250D01*
X137033750Y-34730000D01*
X136085000Y-34730000D01*
X136085000Y-34750000D01*
X136035000Y-34750000D01*
X136035000Y-34730000D01*
X135086250Y-34730000D01*
X134980000Y-34836250D01*
X134977944Y-34970000D01*
X132876626Y-34970000D01*
X132875001Y-34481250D01*
X132768751Y-34375000D01*
X131225001Y-34375000D01*
X131175001Y-34375000D01*
X131155001Y-34375000D01*
X131155001Y-34325000D01*
X131175001Y-34325000D01*
X131175001Y-33281250D01*
X131225001Y-33281250D01*
X131225001Y-34325000D01*
X132768751Y-34325000D01*
X132875001Y-34218750D01*
X132876658Y-33720000D01*
X134977944Y-33720000D01*
X134986150Y-33803314D01*
X135010452Y-33883427D01*
X135049916Y-33957260D01*
X135103026Y-34021974D01*
X135167740Y-34075084D01*
X135176937Y-34080000D01*
X135167740Y-34084916D01*
X135103026Y-34138026D01*
X135049916Y-34202740D01*
X135010452Y-34276573D01*
X134986150Y-34356686D01*
X134977944Y-34440000D01*
X134980000Y-34573750D01*
X135086250Y-34680000D01*
X136035000Y-34680000D01*
X136035000Y-34121250D01*
X135993750Y-34080000D01*
X136035000Y-34038750D01*
X136035000Y-33480000D01*
X136085000Y-33480000D01*
X136085000Y-34038750D01*
X136126250Y-34080000D01*
X136085000Y-34121250D01*
X136085000Y-34680000D01*
X137033750Y-34680000D01*
X137140000Y-34573750D01*
X137142056Y-34440000D01*
X137133850Y-34356686D01*
X137109548Y-34276573D01*
X137070084Y-34202740D01*
X137016974Y-34138026D01*
X136952260Y-34084916D01*
X136943063Y-34080000D01*
X136952260Y-34075084D01*
X137016974Y-34021974D01*
X137070084Y-33957260D01*
X137109548Y-33883427D01*
X137133850Y-33803314D01*
X137142056Y-33720000D01*
X137140000Y-33586250D01*
X137033750Y-33480000D01*
X136085000Y-33480000D01*
X136035000Y-33480000D01*
X135086250Y-33480000D01*
X134980000Y-33586250D01*
X134977944Y-33720000D01*
X132876658Y-33720000D01*
X132877057Y-33600000D01*
X132868851Y-33516686D01*
X132844549Y-33436573D01*
X132805085Y-33362740D01*
X132751975Y-33298026D01*
X132687261Y-33244916D01*
X132613428Y-33205452D01*
X132533315Y-33181150D01*
X132450001Y-33172944D01*
X131331251Y-33175000D01*
X131225001Y-33281250D01*
X131175001Y-33281250D01*
X131068751Y-33175000D01*
X129950001Y-33172944D01*
X129866687Y-33181150D01*
X129786574Y-33205452D01*
X129712741Y-33244916D01*
X129648027Y-33298026D01*
X129600000Y-33356546D01*
X129600000Y-32125000D01*
X129623429Y-32125000D01*
X129623429Y-32600000D01*
X129629704Y-32663711D01*
X129648288Y-32724974D01*
X129678466Y-32781434D01*
X129719080Y-32830921D01*
X129768567Y-32871535D01*
X129825027Y-32901713D01*
X129886290Y-32920297D01*
X129950001Y-32926572D01*
X132450001Y-32926572D01*
X132513712Y-32920297D01*
X132574975Y-32901713D01*
X132631435Y-32871535D01*
X132680922Y-32830921D01*
X132721536Y-32781434D01*
X132751714Y-32724974D01*
X132770298Y-32663711D01*
X132776573Y-32600000D01*
X132776573Y-32422321D01*
X132881584Y-32492487D01*
X133013525Y-32547139D01*
X133153594Y-32575000D01*
X133296406Y-32575000D01*
X133436475Y-32547139D01*
X133568416Y-32492487D01*
X133687161Y-32413144D01*
X133788144Y-32312161D01*
X133867487Y-32193416D01*
X133895826Y-32125000D01*
X135078428Y-32125000D01*
X135078428Y-32470000D01*
X135084703Y-32533711D01*
X135103287Y-32594974D01*
X135133465Y-32651434D01*
X135174079Y-32700921D01*
X135223566Y-32741535D01*
X135280026Y-32771713D01*
X135299928Y-32777750D01*
X135241573Y-32795452D01*
X135167740Y-32834916D01*
X135103026Y-32888026D01*
X135049916Y-32952740D01*
X135010452Y-33026573D01*
X134986150Y-33106686D01*
X134977944Y-33190000D01*
X134980000Y-33323750D01*
X135086250Y-33430000D01*
X136035000Y-33430000D01*
X136035000Y-33410000D01*
X136085000Y-33410000D01*
X136085000Y-33430000D01*
X137033750Y-33430000D01*
X137140000Y-33323750D01*
X137142056Y-33190000D01*
X137133850Y-33106686D01*
X137109548Y-33026573D01*
X137070084Y-32952740D01*
X137016974Y-32888026D01*
X136952260Y-32834916D01*
X136878427Y-32795452D01*
X136820072Y-32777750D01*
X136839974Y-32771713D01*
X136896434Y-32741535D01*
X136945921Y-32700921D01*
X136986535Y-32651434D01*
X137016713Y-32594974D01*
X137035297Y-32533711D01*
X137041572Y-32470000D01*
X137041572Y-32125000D01*
X137478428Y-32125000D01*
X137478428Y-32470000D01*
X137484703Y-32533711D01*
X137503287Y-32594974D01*
X137533465Y-32651434D01*
X137574079Y-32700921D01*
X137623566Y-32741535D01*
X137680026Y-32771713D01*
X137741289Y-32790297D01*
X137805000Y-32796572D01*
X139115000Y-32796572D01*
X139178711Y-32790297D01*
X139239974Y-32771713D01*
X139296434Y-32741535D01*
X139345921Y-32700921D01*
X139383608Y-32655000D01*
X139411607Y-32655000D01*
X139623836Y-32867230D01*
X139526584Y-32907513D01*
X139407839Y-32986856D01*
X139386352Y-33008343D01*
X139345921Y-32959079D01*
X139296434Y-32918465D01*
X139239974Y-32888287D01*
X139178711Y-32869703D01*
X139115000Y-32863428D01*
X137805000Y-32863428D01*
X137741289Y-32869703D01*
X137680026Y-32888287D01*
X137623566Y-32918465D01*
X137574079Y-32959079D01*
X137533465Y-33008566D01*
X137503287Y-33065026D01*
X137484703Y-33126289D01*
X137478428Y-33190000D01*
X137478428Y-33720000D01*
X137484703Y-33783711D01*
X137503287Y-33844974D01*
X137533465Y-33901434D01*
X137574079Y-33950921D01*
X137623566Y-33991535D01*
X137680026Y-34021713D01*
X137741289Y-34040297D01*
X137805000Y-34046572D01*
X138805177Y-34046572D01*
X138872033Y-34113428D01*
X137805000Y-34113428D01*
X137741289Y-34119703D01*
X137680026Y-34138287D01*
X137623566Y-34168465D01*
X137574079Y-34209079D01*
X137533465Y-34258566D01*
X137503287Y-34315026D01*
X137484703Y-34376289D01*
X137478428Y-34440000D01*
X137478428Y-34970000D01*
X137484703Y-35033711D01*
X137503287Y-35094974D01*
X137533465Y-35151434D01*
X137574079Y-35200921D01*
X137623566Y-35241535D01*
X137680026Y-35271713D01*
X137741289Y-35290297D01*
X137805000Y-35296572D01*
X139115000Y-35296572D01*
X139178711Y-35290297D01*
X139239974Y-35271713D01*
X139296434Y-35241535D01*
X139345921Y-35200921D01*
X139379505Y-35160000D01*
X139772908Y-35160000D01*
X139758525Y-35162861D01*
X139626584Y-35217513D01*
X139507839Y-35296856D01*
X139406856Y-35397839D01*
X139356954Y-35472522D01*
X139345921Y-35459079D01*
X139296434Y-35418465D01*
X139239974Y-35388287D01*
X139178711Y-35369703D01*
X139115000Y-35363428D01*
X137805000Y-35363428D01*
X137741289Y-35369703D01*
X137680026Y-35388287D01*
X137623566Y-35418465D01*
X137574079Y-35459079D01*
X137533465Y-35508566D01*
X137503287Y-35565026D01*
X137484703Y-35626289D01*
X137478428Y-35690000D01*
X137478428Y-36220000D01*
X137484703Y-36283711D01*
X137503287Y-36344974D01*
X137533465Y-36401434D01*
X137574079Y-36450921D01*
X137623566Y-36491535D01*
X137680026Y-36521713D01*
X137741289Y-36540297D01*
X137781209Y-36544229D01*
X137762861Y-36588525D01*
X137735000Y-36728594D01*
X137735000Y-36871406D01*
X137762861Y-37011475D01*
X137817513Y-37143416D01*
X137896856Y-37262161D01*
X137997839Y-37363144D01*
X138116584Y-37442487D01*
X138248525Y-37497139D01*
X138388594Y-37525000D01*
X138531406Y-37525000D01*
X138671475Y-37497139D01*
X138803416Y-37442487D01*
X138922161Y-37363144D01*
X139023144Y-37262161D01*
X139102487Y-37143416D01*
X139157139Y-37011475D01*
X139185000Y-36871406D01*
X139185000Y-36728594D01*
X139157139Y-36588525D01*
X139138791Y-36544229D01*
X139178711Y-36540297D01*
X139239974Y-36521713D01*
X139296434Y-36491535D01*
X139345921Y-36450921D01*
X139386535Y-36401434D01*
X139416713Y-36344974D01*
X139419728Y-36335033D01*
X139507839Y-36423144D01*
X139626584Y-36502487D01*
X139758525Y-36557139D01*
X139898594Y-36585000D01*
X140041406Y-36585000D01*
X140181475Y-36557139D01*
X140313416Y-36502487D01*
X140432161Y-36423144D01*
X140533144Y-36322161D01*
X140575000Y-36259519D01*
X140575000Y-36401406D01*
X140602861Y-36541475D01*
X140657513Y-36673416D01*
X140736856Y-36792161D01*
X140837839Y-36893144D01*
X140956584Y-36972487D01*
X141088525Y-37027139D01*
X141228594Y-37055000D01*
X141371406Y-37055000D01*
X141511475Y-37027139D01*
X141643416Y-36972487D01*
X141762161Y-36893144D01*
X141863144Y-36792161D01*
X141942487Y-36673416D01*
X141994187Y-36548603D01*
X142001960Y-36552758D01*
X142086786Y-36578490D01*
X142152896Y-36585001D01*
X142152908Y-36585001D01*
X142175000Y-36587177D01*
X142197092Y-36585001D01*
X144332905Y-36585001D01*
X144354999Y-36587177D01*
X144377093Y-36585001D01*
X144377104Y-36585001D01*
X144443214Y-36578490D01*
X144528040Y-36552758D01*
X144606215Y-36510972D01*
X144674736Y-36454738D01*
X144688828Y-36437567D01*
X145193485Y-35932910D01*
X145195000Y-36388750D01*
X145301250Y-36495000D01*
X146845000Y-36495000D01*
X146845000Y-35451250D01*
X146895000Y-35451250D01*
X146895000Y-36495000D01*
X148438750Y-36495000D01*
X148545000Y-36388750D01*
X148547056Y-35770000D01*
X148538850Y-35686686D01*
X148514548Y-35606573D01*
X148475084Y-35532740D01*
X148421974Y-35468026D01*
X148357260Y-35414916D01*
X148283427Y-35375452D01*
X148203314Y-35351150D01*
X148120000Y-35342944D01*
X147001250Y-35345000D01*
X146895000Y-35451250D01*
X146845000Y-35451250D01*
X146738750Y-35345000D01*
X145783152Y-35343244D01*
X145929824Y-35196572D01*
X148120000Y-35196572D01*
X148183711Y-35190297D01*
X148244974Y-35171713D01*
X148301434Y-35141535D01*
X148350921Y-35100921D01*
X148391535Y-35051434D01*
X148421713Y-34994974D01*
X148440297Y-34933711D01*
X148446572Y-34870000D01*
X148446572Y-33370000D01*
X148440297Y-33306289D01*
X148421713Y-33245026D01*
X148391535Y-33188566D01*
X148350921Y-33139079D01*
X148301434Y-33098465D01*
X148244974Y-33068287D01*
X148183711Y-33049703D01*
X148120000Y-33043428D01*
X145620000Y-33043428D01*
X145556289Y-33049703D01*
X145495026Y-33068287D01*
X145438566Y-33098465D01*
X145389079Y-33139079D01*
X145348465Y-33188566D01*
X145318287Y-33245026D01*
X145299703Y-33306289D01*
X145293428Y-33370000D01*
X145293428Y-34560176D01*
X144568677Y-35284927D01*
X144518750Y-35235000D01*
X144399999Y-35235000D01*
X144437260Y-35215084D01*
X144473917Y-35185000D01*
X144518750Y-35185000D01*
X144625000Y-35078750D01*
X144627056Y-35060000D01*
X144618850Y-34976686D01*
X144613788Y-34960000D01*
X144618850Y-34943314D01*
X144627056Y-34860000D01*
X144625000Y-34841250D01*
X144518750Y-34735000D01*
X144473917Y-34735000D01*
X144443455Y-34710000D01*
X144473917Y-34685000D01*
X144518750Y-34685000D01*
X144625000Y-34578750D01*
X144627056Y-34560000D01*
X144618850Y-34476686D01*
X144613788Y-34460000D01*
X144618850Y-34443314D01*
X144627056Y-34360000D01*
X144625000Y-34341250D01*
X144518750Y-34235000D01*
X144473917Y-34235000D01*
X144443455Y-34210000D01*
X144473917Y-34185000D01*
X144518750Y-34185000D01*
X144625000Y-34078750D01*
X144627056Y-34060000D01*
X144618850Y-33976686D01*
X144613788Y-33960000D01*
X144618850Y-33943314D01*
X144627056Y-33860000D01*
X144625000Y-33841250D01*
X144518750Y-33735000D01*
X144473917Y-33735000D01*
X144443455Y-33710000D01*
X144473917Y-33685000D01*
X144518750Y-33685000D01*
X144625000Y-33578750D01*
X144627056Y-33560000D01*
X144618850Y-33476686D01*
X144613788Y-33460000D01*
X144618850Y-33443314D01*
X144627056Y-33360000D01*
X144625000Y-33341250D01*
X144518750Y-33235000D01*
X144473917Y-33235000D01*
X144437260Y-33204916D01*
X144399999Y-33185000D01*
X144518750Y-33185000D01*
X144625000Y-33078750D01*
X144627056Y-33060000D01*
X144618850Y-32976686D01*
X144594548Y-32896573D01*
X144555084Y-32822740D01*
X144501974Y-32758026D01*
X144437260Y-32704916D01*
X144363427Y-32665452D01*
X144283314Y-32641150D01*
X144200000Y-32632944D01*
X144031250Y-32635000D01*
X143925000Y-32741250D01*
X143925000Y-33185000D01*
X143981250Y-33185000D01*
X143931250Y-33235000D01*
X143925000Y-33235000D01*
X143925000Y-33685000D01*
X143931250Y-33685000D01*
X143956250Y-33710000D01*
X143931250Y-33735000D01*
X143925000Y-33735000D01*
X143925000Y-34185000D01*
X143931250Y-34185000D01*
X143956250Y-34210000D01*
X143931250Y-34235000D01*
X143925000Y-34235000D01*
X143925000Y-34685000D01*
X143931250Y-34685000D01*
X143956250Y-34710000D01*
X143931250Y-34735000D01*
X143925000Y-34735000D01*
X143925000Y-35185000D01*
X143931250Y-35185000D01*
X143981250Y-35235000D01*
X143925000Y-35235000D01*
X143925000Y-35255000D01*
X143875000Y-35255000D01*
X143875000Y-35235000D01*
X143855000Y-35235000D01*
X143855000Y-35198750D01*
X143868750Y-35185000D01*
X143875000Y-35185000D01*
X143875000Y-34735000D01*
X143868750Y-34735000D01*
X143843750Y-34710000D01*
X143868750Y-34685000D01*
X143875000Y-34685000D01*
X143875000Y-34235000D01*
X143868750Y-34235000D01*
X143843750Y-34210000D01*
X143868750Y-34185000D01*
X143875000Y-34185000D01*
X143875000Y-33735000D01*
X143868750Y-33735000D01*
X143843750Y-33710000D01*
X143868750Y-33685000D01*
X143875000Y-33685000D01*
X143875000Y-33235000D01*
X143868750Y-33235000D01*
X143855000Y-33221250D01*
X143855000Y-33185000D01*
X143875000Y-33185000D01*
X143875000Y-32741250D01*
X143768750Y-32635000D01*
X143600000Y-32632944D01*
X143576572Y-32635252D01*
X143576572Y-32610000D01*
X143570297Y-32546289D01*
X143551713Y-32485026D01*
X143550000Y-32481821D01*
X143550000Y-32020755D01*
X143576686Y-32028850D01*
X143660000Y-32037056D01*
X143798750Y-32035000D01*
X143905000Y-31928750D01*
X143905000Y-31335000D01*
X143885000Y-31335000D01*
X143885000Y-31285000D01*
X143905000Y-31285000D01*
X143905000Y-31265000D01*
X143955000Y-31265000D01*
X143955000Y-31285000D01*
X143975000Y-31285000D01*
X143975000Y-31335000D01*
X143955000Y-31335000D01*
X143955000Y-31928750D01*
X144061250Y-32035000D01*
X144200000Y-32037056D01*
X144283314Y-32028850D01*
X144363427Y-32004548D01*
X144437260Y-31965084D01*
X144501974Y-31911974D01*
X144555084Y-31847260D01*
X144594548Y-31773427D01*
X144618850Y-31693314D01*
X144627056Y-31610000D01*
X144625676Y-31496714D01*
X145034718Y-31905756D01*
X145048028Y-31921974D01*
X145112742Y-31975084D01*
X145186575Y-32014548D01*
X145266688Y-32038850D01*
X145293428Y-32041484D01*
X145293428Y-32370000D01*
X145299703Y-32433711D01*
X145318287Y-32494974D01*
X145348465Y-32551434D01*
X145389079Y-32600921D01*
X145438566Y-32641535D01*
X145495026Y-32671713D01*
X145556289Y-32690297D01*
X145620000Y-32696572D01*
X148120000Y-32696572D01*
X148183711Y-32690297D01*
X148244974Y-32671713D01*
X148301434Y-32641535D01*
X148350921Y-32600921D01*
X148391535Y-32551434D01*
X148421713Y-32494974D01*
X148440297Y-32433711D01*
X148446572Y-32370000D01*
X148446572Y-30870000D01*
X148440297Y-30806289D01*
X148421713Y-30745026D01*
X148391535Y-30688566D01*
X148350921Y-30639079D01*
X148301434Y-30598465D01*
X148244974Y-30568287D01*
X148183711Y-30549703D01*
X148120000Y-30543428D01*
X145620000Y-30543428D01*
X145556289Y-30549703D01*
X145495026Y-30568287D01*
X145438566Y-30598465D01*
X145389079Y-30639079D01*
X145348465Y-30688566D01*
X145318287Y-30745026D01*
X145299703Y-30806289D01*
X145293428Y-30870000D01*
X145293428Y-30962386D01*
X144564999Y-30233957D01*
X144564999Y-29800826D01*
X144628525Y-29827139D01*
X144768594Y-29855000D01*
X144911406Y-29855000D01*
X145051475Y-29827139D01*
X145183416Y-29772487D01*
X145293428Y-29698979D01*
X145293428Y-29870000D01*
X145299703Y-29933711D01*
X145318287Y-29994974D01*
X145348465Y-30051434D01*
X145389079Y-30100921D01*
X145438566Y-30141535D01*
X145495026Y-30171713D01*
X145556289Y-30190297D01*
X145620000Y-30196572D01*
X148120000Y-30196572D01*
X148183711Y-30190297D01*
X148244974Y-30171713D01*
X148301434Y-30141535D01*
X148350921Y-30100921D01*
X148391535Y-30051434D01*
X148421713Y-29994974D01*
X148440297Y-29933711D01*
X148446572Y-29870000D01*
X148446572Y-28370000D01*
X148440297Y-28306289D01*
X148421713Y-28245026D01*
X148391535Y-28188566D01*
X148350921Y-28139079D01*
X148301434Y-28098465D01*
X148244974Y-28068287D01*
X148183711Y-28049703D01*
X148120000Y-28043428D01*
X145620000Y-28043428D01*
X145556289Y-28049703D01*
X145495026Y-28068287D01*
X145438566Y-28098465D01*
X145389079Y-28139079D01*
X145348465Y-28188566D01*
X145318287Y-28245026D01*
X145299703Y-28306289D01*
X145293428Y-28370000D01*
X145293428Y-28561021D01*
X145183416Y-28487513D01*
X145051475Y-28432861D01*
X144911406Y-28405000D01*
X144768594Y-28405000D01*
X144628525Y-28432861D01*
X144552122Y-28464508D01*
X144534547Y-28406572D01*
X144495083Y-28332739D01*
X144441973Y-28268025D01*
X144425762Y-28254721D01*
X142840283Y-26669243D01*
X142826974Y-26653026D01*
X142762260Y-26599916D01*
X142688427Y-26560452D01*
X142649337Y-26548594D01*
X144185000Y-26548594D01*
X144185000Y-26691406D01*
X144212861Y-26831475D01*
X144267513Y-26963416D01*
X144346856Y-27082161D01*
X144447839Y-27183144D01*
X144566584Y-27262487D01*
X144698525Y-27317139D01*
X144838594Y-27345000D01*
X144981406Y-27345000D01*
X145121475Y-27317139D01*
X145253416Y-27262487D01*
X145293428Y-27235752D01*
X145293428Y-27370000D01*
X145299703Y-27433711D01*
X145318287Y-27494974D01*
X145348465Y-27551434D01*
X145389079Y-27600921D01*
X145438566Y-27641535D01*
X145495026Y-27671713D01*
X145556289Y-27690297D01*
X145620000Y-27696572D01*
X148120000Y-27696572D01*
X148183711Y-27690297D01*
X148244974Y-27671713D01*
X148301434Y-27641535D01*
X148350921Y-27600921D01*
X148391535Y-27551434D01*
X148421713Y-27494974D01*
X148440297Y-27433711D01*
X148446572Y-27370000D01*
X148446572Y-25870000D01*
X148440297Y-25806289D01*
X148421713Y-25745026D01*
X148391535Y-25688566D01*
X148350921Y-25639079D01*
X148301434Y-25598465D01*
X148244974Y-25568287D01*
X148183711Y-25549703D01*
X148120000Y-25543428D01*
X145620000Y-25543428D01*
X145556289Y-25549703D01*
X145495026Y-25568287D01*
X145438566Y-25598465D01*
X145389079Y-25639079D01*
X145348465Y-25688566D01*
X145318287Y-25745026D01*
X145299703Y-25806289D01*
X145293428Y-25870000D01*
X145293428Y-26004248D01*
X145253416Y-25977513D01*
X145121475Y-25922861D01*
X144981406Y-25895000D01*
X144838594Y-25895000D01*
X144698525Y-25922861D01*
X144566584Y-25977513D01*
X144447839Y-26056856D01*
X144346856Y-26157839D01*
X144267513Y-26276584D01*
X144212861Y-26408525D01*
X144185000Y-26548594D01*
X142649337Y-26548594D01*
X142608314Y-26536150D01*
X142545874Y-26530000D01*
X142545867Y-26530000D01*
X142525000Y-26527945D01*
X142504133Y-26530000D01*
X141941006Y-26530000D01*
X141967319Y-26466475D01*
X141995180Y-26326406D01*
X141995180Y-26183594D01*
X141967319Y-26043525D01*
X141912667Y-25911584D01*
X141833324Y-25792839D01*
X141732341Y-25691856D01*
X141613596Y-25612513D01*
X141481655Y-25557861D01*
X141341586Y-25530000D01*
X141198774Y-25530000D01*
X141058705Y-25557861D01*
X140961572Y-25598095D01*
X140961572Y-25535000D01*
X140955297Y-25471289D01*
X140936713Y-25410026D01*
X140936699Y-25410000D01*
X140936713Y-25409974D01*
X140955297Y-25348711D01*
X140961572Y-25285000D01*
X140961572Y-25135000D01*
X140955297Y-25071289D01*
X140936713Y-25010026D01*
X140936699Y-25010000D01*
X140936713Y-25009974D01*
X140955297Y-24948711D01*
X140961572Y-24885000D01*
X140961572Y-24757142D01*
X140982972Y-24732572D01*
X141024585Y-24659929D01*
X141051226Y-24580564D01*
X141060000Y-24516250D01*
X140953750Y-24410000D01*
X141060000Y-24303750D01*
X141051226Y-24239436D01*
X141024585Y-24160071D01*
X140982972Y-24087428D01*
X140927987Y-24024299D01*
X140861743Y-23973110D01*
X140786785Y-23935828D01*
X140705994Y-23913886D01*
X140622474Y-23908128D01*
X140446250Y-23910000D01*
X140340000Y-24016250D01*
X140340000Y-24408428D01*
X140290000Y-24408428D01*
X140290000Y-24016250D01*
X140183750Y-23910000D01*
X140171572Y-23909871D01*
X140171572Y-23545000D01*
X140165297Y-23481289D01*
X140146713Y-23420026D01*
X140116535Y-23363566D01*
X140075921Y-23314079D01*
X140026434Y-23273465D01*
X139969974Y-23243287D01*
X139908711Y-23224703D01*
X139845000Y-23218428D01*
X139717142Y-23218428D01*
X139692572Y-23197028D01*
X139619929Y-23155415D01*
X139540564Y-23128774D01*
X139476250Y-23120000D01*
X139395002Y-23201248D01*
X139395002Y-23120000D01*
X139381038Y-23120000D01*
X139501029Y-23000010D01*
X146098970Y-23000010D01*
X146142388Y-23043428D01*
X145620000Y-23043428D01*
X145556289Y-23049703D01*
X145495026Y-23068287D01*
X145438566Y-23098465D01*
X145389079Y-23139079D01*
X145348465Y-23188566D01*
X145318287Y-23245026D01*
X145299703Y-23306289D01*
X145293428Y-23370000D01*
X145293428Y-24870000D01*
X145299703Y-24933711D01*
X145318287Y-24994974D01*
X145348465Y-25051434D01*
X145389079Y-25100921D01*
X145438566Y-25141535D01*
X145495026Y-25171713D01*
X145556289Y-25190297D01*
X145620000Y-25196572D01*
X148120000Y-25196572D01*
X148183711Y-25190297D01*
X148244974Y-25171713D01*
X148301434Y-25141535D01*
X148350921Y-25100921D01*
X148391535Y-25051434D01*
X148421713Y-24994974D01*
X148440297Y-24933711D01*
X148446572Y-24870000D01*
X148446572Y-23370000D01*
X148440297Y-23306289D01*
X148421713Y-23245026D01*
X148391535Y-23188566D01*
X148350921Y-23139079D01*
X148301434Y-23098465D01*
X148244974Y-23068287D01*
X148183711Y-23049703D01*
X148120000Y-23043428D01*
X147275728Y-23043428D01*
X147264548Y-23006573D01*
X147225084Y-22932740D01*
X147171974Y-22868026D01*
X147155762Y-22854721D01*
X146651040Y-22350000D01*
X148650000Y-22350000D01*
X148650001Y-37650000D01*
G37*
X148650001Y-37650000D02*
X148310645Y-37650000D01*
X148357260Y-37625084D01*
X148421974Y-37571974D01*
X148475084Y-37507260D01*
X148514548Y-37433427D01*
X148538850Y-37353314D01*
X148547056Y-37270000D01*
X148545000Y-36651250D01*
X148438750Y-36545000D01*
X146895000Y-36545000D01*
X146895000Y-36565000D01*
X146845000Y-36565000D01*
X146845000Y-36545000D01*
X145301250Y-36545000D01*
X145195000Y-36651250D01*
X145192944Y-37270000D01*
X145201150Y-37353314D01*
X145225452Y-37433427D01*
X145264916Y-37507260D01*
X145318026Y-37571974D01*
X145382740Y-37625084D01*
X145429355Y-37650000D01*
X129600000Y-37650000D01*
X129600000Y-35343454D01*
X129648027Y-35401974D01*
X129712741Y-35455084D01*
X129786574Y-35494548D01*
X129866687Y-35518850D01*
X129950001Y-35527056D01*
X131068751Y-35525000D01*
X131175001Y-35418750D01*
X131175001Y-34375000D01*
X131225001Y-34375000D01*
X131225001Y-35418750D01*
X131331251Y-35525000D01*
X132450001Y-35527056D01*
X132533315Y-35518850D01*
X132613428Y-35494548D01*
X132687261Y-35455084D01*
X132751975Y-35401974D01*
X132805085Y-35337260D01*
X132844549Y-35263427D01*
X132868851Y-35183314D01*
X132877057Y-35100000D01*
X132876626Y-34970000D01*
X134977944Y-34970000D01*
X134986150Y-35053314D01*
X135010452Y-35133427D01*
X135049916Y-35207260D01*
X135103026Y-35271974D01*
X135167740Y-35325084D01*
X135241573Y-35364548D01*
X135299928Y-35382250D01*
X135280026Y-35388287D01*
X135223566Y-35418465D01*
X135174079Y-35459079D01*
X135133465Y-35508566D01*
X135103287Y-35565026D01*
X135084703Y-35626289D01*
X135078428Y-35690000D01*
X135078428Y-36220000D01*
X135084703Y-36283711D01*
X135103287Y-36344974D01*
X135133465Y-36401434D01*
X135174079Y-36450921D01*
X135223566Y-36491535D01*
X135280026Y-36521713D01*
X135341289Y-36540297D01*
X135405000Y-36546572D01*
X136715000Y-36546572D01*
X136778711Y-36540297D01*
X136839974Y-36521713D01*
X136896434Y-36491535D01*
X136945921Y-36450921D01*
X136986535Y-36401434D01*
X137016713Y-36344974D01*
X137035297Y-36283711D01*
X137041572Y-36220000D01*
X137041572Y-35690000D01*
X137035297Y-35626289D01*
X137016713Y-35565026D01*
X136986535Y-35508566D01*
X136945921Y-35459079D01*
X136896434Y-35418465D01*
X136839974Y-35388287D01*
X136820072Y-35382250D01*
X136878427Y-35364548D01*
X136952260Y-35325084D01*
X137016974Y-35271974D01*
X137070084Y-35207260D01*
X137109548Y-35133427D01*
X137133850Y-35053314D01*
X137142056Y-34970000D01*
X137140000Y-34836250D01*
X137033750Y-34730000D01*
X136085000Y-34730000D01*
X136085000Y-34750000D01*
X136035000Y-34750000D01*
X136035000Y-34730000D01*
X135086250Y-34730000D01*
X134980000Y-34836250D01*
X134977944Y-34970000D01*
X132876626Y-34970000D01*
X132875001Y-34481250D01*
X132768751Y-34375000D01*
X131225001Y-34375000D01*
X131175001Y-34375000D01*
X131155001Y-34375000D01*
X131155001Y-34325000D01*
X131175001Y-34325000D01*
X131175001Y-33281250D01*
X131225001Y-33281250D01*
X131225001Y-34325000D01*
X132768751Y-34325000D01*
X132875001Y-34218750D01*
X132876658Y-33720000D01*
X134977944Y-33720000D01*
X134986150Y-33803314D01*
X135010452Y-33883427D01*
X135049916Y-33957260D01*
X135103026Y-34021974D01*
X135167740Y-34075084D01*
X135176937Y-34080000D01*
X135167740Y-34084916D01*
X135103026Y-34138026D01*
X135049916Y-34202740D01*
X135010452Y-34276573D01*
X134986150Y-34356686D01*
X134977944Y-34440000D01*
X134980000Y-34573750D01*
X135086250Y-34680000D01*
X136035000Y-34680000D01*
X136035000Y-34121250D01*
X135993750Y-34080000D01*
X136035000Y-34038750D01*
X136035000Y-33480000D01*
X136085000Y-33480000D01*
X136085000Y-34038750D01*
X136126250Y-34080000D01*
X136085000Y-34121250D01*
X136085000Y-34680000D01*
X137033750Y-34680000D01*
X137140000Y-34573750D01*
X137142056Y-34440000D01*
X137133850Y-34356686D01*
X137109548Y-34276573D01*
X137070084Y-34202740D01*
X137016974Y-34138026D01*
X136952260Y-34084916D01*
X136943063Y-34080000D01*
X136952260Y-34075084D01*
X137016974Y-34021974D01*
X137070084Y-33957260D01*
X137109548Y-33883427D01*
X137133850Y-33803314D01*
X137142056Y-33720000D01*
X137140000Y-33586250D01*
X137033750Y-33480000D01*
X136085000Y-33480000D01*
X136035000Y-33480000D01*
X135086250Y-33480000D01*
X134980000Y-33586250D01*
X134977944Y-33720000D01*
X132876658Y-33720000D01*
X132877057Y-33600000D01*
X132868851Y-33516686D01*
X132844549Y-33436573D01*
X132805085Y-33362740D01*
X132751975Y-33298026D01*
X132687261Y-33244916D01*
X132613428Y-33205452D01*
X132533315Y-33181150D01*
X132450001Y-33172944D01*
X131331251Y-33175000D01*
X131225001Y-33281250D01*
X131175001Y-33281250D01*
X131068751Y-33175000D01*
X129950001Y-33172944D01*
X129866687Y-33181150D01*
X129786574Y-33205452D01*
X129712741Y-33244916D01*
X129648027Y-33298026D01*
X129600000Y-33356546D01*
X129600000Y-32125000D01*
X129623429Y-32125000D01*
X129623429Y-32600000D01*
X129629704Y-32663711D01*
X129648288Y-32724974D01*
X129678466Y-32781434D01*
X129719080Y-32830921D01*
X129768567Y-32871535D01*
X129825027Y-32901713D01*
X129886290Y-32920297D01*
X129950001Y-32926572D01*
X132450001Y-32926572D01*
X132513712Y-32920297D01*
X132574975Y-32901713D01*
X132631435Y-32871535D01*
X132680922Y-32830921D01*
X132721536Y-32781434D01*
X132751714Y-32724974D01*
X132770298Y-32663711D01*
X132776573Y-32600000D01*
X132776573Y-32422321D01*
X132881584Y-32492487D01*
X133013525Y-32547139D01*
X133153594Y-32575000D01*
X133296406Y-32575000D01*
X133436475Y-32547139D01*
X133568416Y-32492487D01*
X133687161Y-32413144D01*
X133788144Y-32312161D01*
X133867487Y-32193416D01*
X133895826Y-32125000D01*
X135078428Y-32125000D01*
X135078428Y-32470000D01*
X135084703Y-32533711D01*
X135103287Y-32594974D01*
X135133465Y-32651434D01*
X135174079Y-32700921D01*
X135223566Y-32741535D01*
X135280026Y-32771713D01*
X135299928Y-32777750D01*
X135241573Y-32795452D01*
X135167740Y-32834916D01*
X135103026Y-32888026D01*
X135049916Y-32952740D01*
X135010452Y-33026573D01*
X134986150Y-33106686D01*
X134977944Y-33190000D01*
X134980000Y-33323750D01*
X135086250Y-33430000D01*
X136035000Y-33430000D01*
X136035000Y-33410000D01*
X136085000Y-33410000D01*
X136085000Y-33430000D01*
X137033750Y-33430000D01*
X137140000Y-33323750D01*
X137142056Y-33190000D01*
X137133850Y-33106686D01*
X137109548Y-33026573D01*
X137070084Y-32952740D01*
X137016974Y-32888026D01*
X136952260Y-32834916D01*
X136878427Y-32795452D01*
X136820072Y-32777750D01*
X136839974Y-32771713D01*
X136896434Y-32741535D01*
X136945921Y-32700921D01*
X136986535Y-32651434D01*
X137016713Y-32594974D01*
X137035297Y-32533711D01*
X137041572Y-32470000D01*
X137041572Y-32125000D01*
X137478428Y-32125000D01*
X137478428Y-32470000D01*
X137484703Y-32533711D01*
X137503287Y-32594974D01*
X137533465Y-32651434D01*
X137574079Y-32700921D01*
X137623566Y-32741535D01*
X137680026Y-32771713D01*
X137741289Y-32790297D01*
X137805000Y-32796572D01*
X139115000Y-32796572D01*
X139178711Y-32790297D01*
X139239974Y-32771713D01*
X139296434Y-32741535D01*
X139345921Y-32700921D01*
X139383608Y-32655000D01*
X139411607Y-32655000D01*
X139623836Y-32867230D01*
X139526584Y-32907513D01*
X139407839Y-32986856D01*
X139386352Y-33008343D01*
X139345921Y-32959079D01*
X139296434Y-32918465D01*
X139239974Y-32888287D01*
X139178711Y-32869703D01*
X139115000Y-32863428D01*
X137805000Y-32863428D01*
X137741289Y-32869703D01*
X137680026Y-32888287D01*
X137623566Y-32918465D01*
X137574079Y-32959079D01*
X137533465Y-33008566D01*
X137503287Y-33065026D01*
X137484703Y-33126289D01*
X137478428Y-33190000D01*
X137478428Y-33720000D01*
X137484703Y-33783711D01*
X137503287Y-33844974D01*
X137533465Y-33901434D01*
X137574079Y-33950921D01*
X137623566Y-33991535D01*
X137680026Y-34021713D01*
X137741289Y-34040297D01*
X137805000Y-34046572D01*
X138805177Y-34046572D01*
X138872033Y-34113428D01*
X137805000Y-34113428D01*
X137741289Y-34119703D01*
X137680026Y-34138287D01*
X137623566Y-34168465D01*
X137574079Y-34209079D01*
X137533465Y-34258566D01*
X137503287Y-34315026D01*
X137484703Y-34376289D01*
X137478428Y-34440000D01*
X137478428Y-34970000D01*
X137484703Y-35033711D01*
X137503287Y-35094974D01*
X137533465Y-35151434D01*
X137574079Y-35200921D01*
X137623566Y-35241535D01*
X137680026Y-35271713D01*
X137741289Y-35290297D01*
X137805000Y-35296572D01*
X139115000Y-35296572D01*
X139178711Y-35290297D01*
X139239974Y-35271713D01*
X139296434Y-35241535D01*
X139345921Y-35200921D01*
X139379505Y-35160000D01*
X139772908Y-35160000D01*
X139758525Y-35162861D01*
X139626584Y-35217513D01*
X139507839Y-35296856D01*
X139406856Y-35397839D01*
X139356954Y-35472522D01*
X139345921Y-35459079D01*
X139296434Y-35418465D01*
X139239974Y-35388287D01*
X139178711Y-35369703D01*
X139115000Y-35363428D01*
X137805000Y-35363428D01*
X137741289Y-35369703D01*
X137680026Y-35388287D01*
X137623566Y-35418465D01*
X137574079Y-35459079D01*
X137533465Y-35508566D01*
X137503287Y-35565026D01*
X137484703Y-35626289D01*
X137478428Y-35690000D01*
X137478428Y-36220000D01*
X137484703Y-36283711D01*
X137503287Y-36344974D01*
X137533465Y-36401434D01*
X137574079Y-36450921D01*
X137623566Y-36491535D01*
X137680026Y-36521713D01*
X137741289Y-36540297D01*
X137781209Y-36544229D01*
X137762861Y-36588525D01*
X137735000Y-36728594D01*
X137735000Y-36871406D01*
X137762861Y-37011475D01*
X137817513Y-37143416D01*
X137896856Y-37262161D01*
X137997839Y-37363144D01*
X138116584Y-37442487D01*
X138248525Y-37497139D01*
X138388594Y-37525000D01*
X138531406Y-37525000D01*
X138671475Y-37497139D01*
X138803416Y-37442487D01*
X138922161Y-37363144D01*
X139023144Y-37262161D01*
X139102487Y-37143416D01*
X139157139Y-37011475D01*
X139185000Y-36871406D01*
X139185000Y-36728594D01*
X139157139Y-36588525D01*
X139138791Y-36544229D01*
X139178711Y-36540297D01*
X139239974Y-36521713D01*
X139296434Y-36491535D01*
X139345921Y-36450921D01*
X139386535Y-36401434D01*
X139416713Y-36344974D01*
X139419728Y-36335033D01*
X139507839Y-36423144D01*
X139626584Y-36502487D01*
X139758525Y-36557139D01*
X139898594Y-36585000D01*
X140041406Y-36585000D01*
X140181475Y-36557139D01*
X140313416Y-36502487D01*
X140432161Y-36423144D01*
X140533144Y-36322161D01*
X140575000Y-36259519D01*
X140575000Y-36401406D01*
X140602861Y-36541475D01*
X140657513Y-36673416D01*
X140736856Y-36792161D01*
X140837839Y-36893144D01*
X140956584Y-36972487D01*
X141088525Y-37027139D01*
X141228594Y-37055000D01*
X141371406Y-37055000D01*
X141511475Y-37027139D01*
X141643416Y-36972487D01*
X141762161Y-36893144D01*
X141863144Y-36792161D01*
X141942487Y-36673416D01*
X141994187Y-36548603D01*
X142001960Y-36552758D01*
X142086786Y-36578490D01*
X142152896Y-36585001D01*
X142152908Y-36585001D01*
X142175000Y-36587177D01*
X142197092Y-36585001D01*
X144332905Y-36585001D01*
X144354999Y-36587177D01*
X144377093Y-36585001D01*
X144377104Y-36585001D01*
X144443214Y-36578490D01*
X144528040Y-36552758D01*
X144606215Y-36510972D01*
X144674736Y-36454738D01*
X144688828Y-36437567D01*
X145193485Y-35932910D01*
X145195000Y-36388750D01*
X145301250Y-36495000D01*
X146845000Y-36495000D01*
X146845000Y-35451250D01*
X146895000Y-35451250D01*
X146895000Y-36495000D01*
X148438750Y-36495000D01*
X148545000Y-36388750D01*
X148547056Y-35770000D01*
X148538850Y-35686686D01*
X148514548Y-35606573D01*
X148475084Y-35532740D01*
X148421974Y-35468026D01*
X148357260Y-35414916D01*
X148283427Y-35375452D01*
X148203314Y-35351150D01*
X148120000Y-35342944D01*
X147001250Y-35345000D01*
X146895000Y-35451250D01*
X146845000Y-35451250D01*
X146738750Y-35345000D01*
X145783152Y-35343244D01*
X145929824Y-35196572D01*
X148120000Y-35196572D01*
X148183711Y-35190297D01*
X148244974Y-35171713D01*
X148301434Y-35141535D01*
X148350921Y-35100921D01*
X148391535Y-35051434D01*
X148421713Y-34994974D01*
X148440297Y-34933711D01*
X148446572Y-34870000D01*
X148446572Y-33370000D01*
X148440297Y-33306289D01*
X148421713Y-33245026D01*
X148391535Y-33188566D01*
X148350921Y-33139079D01*
X148301434Y-33098465D01*
X148244974Y-33068287D01*
X148183711Y-33049703D01*
X148120000Y-33043428D01*
X145620000Y-33043428D01*
X145556289Y-33049703D01*
X145495026Y-33068287D01*
X145438566Y-33098465D01*
X145389079Y-33139079D01*
X145348465Y-33188566D01*
X145318287Y-33245026D01*
X145299703Y-33306289D01*
X145293428Y-33370000D01*
X145293428Y-34560176D01*
X144568677Y-35284927D01*
X144518750Y-35235000D01*
X144399999Y-35235000D01*
X144437260Y-35215084D01*
X144473917Y-35185000D01*
X144518750Y-35185000D01*
X144625000Y-35078750D01*
X144627056Y-35060000D01*
X144618850Y-34976686D01*
X144613788Y-34960000D01*
X144618850Y-34943314D01*
X144627056Y-34860000D01*
X144625000Y-34841250D01*
X144518750Y-34735000D01*
X144473917Y-34735000D01*
X144443455Y-34710000D01*
X144473917Y-34685000D01*
X144518750Y-34685000D01*
X144625000Y-34578750D01*
X144627056Y-34560000D01*
X144618850Y-34476686D01*
X144613788Y-34460000D01*
X144618850Y-34443314D01*
X144627056Y-34360000D01*
X144625000Y-34341250D01*
X144518750Y-34235000D01*
X144473917Y-34235000D01*
X144443455Y-34210000D01*
X144473917Y-34185000D01*
X144518750Y-34185000D01*
X144625000Y-34078750D01*
X144627056Y-34060000D01*
X144618850Y-33976686D01*
X144613788Y-33960000D01*
X144618850Y-33943314D01*
X144627056Y-33860000D01*
X144625000Y-33841250D01*
X144518750Y-33735000D01*
X144473917Y-33735000D01*
X144443455Y-33710000D01*
X144473917Y-33685000D01*
X144518750Y-33685000D01*
X144625000Y-33578750D01*
X144627056Y-33560000D01*
X144618850Y-33476686D01*
X144613788Y-33460000D01*
X144618850Y-33443314D01*
X144627056Y-33360000D01*
X144625000Y-33341250D01*
X144518750Y-33235000D01*
X144473917Y-33235000D01*
X144437260Y-33204916D01*
X144399999Y-33185000D01*
X144518750Y-33185000D01*
X144625000Y-33078750D01*
X144627056Y-33060000D01*
X144618850Y-32976686D01*
X144594548Y-32896573D01*
X144555084Y-32822740D01*
X144501974Y-32758026D01*
X144437260Y-32704916D01*
X144363427Y-32665452D01*
X144283314Y-32641150D01*
X144200000Y-32632944D01*
X144031250Y-32635000D01*
X143925000Y-32741250D01*
X143925000Y-33185000D01*
X143981250Y-33185000D01*
X143931250Y-33235000D01*
X143925000Y-33235000D01*
X143925000Y-33685000D01*
X143931250Y-33685000D01*
X143956250Y-33710000D01*
X143931250Y-33735000D01*
X143925000Y-33735000D01*
X143925000Y-34185000D01*
X143931250Y-34185000D01*
X143956250Y-34210000D01*
X143931250Y-34235000D01*
X143925000Y-34235000D01*
X143925000Y-34685000D01*
X143931250Y-34685000D01*
X143956250Y-34710000D01*
X143931250Y-34735000D01*
X143925000Y-34735000D01*
X143925000Y-35185000D01*
X143931250Y-35185000D01*
X143981250Y-35235000D01*
X143925000Y-35235000D01*
X143925000Y-35255000D01*
X143875000Y-35255000D01*
X143875000Y-35235000D01*
X143855000Y-35235000D01*
X143855000Y-35198750D01*
X143868750Y-35185000D01*
X143875000Y-35185000D01*
X143875000Y-34735000D01*
X143868750Y-34735000D01*
X143843750Y-34710000D01*
X143868750Y-34685000D01*
X143875000Y-34685000D01*
X143875000Y-34235000D01*
X143868750Y-34235000D01*
X143843750Y-34210000D01*
X143868750Y-34185000D01*
X143875000Y-34185000D01*
X143875000Y-33735000D01*
X143868750Y-33735000D01*
X143843750Y-33710000D01*
X143868750Y-33685000D01*
X143875000Y-33685000D01*
X143875000Y-33235000D01*
X143868750Y-33235000D01*
X143855000Y-33221250D01*
X143855000Y-33185000D01*
X143875000Y-33185000D01*
X143875000Y-32741250D01*
X143768750Y-32635000D01*
X143600000Y-32632944D01*
X143576572Y-32635252D01*
X143576572Y-32610000D01*
X143570297Y-32546289D01*
X143551713Y-32485026D01*
X143550000Y-32481821D01*
X143550000Y-32020755D01*
X143576686Y-32028850D01*
X143660000Y-32037056D01*
X143798750Y-32035000D01*
X143905000Y-31928750D01*
X143905000Y-31335000D01*
X143885000Y-31335000D01*
X143885000Y-31285000D01*
X143905000Y-31285000D01*
X143905000Y-31265000D01*
X143955000Y-31265000D01*
X143955000Y-31285000D01*
X143975000Y-31285000D01*
X143975000Y-31335000D01*
X143955000Y-31335000D01*
X143955000Y-31928750D01*
X144061250Y-32035000D01*
X144200000Y-32037056D01*
X144283314Y-32028850D01*
X144363427Y-32004548D01*
X144437260Y-31965084D01*
X144501974Y-31911974D01*
X144555084Y-31847260D01*
X144594548Y-31773427D01*
X144618850Y-31693314D01*
X144627056Y-31610000D01*
X144625676Y-31496714D01*
X145034718Y-31905756D01*
X145048028Y-31921974D01*
X145112742Y-31975084D01*
X145186575Y-32014548D01*
X145266688Y-32038850D01*
X145293428Y-32041484D01*
X145293428Y-32370000D01*
X145299703Y-32433711D01*
X145318287Y-32494974D01*
X145348465Y-32551434D01*
X145389079Y-32600921D01*
X145438566Y-32641535D01*
X145495026Y-32671713D01*
X145556289Y-32690297D01*
X145620000Y-32696572D01*
X148120000Y-32696572D01*
X148183711Y-32690297D01*
X148244974Y-32671713D01*
X148301434Y-32641535D01*
X148350921Y-32600921D01*
X148391535Y-32551434D01*
X148421713Y-32494974D01*
X148440297Y-32433711D01*
X148446572Y-32370000D01*
X148446572Y-30870000D01*
X148440297Y-30806289D01*
X148421713Y-30745026D01*
X148391535Y-30688566D01*
X148350921Y-30639079D01*
X148301434Y-30598465D01*
X148244974Y-30568287D01*
X148183711Y-30549703D01*
X148120000Y-30543428D01*
X145620000Y-30543428D01*
X145556289Y-30549703D01*
X145495026Y-30568287D01*
X145438566Y-30598465D01*
X145389079Y-30639079D01*
X145348465Y-30688566D01*
X145318287Y-30745026D01*
X145299703Y-30806289D01*
X145293428Y-30870000D01*
X145293428Y-30962386D01*
X144564999Y-30233957D01*
X144564999Y-29800826D01*
X144628525Y-29827139D01*
X144768594Y-29855000D01*
X144911406Y-29855000D01*
X145051475Y-29827139D01*
X145183416Y-29772487D01*
X145293428Y-29698979D01*
X145293428Y-29870000D01*
X145299703Y-29933711D01*
X145318287Y-29994974D01*
X145348465Y-30051434D01*
X145389079Y-30100921D01*
X145438566Y-30141535D01*
X145495026Y-30171713D01*
X145556289Y-30190297D01*
X145620000Y-30196572D01*
X148120000Y-30196572D01*
X148183711Y-30190297D01*
X148244974Y-30171713D01*
X148301434Y-30141535D01*
X148350921Y-30100921D01*
X148391535Y-30051434D01*
X148421713Y-29994974D01*
X148440297Y-29933711D01*
X148446572Y-29870000D01*
X148446572Y-28370000D01*
X148440297Y-28306289D01*
X148421713Y-28245026D01*
X148391535Y-28188566D01*
X148350921Y-28139079D01*
X148301434Y-28098465D01*
X148244974Y-28068287D01*
X148183711Y-28049703D01*
X148120000Y-28043428D01*
X145620000Y-28043428D01*
X145556289Y-28049703D01*
X145495026Y-28068287D01*
X145438566Y-28098465D01*
X145389079Y-28139079D01*
X145348465Y-28188566D01*
X145318287Y-28245026D01*
X145299703Y-28306289D01*
X145293428Y-28370000D01*
X145293428Y-28561021D01*
X145183416Y-28487513D01*
X145051475Y-28432861D01*
X144911406Y-28405000D01*
X144768594Y-28405000D01*
X144628525Y-28432861D01*
X144552122Y-28464508D01*
X144534547Y-28406572D01*
X144495083Y-28332739D01*
X144441973Y-28268025D01*
X144425762Y-28254721D01*
X142840283Y-26669243D01*
X142826974Y-26653026D01*
X142762260Y-26599916D01*
X142688427Y-26560452D01*
X142649337Y-26548594D01*
X144185000Y-26548594D01*
X144185000Y-26691406D01*
X144212861Y-26831475D01*
X144267513Y-26963416D01*
X144346856Y-27082161D01*
X144447839Y-27183144D01*
X144566584Y-27262487D01*
X144698525Y-27317139D01*
X144838594Y-27345000D01*
X144981406Y-27345000D01*
X145121475Y-27317139D01*
X145253416Y-27262487D01*
X145293428Y-27235752D01*
X145293428Y-27370000D01*
X145299703Y-27433711D01*
X145318287Y-27494974D01*
X145348465Y-27551434D01*
X145389079Y-27600921D01*
X145438566Y-27641535D01*
X145495026Y-27671713D01*
X145556289Y-27690297D01*
X145620000Y-27696572D01*
X148120000Y-27696572D01*
X148183711Y-27690297D01*
X148244974Y-27671713D01*
X148301434Y-27641535D01*
X148350921Y-27600921D01*
X148391535Y-27551434D01*
X148421713Y-27494974D01*
X148440297Y-27433711D01*
X148446572Y-27370000D01*
X148446572Y-25870000D01*
X148440297Y-25806289D01*
X148421713Y-25745026D01*
X148391535Y-25688566D01*
X148350921Y-25639079D01*
X148301434Y-25598465D01*
X148244974Y-25568287D01*
X148183711Y-25549703D01*
X148120000Y-25543428D01*
X145620000Y-25543428D01*
X145556289Y-25549703D01*
X145495026Y-25568287D01*
X145438566Y-25598465D01*
X145389079Y-25639079D01*
X145348465Y-25688566D01*
X145318287Y-25745026D01*
X145299703Y-25806289D01*
X145293428Y-25870000D01*
X145293428Y-26004248D01*
X145253416Y-25977513D01*
X145121475Y-25922861D01*
X144981406Y-25895000D01*
X144838594Y-25895000D01*
X144698525Y-25922861D01*
X144566584Y-25977513D01*
X144447839Y-26056856D01*
X144346856Y-26157839D01*
X144267513Y-26276584D01*
X144212861Y-26408525D01*
X144185000Y-26548594D01*
X142649337Y-26548594D01*
X142608314Y-26536150D01*
X142545874Y-26530000D01*
X142545867Y-26530000D01*
X142525000Y-26527945D01*
X142504133Y-26530000D01*
X141941006Y-26530000D01*
X141967319Y-26466475D01*
X141995180Y-26326406D01*
X141995180Y-26183594D01*
X141967319Y-26043525D01*
X141912667Y-25911584D01*
X141833324Y-25792839D01*
X141732341Y-25691856D01*
X141613596Y-25612513D01*
X141481655Y-25557861D01*
X141341586Y-25530000D01*
X141198774Y-25530000D01*
X141058705Y-25557861D01*
X140961572Y-25598095D01*
X140961572Y-25535000D01*
X140955297Y-25471289D01*
X140936713Y-25410026D01*
X140936699Y-25410000D01*
X140936713Y-25409974D01*
X140955297Y-25348711D01*
X140961572Y-25285000D01*
X140961572Y-25135000D01*
X140955297Y-25071289D01*
X140936713Y-25010026D01*
X140936699Y-25010000D01*
X140936713Y-25009974D01*
X140955297Y-24948711D01*
X140961572Y-24885000D01*
X140961572Y-24757142D01*
X140982972Y-24732572D01*
X141024585Y-24659929D01*
X141051226Y-24580564D01*
X141060000Y-24516250D01*
X140953750Y-24410000D01*
X141060000Y-24303750D01*
X141051226Y-24239436D01*
X141024585Y-24160071D01*
X140982972Y-24087428D01*
X140927987Y-24024299D01*
X140861743Y-23973110D01*
X140786785Y-23935828D01*
X140705994Y-23913886D01*
X140622474Y-23908128D01*
X140446250Y-23910000D01*
X140340000Y-24016250D01*
X140340000Y-24408428D01*
X140290000Y-24408428D01*
X140290000Y-24016250D01*
X140183750Y-23910000D01*
X140171572Y-23909871D01*
X140171572Y-23545000D01*
X140165297Y-23481289D01*
X140146713Y-23420026D01*
X140116535Y-23363566D01*
X140075921Y-23314079D01*
X140026434Y-23273465D01*
X139969974Y-23243287D01*
X139908711Y-23224703D01*
X139845000Y-23218428D01*
X139717142Y-23218428D01*
X139692572Y-23197028D01*
X139619929Y-23155415D01*
X139540564Y-23128774D01*
X139476250Y-23120000D01*
X139395002Y-23201248D01*
X139395002Y-23120000D01*
X139381038Y-23120000D01*
X139501029Y-23000010D01*
X146098970Y-23000010D01*
X146142388Y-23043428D01*
X145620000Y-23043428D01*
X145556289Y-23049703D01*
X145495026Y-23068287D01*
X145438566Y-23098465D01*
X145389079Y-23139079D01*
X145348465Y-23188566D01*
X145318287Y-23245026D01*
X145299703Y-23306289D01*
X145293428Y-23370000D01*
X145293428Y-24870000D01*
X145299703Y-24933711D01*
X145318287Y-24994974D01*
X145348465Y-25051434D01*
X145389079Y-25100921D01*
X145438566Y-25141535D01*
X145495026Y-25171713D01*
X145556289Y-25190297D01*
X145620000Y-25196572D01*
X148120000Y-25196572D01*
X148183711Y-25190297D01*
X148244974Y-25171713D01*
X148301434Y-25141535D01*
X148350921Y-25100921D01*
X148391535Y-25051434D01*
X148421713Y-24994974D01*
X148440297Y-24933711D01*
X148446572Y-24870000D01*
X148446572Y-23370000D01*
X148440297Y-23306289D01*
X148421713Y-23245026D01*
X148391535Y-23188566D01*
X148350921Y-23139079D01*
X148301434Y-23098465D01*
X148244974Y-23068287D01*
X148183711Y-23049703D01*
X148120000Y-23043428D01*
X147275728Y-23043428D01*
X147264548Y-23006573D01*
X147225084Y-22932740D01*
X147171974Y-22868026D01*
X147155762Y-22854721D01*
X146651040Y-22350000D01*
X148650000Y-22350000D01*
X148650001Y-37650000D01*
G36*
X142225000Y-31265000D02*
G01*
X142245000Y-31265000D01*
X142245000Y-31315000D01*
X142225000Y-31315000D01*
X142225000Y-31908750D01*
X142331250Y-32015000D01*
X142470000Y-32017056D01*
X142553314Y-32008850D01*
X142633427Y-31984548D01*
X142650000Y-31975689D01*
X142650001Y-32266249D01*
X142625000Y-32291250D01*
X142625000Y-32594039D01*
X142623428Y-32610000D01*
X142623428Y-33210000D01*
X142625000Y-33225961D01*
X142625000Y-33528750D01*
X142731250Y-33635000D01*
X142750000Y-33637056D01*
X142833314Y-33628850D01*
X142913427Y-33604548D01*
X142987260Y-33565084D01*
X143022002Y-33536572D01*
X143175252Y-33536572D01*
X143172944Y-33560000D01*
X143175000Y-33578750D01*
X143281250Y-33685000D01*
X143326083Y-33685000D01*
X143356545Y-33710000D01*
X143326083Y-33735000D01*
X143281250Y-33735000D01*
X143175000Y-33841250D01*
X143172944Y-33860000D01*
X143181150Y-33943314D01*
X143186212Y-33960000D01*
X143181150Y-33976686D01*
X143172944Y-34060000D01*
X143175000Y-34078750D01*
X143281250Y-34185000D01*
X143326083Y-34185000D01*
X143356545Y-34210000D01*
X143326083Y-34235000D01*
X143281250Y-34235000D01*
X143175000Y-34341250D01*
X143172944Y-34360000D01*
X143181150Y-34443314D01*
X143186212Y-34460000D01*
X143181150Y-34476686D01*
X143172944Y-34560000D01*
X143175000Y-34578750D01*
X143281250Y-34685000D01*
X143326083Y-34685000D01*
X143356545Y-34710000D01*
X143326083Y-34735000D01*
X143281250Y-34735000D01*
X143125000Y-34891250D01*
X143125000Y-35485000D01*
X143145000Y-35485000D01*
X143145000Y-35535000D01*
X143125000Y-35535000D01*
X143125000Y-35555000D01*
X143076572Y-35555000D01*
X143076572Y-35210000D01*
X143075000Y-35194039D01*
X143075000Y-34891250D01*
X142968750Y-34785000D01*
X142950000Y-34782944D01*
X142866686Y-34791150D01*
X142786573Y-34815452D01*
X142712740Y-34854916D01*
X142677998Y-34883428D01*
X142450000Y-34883428D01*
X142386289Y-34889703D01*
X142350000Y-34900711D01*
X142313711Y-34889703D01*
X142250000Y-34883428D01*
X141950000Y-34883428D01*
X141924012Y-34885988D01*
X141926572Y-34860000D01*
X141926572Y-34560000D01*
X141920297Y-34496289D01*
X141909289Y-34460000D01*
X141920297Y-34423711D01*
X141926572Y-34360000D01*
X141926572Y-34060000D01*
X141920297Y-33996289D01*
X141909289Y-33960000D01*
X141920297Y-33923711D01*
X141926572Y-33860000D01*
X141926572Y-33560000D01*
X141924012Y-33534012D01*
X141950000Y-33536572D01*
X142177998Y-33536572D01*
X142212740Y-33565084D01*
X142286573Y-33604548D01*
X142366686Y-33628850D01*
X142450000Y-33637056D01*
X142468750Y-33635000D01*
X142575000Y-33528750D01*
X142575000Y-33225961D01*
X142576572Y-33210000D01*
X142576572Y-32610000D01*
X142575000Y-32594039D01*
X142575000Y-32291250D01*
X142468750Y-32185000D01*
X142450000Y-32182944D01*
X142366686Y-32191150D01*
X142286573Y-32215452D01*
X142212740Y-32254916D01*
X142177998Y-32283428D01*
X141950000Y-32283428D01*
X141886289Y-32289703D01*
X141825026Y-32308287D01*
X141775695Y-32334655D01*
X141765000Y-32323960D01*
X141765000Y-32125000D01*
X142000000Y-32125000D01*
X142024386Y-32122598D01*
X142047835Y-32115485D01*
X142069446Y-32103934D01*
X142088388Y-32088388D01*
X142103934Y-32069446D01*
X142115485Y-32047835D01*
X142122598Y-32024386D01*
X142125000Y-32000000D01*
X142125000Y-31958750D01*
X142175000Y-31908750D01*
X142175000Y-31315000D01*
X142155000Y-31315000D01*
X142155000Y-31265000D01*
X142175000Y-31265000D01*
X142175000Y-31245000D01*
X142225000Y-31245000D01*
X142225000Y-31265000D01*
G37*
X142225000Y-31265000D02*
X142245000Y-31265000D01*
X142245000Y-31315000D01*
X142225000Y-31315000D01*
X142225000Y-31908750D01*
X142331250Y-32015000D01*
X142470000Y-32017056D01*
X142553314Y-32008850D01*
X142633427Y-31984548D01*
X142650000Y-31975689D01*
X142650001Y-32266249D01*
X142625000Y-32291250D01*
X142625000Y-32594039D01*
X142623428Y-32610000D01*
X142623428Y-33210000D01*
X142625000Y-33225961D01*
X142625000Y-33528750D01*
X142731250Y-33635000D01*
X142750000Y-33637056D01*
X142833314Y-33628850D01*
X142913427Y-33604548D01*
X142987260Y-33565084D01*
X143022002Y-33536572D01*
X143175252Y-33536572D01*
X143172944Y-33560000D01*
X143175000Y-33578750D01*
X143281250Y-33685000D01*
X143326083Y-33685000D01*
X143356545Y-33710000D01*
X143326083Y-33735000D01*
X143281250Y-33735000D01*
X143175000Y-33841250D01*
X143172944Y-33860000D01*
X143181150Y-33943314D01*
X143186212Y-33960000D01*
X143181150Y-33976686D01*
X143172944Y-34060000D01*
X143175000Y-34078750D01*
X143281250Y-34185000D01*
X143326083Y-34185000D01*
X143356545Y-34210000D01*
X143326083Y-34235000D01*
X143281250Y-34235000D01*
X143175000Y-34341250D01*
X143172944Y-34360000D01*
X143181150Y-34443314D01*
X143186212Y-34460000D01*
X143181150Y-34476686D01*
X143172944Y-34560000D01*
X143175000Y-34578750D01*
X143281250Y-34685000D01*
X143326083Y-34685000D01*
X143356545Y-34710000D01*
X143326083Y-34735000D01*
X143281250Y-34735000D01*
X143125000Y-34891250D01*
X143125000Y-35485000D01*
X143145000Y-35485000D01*
X143145000Y-35535000D01*
X143125000Y-35535000D01*
X143125000Y-35555000D01*
X143076572Y-35555000D01*
X143076572Y-35210000D01*
X143075000Y-35194039D01*
X143075000Y-34891250D01*
X142968750Y-34785000D01*
X142950000Y-34782944D01*
X142866686Y-34791150D01*
X142786573Y-34815452D01*
X142712740Y-34854916D01*
X142677998Y-34883428D01*
X142450000Y-34883428D01*
X142386289Y-34889703D01*
X142350000Y-34900711D01*
X142313711Y-34889703D01*
X142250000Y-34883428D01*
X141950000Y-34883428D01*
X141924012Y-34885988D01*
X141926572Y-34860000D01*
X141926572Y-34560000D01*
X141920297Y-34496289D01*
X141909289Y-34460000D01*
X141920297Y-34423711D01*
X141926572Y-34360000D01*
X141926572Y-34060000D01*
X141920297Y-33996289D01*
X141909289Y-33960000D01*
X141920297Y-33923711D01*
X141926572Y-33860000D01*
X141926572Y-33560000D01*
X141924012Y-33534012D01*
X141950000Y-33536572D01*
X142177998Y-33536572D01*
X142212740Y-33565084D01*
X142286573Y-33604548D01*
X142366686Y-33628850D01*
X142450000Y-33637056D01*
X142468750Y-33635000D01*
X142575000Y-33528750D01*
X142575000Y-33225961D01*
X142576572Y-33210000D01*
X142576572Y-32610000D01*
X142575000Y-32594039D01*
X142575000Y-32291250D01*
X142468750Y-32185000D01*
X142450000Y-32182944D01*
X142366686Y-32191150D01*
X142286573Y-32215452D01*
X142212740Y-32254916D01*
X142177998Y-32283428D01*
X141950000Y-32283428D01*
X141886289Y-32289703D01*
X141825026Y-32308287D01*
X141775695Y-32334655D01*
X141765000Y-32323960D01*
X141765000Y-32125000D01*
X142000000Y-32125000D01*
X142024386Y-32122598D01*
X142047835Y-32115485D01*
X142069446Y-32103934D01*
X142088388Y-32088388D01*
X142103934Y-32069446D01*
X142115485Y-32047835D01*
X142122598Y-32024386D01*
X142125000Y-32000000D01*
X142125000Y-31958750D01*
X142175000Y-31908750D01*
X142175000Y-31315000D01*
X142155000Y-31315000D01*
X142155000Y-31265000D01*
X142175000Y-31265000D01*
X142175000Y-31245000D01*
X142225000Y-31245000D01*
X142225000Y-31265000D01*
G36*
X143714999Y-28746040D02*
G01*
X143714999Y-29134548D01*
X143687314Y-29126150D01*
X143604000Y-29117944D01*
X143230250Y-29120000D01*
X143124000Y-29226250D01*
X143124000Y-29985000D01*
X143144000Y-29985000D01*
X143144000Y-30035000D01*
X143124000Y-30035000D01*
X143124000Y-30055000D01*
X143074000Y-30055000D01*
X143074000Y-30035000D01*
X143054000Y-30035000D01*
X143054000Y-29985000D01*
X143074000Y-29985000D01*
X143074000Y-29226250D01*
X142967750Y-29120000D01*
X142876973Y-29119501D01*
X142878850Y-29113314D01*
X142887056Y-29030000D01*
X142885000Y-28861250D01*
X142778750Y-28755000D01*
X142215000Y-28755000D01*
X142215000Y-28775000D01*
X142165000Y-28775000D01*
X142165000Y-28755000D01*
X142145000Y-28755000D01*
X142145000Y-28705000D01*
X142165000Y-28705000D01*
X142165000Y-28111250D01*
X142215000Y-28111250D01*
X142215000Y-28705000D01*
X142778750Y-28705000D01*
X142885000Y-28598750D01*
X142887056Y-28430000D01*
X142878850Y-28346686D01*
X142854548Y-28266573D01*
X142815084Y-28192740D01*
X142761974Y-28128026D01*
X142697260Y-28074916D01*
X142623427Y-28035452D01*
X142543314Y-28011150D01*
X142460000Y-28002944D01*
X142321250Y-28005000D01*
X142215000Y-28111250D01*
X142165000Y-28111250D01*
X142125000Y-28071250D01*
X142125000Y-27750000D01*
X142122598Y-27725614D01*
X142115485Y-27702165D01*
X142103934Y-27680554D01*
X142088388Y-27661612D01*
X142069446Y-27646066D01*
X142047835Y-27634515D01*
X142024386Y-27627402D01*
X142000000Y-27625000D01*
X139689032Y-27625000D01*
X139692572Y-27622972D01*
X139717142Y-27601572D01*
X139845000Y-27601572D01*
X139908711Y-27595297D01*
X139969974Y-27576713D01*
X140026434Y-27546535D01*
X140075921Y-27505921D01*
X140116535Y-27456434D01*
X140146713Y-27399974D01*
X140152772Y-27380000D01*
X142348960Y-27380000D01*
X143714999Y-28746040D01*
G37*
X143714999Y-28746040D02*
X143714999Y-29134548D01*
X143687314Y-29126150D01*
X143604000Y-29117944D01*
X143230250Y-29120000D01*
X143124000Y-29226250D01*
X143124000Y-29985000D01*
X143144000Y-29985000D01*
X143144000Y-30035000D01*
X143124000Y-30035000D01*
X143124000Y-30055000D01*
X143074000Y-30055000D01*
X143074000Y-30035000D01*
X143054000Y-30035000D01*
X143054000Y-29985000D01*
X143074000Y-29985000D01*
X143074000Y-29226250D01*
X142967750Y-29120000D01*
X142876973Y-29119501D01*
X142878850Y-29113314D01*
X142887056Y-29030000D01*
X142885000Y-28861250D01*
X142778750Y-28755000D01*
X142215000Y-28755000D01*
X142215000Y-28775000D01*
X142165000Y-28775000D01*
X142165000Y-28755000D01*
X142145000Y-28755000D01*
X142145000Y-28705000D01*
X142165000Y-28705000D01*
X142165000Y-28111250D01*
X142215000Y-28111250D01*
X142215000Y-28705000D01*
X142778750Y-28705000D01*
X142885000Y-28598750D01*
X142887056Y-28430000D01*
X142878850Y-28346686D01*
X142854548Y-28266573D01*
X142815084Y-28192740D01*
X142761974Y-28128026D01*
X142697260Y-28074916D01*
X142623427Y-28035452D01*
X142543314Y-28011150D01*
X142460000Y-28002944D01*
X142321250Y-28005000D01*
X142215000Y-28111250D01*
X142165000Y-28111250D01*
X142125000Y-28071250D01*
X142125000Y-27750000D01*
X142122598Y-27725614D01*
X142115485Y-27702165D01*
X142103934Y-27680554D01*
X142088388Y-27661612D01*
X142069446Y-27646066D01*
X142047835Y-27634515D01*
X142024386Y-27627402D01*
X142000000Y-27625000D01*
X139689032Y-27625000D01*
X139692572Y-27622972D01*
X139717142Y-27601572D01*
X139845000Y-27601572D01*
X139908711Y-27595297D01*
X139969974Y-27576713D01*
X140026434Y-27546535D01*
X140075921Y-27505921D01*
X140116535Y-27456434D01*
X140146713Y-27399974D01*
X140152772Y-27380000D01*
X142348960Y-27380000D01*
X143714999Y-28746040D01*
G36*
X139401250Y-27625000D02*
G01*
X139395002Y-27625000D01*
X139395002Y-27618752D01*
X139401250Y-27625000D01*
G37*
X139401250Y-27625000D02*
X139395002Y-27625000D01*
X139395002Y-27618752D01*
X139401250Y-27625000D01*
M02*
