G04 #@! TF.GenerationSoftware,KiCad,Pcbnew,(5.1.5)-3*
G04 #@! TF.CreationDate,2020-05-29T14:49:25+09:00*
G04 #@! TF.ProjectId,FMU3_Sensors_make,464d5533-5f53-4656-9e73-6f72735f6d61,rev?*
G04 #@! TF.SameCoordinates,Original*
G04 #@! TF.FileFunction,Legend,Top*
G04 #@! TF.FilePolarity,Positive*
%FSLAX46Y46*%
G04 Gerber Fmt 4.6, Leading zero omitted, Abs format (unit mm)*
G04 Created by KiCad (PCBNEW (5.1.5)-3) date 2020-05-29 14:49:25*
%MOMM*%
%LPD*%
G04 APERTURE LIST*
%ADD10C,0.127000*%
%ADD11C,0.200000*%
%ADD12C,0.120000*%
%ADD13C,0.100000*%
%ADD14C,0.050000*%
G04 APERTURE END LIST*
D10*
X141270000Y-31770000D02*
X142270000Y-31770000D01*
X142270000Y-30810000D02*
X141270000Y-30810000D01*
X137470000Y-23860000D02*
X137220000Y-23860000D01*
X137220000Y-23860000D02*
X137220000Y-24110000D01*
X140070000Y-23860000D02*
X140320000Y-23860000D01*
X140320000Y-23860000D02*
X140320000Y-24110000D01*
X140320000Y-26710000D02*
X140320000Y-26960000D01*
X140320000Y-26960000D02*
X140070000Y-26960000D01*
X137220000Y-26710000D02*
X137220000Y-26960000D01*
X137220000Y-26960000D02*
X137470000Y-26960000D01*
D11*
X136470000Y-24410000D02*
G75*
G03X136470000Y-24410000I-100000J0D01*
G01*
D10*
X142260000Y-28250000D02*
X141260000Y-28250000D01*
X141260000Y-29210000D02*
X142260000Y-29210000D01*
D12*
X141990000Y-29410000D02*
X142790000Y-29410000D01*
X142790000Y-30610000D02*
X141990000Y-30610000D01*
D10*
X144000000Y-30830000D02*
X143000000Y-30830000D01*
X143000000Y-31790000D02*
X144000000Y-31790000D01*
D12*
X129950001Y-23500000D02*
X132450001Y-23500000D01*
X132450001Y-25350000D02*
X132450001Y-25850000D01*
X132450001Y-27850000D02*
X132450001Y-28350000D01*
X129950001Y-27850000D02*
X129950001Y-28350000D01*
X129950001Y-30350000D02*
X129950001Y-30850000D01*
X132450001Y-30350000D02*
X132450001Y-30850000D01*
X129950001Y-25350000D02*
X129950001Y-25850000D01*
X132450001Y-32850000D02*
X132450001Y-33350000D01*
X129950001Y-32850000D02*
X129950001Y-33350000D01*
X134210000Y-24680000D02*
X135010000Y-24680000D01*
X135010000Y-25880000D02*
X134210000Y-25880000D01*
D10*
X134730000Y-27180000D02*
X135730000Y-27180000D01*
X135730000Y-26220000D02*
X134730000Y-26220000D01*
D12*
X138630000Y-30600000D02*
X137830000Y-30600000D01*
X137830000Y-29400000D02*
X138630000Y-29400000D01*
D10*
X135120000Y-30260000D02*
X136120000Y-30260000D01*
X136120000Y-29300000D02*
X135120000Y-29300000D01*
D12*
X145620000Y-23270000D02*
X148120000Y-23270000D01*
X148120000Y-25120000D02*
X148120000Y-25620000D01*
X145620000Y-32620000D02*
X145620000Y-33120000D01*
X145620000Y-25120000D02*
X145620000Y-25620000D01*
X148120000Y-27620000D02*
X148120000Y-28120000D01*
X148120000Y-32620000D02*
X148120000Y-33120000D01*
X148120000Y-30120000D02*
X148120000Y-30620000D01*
X145620000Y-30120000D02*
X145620000Y-30620000D01*
X145620000Y-27620000D02*
X145620000Y-28120000D01*
X148120000Y-35120000D02*
X148120000Y-35620000D01*
X145620000Y-35120000D02*
X145620000Y-35620000D01*
D10*
X135760000Y-31580000D02*
X138760000Y-31580000D01*
X135760000Y-36580000D02*
X138760000Y-36580000D01*
D11*
X134983000Y-32207000D02*
G75*
G03X134983000Y-32207000I-100000J0D01*
G01*
D10*
X141050000Y-32810000D02*
X141050000Y-32660000D01*
X141050000Y-32660000D02*
X141700000Y-32660000D01*
X143500000Y-32660000D02*
X144150000Y-32660000D01*
X144150000Y-32660000D02*
X144150000Y-32810000D01*
X141050000Y-35610000D02*
X141050000Y-35760000D01*
X141050000Y-35760000D02*
X141700000Y-35760000D01*
X143500000Y-35760000D02*
X144150000Y-35760000D01*
X144150000Y-35760000D02*
X144150000Y-35610000D01*
D13*
X140750000Y-33210000D02*
G75*
G03X140750000Y-33210000I-50000J0D01*
G01*
D14*
X140616666Y-30951428D02*
X140607142Y-30960952D01*
X140578571Y-30970476D01*
X140559523Y-30970476D01*
X140530952Y-30960952D01*
X140511904Y-30941904D01*
X140502380Y-30922857D01*
X140492857Y-30884761D01*
X140492857Y-30856190D01*
X140502380Y-30818095D01*
X140511904Y-30799047D01*
X140530952Y-30780000D01*
X140559523Y-30770476D01*
X140578571Y-30770476D01*
X140607142Y-30780000D01*
X140616666Y-30789523D01*
X140683333Y-30770476D02*
X140816666Y-30770476D01*
X140730952Y-30970476D01*
X136767619Y-27200476D02*
X136767619Y-27362380D01*
X136777142Y-27381428D01*
X136786666Y-27390952D01*
X136805714Y-27400476D01*
X136843809Y-27400476D01*
X136862857Y-27390952D01*
X136872380Y-27381428D01*
X136881904Y-27362380D01*
X136881904Y-27200476D01*
X137081904Y-27400476D02*
X136967619Y-27400476D01*
X137024761Y-27400476D02*
X137024761Y-27200476D01*
X137005714Y-27229047D01*
X136986666Y-27248095D01*
X136967619Y-27257619D01*
X140576666Y-28361428D02*
X140567142Y-28370952D01*
X140538571Y-28380476D01*
X140519523Y-28380476D01*
X140490952Y-28370952D01*
X140471904Y-28351904D01*
X140462380Y-28332857D01*
X140452857Y-28294761D01*
X140452857Y-28266190D01*
X140462380Y-28228095D01*
X140471904Y-28209047D01*
X140490952Y-28190000D01*
X140519523Y-28180476D01*
X140538571Y-28180476D01*
X140567142Y-28190000D01*
X140576666Y-28199523D01*
X140748095Y-28180476D02*
X140710000Y-28180476D01*
X140690952Y-28190000D01*
X140681428Y-28199523D01*
X140662380Y-28228095D01*
X140652857Y-28266190D01*
X140652857Y-28342380D01*
X140662380Y-28361428D01*
X140671904Y-28370952D01*
X140690952Y-28380476D01*
X140729047Y-28380476D01*
X140748095Y-28370952D01*
X140757619Y-28361428D01*
X140767142Y-28342380D01*
X140767142Y-28294761D01*
X140757619Y-28275714D01*
X140748095Y-28266190D01*
X140729047Y-28256666D01*
X140690952Y-28256666D01*
X140671904Y-28266190D01*
X140662380Y-28275714D01*
X140652857Y-28294761D01*
X140646666Y-29491428D02*
X140637142Y-29500952D01*
X140608571Y-29510476D01*
X140589523Y-29510476D01*
X140560952Y-29500952D01*
X140541904Y-29481904D01*
X140532380Y-29462857D01*
X140522857Y-29424761D01*
X140522857Y-29396190D01*
X140532380Y-29358095D01*
X140541904Y-29339047D01*
X140560952Y-29320000D01*
X140589523Y-29310476D01*
X140608571Y-29310476D01*
X140637142Y-29320000D01*
X140646666Y-29329523D01*
X140760952Y-29396190D02*
X140741904Y-29386666D01*
X140732380Y-29377142D01*
X140722857Y-29358095D01*
X140722857Y-29348571D01*
X140732380Y-29329523D01*
X140741904Y-29320000D01*
X140760952Y-29310476D01*
X140799047Y-29310476D01*
X140818095Y-29320000D01*
X140827619Y-29329523D01*
X140837142Y-29348571D01*
X140837142Y-29358095D01*
X140827619Y-29377142D01*
X140818095Y-29386666D01*
X140799047Y-29396190D01*
X140760952Y-29396190D01*
X140741904Y-29405714D01*
X140732380Y-29415238D01*
X140722857Y-29434285D01*
X140722857Y-29472380D01*
X140732380Y-29491428D01*
X140741904Y-29500952D01*
X140760952Y-29510476D01*
X140799047Y-29510476D01*
X140818095Y-29500952D01*
X140827619Y-29491428D01*
X140837142Y-29472380D01*
X140837142Y-29434285D01*
X140827619Y-29415238D01*
X140818095Y-29405714D01*
X140799047Y-29396190D01*
X142846666Y-32071428D02*
X142837142Y-32080952D01*
X142808571Y-32090476D01*
X142789523Y-32090476D01*
X142760952Y-32080952D01*
X142741904Y-32061904D01*
X142732380Y-32042857D01*
X142722857Y-32004761D01*
X142722857Y-31976190D01*
X142732380Y-31938095D01*
X142741904Y-31919047D01*
X142760952Y-31900000D01*
X142789523Y-31890476D01*
X142808571Y-31890476D01*
X142837142Y-31900000D01*
X142846666Y-31909523D01*
X143027619Y-31890476D02*
X142932380Y-31890476D01*
X142922857Y-31985714D01*
X142932380Y-31976190D01*
X142951428Y-31966666D01*
X142999047Y-31966666D01*
X143018095Y-31976190D01*
X143027619Y-31985714D01*
X143037142Y-32004761D01*
X143037142Y-32052380D01*
X143027619Y-32071428D01*
X143018095Y-32080952D01*
X142999047Y-32090476D01*
X142951428Y-32090476D01*
X142932380Y-32080952D01*
X142922857Y-32071428D01*
X129981333Y-23004476D02*
X129981333Y-23147333D01*
X129971809Y-23175904D01*
X129952761Y-23194952D01*
X129924190Y-23204476D01*
X129905142Y-23204476D01*
X130067047Y-23023523D02*
X130076571Y-23014000D01*
X130095619Y-23004476D01*
X130143238Y-23004476D01*
X130162285Y-23014000D01*
X130171809Y-23023523D01*
X130181333Y-23042571D01*
X130181333Y-23061619D01*
X130171809Y-23090190D01*
X130057523Y-23204476D01*
X130181333Y-23204476D01*
X133296666Y-24621428D02*
X133287142Y-24630952D01*
X133258571Y-24640476D01*
X133239523Y-24640476D01*
X133210952Y-24630952D01*
X133191904Y-24611904D01*
X133182380Y-24592857D01*
X133172857Y-24554761D01*
X133172857Y-24526190D01*
X133182380Y-24488095D01*
X133191904Y-24469047D01*
X133210952Y-24450000D01*
X133239523Y-24440476D01*
X133258571Y-24440476D01*
X133287142Y-24450000D01*
X133296666Y-24459523D01*
X133487142Y-24640476D02*
X133372857Y-24640476D01*
X133430000Y-24640476D02*
X133430000Y-24440476D01*
X133410952Y-24469047D01*
X133391904Y-24488095D01*
X133372857Y-24497619D01*
X134386666Y-27401428D02*
X134377142Y-27410952D01*
X134348571Y-27420476D01*
X134329523Y-27420476D01*
X134300952Y-27410952D01*
X134281904Y-27391904D01*
X134272380Y-27372857D01*
X134262857Y-27334761D01*
X134262857Y-27306190D01*
X134272380Y-27268095D01*
X134281904Y-27249047D01*
X134300952Y-27230000D01*
X134329523Y-27220476D01*
X134348571Y-27220476D01*
X134377142Y-27230000D01*
X134386666Y-27239523D01*
X134462857Y-27239523D02*
X134472380Y-27230000D01*
X134491428Y-27220476D01*
X134539047Y-27220476D01*
X134558095Y-27230000D01*
X134567619Y-27239523D01*
X134577142Y-27258571D01*
X134577142Y-27277619D01*
X134567619Y-27306190D01*
X134453333Y-27420476D01*
X134577142Y-27420476D01*
X136872666Y-29281428D02*
X136863142Y-29290952D01*
X136834571Y-29300476D01*
X136815523Y-29300476D01*
X136786952Y-29290952D01*
X136767904Y-29271904D01*
X136758380Y-29252857D01*
X136748857Y-29214761D01*
X136748857Y-29186190D01*
X136758380Y-29148095D01*
X136767904Y-29129047D01*
X136786952Y-29110000D01*
X136815523Y-29100476D01*
X136834571Y-29100476D01*
X136863142Y-29110000D01*
X136872666Y-29119523D01*
X136939333Y-29100476D02*
X137063142Y-29100476D01*
X136996476Y-29176666D01*
X137025047Y-29176666D01*
X137044095Y-29186190D01*
X137053619Y-29195714D01*
X137063142Y-29214761D01*
X137063142Y-29262380D01*
X137053619Y-29281428D01*
X137044095Y-29290952D01*
X137025047Y-29300476D01*
X136967904Y-29300476D01*
X136948857Y-29290952D01*
X136939333Y-29281428D01*
X134766666Y-29241428D02*
X134757142Y-29250952D01*
X134728571Y-29260476D01*
X134709523Y-29260476D01*
X134680952Y-29250952D01*
X134661904Y-29231904D01*
X134652380Y-29212857D01*
X134642857Y-29174761D01*
X134642857Y-29146190D01*
X134652380Y-29108095D01*
X134661904Y-29089047D01*
X134680952Y-29070000D01*
X134709523Y-29060476D01*
X134728571Y-29060476D01*
X134757142Y-29070000D01*
X134766666Y-29079523D01*
X134938095Y-29127142D02*
X134938095Y-29260476D01*
X134890476Y-29050952D02*
X134842857Y-29193809D01*
X134966666Y-29193809D01*
X145573333Y-22750476D02*
X145573333Y-22893333D01*
X145563809Y-22921904D01*
X145544761Y-22940952D01*
X145516190Y-22950476D01*
X145497142Y-22950476D01*
X145773333Y-22950476D02*
X145659047Y-22950476D01*
X145716190Y-22950476D02*
X145716190Y-22750476D01*
X145697142Y-22779047D01*
X145678095Y-22798095D01*
X145659047Y-22807619D01*
X134332666Y-23204476D02*
X134266000Y-23109238D01*
X134218380Y-23204476D02*
X134218380Y-23004476D01*
X134294571Y-23004476D01*
X134313619Y-23014000D01*
X134323142Y-23023523D01*
X134332666Y-23042571D01*
X134332666Y-23071142D01*
X134323142Y-23090190D01*
X134313619Y-23099714D01*
X134294571Y-23109238D01*
X134218380Y-23109238D01*
X134523142Y-23204476D02*
X134408857Y-23204476D01*
X134466000Y-23204476D02*
X134466000Y-23004476D01*
X134446952Y-23033047D01*
X134427904Y-23052095D01*
X134408857Y-23061619D01*
X135207619Y-36550476D02*
X135207619Y-36712380D01*
X135217142Y-36731428D01*
X135226666Y-36740952D01*
X135245714Y-36750476D01*
X135283809Y-36750476D01*
X135302857Y-36740952D01*
X135312380Y-36731428D01*
X135321904Y-36712380D01*
X135321904Y-36550476D01*
X135407619Y-36569523D02*
X135417142Y-36560000D01*
X135436190Y-36550476D01*
X135483809Y-36550476D01*
X135502857Y-36560000D01*
X135512380Y-36569523D01*
X135521904Y-36588571D01*
X135521904Y-36607619D01*
X135512380Y-36636190D01*
X135398095Y-36750476D01*
X135521904Y-36750476D01*
X140377619Y-35720476D02*
X140377619Y-35882380D01*
X140387142Y-35901428D01*
X140396666Y-35910952D01*
X140415714Y-35920476D01*
X140453809Y-35920476D01*
X140472857Y-35910952D01*
X140482380Y-35901428D01*
X140491904Y-35882380D01*
X140491904Y-35720476D01*
X140568095Y-35720476D02*
X140691904Y-35720476D01*
X140625238Y-35796666D01*
X140653809Y-35796666D01*
X140672857Y-35806190D01*
X140682380Y-35815714D01*
X140691904Y-35834761D01*
X140691904Y-35882380D01*
X140682380Y-35901428D01*
X140672857Y-35910952D01*
X140653809Y-35920476D01*
X140596666Y-35920476D01*
X140577619Y-35910952D01*
X140568095Y-35901428D01*
M02*
