G04 #@! TF.GenerationSoftware,KiCad,Pcbnew,(5.1.5)-3*
G04 #@! TF.CreationDate,2020-05-27T20:05:24+09:00*
G04 #@! TF.ProjectId,FMU3_Sensors_make,464d5533-5f53-4656-9e73-6f72735f6d61,rev?*
G04 #@! TF.SameCoordinates,Original*
G04 #@! TF.FileFunction,Copper,L2,Bot*
G04 #@! TF.FilePolarity,Positive*
%FSLAX46Y46*%
G04 Gerber Fmt 4.6, Leading zero omitted, Abs format (unit mm)*
G04 Created by KiCad (PCBNEW (5.1.5)-3) date 2020-05-27 20:05:24*
%MOMM*%
%LPD*%
G04 APERTURE LIST*
%ADD10C,0.800000*%
%ADD11C,0.200000*%
%ADD12C,0.254000*%
G04 APERTURE END LIST*
D10*
X151810000Y-47920000D03*
X145820000Y-39160000D03*
X145810000Y-35000000D03*
X137890000Y-37850000D03*
X144840000Y-48125000D03*
X137910000Y-40350000D03*
X146600000Y-46040000D03*
X144840000Y-46380000D03*
X149910000Y-42850000D03*
X142280000Y-40820000D03*
X144650000Y-43590000D03*
X149970000Y-40350000D03*
X139850000Y-35940000D03*
X143370000Y-42920000D03*
X138660000Y-35220000D03*
X149940000Y-37850000D03*
X137850000Y-42850000D03*
X144930000Y-39850000D03*
D11*
X137490001Y-38249999D02*
X137890000Y-37850000D01*
X136749989Y-43351690D02*
X136749989Y-38990011D01*
X136749989Y-38990011D02*
X137490001Y-38249999D01*
X141523300Y-48125000D02*
X136749989Y-43351690D01*
X144840000Y-48125000D02*
X141523300Y-48125000D01*
X146200001Y-46439999D02*
X146600000Y-46040000D01*
X145559999Y-47080001D02*
X146200001Y-46439999D01*
X141043999Y-47080001D02*
X145559999Y-47080001D01*
X137149999Y-43186001D02*
X141043999Y-47080001D01*
X137149999Y-41110001D02*
X137149999Y-43186001D01*
X137910000Y-40350000D02*
X137149999Y-41110001D01*
X142280000Y-43820000D02*
X144840000Y-46380000D01*
X142280000Y-40820000D02*
X142280000Y-43820000D01*
X148370000Y-42850000D02*
X149910000Y-42850000D01*
X144840000Y-46380000D02*
X148370000Y-42850000D01*
X147890000Y-40350000D02*
X144650000Y-43590000D01*
X149970000Y-40350000D02*
X147890000Y-40350000D01*
X150640001Y-39679999D02*
X150369999Y-39950001D01*
X150640001Y-37513999D02*
X150640001Y-39679999D01*
X150369999Y-39950001D02*
X149970000Y-40350000D01*
X149066002Y-35940000D02*
X150640001Y-37513999D01*
X139850000Y-35940000D02*
X149066002Y-35940000D01*
X143769999Y-42520001D02*
X143370000Y-42920000D01*
X149540001Y-38249999D02*
X148040001Y-38249999D01*
X148040001Y-38249999D02*
X143769999Y-42520001D01*
X149940000Y-37850000D02*
X149540001Y-38249999D01*
X140723998Y-37850000D02*
X149374315Y-37850000D01*
X138660000Y-35786002D02*
X140723998Y-37850000D01*
X149374315Y-37850000D02*
X149940000Y-37850000D01*
X138660000Y-35220000D02*
X138660000Y-35786002D01*
X140850000Y-39850000D02*
X144930000Y-39850000D01*
X137850000Y-42850000D02*
X140850000Y-39850000D01*
D12*
G36*
X153398001Y-48398000D02*
G01*
X145513819Y-48398000D01*
X145539062Y-48337058D01*
X145567000Y-48196603D01*
X145567000Y-48053397D01*
X145539062Y-47912942D01*
X145484259Y-47780636D01*
X145404698Y-47661564D01*
X145303436Y-47560302D01*
X145223665Y-47507001D01*
X145539032Y-47507001D01*
X145559999Y-47509066D01*
X145580966Y-47507001D01*
X145580977Y-47507001D01*
X145643706Y-47500823D01*
X145724195Y-47476406D01*
X145798375Y-47436756D01*
X145863394Y-47383396D01*
X145876767Y-47367101D01*
X146485418Y-46758451D01*
X146528397Y-46767000D01*
X146671603Y-46767000D01*
X146812058Y-46739062D01*
X146944364Y-46684259D01*
X147063436Y-46604698D01*
X147164698Y-46503436D01*
X147244259Y-46384364D01*
X147299062Y-46252058D01*
X147327000Y-46111603D01*
X147327000Y-45968397D01*
X147299062Y-45827942D01*
X147244259Y-45695636D01*
X147164698Y-45576564D01*
X147063436Y-45475302D01*
X146944364Y-45395741D01*
X146812058Y-45340938D01*
X146671603Y-45313000D01*
X146528397Y-45313000D01*
X146506516Y-45317352D01*
X148546869Y-43277000D01*
X149320956Y-43277000D01*
X149345302Y-43313436D01*
X149446564Y-43414698D01*
X149565636Y-43494259D01*
X149697942Y-43549062D01*
X149838397Y-43577000D01*
X149981603Y-43577000D01*
X150122058Y-43549062D01*
X150254364Y-43494259D01*
X150373436Y-43414698D01*
X150474698Y-43313436D01*
X150554259Y-43194364D01*
X150609062Y-43062058D01*
X150637000Y-42921603D01*
X150637000Y-42778397D01*
X150609062Y-42637942D01*
X150554259Y-42505636D01*
X150474698Y-42386564D01*
X150373436Y-42285302D01*
X150254364Y-42205741D01*
X150122058Y-42150938D01*
X149981603Y-42123000D01*
X149838397Y-42123000D01*
X149697942Y-42150938D01*
X149565636Y-42205741D01*
X149446564Y-42285302D01*
X149345302Y-42386564D01*
X149320956Y-42423000D01*
X148390967Y-42423000D01*
X148370000Y-42420935D01*
X148349033Y-42423000D01*
X148349022Y-42423000D01*
X148286293Y-42429178D01*
X148205804Y-42453595D01*
X148171273Y-42472052D01*
X148131623Y-42493245D01*
X148082899Y-42533232D01*
X148082895Y-42533236D01*
X148066605Y-42546605D01*
X148053236Y-42562895D01*
X144954583Y-45661549D01*
X144911603Y-45653000D01*
X144768397Y-45653000D01*
X144725418Y-45661549D01*
X142707000Y-43643132D01*
X142707000Y-43219119D01*
X142725741Y-43264364D01*
X142805302Y-43383436D01*
X142906564Y-43484698D01*
X143025636Y-43564259D01*
X143157942Y-43619062D01*
X143298397Y-43647000D01*
X143441603Y-43647000D01*
X143582058Y-43619062D01*
X143714364Y-43564259D01*
X143833436Y-43484698D01*
X143934698Y-43383436D01*
X143971438Y-43328450D01*
X143950938Y-43377942D01*
X143923000Y-43518397D01*
X143923000Y-43661603D01*
X143950938Y-43802058D01*
X144005741Y-43934364D01*
X144085302Y-44053436D01*
X144186564Y-44154698D01*
X144305636Y-44234259D01*
X144437942Y-44289062D01*
X144578397Y-44317000D01*
X144721603Y-44317000D01*
X144862058Y-44289062D01*
X144994364Y-44234259D01*
X145113436Y-44154698D01*
X145214698Y-44053436D01*
X145294259Y-43934364D01*
X145349062Y-43802058D01*
X145377000Y-43661603D01*
X145377000Y-43518397D01*
X145368451Y-43475417D01*
X148066869Y-40777000D01*
X149380956Y-40777000D01*
X149405302Y-40813436D01*
X149506564Y-40914698D01*
X149625636Y-40994259D01*
X149757942Y-41049062D01*
X149898397Y-41077000D01*
X150041603Y-41077000D01*
X150182058Y-41049062D01*
X150314364Y-40994259D01*
X150433436Y-40914698D01*
X150534698Y-40813436D01*
X150614259Y-40694364D01*
X150669062Y-40562058D01*
X150697000Y-40421603D01*
X150697000Y-40278397D01*
X150688451Y-40235417D01*
X150927101Y-39996767D01*
X150943396Y-39983394D01*
X150970801Y-39950001D01*
X150996756Y-39918376D01*
X151036405Y-39844196D01*
X151036406Y-39844195D01*
X151060823Y-39763706D01*
X151067001Y-39700977D01*
X151067001Y-39700957D01*
X151069065Y-39680000D01*
X151067001Y-39659043D01*
X151067001Y-37534966D01*
X151069066Y-37513999D01*
X151067001Y-37493032D01*
X151067001Y-37493021D01*
X151060823Y-37430292D01*
X151036406Y-37349803D01*
X151027177Y-37332537D01*
X150996757Y-37275622D01*
X150956769Y-37226898D01*
X150956765Y-37226894D01*
X150943396Y-37210604D01*
X150927107Y-37197236D01*
X149382770Y-35652900D01*
X149369397Y-35636605D01*
X149304378Y-35583245D01*
X149230198Y-35543595D01*
X149149709Y-35519178D01*
X149086980Y-35513000D01*
X149086969Y-35513000D01*
X149066002Y-35510935D01*
X149045035Y-35513000D01*
X140439044Y-35513000D01*
X140414698Y-35476564D01*
X140313436Y-35375302D01*
X140194364Y-35295741D01*
X140062058Y-35240938D01*
X139921603Y-35213000D01*
X139778397Y-35213000D01*
X139637942Y-35240938D01*
X139505636Y-35295741D01*
X139386564Y-35375302D01*
X139366326Y-35395540D01*
X139387000Y-35291603D01*
X139387000Y-35148397D01*
X139359062Y-35007942D01*
X139304259Y-34875636D01*
X139224698Y-34756564D01*
X139123436Y-34655302D01*
X139004364Y-34575741D01*
X138872058Y-34520938D01*
X138731603Y-34493000D01*
X138588397Y-34493000D01*
X138447942Y-34520938D01*
X138315636Y-34575741D01*
X138196564Y-34655302D01*
X138095302Y-34756564D01*
X138015741Y-34875636D01*
X137960938Y-35007942D01*
X137933000Y-35148397D01*
X137933000Y-35291603D01*
X137960938Y-35432058D01*
X138015741Y-35564364D01*
X138095302Y-35683436D01*
X138196564Y-35784698D01*
X138233219Y-35809190D01*
X138239179Y-35869708D01*
X138263596Y-35950198D01*
X138303245Y-36024378D01*
X138343232Y-36073102D01*
X138343237Y-36073107D01*
X138356606Y-36089397D01*
X138372896Y-36102766D01*
X140407234Y-38137105D01*
X140420603Y-38153395D01*
X140436893Y-38166764D01*
X140436897Y-38166768D01*
X140485621Y-38206755D01*
X140525271Y-38227948D01*
X140559802Y-38246405D01*
X140640291Y-38270822D01*
X140703020Y-38277000D01*
X140703031Y-38277000D01*
X140723998Y-38279065D01*
X140744965Y-38277000D01*
X147409131Y-38277000D01*
X145630301Y-40055831D01*
X145657000Y-39921603D01*
X145657000Y-39778397D01*
X145629062Y-39637942D01*
X145574259Y-39505636D01*
X145494698Y-39386564D01*
X145393436Y-39285302D01*
X145274364Y-39205741D01*
X145142058Y-39150938D01*
X145001603Y-39123000D01*
X144858397Y-39123000D01*
X144717942Y-39150938D01*
X144585636Y-39205741D01*
X144466564Y-39285302D01*
X144365302Y-39386564D01*
X144340956Y-39423000D01*
X140870967Y-39423000D01*
X140850000Y-39420935D01*
X140829033Y-39423000D01*
X140829022Y-39423000D01*
X140766293Y-39429178D01*
X140685804Y-39453595D01*
X140668538Y-39462824D01*
X140611623Y-39493244D01*
X140562899Y-39533232D01*
X140562895Y-39533236D01*
X140546605Y-39546605D01*
X140533236Y-39562895D01*
X137964583Y-42131549D01*
X137921603Y-42123000D01*
X137778397Y-42123000D01*
X137637942Y-42150938D01*
X137576999Y-42176181D01*
X137576999Y-41286869D01*
X137795418Y-41068451D01*
X137838397Y-41077000D01*
X137981603Y-41077000D01*
X138122058Y-41049062D01*
X138254364Y-40994259D01*
X138373436Y-40914698D01*
X138474698Y-40813436D01*
X138554259Y-40694364D01*
X138609062Y-40562058D01*
X138637000Y-40421603D01*
X138637000Y-40278397D01*
X138609062Y-40137942D01*
X138554259Y-40005636D01*
X138474698Y-39886564D01*
X138373436Y-39785302D01*
X138254364Y-39705741D01*
X138122058Y-39650938D01*
X137981603Y-39623000D01*
X137838397Y-39623000D01*
X137697942Y-39650938D01*
X137565636Y-39705741D01*
X137446564Y-39785302D01*
X137345302Y-39886564D01*
X137265741Y-40005636D01*
X137210938Y-40137942D01*
X137183000Y-40278397D01*
X137183000Y-40421603D01*
X137191549Y-40464582D01*
X137176989Y-40479143D01*
X137176989Y-39166879D01*
X137775418Y-38568451D01*
X137818397Y-38577000D01*
X137961603Y-38577000D01*
X138102058Y-38549062D01*
X138234364Y-38494259D01*
X138353436Y-38414698D01*
X138454698Y-38313436D01*
X138534259Y-38194364D01*
X138589062Y-38062058D01*
X138617000Y-37921603D01*
X138617000Y-37778397D01*
X138589062Y-37637942D01*
X138534259Y-37505636D01*
X138454698Y-37386564D01*
X138353436Y-37285302D01*
X138234364Y-37205741D01*
X138102058Y-37150938D01*
X137961603Y-37123000D01*
X137818397Y-37123000D01*
X137677942Y-37150938D01*
X137545636Y-37205741D01*
X137426564Y-37285302D01*
X137325302Y-37386564D01*
X137245741Y-37505636D01*
X137190938Y-37637942D01*
X137163000Y-37778397D01*
X137163000Y-37921603D01*
X137171549Y-37964582D01*
X136462884Y-38673248D01*
X136446595Y-38686616D01*
X136433226Y-38702906D01*
X136433221Y-38702911D01*
X136393234Y-38751635D01*
X136353585Y-38825815D01*
X136329168Y-38906305D01*
X136320924Y-38990011D01*
X136322990Y-39010988D01*
X136322989Y-43330723D01*
X136320924Y-43351690D01*
X136322989Y-43372657D01*
X136322989Y-43372667D01*
X136329167Y-43435396D01*
X136353584Y-43515885D01*
X136353585Y-43515886D01*
X136393234Y-43590066D01*
X136413752Y-43615067D01*
X136446594Y-43655085D01*
X136462889Y-43668458D01*
X141192431Y-48398000D01*
X134102000Y-48398000D01*
X134102000Y-33852000D01*
X153398000Y-33852000D01*
X153398001Y-48398000D01*
G37*
X153398001Y-48398000D02*
X145513819Y-48398000D01*
X145539062Y-48337058D01*
X145567000Y-48196603D01*
X145567000Y-48053397D01*
X145539062Y-47912942D01*
X145484259Y-47780636D01*
X145404698Y-47661564D01*
X145303436Y-47560302D01*
X145223665Y-47507001D01*
X145539032Y-47507001D01*
X145559999Y-47509066D01*
X145580966Y-47507001D01*
X145580977Y-47507001D01*
X145643706Y-47500823D01*
X145724195Y-47476406D01*
X145798375Y-47436756D01*
X145863394Y-47383396D01*
X145876767Y-47367101D01*
X146485418Y-46758451D01*
X146528397Y-46767000D01*
X146671603Y-46767000D01*
X146812058Y-46739062D01*
X146944364Y-46684259D01*
X147063436Y-46604698D01*
X147164698Y-46503436D01*
X147244259Y-46384364D01*
X147299062Y-46252058D01*
X147327000Y-46111603D01*
X147327000Y-45968397D01*
X147299062Y-45827942D01*
X147244259Y-45695636D01*
X147164698Y-45576564D01*
X147063436Y-45475302D01*
X146944364Y-45395741D01*
X146812058Y-45340938D01*
X146671603Y-45313000D01*
X146528397Y-45313000D01*
X146506516Y-45317352D01*
X148546869Y-43277000D01*
X149320956Y-43277000D01*
X149345302Y-43313436D01*
X149446564Y-43414698D01*
X149565636Y-43494259D01*
X149697942Y-43549062D01*
X149838397Y-43577000D01*
X149981603Y-43577000D01*
X150122058Y-43549062D01*
X150254364Y-43494259D01*
X150373436Y-43414698D01*
X150474698Y-43313436D01*
X150554259Y-43194364D01*
X150609062Y-43062058D01*
X150637000Y-42921603D01*
X150637000Y-42778397D01*
X150609062Y-42637942D01*
X150554259Y-42505636D01*
X150474698Y-42386564D01*
X150373436Y-42285302D01*
X150254364Y-42205741D01*
X150122058Y-42150938D01*
X149981603Y-42123000D01*
X149838397Y-42123000D01*
X149697942Y-42150938D01*
X149565636Y-42205741D01*
X149446564Y-42285302D01*
X149345302Y-42386564D01*
X149320956Y-42423000D01*
X148390967Y-42423000D01*
X148370000Y-42420935D01*
X148349033Y-42423000D01*
X148349022Y-42423000D01*
X148286293Y-42429178D01*
X148205804Y-42453595D01*
X148171273Y-42472052D01*
X148131623Y-42493245D01*
X148082899Y-42533232D01*
X148082895Y-42533236D01*
X148066605Y-42546605D01*
X148053236Y-42562895D01*
X144954583Y-45661549D01*
X144911603Y-45653000D01*
X144768397Y-45653000D01*
X144725418Y-45661549D01*
X142707000Y-43643132D01*
X142707000Y-43219119D01*
X142725741Y-43264364D01*
X142805302Y-43383436D01*
X142906564Y-43484698D01*
X143025636Y-43564259D01*
X143157942Y-43619062D01*
X143298397Y-43647000D01*
X143441603Y-43647000D01*
X143582058Y-43619062D01*
X143714364Y-43564259D01*
X143833436Y-43484698D01*
X143934698Y-43383436D01*
X143971438Y-43328450D01*
X143950938Y-43377942D01*
X143923000Y-43518397D01*
X143923000Y-43661603D01*
X143950938Y-43802058D01*
X144005741Y-43934364D01*
X144085302Y-44053436D01*
X144186564Y-44154698D01*
X144305636Y-44234259D01*
X144437942Y-44289062D01*
X144578397Y-44317000D01*
X144721603Y-44317000D01*
X144862058Y-44289062D01*
X144994364Y-44234259D01*
X145113436Y-44154698D01*
X145214698Y-44053436D01*
X145294259Y-43934364D01*
X145349062Y-43802058D01*
X145377000Y-43661603D01*
X145377000Y-43518397D01*
X145368451Y-43475417D01*
X148066869Y-40777000D01*
X149380956Y-40777000D01*
X149405302Y-40813436D01*
X149506564Y-40914698D01*
X149625636Y-40994259D01*
X149757942Y-41049062D01*
X149898397Y-41077000D01*
X150041603Y-41077000D01*
X150182058Y-41049062D01*
X150314364Y-40994259D01*
X150433436Y-40914698D01*
X150534698Y-40813436D01*
X150614259Y-40694364D01*
X150669062Y-40562058D01*
X150697000Y-40421603D01*
X150697000Y-40278397D01*
X150688451Y-40235417D01*
X150927101Y-39996767D01*
X150943396Y-39983394D01*
X150970801Y-39950001D01*
X150996756Y-39918376D01*
X151036405Y-39844196D01*
X151036406Y-39844195D01*
X151060823Y-39763706D01*
X151067001Y-39700977D01*
X151067001Y-39700957D01*
X151069065Y-39680000D01*
X151067001Y-39659043D01*
X151067001Y-37534966D01*
X151069066Y-37513999D01*
X151067001Y-37493032D01*
X151067001Y-37493021D01*
X151060823Y-37430292D01*
X151036406Y-37349803D01*
X151027177Y-37332537D01*
X150996757Y-37275622D01*
X150956769Y-37226898D01*
X150956765Y-37226894D01*
X150943396Y-37210604D01*
X150927107Y-37197236D01*
X149382770Y-35652900D01*
X149369397Y-35636605D01*
X149304378Y-35583245D01*
X149230198Y-35543595D01*
X149149709Y-35519178D01*
X149086980Y-35513000D01*
X149086969Y-35513000D01*
X149066002Y-35510935D01*
X149045035Y-35513000D01*
X140439044Y-35513000D01*
X140414698Y-35476564D01*
X140313436Y-35375302D01*
X140194364Y-35295741D01*
X140062058Y-35240938D01*
X139921603Y-35213000D01*
X139778397Y-35213000D01*
X139637942Y-35240938D01*
X139505636Y-35295741D01*
X139386564Y-35375302D01*
X139366326Y-35395540D01*
X139387000Y-35291603D01*
X139387000Y-35148397D01*
X139359062Y-35007942D01*
X139304259Y-34875636D01*
X139224698Y-34756564D01*
X139123436Y-34655302D01*
X139004364Y-34575741D01*
X138872058Y-34520938D01*
X138731603Y-34493000D01*
X138588397Y-34493000D01*
X138447942Y-34520938D01*
X138315636Y-34575741D01*
X138196564Y-34655302D01*
X138095302Y-34756564D01*
X138015741Y-34875636D01*
X137960938Y-35007942D01*
X137933000Y-35148397D01*
X137933000Y-35291603D01*
X137960938Y-35432058D01*
X138015741Y-35564364D01*
X138095302Y-35683436D01*
X138196564Y-35784698D01*
X138233219Y-35809190D01*
X138239179Y-35869708D01*
X138263596Y-35950198D01*
X138303245Y-36024378D01*
X138343232Y-36073102D01*
X138343237Y-36073107D01*
X138356606Y-36089397D01*
X138372896Y-36102766D01*
X140407234Y-38137105D01*
X140420603Y-38153395D01*
X140436893Y-38166764D01*
X140436897Y-38166768D01*
X140485621Y-38206755D01*
X140525271Y-38227948D01*
X140559802Y-38246405D01*
X140640291Y-38270822D01*
X140703020Y-38277000D01*
X140703031Y-38277000D01*
X140723998Y-38279065D01*
X140744965Y-38277000D01*
X147409131Y-38277000D01*
X145630301Y-40055831D01*
X145657000Y-39921603D01*
X145657000Y-39778397D01*
X145629062Y-39637942D01*
X145574259Y-39505636D01*
X145494698Y-39386564D01*
X145393436Y-39285302D01*
X145274364Y-39205741D01*
X145142058Y-39150938D01*
X145001603Y-39123000D01*
X144858397Y-39123000D01*
X144717942Y-39150938D01*
X144585636Y-39205741D01*
X144466564Y-39285302D01*
X144365302Y-39386564D01*
X144340956Y-39423000D01*
X140870967Y-39423000D01*
X140850000Y-39420935D01*
X140829033Y-39423000D01*
X140829022Y-39423000D01*
X140766293Y-39429178D01*
X140685804Y-39453595D01*
X140668538Y-39462824D01*
X140611623Y-39493244D01*
X140562899Y-39533232D01*
X140562895Y-39533236D01*
X140546605Y-39546605D01*
X140533236Y-39562895D01*
X137964583Y-42131549D01*
X137921603Y-42123000D01*
X137778397Y-42123000D01*
X137637942Y-42150938D01*
X137576999Y-42176181D01*
X137576999Y-41286869D01*
X137795418Y-41068451D01*
X137838397Y-41077000D01*
X137981603Y-41077000D01*
X138122058Y-41049062D01*
X138254364Y-40994259D01*
X138373436Y-40914698D01*
X138474698Y-40813436D01*
X138554259Y-40694364D01*
X138609062Y-40562058D01*
X138637000Y-40421603D01*
X138637000Y-40278397D01*
X138609062Y-40137942D01*
X138554259Y-40005636D01*
X138474698Y-39886564D01*
X138373436Y-39785302D01*
X138254364Y-39705741D01*
X138122058Y-39650938D01*
X137981603Y-39623000D01*
X137838397Y-39623000D01*
X137697942Y-39650938D01*
X137565636Y-39705741D01*
X137446564Y-39785302D01*
X137345302Y-39886564D01*
X137265741Y-40005636D01*
X137210938Y-40137942D01*
X137183000Y-40278397D01*
X137183000Y-40421603D01*
X137191549Y-40464582D01*
X137176989Y-40479143D01*
X137176989Y-39166879D01*
X137775418Y-38568451D01*
X137818397Y-38577000D01*
X137961603Y-38577000D01*
X138102058Y-38549062D01*
X138234364Y-38494259D01*
X138353436Y-38414698D01*
X138454698Y-38313436D01*
X138534259Y-38194364D01*
X138589062Y-38062058D01*
X138617000Y-37921603D01*
X138617000Y-37778397D01*
X138589062Y-37637942D01*
X138534259Y-37505636D01*
X138454698Y-37386564D01*
X138353436Y-37285302D01*
X138234364Y-37205741D01*
X138102058Y-37150938D01*
X137961603Y-37123000D01*
X137818397Y-37123000D01*
X137677942Y-37150938D01*
X137545636Y-37205741D01*
X137426564Y-37285302D01*
X137325302Y-37386564D01*
X137245741Y-37505636D01*
X137190938Y-37637942D01*
X137163000Y-37778397D01*
X137163000Y-37921603D01*
X137171549Y-37964582D01*
X136462884Y-38673248D01*
X136446595Y-38686616D01*
X136433226Y-38702906D01*
X136433221Y-38702911D01*
X136393234Y-38751635D01*
X136353585Y-38825815D01*
X136329168Y-38906305D01*
X136320924Y-38990011D01*
X136322990Y-39010988D01*
X136322989Y-43330723D01*
X136320924Y-43351690D01*
X136322989Y-43372657D01*
X136322989Y-43372667D01*
X136329167Y-43435396D01*
X136353584Y-43515885D01*
X136353585Y-43515886D01*
X136393234Y-43590066D01*
X136413752Y-43615067D01*
X136446594Y-43655085D01*
X136462889Y-43668458D01*
X141192431Y-48398000D01*
X134102000Y-48398000D01*
X134102000Y-33852000D01*
X153398000Y-33852000D01*
X153398001Y-48398000D01*
M02*
