G04 #@! TF.GenerationSoftware,KiCad,Pcbnew,(5.1.5)-3*
G04 #@! TF.CreationDate,2020-05-27T20:05:24+09:00*
G04 #@! TF.ProjectId,FMU3_Sensors_make,464d5533-5f53-4656-9e73-6f72735f6d61,rev?*
G04 #@! TF.SameCoordinates,Original*
G04 #@! TF.FileFunction,Legend,Top*
G04 #@! TF.FilePolarity,Positive*
%FSLAX46Y46*%
G04 Gerber Fmt 4.6, Leading zero omitted, Abs format (unit mm)*
G04 Created by KiCad (PCBNEW (5.1.5)-3) date 2020-05-27 20:05:24*
%MOMM*%
%LPD*%
G04 APERTURE LIST*
%ADD10C,0.120000*%
%ADD11C,0.127000*%
%ADD12C,0.200000*%
%ADD13C,0.100000*%
%ADD14C,0.050000*%
G04 APERTURE END LIST*
D10*
X150600000Y-34500000D02*
X153100000Y-34500000D01*
X153100000Y-36350000D02*
X153100000Y-36850000D01*
X153100000Y-38850000D02*
X153100000Y-39350000D01*
X150600000Y-38850000D02*
X150600000Y-39350000D01*
X150600000Y-41350000D02*
X150600000Y-41850000D01*
X153100000Y-41350000D02*
X153100000Y-41850000D01*
X150600000Y-36350000D02*
X150600000Y-36850000D01*
X153100000Y-43850000D02*
X153100000Y-44350000D01*
X150600000Y-43850000D02*
X150600000Y-44350000D01*
D11*
X148690000Y-40400000D02*
X147690000Y-40400000D01*
X147690000Y-41360000D02*
X148690000Y-41360000D01*
X140670000Y-43280000D02*
X143670000Y-43280000D01*
X140670000Y-48280000D02*
X143670000Y-48280000D01*
D12*
X139893000Y-43907000D02*
G75*
G03X139893000Y-43907000I-100000J0D01*
G01*
D11*
X138620000Y-43840000D02*
X138620000Y-44840000D01*
X139580000Y-44840000D02*
X139580000Y-43840000D01*
X145740000Y-41860000D02*
X145740000Y-41710000D01*
X145740000Y-41710000D02*
X146390000Y-41710000D01*
X148190000Y-41710000D02*
X148840000Y-41710000D01*
X148840000Y-41710000D02*
X148840000Y-41860000D01*
X145740000Y-44660000D02*
X145740000Y-44810000D01*
X145740000Y-44810000D02*
X146390000Y-44810000D01*
X148190000Y-44810000D02*
X148840000Y-44810000D01*
X148840000Y-44810000D02*
X148840000Y-44660000D01*
D13*
X145440000Y-42260000D02*
G75*
G03X145440000Y-42260000I-50000J0D01*
G01*
D10*
X139770000Y-39720000D02*
X140570000Y-39720000D01*
X140570000Y-40920000D02*
X139770000Y-40920000D01*
D11*
X139950000Y-42090000D02*
X140950000Y-42090000D01*
X140950000Y-41130000D02*
X139950000Y-41130000D01*
D10*
X144220000Y-40670000D02*
X144220000Y-41470000D01*
X143020000Y-41470000D02*
X143020000Y-40670000D01*
D11*
X145740000Y-41310000D02*
X146740000Y-41310000D01*
X146740000Y-40350000D02*
X145740000Y-40350000D01*
X146290000Y-38200000D02*
X146290000Y-37200000D01*
X145330000Y-37200000D02*
X145330000Y-38200000D01*
D10*
X146750000Y-37850000D02*
X146750000Y-37050000D01*
X147950000Y-37050000D02*
X147950000Y-37850000D01*
D11*
X141180001Y-35925001D02*
X140930001Y-35925001D01*
X140930001Y-35925001D02*
X140930001Y-36175001D01*
X143780001Y-35925001D02*
X144030001Y-35925001D01*
X144030001Y-35925001D02*
X144030001Y-36175001D01*
X144030001Y-38775001D02*
X144030001Y-39025001D01*
X144030001Y-39025001D02*
X143780001Y-39025001D01*
X140930001Y-38775001D02*
X140930001Y-39025001D01*
X140930001Y-39025001D02*
X141180001Y-39025001D01*
D12*
X140180001Y-36475001D02*
G75*
G03X140180001Y-36475001I-100000J0D01*
G01*
D10*
X134625000Y-34500000D02*
X137125000Y-34500000D01*
X137125000Y-36350000D02*
X137125000Y-36850000D01*
X137125000Y-38850000D02*
X137125000Y-39350000D01*
X134625000Y-38850000D02*
X134625000Y-39350000D01*
X134625000Y-41350000D02*
X134625000Y-41850000D01*
X137125000Y-41350000D02*
X137125000Y-41850000D01*
X134625000Y-36350000D02*
X134625000Y-36850000D01*
X137125000Y-43850000D02*
X137125000Y-44350000D01*
X134625000Y-43850000D02*
X134625000Y-44350000D01*
D14*
X150683333Y-33990476D02*
X150683333Y-34133333D01*
X150673809Y-34161904D01*
X150654761Y-34180952D01*
X150626190Y-34190476D01*
X150607142Y-34190476D01*
X150769047Y-34009523D02*
X150778571Y-34000000D01*
X150797619Y-33990476D01*
X150845238Y-33990476D01*
X150864285Y-34000000D01*
X150873809Y-34009523D01*
X150883333Y-34028571D01*
X150883333Y-34047619D01*
X150873809Y-34076190D01*
X150759523Y-34190476D01*
X150883333Y-34190476D01*
X147656666Y-40195795D02*
X147647142Y-40205319D01*
X147618571Y-40214843D01*
X147599523Y-40214843D01*
X147570952Y-40205319D01*
X147551904Y-40186271D01*
X147542380Y-40167224D01*
X147532857Y-40129128D01*
X147532857Y-40100557D01*
X147542380Y-40062462D01*
X147551904Y-40043414D01*
X147570952Y-40024367D01*
X147599523Y-40014843D01*
X147618571Y-40014843D01*
X147647142Y-40024367D01*
X147656666Y-40033890D01*
X147837619Y-40014843D02*
X147742380Y-40014843D01*
X147732857Y-40110081D01*
X147742380Y-40100557D01*
X147761428Y-40091033D01*
X147809047Y-40091033D01*
X147828095Y-40100557D01*
X147837619Y-40110081D01*
X147847142Y-40129128D01*
X147847142Y-40176747D01*
X147837619Y-40195795D01*
X147828095Y-40205319D01*
X147809047Y-40214843D01*
X147761428Y-40214843D01*
X147742380Y-40205319D01*
X147732857Y-40195795D01*
X140317619Y-42570476D02*
X140317619Y-42732380D01*
X140327142Y-42751428D01*
X140336666Y-42760952D01*
X140355714Y-42770476D01*
X140393809Y-42770476D01*
X140412857Y-42760952D01*
X140422380Y-42751428D01*
X140431904Y-42732380D01*
X140431904Y-42570476D01*
X140517619Y-42589523D02*
X140527142Y-42580000D01*
X140546190Y-42570476D01*
X140593809Y-42570476D01*
X140612857Y-42580000D01*
X140622380Y-42589523D01*
X140631904Y-42608571D01*
X140631904Y-42627619D01*
X140622380Y-42656190D01*
X140508095Y-42770476D01*
X140631904Y-42770476D01*
X139927061Y-43873333D02*
X139936585Y-43882857D01*
X139946109Y-43911428D01*
X139946109Y-43930476D01*
X139936585Y-43959047D01*
X139917537Y-43978095D01*
X139898490Y-43987619D01*
X139860394Y-43997142D01*
X139831823Y-43997142D01*
X139793728Y-43987619D01*
X139774680Y-43978095D01*
X139755633Y-43959047D01*
X139746109Y-43930476D01*
X139746109Y-43911428D01*
X139755633Y-43882857D01*
X139765156Y-43873333D01*
X139812775Y-43701904D02*
X139946109Y-43701904D01*
X139736585Y-43749523D02*
X139879442Y-43797142D01*
X139879442Y-43673333D01*
X145837619Y-41150476D02*
X145837619Y-41312380D01*
X145847142Y-41331428D01*
X145856666Y-41340952D01*
X145875714Y-41350476D01*
X145913809Y-41350476D01*
X145932857Y-41340952D01*
X145942380Y-41331428D01*
X145951904Y-41312380D01*
X145951904Y-41150476D01*
X146028095Y-41150476D02*
X146151904Y-41150476D01*
X146085238Y-41226666D01*
X146113809Y-41226666D01*
X146132857Y-41236190D01*
X146142380Y-41245714D01*
X146151904Y-41264761D01*
X146151904Y-41312380D01*
X146142380Y-41331428D01*
X146132857Y-41340952D01*
X146113809Y-41350476D01*
X146056666Y-41350476D01*
X146037619Y-41340952D01*
X146028095Y-41331428D01*
X141236666Y-41291428D02*
X141227142Y-41300952D01*
X141198571Y-41310476D01*
X141179523Y-41310476D01*
X141150952Y-41300952D01*
X141131904Y-41281904D01*
X141122380Y-41262857D01*
X141112857Y-41224761D01*
X141112857Y-41196190D01*
X141122380Y-41158095D01*
X141131904Y-41139047D01*
X141150952Y-41120000D01*
X141179523Y-41110476D01*
X141198571Y-41110476D01*
X141227142Y-41120000D01*
X141236666Y-41129523D01*
X141427142Y-41310476D02*
X141312857Y-41310476D01*
X141370000Y-41310476D02*
X141370000Y-41110476D01*
X141350952Y-41139047D01*
X141331904Y-41158095D01*
X141312857Y-41167619D01*
X140916666Y-42437061D02*
X140907142Y-42446585D01*
X140878571Y-42456109D01*
X140859523Y-42456109D01*
X140830952Y-42446585D01*
X140811904Y-42427537D01*
X140802380Y-42408490D01*
X140792857Y-42370394D01*
X140792857Y-42341823D01*
X140802380Y-42303728D01*
X140811904Y-42284680D01*
X140830952Y-42265633D01*
X140859523Y-42256109D01*
X140878571Y-42256109D01*
X140907142Y-42265633D01*
X140916666Y-42275156D01*
X140992857Y-42275156D02*
X141002380Y-42265633D01*
X141021428Y-42256109D01*
X141069047Y-42256109D01*
X141088095Y-42265633D01*
X141097619Y-42275156D01*
X141107142Y-42294204D01*
X141107142Y-42313252D01*
X141097619Y-42341823D01*
X140983333Y-42456109D01*
X141107142Y-42456109D01*
X144591428Y-40003333D02*
X144600952Y-40012857D01*
X144610476Y-40041428D01*
X144610476Y-40060476D01*
X144600952Y-40089047D01*
X144581904Y-40108095D01*
X144562857Y-40117619D01*
X144524761Y-40127142D01*
X144496190Y-40127142D01*
X144458095Y-40117619D01*
X144439047Y-40108095D01*
X144420000Y-40089047D01*
X144410476Y-40060476D01*
X144410476Y-40041428D01*
X144420000Y-40012857D01*
X144429523Y-40003333D01*
X144410476Y-39936666D02*
X144410476Y-39812857D01*
X144486666Y-39879523D01*
X144486666Y-39850952D01*
X144496190Y-39831904D01*
X144505714Y-39822380D01*
X144524761Y-39812857D01*
X144572380Y-39812857D01*
X144591428Y-39822380D01*
X144600952Y-39831904D01*
X144610476Y-39850952D01*
X144610476Y-39908095D01*
X144600952Y-39927142D01*
X144591428Y-39936666D01*
X146706666Y-41657061D02*
X146697142Y-41666585D01*
X146668571Y-41676109D01*
X146649523Y-41676109D01*
X146620952Y-41666585D01*
X146601904Y-41647537D01*
X146592380Y-41628490D01*
X146582857Y-41590394D01*
X146582857Y-41561823D01*
X146592380Y-41523728D01*
X146601904Y-41504680D01*
X146620952Y-41485633D01*
X146649523Y-41476109D01*
X146668571Y-41476109D01*
X146697142Y-41485633D01*
X146706666Y-41495156D01*
X146878095Y-41476109D02*
X146840000Y-41476109D01*
X146820952Y-41485633D01*
X146811428Y-41495156D01*
X146792380Y-41523728D01*
X146782857Y-41561823D01*
X146782857Y-41638013D01*
X146792380Y-41657061D01*
X146801904Y-41666585D01*
X146820952Y-41676109D01*
X146859047Y-41676109D01*
X146878095Y-41666585D01*
X146887619Y-41657061D01*
X146897142Y-41638013D01*
X146897142Y-41590394D01*
X146887619Y-41571347D01*
X146878095Y-41561823D01*
X146859047Y-41552299D01*
X146820952Y-41552299D01*
X146801904Y-41561823D01*
X146792380Y-41571347D01*
X146782857Y-41590394D01*
X145125795Y-38233333D02*
X145135319Y-38242857D01*
X145144843Y-38271428D01*
X145144843Y-38290476D01*
X145135319Y-38319047D01*
X145116271Y-38338095D01*
X145097224Y-38347619D01*
X145059128Y-38357142D01*
X145030557Y-38357142D01*
X144992462Y-38347619D01*
X144973414Y-38338095D01*
X144954367Y-38319047D01*
X144944843Y-38290476D01*
X144944843Y-38271428D01*
X144954367Y-38242857D01*
X144963890Y-38233333D01*
X144944843Y-38166666D02*
X144944843Y-38033333D01*
X145144843Y-38119047D01*
X146521428Y-38583333D02*
X146530952Y-38592857D01*
X146540476Y-38621428D01*
X146540476Y-38640476D01*
X146530952Y-38669047D01*
X146511904Y-38688095D01*
X146492857Y-38697619D01*
X146454761Y-38707142D01*
X146426190Y-38707142D01*
X146388095Y-38697619D01*
X146369047Y-38688095D01*
X146350000Y-38669047D01*
X146340476Y-38640476D01*
X146340476Y-38621428D01*
X146350000Y-38592857D01*
X146359523Y-38583333D01*
X146426190Y-38469047D02*
X146416666Y-38488095D01*
X146407142Y-38497619D01*
X146388095Y-38507142D01*
X146378571Y-38507142D01*
X146359523Y-38497619D01*
X146350000Y-38488095D01*
X146340476Y-38469047D01*
X146340476Y-38430952D01*
X146350000Y-38411904D01*
X146359523Y-38402380D01*
X146378571Y-38392857D01*
X146388095Y-38392857D01*
X146407142Y-38402380D01*
X146416666Y-38411904D01*
X146426190Y-38430952D01*
X146426190Y-38469047D01*
X146435714Y-38488095D01*
X146445238Y-38497619D01*
X146464285Y-38507142D01*
X146502380Y-38507142D01*
X146521428Y-38497619D01*
X146530952Y-38488095D01*
X146540476Y-38469047D01*
X146540476Y-38430952D01*
X146530952Y-38411904D01*
X146521428Y-38402380D01*
X146502380Y-38392857D01*
X146464285Y-38392857D01*
X146445238Y-38402380D01*
X146435714Y-38411904D01*
X146426190Y-38430952D01*
X147060476Y-35863333D02*
X146965238Y-35930000D01*
X147060476Y-35977619D02*
X146860476Y-35977619D01*
X146860476Y-35901428D01*
X146870000Y-35882380D01*
X146879523Y-35872857D01*
X146898571Y-35863333D01*
X146927142Y-35863333D01*
X146946190Y-35872857D01*
X146955714Y-35882380D01*
X146965238Y-35901428D01*
X146965238Y-35977619D01*
X147060476Y-35672857D02*
X147060476Y-35787142D01*
X147060476Y-35730000D02*
X146860476Y-35730000D01*
X146889047Y-35749047D01*
X146908095Y-35768095D01*
X146917619Y-35787142D01*
X140457619Y-35420476D02*
X140457619Y-35582380D01*
X140467142Y-35601428D01*
X140476666Y-35610952D01*
X140495714Y-35620476D01*
X140533809Y-35620476D01*
X140552857Y-35610952D01*
X140562380Y-35601428D01*
X140571904Y-35582380D01*
X140571904Y-35420476D01*
X140771904Y-35620476D02*
X140657619Y-35620476D01*
X140714761Y-35620476D02*
X140714761Y-35420476D01*
X140695714Y-35449047D01*
X140676666Y-35468095D01*
X140657619Y-35477619D01*
X134708333Y-33990476D02*
X134708333Y-34133333D01*
X134698809Y-34161904D01*
X134679761Y-34180952D01*
X134651190Y-34190476D01*
X134632142Y-34190476D01*
X134908333Y-34190476D02*
X134794047Y-34190476D01*
X134851190Y-34190476D02*
X134851190Y-33990476D01*
X134832142Y-34019047D01*
X134813095Y-34038095D01*
X134794047Y-34047619D01*
M02*
