G04 #@! TF.GenerationSoftware,KiCad,Pcbnew,(5.1.5)-3*
G04 #@! TF.CreationDate,2020-06-02T09:59:11+09:00*
G04 #@! TF.ProjectId,FMU3_Sensors_make,464d5533-5f53-4656-9e73-6f72735f6d61,rev?*
G04 #@! TF.SameCoordinates,Original*
G04 #@! TF.FileFunction,Copper,L2,Bot*
G04 #@! TF.FilePolarity,Positive*
%FSLAX46Y46*%
G04 Gerber Fmt 4.6, Leading zero omitted, Abs format (unit mm)*
G04 Created by KiCad (PCBNEW (5.1.5)-3) date 2020-06-02 09:59:11*
%MOMM*%
%LPD*%
G04 APERTURE LIST*
%ADD10C,0.800000*%
%ADD11C,0.200000*%
%ADD12C,0.250000*%
G04 APERTURE END LIST*
D10*
X140590000Y-30010000D03*
X141450000Y-26390000D03*
X131200000Y-35970000D03*
X133890000Y-26650000D03*
X134830000Y-28690000D03*
X144997653Y-36517653D03*
X141478000Y-24384000D03*
X143256000Y-28702000D03*
X140440010Y-27960000D03*
X138460000Y-36800000D03*
X144910000Y-26620000D03*
X141300000Y-36330000D03*
X144840000Y-29130000D03*
X138122981Y-28942888D03*
X139970000Y-35860000D03*
X133225000Y-31850000D03*
X139870000Y-33550000D03*
X133175000Y-29350000D03*
X136780000Y-23890000D03*
X133175000Y-27450000D03*
X140190000Y-31860000D03*
X138170000Y-22625000D03*
D11*
X140989999Y-29610001D02*
X140590000Y-30010000D01*
X141849999Y-28750001D02*
X140989999Y-29610001D01*
X141849999Y-26789999D02*
X141849999Y-28750001D01*
X141450000Y-26390000D02*
X141849999Y-26789999D01*
X138460000Y-36800000D02*
X139080000Y-37420000D01*
X139080000Y-37420000D02*
X142550000Y-37420000D01*
X142550000Y-37420000D02*
X146290000Y-33680000D01*
X146290000Y-28000000D02*
X144910000Y-26620000D01*
X146290000Y-33680000D02*
X146290000Y-28000000D01*
D12*
X144840000Y-32790000D02*
X141300000Y-36330000D01*
X144840000Y-29130000D02*
X144840000Y-32790000D01*
D11*
X138122981Y-29508573D02*
X138122981Y-28942888D01*
X139404315Y-35860000D02*
X138122981Y-34578666D01*
X139970000Y-35860000D02*
X139404315Y-35860000D01*
X138100000Y-31850000D02*
X138125000Y-31875000D01*
X133225000Y-31850000D02*
X138100000Y-31850000D01*
X138122981Y-34578666D02*
X138125000Y-31875000D01*
X138125000Y-31875000D02*
X138122981Y-29508573D01*
D12*
X133175000Y-29350000D02*
X133240001Y-29415001D01*
D11*
X133574999Y-29749999D02*
X135330001Y-29749999D01*
X133175000Y-29350000D02*
X133574999Y-29749999D01*
X135330001Y-29749999D02*
X138170000Y-26910000D01*
X139340000Y-26450000D02*
X136780000Y-23890000D01*
X139870000Y-33550000D02*
X139339991Y-33019991D01*
X139339991Y-33019991D02*
X139340000Y-27740000D01*
X139330000Y-26910000D02*
X139340000Y-26920000D01*
X138170000Y-26910000D02*
X139330000Y-26910000D01*
X139340000Y-27740000D02*
X139340000Y-26920000D01*
X139340000Y-26920000D02*
X139340000Y-26450000D01*
X139740010Y-31410010D02*
X139740010Y-25814008D01*
X140190000Y-31860000D02*
X139740010Y-31410010D01*
X137116001Y-23189999D02*
X136313999Y-23189999D01*
X133175000Y-26328998D02*
X133175000Y-27450000D01*
X136313999Y-23189999D02*
X133175000Y-26328998D01*
X138170000Y-22625000D02*
X138170000Y-23190685D01*
X138170000Y-23190685D02*
X138170000Y-24250000D01*
X139740010Y-25814008D02*
X138170000Y-24250000D01*
X138170000Y-24250000D02*
X137116001Y-23189999D01*
G36*
X137496901Y-22420818D02*
G01*
X137470000Y-22556056D01*
X137470000Y-22693944D01*
X137496901Y-22829182D01*
X137549668Y-22956574D01*
X137626274Y-23071224D01*
X137723776Y-23168726D01*
X137770000Y-23199612D01*
X137770000Y-23280425D01*
X137413102Y-22921495D01*
X137400212Y-22905788D01*
X137369964Y-22880964D01*
X137340251Y-22856438D01*
X137339751Y-22856169D01*
X137339304Y-22855802D01*
X137304743Y-22837329D01*
X137270868Y-22819098D01*
X137270325Y-22818932D01*
X137269815Y-22818659D01*
X137232323Y-22807286D01*
X137195533Y-22796012D01*
X137194968Y-22795955D01*
X137194415Y-22795787D01*
X137155545Y-22791959D01*
X137117142Y-22788066D01*
X137096927Y-22789999D01*
X136333645Y-22789999D01*
X136313999Y-22788064D01*
X136294352Y-22789999D01*
X136235585Y-22795787D01*
X136160185Y-22818659D01*
X136091878Y-22855170D01*
X136090696Y-22855802D01*
X136045048Y-22893264D01*
X136045046Y-22893266D01*
X136029788Y-22905788D01*
X136017266Y-22921046D01*
X132906052Y-26032261D01*
X132890789Y-26044787D01*
X132840803Y-26105696D01*
X132803660Y-26175185D01*
X132793594Y-26208369D01*
X132780788Y-26250585D01*
X132773065Y-26328998D01*
X132775000Y-26348645D01*
X132775000Y-26875388D01*
X132728776Y-26906274D01*
X132631274Y-27003776D01*
X132554668Y-27118426D01*
X132501901Y-27245818D01*
X132475000Y-27381056D01*
X132475000Y-27518944D01*
X132501901Y-27654182D01*
X132554668Y-27781574D01*
X132631274Y-27896224D01*
X132728776Y-27993726D01*
X132843426Y-28070332D01*
X132970818Y-28123099D01*
X133106056Y-28150000D01*
X133243944Y-28150000D01*
X133379182Y-28123099D01*
X133506574Y-28070332D01*
X133621224Y-27993726D01*
X133718726Y-27896224D01*
X133795332Y-27781574D01*
X133848099Y-27654182D01*
X133875000Y-27518944D01*
X133875000Y-27381056D01*
X133848099Y-27245818D01*
X133795332Y-27118426D01*
X133718726Y-27003776D01*
X133621224Y-26906274D01*
X133575000Y-26875388D01*
X133575000Y-26494683D01*
X136085100Y-23984584D01*
X136106901Y-24094182D01*
X136159668Y-24221574D01*
X136236274Y-24336224D01*
X136333776Y-24433726D01*
X136448426Y-24510332D01*
X136575818Y-24563099D01*
X136711056Y-24590000D01*
X136848944Y-24590000D01*
X136903469Y-24579154D01*
X138834315Y-26510000D01*
X138189635Y-26510000D01*
X138169999Y-26508066D01*
X138150363Y-26510000D01*
X138150353Y-26510000D01*
X138091586Y-26515788D01*
X138016186Y-26538660D01*
X137946697Y-26575803D01*
X137914495Y-26602231D01*
X137901049Y-26613265D01*
X137901047Y-26613267D01*
X137885789Y-26625789D01*
X137873267Y-26641047D01*
X135164316Y-29349999D01*
X133875000Y-29349999D01*
X133875000Y-29281056D01*
X133848099Y-29145818D01*
X133795332Y-29018426D01*
X133718726Y-28903776D01*
X133621224Y-28806274D01*
X133506574Y-28729668D01*
X133379182Y-28676901D01*
X133243944Y-28650000D01*
X133106056Y-28650000D01*
X132970818Y-28676901D01*
X132843426Y-28729668D01*
X132728776Y-28806274D01*
X132631274Y-28903776D01*
X132554668Y-29018426D01*
X132501901Y-29145818D01*
X132475000Y-29281056D01*
X132475000Y-29418944D01*
X132501901Y-29554182D01*
X132554668Y-29681574D01*
X132631274Y-29796224D01*
X132728776Y-29893726D01*
X132843426Y-29970332D01*
X132970818Y-30023099D01*
X133106056Y-30050000D01*
X133243944Y-30050000D01*
X133297136Y-30039419D01*
X133306046Y-30046732D01*
X133306048Y-30046734D01*
X133310028Y-30050000D01*
X133351696Y-30084196D01*
X133421185Y-30121339D01*
X133496585Y-30144211D01*
X133574998Y-30151934D01*
X133594645Y-30149999D01*
X135310355Y-30149999D01*
X135330001Y-30151934D01*
X135349647Y-30149999D01*
X135349648Y-30149999D01*
X135408415Y-30144211D01*
X135483815Y-30121339D01*
X135553304Y-30084196D01*
X135614212Y-30034210D01*
X135626738Y-30018947D01*
X138335686Y-27310000D01*
X138940001Y-27310000D01*
X138940000Y-27759646D01*
X138940001Y-27759655D01*
X138939991Y-33000344D01*
X138938056Y-33019991D01*
X138939991Y-33039637D01*
X138945779Y-33098404D01*
X138968651Y-33173804D01*
X138968652Y-33173805D01*
X139005794Y-33243293D01*
X139040669Y-33285788D01*
X139055780Y-33304201D01*
X139071037Y-33316722D01*
X139180846Y-33426531D01*
X139170000Y-33481056D01*
X139170000Y-33618944D01*
X139196901Y-33754182D01*
X139249668Y-33881574D01*
X139326274Y-33996224D01*
X139423776Y-34093726D01*
X139538426Y-34170332D01*
X139665818Y-34223099D01*
X139801056Y-34250000D01*
X139938944Y-34250000D01*
X140074182Y-34223099D01*
X140201574Y-34170332D01*
X140316224Y-34093726D01*
X140413726Y-33996224D01*
X140490332Y-33881574D01*
X140543099Y-33754182D01*
X140570000Y-33618944D01*
X140570000Y-33481056D01*
X140543099Y-33345818D01*
X140490332Y-33218426D01*
X140413726Y-33103776D01*
X140316224Y-33006274D01*
X140201574Y-32929668D01*
X140074182Y-32876901D01*
X139938944Y-32850000D01*
X139801056Y-32850000D01*
X139746531Y-32860846D01*
X139739990Y-32854305D01*
X139739991Y-32399941D01*
X139743776Y-32403726D01*
X139858426Y-32480332D01*
X139985818Y-32533099D01*
X140121056Y-32560000D01*
X140258944Y-32560000D01*
X140394182Y-32533099D01*
X140521574Y-32480332D01*
X140636224Y-32403726D01*
X140733726Y-32306224D01*
X140810332Y-32191574D01*
X140863099Y-32064182D01*
X140890000Y-31928944D01*
X140890000Y-31791056D01*
X140863099Y-31655818D01*
X140810332Y-31528426D01*
X140733726Y-31413776D01*
X140636224Y-31316274D01*
X140521574Y-31239668D01*
X140394182Y-31186901D01*
X140258944Y-31160000D01*
X140140010Y-31160000D01*
X140140010Y-30549960D01*
X140143776Y-30553726D01*
X140258426Y-30630332D01*
X140385818Y-30683099D01*
X140521056Y-30710000D01*
X140658944Y-30710000D01*
X140794182Y-30683099D01*
X140921574Y-30630332D01*
X141036224Y-30553726D01*
X141133726Y-30456224D01*
X141210332Y-30341574D01*
X141263099Y-30214182D01*
X141290000Y-30078944D01*
X141290000Y-29941056D01*
X141279154Y-29886532D01*
X141286734Y-29878952D01*
X141286739Y-29878946D01*
X142118947Y-29046738D01*
X142134210Y-29034212D01*
X142184196Y-28973304D01*
X142221339Y-28903815D01*
X142244211Y-28828415D01*
X142249999Y-28769648D01*
X142251934Y-28750001D01*
X142249999Y-28730354D01*
X142249999Y-26809645D01*
X142251934Y-26789998D01*
X142244211Y-26711585D01*
X142237343Y-26688944D01*
X142221339Y-26636185D01*
X142184196Y-26566696D01*
X142146734Y-26521048D01*
X142146732Y-26521046D01*
X142139419Y-26512136D01*
X142150000Y-26458944D01*
X142150000Y-26321056D01*
X142123099Y-26185818D01*
X142070332Y-26058426D01*
X141993726Y-25943776D01*
X141896224Y-25846274D01*
X141781574Y-25769668D01*
X141654182Y-25716901D01*
X141518944Y-25690000D01*
X141381056Y-25690000D01*
X141245818Y-25716901D01*
X141118426Y-25769668D01*
X141003776Y-25846274D01*
X140906274Y-25943776D01*
X140829668Y-26058426D01*
X140776901Y-26185818D01*
X140750000Y-26321056D01*
X140750000Y-26458944D01*
X140776901Y-26594182D01*
X140829668Y-26721574D01*
X140906274Y-26836224D01*
X141003776Y-26933726D01*
X141118426Y-27010332D01*
X141245818Y-27063099D01*
X141381056Y-27090000D01*
X141449999Y-27090000D01*
X141450000Y-28584315D01*
X140721054Y-29313261D01*
X140721048Y-29313266D01*
X140713468Y-29320846D01*
X140658944Y-29310000D01*
X140521056Y-29310000D01*
X140385818Y-29336901D01*
X140258426Y-29389668D01*
X140143776Y-29466274D01*
X140140010Y-29470040D01*
X140140010Y-25833259D01*
X140141943Y-25813237D01*
X140138101Y-25774982D01*
X140134222Y-25735594D01*
X140134108Y-25735219D01*
X140134070Y-25734838D01*
X140122759Y-25697805D01*
X140111350Y-25660194D01*
X140111167Y-25659851D01*
X140111054Y-25659482D01*
X140092670Y-25625246D01*
X140074207Y-25590705D01*
X140073960Y-25590404D01*
X140073778Y-25590065D01*
X140048972Y-25559956D01*
X140024221Y-25529797D01*
X140008666Y-25517031D01*
X138570000Y-24083867D01*
X138570000Y-23199612D01*
X138616224Y-23168726D01*
X138713726Y-23071224D01*
X138790332Y-22956574D01*
X138843099Y-22829182D01*
X138870000Y-22693944D01*
X138870000Y-22556056D01*
X138843099Y-22420818D01*
X138803410Y-22325000D01*
X148675000Y-22325000D01*
X148675001Y-37675000D01*
X142860685Y-37675000D01*
X146558949Y-33976736D01*
X146574211Y-33964211D01*
X146624197Y-33903303D01*
X146661340Y-33833814D01*
X146684212Y-33758414D01*
X146690000Y-33699647D01*
X146690000Y-33699646D01*
X146691935Y-33680000D01*
X146690000Y-33660353D01*
X146690000Y-28019647D01*
X146691935Y-28000000D01*
X146684212Y-27921586D01*
X146661340Y-27846186D01*
X146624197Y-27776697D01*
X146610204Y-27759647D01*
X146574211Y-27715789D01*
X146558948Y-27703263D01*
X145599154Y-26743469D01*
X145610000Y-26688944D01*
X145610000Y-26551056D01*
X145583099Y-26415818D01*
X145530332Y-26288426D01*
X145453726Y-26173776D01*
X145356224Y-26076274D01*
X145241574Y-25999668D01*
X145114182Y-25946901D01*
X144978944Y-25920000D01*
X144841056Y-25920000D01*
X144705818Y-25946901D01*
X144578426Y-25999668D01*
X144463776Y-26076274D01*
X144366274Y-26173776D01*
X144289668Y-26288426D01*
X144236901Y-26415818D01*
X144210000Y-26551056D01*
X144210000Y-26688944D01*
X144236901Y-26824182D01*
X144289668Y-26951574D01*
X144366274Y-27066224D01*
X144463776Y-27163726D01*
X144578426Y-27240332D01*
X144705818Y-27293099D01*
X144841056Y-27320000D01*
X144978944Y-27320000D01*
X145033469Y-27309154D01*
X145890001Y-28165686D01*
X145890000Y-33514315D01*
X142384315Y-37020000D01*
X141419216Y-37020000D01*
X141504182Y-37003099D01*
X141631574Y-36950332D01*
X141746224Y-36873726D01*
X141843726Y-36776224D01*
X141920332Y-36661574D01*
X141973099Y-36534182D01*
X142000000Y-36398944D01*
X142000000Y-36261056D01*
X141995020Y-36236020D01*
X145125762Y-33105279D01*
X145141974Y-33091974D01*
X145195084Y-33027260D01*
X145234548Y-32953427D01*
X145258850Y-32873314D01*
X145265000Y-32810874D01*
X145265000Y-32810868D01*
X145267055Y-32790001D01*
X145265000Y-32769134D01*
X145265000Y-29687907D01*
X145286224Y-29673726D01*
X145383726Y-29576224D01*
X145460332Y-29461574D01*
X145513099Y-29334182D01*
X145540000Y-29198944D01*
X145540000Y-29061056D01*
X145513099Y-28925818D01*
X145460332Y-28798426D01*
X145383726Y-28683776D01*
X145286224Y-28586274D01*
X145171574Y-28509668D01*
X145044182Y-28456901D01*
X144908944Y-28430000D01*
X144771056Y-28430000D01*
X144635818Y-28456901D01*
X144508426Y-28509668D01*
X144393776Y-28586274D01*
X144296274Y-28683776D01*
X144219668Y-28798426D01*
X144166901Y-28925818D01*
X144140000Y-29061056D01*
X144140000Y-29198944D01*
X144166901Y-29334182D01*
X144219668Y-29461574D01*
X144296274Y-29576224D01*
X144393776Y-29673726D01*
X144415000Y-29687907D01*
X144415001Y-32613958D01*
X141393980Y-35634980D01*
X141368944Y-35630000D01*
X141231056Y-35630000D01*
X141095818Y-35656901D01*
X140968426Y-35709668D01*
X140853776Y-35786274D01*
X140756274Y-35883776D01*
X140679668Y-35998426D01*
X140626901Y-36125818D01*
X140600000Y-36261056D01*
X140600000Y-36398944D01*
X140626901Y-36534182D01*
X140679668Y-36661574D01*
X140756274Y-36776224D01*
X140853776Y-36873726D01*
X140968426Y-36950332D01*
X141095818Y-37003099D01*
X141180784Y-37020000D01*
X139245685Y-37020000D01*
X139149154Y-36923469D01*
X139160000Y-36868944D01*
X139160000Y-36731056D01*
X139133099Y-36595818D01*
X139080332Y-36468426D01*
X139003726Y-36353776D01*
X138906224Y-36256274D01*
X138791574Y-36179668D01*
X138664182Y-36126901D01*
X138528944Y-36100000D01*
X138391056Y-36100000D01*
X138255818Y-36126901D01*
X138128426Y-36179668D01*
X138013776Y-36256274D01*
X137916274Y-36353776D01*
X137839668Y-36468426D01*
X137786901Y-36595818D01*
X137760000Y-36731056D01*
X137760000Y-36868944D01*
X137786901Y-37004182D01*
X137839668Y-37131574D01*
X137916274Y-37246224D01*
X138013776Y-37343726D01*
X138128426Y-37420332D01*
X138255818Y-37473099D01*
X138391056Y-37500000D01*
X138528944Y-37500000D01*
X138583469Y-37489154D01*
X138769315Y-37675000D01*
X129575000Y-37675000D01*
X129575000Y-31781056D01*
X132525000Y-31781056D01*
X132525000Y-31918944D01*
X132551901Y-32054182D01*
X132604668Y-32181574D01*
X132681274Y-32296224D01*
X132778776Y-32393726D01*
X132893426Y-32470332D01*
X133020818Y-32523099D01*
X133156056Y-32550000D01*
X133293944Y-32550000D01*
X133429182Y-32523099D01*
X133556574Y-32470332D01*
X133671224Y-32393726D01*
X133768726Y-32296224D01*
X133799612Y-32250000D01*
X137724720Y-32250000D01*
X137722996Y-34558865D01*
X137721046Y-34578666D01*
X137724956Y-34618370D01*
X137728711Y-34656785D01*
X137728754Y-34656927D01*
X137728769Y-34657079D01*
X137740214Y-34694809D01*
X137751527Y-34732202D01*
X137751598Y-34732335D01*
X137751642Y-34732480D01*
X137770264Y-34767319D01*
X137788618Y-34801719D01*
X137788713Y-34801834D01*
X137788784Y-34801968D01*
X137813880Y-34832548D01*
X137838558Y-34862664D01*
X137853923Y-34875293D01*
X139107582Y-36128953D01*
X139120104Y-36144211D01*
X139135362Y-36156733D01*
X139135364Y-36156735D01*
X139181012Y-36194197D01*
X139250500Y-36231340D01*
X139325901Y-36254212D01*
X139396144Y-36261130D01*
X139426274Y-36306224D01*
X139523776Y-36403726D01*
X139638426Y-36480332D01*
X139765818Y-36533099D01*
X139901056Y-36560000D01*
X140038944Y-36560000D01*
X140174182Y-36533099D01*
X140301574Y-36480332D01*
X140416224Y-36403726D01*
X140513726Y-36306224D01*
X140590332Y-36191574D01*
X140643099Y-36064182D01*
X140670000Y-35928944D01*
X140670000Y-35791056D01*
X140643099Y-35655818D01*
X140590332Y-35528426D01*
X140513726Y-35413776D01*
X140416224Y-35316274D01*
X140301574Y-35239668D01*
X140174182Y-35186901D01*
X140038944Y-35160000D01*
X139901056Y-35160000D01*
X139765818Y-35186901D01*
X139638426Y-35239668D01*
X139523776Y-35316274D01*
X139475025Y-35365025D01*
X138523105Y-34413104D01*
X138524985Y-31894790D01*
X138526934Y-31874999D01*
X138524983Y-31855186D01*
X138522989Y-29517494D01*
X138569205Y-29486614D01*
X138666707Y-29389112D01*
X138743313Y-29274462D01*
X138796080Y-29147070D01*
X138822981Y-29011832D01*
X138822981Y-28873944D01*
X138796080Y-28738706D01*
X138743313Y-28611314D01*
X138666707Y-28496664D01*
X138569205Y-28399162D01*
X138454555Y-28322556D01*
X138327163Y-28269789D01*
X138191925Y-28242888D01*
X138054037Y-28242888D01*
X137918799Y-28269789D01*
X137791407Y-28322556D01*
X137676757Y-28399162D01*
X137579255Y-28496664D01*
X137502649Y-28611314D01*
X137449882Y-28738706D01*
X137422981Y-28873944D01*
X137422981Y-29011832D01*
X137449882Y-29147070D01*
X137502649Y-29274462D01*
X137579255Y-29389112D01*
X137676757Y-29486614D01*
X137722981Y-29517500D01*
X137722981Y-29528219D01*
X137722998Y-29528395D01*
X137724637Y-31450000D01*
X133799612Y-31450000D01*
X133768726Y-31403776D01*
X133671224Y-31306274D01*
X133556574Y-31229668D01*
X133429182Y-31176901D01*
X133293944Y-31150000D01*
X133156056Y-31150000D01*
X133020818Y-31176901D01*
X132893426Y-31229668D01*
X132778776Y-31306274D01*
X132681274Y-31403776D01*
X132604668Y-31518426D01*
X132551901Y-31645818D01*
X132525000Y-31781056D01*
X129575000Y-31781056D01*
X129575000Y-22325000D01*
X137536590Y-22325000D01*
X137496901Y-22420818D01*
G37*
X137496901Y-22420818D02*
X137470000Y-22556056D01*
X137470000Y-22693944D01*
X137496901Y-22829182D01*
X137549668Y-22956574D01*
X137626274Y-23071224D01*
X137723776Y-23168726D01*
X137770000Y-23199612D01*
X137770000Y-23280425D01*
X137413102Y-22921495D01*
X137400212Y-22905788D01*
X137369964Y-22880964D01*
X137340251Y-22856438D01*
X137339751Y-22856169D01*
X137339304Y-22855802D01*
X137304743Y-22837329D01*
X137270868Y-22819098D01*
X137270325Y-22818932D01*
X137269815Y-22818659D01*
X137232323Y-22807286D01*
X137195533Y-22796012D01*
X137194968Y-22795955D01*
X137194415Y-22795787D01*
X137155545Y-22791959D01*
X137117142Y-22788066D01*
X137096927Y-22789999D01*
X136333645Y-22789999D01*
X136313999Y-22788064D01*
X136294352Y-22789999D01*
X136235585Y-22795787D01*
X136160185Y-22818659D01*
X136091878Y-22855170D01*
X136090696Y-22855802D01*
X136045048Y-22893264D01*
X136045046Y-22893266D01*
X136029788Y-22905788D01*
X136017266Y-22921046D01*
X132906052Y-26032261D01*
X132890789Y-26044787D01*
X132840803Y-26105696D01*
X132803660Y-26175185D01*
X132793594Y-26208369D01*
X132780788Y-26250585D01*
X132773065Y-26328998D01*
X132775000Y-26348645D01*
X132775000Y-26875388D01*
X132728776Y-26906274D01*
X132631274Y-27003776D01*
X132554668Y-27118426D01*
X132501901Y-27245818D01*
X132475000Y-27381056D01*
X132475000Y-27518944D01*
X132501901Y-27654182D01*
X132554668Y-27781574D01*
X132631274Y-27896224D01*
X132728776Y-27993726D01*
X132843426Y-28070332D01*
X132970818Y-28123099D01*
X133106056Y-28150000D01*
X133243944Y-28150000D01*
X133379182Y-28123099D01*
X133506574Y-28070332D01*
X133621224Y-27993726D01*
X133718726Y-27896224D01*
X133795332Y-27781574D01*
X133848099Y-27654182D01*
X133875000Y-27518944D01*
X133875000Y-27381056D01*
X133848099Y-27245818D01*
X133795332Y-27118426D01*
X133718726Y-27003776D01*
X133621224Y-26906274D01*
X133575000Y-26875388D01*
X133575000Y-26494683D01*
X136085100Y-23984584D01*
X136106901Y-24094182D01*
X136159668Y-24221574D01*
X136236274Y-24336224D01*
X136333776Y-24433726D01*
X136448426Y-24510332D01*
X136575818Y-24563099D01*
X136711056Y-24590000D01*
X136848944Y-24590000D01*
X136903469Y-24579154D01*
X138834315Y-26510000D01*
X138189635Y-26510000D01*
X138169999Y-26508066D01*
X138150363Y-26510000D01*
X138150353Y-26510000D01*
X138091586Y-26515788D01*
X138016186Y-26538660D01*
X137946697Y-26575803D01*
X137914495Y-26602231D01*
X137901049Y-26613265D01*
X137901047Y-26613267D01*
X137885789Y-26625789D01*
X137873267Y-26641047D01*
X135164316Y-29349999D01*
X133875000Y-29349999D01*
X133875000Y-29281056D01*
X133848099Y-29145818D01*
X133795332Y-29018426D01*
X133718726Y-28903776D01*
X133621224Y-28806274D01*
X133506574Y-28729668D01*
X133379182Y-28676901D01*
X133243944Y-28650000D01*
X133106056Y-28650000D01*
X132970818Y-28676901D01*
X132843426Y-28729668D01*
X132728776Y-28806274D01*
X132631274Y-28903776D01*
X132554668Y-29018426D01*
X132501901Y-29145818D01*
X132475000Y-29281056D01*
X132475000Y-29418944D01*
X132501901Y-29554182D01*
X132554668Y-29681574D01*
X132631274Y-29796224D01*
X132728776Y-29893726D01*
X132843426Y-29970332D01*
X132970818Y-30023099D01*
X133106056Y-30050000D01*
X133243944Y-30050000D01*
X133297136Y-30039419D01*
X133306046Y-30046732D01*
X133306048Y-30046734D01*
X133310028Y-30050000D01*
X133351696Y-30084196D01*
X133421185Y-30121339D01*
X133496585Y-30144211D01*
X133574998Y-30151934D01*
X133594645Y-30149999D01*
X135310355Y-30149999D01*
X135330001Y-30151934D01*
X135349647Y-30149999D01*
X135349648Y-30149999D01*
X135408415Y-30144211D01*
X135483815Y-30121339D01*
X135553304Y-30084196D01*
X135614212Y-30034210D01*
X135626738Y-30018947D01*
X138335686Y-27310000D01*
X138940001Y-27310000D01*
X138940000Y-27759646D01*
X138940001Y-27759655D01*
X138939991Y-33000344D01*
X138938056Y-33019991D01*
X138939991Y-33039637D01*
X138945779Y-33098404D01*
X138968651Y-33173804D01*
X138968652Y-33173805D01*
X139005794Y-33243293D01*
X139040669Y-33285788D01*
X139055780Y-33304201D01*
X139071037Y-33316722D01*
X139180846Y-33426531D01*
X139170000Y-33481056D01*
X139170000Y-33618944D01*
X139196901Y-33754182D01*
X139249668Y-33881574D01*
X139326274Y-33996224D01*
X139423776Y-34093726D01*
X139538426Y-34170332D01*
X139665818Y-34223099D01*
X139801056Y-34250000D01*
X139938944Y-34250000D01*
X140074182Y-34223099D01*
X140201574Y-34170332D01*
X140316224Y-34093726D01*
X140413726Y-33996224D01*
X140490332Y-33881574D01*
X140543099Y-33754182D01*
X140570000Y-33618944D01*
X140570000Y-33481056D01*
X140543099Y-33345818D01*
X140490332Y-33218426D01*
X140413726Y-33103776D01*
X140316224Y-33006274D01*
X140201574Y-32929668D01*
X140074182Y-32876901D01*
X139938944Y-32850000D01*
X139801056Y-32850000D01*
X139746531Y-32860846D01*
X139739990Y-32854305D01*
X139739991Y-32399941D01*
X139743776Y-32403726D01*
X139858426Y-32480332D01*
X139985818Y-32533099D01*
X140121056Y-32560000D01*
X140258944Y-32560000D01*
X140394182Y-32533099D01*
X140521574Y-32480332D01*
X140636224Y-32403726D01*
X140733726Y-32306224D01*
X140810332Y-32191574D01*
X140863099Y-32064182D01*
X140890000Y-31928944D01*
X140890000Y-31791056D01*
X140863099Y-31655818D01*
X140810332Y-31528426D01*
X140733726Y-31413776D01*
X140636224Y-31316274D01*
X140521574Y-31239668D01*
X140394182Y-31186901D01*
X140258944Y-31160000D01*
X140140010Y-31160000D01*
X140140010Y-30549960D01*
X140143776Y-30553726D01*
X140258426Y-30630332D01*
X140385818Y-30683099D01*
X140521056Y-30710000D01*
X140658944Y-30710000D01*
X140794182Y-30683099D01*
X140921574Y-30630332D01*
X141036224Y-30553726D01*
X141133726Y-30456224D01*
X141210332Y-30341574D01*
X141263099Y-30214182D01*
X141290000Y-30078944D01*
X141290000Y-29941056D01*
X141279154Y-29886532D01*
X141286734Y-29878952D01*
X141286739Y-29878946D01*
X142118947Y-29046738D01*
X142134210Y-29034212D01*
X142184196Y-28973304D01*
X142221339Y-28903815D01*
X142244211Y-28828415D01*
X142249999Y-28769648D01*
X142251934Y-28750001D01*
X142249999Y-28730354D01*
X142249999Y-26809645D01*
X142251934Y-26789998D01*
X142244211Y-26711585D01*
X142237343Y-26688944D01*
X142221339Y-26636185D01*
X142184196Y-26566696D01*
X142146734Y-26521048D01*
X142146732Y-26521046D01*
X142139419Y-26512136D01*
X142150000Y-26458944D01*
X142150000Y-26321056D01*
X142123099Y-26185818D01*
X142070332Y-26058426D01*
X141993726Y-25943776D01*
X141896224Y-25846274D01*
X141781574Y-25769668D01*
X141654182Y-25716901D01*
X141518944Y-25690000D01*
X141381056Y-25690000D01*
X141245818Y-25716901D01*
X141118426Y-25769668D01*
X141003776Y-25846274D01*
X140906274Y-25943776D01*
X140829668Y-26058426D01*
X140776901Y-26185818D01*
X140750000Y-26321056D01*
X140750000Y-26458944D01*
X140776901Y-26594182D01*
X140829668Y-26721574D01*
X140906274Y-26836224D01*
X141003776Y-26933726D01*
X141118426Y-27010332D01*
X141245818Y-27063099D01*
X141381056Y-27090000D01*
X141449999Y-27090000D01*
X141450000Y-28584315D01*
X140721054Y-29313261D01*
X140721048Y-29313266D01*
X140713468Y-29320846D01*
X140658944Y-29310000D01*
X140521056Y-29310000D01*
X140385818Y-29336901D01*
X140258426Y-29389668D01*
X140143776Y-29466274D01*
X140140010Y-29470040D01*
X140140010Y-25833259D01*
X140141943Y-25813237D01*
X140138101Y-25774982D01*
X140134222Y-25735594D01*
X140134108Y-25735219D01*
X140134070Y-25734838D01*
X140122759Y-25697805D01*
X140111350Y-25660194D01*
X140111167Y-25659851D01*
X140111054Y-25659482D01*
X140092670Y-25625246D01*
X140074207Y-25590705D01*
X140073960Y-25590404D01*
X140073778Y-25590065D01*
X140048972Y-25559956D01*
X140024221Y-25529797D01*
X140008666Y-25517031D01*
X138570000Y-24083867D01*
X138570000Y-23199612D01*
X138616224Y-23168726D01*
X138713726Y-23071224D01*
X138790332Y-22956574D01*
X138843099Y-22829182D01*
X138870000Y-22693944D01*
X138870000Y-22556056D01*
X138843099Y-22420818D01*
X138803410Y-22325000D01*
X148675000Y-22325000D01*
X148675001Y-37675000D01*
X142860685Y-37675000D01*
X146558949Y-33976736D01*
X146574211Y-33964211D01*
X146624197Y-33903303D01*
X146661340Y-33833814D01*
X146684212Y-33758414D01*
X146690000Y-33699647D01*
X146690000Y-33699646D01*
X146691935Y-33680000D01*
X146690000Y-33660353D01*
X146690000Y-28019647D01*
X146691935Y-28000000D01*
X146684212Y-27921586D01*
X146661340Y-27846186D01*
X146624197Y-27776697D01*
X146610204Y-27759647D01*
X146574211Y-27715789D01*
X146558948Y-27703263D01*
X145599154Y-26743469D01*
X145610000Y-26688944D01*
X145610000Y-26551056D01*
X145583099Y-26415818D01*
X145530332Y-26288426D01*
X145453726Y-26173776D01*
X145356224Y-26076274D01*
X145241574Y-25999668D01*
X145114182Y-25946901D01*
X144978944Y-25920000D01*
X144841056Y-25920000D01*
X144705818Y-25946901D01*
X144578426Y-25999668D01*
X144463776Y-26076274D01*
X144366274Y-26173776D01*
X144289668Y-26288426D01*
X144236901Y-26415818D01*
X144210000Y-26551056D01*
X144210000Y-26688944D01*
X144236901Y-26824182D01*
X144289668Y-26951574D01*
X144366274Y-27066224D01*
X144463776Y-27163726D01*
X144578426Y-27240332D01*
X144705818Y-27293099D01*
X144841056Y-27320000D01*
X144978944Y-27320000D01*
X145033469Y-27309154D01*
X145890001Y-28165686D01*
X145890000Y-33514315D01*
X142384315Y-37020000D01*
X141419216Y-37020000D01*
X141504182Y-37003099D01*
X141631574Y-36950332D01*
X141746224Y-36873726D01*
X141843726Y-36776224D01*
X141920332Y-36661574D01*
X141973099Y-36534182D01*
X142000000Y-36398944D01*
X142000000Y-36261056D01*
X141995020Y-36236020D01*
X145125762Y-33105279D01*
X145141974Y-33091974D01*
X145195084Y-33027260D01*
X145234548Y-32953427D01*
X145258850Y-32873314D01*
X145265000Y-32810874D01*
X145265000Y-32810868D01*
X145267055Y-32790001D01*
X145265000Y-32769134D01*
X145265000Y-29687907D01*
X145286224Y-29673726D01*
X145383726Y-29576224D01*
X145460332Y-29461574D01*
X145513099Y-29334182D01*
X145540000Y-29198944D01*
X145540000Y-29061056D01*
X145513099Y-28925818D01*
X145460332Y-28798426D01*
X145383726Y-28683776D01*
X145286224Y-28586274D01*
X145171574Y-28509668D01*
X145044182Y-28456901D01*
X144908944Y-28430000D01*
X144771056Y-28430000D01*
X144635818Y-28456901D01*
X144508426Y-28509668D01*
X144393776Y-28586274D01*
X144296274Y-28683776D01*
X144219668Y-28798426D01*
X144166901Y-28925818D01*
X144140000Y-29061056D01*
X144140000Y-29198944D01*
X144166901Y-29334182D01*
X144219668Y-29461574D01*
X144296274Y-29576224D01*
X144393776Y-29673726D01*
X144415000Y-29687907D01*
X144415001Y-32613958D01*
X141393980Y-35634980D01*
X141368944Y-35630000D01*
X141231056Y-35630000D01*
X141095818Y-35656901D01*
X140968426Y-35709668D01*
X140853776Y-35786274D01*
X140756274Y-35883776D01*
X140679668Y-35998426D01*
X140626901Y-36125818D01*
X140600000Y-36261056D01*
X140600000Y-36398944D01*
X140626901Y-36534182D01*
X140679668Y-36661574D01*
X140756274Y-36776224D01*
X140853776Y-36873726D01*
X140968426Y-36950332D01*
X141095818Y-37003099D01*
X141180784Y-37020000D01*
X139245685Y-37020000D01*
X139149154Y-36923469D01*
X139160000Y-36868944D01*
X139160000Y-36731056D01*
X139133099Y-36595818D01*
X139080332Y-36468426D01*
X139003726Y-36353776D01*
X138906224Y-36256274D01*
X138791574Y-36179668D01*
X138664182Y-36126901D01*
X138528944Y-36100000D01*
X138391056Y-36100000D01*
X138255818Y-36126901D01*
X138128426Y-36179668D01*
X138013776Y-36256274D01*
X137916274Y-36353776D01*
X137839668Y-36468426D01*
X137786901Y-36595818D01*
X137760000Y-36731056D01*
X137760000Y-36868944D01*
X137786901Y-37004182D01*
X137839668Y-37131574D01*
X137916274Y-37246224D01*
X138013776Y-37343726D01*
X138128426Y-37420332D01*
X138255818Y-37473099D01*
X138391056Y-37500000D01*
X138528944Y-37500000D01*
X138583469Y-37489154D01*
X138769315Y-37675000D01*
X129575000Y-37675000D01*
X129575000Y-31781056D01*
X132525000Y-31781056D01*
X132525000Y-31918944D01*
X132551901Y-32054182D01*
X132604668Y-32181574D01*
X132681274Y-32296224D01*
X132778776Y-32393726D01*
X132893426Y-32470332D01*
X133020818Y-32523099D01*
X133156056Y-32550000D01*
X133293944Y-32550000D01*
X133429182Y-32523099D01*
X133556574Y-32470332D01*
X133671224Y-32393726D01*
X133768726Y-32296224D01*
X133799612Y-32250000D01*
X137724720Y-32250000D01*
X137722996Y-34558865D01*
X137721046Y-34578666D01*
X137724956Y-34618370D01*
X137728711Y-34656785D01*
X137728754Y-34656927D01*
X137728769Y-34657079D01*
X137740214Y-34694809D01*
X137751527Y-34732202D01*
X137751598Y-34732335D01*
X137751642Y-34732480D01*
X137770264Y-34767319D01*
X137788618Y-34801719D01*
X137788713Y-34801834D01*
X137788784Y-34801968D01*
X137813880Y-34832548D01*
X137838558Y-34862664D01*
X137853923Y-34875293D01*
X139107582Y-36128953D01*
X139120104Y-36144211D01*
X139135362Y-36156733D01*
X139135364Y-36156735D01*
X139181012Y-36194197D01*
X139250500Y-36231340D01*
X139325901Y-36254212D01*
X139396144Y-36261130D01*
X139426274Y-36306224D01*
X139523776Y-36403726D01*
X139638426Y-36480332D01*
X139765818Y-36533099D01*
X139901056Y-36560000D01*
X140038944Y-36560000D01*
X140174182Y-36533099D01*
X140301574Y-36480332D01*
X140416224Y-36403726D01*
X140513726Y-36306224D01*
X140590332Y-36191574D01*
X140643099Y-36064182D01*
X140670000Y-35928944D01*
X140670000Y-35791056D01*
X140643099Y-35655818D01*
X140590332Y-35528426D01*
X140513726Y-35413776D01*
X140416224Y-35316274D01*
X140301574Y-35239668D01*
X140174182Y-35186901D01*
X140038944Y-35160000D01*
X139901056Y-35160000D01*
X139765818Y-35186901D01*
X139638426Y-35239668D01*
X139523776Y-35316274D01*
X139475025Y-35365025D01*
X138523105Y-34413104D01*
X138524985Y-31894790D01*
X138526934Y-31874999D01*
X138524983Y-31855186D01*
X138522989Y-29517494D01*
X138569205Y-29486614D01*
X138666707Y-29389112D01*
X138743313Y-29274462D01*
X138796080Y-29147070D01*
X138822981Y-29011832D01*
X138822981Y-28873944D01*
X138796080Y-28738706D01*
X138743313Y-28611314D01*
X138666707Y-28496664D01*
X138569205Y-28399162D01*
X138454555Y-28322556D01*
X138327163Y-28269789D01*
X138191925Y-28242888D01*
X138054037Y-28242888D01*
X137918799Y-28269789D01*
X137791407Y-28322556D01*
X137676757Y-28399162D01*
X137579255Y-28496664D01*
X137502649Y-28611314D01*
X137449882Y-28738706D01*
X137422981Y-28873944D01*
X137422981Y-29011832D01*
X137449882Y-29147070D01*
X137502649Y-29274462D01*
X137579255Y-29389112D01*
X137676757Y-29486614D01*
X137722981Y-29517500D01*
X137722981Y-29528219D01*
X137722998Y-29528395D01*
X137724637Y-31450000D01*
X133799612Y-31450000D01*
X133768726Y-31403776D01*
X133671224Y-31306274D01*
X133556574Y-31229668D01*
X133429182Y-31176901D01*
X133293944Y-31150000D01*
X133156056Y-31150000D01*
X133020818Y-31176901D01*
X132893426Y-31229668D01*
X132778776Y-31306274D01*
X132681274Y-31403776D01*
X132604668Y-31518426D01*
X132551901Y-31645818D01*
X132525000Y-31781056D01*
X129575000Y-31781056D01*
X129575000Y-22325000D01*
X137536590Y-22325000D01*
X137496901Y-22420818D01*
M02*
