G04 #@! TF.GenerationSoftware,KiCad,Pcbnew,(5.1.5)-3*
G04 #@! TF.CreationDate,2020-05-27T15:07:41+09:00*
G04 #@! TF.ProjectId,FMU3_Sensors_make,464d5533-5f53-4656-9e73-6f72735f6d61,rev?*
G04 #@! TF.SameCoordinates,Original*
G04 #@! TF.FileFunction,Soldermask,Top*
G04 #@! TF.FilePolarity,Negative*
%FSLAX46Y46*%
G04 Gerber Fmt 4.6, Leading zero omitted, Abs format (unit mm)*
G04 Created by KiCad (PCBNEW (5.1.5)-3) date 2020-05-27 15:07:41*
%MOMM*%
%LPD*%
G04 APERTURE LIST*
%ADD10C,0.100000*%
G04 APERTURE END LIST*
D10*
G36*
X140086000Y-48026000D02*
G01*
X139454000Y-48026000D01*
X139454000Y-46614000D01*
X140086000Y-46614000D01*
X140086000Y-48026000D01*
G37*
G36*
X142586000Y-48026000D02*
G01*
X141954000Y-48026000D01*
X141954000Y-46614000D01*
X142586000Y-46614000D01*
X142586000Y-48026000D01*
G37*
G36*
X143836000Y-48026000D02*
G01*
X143204000Y-48026000D01*
X143204000Y-46614000D01*
X143836000Y-46614000D01*
X143836000Y-48026000D01*
G37*
G36*
X141336000Y-48026000D02*
G01*
X140704000Y-48026000D01*
X140704000Y-46614000D01*
X141336000Y-46614000D01*
X141336000Y-48026000D01*
G37*
G36*
X138291000Y-47721000D02*
G01*
X136789000Y-47721000D01*
X136789000Y-47019000D01*
X138291000Y-47019000D01*
X138291000Y-47721000D01*
G37*
G36*
X153101001Y-47151001D02*
G01*
X150499001Y-47151001D01*
X150499001Y-45549001D01*
X153101001Y-45549001D01*
X153101001Y-47151001D01*
G37*
G36*
X143836000Y-45626000D02*
G01*
X143204000Y-45626000D01*
X143204000Y-44214000D01*
X143836000Y-44214000D01*
X143836000Y-45626000D01*
G37*
G36*
X142586000Y-45626000D02*
G01*
X141954000Y-45626000D01*
X141954000Y-44214000D01*
X142586000Y-44214000D01*
X142586000Y-45626000D01*
G37*
G36*
X141336000Y-45626000D02*
G01*
X140704000Y-45626000D01*
X140704000Y-44214000D01*
X141336000Y-44214000D01*
X141336000Y-45626000D01*
G37*
G36*
X140086000Y-45626000D02*
G01*
X139454000Y-45626000D01*
X139454000Y-44214000D01*
X140086000Y-44214000D01*
X140086000Y-45626000D01*
G37*
G36*
X153101001Y-44651001D02*
G01*
X150499001Y-44651001D01*
X150499001Y-43049001D01*
X153101001Y-43049001D01*
X153101001Y-44651001D01*
G37*
G36*
X137351000Y-44651000D02*
G01*
X134749000Y-44651000D01*
X134749000Y-43049000D01*
X137351000Y-43049000D01*
X137351000Y-44651000D01*
G37*
G36*
X148001000Y-41254001D02*
G01*
X148003402Y-41278387D01*
X148010515Y-41301836D01*
X148022066Y-41323447D01*
X148037611Y-41342389D01*
X148056553Y-41357934D01*
X148078164Y-41369485D01*
X148101613Y-41376598D01*
X148125999Y-41379000D01*
X148951000Y-41379000D01*
X148951000Y-43781000D01*
X148125999Y-43781000D01*
X148101613Y-43783402D01*
X148078164Y-43790515D01*
X148056553Y-43802066D01*
X148037611Y-43817611D01*
X148022066Y-43836553D01*
X148010515Y-43858164D01*
X148003402Y-43881613D01*
X148001000Y-43905999D01*
X148001000Y-44231000D01*
X146599000Y-44231000D01*
X146599000Y-43905999D01*
X146596598Y-43881613D01*
X146589485Y-43858164D01*
X146577934Y-43836553D01*
X146562389Y-43817611D01*
X146543447Y-43802066D01*
X146521836Y-43790515D01*
X146498387Y-43783402D01*
X146474001Y-43781000D01*
X145649000Y-43781000D01*
X145649000Y-41755999D01*
X146351000Y-41755999D01*
X146351000Y-43404001D01*
X146353402Y-43428387D01*
X146360515Y-43451836D01*
X146372066Y-43473447D01*
X146387611Y-43492389D01*
X146406553Y-43507934D01*
X146428164Y-43519485D01*
X146451613Y-43526598D01*
X146475999Y-43529000D01*
X148124001Y-43529000D01*
X148148387Y-43526598D01*
X148171836Y-43519485D01*
X148193447Y-43507934D01*
X148212389Y-43492389D01*
X148227934Y-43473447D01*
X148239485Y-43451836D01*
X148246598Y-43428387D01*
X148249000Y-43404001D01*
X148249000Y-41755999D01*
X148246598Y-41731613D01*
X148239485Y-41708164D01*
X148227934Y-41686553D01*
X148212389Y-41667611D01*
X148193447Y-41652066D01*
X148171836Y-41640515D01*
X148148387Y-41633402D01*
X148124001Y-41631000D01*
X146475999Y-41631000D01*
X146451613Y-41633402D01*
X146428164Y-41640515D01*
X146406553Y-41652066D01*
X146387611Y-41667611D01*
X146372066Y-41686553D01*
X146360515Y-41708164D01*
X146353402Y-41731613D01*
X146351000Y-41755999D01*
X145649000Y-41755999D01*
X145649000Y-41379000D01*
X146474001Y-41379000D01*
X146498387Y-41376598D01*
X146521836Y-41369485D01*
X146543447Y-41357934D01*
X146562389Y-41342389D01*
X146577934Y-41323447D01*
X146589485Y-41301836D01*
X146596598Y-41278387D01*
X146599000Y-41254001D01*
X146599000Y-40929000D01*
X148001000Y-40929000D01*
X148001000Y-41254001D01*
G37*
G36*
X144136000Y-42335000D02*
G01*
X143104000Y-42335000D01*
X143104000Y-41223000D01*
X144136000Y-41223000D01*
X144136000Y-42335000D01*
G37*
G36*
X153101001Y-42151001D02*
G01*
X150499001Y-42151001D01*
X150499001Y-40549001D01*
X153101001Y-40549001D01*
X153101001Y-42151001D01*
G37*
G36*
X137351000Y-42151000D02*
G01*
X134749000Y-42151000D01*
X134749000Y-40549000D01*
X137351000Y-40549000D01*
X137351000Y-42151000D01*
G37*
G36*
X141201000Y-41961000D02*
G01*
X139699000Y-41961000D01*
X139699000Y-41259000D01*
X141201000Y-41259000D01*
X141201000Y-41961000D01*
G37*
G36*
X144136000Y-40917000D02*
G01*
X143104000Y-40917000D01*
X143104000Y-39805000D01*
X144136000Y-39805000D01*
X144136000Y-40917000D01*
G37*
G36*
X141435000Y-40836000D02*
G01*
X140323000Y-40836000D01*
X140323000Y-39804000D01*
X141435000Y-39804000D01*
X141435000Y-40836000D01*
G37*
G36*
X140017000Y-40836000D02*
G01*
X138905000Y-40836000D01*
X138905000Y-39804000D01*
X140017000Y-39804000D01*
X140017000Y-40836000D01*
G37*
G36*
X148951000Y-40551000D02*
G01*
X147449000Y-40551000D01*
X147449000Y-39849000D01*
X148951000Y-39849000D01*
X148951000Y-40551000D01*
G37*
G36*
X145951000Y-40501000D02*
G01*
X144449000Y-40501000D01*
X144449000Y-39799000D01*
X145951000Y-39799000D01*
X145951000Y-40501000D01*
G37*
G36*
X153101001Y-39651001D02*
G01*
X150499001Y-39651001D01*
X150499001Y-38049001D01*
X153101001Y-38049001D01*
X153101001Y-39651001D01*
G37*
G36*
X137351000Y-39651000D02*
G01*
X134749000Y-39651000D01*
X134749000Y-38049000D01*
X137351000Y-38049000D01*
X137351000Y-39651000D01*
G37*
G36*
X143606001Y-36224002D02*
G01*
X143608403Y-36248388D01*
X143615516Y-36271837D01*
X143627067Y-36293448D01*
X143642612Y-36312390D01*
X143661554Y-36327935D01*
X143683165Y-36339486D01*
X143706614Y-36346599D01*
X143731000Y-36349001D01*
X144396001Y-36349001D01*
X144396001Y-38601001D01*
X143731000Y-38601001D01*
X143706614Y-38603403D01*
X143683165Y-38610516D01*
X143661554Y-38622067D01*
X143642612Y-38637612D01*
X143627067Y-38656554D01*
X143615516Y-38678165D01*
X143608403Y-38701614D01*
X143606001Y-38726000D01*
X143606001Y-39391001D01*
X141354001Y-39391001D01*
X141354001Y-38726000D01*
X141351599Y-38701614D01*
X141344486Y-38678165D01*
X141332935Y-38656554D01*
X141317390Y-38637612D01*
X141298448Y-38622067D01*
X141276837Y-38610516D01*
X141253388Y-38603403D01*
X141229002Y-38601001D01*
X140564001Y-38601001D01*
X140564001Y-36426000D01*
X141306001Y-36426000D01*
X141306001Y-38524002D01*
X141308403Y-38548388D01*
X141315516Y-38571837D01*
X141327067Y-38593448D01*
X141342612Y-38612390D01*
X141361554Y-38627935D01*
X141383165Y-38639486D01*
X141406614Y-38646599D01*
X141431000Y-38649001D01*
X143529002Y-38649001D01*
X143553388Y-38646599D01*
X143576837Y-38639486D01*
X143598448Y-38627935D01*
X143617390Y-38612390D01*
X143632935Y-38593448D01*
X143644486Y-38571837D01*
X143651599Y-38548388D01*
X143654001Y-38524002D01*
X143654001Y-36426000D01*
X143651599Y-36401614D01*
X143644486Y-36378165D01*
X143632935Y-36356554D01*
X143617390Y-36337612D01*
X143598448Y-36322067D01*
X143576837Y-36310516D01*
X143553388Y-36303403D01*
X143529002Y-36301001D01*
X141431000Y-36301001D01*
X141406614Y-36303403D01*
X141383165Y-36310516D01*
X141361554Y-36322067D01*
X141342612Y-36337612D01*
X141327067Y-36356554D01*
X141315516Y-36378165D01*
X141308403Y-36401614D01*
X141306001Y-36426000D01*
X140564001Y-36426000D01*
X140564001Y-36349001D01*
X141229002Y-36349001D01*
X141253388Y-36346599D01*
X141276837Y-36339486D01*
X141298448Y-36327935D01*
X141317390Y-36312390D01*
X141332935Y-36293448D01*
X141344486Y-36271837D01*
X141351599Y-36248388D01*
X141354001Y-36224002D01*
X141354001Y-35559001D01*
X143606001Y-35559001D01*
X143606001Y-36224002D01*
G37*
G36*
X147866000Y-38715000D02*
G01*
X146834000Y-38715000D01*
X146834000Y-37603000D01*
X147866000Y-37603000D01*
X147866000Y-38715000D01*
G37*
G36*
X146161000Y-38451000D02*
G01*
X145459000Y-38451000D01*
X145459000Y-36949000D01*
X146161000Y-36949000D01*
X146161000Y-38451000D01*
G37*
G36*
X147866000Y-37297000D02*
G01*
X146834000Y-37297000D01*
X146834000Y-36185000D01*
X147866000Y-36185000D01*
X147866000Y-37297000D01*
G37*
G36*
X153101001Y-37151001D02*
G01*
X150499001Y-37151001D01*
X150499001Y-35549001D01*
X153101001Y-35549001D01*
X153101001Y-37151001D01*
G37*
G36*
X137351000Y-37151000D02*
G01*
X134749000Y-37151000D01*
X134749000Y-35549000D01*
X137351000Y-35549000D01*
X137351000Y-37151000D01*
G37*
G36*
X150011938Y-36401716D02*
G01*
X150032557Y-36407971D01*
X150051553Y-36418124D01*
X150068208Y-36431792D01*
X150081876Y-36448447D01*
X150092029Y-36467443D01*
X150098284Y-36488062D01*
X150101000Y-36515640D01*
X150101000Y-36974360D01*
X150098284Y-37001938D01*
X150092029Y-37022557D01*
X150081876Y-37041553D01*
X150068208Y-37058208D01*
X150051553Y-37071876D01*
X150032557Y-37082029D01*
X150011938Y-37088284D01*
X149984360Y-37091000D01*
X149475640Y-37091000D01*
X149448062Y-37088284D01*
X149427443Y-37082029D01*
X149408447Y-37071876D01*
X149391792Y-37058208D01*
X149378124Y-37041553D01*
X149367971Y-37022557D01*
X149361716Y-37001938D01*
X149359000Y-36974360D01*
X149359000Y-36515640D01*
X149361716Y-36488062D01*
X149367971Y-36467443D01*
X149378124Y-36448447D01*
X149391792Y-36431792D01*
X149408447Y-36418124D01*
X149427443Y-36407971D01*
X149448062Y-36401716D01*
X149475640Y-36399000D01*
X149984360Y-36399000D01*
X150011938Y-36401716D01*
G37*
G36*
X150011938Y-35431716D02*
G01*
X150032557Y-35437971D01*
X150051553Y-35448124D01*
X150068208Y-35461792D01*
X150081876Y-35478447D01*
X150092029Y-35497443D01*
X150098284Y-35518062D01*
X150101000Y-35545640D01*
X150101000Y-36004360D01*
X150098284Y-36031938D01*
X150092029Y-36052557D01*
X150081876Y-36071553D01*
X150068208Y-36088208D01*
X150051553Y-36101876D01*
X150032557Y-36112029D01*
X150011938Y-36118284D01*
X149984360Y-36121000D01*
X149475640Y-36121000D01*
X149448062Y-36118284D01*
X149427443Y-36112029D01*
X149408447Y-36101876D01*
X149391792Y-36088208D01*
X149378124Y-36071553D01*
X149367971Y-36052557D01*
X149361716Y-36031938D01*
X149359000Y-36004360D01*
X149359000Y-35545640D01*
X149361716Y-35518062D01*
X149367971Y-35497443D01*
X149378124Y-35478447D01*
X149391792Y-35461792D01*
X149408447Y-35448124D01*
X149427443Y-35437971D01*
X149448062Y-35431716D01*
X149475640Y-35429000D01*
X149984360Y-35429000D01*
X150011938Y-35431716D01*
G37*
M02*
