G04 #@! TF.GenerationSoftware,KiCad,Pcbnew,(5.1.5)-3*
G04 #@! TF.CreationDate,2020-05-27T15:07:41+09:00*
G04 #@! TF.ProjectId,FMU3_Sensors_make,464d5533-5f53-4656-9e73-6f72735f6d61,rev?*
G04 #@! TF.SameCoordinates,Original*
G04 #@! TF.FileFunction,Copper,L1,Top*
G04 #@! TF.FilePolarity,Positive*
%FSLAX46Y46*%
G04 Gerber Fmt 4.6, Leading zero omitted, Abs format (unit mm)*
G04 Created by KiCad (PCBNEW (5.1.5)-3) date 2020-05-27 15:07:41*
%MOMM*%
%LPD*%
G04 APERTURE LIST*
%ADD10R,0.540000X0.600000*%
%ADD11R,0.530000X1.310000*%
%ADD12R,0.600000X0.300000*%
%ADD13R,0.300000X0.600000*%
%ADD14R,1.010000X0.930000*%
%ADD15R,0.930000X1.010000*%
%ADD16R,0.600000X0.540000*%
%ADD17R,2.500000X1.500000*%
%ADD18C,0.100000*%
%ADD19R,0.640000X0.150000*%
%ADD20R,0.150000X0.640000*%
%ADD21C,0.800000*%
%ADD22C,0.200000*%
G04 APERTURE END LIST*
D10*
X147770000Y-40200000D03*
X148630000Y-40200000D03*
D11*
X139770000Y-47320000D03*
X139770000Y-44920000D03*
X141020000Y-47320000D03*
X142270000Y-47320000D03*
X143520000Y-47320000D03*
X143520000Y-44920000D03*
X142270000Y-44920000D03*
X141020000Y-44920000D03*
D10*
X137110000Y-47370000D03*
X137970000Y-47370000D03*
D12*
X146000000Y-41580000D03*
X146000000Y-42080000D03*
X146000000Y-42580000D03*
X146000000Y-43080000D03*
X146000000Y-43580000D03*
D13*
X146800000Y-43880000D03*
X147300000Y-43880000D03*
X147800000Y-43880000D03*
D12*
X148600000Y-43580000D03*
X148600000Y-43080000D03*
X148600000Y-42580000D03*
X148600000Y-42080000D03*
X148600000Y-41580000D03*
D13*
X147800000Y-41280000D03*
X147300000Y-41280000D03*
X146800000Y-41280000D03*
D14*
X139461000Y-40320000D03*
X140879000Y-40320000D03*
D10*
X140880000Y-41610000D03*
X140020000Y-41610000D03*
D15*
X143620000Y-40361000D03*
X143620000Y-41779000D03*
D10*
X145630000Y-40150000D03*
X144770000Y-40150000D03*
D16*
X145810000Y-37270000D03*
X145810000Y-38130000D03*
D15*
X147350000Y-38159000D03*
X147350000Y-36741000D03*
D17*
X136050000Y-36350000D03*
X136050000Y-38850000D03*
X136050000Y-43850000D03*
X136050000Y-41350000D03*
X151800001Y-43850001D03*
X151800001Y-36350001D03*
X151800001Y-41350001D03*
X151800001Y-38850001D03*
X151800001Y-46350001D03*
G04 #@! TA.AperFunction,SMDPad,CuDef*
D18*
G36*
X149916958Y-36450710D02*
G01*
X149931276Y-36452834D01*
X149945317Y-36456351D01*
X149958946Y-36461228D01*
X149972031Y-36467417D01*
X149984447Y-36474858D01*
X149996073Y-36483481D01*
X150006798Y-36493202D01*
X150016519Y-36503927D01*
X150025142Y-36515553D01*
X150032583Y-36527969D01*
X150038772Y-36541054D01*
X150043649Y-36554683D01*
X150047166Y-36568724D01*
X150049290Y-36583042D01*
X150050000Y-36597500D01*
X150050000Y-36892500D01*
X150049290Y-36906958D01*
X150047166Y-36921276D01*
X150043649Y-36935317D01*
X150038772Y-36948946D01*
X150032583Y-36962031D01*
X150025142Y-36974447D01*
X150016519Y-36986073D01*
X150006798Y-36996798D01*
X149996073Y-37006519D01*
X149984447Y-37015142D01*
X149972031Y-37022583D01*
X149958946Y-37028772D01*
X149945317Y-37033649D01*
X149931276Y-37037166D01*
X149916958Y-37039290D01*
X149902500Y-37040000D01*
X149557500Y-37040000D01*
X149543042Y-37039290D01*
X149528724Y-37037166D01*
X149514683Y-37033649D01*
X149501054Y-37028772D01*
X149487969Y-37022583D01*
X149475553Y-37015142D01*
X149463927Y-37006519D01*
X149453202Y-36996798D01*
X149443481Y-36986073D01*
X149434858Y-36974447D01*
X149427417Y-36962031D01*
X149421228Y-36948946D01*
X149416351Y-36935317D01*
X149412834Y-36921276D01*
X149410710Y-36906958D01*
X149410000Y-36892500D01*
X149410000Y-36597500D01*
X149410710Y-36583042D01*
X149412834Y-36568724D01*
X149416351Y-36554683D01*
X149421228Y-36541054D01*
X149427417Y-36527969D01*
X149434858Y-36515553D01*
X149443481Y-36503927D01*
X149453202Y-36493202D01*
X149463927Y-36483481D01*
X149475553Y-36474858D01*
X149487969Y-36467417D01*
X149501054Y-36461228D01*
X149514683Y-36456351D01*
X149528724Y-36452834D01*
X149543042Y-36450710D01*
X149557500Y-36450000D01*
X149902500Y-36450000D01*
X149916958Y-36450710D01*
G37*
G04 #@! TD.AperFunction*
G04 #@! TA.AperFunction,SMDPad,CuDef*
G36*
X149916958Y-35480710D02*
G01*
X149931276Y-35482834D01*
X149945317Y-35486351D01*
X149958946Y-35491228D01*
X149972031Y-35497417D01*
X149984447Y-35504858D01*
X149996073Y-35513481D01*
X150006798Y-35523202D01*
X150016519Y-35533927D01*
X150025142Y-35545553D01*
X150032583Y-35557969D01*
X150038772Y-35571054D01*
X150043649Y-35584683D01*
X150047166Y-35598724D01*
X150049290Y-35613042D01*
X150050000Y-35627500D01*
X150050000Y-35922500D01*
X150049290Y-35936958D01*
X150047166Y-35951276D01*
X150043649Y-35965317D01*
X150038772Y-35978946D01*
X150032583Y-35992031D01*
X150025142Y-36004447D01*
X150016519Y-36016073D01*
X150006798Y-36026798D01*
X149996073Y-36036519D01*
X149984447Y-36045142D01*
X149972031Y-36052583D01*
X149958946Y-36058772D01*
X149945317Y-36063649D01*
X149931276Y-36067166D01*
X149916958Y-36069290D01*
X149902500Y-36070000D01*
X149557500Y-36070000D01*
X149543042Y-36069290D01*
X149528724Y-36067166D01*
X149514683Y-36063649D01*
X149501054Y-36058772D01*
X149487969Y-36052583D01*
X149475553Y-36045142D01*
X149463927Y-36036519D01*
X149453202Y-36026798D01*
X149443481Y-36016073D01*
X149434858Y-36004447D01*
X149427417Y-35992031D01*
X149421228Y-35978946D01*
X149416351Y-35965317D01*
X149412834Y-35951276D01*
X149410710Y-35936958D01*
X149410000Y-35922500D01*
X149410000Y-35627500D01*
X149410710Y-35613042D01*
X149412834Y-35598724D01*
X149416351Y-35584683D01*
X149421228Y-35571054D01*
X149427417Y-35557969D01*
X149434858Y-35545553D01*
X149443481Y-35533927D01*
X149453202Y-35523202D01*
X149463927Y-35513481D01*
X149475553Y-35504858D01*
X149487969Y-35497417D01*
X149501054Y-35491228D01*
X149514683Y-35486351D01*
X149528724Y-35482834D01*
X149543042Y-35480710D01*
X149557500Y-35480000D01*
X149902500Y-35480000D01*
X149916958Y-35480710D01*
G37*
G04 #@! TD.AperFunction*
D19*
X140935001Y-36475001D03*
X140935001Y-36875001D03*
X140935001Y-37275001D03*
X140935001Y-37675001D03*
X140935001Y-38075001D03*
X140935001Y-38475001D03*
D20*
X141480001Y-39020001D03*
X141880001Y-39020001D03*
X142280001Y-39020001D03*
X142680001Y-39020001D03*
X143080001Y-39020001D03*
X143480001Y-39020001D03*
D19*
X144025001Y-38475001D03*
X144025001Y-38075001D03*
X144025001Y-37675001D03*
X144025001Y-37275001D03*
X144025001Y-36875001D03*
X144025001Y-36475001D03*
D20*
X143480001Y-35930001D03*
X143080001Y-35930001D03*
X142680001Y-35930001D03*
X142280001Y-35930001D03*
X141880001Y-35930001D03*
X141480001Y-35930001D03*
D21*
X137970000Y-46320000D03*
X138200000Y-37450000D03*
X145800000Y-36250000D03*
X151810000Y-47920000D03*
X145250000Y-39250000D03*
X139000000Y-38520000D03*
X143530000Y-43490000D03*
X137970000Y-38850000D03*
X138040000Y-41360000D03*
X146000000Y-44980000D03*
X149720000Y-43860000D03*
X142270000Y-42680000D03*
X141010000Y-43440000D03*
X149670000Y-41350000D03*
X144746382Y-42316332D03*
X139820000Y-35930000D03*
X139770000Y-43420000D03*
X149690000Y-38850000D03*
X145090000Y-41280000D03*
X138780000Y-35900000D03*
D22*
X141584000Y-40320000D02*
X140879000Y-40320000D01*
X141880001Y-40023999D02*
X141584000Y-40320000D01*
X141880001Y-39020001D02*
X141880001Y-40023999D01*
X140880000Y-40321000D02*
X140879000Y-40320000D01*
X140880000Y-41610000D02*
X140880000Y-40321000D01*
X139720000Y-47370000D02*
X139770000Y-47320000D01*
X137970000Y-47370000D02*
X139720000Y-47370000D01*
X140879000Y-39655000D02*
X140879000Y-40320000D01*
X140315000Y-39091000D02*
X140879000Y-39655000D01*
X140315000Y-36560000D02*
X140315000Y-39091000D01*
X140399999Y-36475001D02*
X140315000Y-36560000D01*
X140935001Y-36475001D02*
X140399999Y-36475001D01*
X137970000Y-47370000D02*
X137970000Y-46320000D01*
X147350000Y-36036000D02*
X147350000Y-36741000D01*
X147611000Y-35775000D02*
X147350000Y-36036000D01*
X149730000Y-35775000D02*
X147611000Y-35775000D01*
X144025001Y-36200001D02*
X144025001Y-36475001D01*
X144025001Y-35539999D02*
X144025001Y-36200001D01*
X143795002Y-35310000D02*
X144025001Y-35539999D01*
X143165000Y-35310000D02*
X143795002Y-35310000D01*
X143080001Y-35394999D02*
X143165000Y-35310000D01*
X143080001Y-35930001D02*
X143080001Y-35394999D01*
X143080001Y-35930001D02*
X143080001Y-39020001D01*
X144389999Y-41674001D02*
X144389999Y-40530001D01*
X144389999Y-40530001D02*
X144770000Y-40150000D01*
X144285000Y-41779000D02*
X144389999Y-41674001D01*
X143620000Y-41779000D02*
X144285000Y-41779000D01*
X145810000Y-37270000D02*
X145810000Y-36260000D01*
X145810000Y-36260000D02*
X145800000Y-36250000D01*
X145574999Y-36475001D02*
X145800000Y-36250000D01*
X144025001Y-36475001D02*
X145574999Y-36475001D01*
X146291000Y-36741000D02*
X145800000Y-36250000D01*
X147350000Y-36741000D02*
X146291000Y-36741000D01*
X148100000Y-42080000D02*
X148600000Y-42080000D01*
X147300000Y-41780000D02*
X147600000Y-42080000D01*
X147600000Y-42080000D02*
X148100000Y-42080000D01*
X147300000Y-41280000D02*
X147300000Y-41780000D01*
X148300000Y-43880000D02*
X148600000Y-43580000D01*
X147800000Y-43880000D02*
X148300000Y-43880000D01*
X148600000Y-43580000D02*
X148600000Y-43080000D01*
X148600000Y-43080000D02*
X148600000Y-42580000D01*
X148600000Y-42080000D02*
X148600000Y-41580000D01*
X148630000Y-41550000D02*
X148600000Y-41580000D01*
X148630000Y-40200000D02*
X148630000Y-41550000D01*
X148600000Y-42580000D02*
X148600000Y-42080000D01*
X151800001Y-46350001D02*
X151800001Y-47910001D01*
X151800001Y-47910001D02*
X151810000Y-47920000D01*
X139461000Y-41051000D02*
X140020000Y-41610000D01*
X139461000Y-40320000D02*
X139461000Y-41051000D01*
X144770000Y-40150000D02*
X144770000Y-39730000D01*
X144770000Y-39730000D02*
X145250000Y-39250000D01*
X139461000Y-38981000D02*
X139000000Y-38520000D01*
X139461000Y-40320000D02*
X139461000Y-38981000D01*
X136620011Y-34829989D02*
X136050000Y-35400000D01*
X141880690Y-34829989D02*
X136620011Y-34829989D01*
X136050000Y-35400000D02*
X136050000Y-36350000D01*
X142280001Y-35229300D02*
X141880690Y-34829989D01*
X142280001Y-35930001D02*
X142280001Y-35229300D01*
X143520000Y-43500000D02*
X143530000Y-43490000D01*
X143520000Y-44920000D02*
X143520000Y-43500000D01*
X136050000Y-38850000D02*
X137970000Y-38850000D01*
X136050000Y-41350000D02*
X138030000Y-41350000D01*
X138030000Y-41350000D02*
X138040000Y-41360000D01*
X146000000Y-43580000D02*
X146000000Y-44980000D01*
X151800001Y-43850001D02*
X149729999Y-43850001D01*
X149729999Y-43850001D02*
X149720000Y-43860000D01*
X142280001Y-39020001D02*
X142280001Y-42669999D01*
X142280001Y-42669999D02*
X142270000Y-42680000D01*
X142270000Y-44065000D02*
X142270000Y-42680000D01*
X142270000Y-44920000D02*
X142270000Y-44065000D01*
X145500000Y-43080000D02*
X146000000Y-43080000D01*
X144474048Y-43080000D02*
X145500000Y-43080000D01*
X144074048Y-42680000D02*
X144474048Y-43080000D01*
X142270000Y-42680000D02*
X144074048Y-42680000D01*
X141020000Y-44920000D02*
X141020000Y-43450000D01*
X141020000Y-43450000D02*
X141010000Y-43440000D01*
X151800001Y-41350001D02*
X150350000Y-41350000D01*
X150350000Y-41350000D02*
X149670000Y-41350000D01*
X146000000Y-42580000D02*
X145010050Y-42580000D01*
X145010050Y-42580000D02*
X144746382Y-42316332D01*
X141480001Y-35930001D02*
X139820001Y-35930001D01*
X139820001Y-35930001D02*
X139820000Y-35930000D01*
X139770000Y-43420000D02*
X139770000Y-44920000D01*
X151800001Y-38850001D02*
X150350000Y-38850000D01*
X150350000Y-38850000D02*
X149690000Y-38850000D01*
X145090000Y-41670000D02*
X145090000Y-41280000D01*
X146000000Y-42080000D02*
X145500000Y-42080000D01*
X145500000Y-42080000D02*
X145090000Y-41670000D01*
X139450001Y-35229999D02*
X138780000Y-35900000D01*
X141715001Y-35229999D02*
X139450001Y-35229999D01*
X141880001Y-35930001D02*
X141880001Y-35394999D01*
X141880001Y-35394999D02*
X141715001Y-35229999D01*
X142955000Y-40361000D02*
X143620000Y-40361000D01*
X142680001Y-40086001D02*
X142955000Y-40361000D01*
X142680001Y-39020001D02*
X142680001Y-40086001D01*
X147770000Y-41250000D02*
X147800000Y-41280000D01*
X147770000Y-40200000D02*
X147770000Y-41250000D01*
G36*
X153425000Y-35458250D02*
G01*
X153421341Y-35446187D01*
X153384198Y-35376698D01*
X153334212Y-35315790D01*
X153273304Y-35265804D01*
X153203815Y-35228661D01*
X153128415Y-35205789D01*
X153050001Y-35198066D01*
X151950001Y-35200001D01*
X151850001Y-35300001D01*
X151850001Y-36300001D01*
X151870001Y-36300001D01*
X151870001Y-36400001D01*
X151850001Y-36400001D01*
X151850001Y-37400001D01*
X151950001Y-37500001D01*
X153050001Y-37501936D01*
X153128415Y-37494213D01*
X153203815Y-37471341D01*
X153273304Y-37434198D01*
X153334212Y-37384212D01*
X153384198Y-37323304D01*
X153421341Y-37253815D01*
X153425000Y-37241752D01*
X153425000Y-41650000D01*
X153351452Y-41650000D01*
X153351452Y-40600001D01*
X153345660Y-40541191D01*
X153328505Y-40484641D01*
X153300648Y-40432524D01*
X153263159Y-40386843D01*
X153217478Y-40349354D01*
X153165361Y-40321497D01*
X153108811Y-40304342D01*
X153050001Y-40298550D01*
X150550001Y-40298550D01*
X150491191Y-40304342D01*
X150434641Y-40321497D01*
X150382524Y-40349354D01*
X150336843Y-40386843D01*
X150299354Y-40432524D01*
X150271497Y-40484641D01*
X150254342Y-40541191D01*
X150248550Y-40600001D01*
X150248550Y-40950000D01*
X150244612Y-40950000D01*
X150213726Y-40903776D01*
X150116224Y-40806274D01*
X150001574Y-40729668D01*
X149874182Y-40676901D01*
X149738944Y-40650000D01*
X149601056Y-40650000D01*
X149465818Y-40676901D01*
X149338426Y-40729668D01*
X149223776Y-40806274D01*
X149126274Y-40903776D01*
X149049668Y-41018426D01*
X149030000Y-41065909D01*
X149030000Y-40770679D01*
X149067477Y-40750647D01*
X149113158Y-40713158D01*
X149150647Y-40667477D01*
X149178504Y-40615360D01*
X149195659Y-40558810D01*
X149201451Y-40500000D01*
X149201451Y-39900000D01*
X149195659Y-39841190D01*
X149178504Y-39784640D01*
X149150647Y-39732523D01*
X149113158Y-39686842D01*
X149067477Y-39649353D01*
X149015360Y-39621496D01*
X148958810Y-39604341D01*
X148900000Y-39598549D01*
X148360000Y-39598549D01*
X148301190Y-39604341D01*
X148244640Y-39621496D01*
X148200000Y-39645356D01*
X148155360Y-39621496D01*
X148098810Y-39604341D01*
X148040000Y-39598549D01*
X147500000Y-39598549D01*
X147441190Y-39604341D01*
X147384640Y-39621496D01*
X147332523Y-39649353D01*
X147286842Y-39686842D01*
X147249353Y-39732523D01*
X147221496Y-39784640D01*
X147204341Y-39841190D01*
X147198549Y-39900000D01*
X147198549Y-40500000D01*
X147204341Y-40558810D01*
X147221496Y-40615360D01*
X147249353Y-40667477D01*
X147258439Y-40678549D01*
X147213204Y-40678549D01*
X147173303Y-40645803D01*
X147103814Y-40608660D01*
X147028414Y-40585788D01*
X146950000Y-40578065D01*
X146950000Y-40580000D01*
X146850000Y-40680000D01*
X146850000Y-40965267D01*
X146848549Y-40980000D01*
X146848549Y-41350000D01*
X146750000Y-41350000D01*
X146750000Y-41330000D01*
X146730000Y-41330000D01*
X146730000Y-41230000D01*
X146750000Y-41230000D01*
X146750000Y-40680000D01*
X146650000Y-40580000D01*
X146650000Y-40578065D01*
X146571586Y-40585788D01*
X146496186Y-40608660D01*
X146426697Y-40645803D01*
X146365789Y-40695789D01*
X146315803Y-40756697D01*
X146278660Y-40826186D01*
X146255788Y-40901586D01*
X146248065Y-40980000D01*
X146248694Y-41028727D01*
X146150000Y-41030000D01*
X146050000Y-41130000D01*
X146050000Y-41530000D01*
X146070000Y-41530000D01*
X146070000Y-41628549D01*
X145930000Y-41628549D01*
X145930000Y-41530000D01*
X145950000Y-41530000D01*
X145950000Y-41130000D01*
X145850000Y-41030000D01*
X145743552Y-41028627D01*
X145710332Y-40948426D01*
X145644566Y-40850000D01*
X145680002Y-40850000D01*
X145680002Y-40750002D01*
X145780000Y-40850000D01*
X145900000Y-40851935D01*
X145978414Y-40844212D01*
X146053814Y-40821340D01*
X146123303Y-40784197D01*
X146184211Y-40734211D01*
X146234197Y-40673303D01*
X146271340Y-40603814D01*
X146294212Y-40528414D01*
X146301935Y-40450000D01*
X146300000Y-40300000D01*
X146200000Y-40200000D01*
X145680000Y-40200000D01*
X145680000Y-40220000D01*
X145580000Y-40220000D01*
X145580000Y-40200000D01*
X145560000Y-40200000D01*
X145560000Y-40100000D01*
X145580000Y-40100000D01*
X145580000Y-40080000D01*
X145680000Y-40080000D01*
X145680000Y-40100000D01*
X146200000Y-40100000D01*
X146300000Y-40000000D01*
X146301935Y-39850000D01*
X146294212Y-39771586D01*
X146271340Y-39696186D01*
X146234197Y-39626697D01*
X146184211Y-39565789D01*
X146123303Y-39515803D01*
X146053814Y-39478660D01*
X145978414Y-39455788D01*
X145923849Y-39450414D01*
X145950000Y-39318944D01*
X145950000Y-39181056D01*
X145923099Y-39045818D01*
X145870332Y-38918426D01*
X145793726Y-38803776D01*
X145724975Y-38735025D01*
X145760000Y-38700000D01*
X145760000Y-38180000D01*
X145860000Y-38180000D01*
X145860000Y-38700000D01*
X145960000Y-38800000D01*
X146110000Y-38801935D01*
X146188414Y-38794212D01*
X146263814Y-38771340D01*
X146333303Y-38734197D01*
X146394211Y-38684211D01*
X146444197Y-38623303D01*
X146481340Y-38553814D01*
X146483708Y-38546007D01*
X146483065Y-38664000D01*
X146490788Y-38742414D01*
X146513660Y-38817814D01*
X146550803Y-38887303D01*
X146600789Y-38948211D01*
X146661697Y-38998197D01*
X146731186Y-39035340D01*
X146806586Y-39058212D01*
X146885000Y-39065935D01*
X147200000Y-39064000D01*
X147300000Y-38964000D01*
X147300000Y-38209000D01*
X147400000Y-38209000D01*
X147400000Y-38964000D01*
X147500000Y-39064000D01*
X147815000Y-39065935D01*
X147893414Y-39058212D01*
X147968814Y-39035340D01*
X148038303Y-38998197D01*
X148099211Y-38948211D01*
X148149197Y-38887303D01*
X148186340Y-38817814D01*
X148197490Y-38781056D01*
X148990000Y-38781056D01*
X148990000Y-38918944D01*
X149016901Y-39054182D01*
X149069668Y-39181574D01*
X149146274Y-39296224D01*
X149243776Y-39393726D01*
X149358426Y-39470332D01*
X149485818Y-39523099D01*
X149621056Y-39550000D01*
X149758944Y-39550000D01*
X149894182Y-39523099D01*
X150021574Y-39470332D01*
X150136224Y-39393726D01*
X150233726Y-39296224D01*
X150248550Y-39274038D01*
X150248550Y-39600001D01*
X150254342Y-39658811D01*
X150271497Y-39715361D01*
X150299354Y-39767478D01*
X150336843Y-39813159D01*
X150382524Y-39850648D01*
X150434641Y-39878505D01*
X150491191Y-39895660D01*
X150550001Y-39901452D01*
X153050001Y-39901452D01*
X153108811Y-39895660D01*
X153165361Y-39878505D01*
X153217478Y-39850648D01*
X153263159Y-39813159D01*
X153300648Y-39767478D01*
X153328505Y-39715361D01*
X153345660Y-39658811D01*
X153351452Y-39600001D01*
X153351452Y-38100001D01*
X153345660Y-38041191D01*
X153328505Y-37984641D01*
X153300648Y-37932524D01*
X153263159Y-37886843D01*
X153217478Y-37849354D01*
X153165361Y-37821497D01*
X153108811Y-37804342D01*
X153050001Y-37798550D01*
X150550001Y-37798550D01*
X150491191Y-37804342D01*
X150434641Y-37821497D01*
X150382524Y-37849354D01*
X150336843Y-37886843D01*
X150299354Y-37932524D01*
X150271497Y-37984641D01*
X150254342Y-38041191D01*
X150248550Y-38100001D01*
X150248550Y-38425962D01*
X150233726Y-38403776D01*
X150136224Y-38306274D01*
X150021574Y-38229668D01*
X149894182Y-38176901D01*
X149758944Y-38150000D01*
X149621056Y-38150000D01*
X149485818Y-38176901D01*
X149358426Y-38229668D01*
X149243776Y-38306274D01*
X149146274Y-38403776D01*
X149069668Y-38518426D01*
X149016901Y-38645818D01*
X148990000Y-38781056D01*
X148197490Y-38781056D01*
X148209212Y-38742414D01*
X148216935Y-38664000D01*
X148215000Y-38309000D01*
X148115000Y-38209000D01*
X147400000Y-38209000D01*
X147300000Y-38209000D01*
X146585000Y-38209000D01*
X146510063Y-38283937D01*
X146510000Y-38280000D01*
X146410000Y-38180000D01*
X145860000Y-38180000D01*
X145760000Y-38180000D01*
X145210000Y-38180000D01*
X145110000Y-38280000D01*
X145108065Y-38400000D01*
X145115788Y-38478414D01*
X145138660Y-38553814D01*
X145140892Y-38557989D01*
X145045818Y-38576901D01*
X144918426Y-38629668D01*
X144803776Y-38706274D01*
X144706274Y-38803776D01*
X144629668Y-38918426D01*
X144576901Y-39045818D01*
X144550000Y-39181056D01*
X144550000Y-39318944D01*
X144560846Y-39373469D01*
X144501048Y-39433267D01*
X144485790Y-39445789D01*
X144473268Y-39461047D01*
X144473265Y-39461050D01*
X144435803Y-39506698D01*
X144404366Y-39565512D01*
X144384640Y-39571496D01*
X144332523Y-39599353D01*
X144288844Y-39635199D01*
X144252477Y-39605353D01*
X144200360Y-39577496D01*
X144143810Y-39560341D01*
X144085000Y-39554549D01*
X143766465Y-39554549D01*
X143768159Y-39553159D01*
X143805648Y-39507478D01*
X143833505Y-39455361D01*
X143850660Y-39398811D01*
X143856452Y-39340001D01*
X143856452Y-38950211D01*
X143875001Y-38950001D01*
X143975001Y-38850001D01*
X143975001Y-38451452D01*
X144075001Y-38451452D01*
X144075001Y-38850001D01*
X144175001Y-38950001D01*
X144335342Y-38951820D01*
X144413918Y-38945983D01*
X144489847Y-38924930D01*
X144560208Y-38889468D01*
X144622300Y-38840960D01*
X144673735Y-38781271D01*
X144712537Y-38712694D01*
X144737215Y-38637865D01*
X144745001Y-38575001D01*
X144645001Y-38475001D01*
X144745001Y-38375001D01*
X144737215Y-38312137D01*
X144712537Y-38237308D01*
X144673735Y-38168731D01*
X144646452Y-38137070D01*
X144646452Y-38000001D01*
X144640660Y-37941191D01*
X144623505Y-37884641D01*
X144618352Y-37875001D01*
X144623505Y-37865361D01*
X144640660Y-37808811D01*
X144646452Y-37750001D01*
X144646452Y-37600001D01*
X144640660Y-37541191D01*
X144623505Y-37484641D01*
X144618352Y-37475001D01*
X144623505Y-37465361D01*
X144640660Y-37408811D01*
X144646452Y-37350001D01*
X144646452Y-37200001D01*
X144640660Y-37141191D01*
X144623505Y-37084641D01*
X144618352Y-37075001D01*
X144623505Y-37065361D01*
X144640660Y-37008811D01*
X144646452Y-36950001D01*
X144646452Y-36875001D01*
X145236648Y-36875001D01*
X145231496Y-36884640D01*
X145214341Y-36941190D01*
X145208549Y-37000000D01*
X145208549Y-37540000D01*
X145213543Y-37590710D01*
X145175803Y-37636697D01*
X145138660Y-37706186D01*
X145115788Y-37781586D01*
X145108065Y-37860000D01*
X145110000Y-37980000D01*
X145210000Y-38080000D01*
X145760000Y-38080000D01*
X145760000Y-38060000D01*
X145860000Y-38060000D01*
X145860000Y-38080000D01*
X146410000Y-38080000D01*
X146484978Y-38005022D01*
X146485000Y-38009000D01*
X146585000Y-38109000D01*
X147300000Y-38109000D01*
X147300000Y-38089000D01*
X147400000Y-38089000D01*
X147400000Y-38109000D01*
X148115000Y-38109000D01*
X148215000Y-38009000D01*
X148216935Y-37654000D01*
X148209212Y-37575586D01*
X148186340Y-37500186D01*
X148149197Y-37430697D01*
X148099211Y-37369789D01*
X148092112Y-37363963D01*
X148093504Y-37361360D01*
X148110659Y-37304810D01*
X148116451Y-37246000D01*
X148116451Y-37040000D01*
X149008065Y-37040000D01*
X149015788Y-37118414D01*
X149038660Y-37193814D01*
X149075803Y-37263303D01*
X149125789Y-37324211D01*
X149186697Y-37374197D01*
X149256186Y-37411340D01*
X149331586Y-37434212D01*
X149410000Y-37441935D01*
X149580000Y-37440000D01*
X149680000Y-37340000D01*
X149680000Y-36795000D01*
X149110000Y-36795000D01*
X149010000Y-36895000D01*
X149008065Y-37040000D01*
X148116451Y-37040000D01*
X148116451Y-36236000D01*
X148110659Y-36177190D01*
X148109995Y-36175000D01*
X149118230Y-36175000D01*
X149075803Y-36226697D01*
X149038660Y-36296186D01*
X149015788Y-36371586D01*
X149008065Y-36450000D01*
X149010000Y-36595000D01*
X149110000Y-36695000D01*
X149680000Y-36695000D01*
X149680000Y-36675000D01*
X149780000Y-36675000D01*
X149780000Y-36695000D01*
X149800000Y-36695000D01*
X149800000Y-36795000D01*
X149780000Y-36795000D01*
X149780000Y-37340000D01*
X149880000Y-37440000D01*
X150050000Y-37441935D01*
X150128414Y-37434212D01*
X150203814Y-37411340D01*
X150262368Y-37380042D01*
X150265790Y-37384212D01*
X150326698Y-37434198D01*
X150396187Y-37471341D01*
X150471587Y-37494213D01*
X150550001Y-37501936D01*
X151650001Y-37500001D01*
X151750001Y-37400001D01*
X151750001Y-36400001D01*
X151730001Y-36400001D01*
X151730001Y-36300001D01*
X151750001Y-36300001D01*
X151750001Y-35300001D01*
X151650001Y-35200001D01*
X150550001Y-35198066D01*
X150471587Y-35205789D01*
X150396187Y-35228661D01*
X150326698Y-35265804D01*
X150265790Y-35315790D01*
X150245231Y-35340841D01*
X150219956Y-35310044D01*
X150151924Y-35254211D01*
X150074306Y-35212723D01*
X149990086Y-35187175D01*
X149902500Y-35178549D01*
X149557500Y-35178549D01*
X149469914Y-35187175D01*
X149385694Y-35212723D01*
X149308076Y-35254211D01*
X149240044Y-35310044D01*
X149186735Y-35375000D01*
X147630647Y-35375000D01*
X147611000Y-35373065D01*
X147591353Y-35375000D01*
X147532586Y-35380788D01*
X147457186Y-35403660D01*
X147387697Y-35440803D01*
X147326789Y-35490789D01*
X147314263Y-35506052D01*
X147081052Y-35739263D01*
X147065789Y-35751789D01*
X147015803Y-35812698D01*
X146978660Y-35882187D01*
X146962776Y-35934549D01*
X146885000Y-35934549D01*
X146826190Y-35940341D01*
X146769640Y-35957496D01*
X146717523Y-35985353D01*
X146671842Y-36022842D01*
X146634353Y-36068523D01*
X146606496Y-36120640D01*
X146589341Y-36177190D01*
X146583549Y-36236000D01*
X146583549Y-36341000D01*
X146495613Y-36341000D01*
X146500000Y-36318944D01*
X146500000Y-36181056D01*
X146473099Y-36045818D01*
X146420332Y-35918426D01*
X146343726Y-35803776D01*
X146246224Y-35706274D01*
X146131574Y-35629668D01*
X146004182Y-35576901D01*
X145868944Y-35550000D01*
X145731056Y-35550000D01*
X145595818Y-35576901D01*
X145468426Y-35629668D01*
X145353776Y-35706274D01*
X145256274Y-35803776D01*
X145179668Y-35918426D01*
X145126901Y-36045818D01*
X145121096Y-36075001D01*
X144425001Y-36075001D01*
X144425001Y-35559646D01*
X144426936Y-35539999D01*
X144419213Y-35461585D01*
X144396341Y-35386185D01*
X144359198Y-35316696D01*
X144349058Y-35304341D01*
X144309212Y-35255788D01*
X144293945Y-35243259D01*
X144091740Y-35041053D01*
X144079213Y-35025789D01*
X144018305Y-34975803D01*
X143948816Y-34938660D01*
X143873416Y-34915788D01*
X143814649Y-34910000D01*
X143814648Y-34910000D01*
X143795002Y-34908065D01*
X143775356Y-34910000D01*
X143184647Y-34910000D01*
X143165000Y-34908065D01*
X143145353Y-34910000D01*
X143086586Y-34915788D01*
X143011186Y-34938660D01*
X142941697Y-34975803D01*
X142880789Y-35025789D01*
X142868263Y-35041052D01*
X142811049Y-35098266D01*
X142795791Y-35110788D01*
X142783269Y-35126046D01*
X142783266Y-35126049D01*
X142745804Y-35171697D01*
X142708662Y-35241185D01*
X142688227Y-35308550D01*
X142680001Y-35308550D01*
X142680001Y-35248946D01*
X142681936Y-35229299D01*
X142674213Y-35150886D01*
X142672666Y-35145787D01*
X142651341Y-35075486D01*
X142614198Y-35005997D01*
X142595984Y-34983803D01*
X142576736Y-34960349D01*
X142576734Y-34960347D01*
X142564212Y-34945089D01*
X142548954Y-34932567D01*
X142177427Y-34561041D01*
X142164901Y-34545778D01*
X142103993Y-34495792D01*
X142034504Y-34458649D01*
X141959104Y-34435777D01*
X141900337Y-34429989D01*
X141900336Y-34429989D01*
X141880690Y-34428054D01*
X141861044Y-34429989D01*
X136639646Y-34429989D01*
X136620010Y-34428055D01*
X136600374Y-34429989D01*
X136600364Y-34429989D01*
X136541597Y-34435777D01*
X136466197Y-34458649D01*
X136396708Y-34495792D01*
X136396706Y-34495793D01*
X136396707Y-34495793D01*
X136351060Y-34533254D01*
X136351058Y-34533256D01*
X136335800Y-34545778D01*
X136323278Y-34561036D01*
X135781052Y-35103263D01*
X135765789Y-35115789D01*
X135715803Y-35176698D01*
X135678660Y-35246187D01*
X135662776Y-35298549D01*
X134800000Y-35298549D01*
X134741190Y-35304341D01*
X134684640Y-35321496D01*
X134632523Y-35349353D01*
X134586842Y-35386842D01*
X134549353Y-35432523D01*
X134521496Y-35484640D01*
X134504341Y-35541190D01*
X134498549Y-35600000D01*
X134498549Y-37100000D01*
X134504341Y-37158810D01*
X134521496Y-37215360D01*
X134549353Y-37267477D01*
X134586842Y-37313158D01*
X134632523Y-37350647D01*
X134684640Y-37378504D01*
X134741190Y-37395659D01*
X134800000Y-37401451D01*
X137300000Y-37401451D01*
X137358810Y-37395659D01*
X137415360Y-37378504D01*
X137467477Y-37350647D01*
X137513158Y-37313158D01*
X137550647Y-37267477D01*
X137578504Y-37215360D01*
X137595659Y-37158810D01*
X137601451Y-37100000D01*
X137601451Y-35600000D01*
X137595659Y-35541190D01*
X137578504Y-35484640D01*
X137550647Y-35432523D01*
X137513158Y-35386842D01*
X137467477Y-35349353D01*
X137415360Y-35321496D01*
X137358810Y-35304341D01*
X137300000Y-35298549D01*
X136717137Y-35298549D01*
X136785697Y-35229989D01*
X138568363Y-35229989D01*
X138448426Y-35279668D01*
X138333776Y-35356274D01*
X138236274Y-35453776D01*
X138159668Y-35568426D01*
X138106901Y-35695818D01*
X138080000Y-35831056D01*
X138080000Y-35968944D01*
X138106901Y-36104182D01*
X138159668Y-36231574D01*
X138236274Y-36346224D01*
X138333776Y-36443726D01*
X138448426Y-36520332D01*
X138575818Y-36573099D01*
X138711056Y-36600000D01*
X138848944Y-36600000D01*
X138984182Y-36573099D01*
X139111574Y-36520332D01*
X139226224Y-36443726D01*
X139285000Y-36384950D01*
X139373776Y-36473726D01*
X139488426Y-36550332D01*
X139615818Y-36603099D01*
X139751056Y-36630000D01*
X139888944Y-36630000D01*
X140024182Y-36603099D01*
X140151574Y-36550332D01*
X140215001Y-36507952D01*
X140215001Y-36525003D01*
X140264999Y-36525003D01*
X140215001Y-36575001D01*
X140222787Y-36637865D01*
X140247465Y-36712694D01*
X140286267Y-36781271D01*
X140313550Y-36812932D01*
X140313550Y-36950001D01*
X140319342Y-37008811D01*
X140336497Y-37065361D01*
X140341650Y-37075001D01*
X140336497Y-37084641D01*
X140319342Y-37141191D01*
X140313550Y-37200001D01*
X140313550Y-37350001D01*
X140319342Y-37408811D01*
X140336497Y-37465361D01*
X140341650Y-37475001D01*
X140336497Y-37484641D01*
X140319342Y-37541191D01*
X140313550Y-37600001D01*
X140313550Y-37750001D01*
X140319342Y-37808811D01*
X140336497Y-37865361D01*
X140341650Y-37875001D01*
X140336497Y-37884641D01*
X140319342Y-37941191D01*
X140313550Y-38000001D01*
X140313550Y-38150001D01*
X140319342Y-38208811D01*
X140336497Y-38265361D01*
X140341650Y-38275001D01*
X140336497Y-38284641D01*
X140319342Y-38341191D01*
X140313550Y-38400001D01*
X140313550Y-38550001D01*
X140319342Y-38608811D01*
X140336497Y-38665361D01*
X140364354Y-38717478D01*
X140401843Y-38763159D01*
X140447524Y-38800648D01*
X140499641Y-38828505D01*
X140556191Y-38845660D01*
X140615001Y-38851452D01*
X141103550Y-38851452D01*
X141103550Y-39340001D01*
X141109342Y-39398811D01*
X141126227Y-39454470D01*
X141029000Y-39455000D01*
X140929000Y-39555000D01*
X140929000Y-40270000D01*
X141684000Y-40270000D01*
X141784000Y-40170000D01*
X141785935Y-39855000D01*
X141778212Y-39776586D01*
X141766611Y-39738343D01*
X141780001Y-39740001D01*
X141829999Y-39690003D01*
X141829999Y-39740001D01*
X141880001Y-39740001D01*
X141880002Y-41650000D01*
X140810000Y-41650000D01*
X140810000Y-41560000D01*
X140830000Y-41560000D01*
X140830000Y-41010000D01*
X140829000Y-41009000D01*
X140829000Y-40370000D01*
X140929000Y-40370000D01*
X140929000Y-41085000D01*
X140930000Y-41086000D01*
X140930000Y-41560000D01*
X141450000Y-41560000D01*
X141550000Y-41460000D01*
X141551935Y-41310000D01*
X141544212Y-41231586D01*
X141522771Y-41160903D01*
X141537814Y-41156340D01*
X141607303Y-41119197D01*
X141668211Y-41069211D01*
X141718197Y-41008303D01*
X141755340Y-40938814D01*
X141778212Y-40863414D01*
X141785935Y-40785000D01*
X141784000Y-40470000D01*
X141684000Y-40370000D01*
X140929000Y-40370000D01*
X140829000Y-40370000D01*
X140809000Y-40370000D01*
X140809000Y-40270000D01*
X140829000Y-40270000D01*
X140829000Y-39555000D01*
X140729000Y-39455000D01*
X140374000Y-39453065D01*
X140295586Y-39460788D01*
X140220186Y-39483660D01*
X140150697Y-39520803D01*
X140089789Y-39570789D01*
X140083963Y-39577888D01*
X140081360Y-39576496D01*
X140024810Y-39559341D01*
X139966000Y-39553549D01*
X139861000Y-39553549D01*
X139861000Y-39000635D01*
X139862934Y-38980999D01*
X139861000Y-38961363D01*
X139861000Y-38961353D01*
X139855212Y-38902586D01*
X139832340Y-38827186D01*
X139795197Y-38757697D01*
X139745211Y-38696789D01*
X139729948Y-38684263D01*
X139689154Y-38643469D01*
X139700000Y-38588944D01*
X139700000Y-38451056D01*
X139673099Y-38315818D01*
X139620332Y-38188426D01*
X139543726Y-38073776D01*
X139446224Y-37976274D01*
X139331574Y-37899668D01*
X139204182Y-37846901D01*
X139068944Y-37820000D01*
X138931056Y-37820000D01*
X138795818Y-37846901D01*
X138668426Y-37899668D01*
X138553776Y-37976274D01*
X138456274Y-38073776D01*
X138379668Y-38188426D01*
X138349360Y-38261597D01*
X138301574Y-38229668D01*
X138174182Y-38176901D01*
X138038944Y-38150000D01*
X137901056Y-38150000D01*
X137765818Y-38176901D01*
X137638426Y-38229668D01*
X137601451Y-38254374D01*
X137601451Y-38100000D01*
X137595659Y-38041190D01*
X137578504Y-37984640D01*
X137550647Y-37932523D01*
X137513158Y-37886842D01*
X137467477Y-37849353D01*
X137415360Y-37821496D01*
X137358810Y-37804341D01*
X137300000Y-37798549D01*
X134800000Y-37798549D01*
X134741190Y-37804341D01*
X134684640Y-37821496D01*
X134632523Y-37849353D01*
X134586842Y-37886842D01*
X134549353Y-37932523D01*
X134521496Y-37984640D01*
X134504341Y-38041190D01*
X134498549Y-38100000D01*
X134498549Y-39600000D01*
X134504341Y-39658810D01*
X134521496Y-39715360D01*
X134549353Y-39767477D01*
X134586842Y-39813158D01*
X134632523Y-39850647D01*
X134684640Y-39878504D01*
X134741190Y-39895659D01*
X134800000Y-39901451D01*
X137300000Y-39901451D01*
X137358810Y-39895659D01*
X137415360Y-39878504D01*
X137467477Y-39850647D01*
X137513158Y-39813158D01*
X137550647Y-39767477D01*
X137578504Y-39715360D01*
X137595659Y-39658810D01*
X137601451Y-39600000D01*
X137601451Y-39445626D01*
X137638426Y-39470332D01*
X137765818Y-39523099D01*
X137901056Y-39550000D01*
X138038944Y-39550000D01*
X138174182Y-39523099D01*
X138301574Y-39470332D01*
X138416224Y-39393726D01*
X138513726Y-39296224D01*
X138590332Y-39181574D01*
X138620640Y-39108403D01*
X138668426Y-39140332D01*
X138795818Y-39193099D01*
X138931056Y-39220000D01*
X139061001Y-39220000D01*
X139061001Y-39553549D01*
X138956000Y-39553549D01*
X138897190Y-39559341D01*
X138840640Y-39576496D01*
X138788523Y-39604353D01*
X138742842Y-39641842D01*
X138705353Y-39687523D01*
X138677496Y-39739640D01*
X138660341Y-39796190D01*
X138654549Y-39855000D01*
X138654549Y-40785000D01*
X138660341Y-40843810D01*
X138677496Y-40900360D01*
X138705353Y-40952477D01*
X138742842Y-40998158D01*
X138788523Y-41035647D01*
X138840640Y-41063504D01*
X138897190Y-41080659D01*
X138956000Y-41086451D01*
X139062557Y-41086451D01*
X139066788Y-41129413D01*
X139089661Y-41204814D01*
X139126803Y-41274302D01*
X139164265Y-41319950D01*
X139164268Y-41319953D01*
X139176790Y-41335211D01*
X139192048Y-41347733D01*
X139448549Y-41604234D01*
X139448549Y-41650000D01*
X138677552Y-41650000D01*
X138713099Y-41564182D01*
X138740000Y-41428944D01*
X138740000Y-41291056D01*
X138713099Y-41155818D01*
X138660332Y-41028426D01*
X138583726Y-40913776D01*
X138486224Y-40816274D01*
X138371574Y-40739668D01*
X138244182Y-40686901D01*
X138108944Y-40660000D01*
X137971056Y-40660000D01*
X137835818Y-40686901D01*
X137708426Y-40739668D01*
X137601451Y-40811146D01*
X137601451Y-40600000D01*
X137595659Y-40541190D01*
X137578504Y-40484640D01*
X137550647Y-40432523D01*
X137513158Y-40386842D01*
X137467477Y-40349353D01*
X137415360Y-40321496D01*
X137358810Y-40304341D01*
X137300000Y-40298549D01*
X134800000Y-40298549D01*
X134741190Y-40304341D01*
X134684640Y-40321496D01*
X134632523Y-40349353D01*
X134586842Y-40386842D01*
X134549353Y-40432523D01*
X134521496Y-40484640D01*
X134504341Y-40541190D01*
X134498549Y-40600000D01*
X134498549Y-41650000D01*
X134325000Y-41650000D01*
X134325000Y-34325000D01*
X153425000Y-34325000D01*
X153425000Y-35458250D01*
G37*
X153425000Y-35458250D02*
X153421341Y-35446187D01*
X153384198Y-35376698D01*
X153334212Y-35315790D01*
X153273304Y-35265804D01*
X153203815Y-35228661D01*
X153128415Y-35205789D01*
X153050001Y-35198066D01*
X151950001Y-35200001D01*
X151850001Y-35300001D01*
X151850001Y-36300001D01*
X151870001Y-36300001D01*
X151870001Y-36400001D01*
X151850001Y-36400001D01*
X151850001Y-37400001D01*
X151950001Y-37500001D01*
X153050001Y-37501936D01*
X153128415Y-37494213D01*
X153203815Y-37471341D01*
X153273304Y-37434198D01*
X153334212Y-37384212D01*
X153384198Y-37323304D01*
X153421341Y-37253815D01*
X153425000Y-37241752D01*
X153425000Y-41650000D01*
X153351452Y-41650000D01*
X153351452Y-40600001D01*
X153345660Y-40541191D01*
X153328505Y-40484641D01*
X153300648Y-40432524D01*
X153263159Y-40386843D01*
X153217478Y-40349354D01*
X153165361Y-40321497D01*
X153108811Y-40304342D01*
X153050001Y-40298550D01*
X150550001Y-40298550D01*
X150491191Y-40304342D01*
X150434641Y-40321497D01*
X150382524Y-40349354D01*
X150336843Y-40386843D01*
X150299354Y-40432524D01*
X150271497Y-40484641D01*
X150254342Y-40541191D01*
X150248550Y-40600001D01*
X150248550Y-40950000D01*
X150244612Y-40950000D01*
X150213726Y-40903776D01*
X150116224Y-40806274D01*
X150001574Y-40729668D01*
X149874182Y-40676901D01*
X149738944Y-40650000D01*
X149601056Y-40650000D01*
X149465818Y-40676901D01*
X149338426Y-40729668D01*
X149223776Y-40806274D01*
X149126274Y-40903776D01*
X149049668Y-41018426D01*
X149030000Y-41065909D01*
X149030000Y-40770679D01*
X149067477Y-40750647D01*
X149113158Y-40713158D01*
X149150647Y-40667477D01*
X149178504Y-40615360D01*
X149195659Y-40558810D01*
X149201451Y-40500000D01*
X149201451Y-39900000D01*
X149195659Y-39841190D01*
X149178504Y-39784640D01*
X149150647Y-39732523D01*
X149113158Y-39686842D01*
X149067477Y-39649353D01*
X149015360Y-39621496D01*
X148958810Y-39604341D01*
X148900000Y-39598549D01*
X148360000Y-39598549D01*
X148301190Y-39604341D01*
X148244640Y-39621496D01*
X148200000Y-39645356D01*
X148155360Y-39621496D01*
X148098810Y-39604341D01*
X148040000Y-39598549D01*
X147500000Y-39598549D01*
X147441190Y-39604341D01*
X147384640Y-39621496D01*
X147332523Y-39649353D01*
X147286842Y-39686842D01*
X147249353Y-39732523D01*
X147221496Y-39784640D01*
X147204341Y-39841190D01*
X147198549Y-39900000D01*
X147198549Y-40500000D01*
X147204341Y-40558810D01*
X147221496Y-40615360D01*
X147249353Y-40667477D01*
X147258439Y-40678549D01*
X147213204Y-40678549D01*
X147173303Y-40645803D01*
X147103814Y-40608660D01*
X147028414Y-40585788D01*
X146950000Y-40578065D01*
X146950000Y-40580000D01*
X146850000Y-40680000D01*
X146850000Y-40965267D01*
X146848549Y-40980000D01*
X146848549Y-41350000D01*
X146750000Y-41350000D01*
X146750000Y-41330000D01*
X146730000Y-41330000D01*
X146730000Y-41230000D01*
X146750000Y-41230000D01*
X146750000Y-40680000D01*
X146650000Y-40580000D01*
X146650000Y-40578065D01*
X146571586Y-40585788D01*
X146496186Y-40608660D01*
X146426697Y-40645803D01*
X146365789Y-40695789D01*
X146315803Y-40756697D01*
X146278660Y-40826186D01*
X146255788Y-40901586D01*
X146248065Y-40980000D01*
X146248694Y-41028727D01*
X146150000Y-41030000D01*
X146050000Y-41130000D01*
X146050000Y-41530000D01*
X146070000Y-41530000D01*
X146070000Y-41628549D01*
X145930000Y-41628549D01*
X145930000Y-41530000D01*
X145950000Y-41530000D01*
X145950000Y-41130000D01*
X145850000Y-41030000D01*
X145743552Y-41028627D01*
X145710332Y-40948426D01*
X145644566Y-40850000D01*
X145680002Y-40850000D01*
X145680002Y-40750002D01*
X145780000Y-40850000D01*
X145900000Y-40851935D01*
X145978414Y-40844212D01*
X146053814Y-40821340D01*
X146123303Y-40784197D01*
X146184211Y-40734211D01*
X146234197Y-40673303D01*
X146271340Y-40603814D01*
X146294212Y-40528414D01*
X146301935Y-40450000D01*
X146300000Y-40300000D01*
X146200000Y-40200000D01*
X145680000Y-40200000D01*
X145680000Y-40220000D01*
X145580000Y-40220000D01*
X145580000Y-40200000D01*
X145560000Y-40200000D01*
X145560000Y-40100000D01*
X145580000Y-40100000D01*
X145580000Y-40080000D01*
X145680000Y-40080000D01*
X145680000Y-40100000D01*
X146200000Y-40100000D01*
X146300000Y-40000000D01*
X146301935Y-39850000D01*
X146294212Y-39771586D01*
X146271340Y-39696186D01*
X146234197Y-39626697D01*
X146184211Y-39565789D01*
X146123303Y-39515803D01*
X146053814Y-39478660D01*
X145978414Y-39455788D01*
X145923849Y-39450414D01*
X145950000Y-39318944D01*
X145950000Y-39181056D01*
X145923099Y-39045818D01*
X145870332Y-38918426D01*
X145793726Y-38803776D01*
X145724975Y-38735025D01*
X145760000Y-38700000D01*
X145760000Y-38180000D01*
X145860000Y-38180000D01*
X145860000Y-38700000D01*
X145960000Y-38800000D01*
X146110000Y-38801935D01*
X146188414Y-38794212D01*
X146263814Y-38771340D01*
X146333303Y-38734197D01*
X146394211Y-38684211D01*
X146444197Y-38623303D01*
X146481340Y-38553814D01*
X146483708Y-38546007D01*
X146483065Y-38664000D01*
X146490788Y-38742414D01*
X146513660Y-38817814D01*
X146550803Y-38887303D01*
X146600789Y-38948211D01*
X146661697Y-38998197D01*
X146731186Y-39035340D01*
X146806586Y-39058212D01*
X146885000Y-39065935D01*
X147200000Y-39064000D01*
X147300000Y-38964000D01*
X147300000Y-38209000D01*
X147400000Y-38209000D01*
X147400000Y-38964000D01*
X147500000Y-39064000D01*
X147815000Y-39065935D01*
X147893414Y-39058212D01*
X147968814Y-39035340D01*
X148038303Y-38998197D01*
X148099211Y-38948211D01*
X148149197Y-38887303D01*
X148186340Y-38817814D01*
X148197490Y-38781056D01*
X148990000Y-38781056D01*
X148990000Y-38918944D01*
X149016901Y-39054182D01*
X149069668Y-39181574D01*
X149146274Y-39296224D01*
X149243776Y-39393726D01*
X149358426Y-39470332D01*
X149485818Y-39523099D01*
X149621056Y-39550000D01*
X149758944Y-39550000D01*
X149894182Y-39523099D01*
X150021574Y-39470332D01*
X150136224Y-39393726D01*
X150233726Y-39296224D01*
X150248550Y-39274038D01*
X150248550Y-39600001D01*
X150254342Y-39658811D01*
X150271497Y-39715361D01*
X150299354Y-39767478D01*
X150336843Y-39813159D01*
X150382524Y-39850648D01*
X150434641Y-39878505D01*
X150491191Y-39895660D01*
X150550001Y-39901452D01*
X153050001Y-39901452D01*
X153108811Y-39895660D01*
X153165361Y-39878505D01*
X153217478Y-39850648D01*
X153263159Y-39813159D01*
X153300648Y-39767478D01*
X153328505Y-39715361D01*
X153345660Y-39658811D01*
X153351452Y-39600001D01*
X153351452Y-38100001D01*
X153345660Y-38041191D01*
X153328505Y-37984641D01*
X153300648Y-37932524D01*
X153263159Y-37886843D01*
X153217478Y-37849354D01*
X153165361Y-37821497D01*
X153108811Y-37804342D01*
X153050001Y-37798550D01*
X150550001Y-37798550D01*
X150491191Y-37804342D01*
X150434641Y-37821497D01*
X150382524Y-37849354D01*
X150336843Y-37886843D01*
X150299354Y-37932524D01*
X150271497Y-37984641D01*
X150254342Y-38041191D01*
X150248550Y-38100001D01*
X150248550Y-38425962D01*
X150233726Y-38403776D01*
X150136224Y-38306274D01*
X150021574Y-38229668D01*
X149894182Y-38176901D01*
X149758944Y-38150000D01*
X149621056Y-38150000D01*
X149485818Y-38176901D01*
X149358426Y-38229668D01*
X149243776Y-38306274D01*
X149146274Y-38403776D01*
X149069668Y-38518426D01*
X149016901Y-38645818D01*
X148990000Y-38781056D01*
X148197490Y-38781056D01*
X148209212Y-38742414D01*
X148216935Y-38664000D01*
X148215000Y-38309000D01*
X148115000Y-38209000D01*
X147400000Y-38209000D01*
X147300000Y-38209000D01*
X146585000Y-38209000D01*
X146510063Y-38283937D01*
X146510000Y-38280000D01*
X146410000Y-38180000D01*
X145860000Y-38180000D01*
X145760000Y-38180000D01*
X145210000Y-38180000D01*
X145110000Y-38280000D01*
X145108065Y-38400000D01*
X145115788Y-38478414D01*
X145138660Y-38553814D01*
X145140892Y-38557989D01*
X145045818Y-38576901D01*
X144918426Y-38629668D01*
X144803776Y-38706274D01*
X144706274Y-38803776D01*
X144629668Y-38918426D01*
X144576901Y-39045818D01*
X144550000Y-39181056D01*
X144550000Y-39318944D01*
X144560846Y-39373469D01*
X144501048Y-39433267D01*
X144485790Y-39445789D01*
X144473268Y-39461047D01*
X144473265Y-39461050D01*
X144435803Y-39506698D01*
X144404366Y-39565512D01*
X144384640Y-39571496D01*
X144332523Y-39599353D01*
X144288844Y-39635199D01*
X144252477Y-39605353D01*
X144200360Y-39577496D01*
X144143810Y-39560341D01*
X144085000Y-39554549D01*
X143766465Y-39554549D01*
X143768159Y-39553159D01*
X143805648Y-39507478D01*
X143833505Y-39455361D01*
X143850660Y-39398811D01*
X143856452Y-39340001D01*
X143856452Y-38950211D01*
X143875001Y-38950001D01*
X143975001Y-38850001D01*
X143975001Y-38451452D01*
X144075001Y-38451452D01*
X144075001Y-38850001D01*
X144175001Y-38950001D01*
X144335342Y-38951820D01*
X144413918Y-38945983D01*
X144489847Y-38924930D01*
X144560208Y-38889468D01*
X144622300Y-38840960D01*
X144673735Y-38781271D01*
X144712537Y-38712694D01*
X144737215Y-38637865D01*
X144745001Y-38575001D01*
X144645001Y-38475001D01*
X144745001Y-38375001D01*
X144737215Y-38312137D01*
X144712537Y-38237308D01*
X144673735Y-38168731D01*
X144646452Y-38137070D01*
X144646452Y-38000001D01*
X144640660Y-37941191D01*
X144623505Y-37884641D01*
X144618352Y-37875001D01*
X144623505Y-37865361D01*
X144640660Y-37808811D01*
X144646452Y-37750001D01*
X144646452Y-37600001D01*
X144640660Y-37541191D01*
X144623505Y-37484641D01*
X144618352Y-37475001D01*
X144623505Y-37465361D01*
X144640660Y-37408811D01*
X144646452Y-37350001D01*
X144646452Y-37200001D01*
X144640660Y-37141191D01*
X144623505Y-37084641D01*
X144618352Y-37075001D01*
X144623505Y-37065361D01*
X144640660Y-37008811D01*
X144646452Y-36950001D01*
X144646452Y-36875001D01*
X145236648Y-36875001D01*
X145231496Y-36884640D01*
X145214341Y-36941190D01*
X145208549Y-37000000D01*
X145208549Y-37540000D01*
X145213543Y-37590710D01*
X145175803Y-37636697D01*
X145138660Y-37706186D01*
X145115788Y-37781586D01*
X145108065Y-37860000D01*
X145110000Y-37980000D01*
X145210000Y-38080000D01*
X145760000Y-38080000D01*
X145760000Y-38060000D01*
X145860000Y-38060000D01*
X145860000Y-38080000D01*
X146410000Y-38080000D01*
X146484978Y-38005022D01*
X146485000Y-38009000D01*
X146585000Y-38109000D01*
X147300000Y-38109000D01*
X147300000Y-38089000D01*
X147400000Y-38089000D01*
X147400000Y-38109000D01*
X148115000Y-38109000D01*
X148215000Y-38009000D01*
X148216935Y-37654000D01*
X148209212Y-37575586D01*
X148186340Y-37500186D01*
X148149197Y-37430697D01*
X148099211Y-37369789D01*
X148092112Y-37363963D01*
X148093504Y-37361360D01*
X148110659Y-37304810D01*
X148116451Y-37246000D01*
X148116451Y-37040000D01*
X149008065Y-37040000D01*
X149015788Y-37118414D01*
X149038660Y-37193814D01*
X149075803Y-37263303D01*
X149125789Y-37324211D01*
X149186697Y-37374197D01*
X149256186Y-37411340D01*
X149331586Y-37434212D01*
X149410000Y-37441935D01*
X149580000Y-37440000D01*
X149680000Y-37340000D01*
X149680000Y-36795000D01*
X149110000Y-36795000D01*
X149010000Y-36895000D01*
X149008065Y-37040000D01*
X148116451Y-37040000D01*
X148116451Y-36236000D01*
X148110659Y-36177190D01*
X148109995Y-36175000D01*
X149118230Y-36175000D01*
X149075803Y-36226697D01*
X149038660Y-36296186D01*
X149015788Y-36371586D01*
X149008065Y-36450000D01*
X149010000Y-36595000D01*
X149110000Y-36695000D01*
X149680000Y-36695000D01*
X149680000Y-36675000D01*
X149780000Y-36675000D01*
X149780000Y-36695000D01*
X149800000Y-36695000D01*
X149800000Y-36795000D01*
X149780000Y-36795000D01*
X149780000Y-37340000D01*
X149880000Y-37440000D01*
X150050000Y-37441935D01*
X150128414Y-37434212D01*
X150203814Y-37411340D01*
X150262368Y-37380042D01*
X150265790Y-37384212D01*
X150326698Y-37434198D01*
X150396187Y-37471341D01*
X150471587Y-37494213D01*
X150550001Y-37501936D01*
X151650001Y-37500001D01*
X151750001Y-37400001D01*
X151750001Y-36400001D01*
X151730001Y-36400001D01*
X151730001Y-36300001D01*
X151750001Y-36300001D01*
X151750001Y-35300001D01*
X151650001Y-35200001D01*
X150550001Y-35198066D01*
X150471587Y-35205789D01*
X150396187Y-35228661D01*
X150326698Y-35265804D01*
X150265790Y-35315790D01*
X150245231Y-35340841D01*
X150219956Y-35310044D01*
X150151924Y-35254211D01*
X150074306Y-35212723D01*
X149990086Y-35187175D01*
X149902500Y-35178549D01*
X149557500Y-35178549D01*
X149469914Y-35187175D01*
X149385694Y-35212723D01*
X149308076Y-35254211D01*
X149240044Y-35310044D01*
X149186735Y-35375000D01*
X147630647Y-35375000D01*
X147611000Y-35373065D01*
X147591353Y-35375000D01*
X147532586Y-35380788D01*
X147457186Y-35403660D01*
X147387697Y-35440803D01*
X147326789Y-35490789D01*
X147314263Y-35506052D01*
X147081052Y-35739263D01*
X147065789Y-35751789D01*
X147015803Y-35812698D01*
X146978660Y-35882187D01*
X146962776Y-35934549D01*
X146885000Y-35934549D01*
X146826190Y-35940341D01*
X146769640Y-35957496D01*
X146717523Y-35985353D01*
X146671842Y-36022842D01*
X146634353Y-36068523D01*
X146606496Y-36120640D01*
X146589341Y-36177190D01*
X146583549Y-36236000D01*
X146583549Y-36341000D01*
X146495613Y-36341000D01*
X146500000Y-36318944D01*
X146500000Y-36181056D01*
X146473099Y-36045818D01*
X146420332Y-35918426D01*
X146343726Y-35803776D01*
X146246224Y-35706274D01*
X146131574Y-35629668D01*
X146004182Y-35576901D01*
X145868944Y-35550000D01*
X145731056Y-35550000D01*
X145595818Y-35576901D01*
X145468426Y-35629668D01*
X145353776Y-35706274D01*
X145256274Y-35803776D01*
X145179668Y-35918426D01*
X145126901Y-36045818D01*
X145121096Y-36075001D01*
X144425001Y-36075001D01*
X144425001Y-35559646D01*
X144426936Y-35539999D01*
X144419213Y-35461585D01*
X144396341Y-35386185D01*
X144359198Y-35316696D01*
X144349058Y-35304341D01*
X144309212Y-35255788D01*
X144293945Y-35243259D01*
X144091740Y-35041053D01*
X144079213Y-35025789D01*
X144018305Y-34975803D01*
X143948816Y-34938660D01*
X143873416Y-34915788D01*
X143814649Y-34910000D01*
X143814648Y-34910000D01*
X143795002Y-34908065D01*
X143775356Y-34910000D01*
X143184647Y-34910000D01*
X143165000Y-34908065D01*
X143145353Y-34910000D01*
X143086586Y-34915788D01*
X143011186Y-34938660D01*
X142941697Y-34975803D01*
X142880789Y-35025789D01*
X142868263Y-35041052D01*
X142811049Y-35098266D01*
X142795791Y-35110788D01*
X142783269Y-35126046D01*
X142783266Y-35126049D01*
X142745804Y-35171697D01*
X142708662Y-35241185D01*
X142688227Y-35308550D01*
X142680001Y-35308550D01*
X142680001Y-35248946D01*
X142681936Y-35229299D01*
X142674213Y-35150886D01*
X142672666Y-35145787D01*
X142651341Y-35075486D01*
X142614198Y-35005997D01*
X142595984Y-34983803D01*
X142576736Y-34960349D01*
X142576734Y-34960347D01*
X142564212Y-34945089D01*
X142548954Y-34932567D01*
X142177427Y-34561041D01*
X142164901Y-34545778D01*
X142103993Y-34495792D01*
X142034504Y-34458649D01*
X141959104Y-34435777D01*
X141900337Y-34429989D01*
X141900336Y-34429989D01*
X141880690Y-34428054D01*
X141861044Y-34429989D01*
X136639646Y-34429989D01*
X136620010Y-34428055D01*
X136600374Y-34429989D01*
X136600364Y-34429989D01*
X136541597Y-34435777D01*
X136466197Y-34458649D01*
X136396708Y-34495792D01*
X136396706Y-34495793D01*
X136396707Y-34495793D01*
X136351060Y-34533254D01*
X136351058Y-34533256D01*
X136335800Y-34545778D01*
X136323278Y-34561036D01*
X135781052Y-35103263D01*
X135765789Y-35115789D01*
X135715803Y-35176698D01*
X135678660Y-35246187D01*
X135662776Y-35298549D01*
X134800000Y-35298549D01*
X134741190Y-35304341D01*
X134684640Y-35321496D01*
X134632523Y-35349353D01*
X134586842Y-35386842D01*
X134549353Y-35432523D01*
X134521496Y-35484640D01*
X134504341Y-35541190D01*
X134498549Y-35600000D01*
X134498549Y-37100000D01*
X134504341Y-37158810D01*
X134521496Y-37215360D01*
X134549353Y-37267477D01*
X134586842Y-37313158D01*
X134632523Y-37350647D01*
X134684640Y-37378504D01*
X134741190Y-37395659D01*
X134800000Y-37401451D01*
X137300000Y-37401451D01*
X137358810Y-37395659D01*
X137415360Y-37378504D01*
X137467477Y-37350647D01*
X137513158Y-37313158D01*
X137550647Y-37267477D01*
X137578504Y-37215360D01*
X137595659Y-37158810D01*
X137601451Y-37100000D01*
X137601451Y-35600000D01*
X137595659Y-35541190D01*
X137578504Y-35484640D01*
X137550647Y-35432523D01*
X137513158Y-35386842D01*
X137467477Y-35349353D01*
X137415360Y-35321496D01*
X137358810Y-35304341D01*
X137300000Y-35298549D01*
X136717137Y-35298549D01*
X136785697Y-35229989D01*
X138568363Y-35229989D01*
X138448426Y-35279668D01*
X138333776Y-35356274D01*
X138236274Y-35453776D01*
X138159668Y-35568426D01*
X138106901Y-35695818D01*
X138080000Y-35831056D01*
X138080000Y-35968944D01*
X138106901Y-36104182D01*
X138159668Y-36231574D01*
X138236274Y-36346224D01*
X138333776Y-36443726D01*
X138448426Y-36520332D01*
X138575818Y-36573099D01*
X138711056Y-36600000D01*
X138848944Y-36600000D01*
X138984182Y-36573099D01*
X139111574Y-36520332D01*
X139226224Y-36443726D01*
X139285000Y-36384950D01*
X139373776Y-36473726D01*
X139488426Y-36550332D01*
X139615818Y-36603099D01*
X139751056Y-36630000D01*
X139888944Y-36630000D01*
X140024182Y-36603099D01*
X140151574Y-36550332D01*
X140215001Y-36507952D01*
X140215001Y-36525003D01*
X140264999Y-36525003D01*
X140215001Y-36575001D01*
X140222787Y-36637865D01*
X140247465Y-36712694D01*
X140286267Y-36781271D01*
X140313550Y-36812932D01*
X140313550Y-36950001D01*
X140319342Y-37008811D01*
X140336497Y-37065361D01*
X140341650Y-37075001D01*
X140336497Y-37084641D01*
X140319342Y-37141191D01*
X140313550Y-37200001D01*
X140313550Y-37350001D01*
X140319342Y-37408811D01*
X140336497Y-37465361D01*
X140341650Y-37475001D01*
X140336497Y-37484641D01*
X140319342Y-37541191D01*
X140313550Y-37600001D01*
X140313550Y-37750001D01*
X140319342Y-37808811D01*
X140336497Y-37865361D01*
X140341650Y-37875001D01*
X140336497Y-37884641D01*
X140319342Y-37941191D01*
X140313550Y-38000001D01*
X140313550Y-38150001D01*
X140319342Y-38208811D01*
X140336497Y-38265361D01*
X140341650Y-38275001D01*
X140336497Y-38284641D01*
X140319342Y-38341191D01*
X140313550Y-38400001D01*
X140313550Y-38550001D01*
X140319342Y-38608811D01*
X140336497Y-38665361D01*
X140364354Y-38717478D01*
X140401843Y-38763159D01*
X140447524Y-38800648D01*
X140499641Y-38828505D01*
X140556191Y-38845660D01*
X140615001Y-38851452D01*
X141103550Y-38851452D01*
X141103550Y-39340001D01*
X141109342Y-39398811D01*
X141126227Y-39454470D01*
X141029000Y-39455000D01*
X140929000Y-39555000D01*
X140929000Y-40270000D01*
X141684000Y-40270000D01*
X141784000Y-40170000D01*
X141785935Y-39855000D01*
X141778212Y-39776586D01*
X141766611Y-39738343D01*
X141780001Y-39740001D01*
X141829999Y-39690003D01*
X141829999Y-39740001D01*
X141880001Y-39740001D01*
X141880002Y-41650000D01*
X140810000Y-41650000D01*
X140810000Y-41560000D01*
X140830000Y-41560000D01*
X140830000Y-41010000D01*
X140829000Y-41009000D01*
X140829000Y-40370000D01*
X140929000Y-40370000D01*
X140929000Y-41085000D01*
X140930000Y-41086000D01*
X140930000Y-41560000D01*
X141450000Y-41560000D01*
X141550000Y-41460000D01*
X141551935Y-41310000D01*
X141544212Y-41231586D01*
X141522771Y-41160903D01*
X141537814Y-41156340D01*
X141607303Y-41119197D01*
X141668211Y-41069211D01*
X141718197Y-41008303D01*
X141755340Y-40938814D01*
X141778212Y-40863414D01*
X141785935Y-40785000D01*
X141784000Y-40470000D01*
X141684000Y-40370000D01*
X140929000Y-40370000D01*
X140829000Y-40370000D01*
X140809000Y-40370000D01*
X140809000Y-40270000D01*
X140829000Y-40270000D01*
X140829000Y-39555000D01*
X140729000Y-39455000D01*
X140374000Y-39453065D01*
X140295586Y-39460788D01*
X140220186Y-39483660D01*
X140150697Y-39520803D01*
X140089789Y-39570789D01*
X140083963Y-39577888D01*
X140081360Y-39576496D01*
X140024810Y-39559341D01*
X139966000Y-39553549D01*
X139861000Y-39553549D01*
X139861000Y-39000635D01*
X139862934Y-38980999D01*
X139861000Y-38961363D01*
X139861000Y-38961353D01*
X139855212Y-38902586D01*
X139832340Y-38827186D01*
X139795197Y-38757697D01*
X139745211Y-38696789D01*
X139729948Y-38684263D01*
X139689154Y-38643469D01*
X139700000Y-38588944D01*
X139700000Y-38451056D01*
X139673099Y-38315818D01*
X139620332Y-38188426D01*
X139543726Y-38073776D01*
X139446224Y-37976274D01*
X139331574Y-37899668D01*
X139204182Y-37846901D01*
X139068944Y-37820000D01*
X138931056Y-37820000D01*
X138795818Y-37846901D01*
X138668426Y-37899668D01*
X138553776Y-37976274D01*
X138456274Y-38073776D01*
X138379668Y-38188426D01*
X138349360Y-38261597D01*
X138301574Y-38229668D01*
X138174182Y-38176901D01*
X138038944Y-38150000D01*
X137901056Y-38150000D01*
X137765818Y-38176901D01*
X137638426Y-38229668D01*
X137601451Y-38254374D01*
X137601451Y-38100000D01*
X137595659Y-38041190D01*
X137578504Y-37984640D01*
X137550647Y-37932523D01*
X137513158Y-37886842D01*
X137467477Y-37849353D01*
X137415360Y-37821496D01*
X137358810Y-37804341D01*
X137300000Y-37798549D01*
X134800000Y-37798549D01*
X134741190Y-37804341D01*
X134684640Y-37821496D01*
X134632523Y-37849353D01*
X134586842Y-37886842D01*
X134549353Y-37932523D01*
X134521496Y-37984640D01*
X134504341Y-38041190D01*
X134498549Y-38100000D01*
X134498549Y-39600000D01*
X134504341Y-39658810D01*
X134521496Y-39715360D01*
X134549353Y-39767477D01*
X134586842Y-39813158D01*
X134632523Y-39850647D01*
X134684640Y-39878504D01*
X134741190Y-39895659D01*
X134800000Y-39901451D01*
X137300000Y-39901451D01*
X137358810Y-39895659D01*
X137415360Y-39878504D01*
X137467477Y-39850647D01*
X137513158Y-39813158D01*
X137550647Y-39767477D01*
X137578504Y-39715360D01*
X137595659Y-39658810D01*
X137601451Y-39600000D01*
X137601451Y-39445626D01*
X137638426Y-39470332D01*
X137765818Y-39523099D01*
X137901056Y-39550000D01*
X138038944Y-39550000D01*
X138174182Y-39523099D01*
X138301574Y-39470332D01*
X138416224Y-39393726D01*
X138513726Y-39296224D01*
X138590332Y-39181574D01*
X138620640Y-39108403D01*
X138668426Y-39140332D01*
X138795818Y-39193099D01*
X138931056Y-39220000D01*
X139061001Y-39220000D01*
X139061001Y-39553549D01*
X138956000Y-39553549D01*
X138897190Y-39559341D01*
X138840640Y-39576496D01*
X138788523Y-39604353D01*
X138742842Y-39641842D01*
X138705353Y-39687523D01*
X138677496Y-39739640D01*
X138660341Y-39796190D01*
X138654549Y-39855000D01*
X138654549Y-40785000D01*
X138660341Y-40843810D01*
X138677496Y-40900360D01*
X138705353Y-40952477D01*
X138742842Y-40998158D01*
X138788523Y-41035647D01*
X138840640Y-41063504D01*
X138897190Y-41080659D01*
X138956000Y-41086451D01*
X139062557Y-41086451D01*
X139066788Y-41129413D01*
X139089661Y-41204814D01*
X139126803Y-41274302D01*
X139164265Y-41319950D01*
X139164268Y-41319953D01*
X139176790Y-41335211D01*
X139192048Y-41347733D01*
X139448549Y-41604234D01*
X139448549Y-41650000D01*
X138677552Y-41650000D01*
X138713099Y-41564182D01*
X138740000Y-41428944D01*
X138740000Y-41291056D01*
X138713099Y-41155818D01*
X138660332Y-41028426D01*
X138583726Y-40913776D01*
X138486224Y-40816274D01*
X138371574Y-40739668D01*
X138244182Y-40686901D01*
X138108944Y-40660000D01*
X137971056Y-40660000D01*
X137835818Y-40686901D01*
X137708426Y-40739668D01*
X137601451Y-40811146D01*
X137601451Y-40600000D01*
X137595659Y-40541190D01*
X137578504Y-40484640D01*
X137550647Y-40432523D01*
X137513158Y-40386842D01*
X137467477Y-40349353D01*
X137415360Y-40321496D01*
X137358810Y-40304341D01*
X137300000Y-40298549D01*
X134800000Y-40298549D01*
X134741190Y-40304341D01*
X134684640Y-40321496D01*
X134632523Y-40349353D01*
X134586842Y-40386842D01*
X134549353Y-40432523D01*
X134521496Y-40484640D01*
X134504341Y-40541190D01*
X134498549Y-40600000D01*
X134498549Y-41650000D01*
X134325000Y-41650000D01*
X134325000Y-34325000D01*
X153425000Y-34325000D01*
X153425000Y-35458250D01*
G36*
X141880001Y-39000355D02*
G01*
X141880001Y-39070001D01*
X141856452Y-39070001D01*
X141856452Y-38970001D01*
X141882991Y-38970001D01*
X141880001Y-39000355D01*
G37*
X141880001Y-39000355D02*
X141880001Y-39070001D01*
X141856452Y-39070001D01*
X141856452Y-38970001D01*
X141882991Y-38970001D01*
X141880001Y-39000355D01*
G36*
X140985001Y-36498550D02*
G01*
X140885001Y-36498550D01*
X140885001Y-36405001D01*
X140985001Y-36405001D01*
X140985001Y-36498550D01*
G37*
X140985001Y-36498550D02*
X140885001Y-36498550D01*
X140885001Y-36405001D01*
X140985001Y-36405001D01*
X140985001Y-36498550D01*
G36*
X141570000Y-42611056D02*
G01*
X141570000Y-42748944D01*
X141596901Y-42884182D01*
X141649668Y-43011574D01*
X141726274Y-43126224D01*
X141823776Y-43223726D01*
X141870001Y-43254612D01*
X141870000Y-43996994D01*
X141837523Y-44014353D01*
X141791842Y-44051842D01*
X141754353Y-44097523D01*
X141726496Y-44149640D01*
X141709341Y-44206190D01*
X141703549Y-44265000D01*
X141703549Y-45575000D01*
X141709341Y-45633810D01*
X141726496Y-45690360D01*
X141754353Y-45742477D01*
X141791842Y-45788158D01*
X141837523Y-45825647D01*
X141889640Y-45853504D01*
X141946190Y-45870659D01*
X142005000Y-45876451D01*
X142535000Y-45876451D01*
X142593810Y-45870659D01*
X142650360Y-45853504D01*
X142702477Y-45825647D01*
X142748158Y-45788158D01*
X142785647Y-45742477D01*
X142813504Y-45690360D01*
X142830659Y-45633810D01*
X142836451Y-45575000D01*
X142836451Y-44265000D01*
X142830659Y-44206190D01*
X142813504Y-44149640D01*
X142785647Y-44097523D01*
X142748158Y-44051842D01*
X142702477Y-44014353D01*
X142670000Y-43996994D01*
X142670000Y-43254612D01*
X142716224Y-43223726D01*
X142813726Y-43126224D01*
X142844612Y-43080000D01*
X142962070Y-43080000D01*
X142909668Y-43158426D01*
X142856901Y-43285818D01*
X142830000Y-43421056D01*
X142830000Y-43558944D01*
X142856901Y-43694182D01*
X142909668Y-43821574D01*
X142986274Y-43936224D01*
X143074824Y-44024774D01*
X143041842Y-44051842D01*
X143004353Y-44097523D01*
X142976496Y-44149640D01*
X142959341Y-44206190D01*
X142953549Y-44265000D01*
X142953549Y-45575000D01*
X142959341Y-45633810D01*
X142976496Y-45690360D01*
X143004353Y-45742477D01*
X143041842Y-45788158D01*
X143087523Y-45825647D01*
X143139640Y-45853504D01*
X143196190Y-45870659D01*
X143255000Y-45876451D01*
X143785000Y-45876451D01*
X143843810Y-45870659D01*
X143900360Y-45853504D01*
X143952477Y-45825647D01*
X143998158Y-45788158D01*
X144035647Y-45742477D01*
X144063504Y-45690360D01*
X144080659Y-45633810D01*
X144086451Y-45575000D01*
X144086451Y-44265000D01*
X144080659Y-44206190D01*
X144063504Y-44149640D01*
X144035647Y-44097523D01*
X143998158Y-44051842D01*
X143976146Y-44033778D01*
X143976224Y-44033726D01*
X144073726Y-43936224D01*
X144150332Y-43821574D01*
X144203099Y-43694182D01*
X144230000Y-43558944D01*
X144230000Y-43421056D01*
X144224322Y-43392512D01*
X144250745Y-43414197D01*
X144320234Y-43451340D01*
X144395634Y-43474212D01*
X144454401Y-43480000D01*
X144454411Y-43480000D01*
X144474047Y-43481934D01*
X144493683Y-43480000D01*
X145398549Y-43480000D01*
X145398549Y-43730000D01*
X145404341Y-43788810D01*
X145421496Y-43845360D01*
X145449353Y-43897477D01*
X145486842Y-43943158D01*
X145532523Y-43980647D01*
X145584640Y-44008504D01*
X145600000Y-44013164D01*
X145600001Y-44405388D01*
X145553776Y-44436274D01*
X145456274Y-44533776D01*
X145379668Y-44648426D01*
X145326901Y-44775818D01*
X145300000Y-44911056D01*
X145300000Y-45048944D01*
X145326901Y-45184182D01*
X145379668Y-45311574D01*
X145456274Y-45426224D01*
X145553776Y-45523726D01*
X145668426Y-45600332D01*
X145795818Y-45653099D01*
X145931056Y-45680000D01*
X146068944Y-45680000D01*
X146204182Y-45653099D01*
X146331574Y-45600332D01*
X146332069Y-45600001D01*
X150148066Y-45600001D01*
X150150001Y-46200001D01*
X150250001Y-46300001D01*
X151750001Y-46300001D01*
X151750001Y-45300001D01*
X151650001Y-45200001D01*
X150550001Y-45198066D01*
X150471587Y-45205789D01*
X150396187Y-45228661D01*
X150326698Y-45265804D01*
X150265790Y-45315790D01*
X150215804Y-45376698D01*
X150178661Y-45446187D01*
X150155789Y-45521587D01*
X150148066Y-45600001D01*
X146332069Y-45600001D01*
X146446224Y-45523726D01*
X146543726Y-45426224D01*
X146620332Y-45311574D01*
X146673099Y-45184182D01*
X146700000Y-45048944D01*
X146700000Y-44911056D01*
X146673099Y-44775818D01*
X146620332Y-44648426D01*
X146543726Y-44533776D01*
X146446224Y-44436274D01*
X146400000Y-44405388D01*
X146400000Y-44348265D01*
X146436842Y-44393158D01*
X146482523Y-44430647D01*
X146534640Y-44458504D01*
X146591190Y-44475659D01*
X146650000Y-44481451D01*
X146950000Y-44481451D01*
X147008810Y-44475659D01*
X147050000Y-44463164D01*
X147091190Y-44475659D01*
X147150000Y-44481451D01*
X147386796Y-44481451D01*
X147426697Y-44514197D01*
X147496186Y-44551340D01*
X147571586Y-44574212D01*
X147650000Y-44581935D01*
X147650000Y-44580000D01*
X147750000Y-44480000D01*
X147750000Y-44194733D01*
X147751451Y-44180000D01*
X147751451Y-43580000D01*
X147750000Y-43565267D01*
X147750000Y-43280000D01*
X147650000Y-43180000D01*
X147650000Y-43178065D01*
X147571586Y-43185788D01*
X147496186Y-43208660D01*
X147426697Y-43245803D01*
X147386796Y-43278549D01*
X147150000Y-43278549D01*
X147091190Y-43284341D01*
X147050000Y-43296836D01*
X147008810Y-43284341D01*
X146950000Y-43278549D01*
X146650000Y-43278549D01*
X146596147Y-43283853D01*
X146601451Y-43230000D01*
X146601451Y-42930000D01*
X146595659Y-42871190D01*
X146583164Y-42830000D01*
X146595659Y-42788810D01*
X146601451Y-42730000D01*
X146601451Y-42600000D01*
X147900000Y-42600000D01*
X147900000Y-42630002D01*
X147999998Y-42630002D01*
X147900000Y-42730000D01*
X147898065Y-42730000D01*
X147905788Y-42808414D01*
X147912336Y-42830000D01*
X147905788Y-42851586D01*
X147898065Y-42930000D01*
X147900000Y-42930000D01*
X148000000Y-43030000D01*
X148035028Y-43030000D01*
X148076697Y-43064197D01*
X148106262Y-43080000D01*
X148076697Y-43095803D01*
X148035028Y-43130000D01*
X148000000Y-43130000D01*
X147951762Y-43178238D01*
X147950000Y-43178065D01*
X147950000Y-43180000D01*
X147900000Y-43230000D01*
X147898065Y-43230000D01*
X147898238Y-43231762D01*
X147850000Y-43280000D01*
X147850000Y-43830000D01*
X147870000Y-43830000D01*
X147870000Y-43930000D01*
X147850000Y-43930000D01*
X147850000Y-44480000D01*
X147950000Y-44580000D01*
X147950000Y-44581935D01*
X148028414Y-44574212D01*
X148103814Y-44551340D01*
X148173303Y-44514197D01*
X148234211Y-44464211D01*
X148284197Y-44403303D01*
X148321340Y-44333814D01*
X148344212Y-44258414D01*
X148351935Y-44180000D01*
X148351306Y-44131273D01*
X148450000Y-44130000D01*
X148550000Y-44030000D01*
X148550000Y-43630000D01*
X148530000Y-43630000D01*
X148530000Y-43550000D01*
X148550000Y-43530000D01*
X148550000Y-43130000D01*
X148500000Y-43080000D01*
X148550000Y-43030000D01*
X148550000Y-43010000D01*
X148650000Y-43010000D01*
X148650000Y-43030000D01*
X148700000Y-43080000D01*
X148650000Y-43130000D01*
X148650000Y-43530000D01*
X148670000Y-43550000D01*
X148670000Y-43630000D01*
X148650000Y-43630000D01*
X148650000Y-44030000D01*
X148750000Y-44130000D01*
X148900000Y-44131935D01*
X148978414Y-44124212D01*
X149053814Y-44101340D01*
X149060755Y-44097630D01*
X149099668Y-44191574D01*
X149176274Y-44306224D01*
X149273776Y-44403726D01*
X149388426Y-44480332D01*
X149515818Y-44533099D01*
X149651056Y-44560000D01*
X149788944Y-44560000D01*
X149924182Y-44533099D01*
X150051574Y-44480332D01*
X150166224Y-44403726D01*
X150248550Y-44321400D01*
X150248550Y-44600001D01*
X150254342Y-44658811D01*
X150271497Y-44715361D01*
X150299354Y-44767478D01*
X150336843Y-44813159D01*
X150382524Y-44850648D01*
X150434641Y-44878505D01*
X150491191Y-44895660D01*
X150550001Y-44901452D01*
X153050001Y-44901452D01*
X153108811Y-44895660D01*
X153165361Y-44878505D01*
X153217478Y-44850648D01*
X153263159Y-44813159D01*
X153300648Y-44767478D01*
X153328505Y-44715361D01*
X153345660Y-44658811D01*
X153351452Y-44600001D01*
X153351452Y-43100001D01*
X153345660Y-43041191D01*
X153328505Y-42984641D01*
X153300648Y-42932524D01*
X153263159Y-42886843D01*
X153217478Y-42849354D01*
X153165361Y-42821497D01*
X153108811Y-42804342D01*
X153050001Y-42798550D01*
X150550001Y-42798550D01*
X150491191Y-42804342D01*
X150434641Y-42821497D01*
X150382524Y-42849354D01*
X150336843Y-42886843D01*
X150299354Y-42932524D01*
X150271497Y-42984641D01*
X150254342Y-43041191D01*
X150248550Y-43100001D01*
X150248550Y-43398600D01*
X150166224Y-43316274D01*
X150051574Y-43239668D01*
X149924182Y-43186901D01*
X149788944Y-43160000D01*
X149651056Y-43160000D01*
X149515818Y-43186901D01*
X149388426Y-43239668D01*
X149294823Y-43302211D01*
X149301935Y-43230000D01*
X149300000Y-43230000D01*
X149200000Y-43130000D01*
X149164972Y-43130000D01*
X149123303Y-43095803D01*
X149093738Y-43080000D01*
X149123303Y-43064197D01*
X149164972Y-43030000D01*
X149200000Y-43030000D01*
X149300000Y-42930000D01*
X149301935Y-42930000D01*
X149294212Y-42851586D01*
X149287664Y-42830000D01*
X149294212Y-42808414D01*
X149301935Y-42730000D01*
X149300000Y-42730000D01*
X149200002Y-42630002D01*
X149300000Y-42630002D01*
X149300000Y-42600000D01*
X153425001Y-42600000D01*
X153425001Y-45458252D01*
X153421341Y-45446187D01*
X153384198Y-45376698D01*
X153334212Y-45315790D01*
X153273304Y-45265804D01*
X153203815Y-45228661D01*
X153128415Y-45205789D01*
X153050001Y-45198066D01*
X151950001Y-45200001D01*
X151850001Y-45300001D01*
X151850001Y-46300001D01*
X151870001Y-46300001D01*
X151870001Y-46400001D01*
X151850001Y-46400001D01*
X151850001Y-47400001D01*
X151950001Y-47500001D01*
X153050001Y-47501936D01*
X153128415Y-47494213D01*
X153203815Y-47471341D01*
X153273304Y-47434198D01*
X153334212Y-47384212D01*
X153384198Y-47323304D01*
X153421341Y-47253815D01*
X153425001Y-47241750D01*
X153425001Y-48425000D01*
X134325000Y-48425000D01*
X134325000Y-47670000D01*
X136438065Y-47670000D01*
X136445788Y-47748414D01*
X136468660Y-47823814D01*
X136505803Y-47893303D01*
X136555789Y-47954211D01*
X136616697Y-48004197D01*
X136686186Y-48041340D01*
X136761586Y-48064212D01*
X136840000Y-48071935D01*
X136960000Y-48070000D01*
X137060000Y-47970000D01*
X137060000Y-47420000D01*
X136540000Y-47420000D01*
X136440000Y-47520000D01*
X136438065Y-47670000D01*
X134325000Y-47670000D01*
X134325000Y-47070000D01*
X136438065Y-47070000D01*
X136440000Y-47220000D01*
X136540000Y-47320000D01*
X137060000Y-47320000D01*
X137060000Y-46770000D01*
X137160000Y-46770000D01*
X137160000Y-47320000D01*
X137180000Y-47320000D01*
X137180000Y-47420000D01*
X137160000Y-47420000D01*
X137160000Y-47970000D01*
X137260000Y-48070000D01*
X137380000Y-48071935D01*
X137458414Y-48064212D01*
X137533814Y-48041340D01*
X137603303Y-48004197D01*
X137649290Y-47966457D01*
X137700000Y-47971451D01*
X138240000Y-47971451D01*
X138298810Y-47965659D01*
X138355360Y-47948504D01*
X138407477Y-47920647D01*
X138453158Y-47883158D01*
X138490647Y-47837477D01*
X138518504Y-47785360D01*
X138523164Y-47770000D01*
X139203549Y-47770000D01*
X139203549Y-47975000D01*
X139209341Y-48033810D01*
X139226496Y-48090360D01*
X139254353Y-48142477D01*
X139291842Y-48188158D01*
X139337523Y-48225647D01*
X139389640Y-48253504D01*
X139446190Y-48270659D01*
X139505000Y-48276451D01*
X140035000Y-48276451D01*
X140093810Y-48270659D01*
X140150360Y-48253504D01*
X140202477Y-48225647D01*
X140248158Y-48188158D01*
X140285647Y-48142477D01*
X140313504Y-48090360D01*
X140330659Y-48033810D01*
X140336451Y-47975000D01*
X140353065Y-47975000D01*
X140360788Y-48053414D01*
X140383660Y-48128814D01*
X140420803Y-48198303D01*
X140470789Y-48259211D01*
X140531697Y-48309197D01*
X140601186Y-48346340D01*
X140676586Y-48369212D01*
X140755000Y-48376935D01*
X140870000Y-48375000D01*
X140970000Y-48275000D01*
X140970000Y-47370000D01*
X141070000Y-47370000D01*
X141070000Y-48275000D01*
X141170000Y-48375000D01*
X141285000Y-48376935D01*
X141363414Y-48369212D01*
X141438814Y-48346340D01*
X141508303Y-48309197D01*
X141569211Y-48259211D01*
X141619197Y-48198303D01*
X141645000Y-48150029D01*
X141670803Y-48198303D01*
X141720789Y-48259211D01*
X141781697Y-48309197D01*
X141851186Y-48346340D01*
X141926586Y-48369212D01*
X142005000Y-48376935D01*
X142120000Y-48375000D01*
X142220000Y-48275000D01*
X142220000Y-47370000D01*
X142320000Y-47370000D01*
X142320000Y-48275000D01*
X142420000Y-48375000D01*
X142535000Y-48376935D01*
X142613414Y-48369212D01*
X142688814Y-48346340D01*
X142758303Y-48309197D01*
X142819211Y-48259211D01*
X142869197Y-48198303D01*
X142906340Y-48128814D01*
X142929212Y-48053414D01*
X142936935Y-47975000D01*
X142935000Y-47470000D01*
X142835000Y-47370000D01*
X142320000Y-47370000D01*
X142220000Y-47370000D01*
X141705000Y-47370000D01*
X141645000Y-47430000D01*
X141585000Y-47370000D01*
X141070000Y-47370000D01*
X140970000Y-47370000D01*
X140455000Y-47370000D01*
X140355000Y-47470000D01*
X140353065Y-47975000D01*
X140336451Y-47975000D01*
X140336451Y-46665000D01*
X140353065Y-46665000D01*
X140355000Y-47170000D01*
X140455000Y-47270000D01*
X140970000Y-47270000D01*
X140970000Y-46365000D01*
X141070000Y-46365000D01*
X141070000Y-47270000D01*
X141585000Y-47270000D01*
X141645000Y-47210000D01*
X141705000Y-47270000D01*
X142220000Y-47270000D01*
X142220000Y-46365000D01*
X142320000Y-46365000D01*
X142320000Y-47270000D01*
X142835000Y-47270000D01*
X142935000Y-47170000D01*
X142936935Y-46665000D01*
X142953549Y-46665000D01*
X142953549Y-47975000D01*
X142959341Y-48033810D01*
X142976496Y-48090360D01*
X143004353Y-48142477D01*
X143041842Y-48188158D01*
X143087523Y-48225647D01*
X143139640Y-48253504D01*
X143196190Y-48270659D01*
X143255000Y-48276451D01*
X143785000Y-48276451D01*
X143843810Y-48270659D01*
X143900360Y-48253504D01*
X143952477Y-48225647D01*
X143998158Y-48188158D01*
X144035647Y-48142477D01*
X144063504Y-48090360D01*
X144080659Y-48033810D01*
X144086451Y-47975000D01*
X144086451Y-47100001D01*
X150148066Y-47100001D01*
X150155789Y-47178415D01*
X150178661Y-47253815D01*
X150215804Y-47323304D01*
X150265790Y-47384212D01*
X150326698Y-47434198D01*
X150396187Y-47471341D01*
X150471587Y-47494213D01*
X150550001Y-47501936D01*
X151650001Y-47500001D01*
X151750001Y-47400001D01*
X151750001Y-46400001D01*
X150250001Y-46400001D01*
X150150001Y-46500001D01*
X150148066Y-47100001D01*
X144086451Y-47100001D01*
X144086451Y-46665000D01*
X144080659Y-46606190D01*
X144063504Y-46549640D01*
X144035647Y-46497523D01*
X143998158Y-46451842D01*
X143952477Y-46414353D01*
X143900360Y-46386496D01*
X143843810Y-46369341D01*
X143785000Y-46363549D01*
X143255000Y-46363549D01*
X143196190Y-46369341D01*
X143139640Y-46386496D01*
X143087523Y-46414353D01*
X143041842Y-46451842D01*
X143004353Y-46497523D01*
X142976496Y-46549640D01*
X142959341Y-46606190D01*
X142953549Y-46665000D01*
X142936935Y-46665000D01*
X142929212Y-46586586D01*
X142906340Y-46511186D01*
X142869197Y-46441697D01*
X142819211Y-46380789D01*
X142758303Y-46330803D01*
X142688814Y-46293660D01*
X142613414Y-46270788D01*
X142535000Y-46263065D01*
X142420000Y-46265000D01*
X142320000Y-46365000D01*
X142220000Y-46365000D01*
X142120000Y-46265000D01*
X142005000Y-46263065D01*
X141926586Y-46270788D01*
X141851186Y-46293660D01*
X141781697Y-46330803D01*
X141720789Y-46380789D01*
X141670803Y-46441697D01*
X141645000Y-46489971D01*
X141619197Y-46441697D01*
X141569211Y-46380789D01*
X141508303Y-46330803D01*
X141438814Y-46293660D01*
X141363414Y-46270788D01*
X141285000Y-46263065D01*
X141170000Y-46265000D01*
X141070000Y-46365000D01*
X140970000Y-46365000D01*
X140870000Y-46265000D01*
X140755000Y-46263065D01*
X140676586Y-46270788D01*
X140601186Y-46293660D01*
X140531697Y-46330803D01*
X140470789Y-46380789D01*
X140420803Y-46441697D01*
X140383660Y-46511186D01*
X140360788Y-46586586D01*
X140353065Y-46665000D01*
X140336451Y-46665000D01*
X140330659Y-46606190D01*
X140313504Y-46549640D01*
X140285647Y-46497523D01*
X140248158Y-46451842D01*
X140202477Y-46414353D01*
X140150360Y-46386496D01*
X140093810Y-46369341D01*
X140035000Y-46363549D01*
X139505000Y-46363549D01*
X139446190Y-46369341D01*
X139389640Y-46386496D01*
X139337523Y-46414353D01*
X139291842Y-46451842D01*
X139254353Y-46497523D01*
X139226496Y-46549640D01*
X139209341Y-46606190D01*
X139203549Y-46665000D01*
X139203549Y-46970000D01*
X138523164Y-46970000D01*
X138518504Y-46954640D01*
X138490647Y-46902523D01*
X138453158Y-46856842D01*
X138436653Y-46843297D01*
X138513726Y-46766224D01*
X138590332Y-46651574D01*
X138643099Y-46524182D01*
X138670000Y-46388944D01*
X138670000Y-46251056D01*
X138643099Y-46115818D01*
X138590332Y-45988426D01*
X138513726Y-45873776D01*
X138416224Y-45776274D01*
X138301574Y-45699668D01*
X138174182Y-45646901D01*
X138038944Y-45620000D01*
X137901056Y-45620000D01*
X137765818Y-45646901D01*
X137638426Y-45699668D01*
X137523776Y-45776274D01*
X137426274Y-45873776D01*
X137349668Y-45988426D01*
X137296901Y-46115818D01*
X137270000Y-46251056D01*
X137270000Y-46388944D01*
X137296901Y-46524182D01*
X137349668Y-46651574D01*
X137360893Y-46668373D01*
X137260000Y-46670000D01*
X137160000Y-46770000D01*
X137060000Y-46770000D01*
X136960000Y-46670000D01*
X136840000Y-46668065D01*
X136761586Y-46675788D01*
X136686186Y-46698660D01*
X136616697Y-46735803D01*
X136555789Y-46785789D01*
X136505803Y-46846697D01*
X136468660Y-46916186D01*
X136445788Y-46991586D01*
X136438065Y-47070000D01*
X134325000Y-47070000D01*
X134325000Y-44600000D01*
X134398065Y-44600000D01*
X134405788Y-44678414D01*
X134428660Y-44753814D01*
X134465803Y-44823303D01*
X134515789Y-44884211D01*
X134576697Y-44934197D01*
X134646186Y-44971340D01*
X134721586Y-44994212D01*
X134800000Y-45001935D01*
X135900000Y-45000000D01*
X136000000Y-44900000D01*
X136000000Y-43900000D01*
X136100000Y-43900000D01*
X136100000Y-44900000D01*
X136200000Y-45000000D01*
X137300000Y-45001935D01*
X137378414Y-44994212D01*
X137453814Y-44971340D01*
X137523303Y-44934197D01*
X137584211Y-44884211D01*
X137634197Y-44823303D01*
X137671340Y-44753814D01*
X137694212Y-44678414D01*
X137701935Y-44600000D01*
X137700000Y-44000000D01*
X137600000Y-43900000D01*
X136100000Y-43900000D01*
X136000000Y-43900000D01*
X134500000Y-43900000D01*
X134400000Y-44000000D01*
X134398065Y-44600000D01*
X134325000Y-44600000D01*
X134325000Y-43100000D01*
X134398065Y-43100000D01*
X134400000Y-43700000D01*
X134500000Y-43800000D01*
X136000000Y-43800000D01*
X136000000Y-42800000D01*
X136100000Y-42800000D01*
X136100000Y-43800000D01*
X137600000Y-43800000D01*
X137700000Y-43700000D01*
X137701125Y-43351056D01*
X139070000Y-43351056D01*
X139070000Y-43488944D01*
X139096901Y-43624182D01*
X139149668Y-43751574D01*
X139226274Y-43866224D01*
X139323776Y-43963726D01*
X139370000Y-43994612D01*
X139370000Y-43996994D01*
X139337523Y-44014353D01*
X139291842Y-44051842D01*
X139254353Y-44097523D01*
X139226496Y-44149640D01*
X139209341Y-44206190D01*
X139203549Y-44265000D01*
X139203549Y-45575000D01*
X139209341Y-45633810D01*
X139226496Y-45690360D01*
X139254353Y-45742477D01*
X139291842Y-45788158D01*
X139337523Y-45825647D01*
X139389640Y-45853504D01*
X139446190Y-45870659D01*
X139505000Y-45876451D01*
X140035000Y-45876451D01*
X140093810Y-45870659D01*
X140150360Y-45853504D01*
X140202477Y-45825647D01*
X140248158Y-45788158D01*
X140285647Y-45742477D01*
X140313504Y-45690360D01*
X140330659Y-45633810D01*
X140336451Y-45575000D01*
X140336451Y-44265000D01*
X140330659Y-44206190D01*
X140313504Y-44149640D01*
X140285647Y-44097523D01*
X140248158Y-44051842D01*
X140202477Y-44014353D01*
X140170000Y-43996994D01*
X140170000Y-43994612D01*
X140216224Y-43963726D01*
X140313726Y-43866224D01*
X140384808Y-43759841D01*
X140389668Y-43771574D01*
X140466274Y-43886224D01*
X140563776Y-43983726D01*
X140599795Y-44007793D01*
X140587523Y-44014353D01*
X140541842Y-44051842D01*
X140504353Y-44097523D01*
X140476496Y-44149640D01*
X140459341Y-44206190D01*
X140453549Y-44265000D01*
X140453549Y-45575000D01*
X140459341Y-45633810D01*
X140476496Y-45690360D01*
X140504353Y-45742477D01*
X140541842Y-45788158D01*
X140587523Y-45825647D01*
X140639640Y-45853504D01*
X140696190Y-45870659D01*
X140755000Y-45876451D01*
X141285000Y-45876451D01*
X141343810Y-45870659D01*
X141400360Y-45853504D01*
X141452477Y-45825647D01*
X141498158Y-45788158D01*
X141535647Y-45742477D01*
X141563504Y-45690360D01*
X141580659Y-45633810D01*
X141586451Y-45575000D01*
X141586451Y-44265000D01*
X141580659Y-44206190D01*
X141563504Y-44149640D01*
X141535647Y-44097523D01*
X141498158Y-44051842D01*
X141452477Y-44014353D01*
X141429093Y-44001854D01*
X141456224Y-43983726D01*
X141553726Y-43886224D01*
X141630332Y-43771574D01*
X141683099Y-43644182D01*
X141710000Y-43508944D01*
X141710000Y-43371056D01*
X141683099Y-43235818D01*
X141630332Y-43108426D01*
X141553726Y-42993776D01*
X141456224Y-42896274D01*
X141341574Y-42819668D01*
X141214182Y-42766901D01*
X141078944Y-42740000D01*
X140941056Y-42740000D01*
X140805818Y-42766901D01*
X140678426Y-42819668D01*
X140563776Y-42896274D01*
X140466274Y-42993776D01*
X140395192Y-43100159D01*
X140390332Y-43088426D01*
X140313726Y-42973776D01*
X140216224Y-42876274D01*
X140101574Y-42799668D01*
X139974182Y-42746901D01*
X139838944Y-42720000D01*
X139701056Y-42720000D01*
X139565818Y-42746901D01*
X139438426Y-42799668D01*
X139323776Y-42876274D01*
X139226274Y-42973776D01*
X139149668Y-43088426D01*
X139096901Y-43215818D01*
X139070000Y-43351056D01*
X137701125Y-43351056D01*
X137701935Y-43100000D01*
X137694212Y-43021586D01*
X137671340Y-42946186D01*
X137634197Y-42876697D01*
X137584211Y-42815789D01*
X137523303Y-42765803D01*
X137453814Y-42728660D01*
X137378414Y-42705788D01*
X137300000Y-42698065D01*
X136200000Y-42700000D01*
X136100000Y-42800000D01*
X136000000Y-42800000D01*
X135900000Y-42700000D01*
X134800000Y-42698065D01*
X134721586Y-42705788D01*
X134646186Y-42728660D01*
X134576697Y-42765803D01*
X134515789Y-42815789D01*
X134465803Y-42876697D01*
X134428660Y-42946186D01*
X134405788Y-43021586D01*
X134398065Y-43100000D01*
X134325000Y-43100000D01*
X134325000Y-42600000D01*
X141572199Y-42600000D01*
X141570000Y-42611056D01*
G37*
X141570000Y-42611056D02*
X141570000Y-42748944D01*
X141596901Y-42884182D01*
X141649668Y-43011574D01*
X141726274Y-43126224D01*
X141823776Y-43223726D01*
X141870001Y-43254612D01*
X141870000Y-43996994D01*
X141837523Y-44014353D01*
X141791842Y-44051842D01*
X141754353Y-44097523D01*
X141726496Y-44149640D01*
X141709341Y-44206190D01*
X141703549Y-44265000D01*
X141703549Y-45575000D01*
X141709341Y-45633810D01*
X141726496Y-45690360D01*
X141754353Y-45742477D01*
X141791842Y-45788158D01*
X141837523Y-45825647D01*
X141889640Y-45853504D01*
X141946190Y-45870659D01*
X142005000Y-45876451D01*
X142535000Y-45876451D01*
X142593810Y-45870659D01*
X142650360Y-45853504D01*
X142702477Y-45825647D01*
X142748158Y-45788158D01*
X142785647Y-45742477D01*
X142813504Y-45690360D01*
X142830659Y-45633810D01*
X142836451Y-45575000D01*
X142836451Y-44265000D01*
X142830659Y-44206190D01*
X142813504Y-44149640D01*
X142785647Y-44097523D01*
X142748158Y-44051842D01*
X142702477Y-44014353D01*
X142670000Y-43996994D01*
X142670000Y-43254612D01*
X142716224Y-43223726D01*
X142813726Y-43126224D01*
X142844612Y-43080000D01*
X142962070Y-43080000D01*
X142909668Y-43158426D01*
X142856901Y-43285818D01*
X142830000Y-43421056D01*
X142830000Y-43558944D01*
X142856901Y-43694182D01*
X142909668Y-43821574D01*
X142986274Y-43936224D01*
X143074824Y-44024774D01*
X143041842Y-44051842D01*
X143004353Y-44097523D01*
X142976496Y-44149640D01*
X142959341Y-44206190D01*
X142953549Y-44265000D01*
X142953549Y-45575000D01*
X142959341Y-45633810D01*
X142976496Y-45690360D01*
X143004353Y-45742477D01*
X143041842Y-45788158D01*
X143087523Y-45825647D01*
X143139640Y-45853504D01*
X143196190Y-45870659D01*
X143255000Y-45876451D01*
X143785000Y-45876451D01*
X143843810Y-45870659D01*
X143900360Y-45853504D01*
X143952477Y-45825647D01*
X143998158Y-45788158D01*
X144035647Y-45742477D01*
X144063504Y-45690360D01*
X144080659Y-45633810D01*
X144086451Y-45575000D01*
X144086451Y-44265000D01*
X144080659Y-44206190D01*
X144063504Y-44149640D01*
X144035647Y-44097523D01*
X143998158Y-44051842D01*
X143976146Y-44033778D01*
X143976224Y-44033726D01*
X144073726Y-43936224D01*
X144150332Y-43821574D01*
X144203099Y-43694182D01*
X144230000Y-43558944D01*
X144230000Y-43421056D01*
X144224322Y-43392512D01*
X144250745Y-43414197D01*
X144320234Y-43451340D01*
X144395634Y-43474212D01*
X144454401Y-43480000D01*
X144454411Y-43480000D01*
X144474047Y-43481934D01*
X144493683Y-43480000D01*
X145398549Y-43480000D01*
X145398549Y-43730000D01*
X145404341Y-43788810D01*
X145421496Y-43845360D01*
X145449353Y-43897477D01*
X145486842Y-43943158D01*
X145532523Y-43980647D01*
X145584640Y-44008504D01*
X145600000Y-44013164D01*
X145600001Y-44405388D01*
X145553776Y-44436274D01*
X145456274Y-44533776D01*
X145379668Y-44648426D01*
X145326901Y-44775818D01*
X145300000Y-44911056D01*
X145300000Y-45048944D01*
X145326901Y-45184182D01*
X145379668Y-45311574D01*
X145456274Y-45426224D01*
X145553776Y-45523726D01*
X145668426Y-45600332D01*
X145795818Y-45653099D01*
X145931056Y-45680000D01*
X146068944Y-45680000D01*
X146204182Y-45653099D01*
X146331574Y-45600332D01*
X146332069Y-45600001D01*
X150148066Y-45600001D01*
X150150001Y-46200001D01*
X150250001Y-46300001D01*
X151750001Y-46300001D01*
X151750001Y-45300001D01*
X151650001Y-45200001D01*
X150550001Y-45198066D01*
X150471587Y-45205789D01*
X150396187Y-45228661D01*
X150326698Y-45265804D01*
X150265790Y-45315790D01*
X150215804Y-45376698D01*
X150178661Y-45446187D01*
X150155789Y-45521587D01*
X150148066Y-45600001D01*
X146332069Y-45600001D01*
X146446224Y-45523726D01*
X146543726Y-45426224D01*
X146620332Y-45311574D01*
X146673099Y-45184182D01*
X146700000Y-45048944D01*
X146700000Y-44911056D01*
X146673099Y-44775818D01*
X146620332Y-44648426D01*
X146543726Y-44533776D01*
X146446224Y-44436274D01*
X146400000Y-44405388D01*
X146400000Y-44348265D01*
X146436842Y-44393158D01*
X146482523Y-44430647D01*
X146534640Y-44458504D01*
X146591190Y-44475659D01*
X146650000Y-44481451D01*
X146950000Y-44481451D01*
X147008810Y-44475659D01*
X147050000Y-44463164D01*
X147091190Y-44475659D01*
X147150000Y-44481451D01*
X147386796Y-44481451D01*
X147426697Y-44514197D01*
X147496186Y-44551340D01*
X147571586Y-44574212D01*
X147650000Y-44581935D01*
X147650000Y-44580000D01*
X147750000Y-44480000D01*
X147750000Y-44194733D01*
X147751451Y-44180000D01*
X147751451Y-43580000D01*
X147750000Y-43565267D01*
X147750000Y-43280000D01*
X147650000Y-43180000D01*
X147650000Y-43178065D01*
X147571586Y-43185788D01*
X147496186Y-43208660D01*
X147426697Y-43245803D01*
X147386796Y-43278549D01*
X147150000Y-43278549D01*
X147091190Y-43284341D01*
X147050000Y-43296836D01*
X147008810Y-43284341D01*
X146950000Y-43278549D01*
X146650000Y-43278549D01*
X146596147Y-43283853D01*
X146601451Y-43230000D01*
X146601451Y-42930000D01*
X146595659Y-42871190D01*
X146583164Y-42830000D01*
X146595659Y-42788810D01*
X146601451Y-42730000D01*
X146601451Y-42600000D01*
X147900000Y-42600000D01*
X147900000Y-42630002D01*
X147999998Y-42630002D01*
X147900000Y-42730000D01*
X147898065Y-42730000D01*
X147905788Y-42808414D01*
X147912336Y-42830000D01*
X147905788Y-42851586D01*
X147898065Y-42930000D01*
X147900000Y-42930000D01*
X148000000Y-43030000D01*
X148035028Y-43030000D01*
X148076697Y-43064197D01*
X148106262Y-43080000D01*
X148076697Y-43095803D01*
X148035028Y-43130000D01*
X148000000Y-43130000D01*
X147951762Y-43178238D01*
X147950000Y-43178065D01*
X147950000Y-43180000D01*
X147900000Y-43230000D01*
X147898065Y-43230000D01*
X147898238Y-43231762D01*
X147850000Y-43280000D01*
X147850000Y-43830000D01*
X147870000Y-43830000D01*
X147870000Y-43930000D01*
X147850000Y-43930000D01*
X147850000Y-44480000D01*
X147950000Y-44580000D01*
X147950000Y-44581935D01*
X148028414Y-44574212D01*
X148103814Y-44551340D01*
X148173303Y-44514197D01*
X148234211Y-44464211D01*
X148284197Y-44403303D01*
X148321340Y-44333814D01*
X148344212Y-44258414D01*
X148351935Y-44180000D01*
X148351306Y-44131273D01*
X148450000Y-44130000D01*
X148550000Y-44030000D01*
X148550000Y-43630000D01*
X148530000Y-43630000D01*
X148530000Y-43550000D01*
X148550000Y-43530000D01*
X148550000Y-43130000D01*
X148500000Y-43080000D01*
X148550000Y-43030000D01*
X148550000Y-43010000D01*
X148650000Y-43010000D01*
X148650000Y-43030000D01*
X148700000Y-43080000D01*
X148650000Y-43130000D01*
X148650000Y-43530000D01*
X148670000Y-43550000D01*
X148670000Y-43630000D01*
X148650000Y-43630000D01*
X148650000Y-44030000D01*
X148750000Y-44130000D01*
X148900000Y-44131935D01*
X148978414Y-44124212D01*
X149053814Y-44101340D01*
X149060755Y-44097630D01*
X149099668Y-44191574D01*
X149176274Y-44306224D01*
X149273776Y-44403726D01*
X149388426Y-44480332D01*
X149515818Y-44533099D01*
X149651056Y-44560000D01*
X149788944Y-44560000D01*
X149924182Y-44533099D01*
X150051574Y-44480332D01*
X150166224Y-44403726D01*
X150248550Y-44321400D01*
X150248550Y-44600001D01*
X150254342Y-44658811D01*
X150271497Y-44715361D01*
X150299354Y-44767478D01*
X150336843Y-44813159D01*
X150382524Y-44850648D01*
X150434641Y-44878505D01*
X150491191Y-44895660D01*
X150550001Y-44901452D01*
X153050001Y-44901452D01*
X153108811Y-44895660D01*
X153165361Y-44878505D01*
X153217478Y-44850648D01*
X153263159Y-44813159D01*
X153300648Y-44767478D01*
X153328505Y-44715361D01*
X153345660Y-44658811D01*
X153351452Y-44600001D01*
X153351452Y-43100001D01*
X153345660Y-43041191D01*
X153328505Y-42984641D01*
X153300648Y-42932524D01*
X153263159Y-42886843D01*
X153217478Y-42849354D01*
X153165361Y-42821497D01*
X153108811Y-42804342D01*
X153050001Y-42798550D01*
X150550001Y-42798550D01*
X150491191Y-42804342D01*
X150434641Y-42821497D01*
X150382524Y-42849354D01*
X150336843Y-42886843D01*
X150299354Y-42932524D01*
X150271497Y-42984641D01*
X150254342Y-43041191D01*
X150248550Y-43100001D01*
X150248550Y-43398600D01*
X150166224Y-43316274D01*
X150051574Y-43239668D01*
X149924182Y-43186901D01*
X149788944Y-43160000D01*
X149651056Y-43160000D01*
X149515818Y-43186901D01*
X149388426Y-43239668D01*
X149294823Y-43302211D01*
X149301935Y-43230000D01*
X149300000Y-43230000D01*
X149200000Y-43130000D01*
X149164972Y-43130000D01*
X149123303Y-43095803D01*
X149093738Y-43080000D01*
X149123303Y-43064197D01*
X149164972Y-43030000D01*
X149200000Y-43030000D01*
X149300000Y-42930000D01*
X149301935Y-42930000D01*
X149294212Y-42851586D01*
X149287664Y-42830000D01*
X149294212Y-42808414D01*
X149301935Y-42730000D01*
X149300000Y-42730000D01*
X149200002Y-42630002D01*
X149300000Y-42630002D01*
X149300000Y-42600000D01*
X153425001Y-42600000D01*
X153425001Y-45458252D01*
X153421341Y-45446187D01*
X153384198Y-45376698D01*
X153334212Y-45315790D01*
X153273304Y-45265804D01*
X153203815Y-45228661D01*
X153128415Y-45205789D01*
X153050001Y-45198066D01*
X151950001Y-45200001D01*
X151850001Y-45300001D01*
X151850001Y-46300001D01*
X151870001Y-46300001D01*
X151870001Y-46400001D01*
X151850001Y-46400001D01*
X151850001Y-47400001D01*
X151950001Y-47500001D01*
X153050001Y-47501936D01*
X153128415Y-47494213D01*
X153203815Y-47471341D01*
X153273304Y-47434198D01*
X153334212Y-47384212D01*
X153384198Y-47323304D01*
X153421341Y-47253815D01*
X153425001Y-47241750D01*
X153425001Y-48425000D01*
X134325000Y-48425000D01*
X134325000Y-47670000D01*
X136438065Y-47670000D01*
X136445788Y-47748414D01*
X136468660Y-47823814D01*
X136505803Y-47893303D01*
X136555789Y-47954211D01*
X136616697Y-48004197D01*
X136686186Y-48041340D01*
X136761586Y-48064212D01*
X136840000Y-48071935D01*
X136960000Y-48070000D01*
X137060000Y-47970000D01*
X137060000Y-47420000D01*
X136540000Y-47420000D01*
X136440000Y-47520000D01*
X136438065Y-47670000D01*
X134325000Y-47670000D01*
X134325000Y-47070000D01*
X136438065Y-47070000D01*
X136440000Y-47220000D01*
X136540000Y-47320000D01*
X137060000Y-47320000D01*
X137060000Y-46770000D01*
X137160000Y-46770000D01*
X137160000Y-47320000D01*
X137180000Y-47320000D01*
X137180000Y-47420000D01*
X137160000Y-47420000D01*
X137160000Y-47970000D01*
X137260000Y-48070000D01*
X137380000Y-48071935D01*
X137458414Y-48064212D01*
X137533814Y-48041340D01*
X137603303Y-48004197D01*
X137649290Y-47966457D01*
X137700000Y-47971451D01*
X138240000Y-47971451D01*
X138298810Y-47965659D01*
X138355360Y-47948504D01*
X138407477Y-47920647D01*
X138453158Y-47883158D01*
X138490647Y-47837477D01*
X138518504Y-47785360D01*
X138523164Y-47770000D01*
X139203549Y-47770000D01*
X139203549Y-47975000D01*
X139209341Y-48033810D01*
X139226496Y-48090360D01*
X139254353Y-48142477D01*
X139291842Y-48188158D01*
X139337523Y-48225647D01*
X139389640Y-48253504D01*
X139446190Y-48270659D01*
X139505000Y-48276451D01*
X140035000Y-48276451D01*
X140093810Y-48270659D01*
X140150360Y-48253504D01*
X140202477Y-48225647D01*
X140248158Y-48188158D01*
X140285647Y-48142477D01*
X140313504Y-48090360D01*
X140330659Y-48033810D01*
X140336451Y-47975000D01*
X140353065Y-47975000D01*
X140360788Y-48053414D01*
X140383660Y-48128814D01*
X140420803Y-48198303D01*
X140470789Y-48259211D01*
X140531697Y-48309197D01*
X140601186Y-48346340D01*
X140676586Y-48369212D01*
X140755000Y-48376935D01*
X140870000Y-48375000D01*
X140970000Y-48275000D01*
X140970000Y-47370000D01*
X141070000Y-47370000D01*
X141070000Y-48275000D01*
X141170000Y-48375000D01*
X141285000Y-48376935D01*
X141363414Y-48369212D01*
X141438814Y-48346340D01*
X141508303Y-48309197D01*
X141569211Y-48259211D01*
X141619197Y-48198303D01*
X141645000Y-48150029D01*
X141670803Y-48198303D01*
X141720789Y-48259211D01*
X141781697Y-48309197D01*
X141851186Y-48346340D01*
X141926586Y-48369212D01*
X142005000Y-48376935D01*
X142120000Y-48375000D01*
X142220000Y-48275000D01*
X142220000Y-47370000D01*
X142320000Y-47370000D01*
X142320000Y-48275000D01*
X142420000Y-48375000D01*
X142535000Y-48376935D01*
X142613414Y-48369212D01*
X142688814Y-48346340D01*
X142758303Y-48309197D01*
X142819211Y-48259211D01*
X142869197Y-48198303D01*
X142906340Y-48128814D01*
X142929212Y-48053414D01*
X142936935Y-47975000D01*
X142935000Y-47470000D01*
X142835000Y-47370000D01*
X142320000Y-47370000D01*
X142220000Y-47370000D01*
X141705000Y-47370000D01*
X141645000Y-47430000D01*
X141585000Y-47370000D01*
X141070000Y-47370000D01*
X140970000Y-47370000D01*
X140455000Y-47370000D01*
X140355000Y-47470000D01*
X140353065Y-47975000D01*
X140336451Y-47975000D01*
X140336451Y-46665000D01*
X140353065Y-46665000D01*
X140355000Y-47170000D01*
X140455000Y-47270000D01*
X140970000Y-47270000D01*
X140970000Y-46365000D01*
X141070000Y-46365000D01*
X141070000Y-47270000D01*
X141585000Y-47270000D01*
X141645000Y-47210000D01*
X141705000Y-47270000D01*
X142220000Y-47270000D01*
X142220000Y-46365000D01*
X142320000Y-46365000D01*
X142320000Y-47270000D01*
X142835000Y-47270000D01*
X142935000Y-47170000D01*
X142936935Y-46665000D01*
X142953549Y-46665000D01*
X142953549Y-47975000D01*
X142959341Y-48033810D01*
X142976496Y-48090360D01*
X143004353Y-48142477D01*
X143041842Y-48188158D01*
X143087523Y-48225647D01*
X143139640Y-48253504D01*
X143196190Y-48270659D01*
X143255000Y-48276451D01*
X143785000Y-48276451D01*
X143843810Y-48270659D01*
X143900360Y-48253504D01*
X143952477Y-48225647D01*
X143998158Y-48188158D01*
X144035647Y-48142477D01*
X144063504Y-48090360D01*
X144080659Y-48033810D01*
X144086451Y-47975000D01*
X144086451Y-47100001D01*
X150148066Y-47100001D01*
X150155789Y-47178415D01*
X150178661Y-47253815D01*
X150215804Y-47323304D01*
X150265790Y-47384212D01*
X150326698Y-47434198D01*
X150396187Y-47471341D01*
X150471587Y-47494213D01*
X150550001Y-47501936D01*
X151650001Y-47500001D01*
X151750001Y-47400001D01*
X151750001Y-46400001D01*
X150250001Y-46400001D01*
X150150001Y-46500001D01*
X150148066Y-47100001D01*
X144086451Y-47100001D01*
X144086451Y-46665000D01*
X144080659Y-46606190D01*
X144063504Y-46549640D01*
X144035647Y-46497523D01*
X143998158Y-46451842D01*
X143952477Y-46414353D01*
X143900360Y-46386496D01*
X143843810Y-46369341D01*
X143785000Y-46363549D01*
X143255000Y-46363549D01*
X143196190Y-46369341D01*
X143139640Y-46386496D01*
X143087523Y-46414353D01*
X143041842Y-46451842D01*
X143004353Y-46497523D01*
X142976496Y-46549640D01*
X142959341Y-46606190D01*
X142953549Y-46665000D01*
X142936935Y-46665000D01*
X142929212Y-46586586D01*
X142906340Y-46511186D01*
X142869197Y-46441697D01*
X142819211Y-46380789D01*
X142758303Y-46330803D01*
X142688814Y-46293660D01*
X142613414Y-46270788D01*
X142535000Y-46263065D01*
X142420000Y-46265000D01*
X142320000Y-46365000D01*
X142220000Y-46365000D01*
X142120000Y-46265000D01*
X142005000Y-46263065D01*
X141926586Y-46270788D01*
X141851186Y-46293660D01*
X141781697Y-46330803D01*
X141720789Y-46380789D01*
X141670803Y-46441697D01*
X141645000Y-46489971D01*
X141619197Y-46441697D01*
X141569211Y-46380789D01*
X141508303Y-46330803D01*
X141438814Y-46293660D01*
X141363414Y-46270788D01*
X141285000Y-46263065D01*
X141170000Y-46265000D01*
X141070000Y-46365000D01*
X140970000Y-46365000D01*
X140870000Y-46265000D01*
X140755000Y-46263065D01*
X140676586Y-46270788D01*
X140601186Y-46293660D01*
X140531697Y-46330803D01*
X140470789Y-46380789D01*
X140420803Y-46441697D01*
X140383660Y-46511186D01*
X140360788Y-46586586D01*
X140353065Y-46665000D01*
X140336451Y-46665000D01*
X140330659Y-46606190D01*
X140313504Y-46549640D01*
X140285647Y-46497523D01*
X140248158Y-46451842D01*
X140202477Y-46414353D01*
X140150360Y-46386496D01*
X140093810Y-46369341D01*
X140035000Y-46363549D01*
X139505000Y-46363549D01*
X139446190Y-46369341D01*
X139389640Y-46386496D01*
X139337523Y-46414353D01*
X139291842Y-46451842D01*
X139254353Y-46497523D01*
X139226496Y-46549640D01*
X139209341Y-46606190D01*
X139203549Y-46665000D01*
X139203549Y-46970000D01*
X138523164Y-46970000D01*
X138518504Y-46954640D01*
X138490647Y-46902523D01*
X138453158Y-46856842D01*
X138436653Y-46843297D01*
X138513726Y-46766224D01*
X138590332Y-46651574D01*
X138643099Y-46524182D01*
X138670000Y-46388944D01*
X138670000Y-46251056D01*
X138643099Y-46115818D01*
X138590332Y-45988426D01*
X138513726Y-45873776D01*
X138416224Y-45776274D01*
X138301574Y-45699668D01*
X138174182Y-45646901D01*
X138038944Y-45620000D01*
X137901056Y-45620000D01*
X137765818Y-45646901D01*
X137638426Y-45699668D01*
X137523776Y-45776274D01*
X137426274Y-45873776D01*
X137349668Y-45988426D01*
X137296901Y-46115818D01*
X137270000Y-46251056D01*
X137270000Y-46388944D01*
X137296901Y-46524182D01*
X137349668Y-46651574D01*
X137360893Y-46668373D01*
X137260000Y-46670000D01*
X137160000Y-46770000D01*
X137060000Y-46770000D01*
X136960000Y-46670000D01*
X136840000Y-46668065D01*
X136761586Y-46675788D01*
X136686186Y-46698660D01*
X136616697Y-46735803D01*
X136555789Y-46785789D01*
X136505803Y-46846697D01*
X136468660Y-46916186D01*
X136445788Y-46991586D01*
X136438065Y-47070000D01*
X134325000Y-47070000D01*
X134325000Y-44600000D01*
X134398065Y-44600000D01*
X134405788Y-44678414D01*
X134428660Y-44753814D01*
X134465803Y-44823303D01*
X134515789Y-44884211D01*
X134576697Y-44934197D01*
X134646186Y-44971340D01*
X134721586Y-44994212D01*
X134800000Y-45001935D01*
X135900000Y-45000000D01*
X136000000Y-44900000D01*
X136000000Y-43900000D01*
X136100000Y-43900000D01*
X136100000Y-44900000D01*
X136200000Y-45000000D01*
X137300000Y-45001935D01*
X137378414Y-44994212D01*
X137453814Y-44971340D01*
X137523303Y-44934197D01*
X137584211Y-44884211D01*
X137634197Y-44823303D01*
X137671340Y-44753814D01*
X137694212Y-44678414D01*
X137701935Y-44600000D01*
X137700000Y-44000000D01*
X137600000Y-43900000D01*
X136100000Y-43900000D01*
X136000000Y-43900000D01*
X134500000Y-43900000D01*
X134400000Y-44000000D01*
X134398065Y-44600000D01*
X134325000Y-44600000D01*
X134325000Y-43100000D01*
X134398065Y-43100000D01*
X134400000Y-43700000D01*
X134500000Y-43800000D01*
X136000000Y-43800000D01*
X136000000Y-42800000D01*
X136100000Y-42800000D01*
X136100000Y-43800000D01*
X137600000Y-43800000D01*
X137700000Y-43700000D01*
X137701125Y-43351056D01*
X139070000Y-43351056D01*
X139070000Y-43488944D01*
X139096901Y-43624182D01*
X139149668Y-43751574D01*
X139226274Y-43866224D01*
X139323776Y-43963726D01*
X139370000Y-43994612D01*
X139370000Y-43996994D01*
X139337523Y-44014353D01*
X139291842Y-44051842D01*
X139254353Y-44097523D01*
X139226496Y-44149640D01*
X139209341Y-44206190D01*
X139203549Y-44265000D01*
X139203549Y-45575000D01*
X139209341Y-45633810D01*
X139226496Y-45690360D01*
X139254353Y-45742477D01*
X139291842Y-45788158D01*
X139337523Y-45825647D01*
X139389640Y-45853504D01*
X139446190Y-45870659D01*
X139505000Y-45876451D01*
X140035000Y-45876451D01*
X140093810Y-45870659D01*
X140150360Y-45853504D01*
X140202477Y-45825647D01*
X140248158Y-45788158D01*
X140285647Y-45742477D01*
X140313504Y-45690360D01*
X140330659Y-45633810D01*
X140336451Y-45575000D01*
X140336451Y-44265000D01*
X140330659Y-44206190D01*
X140313504Y-44149640D01*
X140285647Y-44097523D01*
X140248158Y-44051842D01*
X140202477Y-44014353D01*
X140170000Y-43996994D01*
X140170000Y-43994612D01*
X140216224Y-43963726D01*
X140313726Y-43866224D01*
X140384808Y-43759841D01*
X140389668Y-43771574D01*
X140466274Y-43886224D01*
X140563776Y-43983726D01*
X140599795Y-44007793D01*
X140587523Y-44014353D01*
X140541842Y-44051842D01*
X140504353Y-44097523D01*
X140476496Y-44149640D01*
X140459341Y-44206190D01*
X140453549Y-44265000D01*
X140453549Y-45575000D01*
X140459341Y-45633810D01*
X140476496Y-45690360D01*
X140504353Y-45742477D01*
X140541842Y-45788158D01*
X140587523Y-45825647D01*
X140639640Y-45853504D01*
X140696190Y-45870659D01*
X140755000Y-45876451D01*
X141285000Y-45876451D01*
X141343810Y-45870659D01*
X141400360Y-45853504D01*
X141452477Y-45825647D01*
X141498158Y-45788158D01*
X141535647Y-45742477D01*
X141563504Y-45690360D01*
X141580659Y-45633810D01*
X141586451Y-45575000D01*
X141586451Y-44265000D01*
X141580659Y-44206190D01*
X141563504Y-44149640D01*
X141535647Y-44097523D01*
X141498158Y-44051842D01*
X141452477Y-44014353D01*
X141429093Y-44001854D01*
X141456224Y-43983726D01*
X141553726Y-43886224D01*
X141630332Y-43771574D01*
X141683099Y-43644182D01*
X141710000Y-43508944D01*
X141710000Y-43371056D01*
X141683099Y-43235818D01*
X141630332Y-43108426D01*
X141553726Y-42993776D01*
X141456224Y-42896274D01*
X141341574Y-42819668D01*
X141214182Y-42766901D01*
X141078944Y-42740000D01*
X140941056Y-42740000D01*
X140805818Y-42766901D01*
X140678426Y-42819668D01*
X140563776Y-42896274D01*
X140466274Y-42993776D01*
X140395192Y-43100159D01*
X140390332Y-43088426D01*
X140313726Y-42973776D01*
X140216224Y-42876274D01*
X140101574Y-42799668D01*
X139974182Y-42746901D01*
X139838944Y-42720000D01*
X139701056Y-42720000D01*
X139565818Y-42746901D01*
X139438426Y-42799668D01*
X139323776Y-42876274D01*
X139226274Y-42973776D01*
X139149668Y-43088426D01*
X139096901Y-43215818D01*
X139070000Y-43351056D01*
X137701125Y-43351056D01*
X137701935Y-43100000D01*
X137694212Y-43021586D01*
X137671340Y-42946186D01*
X137634197Y-42876697D01*
X137584211Y-42815789D01*
X137523303Y-42765803D01*
X137453814Y-42728660D01*
X137378414Y-42705788D01*
X137300000Y-42698065D01*
X136200000Y-42700000D01*
X136100000Y-42800000D01*
X136000000Y-42800000D01*
X135900000Y-42700000D01*
X134800000Y-42698065D01*
X134721586Y-42705788D01*
X134646186Y-42728660D01*
X134576697Y-42765803D01*
X134515789Y-42815789D01*
X134465803Y-42876697D01*
X134428660Y-42946186D01*
X134405788Y-43021586D01*
X134398065Y-43100000D01*
X134325000Y-43100000D01*
X134325000Y-42600000D01*
X141572199Y-42600000D01*
X141570000Y-42611056D01*
G36*
X148549998Y-42629998D02*
G01*
X148530000Y-42610000D01*
X148530000Y-42600000D01*
X148549998Y-42600000D01*
X148549998Y-42629998D01*
G37*
X148549998Y-42629998D02*
X148530000Y-42610000D01*
X148530000Y-42600000D01*
X148549998Y-42600000D01*
X148549998Y-42629998D01*
G36*
X148670000Y-42610000D02*
G01*
X148650002Y-42629998D01*
X148650002Y-42600000D01*
X148670000Y-42600000D01*
X148670000Y-42610000D01*
G37*
X148670000Y-42610000D02*
X148650002Y-42629998D01*
X148650002Y-42600000D01*
X148670000Y-42600000D01*
X148670000Y-42610000D01*
M02*
