G04 #@! TF.GenerationSoftware,KiCad,Pcbnew,(5.1.5)-3*
G04 #@! TF.CreationDate,2020-05-27T15:07:41+09:00*
G04 #@! TF.ProjectId,FMU3_Sensors_make,464d5533-5f53-4656-9e73-6f72735f6d61,rev?*
G04 #@! TF.SameCoordinates,Original*
G04 #@! TF.FileFunction,Legend,Top*
G04 #@! TF.FilePolarity,Positive*
%FSLAX46Y46*%
G04 Gerber Fmt 4.6, Leading zero omitted, Abs format (unit mm)*
G04 Created by KiCad (PCBNEW (5.1.5)-3) date 2020-05-27 15:07:41*
%MOMM*%
%LPD*%
G04 APERTURE LIST*
%ADD10C,0.127000*%
%ADD11C,0.200000*%
%ADD12C,0.100000*%
%ADD13C,0.120000*%
%ADD14C,0.050000*%
G04 APERTURE END LIST*
D10*
X148700000Y-39720000D02*
X147700000Y-39720000D01*
X147700000Y-40680000D02*
X148700000Y-40680000D01*
X139145000Y-47620000D02*
X139145000Y-44620000D01*
X144145000Y-47620000D02*
X144145000Y-44620000D01*
D11*
X139872000Y-48497000D02*
G75*
G03X139872000Y-48497000I-100000J0D01*
G01*
D10*
X138040000Y-46890000D02*
X137040000Y-46890000D01*
X137040000Y-47850000D02*
X138040000Y-47850000D01*
X145750000Y-41180000D02*
X145750000Y-41030000D01*
X145750000Y-41030000D02*
X146400000Y-41030000D01*
X148200000Y-41030000D02*
X148850000Y-41030000D01*
X148850000Y-41030000D02*
X148850000Y-41180000D01*
X145750000Y-43980000D02*
X145750000Y-44130000D01*
X145750000Y-44130000D02*
X146400000Y-44130000D01*
X148200000Y-44130000D02*
X148850000Y-44130000D01*
X148850000Y-44130000D02*
X148850000Y-43980000D01*
D12*
X145450000Y-41580000D02*
G75*
G03X145450000Y-41580000I-50000J0D01*
G01*
D13*
X139770000Y-39720000D02*
X140570000Y-39720000D01*
X140570000Y-40920000D02*
X139770000Y-40920000D01*
D10*
X139950000Y-42090000D02*
X140950000Y-42090000D01*
X140950000Y-41130000D02*
X139950000Y-41130000D01*
D13*
X144220000Y-40670000D02*
X144220000Y-41470000D01*
X143020000Y-41470000D02*
X143020000Y-40670000D01*
D10*
X144700000Y-40630000D02*
X145700000Y-40630000D01*
X145700000Y-39670000D02*
X144700000Y-39670000D01*
X146290000Y-38200000D02*
X146290000Y-37200000D01*
X145330000Y-37200000D02*
X145330000Y-38200000D01*
D13*
X146750000Y-37850000D02*
X146750000Y-37050000D01*
X147950000Y-37050000D02*
X147950000Y-37850000D01*
X137300000Y-39850000D02*
X137300000Y-40350000D01*
X134800000Y-42350000D02*
X134800000Y-42850000D01*
X137300000Y-37350000D02*
X137300000Y-37850000D01*
X134800000Y-35500000D02*
X137300000Y-35500000D01*
X134800000Y-37350000D02*
X134800000Y-37850000D01*
X137300000Y-42350000D02*
X137300000Y-42850000D01*
X134800000Y-39850000D02*
X134800000Y-40350000D01*
X150550001Y-35500001D02*
X153050001Y-35500001D01*
X153050001Y-37350001D02*
X153050001Y-37850001D01*
X153050001Y-39850001D02*
X153050001Y-40350001D01*
X150550001Y-39850001D02*
X150550001Y-40350001D01*
X150550001Y-42350001D02*
X150550001Y-42850001D01*
X153050001Y-42350001D02*
X153050001Y-42850001D01*
X150550001Y-37350001D02*
X150550001Y-37850001D01*
X153050001Y-44850001D02*
X153050001Y-45350001D01*
X150550001Y-44850001D02*
X150550001Y-45350001D01*
D10*
X141180001Y-35925001D02*
X140930001Y-35925001D01*
X140930001Y-35925001D02*
X140930001Y-36175001D01*
X143780001Y-35925001D02*
X144030001Y-35925001D01*
X144030001Y-35925001D02*
X144030001Y-36175001D01*
X144030001Y-38775001D02*
X144030001Y-39025001D01*
X144030001Y-39025001D02*
X143780001Y-39025001D01*
X140930001Y-38775001D02*
X140930001Y-39025001D01*
X140930001Y-39025001D02*
X141180001Y-39025001D01*
D11*
X140180001Y-36475001D02*
G75*
G03X140180001Y-36475001I-100000J0D01*
G01*
D14*
X147666666Y-39515795D02*
X147657142Y-39525319D01*
X147628571Y-39534843D01*
X147609523Y-39534843D01*
X147580952Y-39525319D01*
X147561904Y-39506271D01*
X147552380Y-39487224D01*
X147542857Y-39449128D01*
X147542857Y-39420557D01*
X147552380Y-39382462D01*
X147561904Y-39363414D01*
X147580952Y-39344367D01*
X147609523Y-39334843D01*
X147628571Y-39334843D01*
X147657142Y-39344367D01*
X147666666Y-39353890D01*
X147847619Y-39334843D02*
X147752380Y-39334843D01*
X147742857Y-39430081D01*
X147752380Y-39420557D01*
X147771428Y-39411033D01*
X147819047Y-39411033D01*
X147838095Y-39420557D01*
X147847619Y-39430081D01*
X147857142Y-39449128D01*
X147857142Y-39496747D01*
X147847619Y-39515795D01*
X147838095Y-39525319D01*
X147819047Y-39534843D01*
X147771428Y-39534843D01*
X147752380Y-39525319D01*
X147742857Y-39515795D01*
X138435476Y-47972380D02*
X138597380Y-47972380D01*
X138616428Y-47962857D01*
X138625952Y-47953333D01*
X138635476Y-47934285D01*
X138635476Y-47896190D01*
X138625952Y-47877142D01*
X138616428Y-47867619D01*
X138597380Y-47858095D01*
X138435476Y-47858095D01*
X138454523Y-47772380D02*
X138445000Y-47762857D01*
X138435476Y-47743809D01*
X138435476Y-47696190D01*
X138445000Y-47677142D01*
X138454523Y-47667619D01*
X138473571Y-47658095D01*
X138492619Y-47658095D01*
X138521190Y-47667619D01*
X138635476Y-47781904D01*
X138635476Y-47658095D01*
X138006666Y-48197061D02*
X137997142Y-48206585D01*
X137968571Y-48216109D01*
X137949523Y-48216109D01*
X137920952Y-48206585D01*
X137901904Y-48187537D01*
X137892380Y-48168490D01*
X137882857Y-48130394D01*
X137882857Y-48101823D01*
X137892380Y-48063728D01*
X137901904Y-48044680D01*
X137920952Y-48025633D01*
X137949523Y-48016109D01*
X137968571Y-48016109D01*
X137997142Y-48025633D01*
X138006666Y-48035156D01*
X138178095Y-48082775D02*
X138178095Y-48216109D01*
X138130476Y-48006585D02*
X138082857Y-48149442D01*
X138206666Y-48149442D01*
X145847619Y-40470476D02*
X145847619Y-40632380D01*
X145857142Y-40651428D01*
X145866666Y-40660952D01*
X145885714Y-40670476D01*
X145923809Y-40670476D01*
X145942857Y-40660952D01*
X145952380Y-40651428D01*
X145961904Y-40632380D01*
X145961904Y-40470476D01*
X146038095Y-40470476D02*
X146161904Y-40470476D01*
X146095238Y-40546666D01*
X146123809Y-40546666D01*
X146142857Y-40556190D01*
X146152380Y-40565714D01*
X146161904Y-40584761D01*
X146161904Y-40632380D01*
X146152380Y-40651428D01*
X146142857Y-40660952D01*
X146123809Y-40670476D01*
X146066666Y-40670476D01*
X146047619Y-40660952D01*
X146038095Y-40651428D01*
X141236666Y-41291428D02*
X141227142Y-41300952D01*
X141198571Y-41310476D01*
X141179523Y-41310476D01*
X141150952Y-41300952D01*
X141131904Y-41281904D01*
X141122380Y-41262857D01*
X141112857Y-41224761D01*
X141112857Y-41196190D01*
X141122380Y-41158095D01*
X141131904Y-41139047D01*
X141150952Y-41120000D01*
X141179523Y-41110476D01*
X141198571Y-41110476D01*
X141227142Y-41120000D01*
X141236666Y-41129523D01*
X141427142Y-41310476D02*
X141312857Y-41310476D01*
X141370000Y-41310476D02*
X141370000Y-41110476D01*
X141350952Y-41139047D01*
X141331904Y-41158095D01*
X141312857Y-41167619D01*
X140916666Y-42437061D02*
X140907142Y-42446585D01*
X140878571Y-42456109D01*
X140859523Y-42456109D01*
X140830952Y-42446585D01*
X140811904Y-42427537D01*
X140802380Y-42408490D01*
X140792857Y-42370394D01*
X140792857Y-42341823D01*
X140802380Y-42303728D01*
X140811904Y-42284680D01*
X140830952Y-42265633D01*
X140859523Y-42256109D01*
X140878571Y-42256109D01*
X140907142Y-42265633D01*
X140916666Y-42275156D01*
X140992857Y-42275156D02*
X141002380Y-42265633D01*
X141021428Y-42256109D01*
X141069047Y-42256109D01*
X141088095Y-42265633D01*
X141097619Y-42275156D01*
X141107142Y-42294204D01*
X141107142Y-42313252D01*
X141097619Y-42341823D01*
X140983333Y-42456109D01*
X141107142Y-42456109D01*
X144591428Y-40003333D02*
X144600952Y-40012857D01*
X144610476Y-40041428D01*
X144610476Y-40060476D01*
X144600952Y-40089047D01*
X144581904Y-40108095D01*
X144562857Y-40117619D01*
X144524761Y-40127142D01*
X144496190Y-40127142D01*
X144458095Y-40117619D01*
X144439047Y-40108095D01*
X144420000Y-40089047D01*
X144410476Y-40060476D01*
X144410476Y-40041428D01*
X144420000Y-40012857D01*
X144429523Y-40003333D01*
X144410476Y-39936666D02*
X144410476Y-39812857D01*
X144486666Y-39879523D01*
X144486666Y-39850952D01*
X144496190Y-39831904D01*
X144505714Y-39822380D01*
X144524761Y-39812857D01*
X144572380Y-39812857D01*
X144591428Y-39822380D01*
X144600952Y-39831904D01*
X144610476Y-39850952D01*
X144610476Y-39908095D01*
X144600952Y-39927142D01*
X144591428Y-39936666D01*
X145666666Y-40977061D02*
X145657142Y-40986585D01*
X145628571Y-40996109D01*
X145609523Y-40996109D01*
X145580952Y-40986585D01*
X145561904Y-40967537D01*
X145552380Y-40948490D01*
X145542857Y-40910394D01*
X145542857Y-40881823D01*
X145552380Y-40843728D01*
X145561904Y-40824680D01*
X145580952Y-40805633D01*
X145609523Y-40796109D01*
X145628571Y-40796109D01*
X145657142Y-40805633D01*
X145666666Y-40815156D01*
X145838095Y-40796109D02*
X145800000Y-40796109D01*
X145780952Y-40805633D01*
X145771428Y-40815156D01*
X145752380Y-40843728D01*
X145742857Y-40881823D01*
X145742857Y-40958013D01*
X145752380Y-40977061D01*
X145761904Y-40986585D01*
X145780952Y-40996109D01*
X145819047Y-40996109D01*
X145838095Y-40986585D01*
X145847619Y-40977061D01*
X145857142Y-40958013D01*
X145857142Y-40910394D01*
X145847619Y-40891347D01*
X145838095Y-40881823D01*
X145819047Y-40872299D01*
X145780952Y-40872299D01*
X145761904Y-40881823D01*
X145752380Y-40891347D01*
X145742857Y-40910394D01*
X145125795Y-38233333D02*
X145135319Y-38242857D01*
X145144843Y-38271428D01*
X145144843Y-38290476D01*
X145135319Y-38319047D01*
X145116271Y-38338095D01*
X145097224Y-38347619D01*
X145059128Y-38357142D01*
X145030557Y-38357142D01*
X144992462Y-38347619D01*
X144973414Y-38338095D01*
X144954367Y-38319047D01*
X144944843Y-38290476D01*
X144944843Y-38271428D01*
X144954367Y-38242857D01*
X144963890Y-38233333D01*
X144944843Y-38166666D02*
X144944843Y-38033333D01*
X145144843Y-38119047D01*
X146521428Y-38583333D02*
X146530952Y-38592857D01*
X146540476Y-38621428D01*
X146540476Y-38640476D01*
X146530952Y-38669047D01*
X146511904Y-38688095D01*
X146492857Y-38697619D01*
X146454761Y-38707142D01*
X146426190Y-38707142D01*
X146388095Y-38697619D01*
X146369047Y-38688095D01*
X146350000Y-38669047D01*
X146340476Y-38640476D01*
X146340476Y-38621428D01*
X146350000Y-38592857D01*
X146359523Y-38583333D01*
X146426190Y-38469047D02*
X146416666Y-38488095D01*
X146407142Y-38497619D01*
X146388095Y-38507142D01*
X146378571Y-38507142D01*
X146359523Y-38497619D01*
X146350000Y-38488095D01*
X146340476Y-38469047D01*
X146340476Y-38430952D01*
X146350000Y-38411904D01*
X146359523Y-38402380D01*
X146378571Y-38392857D01*
X146388095Y-38392857D01*
X146407142Y-38402380D01*
X146416666Y-38411904D01*
X146426190Y-38430952D01*
X146426190Y-38469047D01*
X146435714Y-38488095D01*
X146445238Y-38497619D01*
X146464285Y-38507142D01*
X146502380Y-38507142D01*
X146521428Y-38497619D01*
X146530952Y-38488095D01*
X146540476Y-38469047D01*
X146540476Y-38430952D01*
X146530952Y-38411904D01*
X146521428Y-38402380D01*
X146502380Y-38392857D01*
X146464285Y-38392857D01*
X146445238Y-38402380D01*
X146435714Y-38411904D01*
X146426190Y-38430952D01*
X134833333Y-34990476D02*
X134833333Y-35133333D01*
X134823809Y-35161904D01*
X134804761Y-35180952D01*
X134776190Y-35190476D01*
X134757142Y-35190476D01*
X135033333Y-35190476D02*
X134919047Y-35190476D01*
X134976190Y-35190476D02*
X134976190Y-34990476D01*
X134957142Y-35019047D01*
X134938095Y-35038095D01*
X134919047Y-35047619D01*
X150633334Y-34990477D02*
X150633334Y-35133334D01*
X150623810Y-35161905D01*
X150604762Y-35180953D01*
X150576191Y-35190477D01*
X150557143Y-35190477D01*
X150719048Y-35009524D02*
X150728572Y-35000001D01*
X150747620Y-34990477D01*
X150795239Y-34990477D01*
X150814286Y-35000001D01*
X150823810Y-35009524D01*
X150833334Y-35028572D01*
X150833334Y-35047620D01*
X150823810Y-35076191D01*
X150709524Y-35190477D01*
X150833334Y-35190477D01*
X148966666Y-35520476D02*
X148900000Y-35425238D01*
X148852380Y-35520476D02*
X148852380Y-35320476D01*
X148928571Y-35320476D01*
X148947619Y-35330000D01*
X148957142Y-35339523D01*
X148966666Y-35358571D01*
X148966666Y-35387142D01*
X148957142Y-35406190D01*
X148947619Y-35415714D01*
X148928571Y-35425238D01*
X148852380Y-35425238D01*
X149157142Y-35520476D02*
X149042857Y-35520476D01*
X149100000Y-35520476D02*
X149100000Y-35320476D01*
X149080952Y-35349047D01*
X149061904Y-35368095D01*
X149042857Y-35377619D01*
X140457619Y-35420476D02*
X140457619Y-35582380D01*
X140467142Y-35601428D01*
X140476666Y-35610952D01*
X140495714Y-35620476D01*
X140533809Y-35620476D01*
X140552857Y-35610952D01*
X140562380Y-35601428D01*
X140571904Y-35582380D01*
X140571904Y-35420476D01*
X140771904Y-35620476D02*
X140657619Y-35620476D01*
X140714761Y-35620476D02*
X140714761Y-35420476D01*
X140695714Y-35449047D01*
X140676666Y-35468095D01*
X140657619Y-35477619D01*
M02*
